P3
40 30
255
255 255 255 255 255 255 255 255 255 255 255 255 255 255 255 255 255 255 255 255 255 255 255 255 255 255 255 255 255 255 255 255 255 255 255 255 255 255 255 255 255 255 255 255 255 255 255 255 255 255 255 255 255 255 255 255 255 255 255 255 255 255 255 255 255 255 255 255 255 255 255 255 255 255 255 255 255 255 255 255 255 255 255 255 255 255 255 255 255 255 255 255 255 255 255 255 255 255 255 255 255 255 255 255 255 255 255 255 255 255 255 255 255 255 255 255 255 255 255 255 
255 255 255 255 255 255 255 255 255 255 255 255 255 255 255 255 255 255 255 255 255 255 255 255 255 255 255 255 255 255 255 255 255 255 255 255 255 255 255 255 255 255 255 255 255 255 255 255 255 255 255 255 255 255 255 255 255 255 255 255 255 255 255 255 255 255 255 255 255 255 255 255 255 255 255 255 255 255 255 255 255 255 255 255 255 255 255 49 49 49 49 49 49 255 255 255 255 255 255 255 255 255 255 255 255 255 255 255 255 255 255 255 255 255 255 255 255 255 255 255 
255 255 255 255 255 255 255 255 255 255 255 255 255 255 255 255 255 255 255 255 255 255 255 255 255 255 255 255 255 255 255 255 255 255 255 255 255 255 255 255 255 255 255 255 255 255 255 255 255 255 255 255 255 255 255 255 255 255 255 255 255 255 255 255 255 255 255 255 255 255 255 255 255 255 255 255 255 255 255 255 255 255 255 255 49 49 49 255 90 58 49 49 49 255 255 255 255 255 255 255 255 255 255 255 255 255 255 255 255 255 255 255 255 255 255 255 255 255 255 255 
255 255 255 255 255 255 255 255 255 255 255 255 255 255 255 255 255 255 255 255 255 255 255 255 255 255 255 255 255 255 255 255 255 255 255 255 255 255 255 255 255 255 255 255 255 255 255 255 255 255 255 255 255 255 255 255 255 255 255 255 255 255 255 255 255 255 255 255 255 255 255 255 255 255 255 255 255 255 255 255 255 255 255 255 49 49 49 255 90 58 49 49 49 255 255 255 255 255 255 255 255 255 255 255 255 255 255 255 255 255 255 255 255 255 255 255 255 255 255 255 
255 255 255 255 255 255 255 255 255 255 255 255 255 255 255 255 255 255 255 255 255 255 255 255 255 255 255 255 255 255 255 255 255 255 255 255 255 255 255 255 255 255 255 255 255 255 255 255 255 255 255 255 255 255 255 255 255 255 255 255 255 255 255 255 255 255 255 255 255 255 255 255 255 255 255 255 255 255 255 255 255 49 49 49 255 90 58 255 90 58 255 90 58 49 49 49 255 255 255 255 255 255 255 255 255 255 255 255 255 255 255 255 255 255 255 255 255 255 255 255 
255 255 255 255 255 255 255 255 255 255 255 255 255 255 255 255 255 255 255 255 255 255 255 255 255 255 255 255 255 255 255 255 255 255 255 255 255 255 255 255 255 255 255 255 255 255 255 255 255 255 255 255 255 255 255 255 255 255 255 255 255 255 255 255 255 255 255 255 255 255 255 255 255 255 255 255 255 255 255 255 255 49 49 49 255 90 58 247 148 41 255 90 58 255 90 58 49 49 49 255 255 255 255 255 255 255 255 255 255 255 255 255 255 255 255 255 255 255 255 255 
255 255 255 255 255 255 255 255 255 255 255 255 255 255 255 255 255 255 255 255 255 255 255 255 255 255 255 255 255 255 255 255 255 255 255 255 255 255 255 255 255 255 255 255 255 255 255 255 255 255 255 255 255 255 255 255 255 255 255 255 255 255 255 255 255 255 255 255 255 255 255 255 255 255 255 255 255 255 255 255 255 49 49 49 255 90 58 255 230 41 255 90 58 255 90 58 49 49 49 255 255 255 255 255 255 255 255 255 255 255 255 255 255 255 255 255 255 255 255 255 
255 255 255 255 255 255 255 255 255 255 255 255 255 255 255 255 255 255 255 255 255 255 255 255 255 255 255 255 255 255 255 255 255 255 255 255 255 255 255 255 255 255 255 255 255 255 255 255 255 255 255 255 255 255 255 255 255 255 255 255 255 255 255 255 255 255 255 255 255 255 255 255 255 255 255 255 255 255 255 255 255 49 49 49 255 90 58 255 230 41 255 230 41 255 90 58 255 90 58 49 49 49 255 255 255 255 255 255 255 255 255 255 255 255 255 255 255 255 255 255 
255 255 255 255 255 255 255 255 255 255 255 255 255 255 255 255 255 255 255 255 255 255 255 255 255 255 255 255 255 255 49 49 49 255 255 255 255 255 255 255 255 255 255 255 255 255 255 255 49 49 49 49 49 49 49 49 49 255 255 255 255 255 255 49 49 49 49 49 49 255 255 255 255 255 255 255 255 255 255 255 255 255 255 255 49 49 49 247 148 41 255 230 41 255 230 41 255 90 58 49 49 49 255 255 255 255 255 255 255 255 255 255 255 255 255 255 255 255 255 255 
255 255 255 255 255 255 255 255 255 255 255 255 255 255 255 255 255 255 255 255 255 255 255 255 255 255 255 49 49 49 247 148 41 49 49 49 255 255 255 255 255 255 255 255 255 49 49 49 181 66 58 181 66 58 181 66 58 49 49 49 49 49 49 247 148 41 247 148 41 49 49 49 49 49 49 255 255 255 255 255 255 255 255 255 49 49 49 255 90 58 255 230 41 255 230 41 247 148 41 49 49 49 255 255 255 255 255 255 255 255 255 255 255 255 255 255 255 255 255 255 
255 255 255 255 255 255 255 255 255 255 255 255 255 255 255 255 255 255 255 255 255 255 255 255 255 255 255 49 49 49 247 148 41 49 49 49 255 255 255 255 255 255 49 49 49 247 148 41 82 82 82 181 66 58 181 66 58 181 66 58 181 66 58 82 82 82 247 148 41 247 148 41 247 148 41 49 49 49 49 49 49 255 255 255 255 255 255 49 49 49 247 148 41 255 230 41 49 49 49 255 255 255 255 255 255 255 255 255 255 255 255 255 255 255 255 255 255 255 255 255 
255 255 255 255 255 255 255 255 255 255 255 255 255 255 255 255 255 255 255 255 255 255 255 255 49 49 49 247 148 41 214 99 66 49 49 49 255 255 255 49 49 49 214 99 66 247 148 41 49 49 49 49 49 49 181 66 58 181 66 58 181 66 58 181 66 58 82 82 82 247 148 41 247 148 41 247 148 41 247 148 41 49 49 49 49 49 49 255 255 255 49 49 49 247 148 41 49 49 49 255 255 255 255 255 255 255 255 255 255 255 255 255 255 255 255 255 255 255 255 255 
255 255 255 255 255 255 255 255 255 255 255 255 255 255 255 255 255 255 255 255 255 255 255 255 49 49 49 247 148 41 49 49 49 255 255 255 255 255 255 49 49 49 247 148 41 49 49 49 255 255 255 255 255 255 49 49 49 181 66 58 181 66 58 181 66 58 82 82 82 247 148 41 82 82 82 214 99 66 247 148 41 247 148 41 247 148 41 49 49 49 82 82 82 214 99 66 214 99 66 49 49 49 255 255 255 255 255 255 255 255 255 255 255 255 255 255 255 255 255 255 
255 255 255 255 255 255 255 255 255 255 255 255 255 255 255 255 255 255 255 255 255 49 49 49 247 148 41 247 148 41 82 82 82 49 49 49 49 49 49 247 148 41 247 148 41 49 49 49 255 255 255 255 255 255 255 255 255 49 49 49 181 66 58 82 82 82 247 148 41 82 82 82 49 107 90 49 107 90 214 99 66 214 99 66 247 148 41 247 148 41 82 82 82 214 99 66 214 99 66 49 49 49 255 255 255 255 255 255 255 255 255 255 255 255 255 255 255 255 255 255 
255 255 255 255 255 255 255 255 255 255 255 255 255 255 255 255 255 255 255 255 255 49 49 49 247 148 41 247 148 41 247 148 41 214 99 66 247 148 41 247 148 41 82 82 82 49 49 49 49 49 49 255 255 255 255 255 255 49 49 49 82 82 82 247 148 41 247 148 41 82 82 82 49 107 90 49 107 90 49 107 90 214 99 66 214 99 66 214 99 66 247 148 41 82 82 82 214 99 66 214 99 66 49 49 49 255 255 255 255 255 255 255 255 255 255 255 255 255 255 255 
255 255 255 255 255 255 255 255 255 255 255 255 255 255 255 255 255 255 49 49 49 247 148 41 247 148 41 247 148 41 247 148 41 247 148 41 247 148 41 247 148 41 214 99 66 214 99 66 214 99 66 49 49 49 49 49 49 247 148 41 247 148 41 247 148 41 82 82 82 214 99 66 82 82 82 74 132 115 74 132 115 49 107 90 49 107 90 214 99 66 214 99 66 214 99 66 82 82 82 214 99 66 49 49 49 255 255 255 255 255 255 255 255 255 255 255 255 255 255 255 
255 255 255 255 255 255 255 255 255 255 255 255 255 255 255 255 255 255 49 49 49 247 148 41 247 148 41 247 148 41 214 99 66 247 148 41 255 255 255 214 99 66 214 99 66 214 99 66 214 99 66 214 99 66 214 99 66 247 148 41 247 148 41 247 148 41 247 148 41 247 148 41 214 99 66 82 82 82 82 82 82 74 132 115 74 132 115 49 107 90 214 99 66 214 99 66 82 82 82 214 99 66 214 99 66 49 49 49 255 255 255 255 255 255 255 255 255 255 255 255 
255 255 255 255 255 255 255 255 255 255 255 255 255 255 255 255 255 255 49 49 49 214 99 66 247 148 41 181 66 58 247 148 41 49 49 49 255 255 255 214 99 66 82 82 82 82 82 82 214 99 66 214 99 66 214 99 66 247 148 41 82 82 82 247 148 41 247 148 41 247 148 41 82 82 82 214 99 66 214 99 66 82 82 82 74 132 115 49 49 49 49 49 49 214 99 66 214 99 66 82 82 82 214 99 66 49 49 49 255 255 255 255 255 255 255 255 255 255 255 255 
255 255 255 255 255 255 255 255 255 255 255 255 255 255 255 49 49 49 247 148 41 247 148 41 214 99 66 214 99 66 49 49 49 49 107 90 214 99 66 214 99 66 82 82 82 181 66 58 49 49 49 214 99 66 247 214 115 247 214 115 247 214 115 82 82 82 82 82 82 247 148 41 247 148 41 82 82 82 214 99 66 214 99 66 49 49 49 255 255 255 255 255 255 49 49 49 214 99 66 82 82 82 214 99 66 49 49 49 255 255 255 255 255 255 255 255 255 255 255 255 
255 255 255 255 255 255 255 255 255 255 255 255 49 49 49 247 148 41 247 148 41 247 148 41 247 148 41 247 148 41 247 148 41 214 99 66 214 99 66 82 82 82 181 66 58 49 49 49 255 255 255 49 49 49 247 214 115 247 214 115 247 214 115 247 214 115 247 214 115 82 82 82 247 148 41 247 148 41 82 82 82 214 99 66 214 99 66 49 49 49 49 49 49 214 99 66 82 82 82 82 82 82 214 99 66 49 49 49 255 255 255 255 255 255 255 255 255 255 255 255 
255 255 255 255 255 255 255 255 255 255 255 255 49 49 49 247 148 41 247 148 41 181 66 58 247 148 41 247 148 41 214 99 66 49 49 49 82 82 82 181 66 58 181 66 58 49 49 49 255 255 255 49 49 49 214 181 99 247 214 115 247 214 115 247 214 115 82 82 82 82 82 82 247 148 41 82 82 82 82 82 82 214 99 66 214 99 66 82 82 82 214 99 66 214 99 66 214 99 66 214 99 66 49 49 49 255 255 255 255 255 255 255 255 255 255 255 255 255 255 255 
255 255 255 255 255 255 255 255 255 255 255 255 255 255 255 49 49 49 214 99 66 247 148 41 214 99 66 49 49 49 49 49 49 255 255 255 49 49 49 189 189 189 181 66 58 189 189 189 49 49 49 214 99 66 82 82 82 214 181 99 247 214 115 82 82 82 82 82 82 247 148 41 247 148 41 82 82 82 247 148 41 214 99 66 214 99 66 214 99 66 82 82 82 214 99 66 214 99 66 214 99 66 49 49 49 255 255 255 255 255 255 255 255 255 255 255 255 255 255 255 
255 255 255 255 255 255 255 255 255 255 255 255 255 255 255 255 255 255 49 49 49 49 49 49 49 49 49 255 255 255 255 255 255 255 255 255 255 255 255 49 49 49 49 49 49 49 49 49 49 49 49 214 99 66 214 99 66 214 99 66 82 82 82 255 255 255 247 148 41 247 148 41 82 82 82 247 148 41 247 148 41 247 148 41 214 99 66 214 99 66 82 82 82 214 99 66 214 99 66 49 49 49 255 255 255 255 255 255 255 255 255 255 255 255 255 255 255 255 255 255 
255 255 255 255 255 255 255 255 255 255 255 255 255 255 255 255 255 255 255 255 255 255 255 255 255 255 255 255 255 255 255 255 255 255 255 255 255 255 255 255 255 255 255 255 255 255 255 255 255 255 255 49 49 49 214 99 66 214 99 66 214 99 66 82 82 82 82 82 82 255 255 255 82 82 82 247 148 41 247 148 41 247 148 41 214 99 66 214 99 66 49 49 49 49 49 49 49 49 49 255 255 255 255 255 255 255 255 255 255 255 255 255 255 255 255 255 255 255 255 255 
255 255 255 255 255 255 255 255 255 255 255 255 255 255 255 255 255 255 255 255 255 255 255 255 255 255 255 255 255 255 255 255 255 255 255 255 255 255 255 255 255 255 255 255 255 255 255 255 255 255 255 255 255 255 49 49 49 49 49 49 49 49 49 49 49 49 214 181 99 82 82 82 214 99 66 247 148 41 247 148 41 214 99 66 214 99 66 49 49 49 255 255 255 255 255 255 255 255 255 255 255 255 255 255 255 255 255 255 255 255 255 255 255 255 255 255 255 255 255 255 
255 255 255 255 255 255 255 255 255 255 255 255 255 255 255 255 255 255 255 255 255 255 255 255 255 255 255 255 255 255 255 255 255 255 255 255 255 255 255 255 255 255 255 255 255 255 255 255 255 255 255 255 255 255 255 255 255 255 255 255 255 255 255 255 255 255 49 49 49 49 49 49 214 99 66 214 99 66 214 99 66 214 99 66 214 99 66 49 49 49 255 255 255 255 255 255 255 255 255 255 255 255 255 255 255 255 255 255 255 255 255 255 255 255 255 255 255 255 255 255 
255 255 255 255 255 255 255 255 255 255 255 255 255 255 255 255 255 255 255 255 255 255 255 255 255 255 255 255 255 255 255 255 255 255 255 255 255 255 255 255 255 255 255 255 255 255 255 255 255 255 255 255 255 255 255 255 255 255 255 255 255 255 255 255 255 255 255 255 255 255 255 255 49 49 49 255 255 255 214 99 66 189 189 189 49 49 49 255 255 255 255 255 255 255 255 255 255 255 255 255 255 255 255 255 255 255 255 255 255 255 255 255 255 255 255 255 255 255 255 255 
255 255 255 255 255 255 255 255 255 255 255 255 255 255 255 255 255 255 255 255 255 255 255 255 255 255 255 255 255 255 255 255 255 255 255 255 255 255 255 255 255 255 255 255 255 255 255 255 255 255 255 255 255 255 255 255 255 255 255 255 255 255 255 255 255 255 255 255 255 255 255 255 255 255 255 49 49 49 49 49 49 49 49 49 255 255 255 255 255 255 255 255 255 255 255 255 255 255 255 255 255 255 255 255 255 255 255 255 255 255 255 255 255 255 255 255 255 255 255 255 
255 255 255 255 255 255 255 255 255 255 255 255 255 255 255 255 255 255 255 255 255 255 255 255 255 255 255 255 255 255 255 255 255 255 255 255 255 255 255 255 255 255 255 255 255 255 255 255 255 255 255 255 255 255 255 255 255 255 255 255 255 255 255 255 255 255 255 255 255 255 255 255 255 255 255 255 255 255 255 255 255 255 255 255 255 255 255 255 255 255 255 255 255 255 255 255 255 255 255 255 255 255 255 255 255 255 255 255 255 255 255 255 255 255 255 255 255 255 255 255 
255 255 255 255 255 255 255 255 255 255 255 255 255 255 255 255 255 255 255 255 255 255 255 255 255 255 255 255 255 255 255 255 255 255 255 255 255 255 255 255 255 255 255 255 255 255 255 255 255 255 255 255 255 255 255 255 255 255 255 255 255 255 255 255 255 255 255 255 255 255 255 255 255 255 255 255 255 255 255 255 255 255 255 255 255 255 255 255 255 255 255 255 255 255 255 255 255 255 255 255 255 255 255 255 255 255 255 255 255 255 255 255 255 255 255 255 255 255 255 255 
