P3
40 30
255
255 255 255 255 255 255 255 255 255 255 255 255 255 255 255 255 255 255 255 255 255 255 255 255 255 255 255 255 255 255 255 255 255 255 255 255 255 255 255 255 255 255 255 255 255 255 255 255 255 255 255 255 255 255 255 255 255 255 255 255 255 255 255 255 255 255 255 255 255 255 255 255 255 255 255 255 255 255 255 255 255 255 255 255 255 255 255 255 255 255 255 255 255 255 255 255 255 255 255 255 255 255 255 255 255 255 255 255 255 255 255 255 255 255 255 255 255 255 255 255 
255 255 255 255 255 255 255 255 255 255 255 255 255 255 255 255 255 255 255 255 255 255 255 255 255 255 255 255 255 255 255 255 255 255 255 255 255 255 255 255 255 255 255 255 255 255 255 255 255 255 255 255 255 255 255 255 255 255 255 255 255 255 255 255 255 255 255 255 255 255 255 255 255 255 255 255 255 255 255 255 255 255 255 255 255 255 255 255 255 255 255 255 255 255 255 255 255 255 255 255 255 255 255 255 255 255 255 255 255 255 255 255 255 255 255 255 255 255 255 255 
255 255 255 255 255 255 255 255 255 255 255 255 255 255 255 255 255 255 255 255 255 255 255 255 255 255 255 255 255 255 255 255 255 255 255 255 255 255 255 255 255 255 255 255 255 255 255 255 255 255 255 255 255 255 255 255 255 255 255 255 255 255 255 255 255 255 255 255 255 255 255 255 255 255 255 255 255 255 255 255 255 255 255 255 255 255 255 255 255 255 255 255 255 255 255 255 255 255 255 255 255 255 255 255 255 255 255 255 255 255 255 255 255 255 255 255 255 255 255 255 
255 255 255 255 255 255 255 255 255 255 255 255 255 255 255 255 255 255 255 255 255 255 255 255 255 255 255 255 255 255 49 49 49 49 49 49 255 255 255 255 255 255 255 255 255 255 255 255 255 255 255 255 255 255 255 255 255 255 255 255 255 255 255 255 255 255 255 255 255 255 255 255 255 255 255 255 255 255 255 255 255 255 255 255 255 255 255 255 255 255 255 255 255 255 255 255 255 255 255 255 255 255 255 255 255 255 255 255 255 255 255 255 255 255 255 255 255 255 255 255 
255 255 255 255 255 255 255 255 255 255 255 255 255 255 255 255 255 255 255 255 255 255 255 255 255 255 255 255 255 255 49 49 49 156 107 148 49 49 49 255 255 255 255 255 255 255 255 255 255 255 255 255 255 255 255 255 255 255 255 255 255 255 255 255 255 255 49 49 49 49 49 49 255 255 255 255 255 255 255 255 255 255 255 255 255 255 255 255 255 255 255 255 255 255 255 255 255 255 255 255 255 255 255 255 255 255 255 255 255 255 255 255 255 255 255 255 255 255 255 255 
255 255 255 255 255 255 255 255 255 255 255 255 255 255 255 255 255 255 255 255 255 255 255 255 255 255 255 49 49 49 49 49 49 156 107 148 49 49 49 255 255 255 255 255 255 255 255 255 49 49 49 255 255 255 255 255 255 255 255 255 255 255 255 49 49 49 206 140 181 49 49 49 255 255 255 255 255 255 255 255 255 255 255 255 255 255 255 255 255 255 255 255 255 255 255 255 255 255 255 255 255 255 255 255 255 255 255 255 255 255 255 255 255 255 255 255 255 255 255 255 
255 255 255 255 255 255 255 255 255 255 255 255 255 255 255 255 255 255 255 255 255 255 255 255 255 255 255 49 49 49 156 107 148 58 132 90 156 107 148 49 49 49 255 255 255 49 49 49 206 140 181 49 49 49 255 255 255 49 49 49 49 49 49 206 140 181 206 140 181 82 82 82 255 255 255 49 49 49 49 49 49 255 255 255 255 255 255 255 255 255 255 255 255 255 255 255 255 255 255 255 255 255 255 255 255 255 255 255 255 255 255 255 255 255 255 255 255 255 255 255 
255 255 255 255 255 255 255 255 255 255 255 255 255 255 255 255 255 255 255 255 255 255 255 255 255 255 255 255 255 255 49 49 49 58 132 90 156 107 148 156 107 148 49 49 49 82 82 82 206 140 181 49 49 49 49 49 49 206 140 181 206 140 181 206 140 181 206 140 181 49 49 49 49 49 49 206 140 181 49 49 49 255 255 255 255 255 255 255 255 255 255 255 255 255 255 255 255 255 255 255 255 255 255 255 255 255 255 255 255 255 255 255 255 255 255 255 255 255 255 255 
255 255 255 255 255 255 255 255 255 255 255 255 255 255 255 255 255 255 255 255 255 49 49 49 49 49 49 49 49 49 255 255 255 49 49 49 58 132 90 156 107 148 82 82 82 206 140 181 156 107 148 156 107 148 82 82 82 206 140 181 206 140 181 82 82 82 58 132 90 206 140 181 206 140 181 49 49 49 255 255 255 255 255 255 255 255 255 255 255 255 255 255 255 255 255 255 255 255 255 255 255 255 255 255 255 255 255 255 255 255 255 255 255 255 255 255 255 255 255 255 
255 255 255 255 255 255 255 255 255 255 255 255 255 255 255 255 255 255 255 255 255 49 49 49 206 140 181 206 140 181 49 49 49 49 49 49 58 132 90 156 107 148 82 82 82 156 107 148 156 107 148 156 107 148 82 82 82 206 140 181 82 82 82 82 165 123 82 165 123 58 132 90 206 140 181 49 49 49 255 255 255 255 255 255 255 255 255 255 255 255 255 255 255 255 255 255 255 255 255 255 255 255 255 255 255 255 255 255 255 255 255 255 255 255 255 255 255 255 255 255 
255 255 255 255 255 255 255 255 255 255 255 255 255 255 255 255 255 255 255 255 255 255 255 255 49 49 49 206 140 181 206 140 181 206 140 181 82 82 82 82 82 82 156 107 148 156 107 148 156 107 148 82 82 82 206 140 181 206 140 181 82 82 82 58 132 90 82 165 123 82 165 123 58 132 90 206 140 181 49 49 49 255 255 255 255 255 255 49 49 49 49 49 49 49 49 49 255 255 255 255 255 255 255 255 255 255 255 255 255 255 255 255 255 255 255 255 255 255 255 255 
255 255 255 255 255 255 255 255 255 255 255 255 255 255 255 255 255 255 255 255 255 255 255 255 255 255 255 49 49 49 156 107 148 206 140 181 206 140 181 206 140 181 206 140 181 206 140 181 156 107 148 82 82 82 206 140 181 82 82 82 58 132 90 58 132 90 58 132 90 82 165 123 58 132 90 49 49 49 255 255 255 255 255 255 255 255 255 49 49 49 156 107 148 156 107 148 49 49 49 49 49 49 255 255 255 255 255 255 255 255 255 255 255 255 255 255 255 255 255 255 
255 255 255 255 255 255 255 255 255 255 255 255 255 255 255 255 255 255 255 255 255 255 255 255 255 255 255 255 255 255 49 49 49 156 107 148 156 107 148 206 140 181 206 140 181 206 140 181 123 82 115 206 140 181 206 140 181 82 82 82 58 132 90 58 132 90 58 132 90 82 165 123 49 49 49 255 255 255 255 255 255 49 49 49 49 49 49 255 255 255 49 49 49 156 107 148 156 107 148 156 107 148 49 49 49 255 255 255 255 255 255 255 255 255 255 255 255 255 255 255 
255 255 255 255 255 255 255 255 255 255 255 255 255 255 255 255 255 255 255 255 255 255 255 255 255 255 255 255 255 255 49 49 49 123 82 115 206 140 181 206 140 181 206 140 181 206 140 181 206 140 181 206 140 181 206 140 181 206 140 181 82 82 82 58 132 90 58 132 90 49 49 49 255 255 255 49 49 49 49 49 49 156 107 148 49 49 49 255 255 255 255 255 255 49 49 49 156 107 148 123 82 115 156 107 148 49 49 49 255 255 255 255 255 255 255 255 255 255 255 255 
255 255 255 255 255 255 255 255 255 255 255 255 255 255 255 255 255 255 255 255 255 255 255 255 255 255 255 255 255 255 49 49 49 206 140 181 206 140 181 156 107 148 206 140 181 206 140 181 49 49 49 123 82 115 206 140 181 206 140 181 82 82 82 82 82 82 82 82 82 206 140 181 49 49 49 82 82 82 156 107 148 156 107 148 49 49 49 255 255 255 255 255 255 255 255 255 49 49 49 156 107 148 156 107 148 49 49 49 255 255 255 255 255 255 255 255 255 255 255 255 
255 255 255 255 255 255 255 255 255 255 255 255 255 255 255 255 255 255 255 255 255 255 255 255 49 49 49 49 49 49 206 140 181 206 140 181 206 140 181 123 82 115 206 140 181 49 49 49 197 189 173 123 82 115 206 140 181 156 107 148 156 107 148 82 82 82 206 140 181 206 140 181 206 140 181 156 107 148 82 82 82 156 107 148 156 107 148 49 49 49 49 49 49 255 255 255 49 49 49 123 82 115 123 82 115 156 107 148 49 49 49 255 255 255 255 255 255 255 255 255 
255 255 255 255 255 255 255 255 255 255 255 255 255 255 255 255 255 255 255 255 255 49 49 49 156 107 148 82 82 82 206 140 181 206 140 181 206 140 181 206 140 181 82 82 82 49 49 49 255 255 255 156 107 148 82 82 82 156 107 148 82 82 82 206 140 181 206 140 181 206 140 181 82 82 82 156 107 148 49 49 49 156 107 148 156 107 148 156 107 148 156 107 148 49 49 49 156 107 148 156 107 148 156 107 148 123 82 115 49 49 49 255 255 255 255 255 255 255 255 255 
255 255 255 255 255 255 255 255 255 255 255 255 255 255 255 255 255 255 49 49 49 255 255 255 156 107 148 82 82 82 206 140 181 206 140 181 206 140 181 206 140 181 156 107 148 156 107 148 156 107 148 82 82 82 255 255 255 82 82 82 82 82 82 123 82 115 206 140 181 82 82 82 206 140 181 82 82 82 156 107 148 49 49 49 156 107 148 156 107 148 49 49 49 156 107 148 123 82 115 156 107 148 156 107 148 156 107 148 49 49 49 255 255 255 255 255 255 255 255 255 
255 255 255 255 255 255 255 255 255 255 255 255 255 255 255 255 255 255 49 49 49 156 107 148 156 107 148 156 107 148 82 82 82 206 140 181 156 107 148 82 82 82 82 82 82 82 82 82 82 82 82 197 189 173 49 49 49 197 189 173 197 189 173 82 82 82 123 82 115 206 140 181 206 140 181 206 140 181 82 82 82 156 107 148 49 49 49 156 107 148 123 82 115 156 107 148 156 107 148 123 82 115 156 107 148 49 49 49 255 255 255 255 255 255 255 255 255 255 255 255 
255 255 255 255 255 255 255 255 255 255 255 255 255 255 255 255 255 255 49 49 49 156 107 148 255 255 255 82 82 82 49 49 49 49 49 49 49 49 49 156 107 148 156 107 148 156 107 148 49 49 49 49 49 49 197 189 173 197 189 173 255 255 255 255 255 255 82 82 82 206 140 181 206 140 181 206 140 181 255 255 255 82 82 82 156 107 148 49 49 49 123 82 115 156 107 148 156 107 148 123 82 115 156 107 148 49 49 49 255 255 255 255 255 255 255 255 255 255 255 255 
255 255 255 255 255 255 255 255 255 255 255 255 255 255 255 255 255 255 255 255 255 49 49 49 49 49 49 49 49 49 255 255 255 255 255 255 255 255 255 49 49 49 49 49 49 49 49 49 197 189 173 197 189 173 140 140 123 255 255 255 255 255 255 82 82 82 206 140 181 206 140 181 206 140 181 255 255 255 82 82 82 156 107 148 156 107 148 49 49 49 156 107 148 156 107 148 156 107 148 49 49 49 49 49 49 255 255 255 255 255 255 255 255 255 255 255 255 255 255 255 
255 255 255 255 255 255 255 255 255 255 255 255 255 255 255 255 255 255 255 255 255 255 255 255 255 255 255 255 255 255 255 255 255 255 255 255 255 255 255 49 49 49 123 82 115 123 82 115 49 49 49 140 140 123 140 140 123 140 140 123 82 82 82 255 255 255 206 140 181 206 140 181 156 107 148 82 82 82 206 140 181 206 140 181 156 107 148 49 49 49 49 49 49 49 49 49 49 49 49 255 255 255 255 255 255 255 255 255 255 255 255 255 255 255 255 255 255 255 255 255 
255 255 255 255 255 255 255 255 255 255 255 255 255 255 255 255 255 255 255 255 255 255 255 255 255 255 255 255 255 255 255 255 255 255 255 255 255 255 255 49 49 49 123 82 115 123 82 115 123 82 115 49 49 49 255 255 255 255 255 255 255 255 255 82 82 82 156 107 148 156 107 148 82 82 82 206 140 181 206 140 181 206 140 181 156 107 148 49 49 49 255 255 255 255 255 255 255 255 255 255 255 255 255 255 255 255 255 255 255 255 255 255 255 255 255 255 255 255 255 255 
255 255 255 255 255 255 255 255 255 255 255 255 255 255 255 255 255 255 255 255 255 255 255 255 255 255 255 255 255 255 255 255 255 255 255 255 255 255 255 255 255 255 49 49 49 123 82 115 123 82 115 123 82 115 49 49 49 49 49 49 197 189 173 197 189 173 82 82 82 82 82 82 123 82 115 206 140 181 206 140 181 123 82 115 156 107 148 156 107 148 49 49 49 255 255 255 255 255 255 255 255 255 255 255 255 255 255 255 255 255 255 255 255 255 255 255 255 255 255 255 
255 255 255 255 255 255 255 255 255 255 255 255 255 255 255 255 255 255 255 255 255 255 255 255 255 255 255 255 255 255 255 255 255 255 255 255 255 255 255 255 255 255 255 255 255 49 49 49 49 49 49 49 49 49 49 49 49 255 255 255 49 49 49 49 49 49 49 49 49 49 49 49 156 107 148 123 82 115 123 82 115 156 107 148 156 107 148 156 107 148 49 49 49 255 255 255 255 255 255 255 255 255 255 255 255 255 255 255 255 255 255 255 255 255 255 255 255 255 255 255 
255 255 255 255 255 255 255 255 255 255 255 255 255 255 255 255 255 255 255 255 255 255 255 255 255 255 255 255 255 255 255 255 255 255 255 255 255 255 255 255 255 255 255 255 255 255 255 255 255 255 255 255 255 255 255 255 255 255 255 255 255 255 255 255 255 255 255 255 255 49 49 49 156 107 148 156 107 148 156 107 148 156 107 148 156 107 148 49 49 49 255 255 255 255 255 255 255 255 255 255 255 255 255 255 255 255 255 255 255 255 255 255 255 255 255 255 255 255 255 255 
255 255 255 255 255 255 255 255 255 255 255 255 255 255 255 255 255 255 255 255 255 255 255 255 255 255 255 255 255 255 255 255 255 255 255 255 255 255 255 255 255 255 255 255 255 255 255 255 255 255 255 255 255 255 255 255 255 255 255 255 255 255 255 255 255 255 255 255 255 255 255 255 49 49 49 255 255 255 255 255 255 197 189 173 49 49 49 255 255 255 255 255 255 255 255 255 255 255 255 255 255 255 255 255 255 255 255 255 255 255 255 255 255 255 255 255 255 255 255 255 
255 255 255 255 255 255 255 255 255 255 255 255 255 255 255 255 255 255 255 255 255 255 255 255 255 255 255 255 255 255 255 255 255 255 255 255 255 255 255 255 255 255 255 255 255 255 255 255 255 255 255 255 255 255 255 255 255 255 255 255 255 255 255 255 255 255 255 255 255 255 255 255 255 255 255 49 49 49 49 49 49 49 49 49 255 255 255 255 255 255 255 255 255 255 255 255 255 255 255 255 255 255 255 255 255 255 255 255 255 255 255 255 255 255 255 255 255 255 255 255 
255 255 255 255 255 255 255 255 255 255 255 255 255 255 255 255 255 255 255 255 255 255 255 255 255 255 255 255 255 255 255 255 255 255 255 255 255 255 255 255 255 255 255 255 255 255 255 255 255 255 255 255 255 255 255 255 255 255 255 255 255 255 255 255 255 255 255 255 255 255 255 255 255 255 255 255 255 255 255 255 255 255 255 255 255 255 255 255 255 255 255 255 255 255 255 255 255 255 255 255 255 255 255 255 255 255 255 255 255 255 255 255 255 255 255 255 255 255 255 255 
255 255 255 255 255 255 255 255 255 255 255 255 255 255 255 255 255 255 255 255 255 255 255 255 255 255 255 255 255 255 255 255 255 255 255 255 255 255 255 255 255 255 255 255 255 255 255 255 255 255 255 255 255 255 255 255 255 255 255 255 255 255 255 255 255 255 255 255 255 255 255 255 255 255 255 255 255 255 255 255 255 255 255 255 255 255 255 255 255 255 255 255 255 255 255 255 255 255 255 255 255 255 255 255 255 255 255 255 255 255 255 255 255 255 255 255 255 255 255 255 
