P3
40 30
255
255 255 255 255 255 255 255 255 255 255 255 255 255 255 255 255 255 255 255 255 255 255 255 255 255 255 255 255 255 255 255 255 255 255 255 255 255 255 255 255 255 255 255 255 255 255 255 255 255 255 255 255 255 255 255 255 255 255 255 255 255 255 255 255 255 255 255 255 255 255 255 255 255 255 255 255 255 255 255 255 255 255 255 255 255 255 255 255 255 255 255 255 255 255 255 255 255 255 255 255 255 255 255 255 255 255 255 255 255 255 255 255 255 255 255 255 255 255 255 255 
255 255 255 255 255 255 255 255 255 255 255 255 255 255 255 255 255 255 255 255 255 255 255 255 255 255 255 255 255 255 255 255 255 255 255 255 255 255 255 255 255 255 255 255 255 255 255 255 255 255 255 255 255 255 255 255 255 255 255 255 255 255 255 255 255 255 255 255 255 255 255 255 255 255 255 255 255 255 255 255 255 255 255 255 255 255 255 255 255 255 255 255 255 255 255 255 255 255 255 255 255 255 255 255 255 255 255 255 255 255 255 255 255 255 255 255 255 255 255 255 
255 255 255 255 255 255 255 255 255 255 255 255 255 255 255 255 255 255 255 255 255 255 255 255 255 255 255 255 255 255 255 255 255 255 255 255 255 255 255 255 255 255 255 255 255 255 255 255 255 255 255 255 255 255 255 255 255 255 255 255 255 255 255 255 255 255 255 255 255 255 255 255 255 255 255 255 255 255 255 255 255 255 255 255 255 255 255 255 255 255 255 255 255 255 255 255 255 255 255 255 255 255 255 255 255 255 255 255 255 255 255 255 255 255 255 255 255 255 255 255 
255 255 255 255 255 255 255 255 255 255 255 255 255 255 255 255 255 255 255 255 255 255 255 255 255 255 255 255 255 255 255 255 255 255 255 255 255 255 255 255 255 255 255 255 255 255 255 255 255 255 255 255 255 255 255 255 255 255 255 255 255 255 255 255 255 255 255 255 255 255 255 255 255 255 255 255 255 255 255 255 255 255 255 255 255 255 255 255 255 255 255 255 255 255 255 255 255 255 255 255 255 255 255 255 255 255 255 255 255 255 255 255 255 255 255 255 255 255 255 255 
255 255 255 255 255 255 255 255 255 255 255 255 255 255 255 255 255 255 255 255 255 255 255 255 255 255 255 255 255 255 255 255 255 255 255 255 255 255 255 255 255 255 255 255 255 255 255 255 255 255 255 255 255 255 49 49 49 49 49 49 49 49 49 255 255 255 49 49 49 49 49 49 49 49 49 49 49 49 255 255 255 255 255 255 255 255 255 255 255 255 255 255 255 255 255 255 255 255 255 255 255 255 255 255 255 255 255 255 255 255 255 255 255 255 255 255 255 255 255 255 
255 255 255 255 255 255 255 255 255 255 255 255 255 255 255 255 255 255 255 255 255 255 255 255 255 255 255 255 255 255 255 255 255 255 255 255 255 255 255 255 255 255 255 255 255 255 255 255 49 49 49 49 49 49 230 107 115 255 181 165 255 181 165 49 49 49 230 107 115 255 181 165 255 181 165 230 107 115 49 49 49 49 49 49 255 255 255 255 255 255 255 255 255 255 255 255 255 255 255 255 255 255 255 255 255 255 255 255 255 255 255 255 255 255 255 255 255 255 255 255 
255 255 255 255 255 255 255 255 255 255 255 255 255 255 255 255 255 255 255 255 255 255 255 255 255 255 255 255 255 255 255 255 255 255 255 255 255 255 255 255 255 255 255 255 255 49 49 49 255 181 165 255 181 165 230 107 115 230 107 115 82 82 82 82 82 82 82 82 82 230 107 115 230 107 115 230 107 115 255 181 165 255 181 165 49 49 49 255 255 255 255 255 255 255 255 255 255 255 255 255 255 255 255 255 255 255 255 255 255 255 255 255 255 255 255 255 255 255 255 255 
255 255 255 255 255 255 255 255 255 255 255 255 255 255 255 255 255 255 255 255 255 255 255 255 255 255 255 255 255 255 255 255 255 255 255 255 255 255 255 255 255 255 49 49 49 230 107 115 230 107 115 230 107 115 165 66 74 82 82 82 255 197 0 255 197 0 255 197 0 82 82 82 165 66 74 165 66 74 165 66 74 230 107 115 49 49 49 255 255 255 255 255 255 255 255 255 255 255 255 255 255 255 255 255 255 255 255 255 255 255 255 255 255 255 255 255 255 255 255 255 
255 255 255 255 255 255 255 255 255 255 255 255 255 255 255 255 255 255 255 255 255 255 255 255 255 255 255 255 255 255 255 255 255 255 255 255 255 255 255 255 255 255 49 49 49 230 107 115 165 66 74 165 66 74 230 107 115 230 107 115 82 82 82 82 82 82 82 82 82 230 107 115 165 66 74 230 107 115 255 181 165 165 66 74 165 66 74 49 49 49 255 255 255 255 255 255 255 255 255 255 255 255 255 255 255 255 255 255 255 255 255 255 255 255 255 255 255 255 255 255 
255 255 255 255 255 255 255 255 255 255 255 255 255 255 255 255 255 255 255 255 255 255 255 255 255 255 255 255 255 255 49 49 49 49 49 49 49 49 49 255 255 255 255 255 255 49 49 49 230 107 115 255 181 165 255 181 165 230 107 115 230 107 115 230 107 115 230 107 115 165 66 74 230 107 115 230 107 115 230 107 115 230 107 115 230 107 115 49 49 49 255 255 255 255 255 255 255 255 255 255 255 255 255 255 255 255 255 255 255 255 255 255 255 255 255 255 255 255 255 255 
255 255 255 255 255 255 255 255 255 255 255 255 255 255 255 255 255 255 255 255 255 255 255 255 49 49 49 49 49 49 74 115 74 74 115 74 74 115 74 49 49 49 49 49 49 230 107 115 230 107 115 230 107 115 230 107 115 230 107 115 255 181 165 255 181 165 230 107 115 165 66 74 255 181 165 255 181 165 230 107 115 230 107 115 230 107 115 82 82 82 49 49 49 255 255 255 255 255 255 255 255 255 255 255 255 255 255 255 255 255 255 255 255 255 255 255 255 255 255 255 
255 255 255 255 255 255 255 255 255 255 255 255 255 255 255 255 255 255 255 255 255 49 49 49 74 115 74 74 115 74 74 115 74 74 115 74 74 115 74 74 115 74 82 82 82 82 82 82 230 107 115 255 181 165 230 107 115 255 181 165 255 181 165 255 181 165 165 66 74 82 82 82 82 82 82 255 181 165 255 181 165 230 107 115 82 82 82 74 115 74 74 115 74 49 49 49 255 255 255 255 255 255 255 255 255 255 255 255 255 255 255 255 255 255 255 255 255 255 255 255 
255 255 255 255 255 255 255 255 255 255 255 255 255 255 255 255 255 255 255 255 255 255 255 255 49 49 49 74 115 74 82 82 82 82 82 82 74 115 74 74 115 74 74 115 74 82 82 82 82 82 82 82 82 82 82 82 82 230 107 115 255 181 165 82 82 82 82 82 82 148 115 74 82 82 82 82 82 82 82 82 82 82 82 82 74 115 74 49 49 49 49 49 49 49 49 49 255 255 255 255 255 255 255 255 255 255 255 255 255 255 255 255 255 255 255 255 255 255 255 255 
255 255 255 255 255 255 255 255 255 255 255 255 255 255 255 255 255 255 255 255 255 255 255 255 255 255 255 49 49 49 107 189 165 41 123 107 82 82 82 82 82 82 82 82 82 115 181 90 99 148 90 99 148 90 74 115 74 82 82 82 82 82 82 148 115 74 148 115 74 82 82 82 82 82 82 99 148 90 82 82 82 49 49 49 49 49 49 255 255 255 255 255 255 255 255 255 255 255 255 255 255 255 255 255 255 255 255 255 255 255 255 255 255 255 255 255 255 255 255 255 
255 255 255 255 255 255 255 255 255 255 255 255 255 255 255 255 255 255 255 255 255 255 255 255 255 255 255 49 49 49 107 189 165 107 189 165 82 82 82 115 181 90 115 181 90 74 115 74 115 181 90 74 115 74 99 148 90 74 115 74 74 115 74 82 82 82 82 82 82 82 82 82 99 148 90 99 148 90 99 148 90 99 148 90 115 181 90 49 49 49 49 49 49 49 49 49 49 49 49 255 255 255 255 255 255 255 255 255 255 255 255 255 255 255 255 255 255 255 255 255 
255 255 255 255 255 255 255 255 255 255 255 255 255 255 255 255 255 255 255 255 255 255 255 255 255 255 255 49 49 49 107 189 165 82 82 82 115 181 90 115 181 90 99 148 90 115 181 90 115 181 90 115 181 90 82 82 82 82 82 82 74 115 74 74 115 74 82 82 82 99 148 90 99 148 90 74 115 74 74 115 74 115 181 90 115 181 90 99 148 90 115 181 90 74 115 74 115 181 90 49 49 49 255 255 255 255 255 255 255 255 255 255 255 255 255 255 255 255 255 255 
255 255 255 255 255 255 255 255 255 255 255 255 255 255 255 255 255 255 255 255 255 255 255 255 49 49 49 107 189 165 107 189 165 82 82 82 115 181 90 74 115 74 115 181 90 74 115 74 115 181 90 82 82 82 66 148 132 82 82 82 82 82 82 82 82 82 82 82 82 99 148 90 82 82 82 82 82 82 99 148 90 115 181 90 74 115 74 115 181 90 99 148 90 115 181 90 74 115 74 115 181 90 49 49 49 255 255 255 255 255 255 255 255 255 255 255 255 255 255 255 
255 255 255 255 255 255 255 255 255 255 255 255 255 255 255 255 255 255 255 255 255 49 49 49 107 189 165 107 189 165 107 189 165 107 189 165 82 82 82 82 82 82 115 181 90 74 115 74 82 82 82 82 82 82 107 189 165 107 189 165 107 189 165 66 148 132 66 148 132 82 82 82 66 148 132 66 148 132 82 82 82 82 82 82 74 115 74 115 181 90 74 115 74 115 181 90 115 181 90 74 115 74 49 49 49 255 255 255 255 255 255 255 255 255 255 255 255 255 255 255 
255 255 255 255 255 255 255 255 255 255 255 255 255 255 255 255 255 255 49 49 49 107 189 165 66 148 132 107 189 165 107 189 165 107 189 165 107 189 165 82 82 82 82 82 82 82 82 82 107 189 165 107 189 165 107 189 165 107 189 165 66 148 132 230 107 115 230 107 115 82 82 82 66 148 132 66 148 132 66 148 132 66 148 132 82 82 82 82 82 82 74 115 74 115 181 90 115 181 90 49 49 49 255 255 255 255 255 255 255 255 255 255 255 255 255 255 255 255 255 255 
255 255 255 255 255 255 255 255 255 255 255 255 255 255 255 255 255 255 49 49 49 107 189 165 66 148 132 107 189 165 107 189 165 107 189 165 107 189 165 107 189 165 107 189 165 66 148 132 66 148 132 66 148 132 107 189 165 107 189 165 230 107 115 230 107 115 82 82 82 66 148 132 66 148 132 66 148 132 66 148 132 66 148 132 66 148 132 66 148 132 82 82 82 49 49 49 49 49 49 255 255 255 255 255 255 255 255 255 255 255 255 255 255 255 255 255 255 255 255 255 
255 255 255 255 255 255 255 255 255 255 255 255 255 255 255 49 49 49 82 82 82 66 148 132 107 189 165 107 189 165 107 189 165 107 189 165 107 189 165 107 189 165 41 123 107 107 189 165 49 49 49 49 49 49 107 189 165 66 148 132 66 148 132 66 148 132 82 82 82 66 148 132 66 148 132 82 82 82 66 148 132 82 82 82 66 148 132 66 148 132 66 148 132 49 49 49 255 255 255 255 255 255 255 255 255 255 255 255 255 255 255 255 255 255 255 255 255 255 255 255 
255 255 255 255 255 255 255 255 255 255 255 255 255 255 255 49 49 49 41 123 107 82 82 82 107 189 165 107 189 165 107 189 165 107 189 165 107 189 165 107 189 165 41 123 107 49 49 49 230 107 115 255 255 255 66 148 132 66 148 132 66 148 132 66 148 132 66 148 132 66 148 132 66 148 132 82 82 82 66 148 132 82 82 82 66 148 132 66 148 132 66 148 132 49 49 49 255 255 255 255 255 255 255 255 255 255 255 255 255 255 255 255 255 255 255 255 255 255 255 255 
255 255 255 255 255 255 255 255 255 255 255 255 255 255 255 49 49 49 41 123 107 82 82 82 41 123 107 107 189 165 107 189 165 107 189 165 107 189 165 107 189 165 49 49 49 255 255 255 255 255 255 107 189 165 66 148 132 66 148 132 66 148 132 82 82 82 66 148 132 41 123 107 66 148 132 66 148 132 82 82 82 189 189 189 66 148 132 189 189 189 49 49 49 255 255 255 255 255 255 255 255 255 255 255 255 255 255 255 255 255 255 255 255 255 255 255 255 255 255 255 
255 255 255 255 255 255 255 255 255 255 255 255 255 255 255 255 255 255 49 49 49 189 189 189 82 82 82 66 148 132 107 189 165 41 123 107 107 189 165 107 189 165 107 189 165 66 148 132 66 148 132 66 148 132 66 148 132 66 148 132 82 82 82 66 148 132 66 148 132 66 148 132 66 148 132 41 123 107 49 49 49 49 49 49 49 49 49 49 49 49 255 255 255 255 255 255 255 255 255 255 255 255 255 255 255 255 255 255 255 255 255 255 255 255 255 255 255 255 255 255 
255 255 255 255 255 255 255 255 255 255 255 255 255 255 255 255 255 255 255 255 255 49 49 49 49 49 49 49 49 49 49 49 49 66 148 132 66 148 132 66 148 132 66 148 132 66 148 132 66 148 132 66 148 132 49 49 49 49 49 49 66 148 132 66 148 132 41 123 107 66 148 132 66 148 132 66 148 132 49 49 49 255 255 255 255 255 255 255 255 255 255 255 255 255 255 255 255 255 255 255 255 255 255 255 255 255 255 255 255 255 255 255 255 255 255 255 255 255 255 255 
255 255 255 255 255 255 255 255 255 255 255 255 255 255 255 255 255 255 255 255 255 255 255 255 255 255 255 255 255 255 255 255 255 49 49 49 49 49 49 49 49 49 49 49 49 49 49 49 49 49 49 49 49 49 255 255 255 49 49 49 189 189 189 66 148 132 66 148 132 66 148 132 66 148 132 49 49 49 255 255 255 255 255 255 255 255 255 255 255 255 255 255 255 255 255 255 255 255 255 255 255 255 255 255 255 255 255 255 255 255 255 255 255 255 255 255 255 255 255 255 
255 255 255 255 255 255 255 255 255 255 255 255 255 255 255 255 255 255 255 255 255 255 255 255 255 255 255 255 255 255 255 255 255 255 255 255 255 255 255 255 255 255 255 255 255 255 255 255 255 255 255 255 255 255 255 255 255 255 255 255 49 49 49 255 255 255 66 148 132 255 255 255 66 148 132 49 49 49 255 255 255 255 255 255 255 255 255 255 255 255 255 255 255 255 255 255 255 255 255 255 255 255 255 255 255 255 255 255 255 255 255 255 255 255 255 255 255 255 255 255 
255 255 255 255 255 255 255 255 255 255 255 255 255 255 255 255 255 255 255 255 255 255 255 255 255 255 255 255 255 255 255 255 255 255 255 255 255 255 255 255 255 255 255 255 255 255 255 255 255 255 255 255 255 255 255 255 255 255 255 255 255 255 255 49 49 49 49 49 49 49 49 49 49 49 49 255 255 255 255 255 255 255 255 255 255 255 255 255 255 255 255 255 255 255 255 255 255 255 255 255 255 255 255 255 255 255 255 255 255 255 255 255 255 255 255 255 255 255 255 255 
255 255 255 255 255 255 255 255 255 255 255 255 255 255 255 255 255 255 255 255 255 255 255 255 255 255 255 255 255 255 255 255 255 255 255 255 255 255 255 255 255 255 255 255 255 255 255 255 255 255 255 255 255 255 255 255 255 255 255 255 255 255 255 255 255 255 255 255 255 255 255 255 255 255 255 255 255 255 255 255 255 255 255 255 255 255 255 255 255 255 255 255 255 255 255 255 255 255 255 255 255 255 255 255 255 255 255 255 255 255 255 255 255 255 255 255 255 255 255 255 
255 255 255 255 255 255 255 255 255 255 255 255 255 255 255 255 255 255 255 255 255 255 255 255 255 255 255 255 255 255 255 255 255 255 255 255 255 255 255 255 255 255 255 255 255 255 255 255 255 255 255 255 255 255 255 255 255 255 255 255 255 255 255 255 255 255 255 255 255 255 255 255 255 255 255 255 255 255 255 255 255 255 255 255 255 255 255 255 255 255 255 255 255 255 255 255 255 255 255 255 255 255 255 255 255 255 255 255 255 255 255 255 255 255 255 255 255 255 255 255 
