P3
40 30
255
255 255 255 255 255 255 255 255 255 255 255 255 255 255 255 255 255 255 255 255 255 255 255 255 255 255 255 255 255 255 255 255 255 255 255 255 255 255 255 255 255 255 255 255 255 255 255 255 255 255 255 255 255 255 255 255 255 255 255 255 255 255 255 255 255 255 255 255 255 255 255 255 255 255 255 255 255 255 255 255 255 255 255 255 255 255 255 255 255 255 255 255 255 255 255 255 255 255 255 255 255 255 255 255 255 255 255 255 255 255 255 255 255 255 255 255 255 255 255 255 
255 255 255 255 255 255 255 255 255 255 255 255 255 255 255 255 255 255 255 255 255 255 255 255 255 255 255 255 255 255 255 255 255 255 255 255 255 255 255 255 255 255 255 255 255 255 255 255 255 255 255 255 255 255 255 255 255 255 255 255 255 255 255 255 255 255 255 255 255 255 255 255 255 255 255 255 255 255 255 255 255 255 255 255 255 255 255 255 255 255 255 255 255 255 255 255 255 255 255 255 255 255 255 255 255 255 255 255 255 255 255 255 255 255 255 255 255 255 255 255 
255 255 255 255 255 255 255 255 255 255 255 255 255 255 255 255 255 255 255 255 255 255 255 255 255 255 255 255 255 255 255 255 255 255 255 255 255 255 255 255 255 255 255 255 255 255 255 255 255 255 255 255 255 255 255 255 255 255 255 255 255 255 255 255 255 255 255 255 255 255 255 255 255 255 255 255 255 255 255 255 255 255 255 255 49 49 49 49 49 49 49 49 49 255 255 255 255 255 255 255 255 255 255 255 255 255 255 255 255 255 255 255 255 255 255 255 255 255 255 255 
255 255 255 255 255 255 255 255 255 255 255 255 255 255 255 255 255 255 255 255 255 255 255 255 255 255 255 255 255 255 255 255 255 255 255 255 255 255 255 255 255 255 255 255 255 255 255 255 255 255 255 255 255 255 255 255 255 255 255 255 255 255 255 255 255 255 255 255 255 255 255 255 255 255 255 255 255 255 49 49 49 49 49 49 239 206 132 239 206 132 239 206 132 49 49 49 255 255 255 255 255 255 255 255 255 255 255 255 255 255 255 255 255 255 255 255 255 255 255 255 
255 255 255 255 255 255 255 255 255 255 255 255 255 255 255 255 255 255 255 255 255 255 255 255 255 255 255 255 255 255 255 255 255 255 255 255 255 255 255 255 255 255 255 255 255 255 255 255 255 255 255 255 255 255 255 255 255 255 255 255 255 255 255 255 255 255 255 255 255 255 255 255 255 255 255 49 49 49 239 206 132 239 206 132 239 206 132 82 82 82 49 49 49 255 255 255 255 255 255 255 255 255 255 255 255 255 255 255 255 255 255 255 255 255 255 255 255 255 255 255 
255 255 255 255 255 255 255 255 255 255 255 255 255 255 255 255 255 255 255 255 255 255 255 255 255 255 255 255 255 255 255 255 255 255 255 255 255 255 255 255 255 255 49 49 49 255 255 255 255 255 255 255 255 255 255 255 255 255 255 255 255 255 255 255 255 255 255 255 255 255 255 255 49 49 49 239 206 132 239 206 132 239 206 132 239 206 132 239 206 132 239 206 132 49 49 49 49 49 49 255 255 255 255 255 255 255 255 255 255 255 255 255 255 255 255 255 255 255 255 255 
255 255 255 255 255 255 255 255 255 255 255 255 255 255 255 255 255 255 255 255 255 255 255 255 255 255 255 255 255 255 255 255 255 49 49 49 255 255 255 49 49 49 239 206 132 49 49 49 255 255 255 49 49 49 255 255 255 255 255 255 255 255 255 255 255 255 255 255 255 255 255 255 49 49 49 239 206 132 239 206 132 239 206 132 239 206 132 239 206 132 239 206 132 239 206 132 82 82 82 49 49 49 255 255 255 255 255 255 255 255 255 255 255 255 255 255 255 255 255 255 
255 255 255 255 255 255 255 255 255 255 255 255 255 255 255 255 255 255 255 255 255 255 255 255 255 255 255 255 255 255 49 49 49 206 165 115 49 49 49 49 49 49 239 206 132 206 165 115 49 49 49 239 206 132 49 49 49 255 255 255 255 255 255 255 255 255 255 255 255 49 49 49 239 206 132 239 206 132 239 206 132 239 206 132 239 206 132 239 206 132 173 123 82 239 206 132 206 165 115 49 49 49 255 255 255 255 255 255 255 255 255 255 255 255 255 255 255 255 255 255 
255 255 255 255 255 255 255 255 255 255 255 255 255 255 255 255 255 255 255 255 255 255 255 255 255 255 255 49 49 49 82 82 82 206 165 115 82 82 82 239 206 132 239 206 132 206 165 115 239 206 132 239 206 132 49 49 49 49 49 49 49 49 49 255 255 255 255 255 255 49 49 49 239 206 132 239 206 132 239 206 132 239 206 132 239 206 132 239 206 132 239 206 132 173 123 82 206 165 115 206 165 115 49 49 49 255 255 255 255 255 255 255 255 255 255 255 255 255 255 255 
255 255 255 255 255 255 255 255 255 255 255 255 255 255 255 255 255 255 255 255 255 255 255 255 255 255 255 49 49 49 239 206 132 206 165 115 173 123 82 239 206 132 239 206 132 239 206 132 239 206 132 173 123 82 206 165 115 206 165 115 206 165 115 49 49 49 255 255 255 49 49 49 206 165 115 239 206 132 239 206 132 239 206 132 239 206 132 239 206 132 206 165 115 173 123 82 206 165 115 206 165 115 49 49 49 255 255 255 255 255 255 255 255 255 255 255 255 255 255 255 
255 255 255 255 255 255 255 255 255 255 255 255 255 255 255 255 255 255 255 255 255 255 255 255 49 49 49 49 49 49 239 206 132 206 165 115 173 123 82 239 206 132 239 206 132 239 206 132 239 206 132 173 123 82 206 165 115 206 165 115 49 49 49 255 255 255 255 255 255 255 255 255 49 49 49 206 165 115 239 206 132 239 206 132 206 165 115 206 165 115 206 165 115 206 165 115 82 82 82 206 165 115 49 49 49 255 255 255 255 255 255 255 255 255 255 255 255 255 255 255 
255 255 255 255 255 255 255 255 255 255 255 255 255 255 255 255 255 255 255 255 255 49 49 49 214 123 74 181 99 66 239 206 132 239 206 132 206 165 115 239 206 132 239 206 132 239 206 132 173 123 82 206 165 115 206 165 115 206 165 115 82 82 82 49 49 49 49 49 49 255 255 255 49 49 49 206 165 115 206 165 115 206 165 115 206 165 115 206 165 115 206 165 115 206 165 115 82 82 82 206 165 115 49 49 49 255 255 255 255 255 255 255 255 255 255 255 255 255 255 255 
255 255 255 255 255 255 255 255 255 255 255 255 255 255 255 255 255 255 255 255 255 255 255 255 49 49 49 214 123 74 82 82 82 239 206 132 239 206 132 239 206 132 239 206 132 239 206 132 206 165 115 206 165 115 82 82 82 82 82 82 247 156 66 247 156 66 247 156 66 49 49 49 247 156 66 82 82 82 82 82 82 206 165 115 206 165 115 206 165 115 206 165 115 206 165 115 82 82 82 206 165 115 206 165 115 49 49 49 255 255 255 255 255 255 255 255 255 255 255 255 
255 255 255 255 255 255 255 255 255 255 255 255 255 255 255 255 255 255 255 255 255 255 255 255 255 255 255 49 49 49 82 82 82 239 206 132 239 206 132 239 206 132 239 206 132 239 206 132 206 165 115 82 82 82 247 156 66 247 156 66 239 206 132 239 206 132 82 82 82 82 82 82 247 156 66 247 156 66 247 156 66 82 82 82 206 165 115 206 165 115 206 165 115 206 165 115 49 49 49 206 165 115 49 49 49 49 49 49 255 255 255 255 255 255 255 255 255 255 255 255 
255 255 255 255 255 255 255 255 255 255 255 255 255 255 255 255 255 255 255 255 255 255 255 255 255 255 255 49 49 49 255 255 255 82 82 82 239 206 132 239 206 132 239 206 132 206 165 115 82 82 82 255 255 255 181 99 66 239 206 132 239 206 132 82 82 82 82 82 82 206 165 115 82 82 82 247 156 66 247 156 66 247 156 66 82 82 82 206 165 115 206 165 115 49 49 49 255 255 255 49 49 49 255 255 255 255 255 255 255 255 255 255 255 255 255 255 255 255 255 255 
255 255 255 255 255 255 255 255 255 255 255 255 255 255 255 255 255 255 255 255 255 255 255 255 49 49 49 206 165 115 239 206 132 49 49 49 206 165 115 206 165 115 239 206 132 82 82 82 49 49 49 255 255 255 181 99 66 82 82 82 82 82 82 206 165 115 206 165 115 82 82 82 247 156 66 247 156 66 247 156 66 82 82 82 82 82 82 206 165 115 206 165 115 49 49 49 255 255 255 255 255 255 255 255 255 255 255 255 255 255 255 255 255 255 255 255 255 255 255 255 
255 255 255 255 255 255 255 255 255 255 255 255 255 255 255 255 255 255 255 255 255 255 255 255 255 255 255 49 49 49 239 206 132 214 123 74 255 255 255 82 82 82 82 82 82 247 156 66 247 156 66 214 123 74 214 123 74 239 206 132 206 165 115 206 165 115 82 82 82 247 156 66 247 156 66 247 156 66 82 82 82 82 82 82 214 123 74 49 49 49 49 49 49 255 255 255 255 255 255 255 255 255 255 255 255 255 255 255 255 255 255 255 255 255 255 255 255 255 255 255 
255 255 255 255 255 255 255 255 255 255 255 255 255 255 255 255 255 255 255 255 255 255 255 255 49 49 49 206 165 115 239 206 132 239 206 132 82 82 82 82 82 82 239 206 132 206 165 115 214 123 74 214 123 74 239 206 132 239 206 132 239 206 132 206 165 115 82 82 82 247 156 66 247 156 66 247 156 66 247 156 66 214 123 74 82 82 82 49 49 49 255 255 255 255 255 255 255 255 255 255 255 255 255 255 255 255 255 255 255 255 255 255 255 255 255 255 255 255 255 255 
255 255 255 255 255 255 255 255 255 255 255 255 255 255 255 255 255 255 255 255 255 255 255 255 255 255 255 49 49 49 49 49 49 206 165 115 239 206 132 239 206 132 239 206 132 239 206 132 239 206 132 239 206 132 82 82 82 173 123 82 206 165 115 206 165 115 206 165 115 82 82 82 247 156 66 247 156 66 214 123 74 82 82 82 82 82 82 49 49 49 49 49 49 255 255 255 255 255 255 255 255 255 255 255 255 255 255 255 255 255 255 255 255 255 255 255 255 255 255 255 
255 255 255 255 255 255 255 255 255 255 255 255 255 255 255 255 255 255 255 255 255 255 255 255 255 255 255 255 255 255 255 255 255 49 49 49 255 255 255 82 82 82 82 82 82 82 82 82 255 255 255 82 82 82 82 82 82 206 165 115 206 165 115 206 165 115 82 82 82 206 165 115 82 82 82 214 123 74 214 123 74 214 123 74 82 82 82 239 206 132 239 206 132 49 49 49 255 255 255 255 255 255 255 255 255 255 255 255 255 255 255 255 255 255 255 255 255 255 255 255 
255 255 255 255 255 255 255 255 255 255 255 255 255 255 255 255 255 255 255 255 255 255 255 255 255 255 255 255 255 255 49 49 49 206 165 115 82 82 82 173 123 82 206 165 115 206 165 115 82 82 82 173 123 82 206 165 115 206 165 115 206 165 115 239 206 132 49 49 49 206 165 115 206 165 115 82 82 82 82 82 82 82 82 82 206 165 115 239 206 132 49 49 49 255 255 255 255 255 255 255 255 255 255 255 255 255 255 255 255 255 255 255 255 255 255 255 255 255 255 255 
255 255 255 255 255 255 255 255 255 255 255 255 255 255 255 255 255 255 255 255 255 255 255 255 255 255 255 255 255 255 49 49 49 206 165 115 206 165 115 206 165 115 206 165 115 206 165 115 206 165 115 206 165 115 206 165 115 239 206 132 206 165 115 49 49 49 255 255 255 49 49 49 206 165 115 206 165 115 206 165 115 206 165 115 239 206 132 49 49 49 255 255 255 255 255 255 255 255 255 255 255 255 255 255 255 255 255 255 255 255 255 255 255 255 255 255 255 255 255 255 
255 255 255 255 255 255 255 255 255 255 255 255 255 255 255 255 255 255 255 255 255 255 255 255 255 255 255 255 255 255 255 255 255 49 49 49 206 165 115 239 206 132 206 165 115 206 165 115 239 206 132 206 165 115 206 165 115 239 206 132 49 49 49 255 255 255 255 255 255 255 255 255 49 49 49 82 82 82 206 165 115 239 206 132 239 206 132 49 49 49 255 255 255 255 255 255 255 255 255 255 255 255 255 255 255 255 255 255 255 255 255 255 255 255 255 255 255 255 255 255 
255 255 255 255 255 255 255 255 255 255 255 255 255 255 255 255 255 255 255 255 255 255 255 255 255 255 255 255 255 255 49 49 49 82 82 82 82 82 82 239 206 132 206 165 115 239 206 132 239 206 132 239 206 132 82 82 82 239 206 132 49 49 49 49 49 49 255 255 255 49 49 49 247 156 66 247 156 66 82 82 82 49 49 49 49 49 49 255 255 255 255 255 255 255 255 255 255 255 255 255 255 255 255 255 255 255 255 255 255 255 255 255 255 255 255 255 255 255 255 255 
255 255 255 255 255 255 255 255 255 255 255 255 255 255 255 255 255 255 255 255 255 255 255 255 255 255 255 255 255 255 49 49 49 181 99 66 82 82 82 239 206 132 49 49 49 239 206 132 239 206 132 206 165 115 82 82 82 82 82 82 82 82 82 49 49 49 255 255 255 49 49 49 247 156 66 214 123 74 247 156 66 49 49 49 255 255 255 255 255 255 255 255 255 255 255 255 255 255 255 255 255 255 255 255 255 255 255 255 255 255 255 255 255 255 255 255 255 255 255 255 
255 255 255 255 255 255 255 255 255 255 255 255 255 255 255 255 255 255 255 255 255 255 255 255 255 255 255 49 49 49 181 99 66 181 99 66 181 99 66 49 49 49 255 255 255 49 49 49 239 206 132 82 82 82 82 82 82 82 82 82 214 123 74 49 49 49 255 255 255 255 255 255 49 49 49 49 49 49 49 49 49 255 255 255 255 255 255 255 255 255 255 255 255 255 255 255 255 255 255 255 255 255 255 255 255 255 255 255 255 255 255 255 255 255 255 255 255 255 255 255 
255 255 255 255 255 255 255 255 255 255 255 255 255 255 255 255 255 255 255 255 255 255 255 255 255 255 255 255 255 255 49 49 49 49 49 49 49 49 49 255 255 255 255 255 255 255 255 255 49 49 49 214 123 74 214 123 74 214 123 74 49 49 49 255 255 255 255 255 255 255 255 255 255 255 255 255 255 255 255 255 255 255 255 255 255 255 255 255 255 255 255 255 255 255 255 255 255 255 255 255 255 255 255 255 255 255 255 255 255 255 255 255 255 255 255 255 255 255 255 255 
255 255 255 255 255 255 255 255 255 255 255 255 255 255 255 255 255 255 255 255 255 255 255 255 255 255 255 255 255 255 255 255 255 255 255 255 255 255 255 255 255 255 255 255 255 255 255 255 49 49 49 214 123 74 181 99 66 214 123 74 49 49 49 255 255 255 255 255 255 255 255 255 255 255 255 255 255 255 255 255 255 255 255 255 255 255 255 255 255 255 255 255 255 255 255 255 255 255 255 255 255 255 255 255 255 255 255 255 255 255 255 255 255 255 255 255 255 255 255 255 
255 255 255 255 255 255 255 255 255 255 255 255 255 255 255 255 255 255 255 255 255 255 255 255 255 255 255 255 255 255 255 255 255 255 255 255 255 255 255 255 255 255 255 255 255 255 255 255 255 255 255 49 49 49 49 49 49 49 49 49 255 255 255 255 255 255 255 255 255 255 255 255 255 255 255 255 255 255 255 255 255 255 255 255 255 255 255 255 255 255 255 255 255 255 255 255 255 255 255 255 255 255 255 255 255 255 255 255 255 255 255 255 255 255 255 255 255 255 255 255 
255 255 255 255 255 255 255 255 255 255 255 255 255 255 255 255 255 255 255 255 255 255 255 255 255 255 255 255 255 255 255 255 255 255 255 255 255 255 255 255 255 255 255 255 255 255 255 255 255 255 255 255 255 255 255 255 255 255 255 255 255 255 255 255 255 255 255 255 255 255 255 255 255 255 255 255 255 255 255 255 255 255 255 255 255 255 255 255 255 255 255 255 255 255 255 255 255 255 255 255 255 255 255 255 255 255 255 255 255 255 255 255 255 255 255 255 255 255 255 255 
