P3
50 50
255
148 102 168 150 105 168 153 107 167 156 108 168 158 109 167 160 111 166 163 113 166 165 114 165 166 115 166 167 114 167 169 115 166 170 117 165 171 117 164 170 119 163 171 123 161 172 126 157 176 128 155 177 131 155 178 134 154 178 137 153 179 140 153 181 143 153 183 146 152 184 149 151 184 152 150 185 157 150 185 159 149 186 162 148 184 165 145 184 167 144 183 168 143 182 167 142 183 166 140 183 166 138 182 167 138 180 167 135 179 167 133 178 168 133 176 169 133 174 168 134 171 166 135 169 163 133 167 162 133 164 162 133 163 163 132 161 164 132 159 162 132 159 161 132 157 160 129 156 161 127 150 103 168 152 104 167 153 107 166 156 109 166 158 109 166 161 111 164 165 114 163 168 114 163 168 114 163 169 114 164 171 116 164 172 117 163 173 119 162 172 121 161 172 125 159 174 128 157 176 130 154 177 133 153 179 137 153 180 139 151 180 143 152 181 146 152 184 149 153 184 151 152 185 155 151 185 159 151 185 160 149 185 163 147 185 167 146 183 168 144 184 169 143 183 169 142 183 168 141 183 167 139 183 168 138 181 169 136 180 171 134 178 170 133 177 170 133 174 169 134 172 169 135 169 166 133 167 164 132 164 163 132 162 163 132 160 163 131 160 162 131 159 161 130 158 160 129 158 160 127 151 102 165 154 104 165 155 106 166 157 108 166 160 108 165 163 112 164 166 114 162 169 115 160 170 116 161 171 116 162 172 118 163 173 119 162 174 121 160 174 123 158 174 126 157 175 130 156 176 133 153 177 136 151 179 139 151 181 142 151 181 145 153 182 147 152 183 150 153 184 153 154 185 156 152 186 160 150 186 161 148 186 165 147 185 168 146 185 170 145 185 172 143 184 172 142 183 171 140 182 170 139 183 171 139 183 172 137 181 173 136 179 172 135 177 171 134 176 171 134 173 170 134 169 168 133 166 167 132 164 165 132 162 164 132 161 164 131 161 162 131 161 161 130 161 160 129 162 160 127 153 101 164 156 103 165 157 104 165 160 106 165 163 109 163 165 112 162 166 114 161 169 116 159 172 117 159 172 118 159 173 120 160 173 121 159 175 124 158 176 125 156 176 128 154 177 131 153 178 135 151 178 138 151 178 142 150 180 144 151 181 146 153 181 149 153 182 151 152 184 153 152 185 156 151 186 159 149 187 162 148 187 165 146 187 168 146 186 171 145 187 173 143 186 173 141 184 173 141 184 173 139 184 174 138 183 175 137 181 174 136 179 173 135 177 172 135 176 172 134 173 171 134 170 170 133 166 169 132 165 167 132 165 165 132 164 165 132 163 162 131 163 161 129 164 161 127 163 161 126 154 100 163 158 102 163 160 104 164 163 105 163 166 108 162 168 111 160 169 113 159 171 115 160 172 117 160 172 120 159 173 121 159 173 124 158 176 127 157 177 129 156 177 132 153 178 135 151 178 138 150 178 141 151 180 145 150 180 147 150 180 149 152 180 152 153 182 153 152 183 155 152 184 157 150 187 160 148 187 162 146 189 166 146 188 169 146 187 172 146 187 173 143 187 174 142 186 175 141 185 175 139 184 175 139 182 175 138 180 174 137 179 174 135 179 173 135 177 171 133 175 170 134 171 170 134 169 171 133 167 169 131 167 167 131 167 164 131 166 162 129 165 161 128 166 160 127 165 161 125 156 101 161 159 102 161 162 102 161 165 103 162 167 107 161 168 111 159 169 113 158 171 115 159 172 117 159 172 120 159 173 123 159 174 127 158 177 129 157 177 132 155 177 134 151 177 138 151 177 141 150 178 144 149 179 147 150 178 149 150 179 152 152 180 154 153 181 155 152 182 157 151 183 159 150 186 160 148 187 162 147 189 166 146 190 169 146 190 172 146 188 174 145 188 176 142 187 177 140 186 177 140 185 176 141 182 176 140 181 175 139 180 176 138 179 174 135 178 172 134 176 172 133 173 171 134 170 172 133 169 171 131 168 169 130 168 166 129 168 163 129 167 161 127 168 160 125 167 161 124 156 101 158 159 101 159 162 101 159 165 104 158 167 107 158 167 110 158 168 112 158 170 115 159 171 118 159 173 122 158 174 125 157 174 128 156 176 131 156 177 135 153 177 137 151 177 141 150 176 143 150 177 145 149 178 149 149 177 151 150 178 154 151 178 156 151 180 157 150 181 158 149 182 160 148 185 162 148 187 165 147 189 167 147 191 169 147 191 173 147 191 176 144 189 177 142 188 179 141 186 179 140 185 178 141 182 177 141 180 177 140 180 177 139 180 176 136 179 175 135 177 174 135 174 173 134 172 173 132 170 173 131 170 170 129 170 168 128 169 165 127 169 163 127 170 162 125 169 162 124 157 100 157 159 102 156 161 103 157 164 105 157 166 108 156 167 110 156 168 113 156 170 117 157 171 120 158 173 123 157 174 127 156 174 130 155 175 134 153 176 137 152 177 140 151 177 142 150 176 145 150 176 147 150 177 150 150 176 153 151 177 156 150 178 158 150 179 159 149 180 160 148 182 163 147 184 167 147 187 169 146 188 170 146 190 172 146 192 176 146 191 179 145 190 180 142 187 181 142 186 180 141 185 179 142 182 179 141 181 179 140 180 179 139 179 178 137 178 176 137 177 175 137 175 174 134 173 174 131 172 173 130 171 171 128 171 169 129 171 167 127 170 166 126 170 163 125 170 163 123 159 102 156 159 103 155 161 104 155 163 105 156 165 107 156 167 109 155 168 113 156 169 116 156 171 121 157 171 124 157 173 127 155 174 130 154 175 135 153 176 139 151 177 141 150 177 142 149 177 145 150 177 148 150 176 151 150 176 154 150 177 157 149 178 160 147 179 162 148 181 163 147 182 166 146 183 169 146 185 172 146 187 174 145 190 176 146 192 178 145 192 180 144 191 181 143 189 181 142 186 181 143 184 180 143 184 179 143 181 180 142 180 180 141 179 180 139 177 179 138 177 177 138 177 176 135 175 175 133 174 174 131 173 172 129 172 169 129 170 168 127 171 167 125 171 165 123 170 166 122 158 104 156 158 105 154 160 106 155 162 106 156 163 108 155 165 110 156 167 113 156 168 117 155 170 121 155 172 124 154 173 128 152 174 132 153 175 136 153 176 139 151 176 142 151 178 145 149 178 148 150 178 150 150 177 153 149 176 155 148 176 157 149 178 160 148 179 163 147 181 166 146 184 169 146 185 172 145 186 174 144 187 176 143 189 179 144 192 180 144 192 181 144 191 182 143 189 181 143 186 181 144 185 181 144 184 180 143 184 181 142 182 183 141 181 181 139 179 181 138 177 179 137 177 178 135 176 177 133 175 174 130 173 173 128 172 171 128 171 169 127 170 169 124 171 168 123 171 167 122 158 103 155 159 105 154 161 106 154 161 106 154 162 108 155 164 110 155 165 114 155 167 118 154 168 121 153 170 125 151 171 129 150 173 133 151 174 137 151 175 140 151 176 144 150 179 147 149 180 149 149 180 152 149 179 154 148 177 156 147 177 158 147 178 161 147 180 163 146 182 167 145 185 170 145 186 174 144 187 175 142 189 177 141 190 180 142 191 182 143 192 182 144 191 184 143 189 183 143 188 182 143 187 182 143 186 182 141 186 183 140 185 182 140 183 181 139 180 180 137 178 180 136 178 180 134 177 178 132 174 175 130 174 172 129 173 171 127 171 170 126 171 170 124 171 170 122 171 168 122 158 104 153 159 105 153 160 106 152 161 106 152 162 108 152 163 111 153 165 115 153 167 119 153 168 122 151 169 127 150 169 130 149 171 134 149 173 137 150 175 141 151 178 144 150 180 148 148 180 151 147 181 154 148 180 156 147 178 158 146 178 160 146 179 163 145 179 165 144 182 169 143 185 173 143 187 175 141 188 177 141 189 179 140 190 180 141 190 182 142 190 185 143 190 186 142 190 185 142 189 184 142 188 184 141 187 184 140 186 183 139 186 182 139 185 181 139 182 181 138 179 182 136 178 182 134 176 179 132 175 177 130 175 174 129 174 172 127 172 170 127 172 170 124 172 170 124 172 169 122 158 105 150 158 105 150 158 106 149 161 107 149 162 109 150 163 113 152 165 117 152 165 120 150 167 124 149 168 128 149 169 131 147 170 134 146 172 137 148 177 142 148 178 146 148 179 149 147 181 153 148 180 156 147 181 159 147 180 160 146 180 163 145 180 165 145 179 167 142 180 171 141 183 174 140 185 176 138 186 179 137 187 181 136 190 183 137 191 184 140 190 186 140 190 187 140 189 186 140 189 186 140 188 186 139 188 185 138 187 185 137 185 184 137 186 183 138 184 182 137 181 183 136 179 183 135 177 182 133 177 180 131 176 178 129 175 175 128 173 172 127 173 171 125 175 171 124 175 169 123 157 106 146 157 106 147 159 107 146 161 109 146 162 112 146 164 115 147 165 119 149 164 122 149 166 126 148 167 129 147 170 132 145 171 134 144 174 137 145 177 141 145 179 147 146 179 150 147 180 153 146 181 155 146 180 159 146 180 161 146 181 165 146 179 168 144 178 170 142 179 173 141 181 174 139 183 177 136 185 181 135 187 183 134 189 184 133 190 186 136 190 187 137 190 188 137 189 188 138 189 188 136 189 187 136 188 186 135 187 187 134 187 186 135 186 184 137 184 183 137 183 183 136 181 183 136 180 183 135 180 182 132 179 179 130 178 176 128 177 174 127 176 173 126 177 172 125 178 170 124 157 107 144 157 108 145 159 111 144 161 112 143 163 114 143 165 118 143 165 120 145 165 123 145 166 127 145 167 130 145 169 132 143 172 134 143 174 136 143 176 140 144 177 146 146 178 150 147 179 152 145 180 155 145 179 159 145 179 162 144 179 166 143 178 169 141 178 171 140 179 174 139 181 176 137 182 179 134 184 182 133 187 183 132 189 185 131 189 187 132 190 188 134 189 188 134 189 189 135 190 190 134 189 189 133 187 188 134 187 188 132 188 187 132 187 186 134 185 186 136 185 185 136 184 184 136 183 184 135 182 184 133 182 182 130 181 178 130 180 177 129 180 175 128 180 173 126 180 172 124 159 110 144 159 112 144 160 113 143 162 115 141 164 116 142 166 119 142 166 121 142 166 124 142 168 127 143 169 130 143 169 132 142 171 134 141 174 138 141 175 141 144 175 145 145 176 149 145 177 153 145 177 155 144 178 159 144 178 163 143 179 166 141 179 169 139 179 172 138 180 175 137 181 178 136 182 180 133 183 182 131 186 183 130 188 185 129 188 187 130 189 189 130 190 189 132 190 190 133 190 190 132 190 190 132 189 189 131 188 190 129 188 189 130 188 188 131 187 187 132 186 186 134 186 185 135 184 184 134 184 185 131 184 184 130 183 181 131 183 179 130 183 177 129 183 175 128 183 174 124 159 113 145 159 115 143 161 115 142 163 116 141 165 118 141 168 120 142 168 123 141 168 125 141 169 127 141 170 130 141 171 133 140 172 135 140 173 139 141 174 142 142 174 145 143 175 150 143 175 152 143 176 156 143 177 160 142 178 163 142 178 167 140 179 170 138 179 174 137 181 176 135 182 179 134 182 180 132 183 182 129 185 185 129 186 187 128 187 188 128 189 189 129 190 190 130 190 191 131 190 191 129 191 190 128 189 189 127 188 189 126 188 189 127 188 188 128 187 186 129 187 185 131 186 186 132 185 186 132 185 187 130 185 186 130 186 185 130 185 182 130 186 180 129 186 179 127 187 178 123 160 114 145 161 115 143 162 117 143 163 118 141 165 120 141 167 122 140 168 124 140 169 126 140 169 128 140 171 131 140 172 135 139 172 138 138 172 140 139 173 143 140 173 146 142 174 151 141 175 154 140 176 157 141 177 160 141 178 164 140 178 167 139 179 171 137 179 175 136 180 178 134 181 180 131 181 181 129 183 183 127 184 185 127 186 187 126 187 188 127 187 189 127 189 190 127 190 192 127 189 192 126 188 190 124 187 190 123 187 190 124 187 189 125 187 188 126 187 186 126 187 186 128 186 186 129 186 187 129 186 188 130 186 188 129 187 186 130 188 185 130 188 183 127 187 181 124 188 180 121 162 115 144 163 117 144 162 119 143 162 121 141 164 123 140 166 124 141 168 125 140 169 127 140 170 129 141 171 132 142 171 137 140 171 140 139 171 141 139 172 143 139 173 147 140 175 151 140 175 155 140 176 159 141 177 162 140 178 165 139 177 168 137 178 171 135 178 175 135 178 179 133 179 181 130 180 181 127 182 182 127 183 184 125 185 187 125 186 187 125 187 189 124 187 190 123 187 192 123 188 192 121 187 192 120 186 191 120 185 190 122 185 189 123 185 187 124 187 188 125 187 187 127 187 187 128 187 189 130 187 189 131 187 189 130 188 187 129 188 186 128 189 185 126 189 184 124 188 182 121 162 118 142 163 120 143 163 121 143 163 123 141 165 124 140 166 125 140 168 126 140 170 128 140 169 131 141 170 135 142 171 138 141 169 141 140 169 143 139 172 144 139 173 148 139 174 152 139 176 156 138 176 161 140 176 164 140 175 168 139 175 170 137 175 173 134 177 176 133 177 179 131 178 181 129 179 182 128 180 183 126 180 185 125 182 186 124 184 187 123 186 189 122 186 191 120 185 192 120 186 192 119 186 192 118 185 191 118 184 191 119 185 189 120 186 188 123 188 189 124 188 188 125 187 188 127 189 189 129 188 190 130 188 188 129 189 187 127 188 186 126 188 186 124 189 185 123 190 184 120 162 120 143 163 122 142 163 123 142 163 125 141 164 127 140 166 128 139 168 128 139 169 130 140 168 133 140 169 136 141 169 138 141 169 140 141 169 142 139 172 145 138 173 149 138 174 153 138 174 158 138 174 163 138 173 167 139 172 169 137 172 173 135 172 175 133 175 177 133 176 179 130 178 180 129 177 182 127 177 183 126 178 185 125 180 186 124 181 187 122 183 189 120 184 191 119 183 192 117 184 192 116 184 192 117 183 191 117 183 191 116 185 190 118 186 189 121 187 190 123 187 190 125 187 188 126 189 188 127 190 189 127 190 188 127 189 187 125 188 186 123 187 187 122 189 186 121 191 183 118 161 121 143 162 124 143 162 126 141 164 128 140 165 130 139 167 131 138 168 131 140 168 132 141 168 134 141 168 136 142 168 139 142 168 140 141 169 142 140 170 145 138 172 150 139 172 155 139 172 161 139 173 164 139 171 169 138 169 171 138 170 174 137 171 177 135 173 179 132 176 180 130 177 180 129 175 182 127 175 184 126 176 185 125 178 187 123 179 189 122 180 190 120 181 192 117 181 193 115 181 192 115 182 192 114 182 191 115 183 191 116 186 191 117 187 191 120 186 191 123 187 190 125 187 189 126 188 188 125 190 188 125 191 188 123 189 186 122 187 186 121 186 186 120 187 185 119 190 183 116 160 122 142 161 124 140 162 127 140 163 130 140 164 133 139 166 133 140 167 133 142 167 134 143 167 135 143 168 138 142 168 141 141 168 143 141 169 144 140 170 146 139 171 152 139 172 157 140 172 162 140 172 166 140 170 170 139 169 173 137 169 176 137 170 179 135 173 181 131 175 181 129 175 181 127 174 184 127 174 184 126 174 186 124 175 188 123 176 191 121 177 192 119 178 192 118 179 192 115 181 193 113 181 192 113 182 191 113 184 191 115 186 192 118 186 191 120 186 191 123 186 190 125 188 189 125 189 187 124 190 186 123 190 186 123 189 185 121 188 185 120 188 186 119 188 185 118 189 183 116 160 123 139 161 125 139 162 127 139 163 131 140 164 134 140 165 135 141 167 136 142 168 137 143 168 138 142 167 140 140 167 143 140 168 144 140 169 146 141 169 149 142 170 153 141 170 158 141 171 164 141 170 168 140 170 172 139 169 175 136 169 178 136 170 181 134 172 183 133 173 183 130 174 182 128 175 184 127 175 185 126 174 187 123 174 189 123 175 191 122 177 192 121 177 193 119 179 192 115 180 192 113 181 193 113 182 192 114 184 192 114 185 192 117 186 192 120 186 192 122 186 191 123 187 189 123 189 188 123 190 186 122 190 185 122 189 184 121 189 184 120 188 185 120 190 184 117 190 183 114 161 124 138 160 125 138 162 128 139 163 132 140 164 135 139 166 137 140 168 139 141 168 140 141 168 141 140 168 143 139 168 145 139 167 146 140 169 148 142 169 152 142 169 156 142 167 159 141 168 165 140 168 169 139 169 173 138 168 177 136 168 180 135 169 182 134 170 183 133 171 184 132 173 184 129 173 186 127 174 186 125 174 187 124 174 189 122 174 192 123 176 193 122 177 192 119 179 191 115 180 192 113 181 193 112 184 193 113 185 192 114 186 193 116 186 193 119 187 192 119 186 190 120 187 189 122 188 187 121 189 187 121 189 185 121 189 184 121 189 183 120 188 183 119 189 183 116 190 182 114 159 125 137 160 127 137 162 130 138 163 134 139 163 137 139 165 140 140 167 141 140 168 142 139 170 144 138 169 145 137 169 148 138 168 151 139 168 152 140 168 154 140 168 157 142 167 160 141 167 164 139 168 168 139 167 173 137 166 178 135 167 181 134 168 183 134 169 185 133 169 186 131 170 186 129 171 186 128 171 187 125 172 188 124 172 189 123 172 191 124 175 192 123 177 192 119 178 192 116 180 193 114 182 194 112 184 194 112 186 193 113 186 193 115 185 192 118 186 191 117 187 190 118 187 188 120 188 188 119 188 186 120 190 185 121 190 184 121 189 183 119 189 182 118 188 181 116 189 180 114 160 126 136 161 129 137 163 132 137 163 136 138 164 139 139 166 142 139 167 143 138 169 144 138 171 145 138 170 147 137 170 150 137 169 154 140 169 154 139 169 156 138 168 159 139 168 162 139 168 165 138 167 169 137 165 173 137 166 178 136 166 183 135 166 184 134 167 186 133 166 188 131 167 188 130 168 188 129 168 189 127 169 190 125 169 190 124 171 192 124 174 192 123 176 193 120 179 193 117 181 193 115 183 194 112 185 194 111 186 194 112 186 193 114 187 193 116 187 192 116 187 191 116 187 190 117 187 188 118 188 187 119 190 186 121 190 185 121 189 183 120 188 181 118 187 179 117 186 179 114 160 127 135 162 130 137 163 134 136 162 137 138 164 140 138 166 143 138 168 146 137 169 147 138 171 148 139 170 150 138 171 152 138 170 156 139 169 157 138 169 159 137 169 160 137 168 163 137 168 167 137 166 171 137 165 175 136 165 181 136 165 184 136 165 186 134 165 188 132 165 190 131 165 190 130 166 190 128 167 191 127 167 192 125 169 193 125 171 194 124 173 195 122 176 196 119 180 195 117 183 194 114 186 195 112 186 195 111 187 193 112 188 192 114 189 192 116 188 191 116 186 189 115 187 190 115 187 190 117 188 188 119 190 186 120 191 184 120 190 182 119 188 180 117 187 179 116 185 179 114 159 129 135 161 131 136 163 135 136 164 138 137 165 140 137 166 144 137 168 148 137 169 150 138 170 151 139 171 153 139 171 155 139 170 157 138 169 160 138 169 161 137 169 162 137 170 165 136 168 169 137 166 173 136 165 177 136 163 181 136 163 185 136 164 187 135 164 189 133 164 191 132 164 193 132 163 192 129 164 194 127 165 196 126 168 196 125 170 196 125 172 197 122 175 197 118 179 196 116 183 196 112 186 196 111 189 195 110 190 194 111 189 193 114 188 192 114 187 190 113 187 189 113 187 190 115 187 190 116 187 189 118 189 187 118 190 183 119 189 181 118 187 179 116 186 179 115 185 178 114 158 131 135 160 134 136 162 136 136 165 139 137 166 141 138 167 145 137 168 149 138 169 151 138 169 154 139 170 155 139 170 157 138 170 159 138 169 162 138 169 163 137 170 165 136 170 168 136 169 170 137 166 173 136 163 178 135 162 182 135 162 185 136 162 188 135 162 190 133 163 192 133 163 193 133 164 194 130 164 195 129 165 198 127 167 198 125 170 198 124 172 198 121 175 198 117 179 198 115 182 197 113 186 196 111 190 195 110 191 195 111 190 193 113 188 192 113 187 191 113 188 189 113 189 190 114 188 191 115 188 190 116 189 187 116 190 184 117 189 181 116 187 180 115 186 179 113 184 178 111 157 133 135 159 135 136 161 138 136 164 140 136 166 143 136 168 147 136 168 150 137 168 152 137 169 155 137 169 158 138 169 159 136 169 160 137 168 163 137 168 165 137 170 167 135 170 169 134 168 171 135 166 175 135 164 178 135 162 183 135 160 186 135 160 189 134 161 192 132 162 193 132 164 194 132 164 195 131 166 196 129 167 198 127 168 199 124 171 198 122 173 198 118 177 198 115 181 198 114 183 199 113 188 197 111 191 195 110 191 195 111 190 193 111 189 192 111 189 192 112 189 190 112 189 190 112 188 191 113 188 190 114 188 188 115 188 184 114 187 182 114 186 181 113 185 180 110 183 180 109 158 135 134 158 138 136 161 141 137 163 143 137 165 145 136 167 148 136 168 151 136 168 153 136 168 156 135 169 157 136 168 158 135 168 160 136 168 163 136 169 166 135 169 167 135 168 169 135 167 171 135 166 175 135 165 180 134 162 183 134 160 185 133 160 190 132 160 193 131 161 195 131 162 196 130 165 197 129 167 197 127 168 198 125 170 198 122 172 197 118 176 197 115 180 197 113 184 197 112 186 197 112 189 198 111 191 196 109 193 194 111 191 194 111 190 192 111 189 192 111 189 191 111 189 191 111 189 190 112 188 189 113 188 188 112 187 185 112 185 183 113 184 182 110 183 182 107 182 181 106 157 138 135 159 140 137 160 143 138 161 145 138 164 147 137 166 149 135 167 153 134 168 155 134 168 156 134 167 156 134 168 157 134 168 160 133 168 163 134 168 166 134 169 167 134 168 169 134 168 171 134 167 174 134 165 179 132 162 182 132 161 186 131 160 191 130 160 194 129 160 197 129 162 198 128 165 198 127 168 198 125 170 198 122 172 197 119 174 197 116 178 197 114 183 197 111 185 197 111 187 196 112 190 197 110 192 196 111 193 194 111 191 194 111 190 192 110 189 192 109 188 191 110 187 191 111 189 190 111 188 188 111 187 188 111 185 187 109 184 184 109 183 184 107 181 183 104 179 182 104 156 141 136 157 142 137 158 145 137 160 147 136 162 149 136 165 151 135 166 153 133 166 154 133 167 155 133 167 155 133 167 156 133 167 159 132 167 162 132 168 165 132 169 167 132 169 169 134 168 171 134 167 174 133 164 178 131 162 183 131 160 187 130 159 192 129 160 194 128 160 197 127 161 199 126 165 199 124 168 198 122 170 198 119 173 198 118 176 197 115 179 197 113 182 197 111 185 196 111 188 196 111 190 195 110 192 194 109 192 194 109 191 193 109 190 192 109 188 192 108 186 192 109 186 191 108 188 190 109 188 188 109 188 188 109 185 186 107 182 186 106 181 185 104 180 184 103 177 183 103 155 142 135 156 144 136 157 146 136 159 149 136 161 151 136 163 152 136 165 154 135 165 154 133 166 155 132 167 155 132 167 157 131 167 159 130 166 161 129 167 164 130 168 166 131 169 169 132 168 171 132 166 174 131 164 177 129 161 182 129 159 186 129 159 192 128 160 195 127 161 197 126 162 199 125 165 200 123 169 200 120 171 199 117 174 198 116 177 199 114 179 197 112 182 196 111 185 196 112 187 196 111 189 195 110 190 194 108 190 194 107 191 194 107 190 194 107 187 194 107 186 193 107 187 193 107 188 191 107 189 190 108 188 189 108 185 188 105 181 187 104 179 186 103 177 185 103 176 184 103 154 144 135 155 146 136 157 148 136 158 151 136 159 152 135 162 154 135 163 154 135 163 155 133 165 155 132 167 155 131 167 157 130 166 159 130 166 161 129 167 164 129 167 165 129 167 168 131 166 170 131 165 173 130 163 176 130 160 181 129 159 186 127 158 191 126 159 196 125 160 197 124 163 199 123 166 200 122 169 200 119 171 199 117 173 199 115 176 200 113 178 198 111 181 198 111 184 197 111 186 196 111 187 195 110 189 194 108 188 194 107 189 195 106 189 195 106 187 195 108 186 194 107 187 194 106 188 194 106 188 192 106 187 192 106 185 190 105 181 189 104 178 187 103 177 186 103 176 185 103 154 146 136 155 148 135 156 150 135 157 152 135 159 154 134 160 156 134 161 156 134 163 156 134 165 155 132 166 156 131 166 157 130 167 159 130 167 161 128 166 162 127 166 164 128 165 168 129 164 170 129 163 171 129 161 176 129 160 181 128 159 186 127 159 190 126 159 194 124 160 196 123 162 198 122 165 200 120 168 200 118 172 199 116 174 200 115 176 202 112 178 200 111 181 199 110 182 198 110 183 197 109 184 196 108 185 195 107 185 195 106 185 197 106 186 198 106 186 198 107 184 197 105 185 195 105 186 196 105 186 195 105 185 194 105 184 192 104 181 190 103 178 188 103 177 186 103 174 187 104 154 149 135 155 151 135 155 152 134 156 154 135 158 155 134 159 157 135 160 158 134 161 158 133 162 157 132 164 157 130 166 158 128 167 159 127 167 161 126 166 162 126 165 163 127 165 166 128 164 168 127 162 170 127 161 175 127 160 180 127 160 185 125 159 188 123 160 192 122 160 194 122 162 196 120 164 199 119 167 201 117 171 200 115 174 201 114 176 203 112 176 202 110 179 201 109 180 199 108 180 197 107 181 198 107 182 197 106 182 197 107 182 199 106 183 200 106 183 200 105 183 199 104 183 197 104 183 196 105 183 196 105 183 193 105 181 192 104 180 191 103 177 189 103 176 187 104 174 187 105 155 151 135 154 152 134 155 154 134 155 157 134 156 158 135 158 159 134 160 158 133 161 159 132 161 159 131 162 158 128 164 159 127 165 159 125 164 161 124 165 163 125 165 163 126 165 166 126 164 168 125 163 171 125 162 175 124 161 178 124 161 182 123 161 186 122 160 190 122 160 193 122 161 195 119 164 199 117 167 200 116 170 202 116 174 203 114 175 204 113 176 203 111 178 201 109 179 200 107 180 199 107 180 200 107 179 199 106 180 200 107 180 201 107 181 201 106 181 200 105 181 199 105 181 197 106 181 197 105 181 197 105 181 194 105 180 191 105 178 190 103 175 189 103 174 188 105 172 187 107 153 153 134 154 154 134 154 156 134 154 159 133 156 160 134 157 160 133 159 159 131 159 160 130 161 160 129 162 159 126 163 159 125 163 160 123 162 161 122 162 162 122 164 164 123 164 167 123 163 169 123 162 172 123 161 175 123 161 177 123 162 180 123 161 184 121 160 188 121 161 192 120 162 194 118 164 197 117 167 200 116 169 202 116 172 203 114 174 204 113 175 202 111 176 201 109 178 201 108 179 201 107 179 202 107 178 202 106 178 201 106 179 201 106 181 200 107 181 200 106 181 198 106 180 197 105 179 197 105 179 197 104 180 194 105 179 192 104 177 190 104 174 188 105 172 188 106 171 187 108 152 154 133 152 156 134 153 158 133 153 159 132 154 161 132 156 161 133 157 161 130 158 160 129 158 161 127 159 160 124 160 160 122 160 160 121 159 162 120 160 164 120 161 165 120 161 167 120 160 169 121 160 171 120 159 173 120 158 176 122 160 178 121 161 182 119 161 186 119 162 190 118 162 193 117 163 196 116 165 199 115 168 201 115 171 203 114 174 203 113 175 203 112 177 203 110 178 203 108 177 204 107 177 204 107 177 202 107 178 202 106 179 200 106 180 199 108 180 199 108 180 198 107 179 198 106 178 197 106 178 196 106 178 195 106 176 192 104 174 190 104 173 190 106 171 189 107 170 188 109 151 156 134 151 158 135 152 160 134 153 161 131 154 163 131 156 163 130 157 163 130 157 162 129 157 162 127 157 162 124 157 161 121 158 161 120 157 162 119 157 164 119 158 167 118 158 169 118 157 171 118 157 172 118 157 173 118 157 175 119 159 177 119 161 182 118 162 185 117 162 188 116 162 192 116 163 195 115 165 197 116 167 199 115 170 201 116 174 202 115 175 204 113 176 204 111 176 204 109 175 205 109 175 204 108 176 203 107 176 201 107 177 200 107 178 198 108 179 197 109 178 198 108 178 198 108 177 196 107 177 196 108 177 194 108 175 192 106 172 191 105 171 190 106 170 189 108 170 188 110 151 158 136 151 160 135 152 161 134 153 162 132 153 163 130 155 165 129 155 164 128 155 164 128 155 164 126 155 164 124 156 163 122 157 163 120 156 163 118 156 165 117 157 167 115 156 170 116 156 172 117 155 174 117 156 174 118 156 175 117 158 177 118 160 181 118 161 185 116 160 187 116 162 190 115 162 193 114 164 196 115 166 197 116 170 200 116 172 201 115 173 204 113 175 204 112 176 204 111 176 205 110 177 204 109 176 202 108 175 201 108 175 200 107 177 198 107 177 197 109 178 197 110 177 196 110 177 196 110 176 195 109 175 194 109 174 192 107 171 191 107 169 190 107 169 189 109 168 189 110 151 159 136 152 161 135 151 161 133 151 163 132 151 164 129 153 166 127 154 166 126 154 165 126 154 166 125 155 165 123 155 165 121 155 165 119 154 166 116 154 167 114 154 169 114 154 171 115 155 173 116 156 173 117 156 174 117 157 175 116 157 177 116 160 180 117 160 184 115 160 186 115 160 188 115 161 191 114 163 194 114 165 196 116 170 199 117 172 201 115 173 202 114 176 203 113 176 204 112 175 205 111 176 205 108 175 203 108 174 200 107 174 199 107 175 199 107 176 198 108 177 196 109 176 195 110 176 195 110 176 195 108 173 194 109 171 193 108 169 192 108 167 191 108 167 190 108 166 189 109 153 159 135 150 161 134 150 161 133 150 163 131 150 164 129 151 165 127 152 166 125 153 166 125 153 166 123 155 167 122 155 167 120 154 168 118 153 169 115 153 169 114 153 170 113 153 170 114 155 171 115 155 172 115 155 174 116 156 175 115 157 177 115 158 180 116 160 184 115 160 186 115 160 187 115 161 189 115 162 191 115 164 194 116 169 196 115 171 198 116 172 200 114 174 202 112 173 204 112 174 204 111 174 204 109 173 203 108 172 201 107 173 200 108 174 199 107 175 198 108 176 197 109 175 196 110 175 195 110 173 195 108 170 194 109 168 194 108 166 192 108 164 192 108 163 190 108 164 189 108 152 159 134 150 159 133 148 160 132 149 161 130 148 163 129 149 164 126 150 165 125 150 166 124 151 166 123 153 167 121 154 168 119 154 170 117 153 170 115 154 170 114 153 171 113 153 171 114 155 171 115 155 172 115 156 174 115 156 175 115 156 177 115 157 179 116 159 181 116 160 183 116 161 185 115 161 186 116 162 189 115 164 190 115 167 192 115 169 194 115 169 197 115 169 200 112 170 202 112 171 202 110 172 203 109 171 202 108 171 201 108 171 200 108 171 199 108 172 198 108 173 198 109 173 197 110 172 195 110 171 195 109 168 194 109 166 193 109 164 193 108 162 193 108 162 191 110 162 190 109 151 158 134 149 159 133 148 160 132 147 161 130 146 161 128 147 163 126 148 164 124 148 165 123 150 166 121 151 166 120 153 168 118 153 170 116 152 171 115 152 170 115 152 172 116 153 172 115 155 171 115 155 172 115 156 173 115 156 173 115 156 175 116 157 177 115 157 179 115 159 181 116 160 184 117 160 185 117 161 186 117 163 187 116 165 189 116 168 190 114 167 194 113 167 197 112 168 199 112 169 200 110 169 200 109 168 200 109 167 200 108 167 199 108 168 199 109 170 198 109 170 198 109 170 198 110 168 196 110 168 195 109 167 195 109 164 193 110 162 194 109 162 194 109 162 192 110 161 191 111 152 158 134 150 160 134 149 161 132 147 161 131 146 161 127 146 163 125 147 165 124 146 165 122 149 166 120 150 166 118 152 168 117 153 170 116 152 171 116 152 172 116 153 173 117 155 172 116 156 172 115 155 172 114 155 173 114 155 173 115 155 174 116 155 176 114 157 179 114 159 180 115 159 182 116 160 183 118 162 184 118 163 186 118 164 187 116 164 189 113 165 191 111 165 194 111 166 196 111 168 197 109 168 198 108 167 198 108 165 200 108 164 200 109 165 200 109 167 199 110 167 199 110 166 199 110 165 199 111 164 198 110 164 196 110 162 195 111 161 195 111 161 195 111 161 194 110 161 192 110 151 159 135 150 160 134 150 160 132 148 161 130 147 162 127 146 163 124 145 165 122 146 167 120 148 167 118 151 167 117 152 168 116 153 169 116 152 171 116 152 172 117 153 173 117 155 173 117 156 173 116 156 173 115 155 174 114 155 174 114 155 174 115 155 175 114 156 177 113 158 180 114 159 182 115 160 182 116 161 182 116 162 184 117 161 185 115 163 188 113 164 190 111 164 192 109 165 195 110 167 197 109 167 198 107 166 199 107 164 200 108 162 200 108 163 201 109 163 202 110 163 201 112 163 201 112 163 201 111 162 200 111 161 200 111 160 198 112 160 196 113 160 195 112 161 194 111 161 192 109 152 161 134 151 161 133 150 160 132 148 162 130 147 163 128 146 164 125 145 165 122 146 166 119 148 167 117 151 168 116 152 169 114 152 170 115 152 171 116 152 172 116 152 174 117 154 175 118 155 175 118 155 175 116 155 175 116 155 175 115 156 176 114 156 176 114 156 177 113 158 180 113 159 182 114 159 182 116 158 183 116 159 184 116 159 184 114 161 186 112 162 189 111 163 192 110 164 194 109 166 196 107 165 198 106 164 199 106 164 199 108 161 200 108 160 202 109 160 203 110 160 203 111 160 203 111 160 204 112 159 202 112 159 202 112 159 200 112 159 198 113 160 197 112 159 195 111 159 194 109 