P3
50 50
255
175 159 107 177 163 108 175 167 108 174 169 109 171 169 109 169 170 108 169 173 107 169 174 105 168 176 103 167 175 101 165 175 102 163 176 103 161 179 104 158 180 106 155 181 108 152 183 109 149 184 109 145 184 109 141 184 109 139 185 108 139 187 107 138 189 105 138 192 102 137 194 100 135 194 99 133 193 96 132 194 95 130 195 94 128 197 93 127 197 92 127 198 92 126 200 92 124 202 93 122 203 92 121 203 90 119 202 89 118 201 88 115 202 87 113 204 86 112 205 86 112 204 87 114 202 87 114 201 87 114 202 87 114 202 88 114 202 89 114 203 91 113 203 91 111 204 91 110 203 91 175 160 105 174 164 106 173 166 106 173 167 108 170 168 108 168 170 107 168 173 105 167 174 102 165 174 101 164 174 101 163 175 102 162 176 103 160 178 104 157 179 106 155 181 106 152 183 106 149 184 108 144 183 107 140 183 108 139 184 108 138 186 108 138 188 106 137 192 104 136 194 102 134 195 101 133 194 99 132 195 97 130 197 96 128 198 95 128 199 93 127 200 94 125 202 95 124 203 95 121 205 94 120 204 92 119 203 91 117 202 90 115 203 90 114 205 88 111 207 88 111 206 87 113 205 88 115 203 89 114 204 89 114 204 88 114 205 90 114 205 91 112 204 92 111 204 92 110 204 92 173 161 103 172 163 104 172 166 105 171 165 106 168 167 106 167 168 105 166 171 104 163 172 102 162 173 102 161 173 103 159 174 103 159 176 103 158 178 103 155 179 104 153 180 104 151 182 104 147 183 105 143 183 105 140 183 107 139 183 107 137 185 108 136 188 105 135 192 104 134 194 103 133 194 102 132 195 101 130 197 98 130 199 98 129 200 96 127 200 94 125 201 95 123 204 96 121 205 95 121 206 95 119 206 94 117 204 93 117 203 92 114 204 91 112 206 90 111 207 89 112 207 88 113 207 88 114 205 88 113 204 90 113 205 90 113 206 90 112 206 90 112 204 92 112 204 93 112 203 93 172 160 100 171 163 102 171 164 102 168 165 103 166 166 104 165 168 104 163 170 104 161 171 103 158 172 103 157 173 103 156 174 104 156 177 104 154 178 103 152 179 103 150 181 104 148 181 104 145 181 104 142 181 104 139 182 105 136 183 106 135 186 107 133 188 105 133 191 104 132 193 104 132 195 103 132 197 101 130 198 99 130 200 98 128 200 96 126 201 95 124 203 95 123 205 96 121 207 95 120 208 95 119 206 94 117 205 94 117 205 93 115 205 91 113 207 90 112 208 89 112 208 89 113 208 89 114 207 89 113 208 90 112 209 90 111 208 90 111 207 90 111 205 92 110 205 94 110 204 95 169 159 99 168 162 100 167 163 99 166 164 100 165 166 100 163 167 101 162 170 103 160 172 103 156 173 102 153 174 102 152 175 104 152 177 104 152 178 104 150 179 104 148 180 104 144 180 105 142 180 104 140 180 103 137 181 103 133 183 105 132 186 105 131 189 106 132 191 105 132 194 105 132 195 104 132 196 102 130 199 99 128 201 98 126 202 96 125 202 96 124 204 96 123 205 97 121 207 97 120 208 95 118 207 95 118 206 94 117 205 93 115 205 92 114 207 91 113 208 91 113 209 91 112 209 91 114 210 91 112 211 93 111 211 92 111 210 91 111 209 91 110 207 92 110 205 94 108 204 96 167 159 98 167 161 98 165 162 98 164 164 97 163 166 97 162 169 98 160 171 100 157 173 102 154 173 102 151 175 102 149 176 103 148 178 104 148 178 104 146 179 104 144 179 105 140 180 105 138 181 105 136 181 104 134 182 103 132 184 104 130 186 104 130 188 104 132 192 105 132 195 105 130 196 104 130 198 101 129 201 100 127 202 99 125 203 98 124 204 98 123 205 99 122 206 99 120 207 98 119 208 97 118 207 97 117 206 95 116 207 94 115 208 93 115 209 94 114 209 95 113 209 95 112 210 95 113 212 95 113 213 95 111 212 94 111 211 94 111 210 94 110 207 94 110 206 95 108 205 97 165 159 96 164 161 96 163 161 95 162 163 95 161 166 94 160 169 94 157 169 97 154 171 98 152 173 100 150 175 101 149 176 101 148 176 103 146 177 104 144 177 104 142 178 105 139 179 106 136 181 105 133 183 106 131 184 104 130 185 103 129 187 103 128 189 103 130 193 104 130 196 103 129 197 102 128 199 101 127 201 101 125 203 100 123 204 100 122 205 101 123 206 100 123 207 99 121 207 99 119 207 98 118 206 98 117 207 96 116 208 96 116 209 95 115 209 97 114 210 99 113 211 98 112 212 99 113 214 98 113 213 98 112 213 96 110 210 97 110 209 98 110 208 97 108 206 98 107 206 100 161 159 95 161 160 95 160 161 94 159 163 93 158 164 92 157 166 92 155 168 94 152 170 96 150 172 96 149 174 98 148 176 99 146 176 101 145 177 103 143 177 103 141 178 104 138 179 105 133 181 106 131 183 105 129 186 104 129 186 102 128 187 103 128 190 102 128 192 101 130 196 100 128 198 100 127 200 100 126 201 101 125 203 101 123 204 100 122 205 101 122 205 100 122 207 100 122 207 100 119 206 100 118 207 99 117 208 98 118 208 97 119 209 98 117 210 99 116 211 99 114 213 100 112 214 101 112 215 101 112 215 100 112 214 100 111 211 101 109 209 101 109 208 101 108 208 101 106 207 103 159 159 94 157 159 94 157 160 93 157 161 92 155 163 92 154 163 91 153 166 91 150 168 94 148 170 95 148 173 95 147 175 97 145 177 100 143 177 101 141 177 102 139 179 103 136 181 104 132 183 104 130 185 102 129 187 102 127 188 101 127 189 101 126 192 100 128 194 99 127 195 98 126 198 99 125 199 99 125 200 100 124 201 102 123 202 102 123 204 101 123 206 100 123 207 101 122 207 101 119 207 100 118 207 100 118 209 100 119 209 100 119 210 100 118 211 99 118 213 100 115 215 102 114 214 103 114 215 103 113 215 103 112 214 103 111 212 103 109 210 104 108 210 104 107 210 104 105 208 106 157 158 93 155 158 93 155 158 91 154 160 91 153 160 90 152 162 89 149 164 90 148 166 92 146 168 94 146 171 94 146 175 95 143 177 98 141 178 99 139 179 100 136 179 102 134 181 103 131 183 102 129 186 100 128 187 100 127 189 100 126 191 99 127 193 99 127 195 98 126 196 98 125 197 98 123 199 99 123 199 100 123 201 101 122 202 101 122 204 101 123 207 100 123 209 100 122 209 100 121 209 100 119 209 101 119 209 101 120 210 101 119 211 102 119 213 102 119 214 102 117 215 103 116 214 104 116 214 105 114 214 105 112 215 105 110 213 106 108 211 107 108 211 107 107 210 107 106 208 109 156 157 92 155 158 91 154 159 90 152 159 89 151 160 88 150 162 88 149 163 89 146 164 90 145 167 92 144 170 92 144 174 94 142 175 96 139 177 97 137 178 99 134 179 101 132 181 100 129 184 100 128 187 100 128 189 100 128 190 99 126 192 99 127 193 98 125 196 98 123 197 98 123 198 98 122 200 99 122 201 100 122 202 100 122 203 100 122 204 100 122 208 100 122 210 100 122 211 101 121 211 100 121 209 101 121 209 102 122 210 103 122 211 103 121 212 104 121 213 105 120 214 106 119 213 107 118 212 107 116 213 107 114 214 108 111 213 109 109 212 110 109 211 109 107 209 109 105 206 111 155 157 89 155 158 88 154 160 88 151 159 86 150 160 86 150 162 86 148 164 87 146 165 88 145 167 89 143 170 91 142 171 93 140 174 95 136 176 96 135 179 98 134 181 99 132 183 99 129 185 98 127 187 98 127 189 99 126 191 97 125 193 98 124 193 98 124 195 99 123 197 99 122 198 99 121 200 99 121 202 100 121 203 99 120 204 100 120 205 100 121 207 101 122 210 102 122 211 101 122 211 101 121 210 102 123 210 102 124 209 104 123 209 106 123 210 107 122 211 108 120 211 108 119 211 109 119 210 110 117 211 109 115 212 111 112 211 112 110 210 112 109 209 111 108 207 111 104 205 112 155 154 86 153 157 85 153 160 85 151 160 84 149 161 84 148 162 84 147 164 85 145 165 85 144 167 87 142 169 90 140 171 91 136 174 93 133 177 95 133 179 96 133 181 98 131 183 99 129 186 98 127 188 98 126 190 97 126 190 97 124 191 97 123 191 97 123 193 98 122 195 98 122 197 98 121 199 98 121 202 99 120 203 99 119 205 99 118 205 100 120 207 101 122 209 102 123 210 101 123 210 102 123 210 103 124 209 103 124 210 106 123 209 109 122 209 109 122 210 110 121 210 110 119 209 112 118 208 112 116 207 111 114 207 112 112 208 114 111 207 113 109 206 113 107 205 114 105 204 114 154 154 84 152 157 83 151 160 82 149 161 83 148 161 83 146 162 82 144 165 82 143 166 83 142 167 85 140 169 87 137 172 89 135 175 91 132 177 93 131 178 95 131 181 97 130 184 97 129 185 96 126 187 96 124 189 96 124 189 96 123 190 95 122 190 96 121 192 97 121 194 97 120 197 97 119 199 97 119 201 97 118 202 99 118 205 100 118 206 102 119 206 102 122 208 102 123 209 102 123 209 103 124 209 104 124 209 105 124 209 108 122 209 110 122 209 110 122 209 111 122 208 112 121 207 113 119 206 113 117 204 112 116 205 113 114 205 114 112 205 115 110 204 115 109 203 115 106 202 116 152 154 82 149 158 81 147 159 81 147 160 81 145 162 81 143 164 81 141 166 81 142 167 82 141 168 83 138 170 84 135 173 86 133 176 89 130 177 91 128 179 93 128 182 95 128 185 94 127 185 94 125 186 93 124 187 94 123 187 95 123 189 93 121 190 94 121 192 96 120 193 96 119 196 97 118 199 98 118 200 98 116 202 99 116 204 100 116 205 102 117 206 102 120 207 104 122 208 103 122 208 104 123 208 105 123 208 106 123 209 109 122 210 111 121 209 111 122 209 111 122 208 112 121 206 113 120 204 114 119 203 114 118 204 115 115 204 116 113 203 116 112 202 117 110 202 117 108 202 119 151 155 81 147 158 80 145 160 80 144 162 80 142 163 80 140 165 81 138 168 81 138 169 82 138 170 83 137 172 84 134 174 86 132 176 88 129 179 90 127 180 91 126 183 92 125 185 91 124 187 91 124 187 90 123 187 92 123 188 93 122 188 94 122 190 94 121 191 94 120 192 96 119 195 97 118 198 99 117 200 100 115 202 102 114 204 103 114 204 104 114 205 104 118 205 105 120 207 106 121 206 106 122 208 106 122 209 108 121 208 110 121 209 111 120 209 112 121 209 113 122 208 113 123 207 115 122 205 115 122 204 116 120 203 117 117 202 118 116 201 118 113 200 119 111 202 119 110 201 120 151 157 79 147 159 79 143 160 79 142 162 79 140 165 81 137 167 83 135 170 82 135 173 83 135 173 84 134 175 86 132 176 87 130 178 89 127 179 89 125 182 90 124 184 89 124 185 89 124 185 88 124 186 89 122 187 91 121 188 93 121 190 93 121 191 93 120 191 94 118 192 95 117 194 96 117 198 98 116 200 101 114 201 103 114 202 104 113 203 106 114 203 107 115 204 107 118 205 107 119 206 108 121 206 109 120 208 110 120 208 111 121 209 111 120 209 112 120 208 113 122 208 115 123 207 117 124 205 118 123 205 118 122 203 119 119 201 121 117 200 121 115 200 122 114 201 122 112 200 122 151 157 79 147 159 79 143 160 79 142 163 80 139 167 82 136 169 83 135 171 83 133 174 84 131 176 85 130 177 87 130 179 88 128 181 89 126 181 89 124 182 88 122 184 88 123 185 89 123 185 88 123 185 89 122 187 91 121 189 93 121 191 92 120 192 93 118 192 95 117 192 95 116 194 96 116 198 98 115 200 102 114 201 104 113 201 105 113 201 107 113 203 108 114 202 109 116 203 109 119 205 109 121 205 110 121 208 110 120 210 112 120 209 112 119 209 112 119 207 115 120 207 117 121 205 118 124 204 120 123 204 121 122 201 121 119 201 122 117 200 123 118 200 124 117 199 124 115 199 125 151 158 81 148 159 80 144 160 81 141 164 82 138 168 83 136 171 83 135 174 84 134 175 85 131 177 87 129 178 88 129 181 89 127 182 89 124 182 88 123 182 89 122 184 89 122 185 89 122 186 89 121 186 90 120 188 91 120 190 92 119 192 93 119 194 95 118 193 95 116 193 97 115 195 97 115 197 99 115 199 102 114 200 105 113 201 106 113 201 107 113 201 109 115 202 110 117 204 111 119 205 111 121 206 112 120 209 112 119 209 112 119 210 114 118 209 115 118 207 117 119 206 119 120 204 121 121 204 122 123 203 122 122 202 122 120 201 123 118 200 125 118 200 126 117 199 127 116 199 129 150 159 83 148 161 82 145 163 83 142 166 83 140 168 83 138 171 84 135 174 85 133 176 87 132 177 87 130 179 88 128 182 90 127 183 89 123 184 89 121 183 89 121 184 90 121 185 90 122 188 90 120 189 90 118 191 91 118 193 93 118 194 93 118 195 95 118 194 96 116 193 98 116 195 98 115 197 100 114 198 102 113 199 104 113 200 106 113 200 108 113 201 109 115 202 110 117 204 112 118 206 113 119 207 113 119 209 113 118 209 114 117 209 115 118 209 116 119 207 118 119 206 122 119 204 123 120 203 124 121 203 125 121 202 125 121 202 125 119 200 126 119 200 128 118 199 130 116 198 130 148 161 84 147 163 83 145 164 83 144 166 83 142 168 83 139 171 84 136 174 86 135 176 87 133 178 87 131 179 88 130 181 88 129 184 88 126 184 89 123 183 90 121 185 90 120 186 89 120 189 89 119 191 90 119 192 92 119 194 93 118 195 94 117 195 96 117 195 98 115 194 98 116 196 99 115 198 101 114 198 103 112 198 104 113 199 106 113 200 108 114 203 108 116 203 109 117 205 112 118 206 113 118 208 114 117 208 114 116 208 115 116 208 116 117 208 118 119 207 119 119 206 122 120 205 125 121 203 126 121 202 127 122 201 128 123 200 127 121 199 128 121 199 129 119 197 130 116 198 131 147 163 83 146 164 83 145 166 83 144 167 82 143 169 82 140 172 83 137 174 85 135 177 86 134 178 87 132 180 88 131 181 86 130 183 87 128 183 87 125 184 88 122 184 89 120 187 88 120 189 89 119 191 90 118 192 92 119 194 94 119 194 95 117 194 97 117 194 99 116 195 99 115 197 100 114 199 102 114 199 104 114 200 104 114 201 106 115 203 108 116 205 110 116 206 110 117 206 112 116 207 114 117 207 114 116 207 115 116 208 117 116 209 118 117 209 120 118 207 120 120 206 122 121 204 125 121 202 127 122 201 128 123 200 131 123 199 130 122 199 129 120 198 130 117 198 130 115 198 131 147 165 83 146 167 83 145 169 82 144 169 81 143 170 80 141 172 81 138 175 83 136 176 84 135 179 86 134 180 88 132 181 87 131 183 86 129 184 85 127 185 85 124 185 86 122 186 87 120 189 88 119 192 90 119 192 92 118 193 94 119 193 95 118 192 96 117 194 97 116 195 99 116 197 101 115 199 102 115 201 104 115 201 104 116 202 106 117 204 108 117 207 110 118 208 110 117 208 113 117 207 114 116 207 115 116 207 116 117 209 118 118 209 120 117 208 122 118 206 122 120 205 123 122 203 126 123 202 128 123 201 128 124 200 131 123 199 132 122 199 131 120 198 131 117 198 131 114 196 132 148 167 84 148 169 82 146 170 81 146 169 80 144 171 79 142 173 80 139 175 81 137 176 83 136 178 84 136 179 86 134 181 86 133 182 85 132 182 85 129 184 85 126 186 85 123 187 87 121 188 87 121 191 89 120 193 90 120 193 92 119 193 95 119 193 95 119 195 96 119 196 99 117 197 101 116 200 103 117 201 105 117 202 106 118 204 106 119 207 109 119 209 110 120 209 111 120 209 112 118 208 113 117 208 115 118 209 116 117 209 118 117 208 119 118 207 120 119 205 121 121 205 122 123 203 126 124 202 129 124 201 130 124 200 131 123 199 132 120 198 132 118 198 131 116 198 133 113 196 133 150 169 84 148 171 83 146 172 81 145 171 80 143 172 80 142 173 79 141 175 80 139 176 81 139 177 83 139 178 84 137 179 84 135 180 84 133 181 84 130 183 84 127 185 85 125 186 86 123 188 87 123 190 88 123 192 89 122 193 91 122 194 93 121 194 95 121 195 96 120 197 98 119 198 100 117 200 103 118 201 105 119 203 106 120 205 107 120 208 108 121 209 110 121 210 111 121 210 112 120 209 112 119 208 113 118 208 114 118 209 115 117 208 117 119 208 119 122 206 121 123 205 123 124 205 126 126 202 128 126 200 130 125 199 131 122 198 133 121 197 133 118 198 133 116 198 134 114 197 132 149 171 86 148 173 84 145 173 82 144 173 81 144 173 80 144 174 80 143 175 80 142 177 80 142 178 81 141 178 82 139 179 82 136 180 82 133 181 82 132 182 82 130 185 84 129 185 85 126 186 86 126 190 87 125 192 89 124 194 91 123 194 92 122 194 94 121 195 95 121 198 97 121 199 100 120 199 102 120 200 105 121 202 106 121 204 106 122 207 108 123 209 109 124 210 111 124 211 112 124 209 112 121 208 112 120 208 113 119 208 114 120 208 116 121 207 118 124 206 121 125 205 124 126 204 127 127 202 128 126 201 130 125 199 133 123 199 134 122 198 133 119 198 133 116 198 134 115 197 132 148 172 87 147 174 85 145 174 83 144 174 82 144 174 81 145 173 81 144 175 80 143 177 80 143 179 80 142 179 80 139 179 80 136 181 80 134 182 81 133 182 82 132 184 83 131 185 83 130 187 84 128 189 86 126 191 88 125 192 91 124 194 92 123 193 93 123 194 95 122 196 97 123 197 99 124 198 101 123 199 103 123 202 105 123 204 105 124 207 107 125 207 109 127 209 110 128 210 111 127 210 112 123 209 113 122 208 114 122 208 114 123 207 115 123 207 118 125 207 122 126 206 124 126 204 126 126 202 129 127 202 130 125 201 133 123 200 134 122 201 133 120 200 133 118 198 134 116 196 133 145 176 88 145 176 85 144 177 84 144 177 83 145 177 83 145 176 82 144 176 81 144 178 80 144 181 79 141 181 80 139 181 80 136 183 80 135 183 81 134 183 82 133 184 82 132 186 82 131 188 84 130 189 86 127 191 88 127 193 89 125 194 91 124 193 93 124 193 95 124 194 97 125 195 99 126 196 101 126 198 102 126 201 104 126 203 106 126 205 107 128 208 108 130 209 109 130 210 111 129 210 113 127 210 113 125 208 114 124 206 115 124 206 116 124 205 118 125 205 121 127 205 124 126 204 127 126 203 129 126 203 129 125 203 132 124 202 132 123 201 133 122 201 134 118 199 134 116 197 133 143 179 88 143 180 87 144 181 86 144 181 84 144 180 83 144 179 83 145 179 82 145 180 81 144 182 80 141 183 81 140 183 80 138 184 81 136 184 82 136 185 81 134 186 81 131 188 82 131 189 82 130 190 85 128 192 87 127 195 88 126 195 91 126 195 94 127 193 95 126 192 96 128 193 98 128 195 100 129 197 101 129 199 103 129 201 105 129 204 107 130 207 108 132 209 109 133 209 111 132 208 113 130 207 114 128 207 115 126 206 116 124 205 117 125 204 118 126 203 121 127 204 124 127 203 127 126 203 129 125 204 130 124 202 132 125 202 132 125 201 133 124 201 134 121 199 133 117 198 133 142 182 90 143 183 89 142 184 87 144 184 85 144 184 84 145 182 82 145 182 82 144 182 81 143 183 81 143 183 81 142 185 80 140 185 81 138 185 81 138 185 80 136 187 81 133 189 82 131 191 82 130 192 85 129 194 87 129 196 89 128 197 91 128 196 94 129 194 95 129 193 97 129 193 97 129 195 100 130 196 101 131 198 102 132 201 103 132 203 106 134 205 108 135 206 109 135 206 110 133 206 112 132 205 114 129 205 116 128 205 117 126 204 118 127 203 119 128 202 121 129 202 124 128 202 127 126 201 128 125 202 130 126 201 131 126 201 132 126 201 134 125 201 134 122 199 133 118 198 134 142 183 91 142 184 90 143 185 87 143 186 85 144 186 84 145 185 82 145 185 81 145 184 80 144 184 80 144 185 80 144 186 80 143 186 80 141 186 80 139 187 80 137 188 81 135 190 82 133 194 82 131 195 85 131 197 86 130 197 88 130 198 91 131 197 93 131 194 94 132 194 96 132 194 98 133 195 100 134 195 101 134 197 102 134 200 103 135 201 105 136 203 107 137 204 109 137 204 110 134 204 112 132 203 114 130 203 116 128 203 118 127 203 119 128 203 120 130 202 122 129 201 125 128 202 127 126 202 129 126 201 130 127 201 131 127 200 132 126 200 133 125 200 134 122 200 134 118 199 135 142 184 90 142 185 89 142 185 88 143 186 85 144 187 84 146 187 82 146 187 81 146 186 80 145 186 79 146 187 79 145 186 80 145 187 80 142 188 80 141 188 80 139 189 81 137 192 81 135 197 83 134 198 85 134 199 87 133 200 89 132 199 92 133 198 93 135 196 94 135 196 95 134 196 97 136 195 99 138 195 101 137 197 102 138 199 102 138 200 105 137 201 108 138 202 109 137 202 110 135 202 113 133 201 115 131 202 117 130 202 117 129 203 119 129 203 120 130 204 122 130 203 125 129 203 127 128 202 128 127 201 130 128 200 132 127 199 132 126 199 133 125 200 134 122 201 134 119 200 135 140 184 89 141 185 88 141 186 87 143 185 85 144 187 83 145 188 82 145 188 81 146 188 80 146 188 79 146 187 79 146 187 79 145 189 79 142 189 80 141 190 80 141 192 81 139 195 82 136 198 84 134 199 86 134 200 88 134 200 91 134 199 92 135 199 93 136 198 94 136 196 95 136 196 97 138 196 98 139 197 100 140 198 102 140 199 103 140 200 104 139 202 107 138 202 109 137 201 111 134 201 114 134 200 115 133 201 116 132 201 118 130 202 118 131 203 119 131 204 121 130 203 125 129 203 127 129 202 129 128 201 130 127 200 131 127 199 133 126 199 133 124 199 134 122 199 135 119 200 137 138 184 88 139 185 87 141 186 85 143 186 83 145 187 81 146 188 80 146 188 80 145 189 79 145 189 79 145 189 78 145 189 77 144 190 78 143 190 79 142 192 79 141 195 81 140 197 84 138 199 86 137 201 87 136 201 88 136 201 91 136 202 91 136 201 92 137 200 93 137 198 95 137 197 97 138 197 97 140 198 99 140 198 101 140 198 102 140 200 104 139 202 107 137 201 110 135 201 111 133 200 113 133 199 115 134 200 116 132 201 118 131 201 119 132 203 120 132 204 122 131 203 124 131 202 126 130 202 128 128 201 129 128 201 130 127 200 131 125 199 132 123 199 134 122 199 136 117 199 138 137 184 88 139 185 87 141 186 85 144 187 82 146 187 81 147 188 79 146 188 78 145 188 78 145 190 78 144 190 78 144 191 78 144 192 78 143 194 79 141 195 80 141 197 82 140 199 84 139 201 86 138 203 88 138 203 89 138 203 91 137 203 91 137 201 93 137 200 94 137 200 95 137 201 97 139 200 98 140 200 99 141 199 101 140 199 102 138 200 104 138 201 107 136 202 110 134 201 111 133 200 112 133 200 113 134 199 116 133 200 119 133 201 120 133 203 121 133 203 123 131 202 123 131 202 125 130 201 126 130 201 128 128 200 129 127 199 130 125 198 131 121 199 133 120 198 136 116 196 136 136 185 87 139 185 85 142 186 83 144 186 81 146 187 80 146 187 79 146 187 78 145 188 77 144 189 77 144 190 77 143 192 77 143 193 78 143 195 80 142 197 81 141 198 83 140 200 85 139 202 86 140 203 88 141 204 90 139 203 91 138 202 91 138 200 92 138 199 93 138 201 96 138 202 97 138 201 99 139 201 101 139 201 102 139 201 103 138 200 105 137 201 106 136 201 109 134 200 112 134 199 112 134 200 114 135 199 117 134 200 120 133 202 121 132 204 122 132 203 123 131 202 123 130 201 124 129 201 125 128 200 127 128 198 129 127 197 129 125 196 131 121 196 133 118 196 134 113 195 136 138 185 86 139 185 84 141 185 81 143 186 79 144 186 79 145 187 78 146 187 77 147 188 76 146 190 75 145 191 76 144 192 76 143 194 77 143 196 79 141 197 81 140 198 83 140 200 85 140 201 87 141 202 88 141 202 90 140 202 91 139 200 91 138 199 92 139 200 94 139 201 96 139 202 97 139 202 99 140 202 102 139 202 104 138 202 105 136 200 107 136 200 108 136 198 110 135 197 112 135 197 115 135 198 115 135 199 117 134 199 119 132 201 121 131 203 122 131 203 122 130 202 124 130 201 125 129 201 126 127 199 127 126 197 129 126 196 130 124 195 132 120 194 132 117 193 134 113 193 135 139 185 85 140 186 83 140 185 81 143 185 79 144 185 77 145 186 76 145 187 77 146 188 75 147 191 74 146 192 75 145 194 76 144 195 77 143 197 78 142 198 80 142 199 82 141 200 84 140 201 86 142 201 88 142 200 91 141 200 92 141 199 93 140 199 95 139 200 95 139 200 96 139 202 98 139 202 100 139 202 102 139 202 105 139 202 107 137 200 108 136 198 109 136 196 111 134 197 113 134 197 115 135 197 116 135 197 117 134 197 119 133 200 120 131 202 121 130 203 122 130 203 124 130 202 124 128 199 125 127 198 127 125 196 129 124 196 130 123 194 132 119 192 133 116 191 135 113 191 136 140 185 84 141 185 81 142 185 80 142 184 78 143 185 76 144 186 75 144 186 75 145 187 75 146 190 74 147 192 74 146 194 75 145 196 77 144 198 79 144 198 80 142 199 82 141 200 85 141 200 87 142 199 89 142 198 92 142 198 94 142 198 95 141 197 96 141 199 95 140 200 97 139 200 99 140 200 101 139 201 104 139 201 106 138 201 107 137 201 109 137 199 110 135 197 113 134 196 114 134 196 116 134 196 117 134 196 118 133 197 118 132 199 119 130 201 121 130 202 121 129 202 122 129 201 122 127 199 124 125 198 127 124 196 130 123 195 131 121 193 132 118 191 133 115 190 135 112 189 137 140 186 81 141 186 80 142 185 78 142 185 76 143 186 75 144 187 74 145 188 75 146 190 75 146 192 74 147 194 74 147 195 74 145 196 77 144 196 79 143 198 81 142 198 84 141 199 86 142 198 87 142 196 90 142 196 92 142 196 95 142 197 95 142 197 95 141 198 96 139 199 99 139 199 101 139 199 103 139 199 106 139 199 108 137 200 108 136 200 110 136 200 110 135 198 113 134 197 115 133 196 116 133 196 117 132 197 117 131 198 117 130 198 118 130 200 119 129 201 120 128 202 121 127 201 122 124 200 124 124 198 127 123 197 130 122 195 131 120 194 133 118 191 134 114 190 135 111 188 137 139 186 81 141 185 79 141 185 78 142 183 76 143 186 76 143 188 75 145 190 75 146 192 76 146 194 75 146 194 74 146 195 75 144 195 77 143 195 79 142 196 81 141 197 83 142 198 85 143 196 87 143 195 90 142 194 92 142 195 94 141 195 95 141 196 96 140 197 97 139 198 100 139 198 102 140 196 104 139 196 107 137 197 108 136 198 110 137 199 109 136 200 110 136 199 112 134 197 114 132 197 115 131 198 116 130 198 117 130 198 117 130 199 117 129 200 117 128 201 119 127 201 120 125 202 121 124 200 124 123 198 126 122 196 130 121 196 131 119 195 132 117 192 134 112 191 135 110 189 137 139 185 80 140 184 79 141 184 78 141 184 78 143 186 77 143 189 76 145 191 75 146 192 76 145 193 76 146 193 75 146 194 76 144 194 77 143 194 81 141 196 83 141 197 83 141 196 85 142 194 88 142 194 90 142 194 93 142 194 95 141 193 96 141 194 97 141 196 97 139 196 100 140 194 101 139 194 104 138 194 107 137 196 109 137 197 110 137 199 110 136 199 111 135 198 112 134 197 113 132 197 114 131 198 115 129 198 116 129 198 117 128 199 117 127 200 117 126 200 118 125 201 118 124 201 120 122 198 123 121 196 126 120 194 129 118 195 130 116 195 132 114 193 135 112 190 137 110 189 139 138 184 80 139 184 80 140 184 79 142 185 78 142 186 79 143 187 78 145 189 77 146 191 77 146 192 77 146 192 77 145 192 78 143 192 81 141 193 83 141 194 84 140 195 84 140 195 86 140 194 88 140 194 91 141 193 94 140 193 96 140 192 97 141 193 97 140 194 99 138 193 102 138 193 102 137 192 103 136 193 107 136 194 108 136 196 111 135 197 112 135 197 113 134 196 113 134 196 113 132 197 115 129 198 115 128 199 115 128 198 117 127 198 117 126 199 116 124 199 117 125 199 117 124 199 120 122 196 122 120 194 124 118 193 128 117 194 131 115 194 133 112 193 136 109 190 138 108 188 141 139 185 81 140 185 80 141 186 80 142 186 81 144 185 80 143 186 79 143 188 78 145 189 78 145 190 80 146 190 81 145 189 83 144 191 84 142 192 85 141 193 85 141 192 85 140 192 86 140 193 89 140 192 92 139 191 94 139 191 96 138 191 97 139 190 99 138 191 101 138 191 103 136 192 104 135 191 105 135 192 106 135 193 109 135 195 112 135 196 113 136 195 114 135 195 114 134 196 114 132 196 115 129 196 115 128 196 115 127 197 116 126 197 116 124 197 115 123 198 116 122 198 117 122 196 118 121 195 121 118 193 123 116 192 126 116 193 129 114 193 133 111 191 135 107 188 139 106 187 141 140 186 82 140 185 81 142 186 82 143 185 82 144 185 80 143 186 79 143 187 79 144 188 81 145 188 83 146 187 84 146 188 85 145 188 86 144 190 86 143 191 86 141 191 87 140 190 88 139 191 91 138 192 93 139 191 94 139 191 96 138 189 98 137 189 101 137 190 102 137 190 103 135 191 104 135 191 107 134 191 108 133 192 109 133 193 112 135 193 113 135 193 114 135 194 115 132 194 115 131 193 116 129 193 115 128 193 115 126 194 114 124 194 114 123 196 113 120 195 114 119 195 115 120 195 117 118 195 119 117 193 122 116 193 123 113 192 127 111 191 129 108 188 133 106 186 136 104 185 140 139 186 83 141 186 83 142 187 83 143 186 83 143 185 81 143 186 80 143 188 81 143 188 84 143 188 85 145 187 87 146 187 87 146 187 88 144 188 88 143 189 89 141 190 89 139 189 90 139 190 92 138 190 95 139 190 96 139 189 97 139 189 99 137 188 101 136 188 102 136 189 103 134 190 105 133 189 107 132 191 109 132 192 110 132 191 112 134 192 112 134 192 115 133 192 116 131 191 116 130 192 115 129 192 114 127 192 114 124 193 113 122 193 113 120 193 113 118 193 113 116 194 114 116 195 116 115 194 118 115 192 120 112 192 122 110 191 125 108 189 128 106 187 131 103 186 135 101 184 138 138 187 85 139 187 85 140 186 85 142 186 84 143 185 84 143 185 83 143 186 85 143 187 86 143 187 89 144 187 89 145 186 89 145 186 90 145 187 90 143 187 90 141 187 90 139 187 92 138 187 94 138 187 97 139 188 98 138 187 99 137 186 100 136 186 100 134 188 102 135 188 103 133 189 105 132 190 108 132 191 110 131 192 110 131 191 109 132 191 111 132 191 114 132 190 115 130 191 114 128 192 114 127 193 113 125 191 113 122 192 112 119 192 113 117 191 112 115 191 113 113 193 114 113 194 115 112 194 117 111 192 118 109 190 121 106 189 123 104 187 126 103 185 130 100 183 133 99 182 136 137 186 86 137 186 86 138 185 86 140 185 87 141 186 87 141 186 86 142 186 88 142 187 90 143 187 91 144 185 91 145 184 92 145 184 92 144 184 92 142 184 93 141 183 93 139 184 96 138 185 98 139 186 99 139 187 99 137 186 100 136 184 100 134 184 100 134 186 102 134 186 103 133 188 106 132 190 109 131 191 110 131 191 110 130 190 110 130 190 111 130 190 113 130 190 113 129 192 114 126 194 114 124 193 113 122 192 112 120 192 111 117 191 112 115 190 112 114 191 112 112 193 114 109 194 115 108 192 116 107 190 117 105 188 117 102 187 119 101 185 124 99 183 128 97 182 130 95 181 134 134 183 89 136 184 90 137 184 89 138 184 89 139 185 90 140 185 89 141 185 90 141 185 92 142 184 92 143 184 93 144 182 93 144 182 93 143 182 94 143 182 95 141 182 96 141 182 98 140 182 99 140 185 99 139 185 99 138 184 100 136 183 100 135 183 100 134 184 102 133 186 104 132 188 107 131 190 109 131 191 110 131 190 109 131 191 109 130 191 110 129 190 111 127 191 112 126 192 113 124 193 113 123 193 113 120 193 113 118 192 112 115 190 110 113 190 110 111 190 111 109 192 113 107 193 113 105 191 114 104 189 116 102 186 116 99 185 118 97 183 122 96 182 125 95 181 129 93 179 133 132 182 93 134 182 93 136 183 92 138 183 92 139 182 91 140 182 91 139 183 92 140 184 92 141 183 91 143 183 91 142 182 93 142 181 95 143 180 96 143 180 96 142 181 97 143 180 98 142 181 98 141 183 98 139 182 99 137 183 99 136 183 101 134 183 101 134 183 103 132 185 104 129 188 107 129 190 108 130 191 109 131 190 109 130 191 110 130 191 111 129 191 111 125 190 112 122 192 112 121 193 112 120 193 112 117 193 112 115 194 111 112 191 110 110 190 109 109 190 109 106 191 110 105 191 110 103 190 111 101 188 114 99 185 116 97 184 117 95 181 119 94 180 123 93 178 127 92 177 130 