P3
50 50
255
97 186 121 98 187 121 100 188 122 104 190 124 109 191 126 113 193 127 118 194 127 123 196 126 126 196 126 130 196 127 133 196 127 135 197 127 139 198 128 142 196 127 145 196 126 149 197 126 152 197 128 155 200 131 157 202 134 159 202 135 160 200 136 162 197 136 164 196 136 166 195 138 167 194 140 168 192 142 168 189 143 169 188 144 170 186 145 171 183 146 172 181 146 171 179 146 170 178 148 169 177 149 169 174 152 169 173 154 168 171 157 168 170 160 168 168 160 167 168 161 166 167 161 164 165 161 164 165 161 165 166 162 166 169 164 168 170 165 169 170 165 171 170 165 174 168 167 176 169 169 97 183 122 99 185 122 102 187 122 105 188 123 109 189 124 113 190 125 118 193 126 123 194 126 127 196 126 130 196 127 134 196 126 137 196 125 140 196 125 143 194 125 146 195 124 150 196 125 153 197 127 156 199 131 160 201 134 161 201 135 162 200 135 163 199 135 165 198 136 166 197 137 168 194 140 168 192 141 169 189 142 170 187 143 170 186 144 172 183 145 174 181 146 174 179 147 174 177 148 172 176 150 171 175 153 171 173 155 170 171 158 170 170 159 168 170 160 167 169 160 167 168 160 164 166 160 164 166 159 165 167 161 167 169 163 169 169 165 169 171 165 170 170 165 172 169 166 175 170 169 99 181 122 102 183 122 105 185 122 106 186 122 110 187 123 115 187 124 120 190 125 124 191 124 127 194 125 131 195 125 134 195 124 138 194 123 142 194 123 146 194 123 149 196 123 152 196 125 156 196 127 160 198 130 163 200 133 164 201 134 164 201 136 164 199 135 166 198 136 167 196 138 168 194 140 170 192 140 171 189 141 172 187 142 172 186 143 174 184 144 175 182 146 175 179 147 174 177 149 174 175 151 173 174 154 171 173 158 170 172 159 170 170 159 168 171 157 166 170 158 165 169 158 165 168 158 164 168 158 165 169 160 168 170 162 169 170 165 169 171 164 169 171 164 172 170 167 175 171 169 101 180 122 104 182 122 108 184 122 110 185 123 112 185 124 117 186 124 122 186 124 124 188 124 129 192 124 132 193 124 134 194 124 138 193 122 143 193 121 147 194 121 152 195 123 155 195 124 159 195 127 162 197 130 164 199 132 166 199 133 165 199 135 166 198 136 167 197 139 168 195 140 170 194 141 172 191 141 174 189 141 175 187 143 174 186 145 175 186 146 175 182 148 176 180 149 175 178 151 174 175 153 173 173 155 171 172 159 170 172 159 169 172 159 168 171 158 167 170 157 165 170 157 163 170 157 163 171 158 165 173 160 167 173 162 170 172 163 171 171 164 171 171 165 172 170 167 175 170 168 101 179 122 105 182 122 109 183 122 112 184 124 114 185 124 118 185 124 121 185 125 125 187 125 128 190 125 133 192 123 135 192 122 139 192 121 143 193 120 148 194 121 153 194 123 157 195 124 161 195 126 164 195 129 166 196 130 167 197 132 166 197 135 166 197 136 168 196 138 169 195 140 171 193 142 173 190 142 174 188 143 175 187 145 176 187 145 174 186 147 175 184 149 176 181 151 176 178 153 175 174 156 173 173 158 170 172 160 169 171 161 169 171 159 169 171 158 167 172 158 165 172 158 162 173 157 163 174 157 165 174 159 167 175 161 169 174 162 170 171 164 171 171 164 172 170 165 175 170 168 101 179 122 105 180 123 110 182 123 114 184 123 116 185 123 120 185 124 122 184 125 125 186 125 128 188 124 133 191 123 136 191 121 141 191 120 143 193 121 148 193 122 155 194 123 159 194 123 162 194 125 165 194 127 166 194 128 168 195 130 167 196 132 168 195 134 170 194 138 171 194 139 172 193 141 173 191 141 176 189 143 176 188 145 176 187 146 174 186 148 175 184 150 176 180 152 176 176 153 176 174 156 173 173 159 170 171 160 168 170 161 169 170 160 169 171 159 167 173 158 166 174 158 164 175 158 164 176 158 165 175 158 167 175 159 169 173 161 170 171 163 170 171 163 171 170 164 173 170 166 101 177 123 105 179 123 110 181 124 113 182 123 117 183 123 121 183 124 123 183 125 126 184 126 129 186 124 133 188 124 137 188 122 141 190 122 144 192 122 150 193 123 156 193 123 160 193 123 163 192 124 166 192 125 167 192 127 169 193 128 170 194 130 170 194 132 171 192 136 172 192 139 173 191 140 173 190 141 175 188 143 174 187 144 175 187 146 175 185 148 175 183 149 176 180 151 177 177 153 176 175 156 173 173 159 170 172 161 168 171 161 168 171 161 168 171 160 167 174 160 166 175 159 165 176 157 165 176 157 166 175 157 168 174 158 170 172 159 170 170 161 171 170 163 170 169 163 172 170 164 102 176 124 106 177 124 110 179 123 113 180 122 116 181 124 120 181 124 124 182 123 127 183 124 129 184 124 133 186 124 136 187 124 141 190 122 145 192 122 151 193 122 156 193 123 160 193 123 164 192 124 168 192 126 168 191 127 170 191 129 171 191 129 171 191 132 172 190 135 173 190 138 174 189 140 173 188 142 173 187 143 174 187 145 175 187 146 175 184 147 175 181 148 178 180 150 177 177 152 175 175 155 173 174 159 170 173 162 169 172 162 168 171 162 168 171 161 167 174 160 165 176 159 166 176 158 166 176 158 167 175 158 169 175 158 171 173 159 172 172 161 171 171 162 171 170 162 172 170 162 104 174 123 106 174 122 109 176 122 113 178 123 117 179 124 121 180 123 125 181 123 128 182 122 131 184 122 135 186 123 138 187 123 141 190 123 146 192 122 151 193 122 156 193 123 160 193 124 165 192 125 168 191 125 170 190 128 171 189 129 172 188 130 172 188 132 173 188 135 175 189 137 174 187 140 173 187 142 173 187 144 173 186 145 175 185 146 176 183 145 176 181 147 177 180 149 176 178 152 175 176 156 173 174 160 171 173 162 169 172 162 168 172 163 167 173 162 166 175 160 164 176 159 166 177 159 168 177 159 169 175 160 170 175 160 172 175 161 173 174 162 172 173 163 172 173 162 172 170 162 104 173 120 105 172 120 108 174 122 113 176 123 118 178 124 121 180 123 124 181 122 128 182 122 132 184 120 135 185 121 139 187 121 142 189 122 148 192 122 153 192 122 157 192 122 160 191 124 165 190 125 167 190 126 169 189 129 171 188 131 173 185 133 173 186 134 173 186 135 175 187 137 174 187 139 173 186 142 173 185 143 173 184 143 175 183 144 176 183 145 176 181 147 177 180 150 177 179 154 176 177 158 175 175 160 172 174 162 170 173 163 168 174 163 167 174 163 166 175 162 167 176 160 168 177 161 169 177 162 170 176 163 171 176 162 173 176 162 174 176 163 174 176 163 174 175 163 172 173 164 103 170 120 105 172 121 109 174 122 113 175 123 117 177 124 121 179 123 125 179 123 128 181 121 132 184 119 136 185 120 139 186 120 144 187 120 149 189 120 154 189 121 157 190 122 161 189 124 164 188 125 167 187 127 169 186 129 170 186 132 172 184 134 173 183 135 173 183 136 173 185 138 173 185 140 173 185 141 172 184 142 173 183 142 174 183 143 176 183 145 177 182 148 177 181 150 178 180 153 178 178 157 176 176 159 173 176 161 171 175 163 169 174 164 167 176 163 167 177 162 168 176 162 169 176 162 171 177 163 171 177 163 172 177 163 173 177 163 174 176 163 174 178 163 173 177 163 171 176 165 105 170 121 107 172 122 111 174 123 114 175 124 117 177 125 121 178 124 125 178 123 128 181 122 132 182 120 136 184 119 140 184 120 145 185 120 150 186 120 155 187 121 159 187 122 162 188 125 165 187 126 167 186 128 168 185 130 169 184 133 170 182 134 172 180 135 171 181 135 171 182 137 172 182 139 173 182 139 173 182 140 173 182 140 174 182 142 176 182 144 178 181 147 179 181 150 179 180 152 178 178 155 176 177 158 174 176 161 171 175 163 170 175 163 169 177 163 169 177 162 170 178 162 171 177 162 172 178 161 173 178 161 174 178 162 174 178 163 174 178 163 174 179 163 172 179 163 171 177 165 106 171 121 109 171 122 112 174 124 117 175 125 120 176 125 123 176 125 126 178 123 129 179 123 133 181 121 136 181 120 140 182 121 146 182 122 150 183 122 155 184 122 160 185 124 163 185 125 165 184 126 166 184 129 167 185 131 168 184 133 169 181 133 170 180 134 170 179 135 170 179 137 171 180 138 172 181 139 172 182 139 173 181 140 174 181 141 176 181 144 178 181 147 179 181 150 179 180 152 177 178 154 176 176 157 173 175 160 170 175 160 169 175 161 170 177 162 170 177 163 171 178 162 171 178 161 172 178 160 174 179 160 174 179 161 174 179 161 174 179 162 173 178 162 172 179 163 170 177 165 108 171 121 111 172 123 114 173 124 119 175 125 123 175 126 127 176 126 128 176 125 131 177 124 135 179 122 138 180 122 142 180 123 146 180 124 151 180 124 155 181 125 160 182 127 163 182 128 165 182 128 166 182 131 167 182 131 167 181 132 169 181 133 170 179 134 169 178 136 169 178 137 170 178 137 171 179 139 171 180 140 172 180 141 173 179 143 176 179 146 179 179 148 179 181 149 178 180 152 177 178 153 176 176 156 174 175 158 171 174 159 171 176 160 171 178 162 172 177 162 174 177 162 173 178 160 173 179 161 173 180 160 173 180 160 174 179 161 175 179 161 173 178 161 172 176 164 170 175 165 109 171 122 113 171 123 117 173 124 121 173 125 126 173 126 129 174 127 130 174 125 133 175 124 137 177 124 141 178 124 144 178 124 147 177 125 151 177 126 155 177 127 159 178 129 163 179 130 165 178 131 165 180 132 165 179 132 167 179 132 168 179 132 169 178 134 169 177 136 169 176 137 170 176 138 171 178 140 170 179 141 172 178 142 173 177 143 176 178 145 178 178 147 178 180 149 178 180 151 177 178 153 176 178 156 174 176 158 172 175 158 172 176 160 171 177 160 173 177 161 174 177 161 174 177 161 174 178 161 174 180 161 174 179 161 174 178 162 173 178 162 173 176 162 171 174 164 169 172 166 110 171 122 114 171 123 119 172 125 123 171 125 127 171 125 131 172 125 134 173 126 137 174 125 140 176 124 144 177 125 147 176 126 149 175 126 151 175 129 155 175 131 159 175 132 162 176 132 164 175 133 164 176 134 164 177 134 166 177 134 167 176 133 169 177 134 169 177 134 169 175 136 169 176 137 171 176 139 171 178 141 172 178 141 174 177 143 175 177 145 176 177 147 177 179 149 177 180 151 177 178 154 175 178 156 174 176 157 174 175 157 174 175 159 173 176 159 173 176 160 174 175 162 174 176 162 173 177 161 173 178 161 173 179 161 173 177 162 172 177 162 172 175 162 171 172 163 169 171 165 112 169 122 115 169 123 119 170 124 124 168 124 128 170 125 131 171 125 135 172 125 138 174 125 141 175 125 145 175 125 148 174 126 151 173 127 152 173 130 154 173 132 158 174 133 160 174 134 162 173 135 161 174 135 162 174 136 163 175 135 166 175 133 168 175 133 169 175 134 169 175 134 170 176 136 170 177 138 170 178 140 172 180 140 173 179 142 174 177 143 175 177 146 175 178 148 176 180 151 175 179 154 175 178 155 175 176 156 176 175 157 174 175 159 172 176 159 172 175 161 173 174 163 173 176 162 173 176 161 172 177 161 173 177 162 173 177 161 171 176 162 171 175 161 171 173 163 170 171 165 112 166 120 116 166 120 120 167 121 125 167 123 129 169 124 133 170 124 136 170 125 139 173 125 142 173 124 144 173 125 147 173 126 151 173 128 152 172 129 154 172 131 156 172 133 157 172 135 158 172 136 158 171 136 159 172 135 161 174 133 164 174 131 166 175 131 168 175 133 169 175 133 170 177 134 169 177 137 169 178 139 171 180 140 173 179 142 175 178 143 174 179 145 174 179 148 175 179 151 175 178 153 176 177 154 177 176 157 177 176 157 174 175 158 172 175 159 171 174 161 171 174 163 172 175 162 172 177 161 172 177 160 173 177 161 173 176 161 171 175 161 172 174 161 172 173 162 171 170 164 114 163 118 117 164 118 121 164 119 125 164 121 130 167 123 133 168 124 136 170 125 138 172 125 141 172 124 144 173 125 147 174 126 150 173 127 151 171 129 153 171 130 154 171 132 154 171 134 155 170 134 156 170 135 157 172 133 159 173 130 161 174 129 163 173 130 167 174 132 169 175 133 169 176 134 169 178 135 169 179 137 170 180 141 173 180 142 175 181 144 175 182 146 174 182 148 175 180 151 176 178 152 177 178 154 177 177 156 176 177 157 175 177 157 173 175 158 171 174 160 171 174 162 171 174 162 172 175 161 171 176 160 172 176 160 172 175 161 171 174 161 172 173 161 173 171 162 172 169 163 115 162 117 118 162 117 121 163 118 126 164 120 130 166 121 133 168 123 138 169 123 140 171 123 141 172 124 143 172 125 146 173 125 148 171 127 149 171 129 151 170 131 151 170 133 151 169 133 153 170 133 155 171 132 156 172 130 158 173 128 160 174 127 163 175 129 165 175 131 168 175 133 168 177 134 168 178 135 170 180 137 171 180 139 174 181 142 176 183 144 176 184 147 175 184 149 176 183 151 177 182 153 178 181 154 179 179 155 178 178 156 176 178 157 174 176 158 172 175 160 171 174 161 171 174 160 171 174 160 171 175 160 171 174 161 171 173 162 171 171 162 172 170 162 173 169 163 172 168 163 115 162 117 119 162 117 123 163 118 126 164 119 130 165 120 134 167 121 138 169 122 140 170 123 142 171 125 143 171 124 144 172 124 146 171 126 147 172 128 149 171 130 149 170 132 151 170 132 152 170 131 153 171 129 155 172 129 155 173 127 158 175 127 161 175 129 164 176 131 167 176 132 168 177 133 168 178 135 170 179 138 174 180 139 175 182 141 176 184 144 177 184 147 175 184 148 175 185 150 177 184 152 178 183 154 177 183 154 177 180 155 175 180 156 175 178 157 173 176 158 171 174 158 170 175 159 171 175 159 171 174 161 172 173 161 170 170 161 170 169 162 170 167 162 171 167 162 171 168 163 116 163 117 120 163 118 124 162 118 127 164 119 131 164 119 135 166 121 139 168 122 140 170 123 142 171 124 143 171 122 144 172 124 146 173 125 148 172 127 149 171 129 149 170 130 150 171 130 151 170 129 152 172 128 153 172 129 155 173 127 156 175 128 160 176 129 164 177 131 166 178 133 166 178 135 167 178 137 170 179 138 172 181 139 174 183 141 175 184 144 176 184 146 176 185 148 175 185 149 176 185 151 177 184 152 176 184 154 176 183 154 175 182 156 174 179 156 171 177 157 170 175 158 170 174 159 169 174 159 171 173 160 172 172 160 170 170 160 170 169 161 170 167 159 170 166 160 170 167 161 116 162 117 120 161 118 123 162 119 128 163 120 132 163 120 134 164 121 137 166 123 140 168 123 141 170 123 143 171 122 144 171 123 146 171 125 148 171 125 148 170 127 149 171 128 149 171 128 150 171 128 151 171 129 152 171 129 153 174 128 155 176 128 158 178 129 161 179 131 163 180 133 164 179 136 167 179 137 169 181 139 170 182 141 172 182 142 173 184 144 175 184 146 175 186 147 175 185 148 175 185 149 174 185 151 174 184 153 174 183 154 175 182 155 172 180 155 169 178 156 169 176 158 169 173 159 169 173 159 169 173 160 170 174 161 170 171 160 169 170 159 169 169 158 169 167 158 168 167 158 118 161 116 121 161 117 124 161 119 128 161 120 132 162 121 134 162 122 136 164 123 139 165 122 141 166 122 142 168 122 143 170 124 145 170 123 148 170 123 148 170 125 149 170 125 149 171 126 149 170 127 151 171 129 152 173 128 152 175 128 153 177 128 157 179 129 160 179 131 161 179 134 162 179 136 165 181 138 167 182 139 168 183 141 170 183 142 172 185 144 172 185 144 174 186 146 174 186 148 174 186 148 173 185 149 173 183 151 173 183 154 171 182 155 169 181 156 166 179 156 166 176 157 167 173 158 167 172 159 168 173 159 169 174 160 169 173 159 168 173 158 167 172 157 167 170 156 165 169 156 118 161 116 122 162 117 125 161 119 128 160 119 132 160 119 135 161 120 136 163 122 139 165 121 141 166 122 143 167 122 143 167 123 144 168 122 147 169 122 148 171 122 148 171 122 148 172 124 149 172 125 150 172 127 151 174 127 150 176 127 152 178 128 155 179 129 157 180 131 159 180 134 159 181 136 162 183 139 164 184 140 166 183 141 168 184 142 170 186 143 171 186 144 171 186 144 171 187 146 171 186 147 172 185 148 172 184 150 171 183 153 170 182 154 167 180 156 166 180 158 165 176 159 165 173 159 166 171 159 167 172 158 169 173 157 168 173 157 167 174 155 166 173 155 165 172 155 165 170 155 119 161 116 122 161 117 126 160 118 128 160 118 132 160 118 135 162 119 137 162 120 141 164 119 142 165 119 144 166 120 144 167 121 145 167 121 146 168 122 147 170 121 147 171 120 147 172 120 147 173 122 148 174 124 149 175 125 149 177 125 151 178 127 153 180 129 154 181 131 156 182 133 158 182 136 159 183 137 161 185 139 163 185 140 164 186 141 166 187 142 167 187 143 167 187 144 167 187 145 168 187 148 169 186 148 169 185 150 169 184 154 167 182 155 167 180 157 166 179 159 165 176 161 164 173 161 165 172 160 166 172 158 167 173 157 168 173 155 166 174 153 164 174 153 163 173 154 162 171 153 118 161 115 121 161 116 124 159 117 127 159 118 132 160 117 135 160 118 137 161 118 141 162 117 143 163 118 145 165 119 145 165 119 145 166 119 146 166 120 147 168 121 146 169 120 146 172 120 145 173 120 145 175 121 146 177 123 148 177 124 150 178 126 151 179 128 152 181 129 154 183 131 155 183 133 158 184 135 159 185 136 161 186 138 162 188 140 163 188 141 164 188 141 164 188 142 165 188 144 165 188 147 166 187 148 168 185 150 167 185 153 166 183 156 166 180 158 164 177 160 163 175 161 163 173 161 163 174 159 165 174 157 166 174 156 166 174 155 164 174 153 163 173 152 162 173 152 161 173 152 117 161 115 120 160 116 123 160 117 127 160 116 131 159 116 134 159 116 137 159 116 141 161 116 142 163 116 143 163 117 145 164 117 144 164 117 145 166 118 145 168 119 146 169 118 145 171 118 144 173 119 143 175 120 144 177 122 146 178 124 147 179 125 149 179 126 150 181 128 151 183 130 153 185 132 155 185 132 157 186 134 158 187 136 160 189 137 161 190 139 161 190 141 162 190 143 163 189 144 163 189 146 165 187 148 167 187 150 165 185 152 165 182 154 163 180 157 162 177 159 161 175 160 161 175 160 161 175 159 163 176 156 164 175 156 163 175 154 162 174 153 161 174 152 160 173 151 160 174 151 116 161 114 119 161 116 123 160 117 127 161 116 131 159 116 133 159 116 136 159 116 139 160 116 141 161 116 143 162 116 143 164 116 143 164 117 144 166 117 144 168 116 143 170 116 143 172 116 142 174 117 142 175 119 141 178 121 143 179 122 145 180 123 147 181 124 148 182 127 148 183 128 149 184 129 152 185 130 153 186 131 155 188 133 157 189 135 158 190 137 159 190 139 160 189 140 160 189 142 161 189 145 162 188 148 164 187 151 163 184 152 161 181 153 161 180 155 161 178 156 160 177 158 159 176 159 160 177 159 161 176 158 162 176 157 162 176 155 161 175 153 161 175 152 159 175 152 157 175 152 115 161 115 119 160 117 122 161 117 126 161 116 129 160 116 132 160 115 135 160 115 138 160 116 139 160 116 141 162 116 142 162 115 142 163 115 143 165 114 141 167 114 140 170 114 140 172 114 140 174 116 140 176 118 140 178 119 141 179 120 143 181 122 145 182 124 145 183 126 146 183 127 146 184 127 149 185 128 151 187 129 152 188 131 153 189 132 155 189 135 155 190 137 156 189 138 156 188 140 158 189 144 160 188 147 160 185 149 160 183 152 158 181 152 158 180 155 159 178 155 159 177 157 159 178 158 160 177 159 161 177 159 162 177 158 161 176 155 159 176 154 159 176 153 158 176 153 156 176 152 114 160 114 117 161 116 121 161 116 125 161 115 128 161 114 131 159 114 135 159 114 136 159 115 138 160 116 139 160 114 139 162 114 140 163 113 140 165 113 139 167 112 139 169 113 138 172 113 138 174 115 139 176 116 138 178 118 141 180 119 142 182 121 142 183 123 143 183 125 143 183 125 144 183 126 146 185 126 147 187 127 149 186 128 151 187 130 153 187 131 153 188 134 153 188 136 154 188 139 155 187 143 157 187 145 156 186 147 157 184 150 156 183 152 157 181 154 158 179 156 159 178 156 159 178 157 160 178 159 160 178 159 161 178 158 161 177 157 159 177 154 158 177 153 156 176 152 155 176 151 114 161 115 118 161 115 122 161 116 125 161 114 127 159 113 130 158 113 133 158 113 133 158 114 135 159 115 137 160 115 138 161 114 139 163 113 138 164 112 137 166 112 137 168 112 137 171 113 137 173 114 137 176 115 139 178 115 141 181 117 141 183 119 141 183 121 141 183 122 141 183 123 142 183 126 144 184 126 145 184 126 147 184 126 150 186 129 151 185 130 151 185 132 151 186 135 153 187 139 153 187 142 153 187 144 153 186 147 154 185 149 155 184 151 157 182 154 158 181 155 159 180 155 159 179 156 159 179 157 159 178 158 160 178 158 160 178 157 160 179 154 158 178 153 156 176 152 154 176 151 114 160 115 118 161 116 122 160 115 126 159 113 127 159 113 128 158 113 130 157 112 131 158 113 133 158 113 135 159 113 136 160 113 138 162 112 138 163 112 136 166 111 137 168 112 137 170 112 137 173 112 137 176 113 138 178 114 139 180 115 140 182 118 140 182 121 140 183 122 141 183 123 142 183 125 144 183 125 144 182 125 146 183 125 147 184 127 148 184 128 149 183 131 149 183 134 149 185 137 150 186 141 150 185 144 151 184 146 152 184 148 154 183 150 156 183 152 158 183 154 158 182 154 158 181 154 158 181 156 159 180 156 159 180 157 160 180 156 159 180 154 158 179 153 156 178 152 154 176 151 114 159 115 118 159 115 122 159 115 125 159 113 125 158 113 127 157 113 128 156 111 129 157 111 132 157 111 134 158 111 136 160 111 137 162 110 136 164 111 136 165 110 136 167 109 137 170 110 137 174 110 138 176 111 138 177 113 139 179 114 140 179 117 140 180 120 141 182 120 142 182 122 143 182 124 143 182 124 142 182 124 142 183 124 144 183 126 145 181 128 146 181 131 146 181 133 146 182 136 147 184 140 147 183 143 148 183 144 151 183 146 152 183 149 154 183 149 156 183 151 157 183 153 156 182 153 156 181 154 157 182 155 158 181 156 159 180 155 158 180 153 157 179 151 155 178 150 154 177 150 115 157 115 118 158 115 121 157 113 123 156 112 124 156 112 126 155 112 127 155 111 129 156 111 131 157 111 133 158 110 135 159 110 136 162 110 135 166 109 134 167 109 135 169 108 137 171 108 137 174 108 138 175 109 138 176 111 140 178 112 141 178 115 140 180 117 140 180 119 140 181 121 141 182 123 141 183 123 141 183 123 140 182 124 141 182 126 141 181 128 141 181 130 142 182 132 143 183 135 145 182 139 146 182 142 147 183 143 148 184 145 150 184 147 151 184 148 152 184 148 154 184 149 154 183 150 154 183 151 153 183 153 155 181 154 156 180 153 156 179 152 156 179 151 155 179 150 154 177 149 113 157 114 117 156 114 118 155 112 120 154 111 122 154 111 124 154 111 127 155 111 128 157 111 130 157 111 132 158 111 132 161 112 133 165 110 134 167 109 134 168 108 134 169 107 137 171 107 138 173 106 138 175 107 139 177 109 141 177 112 140 177 114 139 178 116 139 180 119 139 181 121 138 182 121 140 183 121 139 183 121 139 182 123 139 181 125 138 181 126 138 180 130 139 180 131 141 181 133 143 181 137 144 182 140 146 182 141 147 183 143 147 183 144 148 184 145 150 184 145 150 184 145 151 184 146 151 182 147 151 181 150 154 180 151 154 179 151 154 178 150 154 178 150 154 178 149 154 177 148 111 156 114 115 154 113 116 153 113 117 154 111 120 154 111 121 153 111 124 155 110 127 157 110 128 158 111 128 160 111 130 163 112 131 165 111 132 167 109 132 167 107 134 169 105 136 170 106 137 172 106 139 173 106 139 176 109 140 177 111 138 177 113 137 178 116 136 179 118 136 181 119 136 181 119 137 182 119 138 182 121 138 182 122 137 182 123 136 182 125 136 180 128 137 179 130 140 179 132 141 179 135 143 180 139 144 181 140 145 182 141 145 182 142 146 182 141 147 182 142 148 183 142 149 183 143 149 181 144 150 180 147 152 179 148 151 179 148 151 178 148 151 177 147 150 177 147 151 177 146 109 155 115 113 153 114 114 153 113 116 153 112 117 153 111 120 153 111 122 156 110 124 159 110 125 160 111 126 161 112 129 164 112 130 166 111 131 166 110 133 167 107 134 168 106 136 168 105 137 170 104 139 173 105 139 175 107 138 176 110 136 176 112 135 177 114 135 179 116 135 180 117 135 181 118 135 182 119 135 182 119 136 182 121 134 182 122 133 181 124 133 180 126 135 178 128 137 178 131 139 178 133 140 178 136 141 180 137 143 181 137 143 181 137 143 182 137 143 182 139 144 182 140 145 182 142 146 181 143 148 180 144 149 180 144 149 178 145 147 176 146 147 176 145 147 175 144 148 175 144 108 154 115 110 153 114 112 153 113 114 153 112 116 153 111 118 154 111 120 156 110 122 159 112 123 161 112 126 163 112 128 164 112 129 166 111 131 167 110 134 167 108 134 167 106 137 169 105 138 171 105 138 172 107 139 175 108 137 175 109 135 175 111 135 176 113 135 177 115 134 179 116 134 181 117 132 182 118 133 180 119 132 180 121 132 180 122 132 180 124 132 178 126 133 177 127 134 177 129 136 177 131 138 178 133 139 179 134 140 179 134 141 180 134 141 180 135 141 181 137 140 181 139 141 181 141 143 181 142 144 180 143 145 179 143 147 178 142 145 177 143 145 175 144 144 174 143 145 173 143 106 154 117 109 153 116 110 153 114 112 153 112 114 153 111 115 154 111 117 155 110 120 157 112 122 160 113 125 163 112 128 165 112 129 166 111 132 168 110 134 168 109 135 167 106 138 168 106 138 171 106 138 173 106 138 174 108 136 175 109 134 176 110 134 176 113 134 177 114 134 178 114 133 180 115 131 180 117 131 179 119 131 179 120 130 179 122 131 178 124 131 176 127 131 175 127 131 175 129 134 176 130 136 178 130 137 178 132 136 179 132 138 180 133 138 180 133 137 179 135 138 179 137 138 179 140 140 179 140 140 180 141 142 179 142 143 178 142 144 176 142 143 175 142 142 175 142 142 173 142 105 154 118 107 153 116 109 154 115 111 153 114 112 153 112 114 153 111 116 154 111 118 157 111 120 160 112 124 162 113 127 164 112 130 166 110 132 167 110 133 166 109 135 167 107 136 168 106 135 171 105 135 172 106 136 174 108 135 175 108 134 176 109 133 177 112 132 176 114 132 178 114 132 178 116 130 179 117 130 179 118 131 179 120 131 178 122 130 176 123 131 175 125 129 175 127 130 175 129 131 176 129 133 177 129 134 178 130 134 178 130 135 179 131 135 178 131 136 177 133 136 177 135 135 179 137 136 179 138 137 178 141 138 178 141 139 177 140 140 176 141 140 175 141 140 175 141 140 174 142 104 155 119 106 155 117 108 154 116 110 154 114 111 153 113 114 153 112 114 155 112 117 158 112 120 160 111 123 162 112 127 163 112 130 165 110 132 165 109 133 165 108 134 167 107 134 169 107 134 170 107 133 173 107 133 175 108 134 176 109 133 176 110 132 176 112 132 176 114 131 177 115 130 177 117 128 178 117 129 178 118 130 178 120 131 178 121 130 176 122 130 176 124 129 176 126 128 176 127 130 176 128 132 177 128 132 177 129 132 178 129 133 178 130 133 176 130 133 175 132 133 174 133 132 175 134 132 177 137 133 176 138 136 175 139 136 175 138 137 174 140 138 174 140 138 174 140 138 175 140 103 155 119 105 155 117 106 154 117 108 153 114 111 152 112 114 152 112 115 154 111 117 157 111 119 159 110 123 162 110 127 162 111 130 164 109 131 164 109 133 165 108 133 167 107 132 168 108 132 170 109 132 171 109 133 173 110 133 176 111 133 177 111 132 176 113 131 176 114 129 177 115 128 178 116 127 178 116 128 178 117 128 178 120 130 178 121 129 178 123 129 177 124 128 176 125 128 176 125 129 177 126 130 176 127 130 176 128 129 176 128 130 176 128 130 174 129 130 172 129 129 172 131 129 172 133 129 174 134 129 174 136 132 173 136 134 173 137 135 172 138 136 173 140 136 173 140 136 173 138 102 154 119 104 153 118 106 152 117 108 151 115 111 152 112 114 152 112 116 153 111 118 156 110 120 158 110 123 160 110 126 161 110 129 163 109 131 164 108 132 165 107 132 166 107 132 167 109 131 169 110 131 170 111 131 173 111 131 177 111 131 177 111 131 177 112 130 176 114 128 177 115 126 178 114 126 179 116 127 179 117 127 179 119 128 179 120 129 178 122 128 177 123 128 176 123 126 176 124 126 175 124 127 175 124 127 175 126 125 174 127 126 174 127 126 172 128 125 171 128 125 171 128 126 171 130 125 171 132 127 172 134 129 171 134 132 171 135 133 171 136 134 171 137 134 172 137 134 172 136 102 151 119 104 150 118 107 149 116 109 149 115 112 150 113 115 150 113 117 152 112 118 155 112 120 156 110 123 158 110 125 159 110 128 160 109 129 161 107 130 162 106 131 164 107 131 167 109 131 168 111 130 170 110 129 172 110 129 175 110 130 175 111 130 175 113 129 175 113 128 177 113 127 178 113 125 179 114 126 180 115 126 179 117 127 179 117 127 178 120 127 177 121 126 176 122 125 175 121 124 175 122 124 174 123 124 173 124 123 172 125 123 172 126 123 171 126 123 171 127 123 170 128 123 169 128 123 170 130 124 170 131 127 169 131 131 169 133 132 170 134 132 170 135 132 170 134 132 172 133 103 148 119 105 147 118 106 147 116 110 148 115 112 149 115 115 150 114 117 151 112 119 153 112 120 155 111 122 156 110 124 157 108 125 158 107 127 160 106 128 161 105 129 163 107 130 165 109 130 168 110 129 170 109 127 172 110 127 174 110 128 174 111 128 175 112 128 177 112 128 178 113 126 179 112 125 180 112 125 179 114 125 179 114 124 177 114 126 177 116 126 176 118 125 176 119 123 175 120 122 174 122 120 173 122 120 171 123 120 171 124 119 171 125 120 172 125 120 170 127 120 169 127 120 167 128 121 168 128 122 169 129 125 169 129 128 169 131 129 169 131 130 169 132 130 169 132 130 170 132 103 146 118 105 145 119 107 146 117 110 148 115 112 149 114 114 150 114 117 152 113 118 153 113 120 153 110 121 154 108 123 156 107 123 157 106 125 158 106 127 159 106 127 162 108 127 164 108 129 167 108 128 169 108 126 172 108 126 173 108 126 173 110 127 174 111 126 177 110 126 178 110 125 179 110 125 179 111 124 178 113 124 178 113 123 177 112 123 177 113 123 177 114 122 176 117 120 175 119 118 174 121 117 172 122 117 171 123 116 171 124 115 170 125 117 171 125 117 170 126 117 168 127 117 167 126 119 168 126 121 167 127 123 168 128 124 169 128 126 169 129 128 169 129 127 169 130 127 169 131 104 142 118 106 142 119 108 145 117 110 146 115 112 147 114 114 149 113 116 150 113 118 151 112 119 151 109 120 152 106 121 154 105 123 155 105 124 156 106 125 157 106 125 159 107 124 162 106 126 165 106 126 167 106 125 169 105 124 171 106 125 173 108 126 174 108 124 176 108 125 178 107 125 179 109 124 179 110 122 179 110 122 178 110 122 178 111 120 177 112 119 177 112 118 176 115 117 174 118 115 173 120 113 171 121 114 170 124 113 170 125 112 171 126 113 169 126 114 168 125 115 167 125 116 166 125 117 166 124 118 167 125 120 168 126 121 169 126 123 169 126 124 169 127 125 170 127 124 170 128 105 140 117 107 140 116 109 142 115 110 143 113 112 145 113 114 148 112 116 149 110 118 149 108 119 148 105 120 151 104 121 152 104 122 154 105 123 155 104 123 156 104 123 157 104 123 160 103 123 162 103 124 165 103 123 168 103 124 169 104 125 171 106 124 173 106 123 175 106 123 177 106 122 178 108 121 179 108 120 178 108 121 178 108 119 178 109 116 177 111 115 177 112 113 176 114 113 175 116 112 173 119 110 170 122 110 169 124 109 169 125 109 169 125 110 168 125 110 165 125 112 164 125 114 164 124 113 165 124 114 167 124 116 169 124 119 170 124 121 170 125 121 170 125 122 170 125 121 170 126 105 141 116 107 141 114 109 142 112 111 142 111 113 145 111 114 146 109 115 147 108 117 147 106 119 148 104 119 150 103 119 151 103 121 152 103 122 154 103 122 154 102 120 156 101 120 158 101 120 160 101 121 163 101 122 167 101 122 167 102 123 169 104 123 171 106 122 174 105 120 176 106 120 177 106 119 178 105 117 178 107 117 177 107 116 176 108 113 176 110 112 177 111 110 177 111 108 176 113 107 173 116 107 170 120 107 168 122 106 168 123 107 167 123 109 167 124 108 165 124 110 163 124 110 163 124 111 165 123 112 167 123 113 169 123 116 170 124 118 170 124 119 171 124 118 170 125 118 170 126 