P3
50 50
255
130 105 120 131 106 120 130 108 121 130 109 123 128 109 123 129 109 125 130 110 125 130 110 127 130 109 128 132 111 128 135 112 128 136 111 129 136 112 129 137 111 130 138 110 131 140 109 131 140 107 132 142 106 132 143 106 131 144 104 130 145 103 130 147 102 129 148 101 130 149 100 130 149 99 132 149 99 132 151 98 133 151 98 135 150 98 137 149 97 138 148 99 139 147 96 141 146 94 144 146 94 146 145 91 148 144 89 150 142 88 153 141 86 155 142 83 156 143 83 158 143 81 159 145 80 160 146 78 159 146 76 159 145 76 157 146 75 156 147 72 155 147 70 153 147 67 152 146 65 151 131 108 121 131 108 121 130 111 122 129 112 122 129 112 123 129 112 126 129 112 127 129 112 128 131 112 129 133 114 128 135 115 127 136 114 128 135 113 129 136 112 130 138 111 131 139 110 132 140 109 133 142 107 131 144 107 132 146 106 131 145 104 131 146 103 129 147 102 129 147 101 130 147 101 131 148 100 132 149 98 133 150 98 136 150 97 138 149 97 139 147 98 139 146 97 141 145 96 144 145 95 146 144 92 148 142 90 151 142 89 153 141 87 156 141 84 157 142 82 158 141 82 160 143 81 160 145 80 159 146 80 157 146 78 157 146 78 156 146 76 155 147 72 152 146 70 152 145 68 152 133 109 121 132 110 122 131 112 122 130 113 123 130 113 125 131 113 127 130 113 127 130 114 128 131 115 129 134 118 129 135 118 128 136 117 128 136 116 130 136 114 130 138 112 131 138 113 132 140 111 133 142 110 132 145 109 132 145 108 132 145 106 131 145 105 130 145 103 129 145 102 130 146 101 131 147 101 131 148 99 133 148 98 136 150 96 138 149 98 140 147 98 140 146 97 141 145 96 145 143 94 147 143 93 149 142 92 152 142 90 154 140 88 156 139 86 157 140 83 157 140 83 159 142 82 160 144 81 159 144 82 157 145 82 156 144 80 156 145 78 154 145 75 154 144 72 153 142 72 153 134 111 121 134 111 121 133 112 123 133 112 124 132 113 125 132 114 126 132 116 127 132 117 126 132 118 128 134 120 129 136 119 129 136 119 130 135 118 130 136 116 130 138 116 131 138 115 133 140 114 134 142 111 133 144 110 134 145 109 134 144 108 132 143 106 131 143 106 130 143 104 130 144 103 132 145 102 132 146 100 133 147 98 136 148 97 138 148 97 139 147 97 141 145 97 142 145 97 145 144 95 148 142 94 150 143 93 152 142 92 154 139 90 156 138 87 157 138 85 157 139 83 158 140 82 158 142 82 158 141 82 158 143 82 156 143 82 155 142 81 154 143 78 154 142 76 154 140 75 155 136 111 121 136 112 122 135 113 124 134 114 125 134 115 125 133 116 125 133 118 126 132 120 127 134 121 128 136 122 127 137 121 128 136 120 128 136 120 129 137 119 131 137 118 132 138 118 133 140 117 135 142 113 135 144 111 136 144 111 135 142 109 134 141 108 132 141 108 131 142 106 131 143 104 132 144 103 133 144 101 133 146 98 136 147 97 137 146 98 139 145 97 141 145 96 143 145 96 146 144 96 149 142 96 150 142 95 152 140 93 153 139 90 154 137 87 156 136 86 156 136 83 157 139 82 158 140 81 158 139 81 158 141 81 156 141 82 155 141 81 155 141 80 155 141 78 154 139 76 155 137 114 122 137 115 123 136 116 124 135 117 125 134 118 125 134 119 124 134 121 125 134 123 126 136 124 128 137 124 128 136 123 128 137 122 128 138 121 129 138 121 131 138 121 133 138 120 134 140 120 134 142 116 136 143 114 137 143 113 136 141 111 134 141 111 133 141 109 132 143 106 133 142 105 134 143 104 134 143 103 136 144 101 137 145 101 138 144 100 142 144 99 144 145 97 145 145 96 147 144 96 149 142 97 150 140 97 150 138 95 151 137 91 152 135 87 154 133 85 155 134 83 155 137 82 157 138 81 157 139 81 157 139 81 156 139 82 156 141 81 156 141 80 155 141 77 155 140 77 156 138 117 124 139 118 124 138 119 124 136 120 125 135 121 125 134 122 125 134 123 124 136 124 125 138 125 127 138 125 128 138 125 129 140 124 128 140 124 129 140 123 131 140 123 132 139 123 133 140 123 134 141 119 135 141 117 136 141 114 136 140 113 136 140 113 135 141 111 135 142 109 135 142 107 136 141 105 137 142 103 138 143 103 140 143 102 140 143 102 143 143 101 144 143 99 145 144 98 146 143 97 148 141 98 149 139 97 149 137 96 149 135 93 150 134 89 152 133 86 154 133 85 154 134 84 155 137 83 156 138 82 156 138 82 156 139 82 156 141 81 155 142 80 155 141 77 155 140 77 156 139 120 125 140 121 125 138 123 125 137 123 125 136 124 124 135 124 124 136 124 124 137 125 125 140 127 128 141 128 130 141 128 130 142 127 130 141 125 129 141 126 130 141 126 131 140 126 133 140 124 135 139 121 135 139 120 137 140 117 137 139 115 137 139 115 137 140 114 137 141 112 138 142 110 138 141 107 139 141 106 140 142 105 141 140 105 142 140 104 143 141 102 145 142 101 145 142 99 146 141 98 147 140 97 148 138 97 147 136 95 147 134 93 148 132 89 150 132 87 152 133 86 153 134 85 153 136 84 155 137 83 157 138 83 157 139 82 156 140 81 155 141 79 154 141 78 155 139 77 155 140 122 125 139 124 126 138 126 125 139 127 125 138 127 124 137 126 125 138 127 125 140 128 126 142 128 129 142 129 131 143 130 132 143 129 131 142 128 130 142 128 129 141 128 130 141 127 133 139 125 135 138 122 135 139 122 137 140 120 139 139 117 139 140 116 138 140 116 139 141 115 139 142 112 138 140 110 140 140 108 142 141 105 142 139 105 143 139 105 143 140 104 145 140 102 146 140 100 146 140 99 147 139 97 147 136 97 148 135 95 147 134 94 147 132 90 149 131 88 151 132 87 152 134 86 153 135 85 155 138 84 156 140 84 157 141 83 156 140 80 155 140 79 154 139 77 155 138 76 155 142 123 125 140 125 125 139 127 124 139 129 124 139 130 123 139 129 124 140 130 126 143 129 127 144 130 129 143 130 131 144 131 131 144 131 130 143 132 131 143 131 130 142 130 130 140 129 132 138 126 133 138 125 135 139 123 136 139 122 139 140 120 139 140 119 138 140 119 139 141 117 138 141 114 138 139 112 140 138 109 141 139 107 142 139 107 144 139 107 144 139 106 145 138 104 145 138 102 146 138 100 146 138 98 147 137 96 148 134 94 147 133 93 147 132 90 148 131 89 150 131 88 152 133 88 152 136 87 154 139 86 155 141 85 157 140 82 156 138 79 154 138 78 154 136 76 154 136 75 153 142 124 124 141 126 124 140 128 123 140 130 123 141 132 123 142 132 124 143 133 126 144 132 127 144 132 129 145 132 131 146 133 131 145 134 130 145 134 131 143 134 131 141 132 130 140 131 131 139 130 133 138 128 134 139 126 135 140 126 137 141 124 138 141 122 137 141 122 138 141 120 138 140 117 138 138 114 139 138 111 140 138 110 140 138 110 142 139 109 143 138 107 144 137 104 144 137 103 145 137 101 147 137 99 148 136 96 147 135 94 146 133 92 146 132 90 147 131 90 148 133 90 149 134 89 152 138 88 153 140 87 154 140 85 156 140 82 155 139 80 155 138 78 153 136 76 153 135 74 153 142 127 124 142 128 123 141 129 123 142 132 123 143 135 124 144 135 125 144 135 126 146 135 127 145 135 128 145 135 130 145 135 130 145 135 131 145 135 130 143 135 130 141 134 130 140 134 130 140 133 132 138 131 132 139 129 134 140 128 136 140 125 138 140 124 137 140 123 137 140 121 137 138 120 137 138 117 138 137 116 139 138 114 140 139 112 141 139 110 143 137 107 142 137 105 143 137 103 145 137 102 146 136 99 147 135 97 146 135 94 145 134 92 145 133 91 147 134 92 147 134 91 148 136 90 150 139 89 152 140 88 153 139 86 155 139 82 155 139 80 155 138 77 154 135 74 153 135 71 152 143 130 124 142 131 123 142 133 124 143 134 125 145 137 127 145 137 126 146 137 126 146 137 127 145 138 128 144 138 130 144 137 131 143 138 131 144 137 130 144 137 129 142 136 129 140 136 130 140 135 132 139 133 131 139 131 133 139 129 134 139 127 135 139 126 136 139 125 136 140 123 137 139 122 136 137 120 137 137 119 138 137 117 140 137 114 140 138 111 141 138 108 142 138 104 143 137 104 144 136 103 145 134 101 147 133 99 147 133 96 146 134 93 145 134 93 146 134 93 147 136 92 147 137 91 148 138 90 151 139 88 152 139 84 153 138 80 155 138 78 154 137 74 155 135 72 154 135 69 153 143 134 126 142 135 126 143 136 126 144 136 126 145 137 127 145 138 126 145 139 128 146 139 128 146 138 128 145 139 129 144 139 130 144 139 131 143 138 130 142 138 129 142 138 130 141 138 131 140 136 131 140 135 131 139 132 132 138 130 133 139 129 133 139 128 133 138 126 134 139 125 135 138 124 136 136 122 136 135 121 137 135 118 137 135 115 138 135 111 139 136 107 141 136 105 142 136 103 143 134 102 145 133 101 146 132 99 147 132 97 146 133 95 146 134 94 146 134 93 146 135 92 147 136 91 148 137 90 150 139 86 151 138 83 151 137 79 152 137 77 153 136 75 154 135 71 154 134 68 153 144 137 126 143 138 127 142 138 128 144 139 127 145 139 127 145 140 128 144 140 128 144 141 128 146 141 128 146 141 128 145 141 129 144 140 130 143 140 130 143 140 129 141 139 130 141 137 131 140 137 131 138 136 132 137 134 133 137 132 133 138 130 132 138 128 132 137 126 132 137 127 133 135 126 134 134 124 135 134 121 135 133 118 136 132 115 136 132 112 137 133 108 139 133 106 140 135 104 141 135 103 143 134 102 143 132 99 145 132 97 146 132 95 147 133 93 146 133 93 146 134 92 148 135 91 149 136 89 151 137 85 150 137 81 151 138 79 151 137 76 151 136 73 152 134 71 154 132 68 152 144 141 126 143 141 127 143 140 130 145 140 129 144 141 129 143 141 129 144 142 129 145 142 129 146 143 130 146 143 128 146 144 128 146 143 128 145 142 129 144 141 128 143 140 128 142 138 128 140 137 130 138 137 131 137 135 132 136 133 132 137 130 131 137 128 130 135 128 130 135 129 131 133 128 132 133 125 134 133 123 135 133 119 135 132 115 135 132 112 136 131 109 137 132 107 138 133 107 140 134 105 140 135 103 140 134 99 143 132 97 144 132 96 146 132 94 148 132 94 148 133 92 147 135 90 148 136 89 149 136 85 150 137 80 149 136 78 149 136 74 149 135 71 152 134 70 152 132 67 151 144 144 127 143 143 128 143 143 130 144 142 130 143 143 129 144 143 129 144 143 129 145 145 129 145 146 129 146 146 128 148 146 127 148 145 127 147 143 127 146 141 127 144 140 127 142 138 127 140 138 128 140 137 129 138 136 130 136 134 130 136 131 129 135 130 129 134 130 129 132 130 130 132 130 132 133 128 131 132 126 133 131 121 132 130 119 133 130 115 133 130 112 135 131 110 135 132 109 138 134 106 139 134 104 139 134 101 141 132 99 142 132 97 144 131 95 146 133 94 147 133 91 146 134 89 146 135 88 148 136 84 149 136 80 148 136 78 149 136 74 149 135 72 150 134 69 151 132 66 151 144 146 127 143 145 128 144 146 129 144 145 128 144 144 129 144 144 129 145 145 129 145 146 129 145 148 127 146 148 126 148 146 127 148 144 127 148 143 127 148 142 126 145 141 126 144 139 125 143 137 124 142 137 125 140 137 126 137 135 127 136 133 126 134 132 126 133 131 127 132 131 128 132 130 129 132 129 129 131 128 130 130 124 130 129 122 130 129 118 132 129 115 133 129 113 135 130 111 136 131 108 138 132 106 139 132 102 139 133 99 141 132 97 143 132 95 146 133 92 146 134 90 147 134 88 147 134 86 146 135 83 147 134 80 148 134 77 148 135 73 149 136 70 149 135 67 149 133 65 148 144 147 126 144 147 127 145 147 126 145 146 126 145 145 128 145 146 128 145 146 128 145 147 127 146 149 126 146 148 126 146 145 126 148 144 126 148 143 125 147 143 124 146 142 123 145 139 122 145 138 121 142 137 122 139 136 123 138 137 124 137 136 123 135 135 125 134 134 125 133 133 125 131 132 126 131 130 127 131 129 127 129 127 128 127 125 128 127 120 130 127 117 132 128 114 133 128 112 136 129 109 138 129 106 139 130 103 139 131 100 140 131 97 142 131 95 145 132 91 145 132 89 145 133 87 146 133 86 145 132 82 146 132 79 147 133 75 148 134 72 147 135 69 147 135 67 147 134 65 146 144 150 124 145 149 124 146 148 124 145 148 124 145 148 126 146 148 128 145 147 128 145 148 127 146 148 124 145 146 124 146 145 124 146 143 124 146 143 123 146 143 123 146 141 121 145 140 120 145 139 119 142 138 120 140 136 121 139 136 120 137 137 121 136 137 121 136 137 123 134 136 123 132 135 124 131 133 125 129 131 126 128 129 127 127 126 127 125 123 128 125 120 131 126 118 133 126 114 136 127 112 138 127 107 139 128 106 139 130 103 141 130 100 143 129 96 143 129 93 144 130 90 144 130 88 145 129 84 146 129 81 146 131 79 146 132 75 147 134 72 146 133 69 146 134 67 146 134 66 147 145 151 121 145 151 122 146 150 122 145 150 122 146 150 124 146 150 126 146 148 127 146 148 126 146 148 123 145 146 123 144 145 123 145 145 123 145 145 122 144 144 121 144 143 119 143 142 118 144 141 117 142 139 118 140 138 118 139 136 119 136 137 118 135 138 119 135 138 121 134 138 122 131 137 123 129 134 124 128 132 125 127 129 126 126 126 127 125 124 128 124 122 130 125 119 133 125 116 136 126 113 138 126 110 140 127 107 141 128 104 141 128 102 142 127 98 142 127 95 143 126 91 144 128 89 144 128 86 145 129 83 146 130 80 146 132 76 146 133 73 145 135 71 144 134 68 145 134 66 146 145 153 120 145 153 120 145 153 121 146 153 122 147 152 122 146 151 124 147 150 124 148 149 124 147 148 124 146 147 124 144 146 123 144 146 122 144 146 122 144 145 121 143 145 119 143 144 117 142 142 116 142 140 116 138 138 117 136 138 117 134 139 116 134 139 117 134 139 120 133 140 121 131 138 121 128 136 123 127 133 123 126 131 125 125 128 126 125 126 127 124 123 129 125 120 132 125 117 134 125 114 137 126 112 138 126 109 140 127 106 139 127 103 141 126 100 141 126 97 142 125 93 143 126 90 142 128 87 144 129 84 144 130 80 144 132 78 143 134 74 142 135 71 143 135 69 143 133 67 144 145 153 119 145 154 119 145 154 120 145 154 121 146 154 121 146 153 123 148 152 123 149 151 123 148 149 123 147 148 123 145 149 121 143 148 121 142 148 122 142 148 121 141 147 119 142 145 117 142 142 115 141 140 114 138 139 115 134 139 116 133 139 116 132 140 117 132 141 119 131 141 121 129 139 121 128 137 121 126 135 122 125 133 124 124 130 126 124 127 127 123 124 129 124 122 131 124 118 132 125 116 134 125 113 136 126 111 137 127 108 138 126 105 139 125 101 140 125 98 141 123 94 141 123 90 140 126 87 141 128 86 142 129 82 141 132 78 140 133 76 141 134 73 142 134 70 142 132 69 144 145 153 118 146 154 119 147 155 119 147 154 120 148 153 121 148 154 121 148 154 122 148 153 122 147 151 121 146 151 122 144 150 121 142 150 121 140 151 120 140 150 121 140 148 118 142 144 116 142 143 115 141 142 114 138 141 113 135 140 114 133 140 115 131 141 117 131 142 118 129 142 119 128 140 120 126 138 121 126 136 121 126 134 123 124 131 125 123 129 126 123 126 129 124 124 130 125 120 131 124 117 132 124 115 135 124 112 136 126 108 136 125 105 137 124 101 137 123 98 138 122 94 138 122 91 138 125 89 139 126 87 139 127 83 139 129 80 139 131 76 140 132 74 142 132 71 141 131 70 142 144 154 119 146 155 120 147 155 119 149 154 119 149 155 119 149 155 120 149 155 121 148 156 122 146 155 121 144 154 120 142 152 120 141 152 119 140 152 120 139 151 119 140 149 118 141 146 116 142 144 114 141 144 113 138 144 113 136 144 114 134 144 115 132 144 116 131 144 117 130 142 118 128 140 119 126 139 120 126 138 120 126 135 122 125 133 124 124 132 124 123 130 127 123 127 130 123 123 130 122 119 132 123 116 134 123 112 136 124 109 136 123 106 135 122 103 136 122 99 135 122 95 136 123 92 137 124 90 137 126 88 138 126 84 139 127 80 139 129 76 140 129 73 140 130 72 139 130 70 141 143 156 120 145 156 121 147 156 120 148 156 119 149 157 118 149 158 120 149 158 121 147 159 122 145 158 122 143 157 121 141 156 120 139 155 119 139 154 118 139 153 118 140 151 117 141 149 116 141 147 115 140 147 114 137 147 112 137 147 114 136 148 116 134 148 115 131 146 117 130 145 117 128 143 119 127 142 121 128 140 121 127 138 121 125 135 122 123 134 124 122 132 127 122 129 129 121 125 132 120 121 133 122 117 134 122 113 135 121 111 135 120 108 134 121 103 135 121 100 135 122 97 135 122 94 135 123 91 136 124 89 137 125 84 139 125 80 140 127 77 139 128 74 139 129 73 140 129 70 141 143 157 119 145 158 120 146 158 119 147 159 118 148 159 117 148 160 117 148 161 119 146 161 121 144 161 122 141 160 121 140 159 120 139 157 118 140 155 117 140 153 117 140 152 116 141 152 115 140 151 114 139 151 114 138 150 113 138 151 113 136 150 114 135 150 115 132 148 114 129 147 117 128 145 119 127 144 121 128 142 121 128 141 121 126 138 122 124 136 125 122 133 127 120 129 130 120 126 131 120 122 132 120 118 133 121 114 133 120 112 133 119 109 132 120 105 133 120 101 133 121 98 133 122 94 134 122 92 135 123 88 135 124 84 137 124 81 138 125 77 138 126 74 138 128 72 139 128 71 141 142 159 118 144 160 118 146 160 117 147 161 116 149 161 116 149 161 116 148 162 118 147 163 120 144 164 121 141 162 121 141 161 119 141 159 118 141 157 117 141 156 115 141 154 113 141 155 113 139 153 113 139 152 112 138 151 112 138 152 112 136 152 112 134 151 112 134 149 114 131 148 116 129 147 119 129 146 120 129 144 120 129 142 121 128 140 122 125 137 125 123 134 126 121 131 129 119 127 131 119 123 131 119 120 132 120 116 132 119 112 132 118 110 132 117 107 131 118 102 131 119 98 131 121 95 131 122 90 133 122 87 134 123 83 134 123 81 137 124 79 138 126 75 138 126 73 139 126 71 139 144 161 117 144 163 116 145 163 115 147 162 115 149 162 114 149 163 115 149 163 117 147 162 119 144 163 119 142 163 120 142 162 119 143 161 118 142 159 116 141 159 115 142 158 113 141 158 112 140 156 111 139 155 110 138 153 110 137 153 110 135 153 111 134 152 111 134 150 112 132 149 115 131 148 119 131 146 120 129 145 120 129 143 120 127 141 122 125 139 124 124 135 126 122 132 127 120 127 128 120 122 130 119 119 131 119 115 131 118 112 131 117 110 131 116 107 130 117 103 130 119 99 130 120 94 130 121 90 130 122 86 132 122 83 132 122 80 134 123 78 136 124 75 136 124 74 137 125 73 138 144 163 116 145 164 115 146 164 114 147 164 113 148 165 114 149 165 115 149 165 117 148 164 117 145 164 118 143 164 118 142 163 118 143 163 116 141 162 114 142 162 114 142 162 113 142 162 112 141 160 110 140 158 108 138 156 108 136 155 108 135 154 109 134 152 110 133 151 112 132 150 114 130 148 117 130 147 118 129 146 120 128 143 121 127 142 122 125 139 124 125 135 125 122 132 127 121 128 128 120 123 129 119 118 129 119 115 129 119 113 130 116 110 130 115 108 130 116 103 129 118 100 129 120 94 129 121 90 130 123 87 130 123 85 131 123 83 133 123 79 134 124 78 135 124 75 135 124 74 137 144 165 115 146 165 115 147 165 114 148 166 113 149 167 115 149 167 115 149 167 116 148 167 116 147 166 117 145 165 118 144 166 117 144 167 115 143 166 113 143 166 111 143 165 111 142 165 110 141 163 108 139 162 107 138 160 106 137 158 106 135 156 107 134 155 108 132 154 110 131 151 113 130 149 114 129 148 116 128 147 118 127 145 121 128 142 121 126 139 122 124 136 124 122 132 126 120 128 127 119 124 128 119 120 128 118 116 128 118 113 129 116 111 130 115 108 129 115 104 129 117 100 129 119 96 130 121 92 130 123 90 130 124 87 131 125 85 133 125 83 134 125 81 135 124 78 136 123 75 137 145 166 114 146 167 113 148 167 113 150 167 114 149 168 115 150 169 114 149 169 115 148 168 116 147 169 115 146 168 117 145 167 117 145 168 114 143 168 113 142 169 111 141 168 110 141 168 109 141 167 108 139 165 106 137 162 106 136 160 107 136 158 107 134 157 107 132 155 109 131 153 110 131 151 113 130 149 116 127 148 117 127 146 119 128 143 119 126 140 119 123 136 120 122 133 122 120 129 123 118 126 125 118 122 127 118 118 127 117 115 128 115 112 127 114 109 127 115 105 128 116 102 130 118 98 130 120 95 130 123 92 130 124 90 131 125 87 134 125 85 136 125 83 137 124 80 136 123 76 137 147 168 112 148 167 112 150 168 113 152 168 113 151 169 112 150 170 112 149 170 115 148 170 115 147 171 115 145 170 116 144 168 115 144 168 113 143 169 112 142 170 111 141 170 110 140 169 108 139 168 107 138 167 106 136 165 106 136 163 106 136 160 106 134 158 107 133 157 107 131 154 108 130 153 111 130 152 115 128 150 116 127 146 116 127 144 116 125 140 116 122 137 117 121 134 118 118 131 120 117 127 121 116 123 124 115 119 126 114 117 126 114 114 126 114 110 126 114 107 128 115 104 129 117 101 131 121 98 131 122 95 131 124 92 132 126 90 135 126 87 137 124 83 137 125 80 138 123 78 139 151 167 112 152 167 113 153 168 112 153 169 111 153 170 110 152 171 111 151 172 113 148 172 113 147 172 114 146 170 114 145 169 113 144 168 112 143 169 110 142 170 109 142 171 108 140 171 107 139 170 106 138 168 105 137 166 104 136 164 103 137 162 104 135 160 104 133 159 105 132 157 107 130 156 108 129 154 112 127 151 114 126 148 115 126 145 114 124 142 114 122 138 115 121 135 116 119 132 117 118 128 120 116 126 122 113 122 123 113 118 124 113 115 125 112 111 126 111 108 127 113 106 128 116 103 130 120 101 130 122 98 130 124 95 132 126 92 135 126 90 138 126 86 139 125 83 140 125 81 141 152 167 112 153 167 113 153 168 112 154 170 111 154 171 110 154 172 110 151 172 110 148 171 111 148 172 111 147 170 111 145 170 111 143 171 110 141 171 109 141 172 108 141 172 107 140 172 105 139 171 104 139 169 104 139 167 103 137 165 101 137 163 101 135 161 102 133 160 103 132 160 105 130 158 107 128 156 110 126 153 112 126 150 112 126 147 112 124 145 111 123 141 113 120 137 115 119 135 115 117 131 118 115 128 119 114 125 121 113 121 121 113 117 122 111 114 123 110 111 125 111 108 126 114 105 126 118 103 127 122 101 130 124 98 132 126 96 135 127 94 138 126 90 140 126 86 142 125 84 143 154 169 111 154 168 111 154 168 110 155 170 109 155 171 108 154 171 108 152 172 108 150 172 110 149 171 109 147 171 108 145 172 108 143 173 108 140 173 107 140 174 106 139 174 106 138 174 105 139 172 103 139 170 102 139 168 101 138 166 100 136 164 100 134 163 101 132 162 102 131 161 103 130 160 105 128 159 107 126 157 108 125 152 108 125 150 108 123 147 110 122 144 111 120 141 112 119 138 112 117 135 114 115 130 116 114 127 118 114 123 117 113 119 119 111 117 120 110 114 122 111 111 123 114 108 124 117 106 126 121 104 128 124 102 133 125 100 136 127 97 138 127 94 141 127 90 144 127 87 145 154 171 110 154 170 109 155 169 108 155 170 107 155 171 105 153 170 106 152 171 107 149 172 108 148 173 107 146 172 106 144 173 105 143 175 105 141 175 104 139 175 105 137 175 105 136 174 104 137 173 102 139 171 101 139 170 100 137 168 99 135 167 100 133 165 100 130 165 101 129 164 102 128 163 104 126 162 105 125 159 105 124 156 105 123 153 106 120 151 108 118 148 109 118 144 109 118 141 110 117 137 110 115 133 112 113 128 112 114 125 113 112 122 115 111 121 118 110 118 120 110 115 121 114 113 123 117 110 125 119 108 128 122 106 132 125 104 136 127 101 138 127 97 141 128 95 144 129 91 145 154 172 109 154 170 108 154 169 107 154 170 105 153 170 105 152 170 105 150 171 106 148 171 106 146 173 106 145 174 104 143 174 103 142 176 103 140 177 102 138 176 102 136 175 102 135 175 102 136 174 101 136 174 100 137 173 99 136 171 99 134 170 100 132 169 100 129 169 100 128 167 101 127 165 101 125 165 102 123 162 103 122 159 103 122 156 104 119 154 105 117 151 106 116 148 108 116 144 108 116 140 108 116 136 108 114 131 108 114 127 110 113 125 112 111 124 117 109 122 120 110 120 122 113 118 124 116 114 125 120 112 127 122 109 131 125 107 135 126 103 139 127 101 140 129 98 142 128 94 144 153 171 107 153 170 105 153 170 105 152 170 106 151 170 106 149 170 106 147 170 106 146 171 106 145 173 105 144 174 103 141 175 102 140 176 102 138 177 102 137 178 101 134 177 101 133 177 101 134 176 100 135 177 98 135 175 98 133 174 99 132 175 100 130 174 101 128 172 101 127 170 100 126 169 101 124 167 100 121 165 101 120 163 102 119 160 102 117 157 103 117 155 104 116 151 104 117 148 104 116 143 105 115 138 105 113 134 106 113 130 108 113 128 111 112 126 115 110 124 119 110 123 121 112 121 122 115 117 124 119 115 126 123 112 129 125 109 134 127 105 137 128 103 139 129 100 141 129 97 144 152 171 106 152 170 105 152 170 105 151 169 106 150 169 106 148 169 106 147 169 106 147 170 106 146 172 104 144 174 102 142 175 101 139 176 101 137 177 100 135 178 100 133 178 101 132 177 100 133 178 100 134 179 99 134 178 98 133 178 98 131 179 100 129 178 100 128 176 99 126 174 99 125 173 99 122 171 99 120 168 100 117 165 100 117 163 101 116 161 102 117 157 102 117 155 101 117 151 100 117 146 101 115 141 103 113 137 104 112 134 107 112 131 110 112 128 114 111 127 116 111 126 119 114 124 120 116 121 123 120 118 125 123 114 128 125 111 132 127 108 136 128 105 138 130 102 141 131 100 143 151 171 105 151 170 104 150 170 104 150 170 105 150 169 105 148 169 105 148 169 104 147 170 103 146 172 102 144 174 101 141 175 100 138 176 100 136 178 100 134 179 99 133 180 100 133 180 100 134 181 99 135 182 97 135 182 96 133 182 97 131 182 98 128 181 100 126 180 99 124 179 98 122 177 98 120 174 98 118 170 99 117 168 99 117 167 99 118 164 100 118 159 101 119 157 100 118 153 99 117 149 100 115 145 101 113 140 103 112 137 106 112 134 108 113 131 111 114 129 114 114 128 115 115 127 116 117 124 121 121 121 124 124 118 127 127 113 131 128 110 134 129 108 138 132 105 141 134 101 143 151 170 105 150 170 104 149 170 104 150 170 104 150 170 103 150 170 102 149 170 103 148 171 102 147 173 100 144 174 100 140 175 100 137 177 101 135 178 100 134 180 100 134 181 101 134 183 100 135 184 98 136 184 96 134 184 96 132 183 97 130 183 97 127 183 99 126 183 99 124 181 98 122 178 98 120 175 97 119 172 97 118 170 97 118 168 98 118 166 99 118 163 98 118 160 97 117 156 97 116 152 98 115 148 101 113 143 103 113 139 106 113 136 107 114 133 110 115 132 111 116 131 112 115 129 114 117 127 118 120 124 123 124 121 127 127 116 130 129 112 134 131 110 138 133 107 141 135 104 143 150 171 104 149 170 105 149 169 104 149 169 104 150 170 102 150 171 101 149 172 101 149 173 102 148 174 101 145 175 100 141 177 101 138 178 102 136 179 101 135 181 101 134 183 101 133 184 100 134 185 98 134 185 97 134 185 97 131 185 97 129 184 97 127 183 99 126 184 97 124 183 97 122 179 97 121 176 96 120 174 95 119 172 96 118 169 97 118 167 97 119 165 97 119 161 96 118 158 96 115 154 97 114 150 100 113 147 103 113 143 105 114 140 107 113 137 107 115 136 109 116 134 111 118 131 113 120 130 117 122 127 122 126 124 127 128 119 131 130 115 134 133 112 138 136 110 142 138 106 145 150 172 103 148 170 104 148 169 104 149 169 104 149 171 102 150 171 101 150 171 100 150 172 101 147 175 102 145 177 102 142 177 103 139 179 103 137 182 101 136 184 101 135 185 100 134 186 99 134 186 99 134 187 98 133 187 98 131 187 97 129 185 97 128 186 97 126 184 97 123 183 96 122 181 96 122 180 95 121 177 94 120 174 95 119 172 96 119 169 96 119 167 95 119 163 95 118 161 95 116 157 97 114 153 99 113 151 103 114 149 104 114 146 106 114 143 106 115 140 109 116 138 111 119 135 113 122 132 117 124 130 122 126 127 125 128 121 130 131 117 135 134 114 140 138 112 143 140 108 145 151 172 101 148 169 102 147 168 103 148 170 102 148 172 101 149 172 100 149 172 100 149 173 100 147 175 101 144 177 102 141 178 103 140 179 102 138 182 101 137 184 101 136 185 100 136 187 98 134 187 98 133 187 98 132 187 98 131 187 98 129 187 98 127 187 97 126 186 96 124 184 95 124 182 94 124 180 93 122 179 94 122 176 94 121 173 96 121 169 96 120 167 95 118 166 95 117 164 95 117 159 98 116 156 100 114 154 102 115 152 103 114 150 104 114 147 106 115 144 109 117 141 111 119 138 113 122 136 116 124 134 121 127 129 125 129 123 130 131 120 135 135 117 139 139 115 142 142 111 145 152 171 99 148 169 100 146 170 101 147 171 100 148 171 100 149 172 100 148 173 100 147 174 101 146 176 101 144 177 102 141 179 103 140 179 103 138 181 103 136 183 103 135 185 101 134 186 99 132 187 98 131 187 99 131 187 99 130 186 100 129 186 98 127 187 97 125 186 95 125 185 94 124 184 94 124 182 93 124 180 94 123 177 95 122 175 95 121 171 95 121 168 94 119 167 94 117 165 95 117 163 98 117 161 99 116 157 100 116 155 101 116 152 104 117 150 105 116 146 108 118 143 111 120 141 113 122 139 116 125 136 121 128 130 126 130 126 131 132 122 134 136 119 138 139 117 141 142 113 145 152 171 98 149 172 97 147 173 98 146 172 98 147 173 98 147 174 99 145 175 99 144 176 99 145 176 100 144 177 102 141 178 103 139 179 104 138 181 103 135 182 103 133 183 102 132 184 100 131 186 98 130 186 98 130 186 99 129 187 99 129 187 97 127 187 96 126 187 95 125 185 94 125 183 93 125 183 93 124 180 93 125 177 95 123 176 95 121 173 95 120 170 94 119 169 95 117 168 96 117 166 97 117 165 100 117 161 101 117 157 102 117 154 103 117 152 105 118 149 107 119 145 110 120 142 114 123 141 117 125 137 121 127 134 126 130 129 131 133 125 134 137 121 137 140 118 140 142 115 143 152 174 96 149 175 95 147 174 97 146 174 96 146 175 97 145 176 98 143 176 98 142 177 99 142 178 100 142 177 102 140 177 103 139 178 104 137 179 104 134 180 103 133 181 102 131 182 100 130 185 98 130 186 98 129 186 98 129 188 99 128 188 98 127 188 97 127 187 96 127 186 94 126 185 93 125 183 93 125 181 94 124 177 95 123 176 95 121 174 95 120 172 95 120 170 95 118 171 97 118 170 99 118 167 100 119 164 100 118 160 101 118 156 103 119 154 105 120 150 107 122 147 110 122 144 113 125 143 117 128 140 122 128 135 126 131 132 130 134 128 133 138 124 137 141 120 139 142 116 142 152 177 92 150 176 92 147 176 94 145 176 96 143 176 96 143 177 96 142 177 96 141 177 97 141 177 100 141 176 100 139 176 102 137 176 103 135 178 102 132 178 103 130 180 102 128 181 101 128 184 100 129 186 99 129 187 100 127 188 99 128 188 99 127 188 98 128 188 96 128 187 96 126 185 95 126 183 95 125 180 96 124 179 95 123 177 95 121 175 95 120 173 95 120 173 96 119 173 98 118 172 99 119 171 100 120 166 101 120 162 101 120 158 104 121 155 105 123 151 108 123 149 111 124 146 113 127 144 117 130 141 122 132 137 125 134 134 129 136 130 133 138 126 136 141 121 139 142 118 142 152 179 90 150 178 91 146 178 93 144 178 94 141 179 95 141 179 95 140 178 95 140 177 97 140 176 98 140 177 99 138 177 101 136 178 101 133 178 101 131 179 102 127 180 103 126 182 102 125 183 101 126 185 101 127 187 101 127 188 100 127 189 99 128 189 98 127 188 96 126 186 95 126 184 95 125 182 95 124 181 96 123 180 96 122 177 96 120 177 97 120 175 97 120 175 97 120 175 99 119 174 100 119 172 100 120 169 102 121 166 103 121 161 104 122 158 106 124 154 108 124 153 110 125 150 113 128 146 118 132 142 123 134 138 126 136 135 129 138 132 131 138 128 134 140 124 138 139 121 142 