P3
50 50
255
74 75 115 75 74 117 75 74 121 77 74 124 77 76 127 77 78 131 78 77 134 77 77 138 78 78 141 80 78 144 80 78 146 80 79 148 80 81 151 80 83 154 79 86 157 79 89 159 80 92 161 80 95 164 83 97 168 85 100 172 87 102 174 88 104 175 92 106 178 95 108 180 99 110 181 100 110 183 102 112 184 104 112 183 106 113 183 108 114 182 109 114 182 108 114 183 107 114 183 107 115 183 107 115 182 109 116 182 111 116 183 114 117 183 116 117 182 118 118 181 119 117 180 121 117 179 122 117 177 122 116 176 124 114 175 127 114 175 128 113 173 130 113 172 131 112 170 133 113 170 77 72 115 77 72 116 77 71 120 77 71 124 77 72 128 78 74 130 77 75 133 77 76 136 78 77 140 81 76 144 81 76 146 81 77 148 81 80 150 81 83 153 80 86 157 80 89 160 81 92 163 83 95 167 85 97 170 86 99 173 88 102 176 90 103 176 94 105 179 97 107 181 99 108 182 100 110 183 102 111 184 104 112 184 105 113 184 106 114 183 108 114 183 107 114 183 107 116 183 107 116 184 108 117 184 109 118 184 111 118 185 114 118 184 117 118 183 119 119 183 120 118 181 122 118 180 123 116 179 125 115 177 126 113 176 129 113 175 130 112 174 131 111 172 134 111 171 136 112 171 79 70 114 78 69 117 78 69 121 78 70 125 79 72 127 79 72 128 78 73 131 79 75 134 79 76 138 80 75 142 81 75 145 82 76 148 82 79 149 82 82 152 82 86 157 82 89 162 84 91 165 86 94 169 87 96 173 89 98 175 92 100 177 94 102 178 96 105 179 98 107 182 100 108 182 101 109 183 102 110 184 103 111 185 104 112 184 106 114 184 107 115 183 107 115 184 107 117 184 108 118 185 109 118 185 110 117 184 112 119 184 113 119 185 116 119 184 119 119 185 121 118 183 124 116 182 125 115 181 127 114 179 129 113 178 130 112 177 132 111 175 133 110 173 137 110 173 139 110 173 80 66 114 81 66 118 80 67 122 80 69 125 81 72 126 81 73 127 80 73 130 80 73 133 81 74 136 81 74 140 81 75 143 82 76 145 83 78 149 84 81 152 84 85 157 85 87 162 87 89 167 88 93 171 89 95 173 91 97 175 95 99 177 96 102 178 98 104 180 99 106 182 102 108 183 103 109 183 103 110 184 103 111 184 104 111 184 106 114 184 108 115 185 108 116 184 109 117 184 109 119 185 111 119 185 112 119 184 114 119 185 115 119 185 116 118 185 119 118 186 122 118 185 125 115 184 127 113 182 129 113 181 131 113 180 132 112 179 134 111 176 135 110 175 139 109 175 140 108 174 81 66 116 83 65 119 83 66 122 82 68 124 82 71 126 82 72 127 81 72 129 80 71 133 81 71 136 82 72 139 83 74 142 83 75 145 85 76 149 86 79 152 87 83 157 88 84 162 89 87 167 90 90 171 92 93 172 94 94 174 97 98 176 99 101 178 101 103 180 101 104 182 103 106 183 104 107 182 104 109 183 104 110 184 106 111 184 107 113 184 108 115 185 110 116 185 111 117 185 111 119 185 113 119 185 114 119 186 115 119 185 116 118 185 117 119 186 121 119 186 124 118 186 127 115 186 130 113 184 131 112 183 133 112 182 134 112 181 137 111 179 138 110 178 140 109 176 142 107 176 81 66 116 83 65 119 84 67 123 84 69 124 83 70 126 83 70 128 83 70 129 83 69 132 84 69 136 85 71 139 86 73 142 86 74 146 87 76 150 88 79 153 89 80 157 91 82 162 91 85 166 93 88 170 95 91 172 97 92 173 99 96 175 101 100 177 104 102 179 105 103 182 106 104 183 106 106 183 106 107 183 107 109 184 107 111 184 108 114 185 108 116 185 110 117 186 111 118 187 112 118 187 115 118 186 116 118 187 117 118 187 117 118 187 119 118 187 122 118 188 125 117 188 128 114 187 131 112 186 133 112 184 135 111 183 137 111 182 140 110 180 140 110 179 141 108 177 143 107 176 82 64 115 82 66 118 84 67 121 85 68 124 85 70 126 85 69 127 85 69 129 85 68 133 87 68 137 88 69 140 87 71 143 88 73 146 89 75 150 91 79 154 92 80 158 93 80 163 95 83 166 98 86 169 99 90 172 100 92 173 102 95 175 104 98 178 106 100 180 107 102 181 108 104 183 109 106 183 110 108 183 109 110 185 108 112 186 109 116 186 110 118 186 111 117 187 113 117 187 114 118 188 116 118 188 117 118 188 118 117 188 119 117 188 121 118 189 123 118 189 126 116 191 130 113 191 132 112 188 136 112 186 138 111 184 140 110 182 142 109 181 142 108 181 143 107 179 143 107 178 86 62 115 86 65 118 86 67 121 87 69 125 88 69 127 89 69 128 89 68 131 91 67 135 90 68 139 90 70 142 89 71 145 91 72 147 92 75 150 94 78 154 95 80 158 97 81 162 99 83 166 101 85 169 103 88 171 104 91 173 106 95 174 107 98 177 107 101 179 110 103 181 111 104 182 112 107 183 112 109 183 111 111 186 110 114 188 111 117 187 112 119 188 114 120 188 114 118 188 115 119 189 117 119 190 118 119 191 120 118 190 122 117 189 125 117 191 126 117 192 128 116 192 132 114 192 135 112 190 138 111 188 140 111 186 143 109 184 144 107 183 145 106 182 146 107 180 146 106 179 88 62 114 89 64 117 89 66 121 90 67 124 91 68 127 92 70 130 93 69 133 94 69 136 94 70 139 93 70 142 92 71 146 93 72 149 94 75 152 97 78 155 97 79 157 100 81 160 102 83 164 104 85 168 105 87 171 107 90 172 108 94 173 109 98 176 111 101 179 112 103 180 113 105 180 115 107 181 115 109 184 115 112 187 113 115 190 114 117 190 115 121 189 115 122 190 116 121 190 117 121 192 117 121 193 119 120 193 121 119 191 124 116 191 127 115 193 129 116 193 132 115 194 134 113 195 136 111 193 140 110 190 143 109 187 145 108 185 147 106 185 147 106 183 148 106 181 148 106 180 92 62 113 92 64 117 92 65 121 93 67 125 94 68 128 95 68 132 95 69 135 95 69 138 96 70 140 95 69 144 94 70 147 94 72 151 95 75 154 98 78 156 99 80 158 102 81 162 104 83 165 106 85 168 108 88 170 109 91 171 110 94 172 113 97 176 114 101 177 115 104 178 116 106 179 117 108 181 117 110 184 118 112 188 118 116 191 117 118 192 117 122 191 118 123 193 119 123 194 119 123 196 119 122 195 121 121 195 123 120 194 126 117 194 130 116 194 133 115 194 135 115 194 138 114 194 140 113 193 143 111 191 146 110 189 148 108 186 150 106 185 150 105 184 150 104 183 149 104 182 95 62 114 95 64 117 95 65 121 95 67 125 95 68 129 97 68 132 97 69 135 98 69 139 99 69 141 98 70 145 98 71 148 98 73 151 98 75 154 100 78 156 102 80 159 105 82 163 107 83 165 108 86 167 110 89 169 112 93 171 114 96 173 115 98 175 117 103 176 118 105 177 119 107 179 120 109 182 122 111 185 122 113 188 121 117 192 120 119 193 120 121 193 120 124 195 120 124 197 122 123 197 122 123 196 124 122 196 126 120 195 129 119 194 133 117 194 137 117 194 140 115 194 143 115 194 145 113 193 147 111 191 148 109 188 151 108 186 153 105 184 152 105 184 152 103 185 151 103 185 98 63 114 98 64 117 98 66 120 97 66 124 97 67 128 98 68 133 99 68 136 100 68 140 101 68 143 102 69 147 103 71 150 103 73 153 102 76 155 104 79 157 106 82 159 109 83 162 110 84 165 111 86 167 113 90 168 114 93 170 117 97 173 119 100 175 121 103 177 123 105 178 124 108 179 126 111 182 127 112 185 127 114 189 126 117 191 124 119 193 123 121 194 123 123 196 123 124 197 124 123 197 126 122 197 128 122 197 130 120 196 132 120 194 136 119 193 139 117 192 142 115 193 145 114 194 148 113 193 149 110 191 150 109 187 152 108 185 154 106 184 153 105 185 152 103 185 152 102 185 99 64 114 99 65 117 99 66 121 99 66 124 99 68 129 100 68 133 101 68 138 101 68 141 103 68 145 106 69 149 107 71 152 108 73 155 108 75 156 108 80 158 110 83 159 112 86 161 113 86 163 115 88 166 116 91 168 117 95 170 120 99 173 123 101 175 125 102 177 128 104 179 129 108 180 131 111 181 132 112 184 131 115 187 130 117 190 127 119 192 126 120 193 126 122 194 127 123 195 128 122 197 130 122 198 132 122 197 134 121 196 135 120 194 138 119 192 142 118 191 144 115 192 146 114 194 149 112 193 150 111 190 151 109 187 153 108 185 154 107 184 154 106 185 154 103 185 152 102 185 102 64 115 102 66 118 102 67 121 101 67 126 101 68 130 103 68 135 104 68 139 104 68 143 106 68 147 108 69 150 110 72 154 112 73 156 113 76 158 113 80 159 114 83 160 115 86 161 116 88 164 118 89 167 120 92 169 120 96 170 123 99 172 125 100 175 128 101 177 131 104 178 133 107 179 135 111 180 135 113 182 135 115 185 133 118 187 130 119 189 129 120 191 130 121 192 130 123 193 131 123 194 133 122 195 135 122 197 137 121 197 138 120 195 139 119 192 143 117 192 147 116 191 149 114 192 151 112 191 151 111 189 151 110 186 153 109 184 155 107 184 156 106 185 155 104 185 154 102 184 104 67 116 104 66 118 103 66 122 103 68 126 104 70 130 105 69 135 107 69 139 107 70 144 108 69 148 110 70 151 113 73 154 116 75 157 117 78 159 117 80 161 119 83 162 119 86 162 120 88 164 121 91 166 123 94 169 125 97 170 127 99 172 128 100 174 132 103 175 136 106 176 137 109 177 138 111 179 139 114 180 138 116 182 137 118 185 135 120 187 134 120 188 134 121 190 134 122 191 134 123 192 136 122 195 138 123 196 139 122 196 140 120 195 141 118 192 145 117 192 148 115 191 151 113 190 152 111 189 152 111 187 152 109 185 153 107 185 155 106 186 157 105 186 156 104 185 155 102 183 106 68 116 106 68 119 105 67 123 105 70 127 107 71 132 107 71 135 110 70 137 110 71 142 112 72 147 113 73 150 116 75 153 118 77 155 119 79 158 121 82 160 122 84 161 124 87 161 124 90 163 125 92 165 126 95 167 128 97 169 130 99 170 132 101 172 136 103 173 140 107 174 142 111 175 142 113 177 143 115 179 142 117 181 141 117 183 140 119 185 138 120 186 138 122 188 138 122 190 138 123 191 138 122 193 139 122 195 140 121 196 142 119 194 144 118 192 146 117 191 150 114 191 153 112 189 154 110 188 153 110 185 153 108 185 154 105 186 155 105 187 157 104 186 157 102 185 156 101 185 108 69 119 108 69 122 109 68 124 109 70 127 110 72 131 111 72 134 113 73 137 114 72 140 116 73 144 118 74 149 119 76 151 121 78 154 123 80 157 123 84 158 125 86 160 128 88 161 128 91 162 128 94 164 130 97 165 131 100 167 133 102 168 136 103 170 140 105 172 142 108 173 144 112 174 147 115 175 147 115 177 146 116 179 146 116 181 144 118 182 142 121 184 142 121 186 142 122 187 142 122 190 140 122 192 140 121 192 142 121 193 144 120 192 146 118 191 149 117 189 153 114 189 154 112 188 154 110 186 154 109 185 154 106 186 155 104 186 156 104 186 157 102 187 157 102 186 156 102 186 110 68 121 111 69 123 112 71 126 113 71 128 114 72 131 115 72 134 115 72 136 117 73 140 120 73 144 122 75 147 122 77 149 124 79 152 126 82 155 128 85 157 130 89 158 132 91 160 132 93 161 134 96 162 134 99 164 136 102 166 137 104 169 140 106 171 144 108 172 146 112 174 148 114 175 150 116 176 151 115 176 150 115 178 150 116 178 148 119 181 146 120 183 146 120 185 146 122 185 144 122 188 143 121 190 143 121 190 145 120 190 147 120 189 149 118 189 151 118 189 154 116 189 155 114 188 157 110 186 156 108 186 156 107 187 156 106 187 157 104 187 157 102 187 157 102 187 157 102 187 113 69 121 113 70 124 114 71 128 116 71 131 118 71 133 119 70 135 120 70 138 121 73 140 123 75 144 124 76 147 124 78 148 126 81 151 129 84 154 131 86 155 133 89 157 134 92 159 136 95 161 138 99 162 138 102 165 140 104 168 141 104 170 145 106 171 148 109 172 149 114 173 151 115 174 152 116 175 152 115 176 152 116 176 152 117 176 152 118 178 150 119 180 149 121 183 149 123 184 147 123 186 146 122 188 146 121 188 147 120 188 149 119 187 151 118 187 153 118 189 156 117 189 158 113 189 159 109 187 159 108 187 158 107 186 158 106 187 158 105 188 157 104 189 158 103 189 160 103 187 116 70 122 116 71 126 117 72 130 119 73 132 121 72 134 122 70 137 124 71 138 125 72 141 126 75 144 127 77 146 128 79 149 130 81 151 131 84 153 134 88 155 136 90 157 137 94 159 139 97 161 141 101 163 142 103 167 143 105 169 146 105 170 149 107 170 152 110 171 153 114 172 154 115 173 155 116 174 155 116 176 154 116 175 154 118 175 153 120 176 153 120 178 151 122 181 150 123 183 150 124 185 149 123 187 149 122 186 149 121 185 152 120 184 155 119 185 156 119 187 158 116 188 160 113 189 162 110 189 161 109 187 161 108 186 160 106 187 159 106 188 159 105 189 160 105 188 162 105 188 118 72 123 119 73 127 120 74 130 122 75 133 124 74 135 126 71 138 128 70 139 129 71 142 130 74 145 131 77 147 132 80 149 135 82 152 136 85 153 137 89 155 139 92 158 140 95 160 142 98 162 143 102 165 145 105 167 147 106 167 150 106 168 153 108 170 155 111 171 157 114 172 158 115 174 158 116 174 158 117 175 157 117 176 155 119 176 155 120 178 154 121 179 151 123 182 151 123 183 152 124 184 151 123 185 152 123 184 152 122 184 154 122 183 157 120 184 160 119 185 162 116 187 163 114 189 163 112 189 162 110 188 161 108 187 160 107 187 161 107 187 162 106 187 163 107 188 164 107 187 121 74 125 123 75 128 123 74 130 125 75 132 127 74 135 129 72 137 131 72 139 133 73 141 134 75 143 134 78 145 136 81 149 139 84 152 141 87 154 143 90 155 144 93 157 145 96 160 146 100 163 147 103 165 148 105 165 151 107 167 154 108 168 156 110 170 159 112 171 160 115 172 161 117 173 161 118 174 159 119 176 158 119 178 157 120 178 157 121 180 156 122 180 154 123 182 153 124 183 153 124 183 153 124 183 154 123 183 154 122 182 156 122 183 160 121 182 162 119 183 164 117 186 164 113 188 164 111 188 163 110 188 162 110 187 161 109 188 162 108 187 163 109 187 165 108 188 166 108 187 126 76 125 126 76 128 127 75 131 129 75 133 131 75 135 134 74 137 136 74 139 136 74 140 138 76 142 139 78 145 141 82 149 143 85 152 146 88 153 148 91 155 149 94 157 149 98 160 151 102 162 152 105 163 153 107 164 154 108 166 157 109 167 159 112 168 160 115 168 163 117 170 164 118 172 163 118 173 162 120 176 160 120 179 159 121 180 159 121 182 158 121 183 156 122 185 156 123 184 155 125 184 156 125 183 156 124 182 156 124 182 158 123 183 162 121 183 165 120 183 165 118 185 166 115 187 166 113 188 166 113 188 164 112 187 164 111 188 165 111 188 166 111 188 168 110 187 169 109 186 129 76 124 129 76 128 130 76 131 132 75 132 135 75 135 138 75 137 140 75 139 141 75 140 141 77 142 142 80 145 144 84 148 147 88 151 150 91 152 153 93 154 154 95 156 154 100 159 155 103 160 157 106 161 158 107 162 159 108 164 160 110 166 161 113 166 163 116 166 165 116 169 166 118 171 165 119 172 163 120 175 162 120 178 162 120 181 161 121 183 161 120 185 159 121 186 158 122 184 158 125 184 159 126 184 158 126 182 159 124 183 161 123 183 164 121 183 166 120 184 167 119 186 167 116 188 167 115 189 167 114 189 166 114 188 166 114 188 166 113 188 167 112 188 170 112 187 171 111 186 131 78 123 132 77 127 133 76 131 135 76 133 137 76 135 140 76 137 143 76 139 144 77 141 144 80 143 144 83 145 147 86 148 151 89 150 154 92 152 156 95 153 157 98 154 159 101 157 160 104 158 162 107 158 163 108 160 164 110 161 164 112 163 164 113 165 165 115 166 167 116 168 167 117 170 166 119 173 164 119 175 162 120 178 163 120 181 163 120 183 163 120 186 162 121 186 161 122 185 161 124 185 161 126 184 161 127 184 162 125 184 164 123 184 165 121 183 167 120 184 168 119 187 169 118 190 168 116 190 168 115 190 168 115 189 169 114 188 169 115 188 169 114 187 170 113 186 171 112 185 133 80 123 135 78 128 136 78 131 138 77 134 139 77 136 143 77 139 144 77 141 146 78 142 145 82 144 147 85 146 150 88 149 152 91 150 156 94 153 158 96 154 159 100 153 162 103 154 163 106 156 164 109 156 165 108 157 166 110 159 167 111 162 166 113 163 166 113 165 167 115 167 167 116 168 165 118 172 163 119 174 162 120 178 163 122 180 164 121 183 165 120 185 165 121 186 164 124 186 164 125 185 163 126 186 163 127 185 165 125 185 166 124 184 167 123 184 168 122 186 168 119 188 169 118 190 168 117 190 169 115 189 171 115 188 171 115 186 170 116 186 170 116 185 170 116 185 171 114 184 136 81 124 137 81 129 138 80 131 140 79 134 142 79 137 144 79 139 146 80 140 147 81 141 147 84 144 149 87 147 151 90 149 154 94 151 157 96 154 160 98 154 162 101 153 163 104 153 164 107 153 166 109 154 166 109 156 168 110 159 168 112 162 168 112 163 167 113 165 167 115 167 166 116 168 164 117 171 163 118 174 162 121 177 163 122 179 164 122 182 165 121 185 167 121 186 167 123 187 165 124 187 165 126 187 165 126 187 166 125 186 168 125 185 169 124 186 170 123 187 170 121 187 170 119 189 171 118 189 172 116 186 173 117 186 173 117 186 171 118 185 171 119 183 171 119 182 172 119 181 139 83 126 140 83 130 141 83 133 143 82 137 145 82 138 146 82 139 147 83 141 148 84 143 149 86 145 151 89 148 153 93 150 156 95 151 159 97 154 161 99 154 163 101 154 165 104 153 165 106 152 166 108 153 167 110 154 168 112 158 169 111 161 168 112 163 168 114 165 166 115 167 164 115 170 164 117 173 164 119 175 163 121 177 164 121 179 164 121 182 166 121 185 168 121 186 168 122 188 167 123 188 167 126 188 166 126 188 168 126 187 171 125 187 172 124 187 172 124 186 171 123 187 172 121 188 173 121 187 174 120 185 174 119 185 174 119 183 173 120 183 173 122 182 173 122 180 174 121 178 142 84 128 143 85 132 143 85 135 144 85 137 147 84 138 148 85 140 149 85 142 150 86 145 150 88 147 153 91 149 154 94 152 157 96 154 159 98 155 162 100 154 165 101 154 167 103 153 167 107 153 167 109 153 167 111 155 168 113 158 168 113 161 167 113 163 167 115 165 165 117 167 165 117 170 164 118 174 164 119 176 164 119 178 164 120 180 166 121 182 168 121 186 169 121 187 170 122 188 169 123 189 169 124 189 170 125 188 171 126 187 173 126 187 174 125 186 175 125 186 174 124 185 174 123 186 175 123 185 176 122 184 176 123 183 176 122 182 175 122 181 176 123 181 176 124 178 176 123 177 144 85 128 144 87 132 145 86 135 146 87 137 148 86 139 149 87 140 150 88 143 151 88 146 152 91 148 153 93 151 156 95 153 159 97 154 160 99 155 163 101 154 165 101 154 168 103 154 168 106 154 167 108 155 167 111 155 167 113 157 167 114 160 167 114 162 168 115 164 166 117 167 165 118 170 165 118 173 165 118 176 165 119 178 165 120 180 167 121 183 170 120 186 172 121 188 172 121 188 171 122 189 171 124 189 173 125 187 175 125 186 176 124 186 176 123 185 177 123 185 175 124 183 175 124 183 176 124 184 176 124 183 176 124 181 177 124 180 177 123 180 179 123 179 178 124 177 178 124 175 147 87 128 146 88 132 147 88 135 150 88 138 151 88 140 151 89 141 152 89 144 153 89 146 153 92 150 155 94 153 158 96 154 160 97 156 162 99 156 164 101 156 166 102 156 168 103 156 168 105 156 169 108 156 168 112 157 168 114 158 168 114 159 169 115 161 168 115 164 167 117 167 167 117 169 166 117 172 166 117 175 166 119 177 167 119 180 168 119 182 172 118 186 174 119 188 174 121 188 173 120 188 173 122 188 174 123 187 174 123 187 176 123 186 176 122 185 178 124 184 177 124 183 176 125 182 177 125 182 176 124 181 177 124 179 177 125 179 179 125 178 178 124 177 177 124 174 178 124 174 148 86 129 148 88 131 149 90 134 151 90 137 152 90 139 153 90 142 154 90 144 155 91 147 155 94 150 157 95 153 158 96 156 160 97 158 163 99 159 165 101 159 166 102 159 167 103 159 168 105 158 168 109 159 168 112 159 168 113 160 168 114 161 169 114 163 168 115 166 168 117 167 167 117 169 167 117 171 168 117 175 169 118 176 169 119 179 170 117 183 173 117 185 175 119 187 175 120 187 174 119 186 175 119 186 175 120 186 175 121 186 175 122 185 176 123 184 177 124 183 178 124 181 178 125 180 178 125 179 176 124 178 177 124 177 178 124 177 179 124 176 178 124 173 177 124 171 178 124 172 151 86 128 151 88 130 151 91 133 152 91 135 154 91 139 156 91 141 157 91 144 157 93 146 158 95 149 159 97 153 160 97 156 162 97 157 164 99 159 165 101 161 166 103 161 167 105 161 168 108 160 168 110 160 167 112 160 167 113 162 168 114 162 169 115 164 170 115 167 169 117 169 169 117 170 169 117 171 170 117 174 170 117 177 171 117 180 172 117 182 175 116 185 176 117 187 176 118 186 175 119 184 176 119 184 175 120 184 175 121 184 176 122 184 176 124 184 177 124 182 179 124 180 179 125 179 178 125 178 178 124 177 178 125 176 178 124 174 178 123 172 177 123 170 177 123 169 178 123 171 153 85 128 152 88 130 152 91 133 154 92 136 157 91 138 158 92 140 158 93 143 159 95 145 159 97 148 161 98 152 162 98 155 164 99 158 165 100 159 167 103 162 167 105 163 168 106 163 169 109 162 169 112 162 168 113 162 167 113 163 168 114 163 169 115 165 170 116 167 170 117 170 170 119 172 170 118 173 172 118 176 172 117 178 172 117 180 175 115 183 176 116 185 177 116 186 178 116 185 176 116 184 176 117 183 176 119 183 175 121 183 176 123 183 177 124 183 177 125 181 177 124 179 177 124 179 178 125 178 179 125 175 179 124 174 178 122 172 178 122 169 177 122 168 178 122 168 178 122 170 155 86 127 155 88 130 155 90 132 156 92 136 158 91 137 159 93 139 159 94 142 161 95 143 162 97 147 162 98 151 164 97 155 165 99 158 166 102 161 168 104 162 168 106 163 169 107 164 170 109 163 170 112 164 170 112 163 169 112 163 169 114 165 170 115 166 171 117 169 170 118 171 170 119 173 170 119 174 172 118 178 173 118 179 174 117 181 176 115 184 178 115 184 178 115 185 178 114 186 178 115 185 178 116 183 177 118 182 176 121 181 175 125 182 177 126 181 177 125 180 177 124 179 177 125 178 178 125 175 179 125 173 180 123 171 179 121 170 179 121 168 179 121 168 179 119 168 178 120 169 158 87 128 158 88 130 159 90 132 159 91 135 159 92 137 160 92 139 161 94 140 162 95 143 164 97 147 164 97 150 165 98 154 166 101 157 167 103 160 169 105 162 170 107 162 170 109 163 172 110 163 171 111 164 171 111 164 171 111 164 170 113 167 171 115 168 172 117 169 172 118 172 172 118 174 171 118 176 171 118 178 173 118 180 176 118 181 178 115 183 179 113 183 179 113 184 179 115 185 180 116 184 179 116 184 178 119 182 178 122 182 177 126 181 177 127 181 177 126 178 177 126 178 178 125 177 178 125 175 180 124 172 181 123 170 180 121 168 180 120 168 180 119 167 178 119 168 177 120 169 160 88 127 160 88 130 161 90 132 161 91 135 161 91 137 163 92 138 163 95 140 164 96 143 165 98 148 165 98 151 165 99 153 166 100 156 169 103 159 170 106 161 170 108 162 171 110 162 172 111 163 171 111 165 172 112 165 171 112 166 171 114 168 172 115 169 173 116 170 173 118 172 173 118 175 172 118 177 173 118 178 173 119 180 176 118 181 178 116 183 179 114 183 180 113 184 179 114 185 180 117 185 180 118 184 179 122 183 178 125 183 178 127 182 178 128 180 178 127 180 179 125 178 179 126 176 180 125 174 181 123 171 182 121 168 181 120 167 179 119 167 179 118 167 178 118 167 177 119 169 162 88 127 162 89 130 163 90 132 164 92 134 165 93 135 166 94 137 167 96 140 166 98 145 167 98 148 167 99 151 167 99 154 169 100 156 171 103 158 171 106 159 171 108 160 172 110 161 172 110 163 172 112 164 172 112 166 172 112 168 173 113 169 174 114 169 174 115 172 173 117 173 174 117 176 173 118 177 173 117 178 174 118 179 175 118 181 178 116 182 179 113 183 179 113 184 179 114 185 179 117 185 179 120 184 179 122 184 178 125 183 178 127 181 178 127 181 178 127 180 179 125 179 179 126 176 180 125 173 181 122 170 181 119 168 179 118 167 178 117 167 177 119 166 177 118 166 176 118 167 164 89 128 165 90 129 166 91 131 166 92 133 167 94 135 167 95 137 168 98 141 168 99 146 168 99 149 167 100 152 168 101 153 170 103 154 171 105 155 171 107 157 172 108 158 173 108 160 173 111 162 173 112 164 173 112 165 174 113 168 174 113 170 174 113 171 174 115 173 174 116 174 175 117 175 174 118 177 174 118 177 175 117 179 176 116 181 177 115 183 178 114 185 178 113 185 178 115 186 178 118 186 179 120 185 178 122 184 178 124 183 178 125 182 178 125 182 178 125 181 178 124 179 178 125 177 179 124 174 180 122 171 180 120 169 178 118 169 176 118 168 176 118 167 176 118 166 176 118 165 164 89 129 165 90 129 167 91 131 167 93 133 167 95 135 167 97 138 167 99 142 167 101 146 167 101 150 167 101 152 169 102 152 171 103 153 172 105 154 172 107 155 173 108 157 174 109 159 173 110 160 173 112 163 173 113 166 173 114 169 174 113 171 175 113 172 175 114 174 175 115 175 175 116 176 175 117 178 175 117 178 175 117 180 177 116 181 177 115 184 177 115 185 176 114 186 177 115 187 177 117 187 178 121 186 178 121 184 178 122 183 179 123 183 180 123 181 179 123 180 179 123 179 178 123 177 179 122 176 179 121 173 177 118 171 176 117 169 176 117 168 176 118 167 177 118 165 177 116 164 164 88 131 165 90 131 166 91 133 167 93 135 167 96 138 167 99 140 166 100 143 166 102 147 168 102 150 169 102 152 171 102 153 172 103 153 173 106 154 172 107 156 173 108 157 172 109 158 172 110 160 173 113 163 174 114 166 174 113 170 176 112 173 176 112 174 176 113 175 177 114 176 176 115 178 176 115 180 175 115 180 176 116 182 177 115 183 176 114 184 176 114 185 175 115 187 176 115 188 177 117 187 177 119 185 178 121 184 179 122 184 180 121 183 180 122 181 180 123 179 180 122 178 180 121 176 179 121 176 177 119 173 176 117 172 176 117 169 176 117 168 176 117 167 177 115 167 177 114 165 166 90 133 166 90 133 165 92 135 167 94 138 167 98 141 168 100 142 168 101 146 167 103 149 170 103 151 171 103 153 172 105 154 174 105 154 175 106 155 174 107 157 172 109 158 172 109 158 172 111 160 173 113 163 174 114 166 176 114 170 178 112 173 177 112 175 177 113 176 178 114 178 178 113 179 177 114 180 177 114 181 176 114 182 176 113 184 176 113 185 175 114 186 176 115 187 177 115 186 177 116 185 178 119 184 178 121 185 179 121 185 180 122 183 180 121 181 180 121 179 179 122 176 179 121 175 178 120 175 176 118 173 176 116 172 176 116 170 176 116 168 177 115 167 178 114 167 177 113 166 166 91 135 167 92 137 166 93 138 167 95 141 169 98 143 169 101 145 169 103 148 169 104 151 170 104 152 172 105 154 173 106 155 175 107 156 175 107 157 173 108 158 173 109 159 172 110 159 173 112 161 175 114 164 176 115 168 178 114 171 179 113 174 177 112 175 178 112 177 179 112 180 179 113 181 178 114 182 178 112 183 177 112 184 177 113 185 176 113 186 176 114 187 176 115 186 177 115 185 178 115 185 177 119 185 177 120 185 177 121 185 178 121 183 179 120 182 179 120 179 179 121 175 178 120 174 177 118 173 176 115 172 176 114 171 176 114 169 176 114 167 176 113 168 176 112 168 176 111 167 167 92 138 167 93 139 168 94 141 169 95 143 171 98 145 171 101 147 171 103 150 171 104 152 171 106 153 174 107 155 174 107 156 174 108 158 174 109 159 174 109 160 174 110 160 174 111 160 175 113 161 176 114 165 178 114 168 178 113 172 179 113 175 179 111 177 178 110 178 179 111 180 180 111 182 180 113 184 178 113 186 177 112 187 178 114 187 177 114 187 176 114 187 176 114 186 176 115 186 177 116 187 178 118 186 177 118 187 177 118 186 177 119 185 177 117 182 177 118 179 177 118 176 178 117 174 178 116 173 177 114 172 177 114 170 176 113 169 176 113 168 175 111 169 175 111 169 175 110 168 167 93 141 168 94 143 169 95 144 171 97 146 172 98 148 171 101 151 171 102 153 170 104 154 171 106 156 173 108 157 173 109 158 172 109 159 172 110 160 172 110 161 174 111 161 175 112 161 176 114 163 177 115 164 177 114 168 178 114 171 178 113 174 179 112 176 178 111 178 179 110 181 180 111 183 180 113 185 179 113 187 179 113 188 178 114 188 176 114 186 176 113 185 176 114 185 176 115 187 176 116 187 177 116 187 177 117 188 178 117 188 177 118 186 176 116 184 176 115 182 177 115 179 179 115 175 179 114 174 178 113 174 178 113 172 177 113 171 174 111 170 174 111 170 173 110 169 173 109 169 166 95 144 167 94 146 169 95 148 171 97 149 172 99 151 171 101 153 170 104 155 170 105 156 171 106 157 172 108 159 173 109 159 172 110 160 172 110 161 172 110 162 173 111 163 175 114 163 176 115 164 176 115 166 176 116 169 177 115 170 178 115 172 179 113 175 179 112 177 179 111 180 180 112 183 181 112 185 181 113 186 179 113 187 178 114 187 176 113 185 175 113 185 175 114 186 176 115 187 176 114 188 177 114 188 177 115 189 177 116 189 177 117 188 176 115 185 175 114 184 177 113 180 179 113 177 179 113 176 179 113 176 178 112 175 176 111 173 175 111 173 174 110 173 173 110 172 172 108 171 166 97 147 167 97 148 169 97 150 171 98 152 171 99 154 171 101 155 170 104 157 171 105 158 171 106 159 171 107 161 172 108 162 172 109 162 172 109 162 172 110 162 174 112 163 175 113 164 176 115 165 176 115 168 177 115 169 179 115 171 179 115 173 180 115 175 181 113 178 180 112 180 181 112 183 181 112 185 181 112 186 180 113 186 178 112 186 176 111 185 176 111 185 176 112 187 176 112 189 176 113 190 177 113 190 177 113 190 177 115 190 175 115 189 175 115 187 175 113 184 176 112 182 178 112 181 178 112 180 178 111 179 178 111 178 178 110 176 175 110 176 173 109 176 172 107 174 171 105 174 166 101 148 167 101 150 168 101 152 169 101 154 169 101 156 170 102 158 171 104 159 171 105 160 171 106 161 171 106 163 171 108 163 171 109 163 171 109 163 172 109 164 173 110 164 174 112 164 175 114 165 177 114 168 179 114 170 179 114 172 179 115 173 182 115 176 183 114 178 183 114 180 183 112 183 183 112 184 182 111 184 181 112 185 179 111 185 178 109 186 178 109 186 178 109 188 178 110 190 177 112 191 176 111 191 176 112 191 175 112 190 174 113 189 174 112 188 174 111 186 174 111 183 175 111 182 177 111 181 177 110 180 177 109 180 176 110 180 175 108 180 173 107 179 172 106 178 171 103 177 167 102 149 166 103 152 167 103 154 168 103 156 169 103 157 171 104 160 172 104 161 171 106 162 171 107 163 171 107 164 171 109 164 171 110 164 172 110 164 171 109 165 172 109 165 172 110 167 174 111 168 176 112 171 178 112 172 180 112 173 181 114 174 183 115 174 184 115 177 184 114 179 185 113 182 184 112 182 182 111 183 182 109 184 180 109 186 178 108 187 179 107 187 179 106 188 178 108 190 178 110 191 176 110 191 176 111 190 175 111 190 174 110 188 173 110 187 173 109 186 172 110 185 173 110 183 175 110 182 176 109 181 175 109 182 174 108 183 174 107 182 173 105 181 171 104 180 171 101 178 168 104 152 168 104 154 169 104 156 168 105 157 170 105 159 171 105 162 171 106 162 171 107 163 171 108 164 171 108 166 171 109 165 171 111 164 171 111 163 171 109 166 171 110 167 172 110 169 173 110 171 174 111 173 177 112 173 180 112 174 182 112 174 183 115 175 184 115 177 184 114 179 184 113 181 182 112 181 181 109 183 181 107 184 180 107 186 179 106 187 179 104 188 178 104 189 179 106 190 177 107 190 176 107 189 176 107 189 176 107 189 174 107 188 172 108 187 171 108 187 170 107 185 171 107 183 172 107 183 174 108 183 173 107 183 173 106 183 173 106 183 172 105 182 172 103 182 171 100 180 