P3
50 50
255
145 121 130 143 123 129 144 124 128 144 125 127 144 127 125 143 130 126 143 130 126 143 130 127 144 128 127 147 127 127 150 128 128 151 128 131 150 127 133 151 126 135 151 125 138 150 124 141 150 123 142 150 121 144 151 121 145 152 120 145 154 121 147 156 122 150 156 124 151 155 125 154 155 126 157 155 126 157 154 126 158 154 127 158 155 127 160 157 126 160 156 126 160 156 125 160 155 125 160 154 126 160 154 126 159 153 126 159 153 128 158 152 131 157 151 131 157 150 132 157 149 133 158 149 133 156 148 133 154 146 133 152 146 134 151 146 136 149 145 137 148 144 138 147 142 138 149 140 137 149 144 118 132 143 119 130 143 121 127 143 123 126 144 124 125 144 126 125 141 127 127 142 127 128 144 127 128 147 127 128 148 126 130 148 127 132 149 127 135 149 125 136 148 124 140 148 123 142 149 121 142 149 120 144 150 118 146 151 118 146 152 118 148 154 119 151 154 121 152 154 122 155 154 122 157 154 122 157 154 123 158 154 125 158 153 125 159 154 126 159 154 125 159 154 125 159 153 124 159 153 124 160 153 125 160 152 125 160 152 126 159 151 129 158 151 130 156 151 131 157 150 132 157 149 133 155 148 133 154 146 134 152 145 133 150 144 134 148 143 135 147 142 135 146 141 136 147 140 136 147 143 114 131 144 117 129 143 119 128 143 121 125 144 122 124 144 123 125 142 124 127 141 125 129 142 126 129 144 125 130 146 125 132 147 125 132 148 125 134 148 124 137 147 123 141 146 123 143 147 120 143 148 119 144 149 118 146 150 115 147 150 116 149 152 117 152 152 119 154 153 119 155 153 119 157 153 118 158 153 120 159 154 121 158 153 123 158 152 124 158 153 124 159 152 123 160 151 123 160 151 124 160 151 124 160 151 124 159 150 125 159 150 127 158 150 128 156 150 130 156 150 131 156 149 131 155 148 133 153 146 133 151 144 132 149 143 132 148 142 133 146 139 133 145 139 133 145 139 134 145 143 111 130 143 115 129 143 117 127 143 119 125 144 119 124 143 120 126 141 121 127 140 123 129 142 123 130 143 124 131 143 124 133 145 124 133 147 123 135 147 122 138 146 121 141 145 120 144 145 118 144 146 117 144 148 116 145 148 114 148 149 113 150 150 115 153 151 116 155 151 116 156 152 115 157 152 115 159 153 118 159 153 120 159 153 121 158 152 122 158 152 122 159 150 122 159 149 122 160 150 122 161 150 123 159 150 123 159 148 124 158 148 126 157 148 127 157 148 129 156 148 130 156 149 131 154 147 131 153 145 132 151 143 131 150 142 130 148 140 131 147 139 132 145 139 131 143 138 132 144 144 109 129 144 112 128 144 114 126 144 115 125 144 117 125 142 118 127 140 119 128 139 120 129 141 122 130 142 121 131 142 122 131 144 122 133 146 122 135 146 121 138 145 119 142 144 117 144 144 116 145 146 114 145 146 113 146 146 112 148 146 111 151 147 112 153 148 114 155 149 115 156 151 114 157 151 114 159 151 116 159 152 118 159 151 120 158 150 121 158 150 121 159 148 120 159 147 121 160 148 120 161 149 121 161 149 120 160 148 121 159 147 123 158 146 125 157 146 128 156 148 128 155 148 129 154 146 130 153 144 131 152 142 130 149 140 128 148 140 129 146 137 130 144 136 130 143 136 130 144 142 106 130 143 109 130 143 112 127 143 113 126 141 115 126 139 116 128 140 117 129 139 118 129 140 119 129 141 120 131 141 120 131 143 120 133 144 120 134 144 119 139 142 117 142 143 116 144 144 114 144 145 112 145 145 110 147 144 109 149 144 110 150 145 110 153 146 111 155 146 112 156 149 112 157 149 111 159 149 113 160 150 116 159 149 117 159 149 119 158 148 119 159 147 119 160 146 119 161 147 118 161 148 118 161 148 118 160 148 119 159 146 120 158 145 123 157 145 126 156 146 127 155 146 128 155 144 128 154 142 128 151 140 127 149 138 126 148 138 128 148 136 129 146 134 129 144 134 128 143 140 105 132 140 107 131 141 109 130 140 111 130 138 113 129 138 113 129 138 115 130 138 116 130 139 118 130 139 118 132 140 118 132 142 117 133 142 117 135 141 116 138 141 114 141 142 113 143 143 111 144 143 109 145 143 108 147 142 108 148 142 108 150 142 108 151 143 109 154 144 109 156 147 109 157 147 110 158 149 112 159 150 115 159 150 116 159 149 117 158 148 118 159 146 118 161 145 117 161 144 116 160 144 116 160 146 115 160 146 116 159 145 118 158 144 122 156 143 124 156 143 126 155 143 127 155 141 126 153 139 126 150 138 125 150 135 125 149 135 127 148 134 128 146 133 129 144 133 129 142 139 103 132 138 105 133 138 106 132 137 108 131 137 110 131 136 111 130 137 111 130 137 114 129 137 116 130 138 117 132 139 117 134 140 117 134 141 116 136 141 113 139 141 112 141 142 110 143 143 108 145 143 107 145 143 106 146 141 107 148 141 106 149 141 106 151 142 107 153 143 108 156 146 108 156 147 110 156 148 111 158 149 113 158 150 115 158 148 117 158 147 117 159 145 117 160 144 115 160 143 115 160 142 115 160 144 114 160 144 115 158 143 117 157 143 120 156 142 122 156 141 122 156 140 123 155 139 123 153 137 123 151 135 125 150 134 125 149 133 126 149 133 126 146 133 128 143 133 128 141 136 104 133 136 104 133 136 105 133 135 107 132 135 108 131 134 110 131 134 112 129 134 113 130 135 114 130 136 115 132 137 116 135 139 116 135 140 114 137 140 112 141 142 109 142 143 108 144 144 106 146 143 105 146 141 105 147 140 105 148 141 104 149 141 104 150 142 106 152 143 107 154 145 107 154 147 109 154 148 110 155 148 111 157 148 114 158 147 116 158 146 117 159 144 116 160 142 114 160 142 113 160 141 114 159 142 114 159 141 114 157 141 115 156 142 117 156 142 120 155 141 121 155 139 121 153 136 122 152 136 123 150 134 124 150 133 125 149 132 125 148 132 126 146 133 127 143 133 126 142 134 103 133 134 103 134 133 104 134 134 104 133 133 105 132 132 108 132 132 110 131 133 111 131 134 112 132 135 114 134 136 115 136 137 114 137 139 112 139 140 110 141 142 107 143 144 106 145 144 104 146 143 104 148 141 103 148 139 102 149 141 103 150 141 103 150 141 105 150 143 106 152 145 107 152 147 108 153 148 110 154 148 111 156 148 112 157 147 115 157 145 116 157 144 115 157 142 113 158 141 112 158 140 113 158 141 114 156 140 114 156 140 114 155 140 115 156 141 117 154 141 118 153 139 120 152 136 121 152 135 122 150 135 123 149 133 124 149 133 124 148 133 125 146 132 126 144 132 125 143 131 103 134 130 104 135 130 105 134 131 105 133 132 105 133 131 107 133 131 109 132 131 110 133 132 113 134 134 113 136 135 113 138 137 112 139 138 111 140 139 108 142 142 106 145 143 104 146 144 103 147 144 102 148 142 102 147 140 102 149 141 102 150 141 103 150 142 104 150 144 105 150 146 105 151 146 107 152 146 108 153 147 110 155 146 112 156 146 114 156 144 115 156 143 114 156 141 113 157 140 113 157 139 113 157 141 114 155 141 113 154 141 114 155 140 114 154 141 115 153 141 116 152 138 117 151 135 119 150 134 121 148 134 122 148 133 124 148 134 124 148 133 124 146 132 124 144 131 124 142 128 102 135 127 103 135 127 104 136 129 104 134 130 105 133 129 106 134 130 107 134 129 109 134 129 111 136 131 111 139 134 111 140 135 109 141 136 109 141 137 106 143 139 104 144 141 102 146 143 100 148 144 99 148 143 100 149 141 100 149 140 100 151 140 102 151 141 102 150 142 104 150 143 106 152 143 106 152 143 108 153 144 110 154 144 112 154 144 114 155 144 114 154 142 113 155 140 112 155 139 113 156 138 113 156 140 113 154 141 112 153 141 112 153 141 112 153 140 113 152 139 115 151 138 116 150 135 117 148 133 119 148 134 120 148 134 122 148 133 122 147 132 122 146 130 123 144 130 123 143 125 99 135 125 101 136 125 103 136 126 104 135 127 104 134 127 105 135 127 105 135 127 107 135 128 109 138 129 109 140 131 109 141 132 109 143 134 107 143 135 103 144 137 101 146 139 99 147 141 98 150 143 97 150 142 98 149 140 99 149 139 99 151 139 100 151 139 101 151 139 103 151 140 105 152 141 106 152 141 107 153 141 110 154 141 112 154 141 113 155 142 113 155 142 112 155 140 112 155 139 112 155 139 112 154 139 112 154 141 111 153 141 111 152 140 111 153 139 113 152 138 114 151 138 115 151 136 116 149 134 118 149 135 120 149 134 120 149 132 119 148 131 119 146 130 121 145 130 122 144 122 97 135 121 100 135 123 103 135 124 103 135 123 103 136 124 103 136 124 105 136 124 106 137 126 107 138 127 107 141 129 108 142 130 106 143 132 104 144 134 100 145 136 98 146 137 98 148 139 97 149 140 96 148 140 96 149 139 98 150 137 98 151 137 99 152 138 101 152 137 102 151 137 104 152 138 105 152 138 107 153 137 109 154 138 111 155 138 111 156 139 111 156 140 112 155 139 111 154 139 111 154 140 112 152 140 112 152 141 112 152 141 111 153 139 111 152 139 112 152 138 113 152 137 113 151 136 114 150 135 116 149 134 118 150 134 117 150 132 117 148 131 117 147 130 119 145 130 121 144 118 96 134 118 100 134 120 101 134 121 101 135 121 102 136 121 103 136 121 104 137 122 105 138 124 105 139 126 105 140 127 104 141 129 103 143 131 101 145 133 98 146 134 97 147 135 96 148 137 95 148 138 94 148 138 95 150 138 97 151 136 96 152 136 98 153 136 99 152 135 100 151 135 103 152 135 105 153 134 107 154 133 108 155 134 109 156 134 110 157 135 110 155 137 110 155 138 110 153 138 111 153 138 110 151 138 110 151 140 110 151 140 110 152 139 111 152 139 110 151 138 111 152 136 112 151 136 112 150 135 114 149 133 116 149 133 115 149 131 116 147 130 117 146 129 118 145 130 118 144 117 95 133 116 98 133 117 99 133 118 101 135 119 102 137 119 103 137 119 104 139 121 105 139 123 104 139 125 103 140 126 101 142 128 100 143 130 98 144 131 96 146 132 96 147 134 96 147 136 95 147 137 94 149 136 94 150 135 95 151 135 95 152 135 95 153 133 96 153 132 98 152 133 101 153 132 104 154 132 105 155 131 106 156 132 107 157 133 109 157 132 109 155 134 109 155 135 108 153 135 108 152 135 108 151 136 108 150 137 109 151 138 109 152 138 109 152 137 108 152 137 109 151 136 110 151 134 110 150 133 111 149 132 113 149 132 114 148 131 114 148 129 115 147 129 116 146 129 117 145 115 94 131 115 96 132 115 99 134 116 100 135 117 100 137 117 101 137 119 102 139 122 102 140 124 101 140 125 100 140 125 99 141 127 98 143 128 97 144 129 96 145 130 96 145 132 95 147 134 94 148 136 93 148 134 93 149 133 94 150 132 94 151 132 94 152 131 94 153 130 96 153 131 100 154 130 101 155 129 104 155 129 104 156 130 106 157 131 108 157 131 108 156 133 108 156 134 108 154 134 106 152 134 107 151 134 107 149 135 107 150 136 107 152 136 107 152 135 108 151 136 108 151 135 109 150 133 108 150 132 108 150 132 110 149 131 111 148 131 112 148 129 113 147 129 113 147 130 115 147 113 92 129 113 96 131 114 97 133 115 97 134 115 98 136 116 98 138 119 100 139 121 101 140 123 100 140 123 98 140 124 97 141 125 97 143 127 96 143 128 95 143 129 95 144 131 95 146 132 94 147 133 93 147 133 93 147 131 93 149 131 93 151 130 93 152 128 94 151 127 96 152 126 98 153 125 100 154 126 102 155 126 103 156 128 104 155 129 106 156 130 107 157 131 107 157 132 106 155 132 106 153 131 105 151 133 105 150 134 106 150 135 106 151 135 106 151 134 107 151 134 107 151 134 106 149 133 106 150 133 106 151 132 107 151 132 109 150 131 110 150 129 111 149 128 112 147 129 114 146 112 91 128 112 94 129 113 94 132 112 94 135 113 95 137 116 97 139 119 99 141 120 98 141 122 97 140 123 96 141 124 95 142 124 95 142 127 95 142 128 95 142 129 95 142 131 96 143 132 95 145 133 94 146 132 94 146 131 93 148 130 93 150 129 94 151 126 94 151 125 95 151 123 96 152 122 98 154 122 100 155 123 102 154 125 103 153 127 104 153 128 105 156 129 107 157 129 106 156 130 106 154 129 105 152 131 104 150 132 104 150 133 105 151 133 105 151 133 106 152 133 106 151 134 105 150 133 106 152 133 106 153 133 107 152 132 108 151 132 108 150 130 109 149 128 110 146 128 113 144 112 88 128 112 91 129 111 92 130 112 92 134 114 93 137 116 95 139 117 96 140 118 96 140 120 95 141 122 94 141 124 95 141 124 95 140 126 95 141 128 95 140 130 95 139 131 95 140 132 95 141 132 94 143 131 93 145 130 92 145 129 94 147 127 94 148 125 94 148 124 94 149 121 96 149 120 97 152 120 99 152 122 101 151 123 103 151 124 104 152 124 104 153 126 105 155 126 105 155 127 106 154 128 106 153 130 105 152 130 103 151 131 104 151 132 103 151 133 104 151 133 105 152 134 106 151 133 105 152 133 104 151 133 105 151 132 106 150 132 108 149 130 108 147 128 109 145 126 111 142 112 85 128 111 87 129 112 89 131 113 90 133 115 92 137 116 93 139 116 95 139 117 96 139 119 95 140 121 94 140 122 95 140 123 95 139 125 95 138 128 95 137 129 94 136 131 94 136 132 94 138 130 93 139 130 93 140 129 92 142 128 93 142 126 93 145 123 94 145 122 95 146 120 96 148 118 97 148 119 98 149 121 100 149 122 101 149 122 101 151 122 102 152 122 102 154 124 104 155 125 105 154 127 105 153 128 104 152 128 103 152 129 103 151 131 103 151 131 103 152 132 105 151 133 105 150 133 104 150 133 103 150 133 104 149 133 104 147 133 106 147 131 107 145 128 109 143 126 109 141 112 82 129 112 84 130 113 87 132 114 90 133 115 92 135 115 93 137 116 95 138 117 96 138 117 95 138 120 93 139 122 93 139 122 94 137 124 94 136 127 94 136 128 93 135 129 93 134 130 93 134 129 93 135 129 93 137 128 93 137 126 93 138 122 94 140 121 95 142 121 97 143 119 98 144 117 97 145 118 97 145 119 98 145 120 99 148 121 99 149 120 100 150 120 101 152 122 103 154 123 104 153 124 103 152 126 102 152 127 102 151 128 102 150 129 103 151 130 103 151 131 104 151 132 105 150 132 104 149 133 103 149 133 103 147 132 104 146 132 105 145 131 107 144 128 107 143 126 107 141 113 81 131 113 83 132 113 87 133 114 89 133 115 91 134 114 93 136 115 95 136 116 95 137 117 94 136 119 93 137 121 93 137 122 94 136 123 94 135 125 93 134 126 93 133 128 93 132 128 93 132 128 94 132 128 95 133 126 94 134 124 94 134 121 94 136 120 96 138 119 98 139 118 98 140 116 98 143 116 98 143 118 98 143 119 98 144 120 99 146 119 99 147 119 101 149 120 101 151 121 101 151 122 101 150 124 101 150 127 101 149 128 101 149 129 101 150 130 102 150 130 104 149 130 105 150 131 104 149 132 104 147 132 104 145 132 106 144 132 107 144 130 108 144 127 108 144 125 106 143 113 80 132 113 83 133 114 85 134 114 87 134 114 90 134 115 92 135 116 94 134 117 93 135 118 93 135 120 92 136 122 92 134 123 92 134 123 90 134 124 91 133 125 92 131 126 92 130 126 93 130 126 94 130 126 94 130 125 95 130 123 94 131 121 95 133 119 97 135 118 98 137 117 99 138 115 98 140 115 98 141 116 98 140 117 98 141 117 98 143 118 100 144 118 100 145 118 100 147 119 100 148 121 99 148 123 99 148 125 99 148 127 99 148 128 99 149 129 101 148 130 104 148 131 103 149 132 104 148 131 103 147 131 104 144 131 105 143 130 107 143 129 108 144 127 107 143 124 106 142 113 80 132 113 81 133 114 84 134 115 87 134 116 89 135 116 91 133 117 91 132 118 92 132 120 91 133 121 91 134 122 91 132 123 89 131 123 89 131 123 90 131 123 92 129 124 92 128 124 94 127 125 94 128 124 95 128 122 95 129 121 95 129 120 95 130 118 97 133 117 99 135 116 98 136 116 98 136 115 97 137 115 96 137 117 96 137 117 97 139 118 99 140 117 100 142 118 101 144 118 99 146 119 99 146 122 100 146 124 99 147 127 99 147 128 99 147 127 101 148 128 102 149 130 103 149 130 103 149 130 104 146 129 104 144 130 106 143 130 107 142 129 107 142 126 105 141 125 104 140 115 80 131 114 80 132 117 83 132 117 86 133 117 88 133 118 90 131 120 90 131 121 91 130 122 90 130 123 89 131 123 89 131 123 88 129 123 88 129 123 90 128 122 91 126 122 92 127 122 94 126 122 93 127 122 95 127 121 95 127 120 95 128 120 96 129 118 98 132 117 98 133 116 98 134 116 97 134 116 97 134 116 95 134 116 95 135 117 96 137 117 97 137 117 99 138 118 100 140 117 98 142 118 98 145 120 100 146 123 100 147 125 100 147 126 100 147 125 100 149 126 101 150 127 102 149 129 103 148 128 104 146 128 105 143 130 107 142 129 107 141 128 105 141 128 105 141 127 104 140 117 78 129 117 79 131 119 82 131 120 84 131 120 87 131 120 88 130 120 89 130 121 90 130 123 89 129 124 88 129 123 87 127 122 87 125 122 87 126 122 90 126 121 91 125 121 92 125 121 93 125 121 93 125 121 94 124 121 94 126 120 95 127 120 97 127 119 98 129 117 98 131 117 99 132 116 97 132 116 96 132 117 95 133 116 95 134 116 96 135 115 97 136 115 99 137 116 99 139 117 99 139 118 100 141 118 100 144 121 100 146 122 101 147 124 101 148 124 99 148 125 100 148 126 101 147 127 103 146 126 104 144 127 105 142 128 106 141 128 105 141 128 104 140 129 105 139 128 105 139 119 76 128 121 78 130 121 80 129 122 83 130 122 85 131 122 86 130 121 87 129 122 87 128 124 87 128 124 86 126 123 86 124 122 86 123 121 87 123 121 88 123 121 91 124 121 92 124 121 92 123 121 93 123 121 93 124 121 94 125 120 95 126 120 97 126 119 97 127 117 98 128 116 98 130 116 97 130 116 96 130 117 95 132 116 94 133 115 95 134 114 96 136 114 97 137 114 99 138 115 100 139 116 101 140 118 101 141 120 101 144 121 102 146 122 101 148 122 100 147 124 100 147 125 101 145 126 101 143 125 102 142 125 104 141 127 104 140 127 104 140 128 105 139 127 105 140 127 105 139 122 77 127 122 77 128 122 80 128 123 82 129 121 84 130 121 85 131 121 86 129 123 85 127 124 85 125 123 86 124 122 86 122 121 86 121 121 86 122 120 88 122 120 90 122 121 91 124 120 92 123 121 92 123 121 92 124 121 93 125 121 95 126 120 97 127 118 97 127 117 96 127 116 96 128 117 97 129 117 96 129 116 95 129 114 93 131 114 94 134 114 96 136 113 97 138 113 98 138 114 100 138 115 100 139 116 101 140 118 101 142 119 102 144 120 102 146 122 101 147 122 100 146 123 100 144 125 99 142 125 99 140 125 101 139 125 101 140 126 102 140 127 103 139 126 104 140 125 104 140 122 78 126 122 78 128 123 79 128 122 80 128 121 82 129 120 84 129 122 84 128 124 84 126 124 83 124 122 84 123 121 84 121 121 85 122 121 86 121 121 87 121 121 89 122 120 91 123 120 92 122 120 92 121 121 91 122 121 93 123 121 95 125 120 97 126 118 97 126 117 96 125 117 96 125 118 96 126 117 96 127 115 95 129 114 93 130 114 95 133 114 96 135 114 97 137 112 99 138 113 101 137 114 101 138 113 101 139 114 101 141 116 101 143 118 101 143 119 100 145 121 99 143 123 98 141 123 98 140 123 98 139 125 98 138 125 99 139 125 100 141 125 101 140 124 102 141 122 103 141 123 79 125 122 79 127 121 80 128 121 80 128 120 81 129 120 82 128 121 83 126 123 83 126 123 83 123 123 83 122 122 83 121 121 83 121 121 84 121 120 85 121 121 87 120 120 90 120 119 91 119 118 92 120 119 92 121 121 93 122 120 95 124 119 97 124 118 97 125 118 95 125 118 95 125 117 95 125 116 94 126 114 94 128 114 95 130 114 95 131 114 97 133 114 98 135 112 99 136 113 101 136 113 101 137 113 101 137 114 100 139 116 100 140 117 101 141 118 100 142 120 99 141 122 98 140 122 97 139 123 97 138 124 98 138 125 98 138 125 99 139 124 100 140 122 101 140 121 102 140 123 80 125 121 80 127 120 79 127 120 80 129 120 81 129 119 82 128 120 83 126 122 83 124 122 82 122 122 82 122 121 82 121 120 83 120 119 83 120 119 84 119 119 86 118 117 88 118 116 89 117 116 91 118 117 92 120 119 93 121 118 95 122 119 97 123 118 98 125 118 97 125 117 96 124 117 95 123 117 94 124 116 94 126 115 95 128 115 96 130 114 98 132 114 99 134 113 101 135 113 102 135 113 102 136 114 101 137 116 101 137 117 100 138 118 100 140 119 100 140 120 99 140 122 97 138 123 97 137 122 97 137 124 98 136 125 98 136 124 99 137 123 99 137 121 100 138 120 102 139 125 81 124 122 81 127 121 80 127 120 80 127 119 80 127 120 81 125 120 82 124 121 81 122 121 81 121 122 81 121 119 82 120 117 83 118 116 83 118 116 85 117 115 85 116 115 86 115 115 89 116 116 91 117 118 93 119 119 94 120 118 96 122 118 96 122 118 97 123 117 97 122 116 96 122 115 96 122 116 95 123 116 95 125 116 96 127 116 98 129 115 99 131 114 100 133 114 102 133 113 103 134 115 103 135 116 103 135 118 102 136 118 102 137 119 102 139 119 101 139 120 99 139 122 98 136 123 98 135 123 98 135 124 99 135 125 99 135 123 98 135 121 99 135 120 100 136 119 103 138 127 80 122 123 80 125 121 78 126 120 79 125 120 79 124 120 80 123 120 81 121 120 81 120 120 81 119 120 81 119 118 82 119 116 82 118 114 83 115 114 84 114 113 85 115 113 86 115 114 88 115 115 91 117 118 92 119 119 94 120 119 95 121 118 96 120 117 98 122 116 97 121 115 96 121 116 97 121 116 96 122 116 96 124 116 97 126 115 99 128 115 100 130 114 102 132 114 103 133 114 104 133 116 105 133 117 104 134 118 105 135 118 104 136 119 103 138 120 102 138 120 101 137 122 100 136 123 100 134 123 100 133 124 100 134 124 100 134 123 98 133 122 99 134 121 101 135 120 103 135 126 79 120 124 78 122 122 76 122 121 78 121 121 78 120 122 79 119 121 80 118 121 80 118 120 81 118 120 80 118 119 81 117 117 83 115 114 83 113 113 83 112 113 85 113 112 86 115 113 87 116 115 88 117 117 91 118 119 94 118 119 95 119 119 96 120 117 97 121 117 98 120 116 98 120 115 97 120 115 97 121 115 97 123 115 98 125 114 99 127 114 100 129 113 102 130 113 103 131 115 104 131 116 104 131 117 106 133 118 106 133 120 106 133 120 105 135 120 104 135 120 103 136 122 103 134 123 103 132 123 103 132 123 102 132 122 101 132 122 100 131 122 102 131 122 102 132 122 104 132 128 77 119 125 77 120 123 77 118 122 78 117 121 78 117 122 78 116 122 79 115 122 79 116 123 78 116 121 79 115 120 80 113 117 81 111 113 82 110 113 83 111 113 85 112 113 86 114 114 86 116 115 87 116 117 89 118 118 92 118 119 94 118 118 95 119 117 97 119 117 98 118 116 98 118 116 98 119 115 97 119 116 98 121 115 99 124 114 99 125 114 100 126 113 101 128 112 103 129 114 104 129 116 104 130 117 105 131 118 106 131 120 107 131 121 107 132 122 106 132 121 105 133 122 106 132 123 106 130 123 105 130 122 104 131 121 103 129 122 103 128 123 104 128 123 105 128 124 105 130 128 76 115 126 76 115 124 77 114 123 78 114 123 78 114 123 78 113 123 77 113 123 77 111 123 77 112 122 78 111 120 78 110 117 80 109 114 81 108 113 82 109 112 84 110 113 85 112 114 85 114 115 88 116 116 89 116 117 91 116 117 94 116 117 96 116 117 98 117 117 98 118 118 99 117 116 98 116 115 98 117 115 99 117 115 99 120 114 101 122 113 102 124 114 102 124 114 103 125 115 104 126 116 104 127 116 104 128 120 106 128 120 106 129 122 107 130 123 108 129 123 108 130 122 108 129 123 107 128 123 106 129 122 105 128 122 105 126 123 105 125 123 105 126 124 106 126 124 107 127 128 75 112 126 76 112 125 77 112 123 78 112 123 78 112 123 78 111 123 77 110 123 76 109 122 75 108 122 76 107 122 78 108 118 79 108 117 80 107 115 81 109 114 83 110 114 84 110 114 86 112 114 88 114 115 90 115 115 92 114 116 93 114 117 96 114 117 97 114 118 98 115 118 98 114 116 100 114 114 100 113 114 100 114 114 101 116 113 102 118 113 103 120 114 104 120 114 104 122 115 104 123 117 104 124 118 104 124 120 105 125 121 105 126 122 107 126 123 107 126 123 108 126 123 108 124 123 108 124 123 107 124 121 105 125 122 105 123 124 106 122 125 107 122 125 108 124 125 108 125 128 75 109 126 76 110 125 77 110 124 79 109 123 78 108 123 77 108 124 76 107 124 74 106 123 74 104 122 75 105 120 77 106 118 79 107 117 79 107 116 81 109 116 82 110 115 83 111 114 85 112 114 88 113 115 89 113 116 92 113 116 94 112 116 96 112 117 97 112 117 99 113 118 99 112 116 100 111 115 101 111 114 101 112 114 102 114 113 103 116 113 104 116 115 105 116 115 105 118 115 104 120 117 105 120 118 104 121 120 104 121 121 105 122 122 106 123 123 107 122 123 107 120 122 107 119 122 107 120 122 106 121 122 106 121 124 105 121 126 107 120 126 109 119 126 110 120 125 110 122 128 73 107 126 74 107 125 75 107 125 75 106 123 76 104 123 76 104 124 75 104 123 74 102 121 75 102 120 76 103 118 76 105 117 77 107 118 79 108 118 81 108 116 83 109 116 84 110 115 85 111 115 88 112 115 90 111 115 92 110 116 95 109 116 96 110 117 97 110 117 98 110 117 99 109 116 100 109 115 101 109 114 101 110 115 104 111 114 105 112 115 105 113 117 106 112 117 104 113 116 104 115 117 103 117 118 104 116 119 104 117 120 105 118 120 106 118 120 107 115 121 107 114 121 106 115 120 107 117 122 106 117 122 106 118 124 106 118 126 107 117 126 110 117 126 111 117 126 111 119 126 70 104 126 72 104 126 74 104 125 74 104 124 76 102 124 76 101 124 75 101 122 74 100 121 75 100 120 75 103 119 76 105 118 76 107 118 79 108 119 81 107 118 83 108 117 84 109 117 85 110 117 88 111 117 91 110 117 94 109 117 95 109 117 96 108 116 97 108 117 98 108 117 100 108 115 100 107 115 102 106 114 103 106 115 105 108 115 106 109 116 107 110 116 106 110 116 105 110 116 104 111 117 104 112 118 104 113 118 105 113 118 106 113 118 107 111 118 107 110 118 107 109 119 105 109 120 106 112 122 106 113 123 106 114 125 107 115 125 108 115 126 110 115 127 112 116 127 111 117 125 68 103 125 70 102 124 73 101 124 74 102 124 74 100 124 74 99 124 74 99 122 74 97 122 74 99 121 75 101 120 76 104 119 77 106 119 79 106 119 81 107 119 82 107 118 84 108 118 87 109 119 90 109 119 93 109 119 95 108 120 96 107 119 97 106 118 97 106 118 98 107 118 99 106 117 100 106 116 101 106 116 102 106 116 104 106 116 105 107 117 106 106 117 106 106 116 106 107 116 105 109 116 104 109 116 105 109 116 106 109 117 106 108 117 106 107 118 106 106 119 107 105 119 106 106 119 106 108 122 107 110 124 107 110 126 108 111 126 109 112 126 111 113 126 112 113 127 111 115 124 67 101 124 69 101 123 72 100 123 73 99 124 73 98 124 73 97 123 73 97 122 74 97 123 75 98 123 76 100 122 77 103 121 79 104 121 80 106 121 81 106 120 82 106 120 85 106 119 88 107 120 91 108 121 93 108 121 95 107 122 96 105 122 96 105 120 96 105 121 98 105 119 99 105 119 99 105 119 100 106 118 102 106 117 104 106 116 106 105 117 107 104 116 106 104 116 106 105 116 106 106 116 106 106 115 106 106 116 107 106 117 106 105 118 106 104 118 105 102 119 106 103 120 105 104 121 106 106 122 108 107 124 109 108 126 110 109 126 111 110 125 111 109 126 112 111 127 112 113 124 65 100 123 68 100 122 70 100 123 72 99 125 71 98 125 71 96 124 72 96 123 74 97 124 75 98 124 78 100 124 78 102 124 80 103 123 81 105 123 81 105 123 84 105 122 86 104 121 89 105 122 90 107 122 93 106 122 95 106 123 95 105 123 96 104 122 96 105 122 97 105 121 99 105 121 100 104 120 101 104 119 104 105 118 106 105 117 107 104 117 108 102 117 109 102 117 108 102 116 108 103 115 108 102 116 107 102 116 106 103 117 106 101 117 106 100 119 105 100 119 105 101 120 105 102 120 106 102 122 107 104 123 110 105 125 112 107 126 112 108 127 112 108 127 112 110 127 112 113 123 64 100 123 67 100 123 70 99 124 70 98 125 70 97 124 69 95 123 71 96 123 73 96 124 76 97 125 78 100 125 80 100 124 81 101 124 82 103 125 83 102 124 86 102 123 88 103 123 89 104 123 91 105 123 93 104 123 94 105 123 96 104 123 97 103 123 98 104 122 98 105 122 99 104 122 101 105 121 102 104 121 104 104 119 106 104 119 108 102 119 110 101 118 109 101 117 109 102 116 109 101 116 109 100 116 108 100 117 107 99 117 107 99 119 106 99 120 107 98 120 106 98 119 106 99 120 106 99 121 108 99 124 109 101 125 111 103 126 112 105 127 112 108 127 113 110 126 114 112 123 64 98 123 66 98 123 68 98 123 68 98 123 69 97 122 68 96 123 70 96 123 73 96 124 75 97 125 78 99 125 80 99 126 82 99 126 84 101 125 86 100 125 89 100 124 89 101 124 90 101 124 92 102 123 93 102 123 95 104 123 97 104 123 99 103 124 99 103 123 99 104 123 100 103 124 102 103 122 104 103 122 105 103 121 107 101 121 109 99 121 110 99 119 109 100 116 108 101 116 108 99 116 109 98 116 108 96 116 109 95 117 109 96 119 108 96 121 108 96 122 108 95 120 108 95 121 108 96 122 109 96 123 110 98 125 112 100 126 113 103 127 114 106 128 114 111 128 114 112 123 64 96 124 65 96 123 66 97 122 67 97 122 66 96 122 67 96 123 69 96 123 72 95 125 75 96 126 78 97 127 82 97 127 84 98 128 85 99 127 88 99 126 90 99 125 91 99 125 91 99 124 94 99 124 95 100 126 97 101 125 99 101 125 100 102 125 101 102 125 102 102 125 102 101 125 103 100 123 105 100 122 107 99 123 108 98 123 109 97 121 109 97 120 109 97 118 108 97 116 108 97 115 107 95 115 108 94 114 108 93 116 109 91 117 109 92 119 110 93 121 109 93 121 109 93 122 109 94 122 109 95 122 110 97 123 112 99 125 113 102 126 114 106 128 114 110 129 114 113 124 65 93 124 66 95 123 66 96 122 66 96 123 66 95 122 67 94 123 68 94 124 71 94 127 75 95 129 79 96 129 82 97 130 84 97 129 86 97 128 88 97 128 90 98 127 91 98 126 92 98 126 95 98 127 97 98 128 99 99 129 101 99 128 102 99 127 103 99 127 104 100 126 104 99 125 104 98 124 105 96 124 107 96 124 108 94 123 108 93 121 108 94 119 109 94 118 109 94 115 108 94 114 108 93 115 108 91 115 109 90 115 109 89 117 109 90 119 109 91 121 110 91 122 111 92 122 111 92 122 111 94 122 111 96 123 113 98 124 115 103 125 114 106 126 114 110 127 114 113 125 64 92 126 65 93 124 66 95 124 66 96 124 67 94 123 68 93 124 68 93 125 71 94 128 74 95 130 80 95 131 83 96 131 85 95 130 88 95 129 90 95 130 91 95 128 92 96 128 93 96 129 95 95 129 98 96 130 101 96 132 103 97 131 103 97 130 104 97 130 105 97 129 104 97 126 106 95 125 106 93 124 108 93 124 108 91 123 109 91 121 110 91 119 111 91 118 110 91 116 109 91 116 109 91 116 110 90 116 111 88 117 111 88 117 111 88 119 110 89 121 110 90 123 111 91 122 111 92 122 111 93 122 113 94 123 114 96 123 115 100 124 116 104 124 115 108 124 115 112 127 63 90 127 65 92 126 66 95 126 67 95 125 68 94 125 69 93 125 68 92 127 70 93 129 74 94 131 79 93 132 84 94 132 87 93 131 90 93 132 91 93 132 92 94 131 93 94 131 95 93 131 97 93 133 100 93 134 102 93 135 103 94 134 103 94 133 105 94 132 105 94 132 106 93 130 107 90 127 107 89 126 108 90 124 108 89 123 110 89 122 111 89 120 112 89 118 111 90 117 110 90 117 110 89 117 112 88 118 112 87 118 112 87 119 113 87 120 113 88 122 113 88 122 113 90 122 113 91 121 113 92 121 114 93 121 116 96 121 116 99 122 116 103 123 114 106 122 114 110 