P3
50 50
255
78 120 113 79 122 114 80 122 114 82 122 115 83 122 115 84 122 116 84 120 118 84 116 118 83 113 117 82 110 119 80 108 121 81 105 121 81 103 121 81 99 122 78 97 123 77 94 124 75 91 126 74 88 128 74 89 131 73 90 133 71 91 136 70 91 137 69 93 139 67 95 142 68 95 146 69 94 149 70 95 150 71 94 151 70 96 152 71 95 153 71 94 155 72 93 156 72 92 157 70 91 156 68 90 155 68 89 156 66 87 156 65 85 155 65 85 155 64 85 156 66 85 157 68 85 161 69 86 164 69 87 165 68 89 165 70 90 165 71 91 165 73 91 165 74 92 164 75 92 164 75 121 116 77 123 116 81 123 115 82 122 116 83 122 116 83 121 117 84 119 118 83 117 119 83 114 119 82 110 121 82 107 122 82 104 121 81 102 122 80 98 122 78 96 123 76 93 125 76 91 126 74 89 129 73 89 132 72 90 135 70 92 137 69 93 139 68 95 140 69 95 143 68 95 147 69 95 149 71 96 151 71 95 153 72 95 154 71 95 155 71 95 157 72 94 158 72 93 158 69 92 157 68 91 157 67 88 157 65 87 157 66 85 157 66 84 155 65 85 156 66 85 157 67 85 161 68 86 165 69 87 166 68 88 167 70 90 166 71 92 165 72 92 165 73 93 166 73 94 165 76 123 117 77 124 118 81 124 117 82 124 116 83 123 117 84 122 118 84 119 119 83 116 120 84 114 121 84 111 123 83 107 123 82 103 122 81 101 121 79 97 121 77 95 123 76 93 126 75 92 127 73 90 128 72 91 131 71 92 134 69 93 138 68 94 140 68 95 143 69 96 144 69 96 146 71 96 148 71 97 151 71 95 153 70 95 155 70 96 158 71 95 160 72 93 160 72 93 160 71 92 160 70 90 160 68 88 158 66 86 158 67 85 158 67 84 157 67 84 157 67 85 158 66 86 162 67 87 164 69 88 166 70 89 167 70 90 165 72 91 165 73 93 166 73 94 166 74 95 165 77 123 118 79 124 119 81 125 120 82 124 119 83 123 119 83 121 119 84 120 120 84 115 121 84 113 123 85 112 124 84 109 125 83 105 124 81 101 122 79 97 123 77 95 124 76 94 125 74 93 127 72 92 129 70 93 132 69 93 136 69 94 138 67 94 141 68 94 143 69 95 144 71 95 146 71 96 148 71 97 150 71 96 153 69 96 155 69 95 159 69 95 161 70 93 161 72 93 161 72 93 161 71 91 161 69 88 160 68 86 159 68 84 159 68 84 159 67 84 159 66 85 160 65 87 162 66 87 164 68 88 166 69 90 166 71 91 167 72 92 167 73 92 168 73 93 167 74 94 165 79 125 119 80 125 119 81 126 120 80 124 120 83 122 120 83 121 120 84 118 121 85 115 123 86 113 124 86 112 125 85 109 127 83 106 126 80 102 125 79 98 124 76 95 125 74 94 126 72 93 128 71 92 130 70 92 133 69 92 137 67 92 139 67 92 141 68 93 143 69 93 144 70 93 145 71 94 146 71 97 149 71 96 151 70 96 155 69 94 159 70 94 162 70 92 163 73 92 163 73 92 162 71 90 162 70 88 161 69 86 160 69 84 160 68 83 159 67 84 161 66 85 161 65 86 162 65 87 164 67 88 165 69 89 166 70 90 167 72 91 168 73 91 168 73 93 167 73 94 165 78 127 119 79 126 119 79 127 121 81 125 122 81 124 122 83 121 123 84 118 123 85 114 124 86 111 125 86 111 126 85 110 127 83 107 127 81 103 126 78 100 125 76 98 126 74 96 127 72 93 129 71 92 131 69 92 134 68 90 137 67 90 140 68 91 142 69 91 142 68 91 143 69 92 145 69 94 146 69 96 148 69 96 151 69 95 154 70 94 159 71 92 162 71 91 164 72 91 164 72 91 163 71 90 162 71 89 162 69 86 163 68 84 162 68 83 161 67 84 162 67 85 162 65 86 162 65 87 165 66 88 166 68 90 167 69 91 167 70 91 169 72 91 169 73 93 169 73 94 167 79 128 119 79 128 120 79 127 122 80 125 123 81 124 124 83 121 125 84 118 126 85 114 126 85 111 125 84 110 127 83 109 128 82 107 126 80 104 127 78 101 127 77 99 128 74 97 128 72 94 129 72 91 132 70 90 134 69 89 137 68 90 139 69 89 142 69 89 142 68 90 142 68 91 144 69 92 146 68 93 148 69 94 151 70 94 154 71 93 158 70 92 160 71 91 163 72 91 163 72 91 164 72 90 164 71 88 164 70 86 165 68 86 165 68 86 164 68 86 163 68 86 164 67 87 163 67 87 165 66 90 166 67 91 166 68 92 167 70 92 168 72 92 169 72 93 169 72 94 168 79 130 118 79 128 120 80 127 122 81 126 124 83 125 125 83 122 126 84 119 126 84 115 126 85 111 125 84 109 127 82 109 128 81 107 128 78 104 128 77 101 128 76 100 127 73 98 129 71 94 129 71 91 131 70 88 134 69 89 136 68 89 138 68 89 140 67 90 141 67 90 141 68 90 143 68 91 146 68 92 148 70 93 151 70 93 153 70 92 157 71 91 160 72 91 163 72 92 164 72 91 164 71 89 165 71 88 165 70 87 165 68 87 166 68 87 165 68 88 165 68 87 165 67 87 164 66 89 165 66 90 166 67 93 166 68 95 167 72 95 167 72 94 168 73 93 167 72 94 168 80 131 117 80 129 119 80 129 120 83 128 123 84 126 125 83 123 125 84 119 125 83 116 126 83 113 125 83 110 126 81 110 128 80 108 128 79 106 128 77 103 128 75 101 129 73 98 130 72 94 131 70 91 132 68 88 134 67 86 135 67 87 137 65 88 139 66 89 140 66 90 142 68 91 144 68 91 146 69 91 149 69 91 152 69 91 154 70 91 157 71 90 160 72 91 163 72 91 165 72 91 165 72 89 165 70 87 165 70 86 166 70 88 166 69 88 166 68 88 165 67 88 166 67 88 166 67 90 166 68 92 166 69 93 166 70 94 167 72 95 167 72 94 167 73 93 167 73 94 166 79 133 118 80 132 119 80 130 121 83 130 123 83 127 124 83 123 125 83 119 126 82 116 125 82 114 125 81 112 126 80 110 128 79 109 129 78 108 129 75 106 128 74 102 129 73 99 131 71 96 132 68 92 133 66 88 133 65 86 134 63 87 136 63 88 138 64 88 138 65 89 141 66 90 144 67 90 146 68 89 149 68 89 152 69 89 155 71 90 157 71 90 159 71 91 162 72 91 165 71 91 165 72 88 165 71 86 165 71 86 165 71 87 166 69 89 167 68 88 166 68 89 166 68 90 166 69 92 166 69 92 166 71 93 166 71 94 167 73 95 167 73 94 166 73 95 165 73 95 164 79 135 117 79 135 119 80 133 121 82 131 123 82 127 125 81 124 126 81 121 125 81 117 125 81 115 125 80 113 125 77 112 127 78 110 128 76 110 128 74 107 128 72 104 130 70 100 131 68 97 132 66 92 134 64 89 134 63 87 134 61 87 135 61 87 136 62 87 137 64 87 141 65 89 145 65 89 147 66 90 150 67 90 152 68 89 154 70 89 157 71 89 159 71 91 162 71 91 165 71 89 166 71 87 166 72 85 166 72 85 165 71 87 165 69 89 166 69 89 166 69 90 166 69 91 165 69 92 164 70 93 163 71 92 165 73 93 165 73 93 166 74 94 165 73 95 164 73 95 163 78 137 116 79 136 119 80 134 120 82 131 122 82 128 125 81 125 125 81 122 125 81 119 125 80 116 125 79 114 126 77 112 127 78 111 127 75 111 129 72 108 130 70 103 130 68 100 130 66 98 131 65 94 133 63 90 135 61 90 135 61 89 135 59 87 135 60 87 137 62 87 141 63 89 145 64 91 148 65 91 150 66 91 150 67 90 152 68 90 156 70 90 159 70 91 162 70 90 164 70 87 166 72 86 166 73 85 166 72 86 164 71 87 164 70 90 165 69 90 165 70 91 164 70 92 162 71 92 161 72 93 162 73 93 162 73 92 164 74 91 164 74 92 163 73 93 163 72 95 161 79 137 117 79 136 120 79 134 120 81 131 122 81 128 124 80 126 125 80 123 125 80 121 125 79 118 125 78 117 126 77 115 127 76 113 127 74 111 129 71 107 130 67 104 130 64 101 130 63 99 131 62 95 133 61 93 136 60 91 137 60 90 136 59 88 136 59 87 138 60 88 140 61 89 143 63 92 146 64 93 149 66 93 150 66 92 152 68 92 154 69 91 156 70 90 160 69 89 162 71 87 165 72 86 164 72 86 164 72 87 163 72 88 164 71 90 164 70 92 163 71 91 162 71 92 161 72 93 159 73 93 160 74 92 161 73 91 162 73 89 161 73 90 160 72 92 160 70 93 160 79 136 118 79 135 119 79 133 120 80 131 122 81 129 123 80 126 125 80 124 126 79 122 126 78 119 125 77 118 126 75 116 127 74 113 129 72 109 130 68 106 131 64 105 132 61 102 131 60 100 132 60 98 134 60 94 136 59 93 138 59 92 139 58 90 138 58 88 139 58 88 140 60 89 143 62 92 146 64 94 148 65 94 150 65 94 152 66 94 153 67 92 155 69 90 158 71 89 161 72 87 163 72 86 162 72 87 162 71 88 161 72 89 161 72 90 163 72 91 162 72 91 160 72 92 159 73 92 158 74 91 158 74 89 159 73 88 160 72 87 159 72 87 158 72 90 157 71 93 158 80 136 118 79 134 119 79 132 121 79 130 124 80 128 124 79 127 124 78 125 125 78 122 125 77 120 125 75 119 126 74 117 128 72 114 130 69 110 131 65 106 132 62 104 132 59 102 132 58 101 133 58 98 135 58 95 137 58 94 139 58 93 139 57 91 139 56 90 139 57 90 140 59 91 142 61 93 144 63 94 147 64 95 149 64 95 150 65 94 152 66 92 153 69 91 155 70 89 158 70 88 160 70 86 161 72 86 160 71 87 159 73 88 159 72 89 160 73 89 160 73 89 159 73 89 158 74 89 156 74 89 156 74 87 156 73 86 157 72 85 156 71 86 155 70 89 155 70 91 155 81 135 119 80 134 120 79 133 121 78 131 124 79 129 124 78 128 125 76 125 126 76 123 126 74 121 126 72 119 127 71 118 129 69 114 130 66 110 132 63 106 132 60 103 133 59 102 134 58 100 134 56 99 136 57 96 137 56 95 138 56 94 139 55 94 139 55 93 139 56 93 140 59 93 141 61 94 143 63 95 146 63 97 147 63 96 148 64 95 150 66 94 151 68 92 154 69 89 155 69 88 158 69 87 160 70 86 158 71 87 157 73 87 157 73 87 157 73 87 157 74 88 156 74 88 156 74 88 154 74 89 154 73 87 153 72 85 154 72 86 154 70 87 153 69 88 153 70 89 153 82 133 119 81 133 121 79 132 123 78 131 124 78 130 125 77 128 127 75 125 127 73 123 127 72 120 128 70 120 130 69 117 130 66 114 130 63 109 132 61 106 134 59 103 135 58 101 136 57 100 137 56 98 137 56 98 137 55 98 136 55 97 137 54 96 138 54 96 139 56 96 139 58 96 140 60 96 142 62 97 144 62 97 145 62 97 146 64 98 147 65 97 149 68 94 152 68 92 154 67 89 156 68 88 157 70 87 157 73 87 157 73 86 155 74 86 154 74 86 155 75 86 155 75 88 154 74 88 153 74 87 152 73 85 151 71 86 152 71 87 152 71 88 153 70 88 153 70 88 153 83 132 119 82 132 121 81 132 124 79 131 125 77 129 126 76 127 128 74 125 128 72 123 129 69 121 129 68 119 130 67 117 131 64 114 132 61 111 134 59 108 135 58 104 136 58 102 137 57 99 137 55 100 137 55 99 137 55 99 136 55 99 136 54 99 137 54 98 138 55 98 138 57 97 139 58 98 141 60 98 143 61 98 144 62 98 144 63 98 145 64 98 147 65 96 149 66 94 151 66 91 153 67 90 155 70 89 156 73 88 155 74 87 154 75 86 154 76 87 154 75 87 154 75 88 153 74 87 153 73 87 151 72 86 150 71 87 151 71 87 152 70 87 153 70 89 155 69 89 155 84 130 120 82 131 122 81 130 125 79 130 126 77 129 127 74 126 128 72 124 128 70 122 128 68 120 130 67 118 131 65 116 132 63 115 133 60 113 135 57 109 137 57 106 138 57 102 138 57 100 138 55 100 138 56 100 137 54 100 136 55 100 136 55 100 135 55 100 136 55 99 137 56 99 138 56 99 140 58 99 142 60 99 143 60 99 142 60 98 144 62 99 146 63 97 146 64 95 148 65 92 150 66 90 151 69 89 153 73 89 154 74 88 154 75 87 153 75 87 154 75 87 154 74 87 153 74 87 152 73 87 150 72 88 150 72 88 149 72 88 151 70 87 153 69 89 155 69 89 156 85 130 121 83 129 123 80 129 125 78 129 126 75 127 127 72 126 127 69 125 128 68 123 129 67 121 130 66 119 131 63 117 132 61 116 134 59 114 135 58 110 137 57 107 138 57 104 138 57 103 138 56 101 138 55 100 138 55 100 136 54 102 136 54 101 135 54 100 135 54 100 137 55 100 138 56 100 140 57 100 141 59 101 141 60 100 142 59 99 143 60 98 144 61 97 145 63 95 147 64 92 148 66 90 149 70 90 151 73 88 152 74 89 152 74 88 151 75 87 152 75 88 153 74 87 152 73 86 151 72 88 149 73 88 150 73 88 150 72 88 151 71 87 152 69 89 153 70 90 154 82 131 120 81 129 123 79 129 125 77 128 126 74 126 126 71 125 126 68 124 129 67 123 131 65 122 131 63 120 132 62 119 132 60 117 133 58 114 134 57 111 136 56 109 137 56 106 138 57 104 139 57 102 138 55 101 137 55 101 136 54 103 135 53 102 135 53 102 136 53 102 138 54 102 139 55 103 138 57 101 140 58 100 141 58 100 141 59 99 142 59 98 143 60 97 145 62 96 146 65 94 146 66 92 147 70 91 147 72 90 148 73 89 149 74 89 149 76 88 150 76 88 152 74 88 151 73 87 151 72 88 150 72 89 149 72 88 150 73 88 150 71 88 150 71 89 151 71 90 152 82 130 120 80 129 122 78 129 124 76 127 124 73 126 125 70 125 126 67 124 128 65 123 130 62 123 131 61 121 131 62 120 133 60 119 132 58 114 133 57 112 134 56 109 136 56 106 137 56 103 138 57 102 137 56 102 136 55 102 135 53 103 135 52 104 135 53 104 136 53 103 138 55 103 139 56 103 139 56 102 140 57 100 140 58 98 140 59 98 142 59 98 142 61 98 145 63 97 146 65 95 145 67 93 145 69 92 145 72 91 145 74 90 146 75 90 147 76 88 148 76 88 149 75 87 150 74 87 149 73 88 149 72 89 149 71 89 150 72 87 149 72 87 148 72 88 149 72 89 150 81 130 120 80 129 121 78 128 122 75 127 123 73 125 125 70 125 126 67 124 128 64 124 130 62 124 131 61 123 131 60 122 131 59 119 132 59 116 132 58 113 133 56 110 135 56 107 137 57 106 138 57 104 137 57 103 136 56 104 135 54 104 135 54 106 135 54 106 137 54 106 137 56 104 138 56 103 139 56 101 140 57 100 140 58 99 140 59 98 143 60 97 144 61 98 145 63 98 146 67 97 145 68 94 144 69 93 144 72 92 143 74 91 144 75 89 145 76 89 145 77 89 146 77 87 147 76 88 147 74 89 148 72 89 149 72 88 148 73 88 148 73 89 148 72 88 149 72 89 148 81 130 120 80 130 121 77 128 122 74 127 124 71 127 125 69 126 127 65 126 128 63 126 129 62 126 130 60 125 131 59 123 131 58 121 131 58 117 132 57 114 132 57 110 133 57 109 135 57 107 136 57 106 136 58 105 136 57 106 135 55 106 133 54 107 134 56 107 134 56 106 135 57 106 136 56 104 138 56 101 138 57 100 138 58 99 140 59 98 143 61 97 144 63 97 145 66 96 145 68 95 144 70 95 143 70 94 143 72 92 142 74 91 142 75 89 141 76 89 142 78 88 143 78 87 144 76 88 145 74 89 147 73 88 148 72 88 148 73 88 147 73 88 148 73 88 148 74 88 146 81 131 122 78 131 122 75 130 123 72 128 125 68 128 125 66 127 126 64 127 128 62 127 129 61 127 130 60 126 131 59 123 132 58 121 133 58 118 133 57 115 133 57 113 132 57 111 134 58 109 133 58 107 134 59 107 134 58 106 134 56 106 133 55 108 131 56 108 132 56 106 133 56 105 133 57 103 135 57 101 137 59 100 139 60 99 140 60 97 142 63 96 144 65 96 144 67 96 144 68 94 143 70 95 143 71 94 141 72 93 141 75 91 140 75 90 140 76 89 141 78 88 141 78 88 142 77 88 143 76 88 144 75 88 146 74 89 147 74 87 146 73 86 146 74 87 146 76 88 145 79 132 123 77 132 124 73 130 124 70 129 125 66 128 126 63 127 126 63 128 127 63 128 129 62 127 131 62 126 132 60 124 132 59 122 133 59 118 133 59 116 133 59 114 132 59 112 132 58 110 131 58 108 131 58 108 132 57 108 132 57 107 132 56 107 131 56 107 129 56 105 130 55 104 131 55 102 134 57 101 135 59 100 138 61 99 139 62 98 141 64 96 142 65 96 143 67 96 142 69 95 142 70 95 140 71 94 140 74 93 139 76 92 139 76 91 137 77 89 139 78 89 140 80 89 141 80 89 141 79 90 142 77 90 143 77 89 144 76 88 145 75 87 145 76 87 144 77 88 142 78 133 124 76 133 124 73 131 124 70 129 124 66 129 125 63 128 125 63 128 126 63 128 128 63 127 129 62 126 131 60 125 131 60 122 131 61 119 131 60 118 131 60 116 130 60 113 130 59 111 129 58 110 129 58 110 129 58 109 129 57 108 129 57 107 129 56 107 129 55 105 129 54 104 130 55 103 132 56 102 133 59 101 135 61 100 137 62 99 139 64 97 140 66 96 141 67 96 141 69 95 139 70 94 139 73 94 138 75 93 137 76 92 137 77 90 135 78 90 136 80 90 138 81 91 139 80 91 140 80 90 139 80 90 140 78 90 140 78 88 142 78 88 142 78 87 141 78 88 140 78 133 124 76 133 122 74 132 122 71 130 122 67 129 123 64 128 124 63 128 125 64 128 126 64 128 127 63 128 128 62 125 128 62 124 128 62 121 129 61 119 129 60 117 129 59 114 128 59 113 127 59 112 126 59 111 127 59 110 127 58 108 126 57 107 128 55 108 128 55 106 128 55 104 129 55 104 129 56 103 130 59 102 133 61 100 134 63 99 135 64 97 137 66 96 138 67 94 138 70 93 138 72 92 136 74 92 136 76 92 134 77 91 133 78 90 133 80 91 133 81 91 134 81 91 136 82 91 136 82 90 136 82 90 136 80 90 138 79 89 139 78 88 139 78 88 139 78 88 139 79 133 122 77 133 121 75 132 121 72 131 121 69 130 121 66 129 123 64 128 124 64 129 125 64 129 126 64 129 127 64 127 126 63 125 126 62 123 127 62 120 127 61 117 128 59 116 127 58 116 126 58 113 125 58 112 125 58 111 125 58 109 125 57 107 126 56 107 127 56 107 127 55 106 127 55 105 127 56 104 128 58 102 129 61 101 131 63 99 132 64 98 134 66 97 134 69 96 135 72 94 135 75 92 134 76 92 133 78 92 132 79 92 131 80 93 131 81 91 131 81 92 132 83 92 133 83 92 133 82 92 133 81 91 134 80 91 135 78 89 136 78 88 137 78 88 137 79 89 137 80 133 120 79 134 120 76 132 121 73 132 121 71 133 121 68 131 123 65 130 123 64 129 123 63 129 124 64 130 124 65 129 126 63 127 126 62 125 127 62 122 127 61 119 128 60 117 127 58 116 126 58 113 124 58 112 124 58 111 123 57 110 122 55 108 123 56 107 124 57 107 124 57 107 125 56 105 123 57 103 124 59 103 125 61 102 127 62 100 128 64 99 130 67 98 131 70 96 133 75 94 132 76 92 130 79 92 131 80 92 131 82 93 129 81 94 129 81 93 130 82 93 129 83 92 130 83 92 130 82 92 130 80 92 131 79 91 133 79 91 135 78 90 134 79 89 135 80 90 135 81 134 118 80 133 118 78 133 119 74 133 119 71 134 120 68 134 121 65 132 121 64 132 122 64 132 122 65 131 123 65 130 124 64 128 125 64 126 126 64 124 127 62 120 127 60 118 126 59 117 124 59 115 123 58 114 122 58 112 120 57 111 119 56 110 119 56 109 121 56 108 121 57 106 122 58 105 120 59 103 121 60 103 123 62 102 124 64 101 125 65 100 127 68 98 128 72 96 129 76 94 129 78 94 128 81 93 128 83 94 129 85 94 128 83 95 128 83 94 127 83 93 126 83 92 127 83 92 128 82 93 128 81 93 130 80 92 132 80 92 133 79 91 133 80 91 133 81 90 132 83 134 118 81 134 117 78 134 117 74 135 118 72 135 118 69 135 119 66 133 120 66 132 121 64 133 121 65 133 121 65 132 122 65 130 123 65 127 125 64 125 126 62 122 125 61 120 123 60 119 122 59 118 120 58 116 119 58 115 117 59 113 117 58 112 118 58 110 118 58 109 119 60 107 120 61 106 119 61 104 120 63 103 120 63 103 121 64 101 123 66 99 124 69 97 126 74 96 126 78 96 126 81 95 126 83 96 126 85 97 127 86 97 127 86 98 126 86 96 124 85 94 124 85 93 125 84 93 126 83 93 127 83 94 128 82 94 129 81 93 131 81 92 132 81 92 132 83 91 131 84 134 116 81 135 116 78 135 116 76 135 117 73 135 118 71 135 118 69 133 119 68 132 120 68 133 121 67 133 121 67 133 120 66 133 121 66 130 123 64 126 124 63 124 122 63 123 120 62 122 119 61 120 117 60 118 117 59 117 116 60 115 116 60 113 117 60 112 117 61 110 116 61 109 117 61 106 118 62 104 118 63 103 119 64 103 120 65 101 121 67 99 123 71 98 122 76 97 122 80 97 123 82 97 123 85 98 123 85 99 123 87 99 125 87 100 124 87 98 123 87 96 122 87 94 123 86 94 124 85 95 126 85 96 128 84 96 129 84 95 130 83 93 130 83 93 131 85 92 130 83 136 115 81 136 115 78 136 116 76 135 117 74 134 117 71 134 117 70 134 117 70 133 119 70 133 120 69 133 119 67 135 119 66 134 119 65 133 120 64 130 121 63 127 120 63 126 119 62 124 118 61 122 117 60 120 115 61 118 115 60 116 115 62 115 115 61 113 116 61 111 115 61 109 115 62 106 116 64 105 116 65 104 117 65 103 118 66 101 119 69 100 121 73 100 121 77 100 121 81 100 123 84 99 122 85 99 120 87 99 121 88 100 121 89 101 122 89 100 121 88 99 122 88 97 123 88 96 124 87 97 126 86 98 129 86 97 129 86 96 130 86 95 130 86 94 130 89 93 129 84 138 115 81 138 115 79 138 116 76 137 116 75 136 117 73 135 117 71 134 118 70 134 118 70 133 119 70 133 118 67 135 118 65 135 118 64 134 119 65 132 120 65 130 119 64 128 117 64 126 116 63 123 117 63 121 115 63 120 114 63 117 114 64 116 114 63 115 114 62 113 114 62 110 113 63 108 115 64 107 115 65 105 116 66 103 117 68 102 117 72 102 118 75 102 119 78 102 120 81 101 120 84 101 119 86 103 118 88 103 118 89 102 118 89 103 119 90 101 120 89 100 121 89 100 122 89 100 123 89 99 125 88 100 127 87 97 128 87 97 129 89 97 129 90 97 129 91 96 128 83 140 115 82 140 116 79 140 116 78 139 116 76 137 117 74 136 118 73 135 117 72 135 117 70 134 117 69 134 117 68 135 116 66 135 117 66 135 119 66 134 119 66 132 118 66 129 116 66 127 115 66 126 115 65 124 115 65 122 115 65 119 114 65 118 114 65 116 114 64 115 113 65 112 112 65 111 113 66 110 115 67 108 115 68 105 116 69 104 116 72 104 117 75 103 118 79 103 118 82 103 118 85 104 116 88 105 116 88 104 116 89 104 116 89 104 117 90 102 118 89 102 118 89 102 119 88 102 120 88 101 122 88 101 125 88 100 126 88 99 127 90 98 127 91 100 128 92 99 127 84 142 117 82 142 116 80 142 116 79 140 116 76 139 117 74 138 117 73 137 116 73 136 115 72 135 115 69 136 117 67 136 116 66 136 118 67 136 118 68 135 118 68 133 117 68 131 116 69 129 115 68 127 114 67 124 114 67 121 114 67 120 114 68 120 112 67 119 113 67 117 113 68 114 113 67 113 112 68 113 113 69 110 113 69 108 114 71 106 115 74 106 115 77 104 115 80 104 115 85 105 115 87 105 114 88 105 114 89 104 114 89 105 115 90 104 117 89 104 118 90 103 118 90 103 116 89 103 118 88 102 119 89 101 122 90 101 123 90 100 124 91 101 125 93 101 126 94 102 126 84 143 117 83 143 117 83 143 117 80 142 117 77 141 118 76 140 117 74 138 115 73 137 114 72 136 114 70 138 114 68 138 116 68 138 117 69 138 118 70 136 118 71 134 116 71 133 115 71 132 115 69 129 114 69 125 115 70 122 114 70 121 113 69 121 112 68 120 112 68 118 113 68 117 112 69 115 113 70 114 112 71 112 113 71 110 114 74 109 115 77 108 114 80 106 113 83 105 113 85 106 112 88 106 111 89 106 111 90 105 111 90 106 113 91 105 116 92 105 116 91 104 116 91 104 116 89 103 116 89 102 117 89 101 119 89 100 120 91 101 121 92 101 123 93 103 124 94 103 124 86 144 116 85 144 117 84 144 116 82 144 116 79 143 117 78 142 116 76 140 115 74 139 114 73 139 113 72 139 113 71 139 115 70 139 117 70 140 117 72 138 117 73 137 116 73 136 115 72 134 114 71 131 114 72 127 114 72 124 114 71 123 113 70 122 112 69 122 111 70 119 112 71 118 112 71 118 113 72 116 112 73 114 112 73 113 112 76 112 112 79 111 112 82 108 111 84 107 111 86 106 111 87 106 110 89 107 110 91 107 110 91 106 112 92 106 114 93 105 114 93 106 115 92 106 114 91 105 115 91 104 116 90 102 117 91 102 118 92 103 120 92 103 120 93 103 121 95 103 121 87 145 115 87 144 116 85 145 116 83 144 116 80 144 117 79 143 115 78 142 114 76 142 113 75 140 113 74 140 112 72 141 113 72 142 115 72 143 116 74 141 117 75 141 115 75 140 115 74 136 115 74 134 115 74 130 114 74 127 113 73 125 112 72 125 111 72 123 110 72 120 111 73 119 111 74 119 112 74 118 111 74 116 110 75 115 109 78 115 109 81 113 109 85 111 109 87 110 110 88 108 109 90 107 109 91 107 109 93 108 109 93 108 111 93 107 111 94 106 112 94 106 113 93 106 113 92 106 113 92 105 114 92 104 116 92 105 116 94 106 118 94 106 118 94 106 119 97 105 121 88 146 113 88 146 116 86 146 116 83 145 116 81 145 115 80 145 114 78 144 113 78 144 112 76 143 112 75 143 111 74 143 112 73 144 113 73 145 115 74 144 116 76 144 117 77 141 116 76 139 116 75 137 116 76 134 113 76 131 112 75 129 111 74 127 110 73 124 109 73 122 109 74 121 109 74 121 110 75 120 110 76 119 109 77 118 109 81 117 108 84 116 107 87 113 106 88 112 106 90 110 105 92 109 106 94 109 106 97 109 108 96 110 110 96 109 110 96 108 109 95 109 110 95 110 111 94 109 112 93 107 113 92 107 115 93 107 115 94 107 115 95 107 115 96 107 117 98 107 119 89 146 111 88 147 112 86 148 114 84 147 114 83 145 114 81 145 112 79 145 111 78 146 110 76 145 111 76 145 111 76 144 111 75 144 111 74 146 114 75 145 115 76 145 117 78 143 117 78 141 116 77 139 116 78 137 114 77 134 112 76 132 111 75 129 109 76 126 107 75 124 106 76 123 106 76 122 107 77 121 107 78 120 108 79 119 107 83 119 106 86 118 104 88 117 104 89 115 104 91 114 104 94 112 103 96 111 103 97 111 104 98 111 106 99 112 107 98 111 107 97 112 107 97 112 110 96 110 110 94 109 112 93 108 112 94 109 113 95 107 114 96 108 114 98 107 114 98 108 116 89 148 108 87 147 109 86 148 111 84 148 112 83 147 112 81 146 111 80 146 110 79 146 109 78 146 109 77 146 110 77 146 110 77 145 111 77 146 112 76 146 114 78 146 115 80 145 116 80 143 115 80 141 115 79 139 113 78 137 111 78 134 109 77 132 108 78 128 106 76 126 106 77 124 105 77 123 105 79 122 105 80 122 105 81 121 105 85 121 104 88 120 102 91 119 101 91 118 101 93 118 102 95 115 102 97 114 102 98 113 102 99 113 103 99 114 104 100 115 104 100 116 105 99 115 107 98 113 108 97 112 110 96 111 111 96 111 111 96 110 111 96 109 112 98 109 112 98 110 114 90 149 106 88 149 108 86 149 109 85 147 111 83 147 111 83 147 111 82 147 110 82 146 110 80 146 109 79 147 109 78 147 109 79 147 109 78 147 111 78 148 113 80 147 114 81 146 115 81 144 114 81 143 114 80 140 113 80 138 111 80 136 108 80 134 106 79 130 105 78 128 105 78 127 106 79 125 105 80 125 104 82 124 104 84 123 103 88 122 101 90 120 100 93 119 98 94 119 98 95 120 99 96 118 100 97 118 101 99 118 100 99 117 101 101 117 102 101 118 102 101 119 102 100 118 104 100 117 106 98 115 107 97 114 108 97 114 109 98 113 109 98 112 109 98 111 109 99 111 109 90 149 107 87 150 108 85 150 109 83 148 110 83 148 111 84 147 110 84 147 110 83 147 110 81 147 108 81 147 108 80 147 108 79 148 110 79 148 111 78 148 112 80 147 114 80 147 114 82 146 114 82 145 112 82 141 111 82 139 109 82 137 107 82 135 106 80 133 105 79 131 105 80 128 105 81 127 104 82 126 104 84 125 103 87 124 102 91 124 99 93 122 97 95 121 96 95 121 95 96 120 97 96 121 98 97 121 99 98 121 98 100 121 99 102 120 100 103 122 100 103 122 100 102 121 101 101 120 103 99 118 105 97 117 106 98 117 107 99 116 107 100 115 107 99 115 105 100 115 105 90 149 108 88 150 109 86 151 109 84 150 110 83 148 110 83 148 109 84 148 109 83 147 108 82 147 107 82 147 106 82 148 107 80 146 110 80 146 111 79 147 112 79 148 113 80 147 113 81 147 113 83 146 112 84 144 110 84 142 108 84 138 107 84 137 105 82 135 105 81 132 105 81 130 104 82 128 104 85 128 104 88 128 103 91 127 101 94 126 98 97 124 94 97 123 94 98 123 94 98 123 96 98 124 96 99 124 96 101 125 97 103 125 98 105 126 98 105 126 97 105 126 98 104 124 99 103 123 101 101 121 102 100 120 104 100 121 104 102 120 103 101 119 102 100 119 101 101 118 101 91 149 106 89 151 108 87 151 109 85 150 109 84 149 109 84 149 108 84 149 108 82 149 107 82 148 106 82 147 106 81 147 108 81 146 109 80 146 110 80 146 111 80 148 111 80 148 111 82 147 110 83 146 109 85 145 107 85 144 107 85 141 106 84 139 104 83 137 104 83 135 104 83 133 103 85 131 102 87 131 101 91 130 101 93 129 99 97 129 96 99 126 94 100 124 92 100 125 92 101 126 93 101 127 93 101 128 94 103 129 95 105 129 95 105 130 93 105 129 94 106 129 96 106 129 98 104 127 98 102 125 98 102 125 100 103 124 100 104 124 99 104 123 97 102 122 96 103 121 97 91 151 104 90 152 106 89 152 108 86 151 109 85 151 108 84 151 107 84 151 107 83 150 106 82 151 106 80 149 106 80 148 107 80 147 108 80 147 108 79 148 108 79 149 109 80 148 109 82 147 108 84 147 107 85 146 106 85 146 105 86 145 103 85 142 102 84 140 101 85 138 100 86 136 101 88 134 99 90 132 98 93 131 98 95 131 96 98 130 94 100 128 92 101 128 90 102 128 89 102 129 89 102 130 90 101 131 91 103 131 92 105 132 91 105 132 90 106 132 91 107 133 92 106 131 94 106 130 95 105 129 95 105 129 95 105 128 94 106 128 93 106 127 91 104 127 92 105 126 92 91 151 103 91 152 104 90 152 106 88 152 107 86 151 107 85 151 107 84 151 106 84 152 105 82 152 106 80 151 107 81 150 107 80 150 107 80 151 107 78 151 108 79 151 107 80 150 108 81 150 107 84 150 107 84 150 105 85 149 103 85 148 101 86 146 99 86 143 98 86 141 97 88 139 97 90 138 97 91 135 97 93 134 96 96 133 93 99 133 91 102 132 90 103 130 89 105 130 88 103 130 87 103 132 88 104 132 89 106 133 89 107 134 89 106 135 89 106 135 89 107 136 90 107 133 91 108 132 92 108 132 92 108 132 92 108 132 90 107 132 89 108 132 87 108 131 88 107 129 88 93 152 102 93 152 104 92 152 105 89 151 105 88 150 106 86 151 107 84 152 107 84 153 105 82 152 105 82 151 106 82 151 106 80 153 106 79 153 107 78 154 107 79 153 107 80 152 106 81 152 105 84 152 105 83 152 105 84 150 102 85 149 100 86 147 98 87 146 97 88 144 95 89 141 95 91 139 95 94 138 95 96 136 94 98 134 92 101 134 89 104 134 87 106 133 87 107 133 86 106 133 85 105 134 86 106 135 87 107 137 87 108 137 87 108 138 87 109 139 86 108 139 88 109 136 88 108 135 89 110 135 88 110 135 87 109 136 86 109 135 86 110 136 85 110 134 84 111 133 84 