P3
50 50
255
171 154 151 169 153 153 167 151 155 165 150 157 163 148 159 161 147 162 161 146 166 161 145 169 159 145 171 158 146 172 156 145 172 156 144 173 155 143 175 153 143 177 151 145 178 149 146 178 148 145 178 146 144 179 145 143 179 144 142 179 144 140 180 144 139 180 143 138 182 142 138 183 142 138 182 142 138 182 140 138 183 138 138 184 133 140 184 129 141 182 126 143 181 122 144 180 118 144 179 114 144 179 111 145 179 107 146 181 105 146 182 102 146 185 100 144 188 97 144 190 95 142 192 92 142 194 88 141 195 85 141 197 83 142 198 82 141 199 81 141 200 81 139 200 81 139 202 79 138 202 168 156 151 166 154 154 164 152 156 162 152 159 160 150 161 159 148 164 157 147 167 157 145 170 156 144 172 155 144 171 153 145 172 152 144 174 150 145 176 149 144 177 149 146 178 147 146 178 146 146 178 145 145 178 144 145 178 142 144 178 141 142 179 140 140 179 140 140 181 140 139 182 139 139 183 138 140 183 137 139 183 135 138 183 131 139 182 126 140 181 123 142 180 118 142 179 115 143 179 111 143 178 108 144 179 105 145 181 101 145 182 99 145 185 97 144 188 95 144 190 92 142 193 89 141 195 85 141 197 82 142 197 81 143 198 79 142 199 79 141 201 79 139 202 78 138 203 78 137 203 166 157 152 164 156 154 162 155 157 159 152 160 157 152 162 155 151 164 154 149 167 154 147 170 153 146 171 151 145 172 150 146 172 149 147 174 147 147 175 146 147 177 145 147 178 144 147 178 144 148 178 142 148 178 141 146 177 140 145 176 139 143 177 138 141 178 138 140 178 137 141 180 136 141 180 134 142 180 134 139 181 132 139 180 128 139 181 123 140 181 119 141 181 115 141 179 112 141 179 109 141 179 106 143 180 102 144 181 99 145 182 97 144 184 95 145 188 94 144 191 92 142 194 87 140 195 84 141 197 80 142 199 78 142 199 77 142 200 76 140 201 76 139 203 76 137 204 75 136 203 164 157 152 161 158 154 160 156 156 157 154 159 153 154 162 151 152 164 149 150 167 151 148 169 150 147 170 149 147 172 147 148 173 146 149 174 145 150 175 143 149 177 142 149 178 141 149 177 141 148 178 140 148 177 138 147 176 137 146 176 136 145 175 136 143 175 136 143 176 135 143 178 134 143 179 133 142 178 130 141 177 128 141 178 125 141 178 120 142 179 116 142 180 112 141 180 109 140 179 106 141 179 103 143 180 100 145 181 97 144 183 94 144 184 92 144 187 91 142 191 89 139 193 86 138 196 82 139 197 78 139 198 76 140 201 75 140 201 75 139 201 74 138 202 73 136 203 73 135 202 161 158 152 158 159 154 156 157 157 152 157 160 149 155 163 148 154 165 147 151 166 147 150 167 147 150 170 146 150 172 145 152 173 145 151 174 143 152 175 141 151 176 140 150 176 139 150 177 137 150 177 137 150 176 136 149 175 135 147 175 135 146 173 135 145 173 134 144 174 133 144 176 132 143 176 130 143 176 127 144 174 124 143 175 121 143 176 118 143 177 113 143 178 109 142 179 106 141 178 103 141 179 100 142 180 99 142 181 96 142 183 93 142 185 90 141 187 87 140 190 86 138 193 83 136 196 80 136 198 76 137 199 73 138 201 72 139 202 73 138 201 73 137 201 72 135 201 72 135 201 158 160 152 156 159 153 152 159 157 149 157 161 146 154 163 146 153 164 146 153 167 146 153 168 145 152 170 145 153 171 144 155 173 142 155 174 141 156 175 139 154 175 138 152 176 136 151 176 135 151 175 135 151 174 133 151 173 132 150 173 132 148 172 131 147 171 131 146 171 131 145 173 129 144 174 128 144 174 126 145 172 123 144 174 119 144 175 116 145 177 112 143 178 108 142 178 105 141 177 102 141 178 99 140 179 96 139 180 94 139 181 91 138 183 88 138 186 85 138 189 83 137 193 81 135 196 78 135 197 74 135 199 72 137 200 71 138 202 71 137 200 71 136 200 71 135 201 71 135 200 155 160 151 153 160 153 149 160 157 147 158 161 144 156 163 143 155 164 144 156 167 144 155 169 143 155 170 143 156 171 142 157 172 140 158 174 139 158 174 137 157 175 136 155 176 134 153 175 133 153 173 131 154 172 130 154 171 128 152 171 128 150 170 128 148 170 127 148 170 128 147 171 127 146 172 125 145 173 122 146 172 120 146 171 116 147 173 112 146 175 109 144 176 106 142 177 102 140 177 99 139 178 95 137 178 94 137 179 91 136 180 88 135 181 86 135 184 84 136 187 80 135 191 77 135 194 75 135 196 73 135 198 70 135 199 69 136 200 70 136 198 71 136 199 71 135 200 71 134 201 152 162 152 150 161 153 146 160 157 144 158 160 142 159 163 141 158 165 141 158 167 141 157 168 141 157 170 141 158 171 138 158 173 137 159 174 136 160 174 135 160 174 133 158 175 132 156 173 129 156 172 127 156 172 126 155 170 126 152 169 125 151 167 123 150 168 122 149 169 122 149 169 123 147 170 120 146 170 118 148 170 116 148 170 113 148 172 110 148 174 107 146 175 104 143 176 99 140 176 95 139 177 93 138 176 90 137 177 89 135 177 87 134 179 85 135 182 82 134 185 79 135 190 75 135 193 73 136 195 71 135 197 69 135 197 68 136 198 68 135 197 69 135 198 71 134 199 71 133 199 147 164 154 146 163 155 144 161 156 142 160 159 141 160 162 140 161 165 139 160 166 138 159 167 138 161 169 137 162 172 135 161 173 134 161 174 133 162 174 132 161 174 131 160 174 129 160 172 128 160 171 125 159 170 124 157 168 123 154 167 121 152 167 118 152 168 117 152 168 116 152 169 117 151 168 116 149 168 114 150 169 112 150 170 109 149 172 107 149 174 104 147 175 101 144 176 96 140 176 92 139 176 89 138 175 87 138 176 86 136 176 84 134 177 81 134 180 79 134 184 75 134 188 72 134 192 69 134 194 68 133 195 67 134 195 67 134 196 68 134 197 70 133 198 70 132 198 71 132 199 143 166 155 143 164 156 142 163 158 142 162 159 140 162 161 138 161 164 136 161 166 135 162 167 134 163 169 132 163 172 131 162 173 131 162 175 129 162 175 128 161 174 128 161 173 127 162 171 126 161 169 123 160 168 122 159 167 120 156 167 118 154 168 116 154 167 114 155 166 113 155 167 112 154 169 111 153 168 111 152 169 109 151 171 106 151 171 103 150 173 100 148 175 96 145 176 93 143 176 88 141 175 87 140 174 86 139 174 84 136 176 81 134 177 77 134 179 74 133 182 71 133 186 68 133 189 66 132 191 66 132 192 66 131 193 67 131 196 69 133 197 70 132 197 71 131 198 72 130 198 142 168 156 139 167 158 140 165 159 139 164 160 138 163 162 136 162 163 134 162 166 133 163 169 132 163 170 130 162 172 129 162 174 128 163 175 127 163 176 126 163 175 126 162 173 125 162 170 123 162 168 122 160 167 120 158 166 118 157 166 115 156 166 113 156 166 111 157 166 110 158 167 109 157 168 108 155 169 108 154 169 105 154 170 103 153 171 99 151 173 95 148 174 91 146 176 89 144 176 86 142 175 84 141 173 84 138 174 81 136 175 77 134 177 74 134 179 71 133 181 68 132 184 66 130 187 65 130 189 65 130 192 65 130 193 65 130 195 66 131 196 68 130 197 71 131 197 73 130 197 140 169 158 137 168 159 137 166 161 136 166 162 136 165 163 134 163 165 132 162 166 131 163 168 129 162 171 128 163 173 127 162 174 126 162 176 125 162 176 123 162 175 123 162 172 122 162 170 120 162 169 119 159 167 117 158 167 115 158 166 112 157 166 111 156 166 110 158 166 108 159 167 107 159 168 106 157 169 104 156 169 101 156 171 99 154 172 96 151 172 92 148 174 89 147 176 86 145 176 84 143 175 82 141 174 81 139 175 78 136 176 74 135 178 71 133 179 68 132 181 67 130 183 64 129 186 63 130 188 63 130 190 63 129 193 64 129 194 65 130 196 68 129 197 70 129 196 72 131 196 137 168 159 136 168 160 134 168 163 132 168 165 132 166 166 131 164 166 129 163 168 127 162 170 125 162 172 125 162 174 124 162 176 124 162 176 122 162 176 121 161 175 119 162 173 118 163 171 117 161 168 115 161 166 114 160 165 111 159 165 109 159 166 108 159 166 108 159 166 106 159 167 105 159 168 103 159 169 100 158 170 98 156 170 95 155 172 92 152 173 90 150 175 87 148 176 84 146 176 82 144 175 79 142 175 78 139 175 75 137 176 71 136 177 68 134 179 66 132 180 65 131 181 64 130 184 62 130 187 62 131 189 62 130 191 63 129 193 64 130 196 67 129 196 70 130 195 72 130 195 134 169 159 132 169 160 130 169 163 128 169 165 127 167 167 126 165 168 125 164 169 124 162 170 123 162 172 121 162 175 122 161 175 120 161 176 118 160 175 118 160 175 117 161 172 115 161 170 113 162 168 111 161 165 109 161 164 108 161 164 106 162 165 104 162 165 105 161 166 103 161 167 102 160 167 99 160 170 98 159 170 95 157 171 91 156 172 89 153 174 87 151 176 85 149 177 82 148 176 80 144 175 78 141 176 76 140 176 73 138 177 69 137 178 67 135 178 64 134 179 63 132 181 62 132 184 62 131 186 63 131 188 63 131 190 64 130 192 65 130 194 67 130 193 69 130 192 71 130 192 129 169 158 129 169 160 127 170 163 126 170 166 124 169 169 123 167 169 123 165 170 122 163 171 120 162 172 119 161 175 119 160 176 118 161 176 116 160 175 115 160 174 114 162 171 113 163 167 109 162 166 108 162 165 106 162 164 105 162 163 102 162 164 100 162 165 100 161 166 100 162 167 98 161 169 96 160 169 94 158 170 92 157 171 89 156 173 87 154 175 84 152 176 82 149 176 80 148 175 78 144 175 76 142 176 75 141 176 72 139 178 68 137 178 66 135 179 63 134 180 62 132 181 61 131 183 61 131 185 62 132 187 63 133 189 64 132 192 65 132 193 67 132 191 68 130 191 69 130 189 124 168 157 124 169 160 124 169 163 123 170 167 121 170 169 121 168 170 119 167 171 119 165 172 118 162 173 117 161 174 117 160 176 115 159 176 114 160 174 114 161 173 113 162 170 111 162 167 107 161 165 106 162 165 105 162 163 103 163 163 100 162 165 98 162 165 96 162 165 96 162 167 94 160 167 93 159 169 90 158 170 88 158 172 86 156 173 84 153 174 81 150 175 79 149 175 78 147 175 77 144 175 76 142 176 74 141 176 71 139 177 69 138 178 67 137 179 65 135 180 62 132 182 60 131 183 60 132 185 61 133 186 61 134 188 62 134 190 64 134 190 65 133 189 66 131 189 68 132 189 122 168 158 120 170 160 121 170 165 120 170 167 119 170 169 119 168 171 117 167 173 116 167 173 116 164 175 116 163 175 115 161 175 113 161 174 113 160 173 113 161 171 111 162 168 109 163 167 106 162 166 103 162 165 102 162 164 100 163 163 97 162 164 94 162 165 93 161 165 91 162 166 89 161 166 87 159 168 86 159 170 85 159 172 83 156 173 81 154 174 78 151 174 77 147 175 75 146 175 76 144 175 74 142 175 72 140 176 69 139 176 68 139 177 66 137 178 65 136 180 62 133 181 60 131 182 59 132 183 59 133 185 59 134 187 59 135 188 61 134 188 63 134 189 64 133 189 66 133 189 120 168 157 118 169 161 118 169 165 118 169 168 118 168 170 118 167 172 116 168 173 115 167 175 114 166 176 115 165 175 115 164 174 112 162 173 111 161 172 111 162 170 110 162 168 108 162 167 105 162 166 102 161 165 99 162 164 97 162 163 94 162 163 91 161 164 90 161 163 87 161 163 86 160 164 84 159 167 84 158 169 83 158 171 82 157 172 80 154 172 76 151 174 75 148 174 75 146 174 74 144 175 72 143 174 71 140 175 69 139 176 66 138 177 65 136 178 64 136 180 61 134 180 60 133 182 58 132 183 57 132 184 57 133 184 58 134 186 58 135 188 60 134 188 62 134 187 63 134 186 118 167 158 117 168 161 116 169 165 116 170 169 116 168 170 116 168 171 114 168 172 113 168 173 113 168 174 114 167 174 112 165 173 111 163 171 110 163 170 110 163 170 108 162 168 105 162 167 103 161 167 100 161 166 98 161 164 94 162 163 91 161 164 88 160 163 86 161 163 85 160 163 83 159 164 81 159 165 81 158 168 82 157 170 80 156 171 78 153 171 75 151 172 74 149 174 73 146 175 72 144 175 71 142 174 70 141 174 68 139 175 66 137 176 65 136 178 63 135 179 60 134 180 59 134 182 57 132 183 55 132 183 55 132 183 55 133 184 56 134 186 57 134 187 58 134 186 59 132 185 116 169 159 115 170 162 115 171 165 115 171 168 114 169 169 114 169 170 112 169 170 112 170 173 111 169 174 111 168 173 110 167 172 109 166 170 108 165 169 107 163 169 105 163 168 103 161 168 101 160 167 99 160 167 96 160 165 91 160 165 89 160 164 86 159 163 83 159 163 82 157 163 82 157 164 80 156 165 79 156 166 79 155 168 77 154 170 77 152 170 75 150 171 73 148 173 72 146 175 70 143 175 68 142 175 68 141 175 66 140 175 65 138 176 62 135 177 61 134 178 58 133 180 57 134 182 55 133 183 54 132 183 53 132 184 53 133 184 54 133 185 55 133 185 56 133 185 56 132 185 115 170 159 113 171 161 113 172 165 113 171 167 112 170 168 112 170 168 111 170 170 111 171 172 110 170 172 109 170 171 108 169 169 108 168 169 107 166 170 105 163 169 102 163 168 100 162 168 98 160 168 97 159 167 94 159 166 91 159 165 89 158 163 85 158 164 82 157 163 80 155 163 79 156 164 78 155 164 77 154 166 76 153 167 75 153 169 76 151 171 73 149 171 71 147 172 71 145 174 69 142 175 67 141 176 66 139 176 64 138 176 62 137 176 60 135 177 59 133 179 57 133 180 55 133 182 54 133 183 53 133 184 52 132 185 51 133 185 52 133 185 53 133 186 53 132 186 54 131 185 113 170 158 111 171 160 110 172 163 109 172 165 108 170 166 108 171 167 108 171 168 108 171 170 108 171 171 106 170 171 104 169 169 103 167 170 103 165 170 101 164 169 99 162 169 97 160 168 95 158 168 95 158 167 93 158 166 91 157 165 88 157 163 85 157 163 82 156 164 79 154 164 77 155 163 75 154 165 74 152 165 73 152 167 73 151 169 73 150 170 71 148 171 70 147 172 68 145 173 66 142 174 66 140 175 64 139 177 62 138 177 59 138 177 57 136 178 56 134 179 54 135 180 53 134 182 52 133 184 51 134 185 50 134 184 50 134 184 49 133 185 50 132 186 52 131 186 53 130 186 111 172 157 110 172 158 109 172 160 107 172 163 104 172 165 103 171 167 103 170 169 103 170 171 103 170 172 102 169 172 101 168 171 99 166 169 98 164 170 97 164 169 95 162 168 93 157 167 92 156 166 92 156 166 90 155 165 89 155 165 86 155 164 82 155 163 79 153 163 75 152 163 74 153 165 73 152 166 71 151 167 70 151 166 70 151 168 70 150 169 68 148 169 66 146 170 65 144 172 63 141 173 63 140 175 61 139 177 59 139 177 58 139 177 56 137 178 54 134 179 52 135 180 51 135 182 49 134 185 48 135 185 48 134 185 49 133 185 48 132 185 48 132 186 49 130 187 50 128 187 109 174 156 108 173 157 106 172 159 104 172 162 101 172 166 99 171 168 98 170 170 99 169 171 99 169 173 99 168 171 97 168 170 96 166 169 94 165 169 92 163 169 91 160 168 90 156 166 89 154 166 88 153 165 86 154 165 85 154 165 83 154 165 80 154 165 76 152 164 73 152 164 72 152 166 71 151 167 70 151 168 68 150 167 67 150 167 66 149 168 65 148 168 64 146 169 62 144 170 61 140 173 60 140 175 59 140 175 56 140 175 55 139 176 54 137 177 52 135 179 50 135 180 49 134 183 48 135 185 47 135 187 46 133 186 47 132 187 48 131 187 46 131 189 47 129 189 47 128 189 108 175 156 105 174 158 104 172 160 102 171 163 99 171 165 96 169 167 95 169 170 94 169 171 94 168 172 93 168 171 93 167 170 92 165 169 91 163 169 88 161 168 87 158 166 88 155 166 86 153 165 85 153 165 83 153 165 81 153 165 79 153 165 77 152 165 74 151 164 71 151 165 70 150 168 68 150 168 67 150 168 66 148 168 64 148 168 63 148 168 62 147 169 61 144 169 59 142 171 59 141 172 58 140 173 56 140 173 55 140 174 54 139 175 53 138 176 51 137 178 49 136 179 47 136 183 45 135 186 44 133 187 43 131 188 45 131 188 45 130 189 46 130 191 45 129 192 45 127 192 106 174 157 103 174 158 100 173 159 99 171 162 97 171 164 93 169 167 91 167 169 90 167 171 90 167 171 89 167 170 89 164 169 89 164 169 87 163 167 85 160 165 84 157 165 84 155 165 84 153 165 81 153 165 79 153 165 77 153 165 76 153 165 74 152 165 72 150 164 70 149 166 68 149 167 66 149 168 65 150 168 64 148 168 62 147 168 62 148 167 60 146 168 59 144 170 59 142 172 58 139 173 57 138 174 55 139 173 54 141 174 54 140 175 53 139 176 52 138 177 50 139 180 48 137 184 45 135 186 43 133 187 42 131 188 44 131 189 44 130 190 43 130 193 44 128 194 43 127 193 105 173 156 102 173 159 99 172 160 96 170 161 94 170 164 91 169 166 89 168 168 89 167 169 88 166 170 88 164 169 87 163 168 86 162 167 84 162 165 82 160 163 80 158 164 81 155 165 81 153 165 78 154 165 76 153 166 75 152 165 72 152 165 70 151 166 70 151 166 67 149 167 66 149 168 65 149 169 63 149 168 62 148 168 61 147 168 60 146 167 59 145 168 58 143 170 59 142 172 59 140 174 58 140 174 56 140 173 54 141 175 54 142 177 53 140 177 52 139 178 51 139 180 50 138 183 47 136 185 44 134 188 43 132 190 42 130 191 43 130 193 42 129 195 41 128 195 40 127 194 104 171 156 102 172 158 98 170 159 95 170 160 93 170 164 91 169 166 89 169 168 88 168 169 86 165 169 85 164 169 85 163 167 83 162 166 80 161 165 78 160 163 77 158 164 76 156 165 77 154 164 75 154 165 74 153 165 73 152 165 70 150 166 69 151 165 68 151 166 66 150 168 64 150 169 63 149 169 61 149 169 60 148 169 59 146 168 59 145 167 59 144 168 60 142 170 61 141 172 60 140 174 59 140 174 57 140 174 55 141 175 54 141 178 53 140 179 52 140 181 51 139 181 51 138 183 49 135 185 46 133 188 44 131 192 43 130 193 41 130 195 40 129 196 39 128 195 39 127 195 105 171 156 103 172 157 99 171 158 96 171 160 93 170 162 90 170 165 89 171 167 87 169 168 86 167 169 83 165 168 82 163 166 82 161 165 79 160 164 76 160 163 74 159 162 73 156 164 74 155 164 73 154 165 71 152 164 70 152 164 69 151 165 67 152 165 66 151 166 65 151 168 64 151 169 62 150 170 61 149 170 60 147 170 59 146 169 60 143 168 61 142 168 61 141 170 61 140 172 61 140 174 59 139 175 58 139 177 56 139 178 55 140 178 53 140 180 51 140 183 51 139 182 51 138 183 49 135 186 46 133 189 44 131 191 42 130 193 40 130 196 38 130 196 36 128 196 37 127 197 106 171 157 102 171 157 98 171 157 95 172 159 93 172 162 90 171 165 89 171 166 87 170 166 86 169 167 83 166 166 81 163 165 80 160 164 77 159 163 75 159 162 74 158 162 73 157 164 72 156 165 70 154 164 68 153 165 68 153 164 68 153 164 66 153 165 65 152 167 64 152 169 63 152 169 62 151 170 62 150 170 62 147 170 61 145 170 62 143 169 64 142 169 62 143 171 61 141 172 61 140 174 60 139 176 58 137 178 57 137 180 56 138 180 53 139 182 51 139 184 49 139 184 48 138 185 47 136 187 45 134 188 44 132 190 42 131 192 40 131 194 37 130 196 35 129 198 34 128 199 106 170 158 103 171 160 99 171 159 96 172 160 93 171 162 90 171 164 88 170 165 86 169 166 84 169 166 82 168 164 80 164 164 78 161 164 76 159 163 74 158 162 74 157 162 73 156 162 71 155 164 68 154 165 66 153 165 66 154 164 66 154 164 67 153 165 66 152 168 64 153 170 62 153 169 62 152 169 63 151 170 63 148 171 63 145 171 65 144 170 65 145 170 64 145 172 62 142 173 61 141 175 60 139 178 57 137 180 57 136 180 55 137 181 51 138 183 50 138 185 48 138 186 48 137 186 46 137 186 45 135 187 44 134 189 42 133 190 39 132 192 36 131 194 34 129 197 32 128 198 106 171 159 103 171 160 100 171 160 98 171 161 94 171 162 91 170 163 89 169 164 86 168 165 84 169 165 82 168 164 80 165 163 79 162 163 77 160 162 75 158 162 74 157 161 73 156 162 71 155 164 68 154 165 67 153 165 66 154 164 66 153 165 67 153 167 67 152 169 65 152 170 64 153 170 63 153 169 64 152 170 64 149 171 65 147 171 66 147 171 65 147 172 64 146 174 63 143 175 61 142 177 60 138 179 57 136 182 56 137 182 54 137 183 52 137 183 50 137 185 49 138 186 48 138 186 46 137 187 45 136 187 44 135 188 42 135 190 38 135 192 36 133 194 34 130 196 33 131 198 106 172 160 103 171 161 101 171 162 98 171 162 94 170 163 91 169 163 88 169 164 87 168 165 85 168 165 83 167 164 81 164 163 79 162 162 76 159 161 75 157 161 74 157 160 73 157 161 72 157 163 68 155 163 66 154 164 67 154 164 67 153 165 67 154 167 68 153 169 66 152 171 66 153 171 66 153 171 66 152 172 65 150 171 66 149 172 67 148 173 65 147 174 63 145 176 62 144 178 60 142 180 59 139 182 58 138 184 56 138 184 55 136 184 54 135 185 52 136 185 51 136 186 50 137 187 47 138 187 45 137 187 44 137 189 41 136 191 38 136 193 37 134 194 35 132 197 34 132 198 106 173 163 103 172 163 101 172 163 98 171 163 94 171 163 90 170 163 88 170 165 86 169 165 85 168 165 82 166 164 81 163 163 77 162 163 76 159 162 75 157 162 75 158 161 74 158 161 71 157 161 68 155 162 67 155 164 67 154 165 67 154 166 68 155 168 68 153 170 68 152 172 67 153 173 67 152 173 68 151 173 67 151 173 66 150 174 66 149 175 64 149 177 63 147 179 61 145 181 60 143 182 59 139 185 58 138 186 57 138 186 56 137 186 54 135 186 53 136 187 52 136 188 50 138 188 47 138 188 45 137 189 44 137 189 42 138 192 40 137 193 38 136 194 38 134 196 36 133 197 106 174 162 103 173 163 101 174 164 98 173 163 93 173 162 90 172 163 87 171 164 86 170 165 83 169 164 80 167 163 78 164 162 76 162 162 75 159 162 75 158 161 75 157 161 73 157 161 71 157 161 69 157 161 68 156 163 66 155 166 66 155 168 67 155 169 68 154 170 69 152 172 68 152 174 68 153 174 69 153 174 68 152 175 67 151 175 65 150 177 63 149 179 63 147 181 62 145 183 61 142 185 61 140 187 59 139 188 58 138 189 56 138 190 55 137 190 53 136 190 51 136 190 49 138 190 48 139 190 46 139 190 45 138 191 43 137 193 42 137 195 41 136 195 39 135 196 38 132 197 106 174 162 103 175 163 100 176 163 96 175 161 93 174 161 89 172 163 85 171 163 83 171 164 82 170 164 79 169 164 76 167 162 74 163 161 74 160 162 74 158 162 74 157 161 72 157 161 71 157 162 70 156 162 69 156 163 67 155 165 66 156 167 67 156 169 67 155 170 69 154 173 69 153 175 69 154 175 69 154 176 68 153 177 65 152 177 65 151 179 64 149 182 63 148 183 63 144 185 62 142 188 61 141 189 60 140 190 58 140 191 56 139 192 54 138 193 52 137 193 51 136 193 49 138 193 48 140 192 47 140 193 45 139 194 44 137 195 44 136 196 43 135 195 41 134 196 41 132 199 105 175 160 102 176 161 99 175 161 95 176 161 92 174 161 89 173 161 85 172 162 82 170 162 80 169 162 79 169 162 76 168 161 74 165 161 73 163 161 75 160 161 74 158 161 73 157 161 72 157 161 70 156 161 69 156 162 67 154 163 67 155 166 68 155 169 68 155 170 70 156 172 70 155 175 68 154 176 68 154 177 67 152 177 64 151 178 63 152 181 64 150 183 63 148 184 63 145 186 62 144 188 60 141 190 58 141 191 55 140 192 53 138 194 53 138 195 52 138 196 51 139 196 49 140 194 47 141 195 45 141 196 45 140 197 44 139 197 45 137 197 45 134 197 44 133 199 43 132 200 104 174 158 101 175 161 100 175 161 96 175 161 92 174 162 89 174 162 85 172 162 82 170 162 79 169 161 77 169 160 75 168 160 74 166 160 74 163 160 74 161 160 74 159 159 72 158 160 71 157 161 70 156 160 69 156 161 67 155 163 67 155 164 68 155 167 69 155 171 70 156 172 70 156 175 69 155 177 68 154 178 66 152 178 64 151 179 64 151 182 64 149 184 63 148 185 61 145 186 61 144 189 59 142 190 56 141 192 53 141 193 52 140 193 51 139 195 51 141 196 51 143 197 49 143 197 46 144 198 45 144 198 45 143 198 45 141 198 45 137 198 45 134 198 45 133 199 45 132 200 104 175 158 101 176 160 99 176 161 97 176 161 92 175 162 88 174 162 85 172 162 81 170 162 78 170 160 76 169 158 75 168 158 74 167 158 75 165 158 74 162 159 73 161 158 72 159 159 70 157 160 69 156 160 67 155 161 68 156 163 68 156 165 68 156 167 69 157 170 69 158 174 68 157 175 68 156 176 67 154 178 66 153 180 64 152 181 62 151 183 62 150 185 62 148 187 61 145 188 60 144 190 58 142 191 55 141 192 53 142 192 51 141 193 51 140 195 51 142 196 51 145 197 48 145 198 45 146 198 44 145 199 44 144 198 45 142 197 45 138 197 45 136 198 45 134 198 45 132 199 104 176 159 101 177 160 97 177 160 95 176 162 92 176 163 88 175 163 84 174 162 81 172 161 78 171 158 76 170 157 75 170 156 75 169 157 76 166 157 74 164 158 72 163 158 72 162 158 70 159 159 68 157 159 67 156 161 67 157 163 67 157 165 67 158 167 68 158 169 68 159 172 67 158 175 66 157 176 65 155 179 64 154 180 64 153 182 62 153 183 62 151 186 62 148 188 61 146 190 60 145 192 58 143 192 55 142 192 53 140 193 50 140 194 51 141 194 51 143 195 50 146 197 48 147 197 47 146 198 45 146 197 44 144 197 45 142 197 45 139 196 46 137 197 45 135 198 45 133 200 103 177 158 101 178 160 97 178 160 94 177 161 92 178 162 89 177 162 85 175 160 83 173 159 80 171 157 77 171 156 75 170 156 74 170 156 74 168 156 74 166 156 72 165 156 71 164 157 70 160 158 69 158 158 68 158 160 67 158 162 66 158 165 66 158 166 67 158 170 67 159 172 66 157 174 65 156 176 63 156 178 62 155 180 62 155 182 61 153 184 61 152 187 60 151 189 58 149 191 57 146 191 57 144 191 55 143 192 52 142 192 51 142 193 50 142 194 50 144 194 48 147 195 48 148 196 48 147 195 48 146 195 45 145 195 45 142 195 46 140 195 46 137 195 46 136 197 46 135 200 103 176 157 99 178 158 97 178 158 95 178 160 93 179 159 90 178 160 85 176 160 83 174 158 82 173 157 78 172 156 76 171 156 74 171 155 74 170 154 74 168 155 73 167 156 71 166 157 71 163 158 69 161 158 68 159 159 67 159 161 66 158 165 64 158 167 65 156 169 65 158 171 64 157 172 63 156 174 62 155 177 60 156 178 59 156 181 59 154 184 58 154 188 57 153 190 56 152 191 56 148 191 55 146 191 54 146 190 51 146 191 51 145 192 50 146 193 49 146 194 47 148 195 48 149 195 47 147 194 47 146 193 47 146 194 45 144 193 46 141 193 46 138 194 46 136 196 46 135 198 103 175 155 100 177 156 98 178 157 96 178 159 93 179 159 90 178 160 87 177 159 84 175 158 82 173 156 80 173 155 78 173 154 76 172 155 74 171 154 75 170 154 73 167 156 72 166 157 71 164 157 70 161 158 69 160 159 67 159 162 64 158 165 63 156 167 64 156 168 62 156 169 63 156 171 62 155 173 60 155 175 59 156 178 57 157 180 58 156 183 57 155 186 56 155 188 56 154 190 56 151 190 55 150 190 53 148 190 52 147 190 50 148 192 49 149 193 48 149 193 46 149 194 46 148 193 46 146 192 46 146 192 46 147 192 45 145 192 46 142 192 46 140 193 45 137 195 45 136 196 104 176 156 101 176 156 99 178 157 97 178 158 94 179 159 90 179 158 86 178 157 84 177 156 83 174 155 81 174 155 79 174 155 78 173 154 76 170 154 75 169 155 73 169 155 72 168 156 72 166 156 72 163 157 71 160 161 68 159 163 64 158 165 63 157 166 62 156 167 61 155 168 61 156 170 60 155 170 59 155 173 58 157 175 56 157 178 56 157 180 56 156 184 56 156 186 57 155 188 56 154 188 54 152 190 52 150 190 53 150 190 51 149 191 50 150 192 48 150 192 46 149 191 46 148 191 46 146 191 46 147 190 46 146 191 45 145 191 45 143 192 45 140 193 45 136 193 45 135 195 104 176 156 102 176 155 99 177 156 96 179 157 93 179 158 90 179 158 86 179 156 83 177 155 82 176 155 80 174 155 79 173 155 78 173 155 77 171 155 75 170 155 74 170 155 72 169 155 73 167 156 73 164 158 71 161 160 68 160 161 65 159 164 63 159 164 60 158 165 59 157 166 58 157 168 58 156 169 58 156 171 56 156 173 56 156 176 54 157 180 55 156 182 56 154 185 57 154 186 55 154 188 54 153 189 53 151 190 52 150 190 52 151 190 51 152 190 49 152 190 47 150 188 46 149 188 46 147 188 46 146 187 46 145 189 45 145 190 45 143 191 44 140 193 44 137 193 45 135 193 105 177 155 102 176 155 98 176 156 95 178 157 92 178 158 89 178 157 86 180 154 82 179 153 81 177 154 80 175 155 78 174 156 77 172 156 77 170 157 76 169 156 74 168 155 73 168 156 73 168 157 74 166 159 71 163 159 69 161 160 66 161 162 63 160 162 60 159 163 59 158 164 57 157 165 56 157 167 56 156 169 55 155 172 54 156 174 54 157 178 55 156 181 56 154 184 57 153 186 56 154 187 54 153 188 53 151 189 52 151 189 52 152 189 51 153 188 50 153 188 49 151 187 47 150 187 46 148 186 46 145 186 45 144 186 46 143 189 45 141 190 44 140 191 43 138 192 44 137 192 105 176 156 102 177 156 99 176 157 95 178 157 92 178 158 89 179 156 86 180 154 83 179 153 81 177 154 81 175 154 79 174 156 78 172 156 77 170 156 76 169 156 74 169 156 73 168 158 74 168 158 73 166 158 72 165 158 70 164 159 67 163 160 64 162 162 61 160 163 58 159 165 57 159 165 55 157 165 55 156 168 54 157 170 53 157 173 53 157 176 54 157 179 56 155 182 57 154 184 57 154 185 55 153 186 54 151 187 53 151 187 52 151 187 51 152 187 51 153 186 49 152 187 49 150 186 48 148 185 48 145 185 47 144 186 46 142 187 45 142 188 44 141 190 44 139 191 43 136 191 105 176 158 102 177 157 98 178 157 94 179 157 93 179 156 90 180 155 88 180 152 85 179 151 83 176 152 82 175 154 81 174 154 79 171 156 78 169 157 77 169 158 75 168 158 75 167 159 74 166 159 73 165 159 72 165 159 70 164 159 67 163 160 64 162 162 62 162 163 59 161 164 57 160 164 55 158 165 55 158 167 54 158 169 53 159 171 53 159 174 55 159 177 56 158 180 56 155 180 56 156 181 56 154 181 56 153 183 54 152 184 53 151 185 52 151 186 51 151 185 51 150 186 51 150 185 51 147 185 51 145 184 49 143 185 48 143 185 46 143 187 46 142 188 45 139 190 45 137 190 104 176 159 102 175 159 97 177 158 94 178 157 93 179 156 91 179 153 89 180 151 87 179 151 85 177 151 83 174 153 82 173 154 80 173 157 79 171 158 79 169 158 77 168 159 77 166 159 76 165 160 75 165 159 72 164 159 69 163 161 66 162 162 64 163 162 62 163 163 60 162 163 58 160 165 56 159 165 55 159 166 54 159 168 53 160 170 54 161 173 54 162 174 55 160 176 56 158 177 56 157 178 57 155 179 57 154 179 55 154 180 54 153 181 53 152 183 52 151 183 51 151 184 51 149 183 52 147 184 52 145 184 51 143 184 49 143 184 49 142 185 48 141 187 48 139 188 47 137 188 103 175 160 100 175 159 96 176 158 94 178 157 91 178 155 90 178 153 88 179 151 87 178 150 86 176 150 84 175 152 82 174 154 81 174 157 81 173 157 79 171 158 78 169 159 76 167 159 76 166 159 74 166 158 71 164 158 68 164 160 66 164 162 64 164 163 63 164 164 60 164 164 59 162 164 57 161 165 54 160 165 54 160 166 54 160 168 53 161 170 55 163 171 55 163 173 56 161 175 57 159 176 57 158 177 57 157 177 55 155 179 54 154 180 54 153 181 53 151 181 51 150 181 51 149 182 53 146 182 52 145 183 52 143 183 51 143 183 50 143 185 50 141 187 49 139 188 47 137 188 