P3
50 50
255
95 151 86 96 150 87 98 151 89 99 150 91 101 150 93 103 152 95 103 154 98 103 154 100 103 154 103 104 154 105 104 155 107 104 156 109 105 158 110 107 160 111 107 160 113 108 160 115 107 160 115 108 160 116 109 161 116 110 161 117 111 160 121 110 159 125 109 160 127 109 160 129 111 161 130 110 161 132 111 160 132 110 159 136 112 158 140 114 157 143 115 156 146 114 154 148 112 153 149 111 151 150 109 148 152 108 146 153 109 143 154 109 142 155 109 141 157 108 141 159 109 140 161 109 138 163 110 136 166 109 135 166 110 136 164 111 135 163 109 132 164 108 129 164 108 128 164 109 126 166 93 152 87 95 152 88 98 152 90 100 152 93 101 152 94 103 154 96 104 156 98 104 156 101 104 156 103 105 156 105 104 157 107 104 158 109 106 160 110 106 162 111 106 162 113 107 163 114 108 163 117 108 164 116 108 163 115 109 162 116 109 159 119 109 159 123 109 159 127 109 160 129 110 161 132 110 160 133 110 160 135 110 159 137 111 158 141 113 158 145 114 157 148 114 156 150 114 154 151 112 152 152 109 148 153 108 145 155 108 145 155 108 143 156 107 140 158 106 140 159 108 138 160 108 136 163 108 135 165 109 134 165 108 135 164 109 133 163 109 132 163 107 131 163 108 130 163 108 128 165 92 153 89 93 153 90 95 154 91 99 155 94 100 154 95 101 155 97 102 158 100 103 158 102 104 159 104 104 159 106 105 159 108 106 161 109 105 163 111 105 166 113 106 166 114 107 165 114 107 166 116 108 167 117 108 165 116 108 164 117 108 161 120 109 160 124 109 160 127 108 160 130 108 159 133 110 159 136 110 159 137 109 158 139 110 158 143 110 157 147 112 157 150 113 156 153 113 153 154 111 151 156 109 148 157 108 145 158 108 145 158 107 143 158 106 141 160 106 140 160 106 138 160 108 137 163 108 135 164 108 135 165 106 135 164 108 134 163 108 132 163 107 131 162 107 131 163 108 130 162 91 156 91 91 156 91 93 155 93 96 156 95 99 156 97 99 157 99 100 159 102 101 160 103 103 161 105 104 161 107 105 163 110 105 165 110 104 166 111 105 168 113 105 169 115 106 168 115 105 168 115 106 168 116 106 167 116 107 165 118 107 163 121 108 161 125 109 160 128 108 159 132 108 159 134 109 158 137 109 158 139 109 158 141 110 157 145 111 156 149 110 155 152 111 153 154 112 152 158 111 151 159 109 148 160 108 145 161 107 145 162 106 144 162 105 142 163 106 141 162 106 140 163 107 138 163 108 137 164 107 137 165 106 136 166 107 135 163 106 133 162 106 132 162 107 131 162 108 130 162 90 157 91 91 157 93 93 157 94 95 157 96 97 156 98 98 158 101 99 159 103 100 160 105 102 162 108 103 163 109 103 165 111 103 166 112 104 168 113 104 169 114 104 170 115 104 170 115 104 170 115 104 169 115 105 167 117 106 165 120 106 163 124 107 161 127 107 161 130 107 160 133 107 159 135 108 157 137 108 157 140 107 156 144 108 156 147 108 154 151 108 153 154 109 151 157 111 150 160 110 149 162 109 146 164 107 146 165 106 145 165 105 145 165 105 143 165 105 142 165 106 140 165 106 139 165 108 138 166 107 138 166 106 137 166 106 136 165 106 133 162 106 131 162 106 131 162 107 130 164 90 159 91 91 159 93 92 158 95 94 157 97 96 157 100 96 158 102 98 159 105 100 161 107 100 164 108 101 165 109 103 166 111 104 167 113 103 168 114 103 169 115 103 170 114 103 171 115 103 171 117 104 171 117 104 170 119 104 167 123 105 164 126 106 163 128 106 161 131 105 160 134 105 159 137 105 157 140 106 156 143 105 155 146 104 154 149 105 153 152 106 152 157 108 151 159 110 150 162 110 148 165 109 147 167 107 145 168 106 145 167 106 144 166 106 144 166 105 143 167 105 141 167 105 140 167 105 139 168 106 137 169 106 136 168 106 134 166 106 133 163 105 131 162 106 131 162 107 130 163 91 161 92 90 161 94 91 160 95 93 159 98 95 158 100 96 158 103 98 160 104 99 164 107 99 166 109 100 167 109 102 168 111 103 167 114 103 167 114 102 168 114 102 170 114 102 171 116 102 171 117 102 171 119 102 170 121 103 168 125 103 166 128 105 163 130 105 162 133 104 160 137 104 158 139 104 156 143 103 155 146 103 154 149 102 154 151 103 153 155 104 152 159 106 151 160 108 150 163 108 149 167 107 148 168 107 146 169 107 146 169 106 145 168 105 145 167 104 143 168 104 142 169 105 141 171 105 139 170 105 137 170 105 134 169 106 133 169 105 131 166 105 131 164 105 131 163 106 131 163 91 161 94 90 161 94 90 161 96 93 161 99 94 159 101 95 160 102 97 163 104 98 166 106 99 168 108 99 168 108 100 168 112 101 167 114 103 167 115 102 168 116 100 169 116 100 170 118 100 170 119 100 170 121 100 170 123 101 168 126 102 167 130 103 165 133 103 163 136 103 161 139 103 158 142 102 155 145 101 154 147 101 154 150 102 154 153 102 155 156 103 154 160 105 152 161 106 151 165 106 150 168 105 147 170 105 147 172 105 146 172 105 146 171 104 145 170 103 143 171 104 141 172 104 140 173 105 139 172 104 137 171 104 135 171 105 133 170 104 131 168 105 132 167 106 133 165 106 133 164 90 161 94 90 162 95 89 162 96 91 161 98 93 160 99 95 161 101 97 165 103 99 166 104 99 167 106 100 168 109 100 168 112 101 167 114 101 167 116 101 168 117 99 168 118 99 167 120 99 168 121 99 168 124 99 168 125 100 168 128 101 166 131 102 165 135 102 164 138 101 161 142 101 157 144 101 155 146 100 154 149 99 153 151 100 154 153 100 154 156 100 153 159 102 152 162 103 152 165 102 151 168 102 149 171 102 148 173 103 148 173 103 147 173 103 145 173 103 144 174 102 142 175 102 140 174 102 139 173 102 138 172 103 135 172 104 133 171 104 131 170 105 132 169 106 134 167 106 135 165 87 161 95 87 161 95 88 161 96 90 161 96 92 162 98 95 162 100 97 165 102 98 166 104 99 167 105 100 168 108 100 168 111 100 167 113 99 168 115 98 167 117 97 166 120 97 166 121 98 165 124 97 166 127 97 167 129 98 166 132 100 165 135 100 164 138 100 163 141 100 161 145 99 157 147 99 155 149 99 155 152 98 154 153 99 153 155 99 153 157 98 153 160 98 152 162 100 151 166 100 150 169 99 150 172 100 149 173 101 148 174 101 145 175 99 144 175 100 143 175 99 142 175 99 140 174 99 138 174 99 138 173 101 135 171 102 133 170 104 133 170 104 133 171 105 134 169 105 135 167 85 161 96 85 161 96 86 161 97 89 162 96 92 162 98 95 163 101 97 165 102 98 166 102 99 167 103 99 168 107 100 167 111 100 166 113 97 166 115 96 166 117 97 164 120 96 163 123 96 163 127 97 163 129 98 164 132 98 164 134 100 163 138 100 162 141 98 161 144 98 159 147 97 157 149 97 154 152 98 153 154 97 153 155 97 151 157 97 152 159 96 152 160 95 153 162 96 152 166 96 151 169 95 151 172 97 149 174 98 147 176 98 146 177 97 144 177 97 143 176 96 142 176 95 141 175 96 139 176 97 138 174 98 136 172 100 134 172 101 133 171 102 133 172 103 134 171 103 135 169 85 161 95 85 162 96 85 162 97 88 163 98 92 163 99 94 164 101 96 164 101 97 166 101 98 165 104 99 165 107 100 165 110 99 166 112 97 166 115 95 165 118 96 164 122 95 162 125 96 160 128 97 161 131 99 162 135 99 163 137 98 162 141 97 160 143 98 158 145 97 157 149 96 156 151 96 153 154 96 151 156 95 151 157 95 151 158 94 153 160 93 152 162 92 153 165 92 154 167 92 152 169 91 150 173 93 148 176 94 147 177 94 146 179 93 145 179 93 143 178 92 142 177 91 140 177 92 139 177 93 139 176 95 137 175 97 136 174 98 135 173 100 134 173 102 134 173 102 134 170 84 162 95 84 162 97 85 162 98 87 162 100 90 162 100 93 162 100 94 163 102 96 164 103 98 164 105 98 164 108 99 165 110 98 165 113 96 165 117 94 163 120 95 162 123 94 161 127 94 159 130 96 159 134 97 159 137 98 160 140 97 159 142 95 158 145 96 156 147 96 154 150 95 153 153 94 151 156 94 151 158 94 150 159 94 151 160 93 153 163 91 153 167 90 152 169 89 152 170 89 151 172 88 149 176 89 148 179 91 146 180 91 146 181 90 145 180 90 143 179 89 141 179 89 141 179 89 139 179 90 138 178 92 137 176 94 136 175 96 135 174 98 135 174 99 134 173 99 134 171 84 163 96 84 162 97 85 161 98 86 160 100 88 159 101 91 161 102 93 162 103 95 162 104 97 162 105 98 163 107 98 163 109 97 164 113 95 163 116 95 162 121 94 160 124 93 159 127 93 160 130 94 160 135 96 159 139 96 159 141 94 158 142 93 157 145 93 156 148 94 153 151 94 151 154 93 150 157 93 151 160 92 150 162 91 150 163 89 152 166 88 153 169 87 152 172 87 152 174 86 150 176 85 148 178 86 146 180 86 146 181 87 146 181 87 146 181 87 143 180 87 142 179 86 141 180 87 139 180 87 139 180 88 138 179 90 137 177 92 135 176 94 135 175 97 133 174 97 134 172 85 164 96 84 163 98 84 160 100 86 158 100 86 158 102 87 158 104 90 159 105 92 160 106 95 160 106 96 161 108 96 161 110 96 161 113 95 162 117 93 161 121 93 159 124 92 158 128 92 159 132 92 159 136 93 159 139 93 159 142 93 158 145 92 157 148 92 155 150 93 151 153 92 151 155 91 150 157 91 149 160 90 150 163 88 150 166 86 152 169 86 153 172 85 152 174 84 151 176 83 150 179 82 148 180 83 147 181 83 146 182 83 146 181 83 146 181 84 145 181 85 142 180 85 140 181 85 140 183 86 141 181 88 140 181 90 139 179 91 138 178 93 135 177 95 134 174 97 133 173 85 164 97 84 162 99 84 160 101 84 158 102 85 157 102 86 157 103 88 158 105 90 158 106 93 157 106 95 158 108 95 159 110 95 159 114 95 158 118 93 158 121 92 158 125 92 158 129 91 159 133 91 159 137 92 158 140 91 157 144 92 156 147 92 156 149 91 153 152 91 151 154 90 150 156 90 150 158 88 149 161 87 149 163 87 150 167 85 151 170 85 151 174 83 150 175 82 149 177 82 148 180 81 148 182 80 147 182 79 147 184 79 147 183 80 147 182 81 144 182 81 142 182 81 141 183 82 140 182 84 141 181 85 141 180 88 140 180 90 139 180 92 136 178 93 135 175 95 135 172 84 164 97 84 162 100 83 160 101 83 158 102 83 157 103 86 157 104 87 156 105 89 156 106 93 156 106 94 157 108 94 156 111 94 157 115 94 157 119 93 156 122 92 156 127 92 156 130 91 157 134 91 158 137 91 157 141 91 156 144 91 155 148 90 153 151 89 152 154 88 151 156 88 150 158 85 150 160 84 150 163 84 150 165 83 151 169 81 150 173 83 150 175 82 149 177 81 148 179 79 147 180 78 147 182 76 146 185 76 146 186 77 146 185 77 146 184 77 145 184 77 142 184 77 142 183 79 141 182 81 142 181 83 141 181 84 140 182 88 139 182 89 137 179 90 137 177 93 137 174 84 164 98 83 162 100 82 160 101 82 158 103 83 157 104 85 157 105 86 155 105 88 156 106 91 156 107 91 156 109 91 155 113 92 155 117 93 156 120 92 156 124 90 155 128 92 156 131 92 156 134 91 157 137 91 157 142 91 155 146 89 154 149 88 153 153 87 151 156 86 150 159 85 149 160 84 150 163 82 150 165 81 150 167 79 150 171 78 149 174 80 147 176 80 148 179 80 147 181 78 146 183 75 146 184 73 146 186 72 145 187 74 146 186 74 145 186 74 144 186 75 143 185 76 142 185 77 143 184 79 143 183 80 143 182 83 142 183 86 141 183 87 139 182 89 138 180 91 138 178 83 163 100 83 162 101 82 160 101 82 158 104 83 158 105 83 157 106 84 156 106 86 155 107 89 156 109 90 156 112 90 154 115 90 155 119 90 156 122 90 155 126 90 156 129 90 156 132 91 155 134 90 155 137 89 154 141 88 152 147 87 153 150 86 153 153 85 151 155 83 151 159 82 149 161 81 150 165 79 150 168 78 149 170 77 148 173 76 149 174 77 148 177 78 147 181 78 146 183 76 146 184 73 145 186 71 144 187 72 143 188 72 144 188 72 144 188 72 144 187 73 143 186 75 143 187 76 144 186 77 144 184 79 143 183 82 142 183 85 141 183 85 139 183 86 138 182 87 137 179 81 162 101 82 161 102 82 159 103 82 159 105 81 158 106 82 157 107 84 156 108 85 155 111 87 155 112 88 155 114 89 154 118 89 154 120 89 154 123 89 155 127 88 155 130 88 155 132 88 154 134 87 153 136 85 151 140 84 150 146 84 151 150 83 151 152 83 151 155 81 150 159 79 149 162 77 149 166 76 149 169 75 148 171 75 147 174 74 147 176 74 147 179 75 146 182 75 145 183 73 145 185 71 144 187 70 142 188 71 141 188 71 142 189 72 143 190 71 144 189 71 143 188 74 143 188 75 143 187 76 143 186 78 141 186 81 140 185 82 140 184 82 139 184 83 137 184 83 136 182 79 164 102 80 163 104 81 161 106 80 160 108 80 159 109 80 157 110 82 155 112 84 154 113 84 153 115 85 153 116 87 153 119 88 152 121 88 152 124 87 152 127 86 153 130 85 153 132 84 153 134 83 151 138 81 150 141 79 149 145 79 149 149 78 150 153 77 151 155 78 150 159 75 148 163 73 147 166 73 148 169 71 147 172 72 146 175 71 146 178 72 145 180 72 144 182 71 143 183 71 143 185 70 141 187 69 141 189 70 140 189 71 141 190 71 142 191 70 143 190 72 142 189 73 142 190 74 142 189 75 141 188 77 140 187 79 139 186 80 139 185 82 139 184 82 138 185 82 136 184 77 165 104 79 164 106 79 161 108 78 159 110 78 158 111 78 156 113 79 155 115 81 152 115 82 150 116 84 150 118 87 150 120 87 149 123 87 149 125 85 150 127 84 152 130 82 152 133 80 150 135 78 149 139 77 149 142 76 147 145 75 146 150 74 148 152 73 148 156 73 148 160 71 147 163 70 148 167 69 147 170 68 147 174 68 146 176 69 145 179 69 145 180 69 142 182 68 141 185 69 140 187 69 138 188 69 137 189 70 136 190 70 137 191 71 140 191 71 140 190 72 140 189 73 140 189 73 140 189 74 139 188 76 138 186 77 137 185 79 137 186 80 138 186 80 137 187 79 136 186 75 164 106 77 163 109 77 162 111 77 159 112 77 157 113 77 155 114 77 153 115 79 151 117 81 147 118 83 146 120 85 147 122 85 146 124 85 146 126 84 146 128 81 147 131 79 149 135 77 149 138 75 148 140 74 147 143 71 145 146 70 144 151 69 145 154 68 145 157 67 146 160 66 147 164 66 146 167 65 146 171 65 146 175 66 146 178 67 146 180 66 144 181 66 142 183 66 141 185 67 139 187 67 136 188 68 135 189 70 134 190 70 133 192 70 136 192 72 137 190 71 137 190 72 138 190 72 136 189 73 136 188 74 135 186 76 134 186 78 135 186 79 137 187 78 137 188 77 136 188 73 164 109 74 163 111 76 161 113 76 158 113 76 157 114 75 155 115 76 153 117 77 150 119 79 147 121 80 144 123 83 145 124 83 144 125 82 143 127 81 143 129 80 143 132 78 145 137 75 145 140 72 145 141 71 145 143 68 143 147 66 143 151 66 143 155 64 144 159 63 146 162 62 147 165 63 145 168 63 145 171 64 145 175 64 144 179 64 143 181 65 141 181 65 140 182 66 139 184 66 137 187 68 134 187 69 133 189 70 132 190 70 131 192 71 132 192 71 134 192 71 134 191 73 135 190 74 134 189 75 133 187 74 134 188 75 132 187 77 132 187 76 134 189 77 136 189 77 136 189 73 163 110 73 161 113 74 159 115 74 157 116 75 156 117 74 154 118 74 153 120 75 151 121 77 148 123 78 144 124 80 144 125 82 143 126 80 141 128 79 142 131 77 142 135 75 142 138 72 142 141 71 143 143 69 143 144 66 142 148 64 141 152 63 141 156 61 144 161 60 145 164 59 145 168 60 145 170 61 144 173 62 144 176 63 143 179 63 141 181 65 139 182 66 138 183 67 137 185 68 136 186 68 133 187 69 131 189 70 130 191 70 129 192 71 130 192 71 130 192 72 132 191 73 133 191 76 132 189 77 132 188 76 131 189 76 129 188 76 130 188 76 131 189 76 132 190 77 134 188 72 161 111 72 159 114 72 157 116 72 155 118 73 154 119 72 152 120 72 152 122 73 150 123 75 147 125 77 145 127 78 143 128 78 142 128 77 141 130 76 141 133 75 142 136 73 141 138 69 141 140 69 141 142 68 141 145 65 140 149 63 140 153 60 141 158 59 142 163 58 143 167 57 143 169 58 143 173 61 143 175 62 142 177 64 142 179 64 140 180 64 138 182 66 137 183 68 135 185 68 134 186 69 132 187 69 129 189 69 129 191 70 128 192 72 128 192 72 129 192 73 130 191 74 131 191 76 129 190 77 128 189 77 127 190 77 126 190 76 127 188 76 128 188 77 129 189 76 131 188 72 159 112 72 159 115 72 156 117 71 154 120 71 151 120 70 150 121 70 149 124 72 148 126 74 147 128 74 145 130 74 143 131 75 143 131 73 141 132 73 141 134 72 140 136 71 140 139 68 140 140 67 140 142 67 140 145 64 139 150 61 138 155 58 139 161 57 140 164 57 142 169 56 141 171 57 140 174 60 141 177 61 141 179 63 140 180 63 139 180 64 137 182 65 136 184 67 134 185 67 131 187 68 129 189 69 127 190 69 127 192 70 126 193 72 127 192 71 127 192 72 127 191 73 127 191 74 126 191 74 124 191 76 123 191 76 124 190 77 125 189 76 126 188 76 126 188 76 128 188 72 157 113 72 156 116 71 154 119 71 153 121 71 150 122 70 147 122 70 147 124 71 146 127 71 145 130 71 144 133 71 144 133 71 143 133 71 141 134 70 140 135 71 141 138 69 140 141 68 140 143 67 141 144 65 142 146 62 140 152 59 139 157 57 139 162 56 139 166 56 140 170 57 140 173 57 140 176 59 141 179 60 140 181 61 139 181 61 137 181 62 135 184 65 135 184 67 133 186 66 130 188 66 127 191 68 127 192 68 125 192 71 125 192 71 125 193 71 124 192 72 123 191 72 123 191 73 121 192 74 120 191 75 120 191 76 122 190 76 123 189 76 124 187 76 125 186 76 127 186 72 155 113 72 154 115 72 153 119 70 151 122 71 148 122 70 146 123 70 145 125 70 144 127 69 143 131 68 142 134 69 143 135 69 143 136 69 141 137 68 140 138 68 140 140 67 140 143 66 140 144 66 141 146 63 142 149 60 141 153 58 140 158 56 139 164 56 139 168 56 139 172 56 139 175 56 138 178 57 140 181 57 140 183 59 139 183 60 137 182 61 134 184 64 133 185 65 131 187 66 129 189 67 128 191 67 126 192 69 125 193 70 124 192 72 123 192 71 122 193 72 120 192 71 120 192 72 119 192 73 118 192 75 118 192 75 119 191 76 120 189 76 123 188 76 124 186 77 125 185 73 154 114 73 153 117 73 151 120 72 150 122 71 147 123 71 145 124 70 144 125 68 143 128 67 142 132 66 143 135 67 142 137 67 142 139 67 141 140 67 140 141 66 139 143 66 139 145 65 140 146 64 140 148 62 141 152 61 141 156 58 141 159 57 139 165 57 138 169 56 138 173 55 138 177 55 138 180 55 138 182 55 139 183 56 137 184 58 135 184 60 133 186 62 133 186 64 130 187 65 129 189 66 127 192 67 126 193 69 125 192 71 124 191 72 122 192 72 120 193 72 119 193 71 117 192 70 116 193 72 117 193 75 117 192 75 116 190 76 118 189 77 121 187 78 123 187 78 125 185 74 152 116 73 151 119 73 149 121 73 148 123 73 147 124 72 145 125 70 144 127 67 144 130 66 144 134 65 143 137 67 143 140 65 141 141 65 140 142 65 139 144 65 138 145 64 140 148 63 141 151 62 141 152 61 142 154 61 142 157 59 141 160 57 140 164 57 138 168 55 139 173 54 139 178 52 139 181 53 139 183 52 138 185 54 138 186 57 137 186 59 135 186 60 132 187 63 130 188 64 129 189 65 127 191 66 126 192 68 125 192 70 123 192 72 122 193 72 120 194 72 117 194 73 115 193 72 115 193 72 114 192 74 115 191 76 116 190 77 117 188 77 120 188 78 123 186 78 125 185 75 150 118 74 148 120 74 147 123 73 147 125 74 146 124 73 145 126 71 145 129 69 145 132 66 143 136 65 142 139 65 140 142 66 140 143 64 140 144 63 139 145 64 140 147 63 142 150 61 143 154 62 143 154 61 142 156 61 141 159 59 141 162 58 140 165 57 139 169 56 139 173 53 140 178 52 140 183 52 140 184 52 139 186 53 137 188 55 137 188 57 135 188 59 131 189 61 129 190 63 127 190 64 127 192 66 126 192 67 124 193 69 123 193 72 121 193 71 119 194 72 118 194 73 115 194 73 113 193 73 113 193 74 113 192 77 115 191 78 118 190 79 120 188 79 123 187 80 125 186 77 149 119 76 147 122 75 146 124 75 146 125 74 145 126 73 143 127 70 143 130 68 143 134 66 142 137 65 139 140 65 139 143 65 139 146 64 140 147 63 140 148 63 141 150 62 142 152 62 143 156 61 142 157 61 140 159 60 140 160 59 140 163 58 141 167 57 142 171 56 141 175 53 141 181 52 141 184 52 140 186 52 139 188 53 136 190 53 136 190 55 134 190 57 133 191 60 130 192 62 128 193 64 127 194 66 126 195 67 123 196 69 123 195 70 122 194 71 121 195 72 119 195 72 115 193 72 113 192 72 113 192 74 114 191 77 114 189 79 117 190 80 120 190 81 122 188 81 123 186 79 148 120 79 146 123 76 145 125 75 144 127 73 143 128 71 142 129 70 142 131 68 141 135 67 140 138 66 138 140 65 138 144 65 139 148 64 140 150 62 139 151 61 140 153 61 141 155 60 141 157 59 140 160 59 139 161 58 139 162 59 140 165 58 142 169 57 142 173 56 142 177 54 141 181 52 140 185 52 139 187 52 138 189 52 136 191 53 135 193 54 134 192 56 133 194 58 132 196 60 129 196 62 127 196 64 125 197 66 124 197 67 122 196 69 123 196 70 122 196 71 119 195 71 115 194 71 113 193 72 112 192 74 113 190 78 114 189 79 116 190 81 119 190 81 119 189 80 120 187 80 146 121 78 146 124 76 144 127 75 143 129 73 141 130 70 141 131 69 139 134 68 138 136 66 138 139 65 137 141 64 137 145 63 138 149 62 139 151 62 139 154 60 140 155 59 140 157 58 139 159 57 138 162 56 137 163 57 138 165 57 139 168 57 140 170 56 140 173 55 142 178 54 141 182 52 139 185 51 139 188 51 137 190 51 135 192 53 134 193 53 134 194 55 133 195 56 131 198 58 129 198 60 128 198 63 125 198 65 124 198 66 123 198 67 124 197 68 123 196 69 119 195 69 116 195 70 114 193 71 112 192 73 112 191 76 113 189 78 115 190 80 118 191 81 117 190 82 118 187 80 144 123 78 144 125 77 143 127 76 141 129 73 139 131 70 138 133 68 137 135 66 136 138 65 136 140 63 136 143 63 137 147 62 137 150 62 138 152 61 139 155 60 139 158 58 138 159 57 138 160 56 138 163 55 137 165 56 137 167 56 140 169 56 139 171 54 138 175 54 139 178 52 139 183 51 138 186 50 137 189 51 137 192 51 136 193 51 135 194 53 134 195 54 133 196 55 131 198 57 130 199 58 129 198 61 127 198 63 125 198 64 124 198 66 124 199 67 123 197 68 120 195 69 117 195 70 115 193 72 112 192 73 111 192 75 112 190 78 114 190 80 116 191 81 116 190 82 116 188 78 143 125 78 143 127 77 142 129 76 141 130 72 139 132 70 137 135 68 136 138 66 135 141 64 135 143 62 135 145 62 137 148 62 136 151 61 138 153 61 138 156 59 138 157 57 137 158 56 138 160 55 139 163 54 138 166 54 138 167 54 139 169 54 138 171 53 137 175 52 137 180 51 137 183 51 137 185 51 137 190 51 136 193 51 136 195 52 136 196 53 134 197 55 132 197 56 131 198 56 130 198 58 128 197 60 127 197 62 125 197 63 125 197 64 124 197 65 122 198 66 119 196 67 117 194 69 114 194 71 112 192 73 111 192 76 112 191 77 114 191 80 116 190 81 116 189 82 115 188 77 142 127 77 142 129 76 142 131 75 141 133 73 140 135 70 138 138 68 136 140 66 136 143 64 135 145 63 135 147 62 136 149 60 136 153 62 137 155 60 137 156 59 137 156 57 137 157 55 138 160 54 139 163 55 139 166 53 139 167 54 138 169 53 138 171 53 137 174 52 137 179 52 136 182 51 137 186 51 136 191 51 136 194 52 136 197 52 136 198 54 135 198 55 133 198 56 132 198 57 132 197 57 129 197 58 127 197 59 126 197 60 125 197 61 125 196 62 122 197 64 118 196 67 116 194 68 112 194 70 111 192 72 110 192 75 111 191 77 114 191 79 114 190 80 113 188 79 113 188 77 142 130 76 141 131 75 141 133 75 140 135 74 138 138 72 137 141 69 136 142 67 136 145 65 136 147 63 135 149 62 136 151 61 136 153 61 137 154 62 138 155 60 137 155 57 138 156 56 138 159 54 139 162 54 139 165 54 138 167 55 138 169 54 138 171 53 137 174 53 136 178 52 136 183 51 137 187 51 136 192 52 135 194 52 135 197 52 136 199 53 135 199 55 133 198 55 133 198 56 133 198 56 130 197 56 129 197 57 127 197 58 125 196 60 124 196 61 121 195 64 117 194 67 115 194 68 113 193 70 111 192 71 110 192 73 111 192 75 113 191 76 113 190 78 113 188 77 113 188 75 143 132 75 142 134 74 140 135 74 139 138 73 136 140 71 135 142 69 134 144 66 134 146 64 134 149 65 135 151 65 136 152 63 136 154 63 136 154 63 136 155 62 136 155 60 137 157 58 137 159 56 137 161 55 138 164 55 136 166 56 137 169 54 137 171 53 137 174 53 135 177 52 134 182 50 135 186 50 135 192 51 135 195 52 135 197 52 135 199 52 134 200 52 132 200 54 132 199 55 132 198 56 131 199 57 129 197 57 127 196 59 124 196 59 122 196 62 118 195 65 115 194 67 114 194 69 113 194 70 111 194 71 110 194 71 111 193 74 111 193 75 111 191 76 112 190 76 112 189 74 145 135 73 142 136 73 141 137 72 140 139 72 136 142 70 134 144 67 133 146 64 133 148 63 133 151 63 134 152 64 136 154 64 137 154 65 137 155 64 136 155 62 136 155 61 136 157 59 136 159 58 135 161 57 136 164 57 135 165 56 136 168 54 136 170 54 135 173 53 135 176 52 135 181 51 135 186 50 135 191 50 134 196 51 134 197 50 133 199 50 132 200 51 131 200 53 131 199 55 130 199 56 129 200 57 127 198 57 125 198 58 122 197 60 118 196 62 115 195 66 113 194 67 112 194 69 112 195 70 111 195 70 109 195 71 111 194 72 111 194 73 111 194 75 111 192 76 111 192 75 145 136 72 143 137 71 141 139 71 139 141 70 136 143 69 134 146 67 132 148 65 132 150 63 134 152 63 135 154 63 137 156 65 138 156 65 138 156 65 137 155 63 135 156 63 134 157 61 134 159 60 134 161 59 134 162 56 134 164 55 133 168 54 134 170 53 134 171 53 134 176 52 134 181 52 134 186 51 134 190 50 132 194 50 132 196 49 131 198 49 130 200 50 129 200 51 129 199 52 128 200 54 127 202 55 125 200 56 122 199 57 119 198 61 116 197 63 114 196 66 111 195 67 111 195 67 112 197 68 110 198 70 111 198 70 111 197 71 111 195 73 110 196 75 109 195 76 110 194 74 145 138 71 143 139 70 140 140 69 138 143 69 136 146 69 135 149 67 133 151 64 133 152 63 134 154 64 136 155 64 137 157 64 137 158 64 136 158 64 136 157 63 135 157 63 133 158 62 133 159 61 133 161 58 133 162 55 133 163 55 132 166 54 132 168 53 132 170 52 132 175 53 134 180 52 134 185 51 133 188 51 131 192 50 131 194 49 130 196 50 129 199 50 128 201 50 127 200 51 126 201 52 124 203 53 122 202 54 119 201 57 118 199 61 115 197 62 113 198 64 111 197 66 111 197 66 111 199 67 110 200 69 109 200 70 109 199 71 109 197 72 109 196 74 108 196 76 109 193 73 146 140 71 144 141 69 141 143 68 138 145 69 137 149 67 135 151 66 134 152 63 134 154 63 134 157 63 135 158 63 136 159 63 136 158 62 136 159 61 136 159 61 136 158 62 135 159 62 133 159 60 132 161 57 132 163 55 131 163 54 130 166 53 129 168 52 130 171 52 131 175 53 132 178 53 132 182 51 131 186 50 129 190 50 129 193 50 129 195 50 128 199 50 127 200 49 126 202 50 125 203 52 123 204 53 120 203 53 117 201 56 116 200 58 114 199 60 112 200 63 111 200 64 112 200 65 111 201 66 110 201 68 108 200 69 107 199 71 107 197 72 107 197 74 107 197 75 107 194 71 146 142 69 144 143 68 141 146 68 139 149 68 136 151 66 135 153 65 135 154 62 135 156 61 136 159 62 135 160 62 136 160 61 136 159 60 136 160 59 135 160 59 135 159 60 135 159 60 133 160 59 132 161 57 131 162 57 130 164 55 130 167 53 129 169 53 129 172 52 129 175 53 131 177 53 131 180 52 130 184 51 130 188 49 129 192 50 127 194 50 126 197 50 125 200 50 124 202 49 123 203 51 122 204 52 119 202 52 117 201 54 115 201 57 113 201 59 111 202 62 111 202 64 111 201 65 111 201 67 110 200 68 108 200 69 107 198 71 106 197 73 106 197 74 108 197 74 107 194 70 145 143 69 144 145 68 141 147 67 138 150 66 138 152 65 136 154 63 135 156 61 136 158 59 136 159 59 136 161 59 135 161 59 135 161 58 135 160 57 134 161 58 134 160 58 134 160 59 134 160 58 132 162 56 131 164 57 130 165 56 130 167 55 128 169 54 127 171 53 128 173 53 129 176 52 129 178 52 129 182 51 129 186 50 128 190 50 127 193 51 126 196 50 124 199 50 123 201 49 122 203 50 120 203 51 118 203 51 116 203 53 115 203 56 112 204 59 111 204 60 110 202 61 110 202 64 109 200 67 108 199 68 107 199 69 106 198 70 106 198 72 106 197 73 107 196 73 105 195 71 145 146 70 144 147 68 141 149 66 138 152 64 138 154 62 137 156 61 136 158 59 136 160 58 137 161 57 135 163 57 135 163 56 134 163 56 135 162 55 134 162 56 135 162 58 134 161 57 133 161 58 132 162 56 130 164 56 128 167 56 127 169 55 126 171 54 126 172 53 127 173 53 128 175 53 127 177 52 127 182 52 127 185 51 127 188 51 125 192 51 123 195 51 122 197 49 122 199 49 120 201 50 119 202 50 117 204 50 115 204 51 114 204 55 112 205 57 110 204 58 109 203 60 108 201 63 107 200 66 107 198 68 106 197 69 107 198 70 106 198 71 106 196 73 105 196 73 104 194 72 143 147 70 142 149 66 140 150 64 139 153 63 138 155 61 136 158 60 135 160 59 135 161 58 136 162 57 135 163 56 134 165 55 134 164 55 134 164 54 135 164 55 134 164 56 133 163 56 132 163 55 131 163 54 128 165 54 127 167 55 125 170 54 124 172 53 125 174 54 126 174 53 126 175 52 125 177 52 125 181 52 124 185 52 124 187 52 123 190 51 122 193 51 122 196 50 122 197 49 119 200 49 117 201 48 116 204 49 116 204 50 114 204 53 113 205 56 111 204 57 109 202 58 107 201 61 107 200 64 107 198 66 106 197 68 107 197 71 107 196 72 106 196 72 105 195 72 105 194 71 142 148 69 141 149 66 139 151 63 138 154 61 136 156 60 134 159 60 134 161 58 134 161 57 135 163 56 134 164 55 134 166 55 134 166 54 133 165 54 134 166 54 133 165 53 131 165 54 130 165 55 129 166 53 126 167 52 125 169 53 123 171 53 122 173 53 122 173 53 123 174 53 123 175 51 123 177 51 123 180 51 123 184 52 123 186 52 123 188 52 121 191 50 121 194 50 120 196 50 118 199 50 117 201 49 116 202 50 116 203 51 114 204 52 113 205 55 111 205 56 109 203 57 108 200 59 107 199 61 107 199 64 106 198 67 106 196 70 106 195 70 107 195 70 106 195 71 106 194 72 139 149 68 138 151 65 137 153 62 136 156 60 135 157 61 133 159 60 134 161 58 134 161 56 134 163 56 133 164 54 134 165 53 133 166 54 132 166 53 132 166 52 133 167 51 130 167 52 129 168 53 127 169 53 124 169 52 122 170 52 121 170 51 120 171 53 120 172 53 120 174 53 120 175 52 121 177 50 120 180 50 120 184 50 122 186 51 121 187 52 119 189 51 119 191 51 118 194 51 117 196 52 116 198 51 115 200 52 115 202 51 114 204 52 113 204 54 112 204 55 110 203 56 108 201 58 107 200 61 107 199 64 107 198 66 106 197 68 106 196 69 108 195 69 108 195 69 107 194 