P3
50 50
255
106 140 136 105 142 131 105 144 127 105 147 121 104 149 118 104 148 115 105 149 112 105 149 109 105 148 107 105 148 105 105 148 102 105 150 100 106 151 97 107 152 95 108 153 93 108 152 92 109 152 91 109 152 90 109 152 90 111 153 89 113 154 86 113 153 83 114 153 81 112 153 78 110 153 75 110 152 74 109 151 73 110 151 72 111 150 72 113 149 73 114 147 73 114 146 72 116 145 73 118 145 74 119 144 74 121 142 74 122 141 75 123 140 75 122 140 74 122 140 75 121 138 76 121 138 75 121 138 75 120 139 75 120 139 76 121 139 76 122 140 78 121 140 79 123 141 81 126 141 84 104 142 137 105 145 132 105 147 127 105 150 121 105 151 117 104 152 113 104 153 111 105 153 107 105 152 104 104 151 103 103 151 102 104 151 100 104 153 97 105 154 94 106 155 92 107 155 91 109 155 91 109 154 90 110 154 89 109 155 88 111 156 85 112 156 83 112 156 80 111 155 78 109 155 74 109 154 73 108 154 73 108 153 72 109 152 71 110 150 71 112 147 72 112 146 72 112 145 72 115 144 73 117 144 72 118 143 73 118 142 74 120 142 74 120 142 74 121 141 75 120 140 76 120 140 76 120 141 76 120 140 75 119 140 75 119 139 75 121 140 77 121 140 79 123 142 80 125 141 85 105 144 136 105 147 133 105 150 126 104 152 120 105 154 116 105 155 113 104 156 110 104 156 107 104 156 105 103 154 103 101 153 101 100 154 99 102 155 97 103 154 94 105 156 93 106 157 91 107 157 90 108 157 90 108 157 88 108 157 86 109 158 85 109 158 83 109 158 80 109 157 76 107 156 74 107 155 73 107 154 73 107 153 72 108 153 71 108 152 70 108 150 71 109 147 71 109 145 72 110 145 72 113 145 71 115 144 71 116 143 72 117 143 73 118 143 73 119 143 74 121 143 75 120 143 76 120 142 76 120 141 75 119 141 74 118 141 75 120 141 77 121 141 80 122 142 81 123 140 85 105 146 137 105 150 132 104 153 127 104 155 121 105 157 117 105 158 114 103 159 110 103 159 107 102 158 105 100 156 103 99 155 100 100 155 99 100 156 96 101 156 94 103 158 93 104 159 92 104 159 89 106 158 87 107 157 86 107 158 85 107 160 85 107 160 82 107 159 79 106 157 76 105 157 75 106 156 74 106 155 74 106 154 72 107 154 71 107 154 70 106 152 69 107 149 70 106 147 70 108 146 70 110 146 70 112 145 69 113 145 70 114 146 71 116 145 72 119 145 73 120 145 73 121 144 75 121 143 75 120 142 73 119 143 73 118 142 75 119 142 78 121 142 79 121 142 81 122 141 85 107 150 136 106 152 132 105 155 127 106 157 122 107 159 118 106 161 114 104 161 111 102 161 109 101 159 107 99 158 104 99 158 102 99 157 99 99 158 96 100 159 95 102 160 94 103 161 93 103 161 90 105 160 88 105 159 87 105 159 85 104 161 84 104 161 82 104 160 79 104 159 77 104 159 76 104 159 74 105 157 74 106 156 73 106 156 72 106 154 70 107 154 68 106 152 68 105 150 67 107 148 67 108 148 68 110 148 68 111 148 68 113 148 70 115 148 72 117 147 73 119 147 73 121 145 73 121 144 73 121 143 73 120 142 73 120 142 76 120 142 79 120 141 80 121 142 83 122 142 86 107 155 136 108 156 131 107 157 127 107 160 123 107 162 119 106 164 115 104 165 111 102 163 109 101 161 107 100 160 105 100 159 103 99 160 100 98 160 99 98 161 97 100 162 95 102 164 94 102 163 92 103 161 89 103 161 87 102 161 85 102 161 84 103 161 82 102 161 79 102 161 76 103 160 75 103 159 73 103 158 73 104 158 73 105 157 73 105 157 70 106 156 68 106 154 66 106 152 65 107 151 66 107 150 67 108 150 69 109 149 70 112 149 70 114 150 71 116 149 72 118 148 73 120 147 72 121 146 72 123 144 72 123 143 74 122 142 76 121 144 80 122 143 81 121 142 83 122 143 85 110 159 135 109 160 131 108 162 127 108 163 123 107 165 119 106 167 115 104 167 112 102 165 110 102 163 108 102 162 105 101 162 102 100 162 101 99 163 101 98 164 99 99 165 97 102 166 95 102 166 94 101 164 91 100 163 89 100 162 86 100 161 84 99 162 82 99 162 79 100 163 77 100 161 76 102 161 74 103 160 74 103 161 74 104 159 73 104 158 72 104 157 70 104 156 67 105 155 66 106 153 66 105 152 68 106 152 67 108 152 68 110 151 69 112 150 71 114 151 71 117 150 72 118 149 73 119 148 73 122 146 73 122 145 74 122 145 77 122 146 80 122 145 82 121 144 83 121 144 85 113 160 136 111 163 132 109 166 127 108 166 123 108 167 120 106 169 117 104 169 113 103 166 111 102 164 109 103 164 106 103 164 103 102 164 102 99 165 101 99 166 100 99 167 99 101 168 97 101 167 95 100 166 94 99 165 92 99 164 88 98 163 86 97 163 83 99 163 81 99 163 80 100 161 77 102 161 76 103 162 76 103 162 74 102 161 74 102 160 74 102 159 72 102 158 69 103 157 68 104 156 67 105 154 66 106 155 65 107 154 66 108 152 68 110 153 70 113 152 70 116 151 71 118 150 73 119 149 73 121 148 73 121 147 75 122 147 77 121 146 79 121 146 80 122 145 82 122 144 84 113 162 135 112 166 130 111 168 128 109 169 124 108 171 121 108 171 118 107 170 115 106 167 113 106 166 110 105 166 107 105 166 104 103 166 102 101 166 102 100 168 101 100 169 99 100 169 98 100 168 96 99 167 94 98 166 93 97 165 89 97 163 87 97 163 85 98 162 83 98 162 81 100 162 79 101 161 78 101 161 77 102 162 76 102 162 75 101 162 74 100 161 72 101 160 70 103 160 69 103 158 67 103 157 66 105 158 66 106 156 66 108 155 67 109 155 69 112 154 70 113 152 71 116 150 72 117 150 72 119 150 71 120 149 74 120 149 76 120 147 78 121 146 79 122 145 80 122 146 83 114 164 133 114 168 129 111 170 127 110 171 124 109 172 121 109 172 117 109 171 116 109 170 113 109 170 110 108 168 106 107 168 105 104 167 103 101 167 102 100 169 101 100 170 100 100 170 99 98 170 98 97 168 95 97 167 92 96 166 90 97 165 89 96 163 86 98 162 85 98 162 84 99 161 81 100 161 80 100 162 78 100 162 76 101 163 75 99 163 74 99 163 74 100 163 72 100 162 69 101 161 68 102 160 67 103 159 65 104 157 66 105 156 67 107 156 68 109 156 69 110 153 69 113 152 70 115 152 71 117 151 71 117 149 72 118 149 75 119 147 77 122 147 79 122 145 81 122 146 83 114 167 132 113 170 129 111 171 127 110 172 124 110 174 120 111 172 117 111 173 116 110 173 113 110 172 110 109 171 107 107 170 106 105 170 105 102 169 104 101 170 102 102 171 101 101 171 100 98 171 98 98 170 95 97 168 91 98 166 90 98 165 88 97 164 87 98 163 87 98 162 86 98 162 83 98 162 82 98 162 80 100 162 77 100 163 76 99 164 76 99 165 74 98 165 72 99 164 71 99 164 70 99 162 68 101 162 66 102 159 66 103 158 67 105 157 68 108 156 69 109 155 69 112 155 69 112 154 70 113 153 72 114 151 73 116 150 76 119 149 78 121 148 80 121 148 82 121 148 84 113 167 132 112 169 129 111 172 126 110 174 123 110 176 120 111 175 117 111 175 116 111 175 113 110 174 110 108 173 109 105 172 107 103 172 107 102 172 106 102 172 104 101 171 102 101 171 100 100 170 98 99 171 94 98 169 92 99 167 89 100 166 88 99 165 88 98 163 87 97 162 85 96 162 83 97 161 83 98 161 81 99 161 79 98 163 76 97 165 75 97 165 74 96 166 74 96 165 72 97 165 72 97 165 72 99 163 70 100 160 68 102 158 68 103 158 68 105 157 68 107 157 69 108 156 69 109 155 70 110 154 73 111 152 76 114 151 78 117 149 80 119 150 82 119 150 83 119 149 86 112 169 132 112 171 128 111 174 126 111 177 123 111 178 120 110 177 119 111 177 116 111 176 114 110 175 112 108 176 110 105 175 108 104 174 107 103 175 107 102 174 106 101 173 104 102 172 101 100 171 98 99 170 95 100 168 93 101 167 90 101 166 89 100 166 88 98 165 86 96 164 85 95 164 84 97 162 83 97 161 81 97 161 79 96 163 78 96 164 76 96 165 75 95 167 76 95 166 75 96 166 74 96 167 73 97 165 72 98 163 70 100 161 70 101 159 69 102 159 70 104 159 70 105 157 71 107 156 73 107 155 74 109 153 78 113 154 79 115 152 81 118 152 83 118 152 84 119 152 87 109 171 129 109 173 126 109 176 125 110 178 123 110 179 120 109 178 119 110 177 117 111 177 115 110 177 113 108 178 112 106 177 110 104 177 109 104 177 108 103 175 106 102 173 105 102 172 102 100 172 100 101 171 97 101 170 94 102 168 91 100 167 89 99 166 87 98 166 86 97 165 86 96 164 84 97 162 83 96 160 80 96 161 80 95 162 78 95 163 77 95 165 75 95 166 75 94 167 75 94 167 74 94 166 73 95 166 73 96 164 71 98 163 71 101 162 70 101 161 71 102 159 71 104 158 72 105 156 74 106 155 77 107 154 79 111 154 80 114 154 82 117 153 84 117 153 86 118 152 90 106 172 126 107 174 124 107 177 124 109 179 122 108 179 121 108 179 119 108 178 118 110 178 116 110 179 114 108 179 112 106 178 112 104 178 110 104 178 109 104 177 106 103 174 104 101 172 103 100 172 100 100 172 97 101 171 93 101 170 90 101 168 88 100 167 86 99 166 85 96 166 85 95 164 83 95 163 81 95 162 80 95 161 80 94 162 79 94 162 77 94 164 76 94 166 75 92 166 74 92 166 74 92 167 74 94 167 73 95 166 71 98 164 71 99 163 72 100 162 73 101 161 73 102 160 74 104 158 76 106 155 78 107 154 80 110 153 82 112 154 84 115 154 85 116 154 88 116 152 90 105 175 123 106 176 122 106 177 121 106 179 120 106 179 119 106 179 118 107 179 118 108 179 115 108 180 113 107 180 112 106 179 112 104 180 111 103 178 109 103 177 107 101 175 104 99 173 102 98 173 99 98 173 96 99 172 93 100 171 90 99 169 87 99 167 85 98 165 85 96 164 84 94 164 82 94 163 80 94 162 80 94 161 79 94 161 77 93 163 77 93 165 78 92 165 76 92 164 75 92 166 75 92 168 73 93 169 72 95 169 72 97 166 73 98 165 73 99 165 74 101 164 74 102 163 76 104 162 79 105 158 80 106 155 83 108 154 84 110 153 85 112 154 87 114 153 88 115 153 90 104 178 120 105 179 120 104 179 119 104 180 118 105 181 118 105 179 118 106 179 116 106 179 114 106 180 112 106 180 111 104 180 112 101 181 110 101 179 109 100 177 107 98 175 104 97 174 100 97 175 97 98 174 94 98 173 92 98 171 90 98 169 87 98 167 85 98 165 84 97 164 82 95 163 81 93 163 80 92 163 79 93 161 78 92 162 77 92 163 77 92 164 78 92 164 77 92 164 75 93 166 74 93 169 72 94 170 71 96 170 72 97 168 73 97 166 74 98 165 75 100 166 76 102 165 77 104 164 80 106 162 82 106 157 84 107 155 85 108 154 87 109 154 90 112 154 91 112 154 93 103 180 119 104 181 118 103 180 118 103 181 117 104 181 117 104 180 116 105 180 114 105 180 111 105 180 110 106 181 110 104 182 110 101 181 109 98 181 107 97 179 105 95 177 101 95 177 98 96 176 95 96 176 92 96 175 91 98 173 89 97 171 87 98 168 86 97 167 84 96 165 82 94 164 81 92 164 79 91 164 78 91 162 77 90 162 77 90 163 77 91 163 77 90 164 76 91 165 74 93 167 73 92 170 72 93 171 70 95 171 70 96 169 73 96 168 75 98 167 76 100 167 77 101 167 79 103 166 83 105 163 86 106 160 87 107 158 88 108 157 89 109 155 92 111 155 94 112 155 96 102 180 119 101 181 117 101 181 116 102 181 116 103 181 115 103 180 114 104 180 112 104 180 109 104 181 109 105 180 110 104 181 110 100 182 108 97 181 106 95 180 102 94 178 100 94 178 97 93 177 94 94 177 92 94 176 90 96 175 89 96 173 88 95 171 87 95 170 85 93 168 82 92 167 79 91 167 78 90 166 78 89 164 78 88 163 76 89 164 77 89 164 76 89 165 75 90 165 74 91 168 71 91 171 71 93 172 71 93 172 71 95 171 73 95 170 75 97 169 76 99 168 78 100 168 81 102 166 84 104 164 87 106 162 89 106 160 90 107 159 91 110 158 93 110 157 96 111 156 98 101 181 117 100 181 115 99 182 115 100 182 114 101 181 113 102 180 113 103 180 112 104 180 108 104 180 107 104 181 108 103 181 108 100 182 106 96 182 104 94 181 102 93 180 98 93 179 97 91 178 94 92 177 91 93 175 89 94 175 88 94 174 88 93 173 86 92 171 84 90 170 82 90 168 79 90 168 78 89 168 78 88 166 76 87 165 76 88 165 76 87 166 74 88 166 74 89 168 73 90 169 71 90 171 71 91 172 70 93 171 72 94 170 73 95 171 75 97 169 76 98 168 79 99 168 82 101 165 85 103 164 88 105 163 88 106 163 90 108 160 91 109 160 94 110 159 98 109 158 99 98 181 117 98 182 115 97 183 113 98 182 112 99 181 111 102 180 111 105 180 110 105 180 107 105 181 106 104 181 106 103 182 106 100 183 104 97 182 103 95 182 100 93 181 98 92 181 96 91 180 94 91 177 92 91 176 89 91 175 88 92 174 87 91 173 84 90 172 83 89 170 82 88 171 80 88 171 78 88 170 77 88 168 77 88 167 76 88 168 75 89 167 74 89 168 73 89 169 72 88 171 71 89 172 71 90 172 72 91 171 72 94 169 73 96 169 75 97 169 77 98 169 80 99 168 82 100 165 85 101 164 87 103 163 89 105 164 90 106 162 92 109 160 95 110 159 98 108 159 99 96 179 117 96 181 114 96 182 113 97 182 112 98 181 112 102 181 110 104 180 108 104 181 107 105 181 106 103 182 106 101 184 105 99 183 103 97 183 101 95 182 99 93 181 97 92 181 96 91 180 94 91 178 91 91 176 88 91 176 86 91 175 84 90 173 82 89 172 82 88 171 81 88 172 80 87 172 78 88 171 77 89 170 77 89 170 75 90 170 75 89 170 74 89 170 72 89 169 72 88 171 72 88 171 72 90 171 73 91 170 74 93 169 75 95 169 77 97 169 80 98 169 82 98 167 83 98 166 86 100 164 87 101 163 90 103 163 91 105 163 93 108 161 95 109 160 99 107 160 100 95 179 115 95 181 114 95 182 113 96 182 111 99 182 111 101 182 109 103 182 108 103 182 106 103 183 106 102 184 106 101 184 104 100 183 102 97 183 101 94 182 99 93 182 97 92 182 95 91 181 93 91 180 90 90 178 87 91 176 85 92 174 83 90 173 82 89 173 81 88 174 81 87 173 80 88 173 78 88 173 78 89 172 77 90 173 76 90 173 75 90 172 74 90 172 73 90 170 74 90 170 74 90 170 74 90 170 75 91 170 75 92 169 77 95 169 79 96 169 81 95 168 83 95 167 85 96 165 85 98 165 87 100 164 89 102 164 92 105 164 95 106 162 97 107 161 99 106 161 101 94 179 113 94 181 113 95 182 111 97 181 111 99 182 110 101 183 108 103 184 107 103 184 106 103 185 107 103 184 105 102 184 104 100 185 102 98 183 100 97 183 98 95 183 97 94 183 95 92 183 92 91 180 89 91 179 87 92 177 85 92 176 82 91 175 82 90 174 81 88 174 81 87 175 80 87 175 79 88 175 78 89 175 78 91 174 76 90 175 75 90 174 75 90 173 75 90 171 76 90 171 76 90 171 76 90 170 76 91 170 78 93 170 79 94 170 80 93 169 82 93 168 83 94 166 84 96 166 86 98 166 89 98 164 92 100 165 94 102 165 96 103 163 99 104 162 101 104 162 102 93 180 112 95 181 111 96 181 111 97 180 111 99 181 110 101 184 108 102 185 106 103 186 105 103 186 105 103 186 105 100 187 104 99 186 102 98 186 99 98 184 97 97 184 96 96 183 93 94 182 91 93 180 88 92 179 87 92 178 85 93 177 83 91 177 82 90 176 81 89 176 80 88 176 78 87 175 78 89 176 78 91 175 78 93 176 77 91 176 76 90 175 77 90 175 77 91 173 78 90 171 78 89 171 78 88 171 78 90 170 78 91 169 80 91 170 82 91 169 83 90 168 83 92 166 83 94 166 87 96 166 91 98 165 94 98 165 96 100 165 97 100 164 100 101 163 101 102 164 101 93 181 110 94 181 110 96 182 111 97 182 111 99 182 109 100 184 107 101 187 106 102 188 105 103 187 105 102 187 104 99 189 103 97 188 101 98 187 99 99 186 96 99 185 96 98 184 93 96 184 91 95 181 88 94 181 86 92 180 85 92 179 84 90 178 82 88 177 81 89 178 79 89 177 78 89 176 78 90 176 78 92 176 77 93 176 77 92 175 78 91 176 79 91 176 79 91 175 80 89 172 80 88 171 80 88 171 79 88 170 78 89 170 80 89 170 81 89 169 82 90 168 82 90 167 84 93 166 87 95 167 91 97 166 95 97 167 96 98 165 98 98 164 99 98 164 100 98 165 100 93 181 110 94 182 109 96 183 110 97 184 110 98 183 109 99 186 106 100 188 106 101 189 104 101 189 104 99 189 104 98 189 103 97 188 100 98 187 98 98 186 96 99 185 94 98 185 91 97 184 88 97 183 87 95 182 86 93 181 84 91 181 83 89 180 82 88 179 80 88 179 79 89 178 77 88 177 77 90 178 77 93 177 77 94 176 78 93 177 79 93 177 80 91 177 80 90 176 80 89 174 79 88 174 79 88 174 79 87 172 78 86 171 79 88 170 81 88 169 82 89 168 82 91 168 85 92 168 87 94 168 91 95 168 94 97 168 97 96 167 97 96 166 99 97 166 99 97 167 100 94 181 109 95 183 108 97 184 109 97 185 109 99 185 107 99 186 105 100 188 105 99 190 104 99 191 103 98 190 103 98 189 102 98 187 99 99 186 96 99 186 93 99 186 91 98 186 89 97 185 87 97 183 86 97 182 85 94 181 84 91 181 83 89 181 82 89 181 80 88 180 79 88 179 77 88 178 76 89 178 75 92 177 77 93 177 79 94 179 79 93 179 79 91 179 79 90 178 79 89 177 79 89 176 80 88 176 80 87 173 80 86 171 81 86 169 81 87 169 81 88 170 82 89 170 85 90 169 89 92 170 91 93 170 94 95 170 96 95 169 97 96 168 98 96 167 99 96 167 100 95 183 107 96 185 106 98 185 106 98 187 107 99 188 104 100 188 103 98 190 104 98 190 102 97 191 101 98 190 101 98 188 100 97 187 98 98 187 95 98 187 92 98 187 90 97 186 88 97 185 86 96 183 85 96 182 84 95 181 84 93 182 82 91 182 81 90 181 80 90 181 79 88 180 78 90 180 76 90 180 76 92 180 77 93 180 79 94 180 79 94 181 79 93 181 79 92 181 79 90 180 79 90 179 80 88 177 81 87 175 81 86 171 81 86 169 82 86 169 82 87 170 83 88 171 86 89 171 89 91 172 91 93 172 94 93 172 96 94 171 96 95 171 97 94 169 99 94 168 100 96 184 107 96 185 106 97 186 105 98 189 104 100 189 102 100 190 102 98 192 101 97 192 101 97 192 100 98 191 100 98 189 99 98 188 97 99 189 94 99 189 90 98 189 89 97 187 87 96 185 85 96 184 83 96 182 83 96 182 83 95 183 83 93 183 81 92 181 80 91 181 80 91 181 79 92 181 77 92 181 77 93 181 78 94 182 78 95 182 78 95 183 78 95 184 78 94 184 80 92 182 80 91 179 81 90 178 81 89 176 82 87 172 82 87 170 82 86 170 82 86 172 84 87 173 86 88 174 88 89 174 90 91 175 92 93 174 95 94 172 96 93 172 96 92 170 98 93 170 100 96 184 106 96 186 105 98 186 104 99 189 103 100 190 102 99 191 102 97 192 101 98 192 101 98 192 100 98 192 99 97 190 97 99 188 94 99 189 91 98 190 89 96 190 87 95 189 85 95 186 84 95 185 83 96 184 83 97 183 83 96 183 82 94 183 81 93 182 80 93 182 79 94 182 79 93 183 78 93 182 77 94 183 78 95 183 77 96 184 76 96 185 77 95 186 78 93 185 78 91 184 80 90 181 81 92 178 83 90 176 84 88 174 83 89 171 83 88 172 83 87 174 84 88 176 85 88 176 87 89 176 90 90 176 92 93 176 94 93 175 94 92 173 96 92 172 98 91 171 99 97 184 105 97 185 104 99 187 104 100 189 102 101 191 100 100 191 101 99 191 101 99 191 101 99 191 99 98 191 97 97 191 93 98 190 91 98 189 89 97 190 87 95 190 85 94 189 83 94 188 82 95 187 82 96 187 82 96 185 81 95 185 80 94 185 79 94 185 78 94 184 78 94 184 78 95 185 77 94 185 77 94 186 76 95 186 75 95 186 76 96 187 76 94 188 77 92 187 79 91 185 80 91 183 82 92 180 83 92 177 84 90 175 84 89 174 84 88 175 84 89 176 86 89 177 86 89 178 88 90 178 90 91 179 91 92 178 93 92 177 95 92 175 97 91 173 98 91 172 98 97 184 105 98 186 104 99 187 103 100 189 102 100 191 101 100 191 101 100 191 100 100 192 100 99 191 99 98 192 95 98 192 92 98 191 89 97 191 87 97 190 85 95 190 83 94 189 82 95 188 81 95 187 81 96 187 81 95 186 80 94 186 80 94 187 79 94 187 78 94 187 77 95 188 77 95 188 76 95 188 76 95 189 76 95 189 75 95 189 75 95 189 76 93 189 78 91 188 79 90 185 80 91 184 82 92 182 83 92 179 84 91 178 85 89 176 86 88 176 87 88 176 88 89 177 88 90 178 89 90 180 92 91 179 92 93 178 94 94 178 95 92 176 97 91 174 98 90 173 99 96 185 105 98 187 103 100 188 103 100 191 102 100 192 102 101 192 100 101 192 99 101 192 99 100 193 97 99 194 94 97 194 91 97 193 88 97 192 86 96 190 83 95 190 83 94 190 83 94 191 82 94 189 82 95 187 82 94 186 81 94 187 80 94 188 80 93 189 77 93 190 76 92 190 75 93 190 75 93 190 76 94 190 76 95 192 76 94 192 77 93 192 78 93 191 78 92 190 80 91 186 81 92 184 83 92 184 84 91 181 86 89 180 86 88 177 87 88 176 89 88 177 89 88 178 89 89 178 90 90 180 92 90 180 93 92 179 95 93 179 95 93 178 96 91 177 97 90 177 99 97 185 105 98 186 103 100 188 103 101 191 102 101 193 101 100 194 101 102 195 99 102 194 98 100 195 96 99 196 94 98 196 91 97 194 88 97 191 84 96 191 82 95 190 82 95 191 82 95 191 82 94 191 82 94 189 82 93 188 81 93 188 80 92 189 79 91 190 77 91 190 76 91 191 75 91 192 75 92 192 76 92 192 77 93 195 77 92 195 79 93 194 80 94 194 81 92 191 82 93 189 82 93 186 83 93 186 85 91 185 86 90 182 88 89 179 89 88 176 90 88 177 91 88 178 92 88 179 92 89 179 92 89 180 92 90 180 94 92 180 93 92 178 95 92 178 97 90 179 100 98 185 104 100 187 102 100 188 103 101 190 101 101 192 101 101 194 100 101 196 98 100 196 97 100 196 95 99 196 94 97 196 92 97 194 88 96 192 84 96 192 81 95 192 81 95 193 81 95 192 81 94 192 82 93 190 81 93 189 80 91 190 80 91 191 79 91 191 78 91 191 76 91 191 76 91 193 76 92 194 76 91 194 77 91 196 78 92 197 81 94 197 81 95 196 81 94 193 82 93 191 83 92 189 84 92 188 86 90 187 87 90 184 89 88 182 90 88 179 91 88 179 93 87 179 93 88 180 94 88 181 93 89 181 92 90 182 93 91 180 93 92 179 94 91 179 98 90 181 101 99 184 103 99 187 102 99 188 102 99 190 101 99 193 100 100 195 99 100 196 97 101 198 97 99 197 96 98 197 94 96 196 92 96 194 89 96 193 84 95 192 82 95 193 81 96 193 79 95 193 80 94 192 81 93 191 80 92 191 80 91 192 79 91 193 77 92 193 77 93 192 76 92 192 76 91 193 76 92 194 76 91 194 77 90 196 80 92 198 82 94 198 82 94 197 82 94 195 83 93 193 85 91 192 86 91 190 86 89 188 88 89 185 91 88 184 92 87 182 92 87 181 93 87 180 94 87 182 94 87 184 94 88 184 94 91 182 94 90 181 94 90 180 95 90 181 97 90 182 100 98 185 104 98 187 102 98 188 101 98 190 99 98 193 97 99 194 97 99 196 96 101 198 95 100 198 95 97 197 94 94 196 91 95 195 88 95 194 85 95 193 82 95 193 81 96 193 80 95 192 79 93 191 80 93 192 79 92 193 79 91 194 78 92 194 76 93 194 76 94 193 76 93 193 76 93 194 75 91 195 76 89 195 79 90 196 81 92 198 83 94 199 84 94 197 85 93 196 86 92 195 86 91 194 87 89 192 87 89 188 89 88 187 92 88 185 92 86 184 93 85 184 92 86 183 94 86 184 95 86 186 96 87 186 95 89 184 95 89 182 95 89 181 95 88 182 98 88 181 101 98 188 104 97 189 102 97 190 101 98 191 99 98 192 97 97 194 96 99 195 96 99 197 95 98 197 94 97 196 92 94 196 90 94 196 88 94 194 85 95 195 82 96 195 81 96 193 80 95 192 79 94 191 79 93 193 78 93 194 78 92 195 77 92 195 76 93 196 75 93 196 74 93 195 75 93 196 76 92 196 77 90 196 79 89 197 82 91 198 85 93 198 86 94 198 86 93 197 88 91 195 88 90 195 88 89 193 89 88 190 91 87 188 93 86 186 93 85 187 92 83 187 92 84 187 93 84 187 94 85 188 95 86 188 96 87 187 96 88 185 98 87 183 98 87 182 99 88 181 101 98 189 104 97 190 102 97 190 101 98 191 99 97 192 98 97 193 97 97 195 97 97 196 96 96 198 93 96 197 91 96 196 90 94 196 88 94 195 86 95 195 83 95 195 82 96 194 81 96 192 81 95 192 80 94 194 80 93 194 79 92 196 77 92 197 76 93 197 74 93 197 73 93 197 75 93 198 76 93 198 78 91 198 80 91 199 82 92 198 86 92 197 88 93 198 88 92 197 89 90 196 89 89 195 90 88 194 90 87 192 91 86 189 92 85 189 92 83 188 91 83 189 91 83 189 92 83 189 94 83 190 95 83 189 97 84 189 98 84 186 99 83 185 99 84 183 100 85 182 102 97 190 104 97 190 103 98 189 102 97 191 101 97 191 100 96 191 99 96 193 99 96 194 97 96 196 95 96 196 92 95 195 90 96 195 89 95 195 86 96 195 84 97 194 82 97 195 82 96 194 82 95 193 81 94 194 80 93 195 77 92 197 75 92 198 75 92 197 74 92 197 73 92 198 75 92 201 77 92 200 79 91 200 81 91 200 83 91 200 86 91 198 89 92 198 88 91 197 89 90 197 90 88 197 90 87 196 90 87 193 91 87 191 92 85 189 91 83 190 91 84 191 91 83 191 92 84 191 94 84 190 96 83 189 98 81 189 99 81 188 100 81 186 101 82 185 101 83 184 103 96 191 104 96 191 104 98 190 103 99 190 102 97 190 101 97 190 100 97 191 99 97 193 98 96 194 96 96 193 93 96 191 90 95 191 90 95 192 87 95 192 85 98 194 84 98 195 84 96 194 83 96 194 81 94 194 79 93 195 77 93 198 74 93 199 74 93 199 74 92 198 74 92 199 75 92 201 77 90 201 79 90 201 81 90 201 83 90 199 85 90 198 88 91 198 89 91 198 89 89 198 90 88 199 90 87 198 90 86 195 91 86 192 91 85 192 91 85 192 92 84 193 92 84 193 94 84 193 95 83 190 97 82 190 99 80 189 100 81 189 100 81 187 101 82 186 103 82 184 104 96 191 105 95 191 104 97 190 104 98 190 102 97 189 101 97 189 99 97 190 99 96 190 98 96 190 96 96 190 94 96 189 92 97 188 90 97 189 87 97 191 86 99 193 85 99 193 85 97 192 83 97 194 81 95 194 79 94 196 77 94 198 75 94 199 74 94 200 75 92 199 75 91 200 76 90 201 77 89 201 80 88 201 82 89 200 84 90 199 85 91 200 88 90 199 89 90 199 90 90 200 90 89 200 90 88 199 91 87 196 92 85 195 91 85 193 91 85 193 92 85 194 94 84 193 95 84 192 96 83 191 98 81 190 99 80 189 101 81 188 102 81 188 102 82 186 104 83 184 106 95 190 105 94 190 105 96 190 103 97 190 103 96 188 101 95 189 100 96 188 99 96 188 99 96 187 97 98 187 95 98 186 93 98 187 91 98 188 89 97 189 88 99 191 87 99 191 86 97 191 84 96 193 82 94 194 79 94 196 77 94 197 76 94 198 76 93 200 76 92 201 76 91 200 77 89 199 78 87 199 80 88 199 83 89 200 85 90 200 87 91 201 88 90 200 90 90 199 91 90 200 90 89 201 90 88 200 92 86 198 92 85 196 91 85 195 91 85 195 92 84 194 94 83 194 96 81 193 98 81 192 99 82 190 101 82 189 102 82 188 104 82 187 105 81 186 106 83 185 109 94 190 106 94 191 105 95 189 104 94 188 104 95 188 103 94 188 103 95 187 102 96 186 100 97 185 98 98 184 95 99 185 93 99 186 91 98 187 90 98 188 90 98 188 88 98 189 87 96 189 85 94 191 83 93 193 80 92 194 79 93 196 77 93 197 77 94 200 77 93 201 76 90 200 77 88 199 80 87 198 81 87 199 83 89 200 85 90 200 88 90 201 88 89 201 89 89 201 90 88 201 91 88 202 92 87 201 93 86 199 94 86 197 94 85 196 93 85 195 93 84 194 95 83 194 98 81 193 99 80 192 100 81 191 102 82 190 103 82 188 105 82 186 107 83 186 108 83 186 110 93 189 107 93 189 106 92 189 104 93 189 104 93 188 104 92 186 104 93 185 104 95 184 101 97 183 98 97 184 96 99 184 94 99 185 92 98 187 91 99 186 90 98 186 89 96 187 87 94 187 85 93 189 84 92 191 82 91 192 81 91 195 79 91 197 78 92 199 77 91 200 76 90 199 78 88 198 80 86 198 82 87 198 83 88 200 85 88 200 86 88 201 88 88 202 89 86 203 90 87 202 92 87 203 94 86 203 94 85 201 95 85 198 95 85 198 95 84 197 96 83 196 98 82 195 99 81 193 101 81 192 102 81 191 103 81 189 104 82 188 106 82 187 106 83 188 108 83 187 110 93 188 107 92 187 107 91 188 107 91 188 106 91 186 106 91 184 106 92 183 105 94 182 103 95 182 100 97 183 98 99 184 96 99 185 93 99 186 91 98 186 90 97 186 88 95 186 88 93 186 87 93 188 85 91 190 84 89 191 82 89 193 80 88 195 79 89 198 78 89 198 76 88 199 77 87 198 79 85 199 81 85 199 83 86 200 85 86 201 87 86 201 88 86 202 89 84 202 90 84 202 92 85 203 93 83 204 95 83 203 97 83 201 97 83 200 97 84 198 97 83 197 98 83 196 101 81 193 102 80 192 103 80 191 103 80 189 103 81 189 104 82 189 105 82 189 107 82 188 109 92 187 107 91 186 109 90 186 109 89 186 109 89 184 109 89 183 109 90 182 106 92 181 104 94 182 101 96 182 99 97 183 95 98 184 93 98 185 92 97 186 90 96 186 89 94 185 89 92 186 89 92 187 86 90 189 84 88 191 83 87 192 81 87 195 80 87 198 79 86 200 78 86 200 78 85 199 79 85 198 82 84 199 84 84 200 86 84 202 87 85 203 89 85 203 90 82 202 91 81 202 92 80 203 93 80 204 95 80 204 98 81 203 98 81 201 99 82 199 99 82 198 100 83 197 101 82 194 102 81 193 103 80 191 103 80 191 103 82 190 103 82 191 105 81 190 106 82 189 109 92 184 109 90 185 110 90 185 111 88 185 110 88 184 111 87 182 110 88 182 107 90 182 104 92 184 102 94 184 100 95 183 98 96 183 96 96 184 94 96 184 93 95 184 91 93 184 90 91 185 89 90 187 88 89 190 85 87 192 83 87 193 82 86 196 81 86 199 80 87 201 79 85 201 80 84 200 81 84 198 84 83 198 86 83 200 87 83 202 88 83 204 89 83 204 91 82 203 91 80 203 92 78 203 94 79 205 95 79 205 97 79 203 98 78 202 100 79 199 100 81 198 101 82 198 101 81 196 102 82 195 103 81 193 104 80 191 104 81 191 104 83 190 105 82 190 107 81 189 109 90 182 111 89 182 112 88 184 112 87 184 112 86 184 112 85 182 111 86 182 109 89 184 106 90 184 104 92 184 102 94 184 100 94 184 98 94 184 95 94 183 94 93 183 93 92 184 92 90 184 91 89 187 89 87 189 87 85 191 86 84 194 84 85 196 83 85 198 82 86 200 82 85 202 84 83 200 85 81 198 86 80 199 87 80 200 88 81 202 88 81 204 89 82 204 90 81 204 91 79 204 92 77 204 93 78 205 94 78 206 96 77 206 97 77 203 99 79 200 100 81 199 101 81 198 102 81 196 102 82 195 103 82 195 104 81 193 103 82 191 103 83 190 104 83 190 107 82 188 109 