P3
50 50
255
43 130 108 42 131 109 40 131 111 39 132 113 39 130 113 39 130 115 40 129 115 41 128 115 41 127 117 40 128 119 40 130 120 41 130 123 43 130 124 44 128 125 45 127 126 47 124 128 50 122 129 53 121 131 55 120 132 55 120 133 57 120 133 57 120 133 58 120 134 60 121 136 62 121 138 64 120 140 64 120 143 65 120 146 65 122 150 66 122 153 65 121 153 65 120 153 67 118 153 69 116 153 70 115 154 69 115 157 70 115 159 71 116 161 70 117 162 72 118 164 72 120 167 73 122 169 72 124 170 72 126 170 73 128 170 73 127 171 73 128 172 73 128 173 73 125 175 74 125 176 44 128 112 41 129 113 39 129 114 38 129 116 38 127 117 38 126 117 40 125 118 40 125 118 41 125 119 40 125 121 39 127 122 40 127 124 41 127 126 43 125 128 44 124 129 47 122 130 49 120 131 52 119 133 54 119 134 55 118 135 56 118 134 57 118 134 58 119 136 60 119 138 62 119 142 63 117 143 65 118 146 65 119 149 66 119 152 67 120 154 67 120 155 67 119 155 67 117 155 68 116 155 69 114 157 69 114 159 69 114 159 69 114 161 70 115 163 71 116 166 72 117 168 72 120 169 72 123 169 73 125 169 74 127 168 74 127 169 73 126 171 73 126 172 74 125 174 76 125 175 42 126 115 41 126 117 38 127 118 37 126 118 37 124 119 38 122 119 38 122 121 39 123 121 40 122 121 41 122 122 40 124 123 40 125 125 41 124 127 42 122 130 44 121 132 47 120 133 49 118 134 52 117 135 54 117 135 56 117 137 58 117 137 58 117 136 60 117 139 61 118 141 62 117 144 62 116 147 64 116 149 66 116 152 66 117 154 67 117 155 67 117 156 67 117 156 66 116 158 66 114 159 67 113 161 68 112 161 68 111 161 69 111 162 68 112 164 69 115 166 70 116 167 71 118 167 71 121 167 74 124 167 75 125 166 74 125 168 74 125 169 75 124 170 75 124 172 75 125 173 40 125 117 39 125 119 38 126 119 38 124 120 38 121 121 38 120 121 39 121 122 40 121 122 41 120 122 42 120 122 42 121 123 41 122 125 40 121 128 42 120 131 43 118 135 46 117 135 49 115 135 52 115 136 54 114 136 57 115 138 59 116 139 60 116 140 61 117 142 61 117 144 62 116 147 61 116 149 63 116 151 65 117 154 66 116 157 67 114 157 68 114 158 67 114 158 66 112 159 65 111 161 65 111 162 66 109 162 67 109 165 68 110 166 68 111 166 70 113 167 71 115 167 71 117 166 72 120 165 74 122 165 74 122 165 75 124 167 75 124 169 75 124 170 75 125 172 75 126 174 39 123 118 38 124 119 38 123 120 38 121 121 38 119 122 38 118 123 40 118 124 41 118 124 41 118 124 41 118 124 41 118 125 41 118 128 41 117 130 42 116 132 43 115 136 45 115 138 49 114 137 51 114 138 54 113 139 58 114 139 59 114 141 60 116 142 61 116 144 62 115 145 61 114 148 61 114 151 62 115 154 63 115 156 64 114 158 66 112 159 67 111 160 66 111 161 64 109 163 65 107 164 66 107 165 66 107 166 66 107 169 67 109 169 69 111 169 71 112 169 73 114 168 72 116 167 73 118 165 72 120 165 74 121 166 75 122 168 76 123 169 74 124 170 75 125 172 74 126 173 39 120 120 39 121 120 38 120 121 38 119 121 38 117 122 39 116 123 40 116 124 41 115 127 40 116 128 41 116 127 41 117 127 42 116 129 43 116 133 43 115 135 44 115 138 45 115 139 49 114 140 51 113 141 54 111 142 58 112 143 59 114 143 61 114 143 61 114 145 62 114 147 61 113 149 61 112 153 62 112 157 62 113 160 63 111 162 63 110 163 65 109 163 65 107 164 64 106 166 65 105 167 65 105 168 65 105 170 66 106 171 67 107 171 69 110 170 72 111 170 73 112 169 73 114 168 72 117 166 72 119 167 72 120 167 73 121 169 74 122 169 74 123 170 74 124 171 73 125 173 39 118 121 39 119 122 38 118 122 38 116 122 39 115 123 39 114 124 40 114 127 40 113 128 40 114 129 40 114 129 41 115 130 42 116 130 43 115 133 45 114 136 46 114 139 48 115 140 50 114 142 53 113 143 56 112 144 58 112 145 60 112 145 61 112 147 62 113 148 63 113 150 63 112 153 62 111 156 62 111 159 62 110 164 62 109 166 62 109 168 64 107 168 64 105 168 64 104 168 65 103 170 66 103 171 64 104 174 64 104 174 65 105 174 68 108 173 71 110 171 72 112 172 72 114 171 71 116 169 70 118 168 71 119 169 71 120 169 73 121 169 73 122 170 72 123 171 72 123 172 40 115 123 39 116 123 38 115 125 38 113 125 39 113 125 39 113 126 39 113 128 39 112 129 39 113 130 40 113 130 40 113 131 42 114 132 43 115 134 47 114 137 49 114 140 51 114 142 54 113 144 56 113 145 59 112 146 60 112 147 61 112 149 61 111 150 63 110 152 64 111 154 65 110 156 65 109 159 65 108 162 64 108 166 63 106 168 62 106 171 62 105 171 62 104 170 63 103 171 64 102 171 66 102 172 65 103 174 64 103 175 65 104 175 67 106 173 69 109 173 71 111 173 72 112 172 71 114 171 71 117 170 71 119 170 71 119 169 73 119 169 72 120 169 71 123 170 71 124 171 38 115 125 38 114 125 38 112 127 38 111 128 38 111 128 39 112 128 40 112 129 40 112 129 40 113 131 40 113 132 41 112 133 43 113 134 46 114 135 48 113 138 51 113 141 54 112 143 57 112 145 59 113 146 61 112 147 62 111 149 64 111 151 64 110 152 65 109 155 66 109 158 67 108 160 67 107 162 66 106 164 64 106 168 62 105 170 62 104 173 63 104 173 63 104 173 64 103 173 65 102 174 66 102 174 65 103 175 64 103 176 66 104 177 67 106 175 69 108 174 70 109 173 72 112 173 72 114 171 71 116 169 71 118 169 71 119 169 72 119 169 72 120 169 72 122 169 72 126 170 37 112 128 38 111 127 38 109 128 37 108 129 37 108 129 39 110 129 41 111 130 40 112 131 40 112 132 41 113 133 41 113 133 44 112 135 47 112 136 49 111 138 53 110 141 57 110 143 58 111 145 61 112 146 63 111 147 65 110 150 67 109 152 68 108 155 68 109 157 69 108 159 69 106 162 69 104 164 66 103 166 64 103 169 63 102 171 63 102 173 63 103 174 63 103 174 65 103 175 65 103 175 65 102 176 65 103 177 65 103 178 66 104 177 67 105 176 68 107 174 70 108 173 72 110 172 72 114 172 71 117 170 71 118 169 71 119 169 71 120 169 71 121 171 73 123 170 73 126 171 39 109 129 38 109 129 37 107 130 36 106 130 37 106 130 38 107 130 40 108 131 41 110 132 41 110 133 42 110 132 43 109 132 44 109 135 47 109 137 51 109 138 55 109 141 59 109 143 60 109 144 62 110 146 64 109 149 67 108 152 69 107 154 69 105 157 70 106 159 71 104 159 71 103 162 69 102 166 66 101 167 64 101 169 64 100 171 64 101 173 64 101 175 64 102 175 64 103 176 64 103 178 65 103 179 65 103 179 65 103 179 66 104 178 66 105 177 68 106 175 70 107 173 71 109 173 71 113 172 70 116 170 70 118 169 69 119 169 70 120 171 71 122 171 73 123 171 73 126 171 38 107 129 37 105 130 37 105 130 36 104 132 37 104 131 37 104 131 39 105 132 41 107 133 41 108 133 42 107 133 44 106 133 45 106 136 48 107 137 53 107 139 58 108 140 60 107 142 61 107 144 63 107 148 66 107 151 68 106 153 68 105 155 69 104 158 70 104 160 72 102 161 71 100 164 70 99 166 67 99 168 66 99 169 65 98 171 65 99 173 66 100 175 66 101 176 65 101 177 65 103 179 65 104 180 65 103 181 65 103 181 65 102 181 67 105 179 69 105 177 69 106 175 69 108 175 70 112 173 69 115 171 69 117 170 68 119 171 69 120 170 70 121 171 72 122 172 73 125 171 38 106 130 37 103 132 36 103 132 37 103 133 37 102 134 36 103 133 37 102 133 39 102 133 39 103 133 41 104 133 44 104 134 47 103 136 49 104 138 54 104 139 59 105 140 61 106 144 63 105 146 65 105 150 67 105 153 68 105 154 69 103 156 70 102 159 71 102 161 71 99 162 71 99 165 70 98 166 69 98 167 68 97 168 67 98 171 66 98 173 68 98 174 68 99 177 68 100 178 66 103 179 66 104 180 65 104 181 65 103 181 67 103 182 69 103 181 69 105 180 70 106 178 70 108 176 69 111 174 69 113 172 68 116 172 68 118 173 68 120 171 70 122 171 72 123 171 73 124 170 39 104 132 38 102 133 37 100 134 37 101 135 38 101 136 37 99 135 37 98 135 37 99 135 39 99 134 42 100 134 44 100 135 47 101 136 49 101 137 54 101 139 59 102 141 62 103 145 65 103 149 67 104 153 67 103 155 68 102 157 70 103 157 72 102 160 72 101 163 71 98 164 70 97 164 71 97 164 70 97 166 69 98 168 68 98 169 68 98 172 68 97 174 69 98 176 69 99 178 68 103 180 68 104 180 68 103 181 68 104 181 70 103 182 71 102 181 71 105 181 69 106 179 69 109 176 70 110 174 69 112 173 69 114 173 68 117 172 68 119 172 70 121 172 72 121 171 74 122 169 40 101 133 39 99 134 38 98 136 37 98 136 38 98 137 39 96 137 39 96 136 39 96 137 40 95 136 43 95 134 45 97 135 47 96 136 50 97 137 55 98 138 60 99 142 63 99 145 66 100 151 68 101 155 68 100 158 69 100 158 70 102 160 72 102 161 71 100 164 72 98 165 71 96 165 71 96 165 70 97 166 70 97 167 69 98 168 69 100 172 69 99 174 70 99 176 71 101 179 71 102 180 71 104 181 70 104 181 71 104 181 72 103 181 71 104 181 71 106 180 70 108 179 69 110 178 69 111 176 68 113 175 69 113 174 70 116 173 69 118 173 70 119 172 72 120 172 74 121 170 42 98 133 40 95 135 39 94 137 39 94 137 39 94 138 41 94 138 42 93 138 42 93 138 43 93 137 45 92 136 46 93 135 49 93 136 53 94 139 56 94 141 60 94 144 64 95 149 67 96 153 69 97 158 71 98 159 71 100 160 72 102 161 73 101 162 73 100 164 73 98 164 72 96 165 72 96 165 71 96 165 70 96 167 70 98 169 69 100 171 70 100 173 71 101 176 72 102 178 73 102 179 72 103 180 71 103 181 72 104 180 73 104 180 71 105 180 71 106 182 70 108 180 68 110 179 68 112 178 69 113 176 70 113 176 70 114 175 70 116 174 71 116 173 74 117 172 74 119 170 45 96 133 42 93 134 41 92 137 41 91 138 41 92 138 43 92 138 45 90 139 46 89 139 46 89 139 47 89 137 50 90 136 53 90 137 55 91 140 58 90 144 62 91 148 66 91 152 68 92 156 71 95 160 72 97 161 72 98 161 72 99 161 74 100 164 75 99 164 75 98 163 75 97 163 74 96 164 72 96 165 71 95 167 70 97 168 70 99 171 71 100 173 72 100 175 74 101 176 73 102 176 72 102 178 72 103 179 73 103 179 73 105 179 71 105 180 71 107 180 71 108 180 69 109 179 70 112 178 70 114 177 71 113 176 71 113 175 71 115 174 72 114 173 74 116 172 76 117 170 46 94 133 44 92 134 43 91 136 43 90 137 44 89 139 46 88 139 47 86 139 48 87 140 48 88 140 51 86 138 53 87 137 55 87 139 58 87 142 60 87 146 63 88 149 66 89 153 69 90 157 71 93 160 71 96 161 71 96 162 71 96 162 74 97 165 77 98 165 76 96 163 76 97 163 76 96 163 75 94 165 74 94 168 73 94 168 72 96 170 72 98 171 73 99 172 74 101 173 73 102 174 74 103 176 73 104 177 72 103 178 72 104 179 71 105 180 72 107 180 72 108 179 72 109 178 71 111 178 72 113 177 72 113 176 72 113 176 73 113 176 74 115 174 76 116 173 76 116 170 49 92 134 47 90 135 46 90 136 46 90 137 47 88 139 48 85 141 49 84 141 49 85 140 51 85 140 53 86 139 56 86 139 59 84 140 60 83 143 62 84 147 65 85 151 67 87 153 69 89 156 70 92 158 69 93 159 70 94 161 71 94 162 74 95 164 77 95 164 78 94 164 78 95 163 77 94 163 77 92 165 76 93 168 75 93 169 74 95 169 74 96 170 74 99 170 75 101 171 74 102 172 74 102 174 74 103 175 73 103 176 72 104 177 73 106 178 74 106 178 74 107 178 75 109 177 75 111 177 74 111 177 74 113 177 73 113 176 74 114 176 75 115 175 76 116 173 77 117 170 51 91 134 50 90 134 49 90 136 49 89 137 50 87 139 51 85 140 50 83 140 52 83 141 54 83 141 56 85 140 58 85 141 61 83 142 63 82 144 65 82 147 67 83 151 68 85 154 69 86 156 69 89 157 69 90 158 69 90 160 71 91 161 74 92 162 77 93 164 78 92 163 78 93 162 78 93 164 77 93 166 77 93 168 76 94 168 76 95 168 74 96 167 74 99 167 76 101 169 76 102 170 75 102 171 74 103 171 74 103 173 74 105 175 74 106 176 75 106 177 75 105 178 76 108 176 76 110 177 77 111 176 76 111 177 76 113 176 76 114 174 77 115 173 78 116 172 78 117 169 53 90 133 52 90 134 51 89 136 51 89 137 52 87 137 52 83 138 52 82 138 54 83 139 56 83 139 57 83 140 59 84 142 61 82 143 63 83 145 65 83 148 67 82 152 68 83 154 69 85 155 68 87 157 70 86 159 70 87 161 72 88 162 75 88 162 77 90 163 78 91 162 78 92 162 79 93 164 79 93 166 79 94 166 77 95 166 76 97 166 75 97 166 74 98 165 75 100 167 76 100 167 75 101 168 75 103 169 74 104 171 74 104 173 74 106 175 75 107 175 75 106 175 75 107 175 77 109 174 76 109 174 75 110 175 76 112 175 78 113 174 79 114 173 79 115 171 80 117 169 54 88 134 53 88 135 54 89 135 54 88 136 53 85 137 53 82 138 54 81 138 55 81 138 57 82 139 59 83 140 61 83 143 63 82 144 65 81 145 67 82 148 68 82 152 68 83 155 69 83 156 70 84 157 71 84 158 71 85 160 73 86 162 75 87 162 77 89 162 78 90 161 79 91 162 80 92 163 81 93 164 80 94 165 78 95 165 77 96 165 76 96 164 75 97 163 75 99 164 76 100 164 77 101 165 76 102 166 75 104 168 75 104 171 75 104 172 75 104 172 77 104 172 77 105 172 77 107 172 77 108 172 77 108 173 78 110 173 78 111 172 79 112 171 79 113 170 80 116 169 54 86 134 55 87 134 55 87 134 55 86 135 54 84 137 55 83 138 55 81 138 56 80 138 58 80 140 61 81 141 64 81 142 65 82 144 67 80 146 69 81 148 69 82 152 69 81 154 70 81 155 72 82 156 72 82 158 72 84 159 73 85 161 74 87 161 76 88 160 77 89 159 79 91 160 80 91 161 81 92 162 81 93 162 79 94 164 78 95 163 76 96 162 76 97 161 77 99 161 77 100 162 77 101 163 77 102 164 77 102 166 76 102 168 76 102 169 76 101 170 77 101 171 78 102 170 78 103 170 79 105 171 78 106 171 78 107 170 80 110 169 80 111 169 80 112 169 80 115 167 53 83 135 54 85 133 55 85 133 55 84 134 54 83 136 54 83 138 55 82 138 56 80 139 60 79 141 64 79 141 67 80 142 68 81 144 69 80 146 70 80 148 70 81 151 71 80 152 72 79 154 73 80 155 73 82 155 72 84 157 73 85 158 74 87 159 76 88 159 77 89 159 79 90 160 80 90 161 80 91 161 80 93 162 80 94 162 79 94 163 77 96 163 78 97 161 79 98 160 78 99 159 78 100 161 79 100 161 78 100 163 78 100 165 78 100 167 78 100 168 79 99 170 80 99 170 79 100 170 79 103 170 79 105 169 79 106 167 80 108 166 81 110 166 80 111 167 80 113 166 52 81 135 54 84 135 55 84 134 54 84 134 55 83 137 55 82 138 56 81 139 58 79 140 61 79 142 65 79 142 68 79 143 70 80 145 71 80 146 71 78 148 72 79 149 72 79 151 73 78 154 75 79 155 74 82 154 73 83 154 73 85 156 74 86 156 75 87 157 77 86 159 79 86 160 80 87 160 79 90 161 79 92 162 79 94 162 80 94 162 79 94 161 80 94 160 81 95 158 81 97 157 80 98 158 80 99 159 81 98 160 80 98 162 80 97 164 82 97 166 82 96 168 82 97 168 81 99 167 81 101 167 81 103 166 80 104 164 80 106 164 83 109 164 81 110 163 80 112 163 52 81 137 54 83 136 55 83 135 54 82 135 55 81 136 56 81 138 57 80 139 58 79 140 60 78 141 64 79 142 67 80 142 70 80 144 73 79 145 73 79 147 73 78 148 73 78 150 75 78 152 75 79 154 75 82 153 74 83 153 74 84 154 75 85 156 75 85 157 76 84 158 77 84 158 77 86 159 78 88 160 78 91 161 79 94 161 80 94 160 80 93 159 80 93 158 81 95 157 81 96 157 80 95 156 82 96 156 83 96 158 83 95 160 83 94 160 84 94 163 85 94 165 85 96 165 84 99 165 83 100 164 83 100 163 83 101 162 82 104 161 83 107 161 82 109 160 81 111 160 52 81 138 53 82 137 55 81 136 55 81 137 55 80 137 56 79 137 56 78 138 58 79 140 60 79 139 63 79 140 66 80 141 69 79 142 72 79 144 74 78 145 74 78 146 76 78 148 76 78 150 76 79 152 76 81 152 74 83 151 74 84 152 74 85 154 74 84 157 76 84 156 77 85 157 77 86 158 78 89 159 79 92 160 81 94 158 82 93 158 82 92 157 81 92 157 82 92 157 81 93 156 81 93 155 82 92 155 83 92 156 85 93 157 85 92 159 86 93 161 85 93 162 85 96 162 84 97 163 83 97 163 85 99 162 86 100 160 85 103 159 84 105 158 83 109 158 83 110 158 53 81 137 55 81 138 56 80 138 56 80 138 56 79 137 57 78 138 57 78 138 59 79 138 60 78 138 62 78 138 65 80 138 68 80 139 71 79 142 73 79 144 74 78 145 75 78 147 76 79 148 77 80 150 76 81 150 75 83 151 74 85 153 74 85 154 75 85 155 76 85 155 78 86 156 78 86 157 80 90 157 81 92 157 83 93 157 84 93 156 84 93 155 83 92 154 82 91 155 83 91 155 83 92 155 83 92 155 84 91 156 85 90 158 85 91 159 85 91 160 85 92 160 84 94 161 84 95 160 84 96 161 85 96 161 86 98 161 87 101 159 86 104 157 85 107 156 85 108 156 55 79 136 57 80 138 57 79 138 58 79 138 58 79 137 58 79 137 59 78 135 60 79 136 61 78 136 63 79 135 65 80 135 68 81 136 70 80 140 72 80 142 73 79 143 74 80 145 75 81 145 76 81 146 76 82 148 76 83 149 75 83 151 75 84 152 75 85 153 76 86 154 77 86 155 80 88 155 82 90 156 83 92 156 85 93 155 86 94 154 86 94 154 84 94 153 84 91 154 84 91 154 85 90 156 86 90 157 87 90 158 86 90 158 86 90 159 85 91 160 84 92 160 84 93 159 84 95 160 85 95 160 86 95 160 87 97 160 87 99 159 89 103 157 88 105 156 86 106 154 57 78 135 59 79 137 60 79 138 60 78 138 60 79 138 60 78 136 61 78 135 62 80 134 63 79 134 64 79 133 66 81 133 67 82 135 69 82 137 70 82 139 73 81 139 75 81 141 76 81 142 76 82 144 76 82 146 76 82 146 76 83 147 76 84 149 77 86 151 76 86 152 78 86 153 80 88 153 83 90 155 84 91 156 85 92 154 86 93 153 87 93 152 86 92 152 86 92 153 86 90 154 86 90 155 87 90 157 88 90 158 88 90 158 87 89 159 86 91 160 85 92 160 85 93 160 85 92 160 86 93 160 86 94 160 88 96 160 88 98 158 89 101 155 89 103 153 88 106 152 60 78 136 61 79 138 62 78 139 61 78 138 61 78 138 62 78 137 62 79 135 64 80 133 65 79 132 67 81 132 68 82 132 68 83 134 70 84 135 71 85 137 73 84 138 76 83 139 77 82 141 77 83 143 76 84 143 76 84 145 77 84 146 77 86 147 76 86 148 77 86 149 80 87 150 82 89 151 84 90 153 85 90 154 86 90 153 86 91 153 87 91 151 88 90 151 88 89 151 88 88 153 87 89 155 88 89 157 89 90 157 89 90 157 88 90 158 88 91 159 86 92 160 86 92 160 86 92 160 87 92 160 88 93 161 88 94 160 88 96 157 90 99 154 90 102 152 91 106 152 62 78 137 62 78 140 63 77 139 62 77 138 64 78 138 64 80 136 64 81 135 66 81 133 68 80 132 70 82 132 70 84 131 70 85 132 71 86 134 71 87 135 74 86 137 76 85 138 76 85 139 76 85 139 76 85 140 76 86 141 77 87 144 77 87 145 77 86 146 78 86 147 81 88 148 82 89 149 84 90 150 86 90 152 87 89 151 86 89 150 87 89 150 88 89 150 89 87 150 88 87 152 89 88 155 89 88 157 90 90 157 90 91 156 90 92 157 89 93 159 88 92 159 88 92 159 88 93 158 88 93 159 90 93 159 90 94 157 91 96 155 92 98 152 92 102 151 93 105 151 65 78 139 65 76 140 65 76 140 66 75 138 67 77 137 67 80 135 67 81 134 68 81 132 69 82 131 71 83 131 72 84 131 73 85 131 73 86 132 73 87 133 75 88 135 76 87 136 76 87 137 77 86 136 76 87 137 75 88 138 77 88 141 78 87 143 78 87 144 80 87 144 82 87 145 83 89 146 86 89 146 87 90 148 88 89 148 88 87 147 88 87 149 88 87 149 88 86 150 89 87 151 90 87 154 90 88 156 91 89 155 91 92 155 91 93 156 92 94 157 90 94 157 90 93 156 90 93 157 91 93 157 92 92 157 92 93 156 92 95 154 93 97 153 93 101 151 94 105 151 68 77 139 69 76 139 68 75 140 69 74 138 71 76 137 70 80 135 69 81 133 70 82 131 71 83 130 72 85 130 73 85 130 74 86 130 75 87 131 75 88 132 76 88 133 77 87 134 78 87 134 78 87 134 78 88 135 76 89 137 77 90 138 77 89 140 78 87 141 80 86 142 81 86 143 83 87 144 86 88 144 88 89 144 89 88 144 89 87 145 88 86 146 88 85 147 88 85 148 90 86 149 90 86 153 91 87 155 92 88 155 92 91 156 92 92 155 93 94 155 93 95 155 93 96 155 93 93 156 94 92 155 94 92 154 94 94 154 94 96 153 93 97 152 93 100 152 94 103 152 71 75 139 72 75 139 72 74 138 73 74 137 73 76 136 73 78 134 73 81 133 73 83 131 73 84 130 74 86 131 75 87 130 75 87 131 76 87 131 77 88 132 78 88 132 79 88 132 80 87 133 80 87 133 79 89 134 79 90 136 78 91 137 78 90 138 79 88 138 81 87 140 82 86 141 83 86 143 85 87 142 88 87 142 89 87 142 90 87 144 89 87 144 89 87 145 90 86 145 92 86 147 92 87 151 92 88 153 93 90 154 93 91 155 94 92 153 94 95 153 94 97 153 93 95 154 94 93 154 96 92 153 96 93 152 96 95 152 96 96 152 96 97 151 94 99 151 94 103 151 74 75 138 75 75 139 76 74 138 76 75 137 76 77 134 76 79 133 75 81 132 75 83 132 75 84 131 77 86 131 77 87 131 78 87 131 78 87 132 79 87 131 79 88 130 81 87 131 82 87 132 83 87 133 83 89 133 82 91 135 81 90 136 81 89 136 82 89 137 82 88 138 82 86 139 83 86 141 86 86 142 89 87 142 89 87 142 91 88 143 91 89 144 91 89 143 91 88 145 94 88 147 95 88 150 95 90 151 95 92 153 95 93 153 95 94 153 96 97 153 94 97 152 94 96 153 95 94 152 97 93 152 98 94 151 98 95 151 98 96 150 97 97 150 97 99 150 96 101 150 76 75 138 78 76 139 79 76 139 79 76 138 78 78 136 77 79 135 76 81 132 76 81 132 76 83 131 77 85 130 78 87 131 79 87 132 79 88 132 79 88 130 80 87 129 82 88 130 83 87 132 85 88 133 86 89 134 86 90 135 84 90 136 83 90 136 85 90 136 84 89 136 84 86 138 85 86 139 87 86 141 89 86 143 90 86 143 91 88 142 93 89 143 92 90 144 93 90 146 95 90 147 97 91 149 97 93 150 97 95 152 97 96 152 97 96 153 97 97 153 97 98 151 97 97 151 97 95 152 98 94 151 99 93 150 100 94 151 100 96 150 100 98 149 100 100 149 99 100 149 77 76 136 78 76 138 80 76 139 80 76 138 81 78 137 80 79 134 79 79 132 79 80 131 78 83 130 78 85 131 80 86 131 81 86 132 82 87 130 82 86 129 82 86 130 83 87 130 84 87 131 86 87 131 87 89 134 87 90 135 87 91 135 86 91 134 86 90 134 86 89 135 87 87 137 86 86 139 88 86 141 90 86 142 91 85 142 92 88 142 92 90 144 92 91 145 94 91 145 96 92 146 99 93 148 99 95 150 99 96 151 98 96 151 100 98 151 100 98 150 100 99 148 100 96 149 100 95 151 100 94 151 101 93 150 102 93 151 103 95 150 103 97 150 102 100 149 103 100 149 78 77 135 80 78 137 81 77 137 82 76 137 82 78 136 81 79 134 81 79 132 80 80 131 80 81 131 80 84 131 81 85 132 82 86 132 83 86 131 83 86 130 84 86 131 85 86 131 86 87 130 88 87 131 88 88 134 88 90 135 88 91 135 88 90 134 89 89 134 87 87 135 87 86 136 88 84 138 90 85 140 90 86 141 92 86 141 93 88 142 93 90 144 93 92 145 94 92 146 97 93 146 100 94 147 102 95 148 102 96 148 102 97 149 102 97 148 102 98 146 102 98 145 101 97 147 102 96 149 103 94 151 104 93 151 104 93 150 105 96 150 106 99 151 106 101 150 106 102 150 81 78 135 82 79 135 83 79 136 83 78 135 84 78 134 83 78 133 82 79 132 82 80 131 82 81 132 82 82 132 82 84 132 82 85 132 84 84 131 84 86 131 85 86 130 86 87 130 87 86 131 88 87 132 90 87 133 90 89 134 90 90 134 89 89 134 89 88 133 88 86 135 88 86 136 89 85 138 90 85 138 91 86 139 92 86 140 94 88 141 95 91 143 95 92 144 97 92 145 98 93 145 100 95 146 102 95 146 104 96 146 104 96 146 103 97 144 104 97 143 104 97 143 105 96 145 105 96 147 107 95 150 108 93 150 108 94 149 109 97 150 109 100 150 109 102 151 110 103 150 84 79 134 85 79 135 86 80 135 86 79 135 86 79 134 85 79 133 84 80 131 83 80 131 83 81 132 83 82 133 82 83 133 82 84 132 84 84 131 86 86 131 87 87 131 87 87 130 87 86 130 89 86 130 90 87 131 90 88 133 91 87 133 91 87 133 91 87 133 91 85 134 92 85 135 91 84 136 91 84 136 92 85 137 93 86 140 94 89 140 96 91 141 97 92 142 98 93 143 99 93 144 101 94 144 102 94 145 104 96 144 105 96 142 106 95 141 107 95 140 107 95 140 108 94 143 109 95 145 111 95 147 111 94 147 111 95 148 112 97 150 112 100 150 112 102 150 113 104 150 87 79 135 88 80 135 88 81 136 87 81 137 86 80 135 87 80 134 86 80 133 85 81 133 82 81 132 83 81 133 83 82 134 84 83 133 86 84 131 88 85 131 89 86 131 89 87 130 89 88 129 90 87 129 92 87 129 93 86 131 93 87 132 93 86 132 93 85 132 93 85 133 93 85 133 92 85 134 92 84 135 93 85 136 95 86 137 96 88 137 98 90 139 99 92 140 101 93 141 102 94 142 104 93 142 104 94 142 106 95 140 107 94 139 109 93 140 111 93 139 112 92 140 114 92 142 114 93 144 115 94 145 114 94 147 114 95 148 116 97 149 116 99 150 116 101 149 116 103 149 88 82 137 89 82 136 88 84 137 87 83 138 87 81 137 86 80 136 86 79 135 86 80 134 84 80 135 84 81 134 85 82 134 86 82 133 89 83 131 90 83 130 92 85 129 92 86 129 92 87 127 93 87 127 95 86 127 94 87 128 94 87 129 93 86 130 94 86 131 94 86 131 94 85 131 94 85 131 95 86 132 96 85 132 97 85 134 99 87 136 101 89 138 102 91 139 104 93 139 105 94 141 106 94 140 108 93 139 109 94 139 111 93 139 112 92 139 114 92 138 116 91 138 118 91 140 119 92 141 119 93 143 118 94 145 117 95 146 117 97 148 119 99 149 119 101 149 119 103 148 89 84 138 89 84 138 89 85 138 88 84 138 88 82 138 88 80 137 88 81 135 88 80 135 87 80 134 87 81 134 90 83 132 91 83 131 93 83 130 94 83 129 94 84 129 94 85 127 94 85 125 94 85 123 94 85 125 93 86 125 93 87 126 94 86 127 94 86 128 94 85 129 95 86 128 95 86 129 97 85 129 98 85 129 99 86 132 102 87 134 104 88 137 106 90 138 106 92 138 108 94 140 109 93 139 111 93 137 112 93 137 114 93 138 116 93 137 117 91 137 119 90 136 120 90 137 122 92 139 121 93 141 119 94 143 119 95 145 119 97 146 120 98 147 120 102 148 120 104 148 89 85 139 89 85 140 88 84 139 89 83 139 90 81 138 90 79 137 91 80 135 90 80 134 90 80 133 90 81 132 93 82 131 95 82 130 96 82 129 96 83 128 95 83 129 96 83 126 95 82 123 94 83 120 93 84 120 93 85 121 93 85 122 94 84 123 94 84 125 96 83 125 97 84 124 97 86 125 98 86 126 99 86 126 102 86 129 105 86 132 107 87 135 108 89 136 109 91 137 111 93 137 113 94 136 114 93 136 115 93 136 115 93 137 117 91 136 119 91 135 121 90 135 123 92 135 124 93 136 123 94 138 122 96 141 122 97 143 122 97 144 122 99 144 121 102 146 122 104 146 89 87 139 89 86 139 89 85 138 90 83 138 92 81 137 92 79 136 92 80 136 94 80 134 93 80 132 93 80 130 94 82 130 96 82 129 97 81 127 97 81 127 97 81 127 96 81 125 95 81 122 94 81 119 93 81 118 92 82 117 93 82 119 94 82 120 96 82 122 98 81 121 99 82 121 100 84 122 102 85 123 102 85 123 104 85 125 108 85 128 109 86 131 111 88 133 112 89 135 114 91 135 115 93 134 116 93 133 118 94 134 117 93 135 118 91 135 121 91 133 123 91 132 124 92 133 125 94 134 126 95 136 127 97 138 127 96 140 124 99 141 124 100 141 124 103 143 124 104 144 90 88 138 90 87 137 90 87 137 91 84 138 92 82 137 93 80 136 95 80 136 95 81 134 94 81 131 94 81 129 96 82 129 98 82 128 98 81 126 98 81 126 97 81 125 96 81 122 94 80 121 92 79 119 91 80 116 91 81 115 93 80 116 94 79 116 97 79 118 99 80 119 101 80 119 103 83 119 105 84 119 107 84 120 108 84 121 110 84 124 111 85 126 113 86 129 114 89 132 115 92 134 116 92 133 117 93 133 119 93 133 119 93 133 120 92 133 122 92 132 124 92 131 125 92 131 127 94 132 130 96 133 130 97 135 130 98 136 129 99 137 127 101 139 127 103 141 126 105 143 90 88 137 90 89 136 91 87 137 92 86 138 93 83 136 95 82 136 96 81 134 95 81 132 94 81 131 95 81 130 96 81 128 98 81 127 97 81 126 97 80 125 96 80 124 94 81 122 93 80 120 91 79 118 90 79 116 91 79 114 93 78 114 94 78 115 97 79 115 100 78 115 104 80 115 106 82 115 107 83 116 109 83 116 112 82 117 112 83 119 113 84 122 115 85 124 115 88 127 116 91 129 118 92 130 119 93 131 121 94 131 121 94 131 122 94 131 124 93 130 126 92 129 126 92 129 128 93 130 130 95 131 132 97 134 132 99 135 132 100 136 129 102 139 128 104 140 126 105 143 90 90 137 90 90 136 91 89 137 93 86 137 93 85 136 94 83 135 95 81 133 94 81 131 94 80 129 95 80 129 97 81 129 97 81 127 97 81 126 95 81 126 94 82 124 93 81 123 91 80 120 90 78 118 90 78 115 90 77 113 93 78 112 95 79 113 98 78 115 101 79 114 104 79 114 106 80 113 109 81 114 112 82 114 114 82 115 115 81 117 115 82 118 116 83 121 117 87 123 119 91 125 121 91 126 122 93 127 122 94 128 122 94 128 124 94 129 126 93 128 128 92 127 129 92 127 129 94 128 131 96 129 133 98 131 134 100 133 134 101 136 132 103 138 130 104 141 128 103 143 91 91 137 90 91 137 91 90 137 93 88 136 93 87 135 94 84 133 95 81 132 95 81 130 94 81 128 96 80 128 97 80 129 97 80 127 96 81 126 94 81 126 93 82 124 91 82 122 90 80 120 88 79 118 89 79 115 90 77 113 93 77 112 95 78 113 98 78 113 101 79 113 103 79 113 107 80 112 110 80 112 113 81 113 116 81 113 118 82 115 117 82 116 117 83 118 119 86 119 121 90 121 123 90 122 123 92 123 123 92 125 124 92 126 126 94 126 127 93 125 130 93 126 130 93 126 131 94 127 132 96 128 133 98 129 134 99 132 133 100 135 133 102 138 131 102 140 129 102 142 