P3
50 50
255
96 186 75 98 186 75 100 186 74 102 186 71 105 186 71 108 186 72 110 187 74 113 187 75 114 187 76 116 185 79 119 184 80 122 184 82 124 182 84 125 182 86 128 182 89 130 183 93 131 183 93 134 184 94 135 185 95 136 185 97 136 186 99 137 185 102 140 184 105 142 185 108 144 186 110 146 185 114 148 184 117 150 184 118 151 183 121 151 181 124 152 180 128 152 178 131 153 176 133 153 173 135 153 170 136 155 167 138 157 164 140 159 163 141 160 161 143 161 160 144 162 159 146 163 158 148 164 157 149 165 157 152 168 155 154 171 153 156 174 153 160 176 152 162 177 152 165 177 151 167 96 187 75 99 186 74 101 187 74 103 186 72 105 186 71 108 186 71 110 185 72 113 185 73 115 184 75 118 182 78 120 182 80 123 181 81 126 181 83 128 180 85 129 181 88 130 182 92 132 182 94 133 184 94 135 185 94 136 185 95 138 184 97 138 184 101 140 184 102 142 184 105 144 184 109 146 183 113 148 183 116 150 183 118 151 182 121 152 181 124 154 179 127 153 178 129 153 176 132 153 173 134 155 169 135 157 166 136 159 164 139 163 162 141 164 160 145 165 158 146 165 157 148 166 157 149 167 156 152 168 156 154 171 155 156 174 154 158 176 154 161 178 153 164 178 152 167 178 152 169 95 186 74 98 186 73 101 186 72 104 187 72 106 187 71 109 187 71 111 185 72 113 183 74 116 182 75 118 180 77 120 180 79 123 179 81 126 180 82 128 180 84 129 181 89 131 183 92 131 182 94 132 183 94 133 184 94 135 185 97 137 185 99 139 184 100 139 183 102 142 184 104 144 183 108 146 182 111 148 183 114 150 182 117 153 181 121 154 180 123 156 178 127 156 177 129 155 175 132 155 172 135 156 168 136 159 166 138 162 163 138 164 160 140 166 158 144 167 156 147 168 155 150 170 155 151 170 154 153 171 155 155 173 156 157 175 155 159 178 154 163 179 154 166 179 154 168 179 154 169 95 186 74 97 185 72 100 185 71 103 186 71 106 185 70 108 185 72 111 184 72 112 182 75 114 180 76 116 179 77 120 179 78 124 179 79 127 180 81 130 180 84 130 181 88 131 182 91 131 183 94 132 183 94 134 185 96 136 185 97 137 184 99 138 183 100 140 182 103 143 182 105 145 182 108 147 182 111 149 181 112 151 180 117 153 179 121 155 179 124 156 177 127 157 176 130 156 174 133 156 172 135 159 169 138 162 167 139 164 162 140 166 159 142 167 156 144 170 156 148 171 154 150 173 153 151 173 153 154 174 155 156 176 157 158 177 155 161 178 154 164 179 153 167 179 154 170 179 154 172 94 185 75 97 184 74 99 184 71 103 184 72 105 183 72 108 183 73 110 182 74 113 180 75 114 179 75 116 179 77 120 179 78 124 179 79 126 179 82 129 179 85 131 179 87 131 180 90 132 182 92 133 183 94 135 183 95 137 182 96 139 182 98 140 181 99 142 181 103 144 180 105 145 181 108 147 181 110 148 180 112 150 178 115 153 178 119 154 178 123 157 176 127 158 175 130 157 173 133 158 171 136 161 169 138 163 166 140 165 161 142 167 158 144 169 156 145 171 154 147 172 153 149 173 153 151 174 154 155 175 156 157 177 156 159 178 155 162 179 154 166 179 154 168 179 155 171 178 154 175 93 184 75 97 183 74 99 183 73 102 182 73 104 182 75 107 181 75 110 181 76 112 179 76 115 178 76 117 177 77 120 177 79 124 178 80 127 179 82 128 179 84 131 179 87 132 180 90 133 181 92 135 182 94 137 182 96 139 182 97 140 181 99 142 180 100 144 180 103 144 179 105 145 178 107 146 178 109 148 178 111 149 177 114 151 176 117 153 176 122 156 175 126 158 173 130 158 171 133 161 169 136 162 166 138 165 164 140 167 161 142 169 158 144 170 156 146 171 154 148 172 153 150 173 153 152 175 154 155 178 156 159 179 156 161 179 155 164 179 154 166 179 154 169 180 154 172 179 153 176 94 181 74 97 182 74 99 181 73 102 180 74 104 180 76 107 180 77 109 179 77 113 177 77 116 177 75 118 176 76 120 177 78 124 177 80 127 177 81 129 177 84 131 178 88 132 179 90 135 179 92 136 179 94 139 180 97 140 181 97 141 180 99 143 178 100 144 178 104 144 176 105 145 175 107 147 175 109 149 175 112 150 176 115 151 175 117 153 175 122 155 172 125 157 171 129 158 169 133 160 168 136 163 165 139 166 162 141 168 160 142 171 158 144 171 156 147 172 155 150 172 153 151 173 153 153 175 154 156 179 156 159 180 156 163 180 155 165 180 154 168 179 153 171 180 153 174 179 153 177 94 179 74 96 179 74 99 180 74 101 179 74 104 180 76 106 180 77 110 180 77 113 178 74 115 177 74 118 176 76 120 176 77 123 176 80 126 175 83 128 176 86 131 177 88 134 178 90 136 177 92 138 176 95 139 177 97 141 178 98 141 178 100 143 177 101 143 176 104 145 175 106 146 173 107 148 172 110 149 172 114 150 172 116 152 172 119 153 171 122 154 169 125 156 167 129 159 166 133 162 165 137 164 163 140 166 161 142 168 158 144 171 157 146 172 156 148 173 155 150 173 153 151 174 153 154 175 154 155 178 156 159 180 156 162 180 155 166 179 154 168 180 153 171 180 153 175 181 153 178 95 176 73 96 176 74 99 177 74 101 177 74 104 178 75 106 180 76 110 180 75 112 178 75 116 177 75 119 176 77 121 177 79 123 176 80 125 175 83 127 175 86 130 176 88 133 176 90 135 174 93 138 175 94 140 175 96 141 175 99 143 175 100 145 175 102 146 175 104 146 173 107 148 170 109 149 168 112 150 169 116 151 170 119 152 169 121 153 169 124 154 167 126 156 165 130 159 164 134 163 163 138 166 162 141 168 160 145 170 159 145 171 157 147 173 155 148 174 154 150 174 154 153 175 155 157 176 155 158 178 155 159 179 155 163 181 155 167 181 154 169 181 154 172 182 155 176 182 153 178 95 175 74 97 175 74 99 176 73 102 177 74 105 179 74 108 180 74 111 180 75 114 178 76 116 177 76 118 177 78 120 178 80 122 178 82 125 176 84 128 175 86 130 174 89 133 173 91 135 173 93 138 173 95 141 173 97 143 173 100 145 172 101 146 173 102 146 172 103 148 170 107 148 168 110 149 167 113 151 167 117 153 168 120 153 168 123 155 168 126 156 166 128 157 164 132 159 163 136 163 161 140 166 160 143 169 159 146 171 158 147 172 156 148 173 156 150 175 156 153 175 155 155 176 155 157 177 154 158 178 154 161 179 154 164 180 154 168 181 155 171 182 155 173 183 155 175 183 153 177 96 173 73 98 174 73 100 174 73 104 176 73 107 178 73 109 180 73 111 179 74 114 178 75 116 178 76 117 179 79 119 178 81 122 178 83 125 176 85 128 174 86 131 172 89 133 172 91 136 172 95 139 173 98 142 171 100 144 171 101 146 171 101 147 170 102 148 170 103 149 169 107 150 167 111 151 165 115 152 166 117 155 168 121 156 167 125 156 165 129 157 163 131 158 162 134 160 161 138 163 160 140 167 158 144 170 157 146 171 155 147 172 155 149 174 155 152 175 154 155 176 153 155 178 152 157 179 153 159 179 153 162 179 154 165 180 154 169 182 155 172 183 155 173 183 155 175 183 153 177 96 171 72 98 173 72 101 174 72 104 177 72 107 178 73 109 179 73 111 178 73 113 179 75 115 179 77 117 179 78 119 178 81 120 177 83 125 176 85 128 173 87 131 172 90 134 172 93 137 171 96 139 171 100 142 170 102 144 170 102 146 170 103 147 169 103 150 169 104 151 168 107 151 167 112 151 166 114 153 167 118 156 168 121 158 166 125 158 164 129 159 162 132 160 160 134 162 158 138 165 156 141 168 156 144 170 154 146 170 152 148 172 153 151 174 153 153 176 153 156 178 152 157 179 150 158 179 151 161 180 151 163 181 152 166 181 153 169 182 153 172 183 153 173 183 153 175 183 153 177 97 170 72 99 172 73 102 174 73 104 176 72 107 178 72 111 178 72 112 177 73 114 178 75 115 178 77 116 178 79 117 177 80 120 176 81 123 174 84 127 173 87 131 171 90 135 170 94 137 170 97 139 170 100 141 168 102 144 168 105 146 168 105 147 168 105 149 167 107 151 166 109 151 166 113 152 166 116 154 166 119 156 167 123 158 165 127 160 163 131 162 161 133 163 158 136 164 155 139 167 153 141 169 152 143 170 151 145 171 150 148 172 150 152 175 151 155 178 151 157 180 150 158 180 149 158 181 148 161 181 148 165 182 149 167 182 150 169 182 150 172 182 151 173 183 152 176 183 152 178 98 169 72 100 171 73 103 173 73 105 175 72 108 176 72 110 177 72 113 176 73 114 177 75 114 176 77 115 177 78 116 176 80 118 176 81 122 174 84 125 173 87 129 170 91 134 168 95 136 168 98 138 167 102 140 166 104 142 166 107 144 166 108 145 166 107 148 167 109 150 167 111 152 165 114 153 165 117 155 166 121 157 166 126 159 164 130 161 163 133 164 159 135 165 156 137 166 152 139 168 150 139 168 149 142 169 148 144 171 148 147 172 148 151 176 148 154 179 149 157 180 149 159 180 147 159 181 146 162 182 146 165 183 147 167 183 148 170 183 148 172 184 149 174 183 150 176 184 150 176 99 168 73 100 169 72 103 170 73 106 172 72 108 174 72 109 175 72 112 175 73 113 175 74 113 175 78 114 175 79 116 175 81 118 176 82 120 175 84 122 173 88 128 171 92 132 168 96 135 166 99 137 165 102 139 165 105 141 165 107 142 164 109 144 165 109 147 166 110 149 166 112 151 165 115 154 166 118 156 165 123 157 165 127 159 163 131 162 163 134 165 160 136 166 156 137 167 152 138 168 149 138 168 148 141 170 147 144 171 146 146 173 146 149 177 146 153 179 146 157 180 146 159 180 145 161 181 144 163 182 144 165 183 145 168 184 147 170 184 147 173 184 148 174 184 149 174 183 148 176 99 166 73 100 167 73 103 167 73 106 169 73 108 171 72 109 172 72 111 174 73 112 174 75 113 174 78 113 174 80 114 173 82 116 174 83 119 173 85 121 172 89 125 170 93 130 168 97 133 167 100 137 166 102 138 165 104 139 163 107 141 162 110 143 163 111 147 163 112 148 164 114 150 165 117 153 164 120 155 163 124 158 162 128 160 162 131 162 161 134 163 160 135 165 156 136 167 151 137 168 149 138 169 147 141 171 146 144 172 144 147 174 144 150 176 144 153 179 143 157 179 144 159 180 143 161 181 142 163 182 144 166 183 144 168 184 146 171 183 147 174 184 148 174 184 147 174 183 147 175 98 165 74 100 166 73 102 166 75 105 166 75 107 168 74 109 170 73 110 171 73 111 172 76 112 173 79 112 173 81 114 172 82 115 171 84 117 170 86 120 170 90 124 169 93 128 166 97 132 165 99 135 165 101 138 163 104 139 162 107 140 162 109 142 162 111 145 163 113 148 163 116 150 163 119 153 162 122 156 161 125 158 161 128 160 162 131 162 161 133 163 159 135 164 155 135 166 152 137 168 149 139 170 146 142 171 145 145 173 143 148 175 144 152 176 143 154 178 142 157 178 143 159 178 141 162 180 141 164 181 142 166 182 143 169 183 145 171 184 147 173 185 147 174 184 147 176 183 146 176 98 164 75 100 163 75 102 163 77 104 163 77 106 165 76 108 167 75 109 169 76 110 170 77 111 171 80 112 171 82 115 170 83 117 168 86 118 167 89 121 168 92 125 168 94 127 165 97 130 163 99 134 163 101 137 162 106 138 162 108 138 161 110 141 162 113 144 162 115 147 162 117 149 162 120 152 160 123 155 159 126 157 159 129 159 160 130 162 159 134 163 157 135 164 155 136 166 152 138 168 148 141 171 145 144 172 143 147 173 142 150 174 142 154 176 141 157 177 141 158 178 141 161 178 140 163 179 140 166 180 139 167 181 141 170 182 143 172 185 145 173 185 145 176 184 145 177 184 144 177 99 161 77 101 161 77 102 160 78 103 160 78 105 162 77 107 163 77 109 166 77 110 168 79 111 169 81 112 168 84 115 167 86 118 165 88 120 165 90 122 166 94 125 166 96 128 165 98 130 164 100 133 162 102 137 162 106 137 162 110 138 161 112 141 160 114 144 159 117 147 160 119 149 159 122 151 159 125 154 158 127 157 158 129 159 157 132 162 156 133 164 155 135 165 153 136 167 151 139 169 148 141 171 143 144 172 142 149 174 141 153 174 140 156 176 139 159 177 139 161 178 139 163 178 139 164 180 138 166 180 138 168 182 140 171 182 141 172 184 143 174 184 143 175 184 144 177 183 144 177 100 159 78 101 158 78 103 157 78 103 157 79 104 159 78 105 160 80 109 162 81 110 164 83 111 166 84 113 166 86 115 163 87 117 164 90 120 164 93 122 165 95 124 164 97 126 164 99 130 163 102 133 162 104 135 162 106 136 162 110 137 161 113 141 159 116 144 158 118 147 158 120 149 157 123 151 156 126 153 156 129 156 155 131 159 154 133 162 153 134 165 152 135 167 150 137 168 148 140 170 145 143 171 142 146 173 141 150 173 139 155 174 139 159 176 138 160 176 138 162 177 138 164 179 137 165 181 137 167 181 137 169 181 138 171 182 139 171 183 140 173 183 142 175 182 142 176 183 142 177 101 157 80 101 155 80 102 155 80 103 155 80 104 156 79 105 157 81 109 158 84 111 161 84 113 163 86 115 163 87 116 161 88 117 162 91 119 162 93 122 163 96 124 163 98 126 162 100 130 162 103 133 161 106 134 161 108 136 161 111 138 160 114 140 158 117 144 157 119 147 157 121 149 154 125 151 153 128 153 154 131 155 154 133 158 152 135 162 151 136 165 149 137 168 146 140 170 145 142 170 143 144 171 141 147 173 139 151 174 139 156 174 138 160 174 137 162 175 136 164 177 135 165 178 134 167 181 135 168 181 136 170 181 137 170 182 137 170 182 139 172 183 140 173 182 140 176 183 139 178 101 154 82 100 152 82 101 153 80 103 152 80 104 153 82 106 153 83 109 155 84 112 159 85 115 159 87 116 160 88 116 160 90 117 160 92 119 160 93 122 161 96 123 160 100 125 160 103 129 160 106 133 160 109 135 159 110 137 159 112 139 158 115 142 157 117 144 155 120 146 154 123 148 152 127 150 151 129 153 151 133 156 152 136 157 151 138 161 148 139 165 146 140 168 143 142 171 142 145 171 141 146 171 140 149 173 138 153 173 137 157 174 136 160 174 135 164 175 133 166 176 132 166 177 131 167 180 131 168 180 133 169 180 134 169 181 134 169 181 135 171 181 136 173 182 135 176 182 135 178 100 152 82 101 151 81 102 150 80 103 149 81 105 150 82 106 151 83 110 154 84 114 156 85 116 157 88 117 157 89 117 157 91 117 157 92 119 157 95 121 158 97 122 158 101 125 158 106 129 159 109 133 158 111 134 158 113 137 157 114 140 156 116 143 154 119 144 152 122 147 150 125 149 148 129 151 146 131 154 147 135 156 149 138 157 148 140 160 146 142 163 143 143 167 142 146 169 140 147 172 138 150 172 136 152 172 135 155 173 135 159 172 132 162 173 132 166 175 130 167 175 129 167 176 128 167 178 128 167 179 130 166 179 131 167 179 132 168 180 132 170 181 131 174 181 131 176 182 131 177 100 149 80 101 148 80 102 147 80 103 146 82 106 148 82 108 150 83 111 152 84 114 154 87 117 154 89 118 154 91 118 154 92 119 153 95 119 153 98 121 154 99 123 156 102 126 157 107 129 156 111 132 155 113 134 155 115 137 154 117 140 153 120 144 152 122 145 149 124 147 147 128 150 146 132 152 143 134 153 143 138 155 145 140 157 145 143 159 143 145 163 141 146 165 140 148 169 139 149 172 136 152 172 134 156 173 133 160 174 132 162 172 129 164 172 129 167 173 128 168 174 126 168 175 125 167 177 126 167 178 127 166 178 128 167 177 129 168 178 129 170 180 128 174 180 127 176 181 128 176 101 147 79 102 146 79 102 145 80 105 144 81 107 145 81 108 147 84 112 148 85 114 149 88 116 150 90 119 150 93 120 150 95 120 150 98 121 150 100 122 150 102 124 152 104 127 153 108 129 152 111 132 151 115 135 151 117 137 150 119 141 148 121 144 147 125 146 146 127 149 144 131 152 142 135 154 139 137 155 139 140 156 140 142 159 141 144 160 140 145 163 138 147 165 136 150 169 136 150 172 134 153 173 132 158 173 130 161 174 129 165 173 129 166 173 128 167 173 127 167 174 126 167 175 124 168 176 123 167 177 123 167 177 124 167 177 125 169 178 125 171 179 124 173 180 124 175 179 125 176 101 144 76 102 144 76 103 144 78 106 143 81 108 142 82 110 142 86 113 143 88 115 145 89 116 145 91 118 146 93 119 146 96 120 145 98 121 145 101 121 146 103 123 148 105 127 149 108 130 149 110 132 148 114 134 147 118 138 145 121 141 144 123 145 144 126 148 143 130 151 140 134 153 138 136 155 136 139 157 136 141 158 136 143 161 137 144 162 136 145 164 135 147 166 134 149 169 133 151 171 130 155 172 128 160 172 127 163 172 125 165 172 126 167 173 126 168 172 126 168 173 125 167 174 124 167 175 122 167 176 122 168 175 121 169 176 121 170 176 121 172 178 121 173 178 120 175 179 122 175 102 142 76 102 141 77 104 140 79 107 140 81 110 139 84 113 139 87 114 139 88 115 141 90 115 143 93 116 143 94 117 143 96 119 142 98 120 142 101 121 144 104 123 146 106 126 146 109 130 145 112 132 144 115 135 143 119 138 142 123 143 142 126 146 141 128 149 139 132 152 136 136 154 135 138 155 134 140 157 132 142 160 133 144 162 134 144 164 133 145 166 133 146 166 131 149 168 130 152 169 128 154 170 127 160 171 125 163 171 123 166 171 123 167 172 123 168 171 124 168 172 123 168 174 123 168 175 122 169 175 120 169 173 119 170 175 117 171 175 117 172 177 117 174 178 118 175 179 118 176 102 141 76 103 139 77 106 139 79 108 138 81 110 137 84 112 137 87 114 136 89 114 138 91 115 140 93 115 142 94 116 141 96 117 140 99 119 140 101 120 141 104 123 143 107 126 143 111 129 142 113 132 141 116 137 140 120 141 140 123 144 139 128 148 138 130 151 135 134 153 132 138 155 131 140 157 130 142 159 130 144 161 130 146 163 130 145 165 130 146 167 131 148 167 129 151 167 127 153 168 126 156 169 124 159 169 122 163 169 120 166 170 120 167 171 121 167 171 121 168 172 120 168 173 119 168 173 119 169 173 117 169 172 116 171 173 114 173 175 113 174 176 112 176 177 113 177 179 114 177 104 139 78 105 139 77 105 138 77 108 137 79 109 136 82 111 135 86 113 134 88 115 135 91 115 137 92 115 138 95 114 138 96 116 138 99 117 138 102 119 138 104 122 138 108 127 139 112 130 139 114 133 138 118 138 138 121 143 138 124 147 136 127 149 134 132 152 132 136 155 130 138 157 128 141 159 126 144 161 126 146 163 126 147 164 126 146 165 127 147 167 128 149 168 126 152 167 123 154 168 122 157 168 121 160 168 118 163 168 118 165 169 119 166 170 119 167 170 118 167 172 116 168 172 116 169 172 117 169 172 116 171 172 114 172 173 113 174 174 110 176 175 109 177 177 110 177 179 111 179 105 139 77 105 138 76 106 138 77 108 136 79 109 134 81 110 133 85 112 132 87 114 132 91 115 133 93 114 134 96 114 135 97 116 135 100 117 134 103 119 134 106 123 135 108 127 136 113 131 136 116 135 136 120 139 135 123 144 135 125 147 132 128 149 131 133 153 128 138 156 127 140 157 125 143 159 124 145 162 122 147 163 123 147 164 122 148 166 123 148 168 123 150 169 121 153 169 119 156 169 119 158 166 118 160 167 116 163 168 116 165 170 116 166 170 115 167 170 114 169 170 113 170 172 114 171 173 114 170 173 114 171 174 113 172 175 111 176 176 110 177 176 108 178 177 108 178 179 107 179 107 138 78 106 137 77 107 136 78 108 135 80 109 133 82 110 132 85 111 131 88 114 129 91 115 130 94 116 131 97 116 132 98 117 132 102 118 130 105 120 130 108 124 131 110 128 132 114 132 133 118 137 133 121 141 132 124 145 130 126 148 128 130 151 127 134 154 125 139 156 123 141 158 122 143 160 121 146 162 120 148 163 120 149 165 120 149 167 119 150 169 118 152 171 117 153 170 116 156 168 116 158 166 115 161 167 114 165 169 113 168 170 113 168 170 112 169 170 110 171 170 109 172 171 109 173 173 110 172 174 111 172 176 111 174 177 110 176 178 108 177 178 107 179 178 104 180 178 103 180 109 136 81 108 135 80 108 134 81 109 133 82 110 132 83 112 131 85 113 129 88 117 127 91 118 127 95 117 128 98 118 129 101 118 129 104 118 128 107 120 126 109 124 126 112 128 129 116 132 130 119 137 129 122 141 127 125 145 126 127 149 124 131 151 123 135 155 122 139 157 121 142 159 119 144 161 118 147 164 117 149 165 117 149 167 116 150 169 115 151 170 113 154 171 113 155 170 113 157 168 114 160 167 113 163 168 112 166 169 110 169 171 110 170 170 109 171 170 107 172 170 106 173 172 106 174 173 107 174 175 108 174 178 109 175 179 108 176 179 107 177 179 105 179 179 103 181 178 102 181 111 133 82 110 132 83 110 131 83 110 130 83 112 130 84 113 128 86 115 127 89 118 125 91 119 125 94 119 126 98 118 127 102 119 127 105 119 125 108 120 124 111 125 124 114 129 125 117 133 125 120 138 126 124 142 125 127 146 123 130 150 121 133 152 119 136 155 119 140 159 118 144 160 116 146 162 115 148 165 115 150 167 114 150 169 114 151 171 112 153 172 110 156 172 110 157 170 110 160 169 111 163 167 110 165 167 109 166 169 107 169 169 107 172 170 105 172 170 104 173 171 103 173 173 103 175 173 104 176 175 104 176 177 106 177 179 107 178 178 105 178 178 103 178 178 101 180 178 100 181 114 130 84 113 129 84 112 130 84 112 129 84 113 128 85 115 127 87 116 125 88 118 123 91 119 124 95 118 124 100 118 125 103 120 124 106 122 122 110 123 122 112 125 122 115 129 122 118 133 122 121 138 121 124 143 121 128 148 120 132 151 120 136 153 118 139 156 117 141 159 115 145 161 114 147 163 112 149 166 111 150 167 111 151 170 111 152 171 109 154 174 107 158 173 107 160 171 107 163 171 107 166 169 107 168 167 107 169 168 105 171 170 104 172 170 102 172 170 101 173 172 101 173 172 101 176 173 102 177 174 103 177 176 104 178 177 105 178 178 104 178 178 104 180 178 102 180 177 100 180 116 127 86 115 127 85 115 127 84 115 127 84 116 127 85 116 126 87 118 123 89 119 122 92 119 122 96 118 123 100 119 122 104 120 122 107 123 121 111 125 119 115 127 119 117 130 119 120 134 118 122 139 118 125 143 117 129 148 118 133 151 117 137 154 116 140 157 115 142 159 112 145 161 110 148 165 108 150 167 108 150 168 107 151 170 107 153 171 105 156 173 105 159 173 105 162 172 105 165 170 105 167 169 105 168 169 105 169 170 104 171 171 103 172 170 101 172 170 100 173 170 99 174 170 99 177 172 99 177 173 101 177 176 102 177 177 103 177 177 103 178 178 104 179 178 102 178 176 100 179 118 125 86 117 124 86 116 124 85 117 124 85 117 124 86 119 124 89 120 123 92 120 121 95 120 121 99 121 120 103 122 119 106 123 118 110 125 118 113 128 116 117 130 117 120 133 116 122 135 115 124 139 114 126 143 114 130 148 114 134 150 114 138 154 113 142 157 111 145 160 109 147 162 106 148 165 105 150 168 104 151 169 103 152 172 103 154 172 103 156 172 104 159 172 104 162 172 103 165 172 103 167 170 103 167 171 103 168 171 102 170 171 101 171 171 100 173 170 98 174 170 97 174 171 97 176 172 98 177 173 99 177 175 100 177 177 101 176 177 101 177 178 101 178 177 101 177 175 100 178 119 124 86 119 123 86 119 122 86 119 122 86 119 121 88 120 121 92 121 120 95 123 118 98 123 118 101 123 118 105 125 116 109 126 115 112 128 115 115 130 115 119 132 116 121 134 116 124 136 114 126 138 112 128 142 111 131 146 111 135 148 111 139 152 110 143 156 108 146 159 106 149 162 104 150 166 102 151 169 100 151 170 100 154 172 100 156 173 102 157 172 102 159 173 103 161 174 102 164 172 102 166 171 101 167 171 101 168 172 100 170 171 99 171 171 98 173 171 96 174 170 95 174 171 95 175 171 95 176 173 96 177 175 98 177 176 99 176 176 100 176 175 100 177 175 100 176 173 99 177 120 123 86 120 122 86 121 121 88 121 119 88 120 118 90 122 118 94 123 118 98 125 116 101 127 116 104 128 116 107 128 115 111 129 113 113 129 113 116 131 113 119 133 114 122 135 114 126 137 114 129 139 111 131 141 109 133 144 109 136 146 108 140 151 107 143 155 105 146 158 104 150 162 102 151 165 100 152 168 98 152 170 98 155 171 99 157 172 100 159 173 100 159 173 101 161 174 101 163 174 101 165 173 100 167 172 99 168 172 97 169 172 97 171 171 97 171 170 94 173 171 93 174 171 94 175 171 94 176 172 96 177 173 97 177 174 97 177 174 98 177 174 97 176 174 97 176 173 96 177 121 121 87 121 119 87 121 118 88 123 117 90 122 116 93 122 115 97 124 114 100 126 115 104 129 115 107 130 115 110 131 113 112 130 111 114 130 110 118 131 111 121 134 111 123 136 112 126 138 111 130 140 109 132 141 107 134 143 107 138 146 107 142 151 104 145 154 103 149 157 101 151 161 99 152 164 99 152 168 97 153 170 97 155 171 97 158 172 97 158 173 98 158 174 99 160 175 99 162 175 99 163 174 97 165 173 96 167 172 95 168 172 95 170 171 94 172 172 94 173 172 93 174 172 93 175 172 93 176 171 94 176 173 94 178 173 94 178 174 94 178 173 94 177 173 95 176 173 94 176 122 120 89 122 117 89 122 116 90 122 116 91 123 114 95 123 113 99 124 112 100 127 113 104 131 113 108 132 112 111 132 110 114 132 109 117 132 109 119 134 109 122 134 110 125 136 110 127 138 108 131 140 106 134 141 105 137 144 105 140 147 105 144 151 102 147 154 101 150 157 99 152 161 97 152 165 97 151 169 96 152 172 95 155 171 96 157 172 95 158 175 94 159 175 96 161 175 96 161 177 96 162 176 95 164 174 95 165 173 94 167 173 93 168 172 94 170 173 93 171 173 92 173 173 92 174 173 92 175 173 92 176 173 92 179 174 91 180 174 91 180 173 91 179 173 91 177 173 91 177 125 118 91 125 115 92 125 114 92 125 114 94 125 112 97 125 111 100 126 111 102 128 111 105 131 110 109 133 110 112 134 109 115 134 108 119 135 108 122 136 107 124 136 108 126 137 108 129 139 105 133 141 104 135 143 103 138 146 104 143 149 102 146 152 101 147 155 99 149 157 98 152 161 97 152 166 97 151 170 96 152 173 96 153 172 95 155 174 94 158 176 93 159 177 93 160 177 93 161 178 94 162 178 95 163 176 93 165 175 93 167 175 92 168 174 93 169 174 93 169 174 93 171 174 93 173 174 92 175 174 90 178 175 89 180 175 88 180 175 88 181 175 87 180 175 88 178 175 88 178 128 115 92 127 113 94 126 112 95 126 112 96 127 111 99 128 110 102 128 109 104 130 109 107 132 108 112 135 108 115 136 106 118 136 107 121 136 107 124 137 107 126 137 106 128 137 105 130 139 104 133 141 103 136 144 103 140 147 102 142 150 100 146 153 100 148 155 99 150 159 97 152 163 97 153 168 97 152 171 96 153 173 95 154 174 93 156 175 92 158 176 92 158 177 91 158 178 92 161 179 93 162 179 94 163 178 93 165 176 92 165 176 92 167 176 92 168 176 92 169 177 92 170 176 91 172 176 91 177 176 89 178 176 87 179 176 87 181 176 86 180 177 84 181 178 84 180 178 84 180 129 113 95 129 111 96 129 110 97 129 109 98 130 108 100 130 107 103 130 107 106 132 108 109 133 107 114 135 106 118 136 105 121 137 105 123 137 106 126 137 106 127 138 105 128 139 103 130 140 102 133 141 102 136 144 102 139 149 102 142 151 100 146 154 99 149 156 98 149 160 97 151 164 96 152 168 95 152 171 94 154 173 94 156 174 92 157 175 91 157 177 90 157 178 91 159 179 92 161 179 93 162 180 92 164 180 92 165 179 92 164 178 90 166 178 91 167 179 92 170 180 90 171 179 89 174 179 88 177 178 86 179 178 86 179 178 85 180 178 83 181 178 81 180 179 81 180 178 81 181 131 110 98 131 109 98 131 109 101 131 108 101 132 107 102 132 106 106 131 106 109 133 106 112 135 104 116 136 103 120 139 103 122 139 104 125 139 105 127 138 106 128 138 105 129 140 104 132 142 102 134 143 101 135 146 101 138 150 100 141 153 98 144 155 96 147 157 95 149 160 94 151 164 94 153 168 93 154 171 92 155 173 92 157 174 91 158 175 90 157 176 89 157 177 90 159 179 91 161 181 91 163 182 91 165 181 91 165 180 92 165 178 90 166 179 90 167 181 90 169 182 89 172 183 87 174 182 87 176 181 85 177 181 84 178 181 84 179 181 82 180 180 80 179 179 79 179 178 79 179 131 106 100 131 106 101 131 106 102 131 106 102 133 105 104 133 105 107 133 105 110 135 104 114 137 102 117 138 102 121 140 102 123 141 102 125 140 103 126 140 104 128 140 104 131 140 103 133 143 101 134 145 99 135 147 100 138 150 98 141 153 96 144 155 94 147 157 93 150 161 93 152 164 91 154 168 91 155 171 90 157 172 90 159 174 89 160 175 89 159 177 89 159 177 90 160 179 90 162 181 90 164 181 91 166 179 92 166 178 92 166 179 91 168 181 89 169 182 89 169 183 88 171 184 86 174 183 85 175 183 84 175 182 84 176 183 82 177 183 80 177 182 79 178 180 77 178 178 76 179 130 104 102 131 103 103 133 103 104 134 104 105 134 104 106 134 104 109 135 103 113 137 104 116 138 103 118 139 102 121 140 101 124 142 101 126 142 102 127 141 104 129 142 103 131 143 101 133 145 99 135 147 98 136 148 97 137 151 95 140 152 94 144 154 93 148 157 90 150 162 90 152 164 90 154 168 89 156 170 90 158 172 89 160 174 88 161 176 88 159 177 88 159 178 89 161 179 89 163 179 90 165 180 91 168 180 91 168 180 91 168 181 90 169 181 88 170 182 88 171 183 87 172 184 85 173 184 84 174 183 84 174 184 82 175 183 81 175 182 79 176 181 78 177 180 76 178 178 74 178 130 102 105 131 101 106 134 101 106 135 103 106 136 103 107 136 103 111 137 102 115 138 102 118 139 102 119 139 101 121 140 101 124 142 101 127 142 101 128 143 102 130 144 101 132 144 100 134 146 98 135 147 96 136 148 94 137 150 93 140 152 92 144 155 91 146 158 90 149 161 89 151 164 88 153 168 87 156 170 88 159 172 88 161 176 87 161 177 86 160 179 87 161 179 86 162 180 87 163 180 89 165 180 90 167 181 89 168 181 89 169 182 89 169 181 87 171 182 85 172 183 86 172 184 85 172 185 84 173 183 83 173 183 81 174 182 80 175 181 78 176 181 76 177 179 75 178 178 74 178 130 101 107 131 100 108 133 101 107 135 102 108 137 102 110 138 102 114 138 103 117 138 102 119 138 100 120 139 100 122 140 100 124 142 100 126 144 100 129 145 99 131 145 99 133 146 98 134 147 96 134 147 93 135 148 92 136 150 91 139 153 90 142 156 90 145 159 90 146 161 89 149 164 87 152 168 86 156 170 86 159 172 86 160 175 86 161 177 86 162 179 86 163 180 85 162 180 84 162 180 85 164 181 86 166 181 85 168 182 86 169 182 86 170 182 86 171 182 85 171 184 84 171 185 84 171 185 82 172 183 81 173 182 79 175 181 79 175 181 77 176 179 75 177 179 74 178 178 72 177 131 101 108 132 100 108 133 100 109 135 100 109 137 100 111 137 100 115 137 100 117 137 100 119 137 98 120 138 97 122 139 99 124 142 100 127 143 98 129 144 98 132 145 97 133 145 95 134 146 93 135 147 91 136 148 89 136 149 88 138 153 88 141 156 89 143 159 90 146 162 88 148 165 87 151 167 86 156 168 85 159 171 85 160 174 84 162 177 83 162 179 83 163 180 83 163 181 82 163 182 83 165 182 83 166 183 85 168 183 85 170 182 84 169 183 84 170 182 83 171 183 83 169 185 82 169 185 80 172 184 79 173 181 77 174 179 77 176 178 76 176 177 74 176 177 72 175 177 71 175 132 100 110 132 99 109 134 99 109 135 98 110 135 98 112 135 98 116 135 98 118 135 97 120 135 96 121 136 95 124 138 96 126 141 97 127 144 96 129 145 96 131 144 95 134 145 93 135 146 91 136 147 89 137 147 87 137 149 86 138 152 87 141 154 88 143 158 88 146 162 87 148 165 85 152 167 85 156 167 84 159 169 83 161 173 83 161 176 81 162 179 80 163 180 79 163 182 79 163 183 80 164 183 82 166 184 82 168 184 83 169 183 83 168 182 83 169 182 82 169 183 82 169 183 81 169 183 80 172 182 78 173 180 76 174 178 75 174 176 74 174 176 72 173 175 69 172 175 68 172 