P3
50 50
255
81 179 110 83 177 110 84 177 110 86 178 108 86 177 107 87 174 105 89 171 103 89 168 102 89 165 101 90 163 99 92 161 97 93 159 95 95 157 93 95 156 92 96 153 90 97 151 89 99 150 87 102 151 85 102 151 84 104 151 81 106 150 81 107 149 81 109 149 81 110 147 80 112 144 81 112 142 80 112 140 80 113 139 80 114 137 79 114 135 78 114 131 77 114 129 77 116 127 77 115 126 79 116 126 79 116 124 79 116 121 80 117 120 81 119 120 83 121 120 83 122 119 83 122 118 82 121 117 82 121 116 82 120 115 84 120 114 86 119 114 86 120 114 85 122 115 83 122 116 83 82 180 109 83 180 109 85 179 110 86 178 108 88 177 106 89 173 104 90 171 103 91 168 101 92 166 99 92 163 98 92 161 97 92 159 94 94 158 93 93 156 93 95 153 92 97 150 90 100 149 87 102 149 85 104 149 83 106 150 81 107 149 80 108 149 81 110 148 82 111 145 82 113 143 81 113 140 83 114 139 82 115 139 81 115 137 81 116 135 80 116 131 78 116 129 79 115 128 78 116 128 80 117 126 82 118 125 82 118 123 83 120 122 83 120 120 85 121 119 85 122 118 85 122 116 84 121 114 84 120 114 85 119 113 86 119 114 88 120 112 88 121 112 88 121 113 87 123 114 86 83 182 108 84 181 109 86 180 109 87 178 106 89 175 105 90 173 103 91 171 101 93 169 100 93 166 98 94 163 97 93 161 96 92 159 94 93 158 93 93 156 93 94 153 91 98 150 89 101 149 87 103 149 84 105 149 82 106 150 81 107 150 80 109 148 81 112 147 83 113 145 83 113 142 83 114 140 83 115 139 84 116 139 83 117 138 83 118 136 81 118 133 80 117 131 80 118 129 80 118 128 82 119 126 83 119 126 83 119 125 83 121 123 84 121 121 85 121 118 87 122 116 86 121 115 86 121 113 86 120 112 87 119 112 89 119 111 90 121 110 90 122 110 89 123 111 90 124 112 90 85 182 109 86 182 108 86 181 106 88 179 104 91 177 104 92 174 102 92 171 101 93 168 99 94 164 99 94 161 98 94 160 96 94 159 94 94 156 93 94 155 92 95 152 90 97 149 89 100 148 87 103 147 85 104 148 83 106 149 81 108 148 81 110 147 83 112 145 84 114 143 85 114 141 85 115 140 85 115 138 84 117 138 85 119 138 84 120 137 82 118 134 81 118 132 82 119 131 82 120 129 82 120 126 82 120 126 82 120 125 84 121 124 85 122 121 86 122 118 87 122 115 88 121 113 88 120 112 88 119 111 90 119 109 91 120 109 92 121 110 92 122 110 92 123 110 91 123 109 91 86 181 111 87 181 109 87 181 108 89 180 105 92 177 104 92 174 103 93 170 101 92 167 99 94 163 98 95 160 97 96 159 96 95 157 94 95 155 93 95 155 91 95 152 90 98 150 90 100 147 88 103 148 86 105 147 84 107 147 84 109 147 84 111 146 85 112 143 87 114 141 87 115 140 87 115 139 87 116 138 87 119 137 87 120 137 85 119 137 84 120 135 84 119 133 84 120 132 84 121 130 84 121 128 83 122 126 84 121 126 86 122 124 87 122 122 87 122 119 88 121 116 90 121 113 91 120 112 92 119 111 93 119 110 93 121 108 93 121 108 93 121 108 92 121 107 92 123 107 92 88 181 111 88 181 110 89 180 109 91 179 107 93 176 106 93 173 104 92 170 103 92 166 100 93 163 98 94 160 97 95 158 95 96 157 94 96 155 92 98 154 91 98 152 90 99 149 90 101 147 89 104 147 88 107 147 86 109 146 85 110 146 85 112 144 86 113 142 87 115 140 89 116 140 90 117 138 90 118 137 89 120 136 88 120 136 87 120 136 86 121 135 85 120 134 85 120 133 85 122 130 85 122 129 86 123 128 87 123 127 87 123 124 87 122 122 89 122 120 91 122 117 92 121 115 94 120 112 95 120 110 96 120 110 95 121 108 94 121 107 94 121 106 94 121 107 94 122 106 94 89 181 112 90 181 109 90 180 108 91 178 107 92 176 107 92 173 106 91 169 104 91 166 102 92 163 100 94 161 97 95 158 96 97 157 94 98 156 93 99 154 92 99 152 91 100 149 90 102 148 90 105 146 89 108 145 88 110 146 87 111 146 87 112 144 87 113 142 89 114 139 89 117 139 92 119 138 92 119 137 91 119 136 90 120 136 89 120 136 88 121 136 87 121 135 86 122 134 87 122 132 88 122 131 89 124 130 89 124 128 88 124 125 89 123 122 90 122 120 93 122 118 94 122 114 96 122 111 97 123 110 97 123 108 96 123 109 96 123 108 96 122 107 95 121 107 95 123 106 95 90 182 112 90 181 110 90 180 109 91 179 108 92 176 107 91 173 107 91 169 105 91 166 104 92 164 102 94 162 99 96 160 97 98 159 95 99 157 92 100 155 91 101 153 90 101 151 90 103 150 91 106 147 91 110 146 90 112 145 89 112 145 88 113 143 89 113 141 90 116 138 91 118 137 92 118 138 93 118 138 93 119 138 92 120 137 92 120 137 90 122 138 89 122 137 89 123 137 89 123 135 91 124 133 91 124 131 92 124 128 92 124 126 91 124 122 93 123 119 95 123 117 97 123 114 98 125 112 98 125 110 97 125 109 98 125 109 98 125 108 97 123 107 95 122 107 96 123 106 95 90 182 112 90 181 110 90 180 109 91 179 109 91 176 109 91 173 108 92 170 107 92 167 106 94 165 104 95 162 101 97 161 99 99 159 96 100 158 94 100 156 92 101 154 92 103 152 92 104 150 92 108 149 93 111 146 92 113 145 92 113 144 91 113 141 91 115 139 93 117 137 94 119 137 96 119 138 95 119 139 96 119 139 95 120 139 94 121 138 92 122 139 91 123 138 91 123 137 91 125 136 93 125 134 94 125 131 95 126 128 94 125 126 94 125 122 96 125 119 98 125 116 99 126 113 99 127 111 99 126 109 98 126 108 99 126 107 98 126 107 97 126 106 96 125 106 96 123 106 96 90 181 114 90 181 113 91 180 111 92 179 110 91 176 110 91 173 110 92 171 109 94 167 108 95 164 106 96 163 104 98 162 102 99 161 99 101 158 97 102 157 96 102 155 94 104 153 94 106 151 94 110 150 94 113 147 94 114 145 93 114 143 94 115 140 94 117 139 96 118 136 98 120 135 98 120 137 98 119 138 98 120 139 97 122 140 95 123 140 93 123 139 93 124 138 93 125 137 93 126 135 94 126 133 97 126 130 98 127 128 97 126 125 97 126 122 99 128 118 100 129 115 101 129 113 101 128 110 100 128 109 99 128 107 97 127 107 97 127 107 96 126 106 96 125 106 96 123 106 95 90 181 115 90 181 114 92 181 112 92 179 112 91 176 112 91 173 113 92 171 112 94 168 111 96 165 110 98 164 107 99 163 105 101 162 103 102 160 101 104 158 99 105 156 98 106 155 98 109 153 97 111 151 96 112 148 96 114 145 97 115 144 97 116 142 98 117 139 99 118 137 100 119 135 100 119 136 100 119 138 99 120 139 97 123 140 95 125 140 94 126 139 95 127 138 95 127 136 96 127 133 96 127 131 98 127 129 100 127 127 99 128 124 100 128 121 101 129 118 102 130 115 102 131 112 103 130 110 102 130 107 100 129 106 98 128 106 96 126 107 96 126 107 97 125 107 97 123 107 95 91 182 117 92 181 116 93 180 115 94 178 115 94 176 116 93 173 116 93 172 115 95 169 114 98 167 113 99 165 111 100 164 109 102 163 107 103 161 105 105 158 103 107 157 100 108 155 101 110 152 100 111 152 100 112 150 99 114 146 99 116 144 100 116 142 101 116 139 102 118 137 101 118 136 101 120 136 100 120 137 98 121 137 97 124 139 96 126 139 96 127 139 97 127 137 98 127 135 98 128 133 100 128 132 100 129 129 100 129 125 101 130 123 102 131 120 103 131 119 104 131 116 104 131 113 104 132 110 103 131 108 101 130 107 98 128 107 96 126 107 95 126 107 96 125 107 97 125 108 96 92 180 119 94 180 118 94 179 118 95 176 118 95 174 118 95 173 118 96 171 117 98 169 117 99 168 116 101 166 114 102 164 113 103 162 111 104 161 108 106 159 108 106 157 105 108 154 103 110 152 102 111 151 102 113 150 101 115 148 102 116 145 102 116 140 103 118 139 103 118 137 103 119 136 102 121 135 101 122 135 100 124 137 98 126 138 98 128 139 99 128 139 99 128 137 100 129 135 101 129 133 101 128 131 101 129 128 101 129 125 102 131 123 104 133 120 105 133 119 105 133 117 105 133 115 104 134 112 104 132 109 102 132 108 100 129 108 97 128 108 96 126 108 95 126 108 96 126 109 96 92 179 121 93 179 120 95 177 120 97 175 120 97 174 121 97 173 120 97 172 120 98 170 119 101 168 120 102 166 119 103 165 117 103 163 115 103 162 113 104 160 112 105 157 109 107 154 107 109 153 106 111 152 105 113 151 105 114 148 104 116 146 105 116 142 105 118 139 106 119 138 105 120 136 105 122 135 105 124 135 102 125 137 101 127 137 101 128 139 101 129 140 102 130 138 103 131 135 103 131 134 104 130 131 104 130 128 104 130 125 104 131 122 106 132 120 107 134 118 107 134 116 107 135 115 106 135 113 105 135 111 103 133 110 101 130 109 98 127 107 96 126 108 96 126 109 96 127 109 96 92 179 123 93 179 123 95 178 122 98 176 123 98 175 124 99 174 124 99 174 122 100 171 123 101 169 123 102 166 122 103 164 121 103 164 120 103 163 117 103 161 115 105 158 113 106 156 111 109 154 109 111 152 110 113 151 109 114 148 108 115 145 108 117 142 109 118 139 109 119 138 109 121 138 109 124 137 108 126 137 106 127 137 105 129 137 104 131 138 105 131 139 105 131 138 107 132 136 108 131 133 108 131 130 107 130 127 106 130 125 106 130 123 106 131 121 107 133 119 108 135 117 108 134 114 106 134 113 104 134 111 103 132 109 101 130 107 99 128 107 98 127 108 98 126 108 96 127 109 96 92 178 126 94 178 126 95 177 126 97 176 126 98 175 126 100 175 126 100 175 125 101 172 126 101 169 126 102 165 125 103 164 123 104 163 122 104 163 121 104 162 118 105 160 115 107 157 114 109 155 113 112 153 114 112 152 113 113 150 113 115 146 113 116 142 113 118 140 113 120 139 113 122 138 112 125 138 111 129 138 110 129 138 110 129 139 109 131 138 108 132 138 108 132 137 110 132 134 112 133 132 111 132 129 110 131 126 109 130 124 108 129 124 108 131 121 109 133 119 109 134 117 107 134 115 105 134 113 105 133 111 104 131 108 103 130 107 102 129 106 100 128 107 99 127 108 99 127 108 99 92 176 131 93 175 131 94 175 129 96 175 129 97 173 130 99 174 129 100 174 129 101 173 128 102 170 128 102 167 128 103 165 127 104 163 125 103 163 123 103 162 122 104 160 119 107 158 117 109 156 117 111 155 118 112 153 119 113 151 119 115 146 119 117 143 118 119 141 117 121 139 117 124 138 116 127 138 114 129 139 114 131 139 114 131 139 113 132 137 112 132 137 112 132 134 113 132 132 115 133 131 114 132 129 113 130 126 113 129 125 111 129 123 110 130 120 110 132 118 110 133 116 107 134 115 106 135 112 105 134 110 105 132 107 105 130 105 103 129 104 101 130 105 102 129 105 101 127 107 102 91 173 138 93 172 135 95 172 133 96 172 133 97 173 133 98 174 132 99 174 132 100 173 131 102 170 131 102 168 131 103 166 130 103 164 129 103 163 127 103 162 125 104 161 122 107 159 121 108 159 121 110 157 121 112 154 122 113 151 123 117 148 123 119 144 122 120 142 121 124 140 120 125 138 120 128 138 117 129 139 117 131 139 117 131 137 116 132 136 116 133 136 117 132 134 117 132 132 117 132 131 118 132 129 118 132 127 117 131 124 115 131 121 113 132 119 111 133 117 109 133 115 108 135 114 106 136 110 106 135 108 106 133 106 106 131 104 105 131 102 103 130 102 103 129 103 104 128 104 104 92 170 142 94 169 140 95 169 138 96 169 138 97 170 137 99 172 136 100 173 134 101 172 134 102 171 134 102 170 133 103 167 133 102 165 132 103 163 130 102 162 128 104 161 127 105 160 126 106 159 125 107 158 125 110 156 126 113 152 127 117 148 127 120 144 126 122 142 125 124 140 124 126 138 122 128 138 121 129 138 121 130 138 120 131 136 120 133 135 120 133 135 120 133 135 121 133 132 121 133 130 121 134 129 122 134 127 120 134 123 118 133 119 115 134 117 112 135 115 109 135 114 108 136 111 106 136 109 107 135 107 108 134 104 106 132 103 105 131 101 105 130 101 105 130 101 106 130 102 107 92 166 146 94 167 145 94 166 144 95 167 143 97 167 141 99 169 139 100 171 137 101 171 138 102 170 137 102 170 135 102 168 135 103 167 135 103 165 134 103 163 132 104 162 130 104 160 130 105 159 129 106 158 128 109 156 129 112 152 130 117 148 131 121 144 130 122 142 129 125 141 128 127 138 126 128 137 125 129 137 124 130 137 124 132 135 123 133 134 124 133 134 124 133 134 124 134 133 124 135 131 124 135 129 124 135 127 121 136 123 119 137 119 116 137 116 113 137 114 111 138 112 109 137 110 108 135 108 108 134 106 109 133 103 108 131 102 106 130 101 106 130 101 107 131 100 108 130 100 108 93 163 148 94 164 149 95 164 147 96 165 145 97 165 143 98 167 141 99 169 141 100 171 140 101 170 139 102 170 139 103 169 139 104 168 138 105 167 137 104 164 136 104 162 134 104 161 133 105 161 132 107 159 132 109 157 132 113 153 134 118 149 134 121 146 135 124 144 133 125 142 132 127 140 130 127 138 128 130 137 129 131 136 128 132 134 127 133 135 127 133 135 128 134 135 128 135 134 128 136 133 127 137 130 125 138 127 122 138 122 120 139 119 117 139 115 115 138 113 114 138 111 112 138 110 111 136 107 110 134 105 109 132 103 108 131 102 106 131 101 106 131 99 106 131 99 108 130 99 109 93 160 150 94 161 150 96 162 149 97 163 147 97 163 145 98 166 143 99 168 142 100 170 142 100 171 141 101 170 142 102 170 141 104 169 141 105 167 140 106 164 139 105 163 139 105 162 138 107 160 138 108 160 137 110 157 138 114 154 138 118 150 137 122 148 138 123 146 138 125 144 137 127 142 134 129 140 132 131 138 131 132 136 132 133 134 131 134 134 131 135 135 131 135 135 131 136 134 130 137 131 128 140 128 127 140 125 124 140 120 121 140 117 119 139 114 118 139 112 117 139 111 115 138 110 113 137 106 112 135 104 111 133 102 109 132 101 107 133 100 107 132 99 107 132 99 107 131 98 109 93 159 152 94 159 151 96 160 151 97 162 150 97 163 149 98 165 147 99 167 146 100 169 145 101 170 144 102 171 144 103 171 144 105 169 144 105 167 143 106 166 143 106 163 144 107 162 144 108 161 144 111 160 144 112 158 143 115 155 143 119 152 142 122 150 142 124 148 142 126 146 141 127 143 137 130 142 136 132 139 136 133 136 136 134 134 135 136 134 134 137 134 134 137 135 134 137 133 133 139 130 132 140 127 130 141 123 128 140 121 125 140 117 123 140 113 121 140 112 120 139 111 118 139 111 116 137 108 114 135 105 113 134 103 112 133 101 110 133 101 109 133 100 108 132 100 108 131 99 108 94 157 154 95 157 154 96 157 152 97 159 151 98 162 150 99 164 150 100 166 148 100 168 147 101 169 145 103 170 145 105 170 147 106 169 148 108 167 147 108 165 147 108 163 148 109 162 148 110 161 149 113 160 148 115 157 148 117 156 147 120 154 147 123 151 146 124 150 146 125 147 144 127 144 141 130 143 140 132 140 140 133 137 141 135 135 139 137 134 138 139 134 137 138 135 138 140 133 136 141 130 136 142 126 134 142 123 131 143 120 128 143 117 126 142 115 124 141 112 123 139 111 121 139 111 119 137 109 117 135 108 116 135 105 114 135 103 113 134 101 112 133 101 112 131 101 110 129 100 109 97 153 155 96 154 155 97 155 154 99 157 153 100 159 153 100 162 152 100 165 150 100 167 149 102 167 148 103 168 147 104 168 149 106 168 150 108 166 151 110 163 152 111 161 152 112 161 152 113 160 152 116 160 152 117 159 151 120 158 150 122 156 150 123 152 150 124 151 149 124 150 147 127 147 145 131 145 143 133 142 143 134 138 144 136 136 143 137 135 141 139 135 140 140 134 139 142 132 139 143 129 138 144 125 137 144 123 136 144 120 133 145 117 131 144 113 128 143 111 126 140 110 123 139 110 122 138 109 120 136 107 118 136 105 116 135 104 115 134 102 115 132 102 114 129 102 112 128 101 110 99 150 156 100 151 156 100 154 155 100 156 154 101 158 154 101 160 152 100 163 150 101 165 151 103 166 150 104 166 150 105 165 151 106 165 154 108 164 155 110 162 157 112 161 156 113 159 155 115 158 155 115 158 155 118 157 155 120 158 153 121 157 153 123 154 153 123 152 152 124 150 151 127 149 149 130 147 148 132 143 147 134 140 147 136 137 146 137 135 145 140 135 144 142 133 142 144 131 141 144 128 140 145 125 140 146 121 139 146 118 137 146 115 135 145 112 131 143 109 129 141 108 127 139 108 125 139 108 122 137 107 120 135 105 118 133 104 116 133 104 116 131 103 115 129 102 112 128 100 111 102 148 159 102 150 158 101 153 157 101 154 156 101 157 156 100 159 154 100 161 152 101 161 152 102 162 152 103 162 152 104 162 154 106 161 157 108 160 160 110 160 160 113 158 159 113 156 158 114 156 158 115 155 158 118 156 157 120 157 156 121 157 156 122 156 157 123 154 155 125 152 154 128 150 153 130 148 152 132 144 151 134 140 149 135 138 149 138 135 147 141 134 147 143 132 146 144 131 144 145 129 142 146 125 142 148 120 142 146 117 140 146 114 138 145 111 135 144 108 132 142 106 129 140 106 127 140 105 125 137 106 123 135 105 120 133 105 118 133 103 117 131 102 116 129 101 113 128 99 112 103 148 160 104 149 159 103 151 158 102 153 157 100 155 156 100 157 155 101 158 155 101 157 155 102 159 155 103 158 155 104 158 157 106 158 160 108 157 162 111 156 163 113 155 162 113 154 161 115 154 161 116 154 160 117 155 159 119 156 160 120 157 159 121 157 159 123 156 158 125 153 156 128 151 156 129 150 156 131 146 154 134 143 152 137 140 152 139 137 151 141 134 149 143 133 147 145 132 147 146 128 144 146 124 143 147 119 143 147 116 141 145 114 141 144 110 138 144 108 135 142 106 133 141 104 129 140 103 125 137 104 123 136 104 121 135 104 119 134 102 117 132 101 116 129 99 114 129 97 111 105 147 162 105 148 161 104 151 160 103 152 158 102 154 158 102 154 158 102 154 157 102 154 156 102 156 158 104 155 157 105 155 159 106 154 162 108 154 164 110 153 165 113 153 165 114 153 165 115 153 164 117 152 164 118 153 163 119 156 164 120 157 163 121 157 162 123 156 160 125 153 159 127 152 159 130 150 159 132 148 157 134 144 156 137 142 156 138 139 154 140 134 152 143 132 150 144 131 149 145 127 147 146 123 146 145 119 144 145 116 143 145 114 144 144 112 140 142 108 137 141 107 135 140 105 132 139 102 127 138 102 124 137 102 121 136 102 119 135 101 118 132 100 117 131 98 114 131 95 113 109 146 163 107 148 161 105 150 161 104 151 160 104 151 160 104 152 159 104 152 159 104 152 159 103 153 160 104 153 160 104 152 160 106 151 162 108 151 163 111 151 165 113 151 166 114 150 167 115 150 167 117 151 166 118 153 165 120 155 165 121 156 165 121 156 164 124 154 162 126 152 161 129 150 160 131 149 161 134 149 160 136 146 159 137 144 158 140 141 157 140 136 156 142 133 154 143 131 152 145 127 150 145 122 148 145 118 147 145 114 146 145 113 145 144 111 142 143 109 139 141 107 136 141 105 132 139 102 129 138 101 125 139 99 122 138 99 119 136 99 118 133 98 117 131 97 114 131 95 113 111 147 163 111 147 162 109 148 161 108 150 161 107 150 161 107 150 161 106 150 161 107 152 162 106 152 163 106 152 164 105 151 163 107 150 164 109 150 164 111 150 164 112 150 166 113 149 166 115 149 167 117 151 166 119 153 166 121 153 166 122 153 166 123 153 166 125 152 164 128 150 163 130 149 163 132 148 163 134 149 163 136 148 162 138 145 161 140 142 159 141 138 158 143 134 156 145 130 155 146 127 153 145 121 152 144 118 150 144 114 148 144 111 146 143 110 142 142 108 139 141 107 136 140 103 132 138 102 129 138 99 125 138 97 121 138 96 120 136 97 118 133 96 116 131 95 114 132 94 112 115 148 164 115 147 164 114 148 163 112 148 163 111 149 163 110 149 163 110 149 164 109 150 164 108 151 165 107 152 165 106 151 165 108 149 164 110 150 164 111 150 164 112 149 164 114 149 166 116 150 166 119 151 167 120 152 167 122 151 167 123 152 167 124 150 166 127 149 166 130 148 165 133 147 165 134 147 165 135 148 164 136 147 164 138 144 163 140 142 161 140 140 159 143 135 158 145 130 157 145 126 156 145 120 155 145 117 152 145 114 149 144 111 145 143 108 143 142 106 139 141 105 135 140 103 132 140 100 128 139 98 124 139 96 120 137 94 119 135 95 117 133 94 115 132 94 112 132 94 112 120 148 165 118 148 166 117 148 164 115 148 164 113 148 164 112 149 165 112 148 165 112 149 166 110 150 166 110 151 164 109 150 164 110 149 164 112 149 164 113 150 164 114 151 164 115 151 165 117 152 165 120 152 165 121 152 166 123 151 168 124 150 168 126 151 167 129 149 167 131 148 168 135 147 167 136 147 168 137 146 166 137 144 165 139 142 164 141 141 163 141 139 161 142 136 160 143 131 159 144 125 157 145 120 155 144 116 153 145 113 149 145 110 145 144 107 142 143 104 138 142 103 134 140 103 131 140 100 127 140 98 123 139 95 120 136 95 118 135 94 116 134 94 112 133 94 111 132 93 110 123 147 167 121 148 166 121 148 167 118 148 166 116 148 166 114 148 166 114 148 166 114 148 165 113 149 166 112 149 164 111 149 163 112 149 164 113 149 165 114 151 164 115 151 163 116 152 164 119 152 164 121 152 165 122 152 166 123 151 168 125 150 169 127 150 169 130 149 168 133 149 169 135 149 169 136 147 167 137 146 166 139 144 166 141 143 165 142 141 164 142 139 163 143 136 162 143 132 159 143 125 157 144 120 156 144 116 154 144 112 150 143 110 147 143 107 141 143 105 137 142 103 134 141 101 130 141 100 127 139 97 122 138 95 119 137 95 117 135 94 114 135 93 113 135 93 111 133 92 111 125 147 168 124 147 168 123 147 167 121 147 168 119 147 167 116 147 167 116 147 166 115 147 166 116 147 166 115 148 165 115 149 164 115 150 164 114 150 165 114 151 164 116 152 165 118 152 165 120 152 165 121 151 167 122 150 167 123 150 169 125 150 170 127 150 170 131 150 169 134 150 169 136 149 169 136 147 167 138 146 167 139 146 167 141 144 165 140 142 163 141 140 163 142 136 161 142 132 160 142 126 158 144 121 156 144 116 154 142 113 151 142 110 146 142 107 140 142 106 135 142 103 133 141 101 130 140 100 127 138 97 122 138 96 118 138 95 115 137 95 114 136 93 112 135 91 112 134 91 113 128 147 170 126 146 169 125 145 167 123 145 168 121 145 168 120 145 167 118 146 167 119 147 166 118 148 166 117 148 165 117 149 165 116 151 166 116 151 167 117 152 167 118 153 167 119 153 167 119 153 167 121 151 166 122 150 167 124 151 169 125 152 169 127 152 170 131 152 170 134 151 168 136 150 168 136 148 167 137 147 167 138 147 167 139 144 165 139 142 164 140 139 163 140 135 161 141 131 160 142 126 158 143 121 156 142 117 154 142 114 150 141 110 144 142 109 138 141 107 135 141 105 133 141 103 130 139 100 126 137 98 122 137 97 117 137 97 115 136 96 113 135 94 112 135 92 112 133 91 113 130 146 171 128 145 170 127 143 169 124 143 168 123 144 168 121 145 167 120 146 167 121 148 167 120 149 167 119 150 167 118 151 167 116 152 169 117 152 170 119 153 169 119 154 169 119 153 168 119 153 168 121 152 166 122 151 167 123 151 169 124 152 170 128 153 170 131 152 170 133 150 168 135 149 169 136 149 168 137 148 167 136 146 166 137 144 165 138 141 163 138 138 163 140 135 162 140 130 161 141 126 158 141 122 156 141 119 153 140 115 148 140 111 143 141 109 137 142 108 132 141 106 130 139 103 128 138 101 124 137 100 121 136 98 117 135 98 114 134 96 113 133 95 112 132 93 113 132 91 114 132 145 171 130 144 170 128 143 169 127 143 170 125 143 170 123 145 169 121 147 168 120 149 168 120 149 168 120 151 168 120 152 169 119 153 170 119 153 171 120 154 170 120 155 169 120 154 169 119 153 170 120 153 169 121 152 169 123 152 169 125 152 170 129 153 170 132 153 171 134 152 171 135 150 170 135 149 169 135 148 167 135 146 167 136 143 166 137 141 163 138 138 163 140 134 161 140 131 160 141 126 157 141 122 156 140 119 152 138 115 146 138 113 141 140 110 136 141 108 130 140 106 127 139 103 125 138 102 123 136 102 119 135 101 117 133 99 115 133 98 113 131 96 112 130 95 112 128 93 112 132 145 172 131 145 171 130 143 170 129 143 170 127 143 171 126 145 170 124 147 170 122 149 170 121 150 170 120 152 170 120 154 170 120 154 172 120 153 171 120 152 170 120 154 170 120 153 170 119 153 171 120 153 171 121 153 171 123 153 170 126 153 171 129 153 171 132 153 172 134 151 173 135 150 172 136 148 170 135 147 168 135 145 167 136 142 165 138 140 164 139 138 163 140 135 160 140 131 158 141 127 155 141 123 153 139 120 150 138 117 145 139 114 140 140 112 134 142 109 129 140 106 126 139 104 125 137 103 122 135 102 118 133 101 116 132 100 114 131 99 112 131 98 111 129 97 111 127 96 113 132 146 173 131 146 172 130 145 171 130 144 171 129 144 172 128 145 171 126 147 171 124 148 171 122 150 172 122 152 172 121 153 173 121 153 174 120 153 173 121 153 172 120 153 172 119 153 172 120 153 172 120 154 173 121 155 173 124 155 174 126 153 174 128 154 173 131 153 173 133 151 174 134 149 173 135 148 172 135 146 170 136 145 168 136 143 165 138 140 165 140 137 163 139 134 160 140 130 158 140 128 154 140 124 151 139 121 147 137 118 142 139 115 138 141 113 132 142 110 129 140 107 126 138 104 124 136 102 122 134 102 118 131 101 116 129 100 114 128 100 112 128 99 112 128 97 112 127 96 113 134 145 175 132 145 174 131 144 172 130 145 171 130 145 172 129 145 172 127 147 172 125 149 172 124 151 172 123 153 173 122 154 174 121 154 175 121 153 174 120 153 174 120 154 174 120 152 174 120 154 175 122 155 176 123 155 177 124 156 177 126 154 176 128 154 175 130 152 174 131 151 174 133 149 174 135 147 171 135 146 170 135 143 169 135 142 167 138 140 165 138 136 164 139 133 160 140 129 158 140 127 154 139 125 149 138 121 145 138 117 141 140 116 137 140 113 131 141 109 128 140 106 127 137 105 123 135 103 121 133 103 118 129 102 116 127 100 114 126 100 113 126 100 112 124 97 113 124 95 115 136 145 177 133 144 176 132 144 174 133 145 172 132 146 171 130 146 172 128 147 172 126 149 174 125 150 173 124 152 173 123 154 175 122 155 176 121 154 177 121 155 177 122 155 177 121 153 176 120 154 177 121 155 177 123 155 178 123 155 178 124 155 178 127 153 177 130 151 176 133 149 174 134 148 173 135 147 171 134 145 170 135 143 169 136 141 167 139 139 165 139 136 163 138 133 160 139 130 155 139 127 151 138 124 147 139 120 143 140 118 140 140 116 136 140 113 131 140 109 128 139 107 125 137 106 122 134 106 119 131 104 117 127 102 115 125 102 114 123 101 113 122 99 112 122 97 113 122 95 114 137 145 179 136 145 178 136 145 176 136 145 174 133 146 172 131 147 172 129 148 173 128 150 174 126 151 173 126 152 173 125 155 175 122 156 177 121 155 178 121 155 179 121 154 178 122 154 178 120 153 177 122 154 176 123 154 178 124 154 179 125 154 179 127 153 179 130 150 177 133 148 175 135 147 173 136 145 172 135 145 170 135 143 168 137 141 165 138 139 163 139 137 161 139 134 158 139 130 153 139 127 149 138 124 145 138 121 142 139 118 139 139 116 136 138 113 131 138 111 128 137 109 125 136 107 121 133 106 119 128 106 116 124 104 116 123 103 114 121 100 114 120 99 113 120 97 113 120 95 114 139 143 181 138 143 179 139 145 177 137 146 174 135 147 172 132 147 171 131 148 171 129 150 172 127 152 172 126 153 173 124 155 173 122 156 175 121 155 177 122 154 178 122 154 178 122 153 177 122 154 177 123 153 177 123 153 178 124 152 179 126 153 179 127 152 179 129 149 177 133 148 175 134 146 173 135 144 172 136 145 171 136 143 167 137 142 164 138 140 161 139 137 159 138 135 157 138 130 152 138 128 147 138 125 145 137 122 142 137 120 138 137 117 136 137 114 133 136 113 129 135 110 125 133 108 122 130 107 119 125 107 117 122 106 117 121 104 116 119 102 115 118 99 114 117 98 114 117 97 115 141 144 180 140 145 178 139 146 177 137 147 174 135 148 173 133 149 173 132 149 172 132 149 172 129 151 172 126 152 172 124 154 172 122 155 173 122 154 176 123 153 178 124 153 177 123 153 178 124 153 178 124 153 179 124 152 179 125 151 179 126 152 178 128 151 179 129 150 177 131 148 177 133 147 175 135 145 173 136 144 170 135 143 166 135 142 164 136 140 161 137 136 158 137 132 155 138 129 151 137 128 146 137 126 144 136 123 142 136 121 139 136 119 137 136 116 135 135 114 130 133 112 126 130 111 123 127 109 120 123 108 118 120 106 117 119 105 116 117 103 116 116 102 116 115 100 116 116 98 117 141 146 179 140 147 177 139 147 176 137 149 176 134 150 174 132 150 174 133 150 172 132 150 172 130 151 172 127 152 171 124 153 172 123 154 173 123 154 174 123 153 177 125 152 178 125 152 178 126 153 178 125 152 178 126 151 178 126 151 178 127 151 177 129 149 177 129 148 177 130 149 176 132 148 175 135 145 173 135 143 170 134 142 166 133 140 162 134 138 160 135 134 158 137 131 155 137 129 151 136 129 147 135 126 144 134 124 142 135 122 140 134 120 138 134 117 136 133 114 132 131 112 127 128 112 124 126 111 122 122 109 119 119 107 118 118 105 118 116 105 117 115 102 117 114 100 118 115 98 118 140 146 178 139 147 176 138 148 176 135 150 176 134 152 175 132 152 174 132 151 173 131 150 173 131 151 173 128 153 172 127 153 172 124 153 174 124 152 174 125 151 176 126 151 177 126 152 177 126 152 178 125 151 177 126 150 178 127 150 177 127 149 177 128 148 176 128 148 175 130 146 176 132 146 175 133 145 172 133 143 168 133 140 165 132 139 162 132 135 159 133 132 157 136 129 153 135 128 150 134 127 146 132 124 144 132 123 143 132 122 140 133 120 138 132 117 137 130 115 134 128 113 130 125 113 126 123 112 123 121 110 122 118 108 122 116 106 121 115 104 120 115 102 120 115 100 120 115 99 120 140 146 177 139 148 175 138 149 174 136 151 175 134 152 176 132 152 175 131 153 174 130 151 174 131 151 174 130 153 173 128 152 172 127 152 173 126 151 174 126 151 175 127 151 177 127 151 177 127 151 178 126 150 177 127 149 177 127 149 177 127 148 177 127 146 175 128 146 173 130 145 174 131 144 174 132 143 170 133 142 167 132 140 164 131 137 160 131 134 157 132 131 156 133 129 152 133 127 149 132 126 146 131 125 144 130 124 143 129 122 142 130 119 141 130 116 139 127 114 136 126 113 132 124 113 128 122 112 125 120 110 124 118 109 124 117 106 123 116 103 124 115 101 123 115 100 123 114 100 123 140 146 176 138 148 175 138 149 174 136 150 175 135 152 176 132 153 176 131 153 174 131 151 174 131 152 174 131 153 174 130 151 173 128 150 173 128 150 175 127 150 176 128 150 178 127 150 179 127 149 178 128 148 177 128 149 176 128 148 175 128 147 176 128 144 175 128 144 173 129 143 173 130 142 172 131 141 169 132 140 166 131 138 163 130 136 160 130 133 157 130 131 155 130 129 153 130 127 150 130 126 148 130 124 145 129 123 144 129 121 144 128 118 143 127 115 141 125 114 137 123 113 132 121 113 128 120 112 126 119 109 127 118 107 126 116 105 127 116 102 126 115 101 126 114 100 125 114 100 126 140 146 177 139 147 175 138 148 175 136 150 175 135 150 174 133 152 174 132 153 174 131 152 175 131 153 174 132 153 173 131 150 173 130 149 174 129 148 176 129 148 177 129 148 177 128 148 179 129 148 180 129 148 177 130 147 177 130 146 176 130 145 175 129 144 174 129 142 173 129 142 171 130 142 170 131 141 166 131 138 164 131 137 163 130 135 160 130 133 157 129 131 156 128 129 153 128 127 151 127 126 150 128 125 149 128 123 147 127 121 145 127 118 144 125 114 142 123 113 138 120 113 133 120 113 130 119 112 128 117 110 128 116 107 127 116 105 128 116 104 128 115 103 128 115 101 127 114 102 128 