P3
50 50
255
109 173 110 110 171 109 110 170 108 110 167 107 112 165 104 113 162 102 114 159 102 115 154 102 117 152 100 118 150 100 119 147 98 122 144 96 124 139 95 125 137 95 127 134 93 128 132 91 130 129 90 131 127 90 133 126 90 135 124 89 138 122 87 139 117 86 141 113 86 142 109 86 144 107 86 147 106 87 150 104 87 151 103 86 152 101 85 153 99 84 154 98 83 155 98 81 156 97 79 155 97 79 154 96 79 153 97 81 154 98 82 156 99 84 155 100 85 155 102 86 155 102 87 156 103 86 158 103 86 161 103 87 163 104 88 164 104 90 167 105 92 170 106 92 172 107 92 173 108 92 106 174 111 106 171 110 107 169 109 109 166 108 110 165 105 111 162 104 114 157 103 116 153 103 118 150 101 119 148 100 120 146 100 122 141 99 123 138 97 125 134 97 127 131 94 129 130 93 130 128 92 132 125 91 133 124 90 136 123 90 139 121 89 140 117 88 141 113 87 142 110 86 144 106 87 146 105 86 148 104 86 150 103 85 152 101 84 153 99 82 154 96 83 155 95 81 155 95 79 153 94 80 153 94 80 153 94 81 153 95 83 154 97 85 154 98 87 155 101 88 155 102 88 156 103 88 159 102 88 160 102 88 162 102 89 163 102 92 165 102 93 169 104 94 171 105 95 174 105 96 104 173 113 105 171 112 107 169 110 108 166 108 109 164 106 110 161 105 113 156 105 116 153 105 118 150 103 120 147 101 120 145 101 121 140 100 123 136 99 125 132 98 128 130 96 129 128 95 131 126 94 133 124 93 135 122 93 137 121 92 139 119 91 140 117 89 140 114 88 141 110 87 143 106 87 146 105 87 147 104 86 149 103 84 151 101 82 153 98 81 154 94 81 155 91 80 154 90 79 153 90 79 154 91 79 155 92 81 154 94 84 154 96 85 155 98 87 156 100 89 157 102 90 158 103 91 160 102 91 160 101 90 161 100 91 162 100 93 164 101 95 167 101 95 171 102 95 174 101 97 105 172 114 104 171 112 105 169 110 107 166 108 109 164 107 111 160 106 113 156 107 115 152 107 116 150 105 118 147 104 120 143 102 121 138 101 123 134 101 126 131 100 129 128 98 130 126 97 132 124 96 134 121 95 135 118 94 137 117 94 138 117 93 139 115 92 141 112 90 141 108 88 142 106 87 144 104 88 147 103 87 148 102 85 150 99 82 152 96 81 154 92 80 154 91 79 154 89 78 155 88 77 155 89 79 154 90 81 154 93 84 155 96 86 156 98 87 158 101 89 160 102 91 161 103 92 161 102 92 161 101 92 162 99 94 163 99 95 166 100 97 169 100 96 172 101 96 175 99 98 102 173 115 103 170 112 105 168 110 107 167 109 109 164 109 110 159 108 112 155 108 114 150 108 116 148 107 118 145 106 120 141 104 122 137 104 124 134 104 126 130 103 129 126 101 131 123 100 132 121 98 133 118 96 134 115 95 136 113 97 137 113 95 138 112 93 140 109 92 141 107 91 142 105 89 143 104 89 145 102 87 147 100 85 149 97 83 151 93 83 152 92 82 154 91 81 156 89 79 156 88 77 154 88 78 154 89 81 154 92 83 156 94 85 158 98 88 160 99 90 162 101 92 163 102 93 164 102 94 164 101 96 166 99 97 166 98 97 168 99 97 171 98 97 173 98 97 177 98 97 100 173 115 101 171 113 103 168 111 105 166 110 107 163 111 109 158 111 112 154 110 114 150 111 115 146 109 117 142 108 118 140 106 120 138 105 123 134 105 124 129 104 128 124 103 131 122 102 132 119 102 134 115 100 134 113 97 134 111 98 134 109 97 136 108 96 138 107 93 140 106 91 141 105 89 142 102 89 145 100 89 147 98 87 149 94 85 150 92 84 152 90 83 154 89 82 155 88 80 156 87 79 155 88 80 155 89 81 155 90 82 157 94 86 159 97 89 162 99 90 163 100 92 164 101 93 166 101 95 167 99 97 168 98 98 168 98 97 170 98 97 172 97 98 174 97 97 176 96 97 99 173 117 99 170 115 102 167 114 104 164 113 105 162 112 108 157 112 111 154 112 112 150 112 114 145 111 116 141 109 117 139 108 118 137 106 121 132 106 125 128 106 127 123 104 131 121 104 132 118 104 133 115 102 133 112 100 134 110 99 134 107 100 137 105 98 139 105 95 140 103 93 141 102 91 143 100 89 146 98 89 147 95 89 148 92 88 150 91 86 151 89 84 154 88 82 155 87 81 156 86 80 156 87 80 155 88 82 157 90 83 159 93 85 161 96 89 162 98 91 163 99 92 164 99 94 167 99 97 169 97 98 169 98 99 170 97 99 172 97 99 174 97 99 175 96 98 176 96 99 97 171 119 98 168 117 100 164 117 102 162 116 105 160 114 107 157 114 109 153 114 111 149 114 113 145 113 115 140 112 117 138 111 119 136 109 120 131 108 124 127 107 127 123 105 130 119 106 131 118 104 133 114 102 133 112 100 134 110 100 136 106 101 138 103 100 140 101 98 141 100 95 143 99 93 144 98 91 145 96 90 145 93 90 147 90 88 149 88 87 150 87 87 152 86 83 154 85 81 156 85 81 156 86 81 155 87 82 158 89 84 159 91 87 161 94 89 163 96 91 164 96 92 166 96 94 167 96 96 167 96 97 169 97 98 170 98 100 172 97 100 174 96 100 175 97 99 176 95 98 96 167 121 97 165 120 100 162 119 102 159 118 104 157 116 106 156 116 108 153 115 110 149 115 112 145 114 114 140 113 117 137 111 119 134 111 121 130 108 124 124 108 127 120 107 129 117 107 131 115 104 132 113 102 134 111 101 135 108 101 137 104 102 139 102 100 141 99 99 142 96 96 144 95 93 145 94 92 145 93 92 145 91 91 147 88 88 149 87 86 149 85 86 150 85 84 153 84 83 155 84 83 156 84 82 156 86 83 158 87 85 160 90 87 162 92 89 163 93 90 166 94 91 166 95 93 167 95 96 167 95 98 169 96 99 172 97 100 174 97 101 174 96 101 175 96 99 175 96 97 95 163 123 97 160 121 99 157 120 102 155 119 103 154 119 105 154 117 107 152 116 109 148 115 111 145 114 113 140 113 116 136 113 118 133 113 120 128 111 123 123 109 126 120 107 129 116 106 130 113 104 132 111 102 135 109 101 136 106 101 138 102 101 140 99 101 141 96 100 143 93 98 143 91 96 144 90 96 145 89 93 146 87 91 147 87 88 148 86 87 149 84 86 150 83 84 152 83 83 153 83 83 155 83 84 156 85 84 158 85 84 160 88 86 162 91 88 164 92 90 166 92 91 166 92 94 166 93 96 167 93 98 168 94 100 171 95 101 174 95 102 174 96 102 175 96 100 175 96 97 95 159 123 97 156 122 99 154 121 101 152 120 102 151 119 104 150 118 106 148 117 108 145 116 110 144 115 113 141 113 115 136 114 118 131 114 120 126 112 122 121 111 125 118 109 127 115 107 129 111 105 132 107 104 134 105 103 137 103 102 139 100 101 140 97 101 141 93 101 143 90 100 143 88 99 144 87 97 145 87 95 147 86 91 148 86 88 149 85 88 150 83 86 151 82 84 151 82 84 152 82 84 153 82 85 156 84 85 159 85 85 161 87 85 162 88 86 164 90 89 165 90 92 167 90 94 167 90 96 167 91 99 168 91 101 169 93 103 172 94 103 174 94 102 175 95 100 175 96 100 95 158 125 97 154 124 100 152 123 100 151 121 102 149 120 104 147 119 106 145 118 108 143 118 110 141 116 113 138 115 116 136 116 118 131 115 121 124 114 122 119 112 124 115 110 127 112 108 129 109 106 131 105 105 134 103 104 137 101 103 139 99 103 141 96 103 142 92 103 145 88 103 146 87 101 146 85 98 147 85 97 148 84 93 149 83 90 150 83 89 150 82 88 151 82 87 152 81 86 153 80 85 153 81 85 157 83 85 160 85 86 162 84 86 164 85 87 165 86 90 166 88 92 167 88 94 168 89 96 167 89 98 168 89 102 169 91 104 171 93 105 173 94 103 174 94 102 175 96 101 94 155 127 97 153 125 99 151 124 101 150 123 102 147 121 104 145 120 107 144 120 109 143 119 111 140 119 114 138 118 116 135 117 118 130 116 119 123 114 121 118 112 123 114 110 126 111 108 129 108 107 131 104 106 134 102 105 137 99 104 139 96 105 142 94 105 145 90 105 146 88 103 147 86 101 146 84 99 148 83 98 149 82 95 149 80 92 151 80 90 152 80 88 153 80 88 153 79 88 154 79 87 154 80 87 156 82 87 159 83 87 162 83 88 164 84 89 165 83 91 165 84 93 166 85 95 167 87 96 168 87 98 168 87 101 170 89 105 171 91 106 171 92 105 173 94 104 175 94 102 94 155 128 96 152 126 99 151 125 101 148 124 103 146 122 105 145 120 108 144 120 110 142 119 111 140 120 114 137 119 116 133 118 117 128 117 118 123 115 120 118 114 123 114 111 127 111 110 129 107 110 131 104 108 134 102 106 137 99 105 140 95 106 142 93 105 145 89 105 147 86 104 148 85 102 149 83 100 150 80 98 150 79 96 150 79 95 152 79 91 154 79 89 154 78 89 154 77 90 154 78 89 155 80 89 156 81 89 160 83 89 163 82 89 164 82 90 164 81 93 165 82 94 166 83 95 168 83 97 169 85 99 170 86 102 170 87 105 171 88 106 172 90 106 173 93 105 175 94 103 94 155 129 96 151 127 99 149 126 102 147 125 103 145 122 105 144 120 108 143 119 110 141 120 112 138 121 113 135 120 115 132 120 117 127 120 117 122 118 119 118 116 122 114 114 126 110 114 129 107 112 133 105 111 136 102 109 138 100 108 140 96 107 142 92 107 145 89 106 146 86 105 148 85 103 150 83 101 150 80 99 150 78 96 151 76 95 152 77 94 155 77 91 155 77 90 156 76 91 156 78 92 157 78 91 158 79 91 161 81 92 162 82 92 163 82 94 163 80 96 165 80 96 166 79 97 168 80 98 170 82 101 170 85 102 171 87 105 171 89 106 172 91 106 173 93 105 174 94 105 95 153 132 97 150 129 99 148 127 101 146 125 104 145 123 106 143 120 108 141 120 111 139 121 113 136 122 114 133 123 115 130 123 115 125 121 116 121 120 118 117 118 120 114 117 124 109 116 128 107 114 132 104 113 135 102 111 137 99 110 139 95 109 141 93 108 144 90 108 145 87 108 146 85 106 149 83 103 150 80 101 151 78 98 152 75 95 153 75 94 154 75 92 155 75 91 158 74 92 158 76 93 159 76 94 160 78 93 161 80 93 162 82 95 163 82 96 163 81 98 164 78 99 167 78 99 169 79 102 170 82 103 170 85 103 171 87 105 172 89 107 172 90 107 172 92 106 173 93 106 96 152 134 98 150 131 101 147 129 102 144 126 103 143 122 106 142 121 109 139 121 110 136 121 112 134 122 114 131 123 114 128 123 114 124 123 115 120 121 117 116 122 119 112 120 122 109 119 126 107 116 130 105 114 134 102 113 136 98 113 139 94 111 140 92 111 142 90 111 143 88 110 146 85 109 148 82 105 150 80 102 151 79 99 152 76 96 154 75 96 155 74 94 156 73 94 159 74 94 160 76 94 160 77 95 161 78 95 161 81 95 160 81 96 162 82 99 162 82 100 164 80 100 168 79 102 169 79 104 169 82 104 170 83 104 170 84 105 172 87 107 172 90 107 173 91 106 174 92 105 98 151 136 100 148 133 101 145 130 102 143 128 103 140 124 106 139 123 109 136 122 109 134 121 111 131 122 113 129 123 114 125 124 114 121 123 114 119 123 116 115 123 118 112 122 120 110 120 124 107 118 128 105 116 132 102 114 135 98 115 138 94 114 139 91 113 140 89 112 142 87 112 144 84 111 147 82 107 147 80 103 150 78 100 152 77 99 154 75 98 155 74 96 157 74 95 159 75 96 159 76 96 161 77 96 161 79 96 161 81 97 161 81 99 162 82 100 162 82 101 164 81 103 167 80 105 168 80 105 169 80 105 169 81 105 170 83 105 172 84 106 172 87 106 172 89 104 173 90 103 99 149 137 100 146 134 101 143 132 102 141 129 103 138 127 105 136 126 108 133 124 109 131 123 111 128 123 112 125 124 112 121 125 114 118 123 113 116 124 114 114 123 116 112 122 119 109 121 122 107 120 126 104 118 130 101 117 134 96 117 137 92 116 138 89 115 139 88 115 140 85 114 143 83 112 145 81 108 147 80 105 149 78 103 151 76 101 153 75 100 155 75 98 157 75 97 158 76 97 158 77 96 159 78 96 160 78 97 160 80 99 162 80 100 162 80 101 163 80 102 164 80 104 166 79 106 167 79 105 167 78 104 167 80 104 168 81 104 170 83 105 171 85 105 172 87 103 172 88 101 99 147 139 98 143 136 100 142 134 101 138 130 102 136 128 104 133 128 106 129 127 108 127 125 110 124 124 110 121 125 111 118 126 112 115 124 113 113 124 115 112 124 116 108 123 118 107 123 121 105 123 125 102 121 128 97 121 132 94 120 136 91 119 138 89 119 139 86 118 139 83 116 142 81 113 144 80 110 146 79 107 148 76 105 151 74 103 153 74 101 154 75 100 155 75 100 157 78 98 157 78 96 157 79 95 159 80 97 160 79 99 161 80 101 162 80 102 163 80 103 164 80 105 165 78 105 166 78 105 165 78 104 166 78 104 167 78 104 168 81 105 169 83 105 172 84 103 173 85 101 98 144 139 99 141 137 100 138 135 101 136 132 102 133 131 104 130 130 106 127 129 107 124 127 109 121 126 110 118 127 110 116 126 112 113 125 113 111 125 116 109 126 118 106 126 119 104 125 122 103 124 125 99 124 128 96 124 131 92 123 135 90 122 137 88 120 137 84 119 138 81 117 140 80 114 144 78 112 146 77 110 147 74 107 150 73 104 152 73 103 153 74 102 154 76 101 156 78 100 158 78 99 158 79 97 159 81 97 160 80 99 162 80 101 162 79 103 162 79 104 163 77 105 164 77 105 164 77 104 164 78 104 165 78 103 166 78 105 167 79 106 168 81 106 170 81 104 172 82 103 98 142 139 99 137 137 100 135 136 101 132 135 103 130 133 104 128 132 104 125 131 106 122 129 108 119 128 110 117 128 110 114 127 111 111 126 113 109 125 115 107 127 119 104 127 120 103 126 123 100 126 125 97 126 128 94 126 131 91 126 134 88 125 136 84 123 136 83 121 137 80 119 140 79 115 144 77 113 145 75 110 147 74 108 148 73 106 151 73 105 153 75 103 155 76 102 156 77 102 158 78 99 158 79 97 159 81 98 160 81 100 161 79 101 162 77 103 162 76 105 162 76 105 163 76 104 163 77 104 165 79 104 165 79 104 167 79 105 168 79 107 168 80 107 169 80 106 171 81 104 98 138 138 99 136 138 100 133 137 102 130 137 103 127 136 104 127 134 104 124 133 104 121 132 107 118 130 109 115 129 111 112 127 113 109 127 113 107 126 115 105 128 118 103 128 120 101 127 122 99 126 124 96 127 127 93 127 131 89 127 134 86 126 134 83 126 135 82 124 137 80 120 140 78 117 143 76 115 145 75 112 146 74 108 148 74 105 149 74 105 151 75 104 154 75 103 156 77 102 158 78 100 159 80 99 160 81 99 160 80 101 161 79 102 161 77 104 162 75 105 162 75 105 162 76 104 162 77 104 164 77 104 165 79 103 168 79 105 168 79 106 167 79 108 169 79 107 170 79 106 97 135 138 99 133 138 100 132 138 102 130 138 101 127 137 103 125 136 104 122 135 104 120 133 106 116 133 110 112 132 111 109 130 114 107 129 115 106 129 116 103 128 117 101 129 120 100 128 123 97 127 124 94 127 126 91 127 129 87 127 132 85 127 134 82 127 136 80 124 137 78 122 139 77 119 142 76 116 145 76 112 146 75 109 147 74 107 148 74 106 150 74 105 152 74 104 156 77 104 158 79 101 160 79 100 161 79 101 160 78 101 160 78 102 161 76 103 162 75 104 161 74 105 161 75 104 162 75 104 163 76 104 164 78 104 166 78 105 166 78 106 167 79 107 168 79 108 169 78 108 99 132 139 100 131 138 100 130 138 101 128 138 101 126 138 102 122 138 103 120 137 105 118 136 106 114 135 110 109 135 114 107 133 115 105 133 116 104 131 116 101 130 117 99 130 120 98 129 121 95 128 122 91 128 125 88 129 129 85 129 132 83 129 134 81 128 136 79 125 138 76 123 141 76 119 142 76 116 144 75 114 145 74 111 147 74 109 148 73 106 150 73 106 151 74 106 154 76 105 157 78 103 159 77 101 161 78 101 160 78 102 160 78 104 161 76 104 160 76 105 160 75 105 161 74 104 162 75 103 161 76 105 163 77 105 165 78 105 165 78 106 166 79 107 166 78 108 167 78 108 100 129 139 100 128 139 100 127 138 100 126 138 101 124 139 102 121 140 104 118 138 105 115 138 107 112 137 112 107 137 114 104 137 116 103 135 116 101 133 116 99 132 117 97 132 118 95 131 120 93 131 122 89 130 125 86 131 129 83 131 131 82 130 133 80 129 136 78 128 138 76 124 141 75 121 141 74 118 144 74 115 146 74 113 147 74 111 148 73 110 150 72 109 150 73 109 153 75 107 156 76 105 157 76 104 160 77 104 161 78 103 160 77 104 160 76 106 160 76 106 158 77 106 159 76 104 160 77 104 160 77 105 162 76 105 163 78 106 164 79 108 164 79 108 165 79 109 166 77 110 100 127 139 99 126 139 99 125 139 100 123 140 101 122 140 102 120 140 104 116 139 106 113 139 108 110 139 112 106 138 114 103 139 117 101 138 117 99 135 118 97 134 118 96 133 119 93 133 120 89 133 123 86 134 126 83 133 128 81 133 131 80 132 133 78 130 135 77 130 139 75 127 141 74 123 142 72 120 144 72 118 146 73 116 147 74 114 147 73 114 148 72 112 150 72 111 152 73 110 154 74 108 156 75 108 160 75 107 161 76 106 160 76 106 161 77 106 161 77 106 158 77 106 158 78 105 158 77 104 159 77 105 160 77 107 162 77 109 162 78 109 163 79 110 163 78 111 165 78 113 99 125 139 99 124 139 100 123 140 100 122 142 101 120 142 102 117 142 105 114 142 106 111 142 109 108 141 111 105 141 113 102 140 116 99 138 118 98 137 119 96 135 119 94 135 120 91 135 120 87 136 122 83 135 126 82 134 128 80 134 130 79 134 132 77 133 135 75 131 138 73 127 141 73 125 143 72 123 145 72 120 147 72 118 148 73 116 149 73 116 150 74 115 151 73 113 152 74 113 153 74 112 156 74 110 159 75 110 160 76 109 160 77 108 160 77 108 159 78 107 159 78 105 158 78 105 158 78 104 159 78 105 160 77 108 161 77 110 161 78 111 161 79 111 163 78 113 164 77 114 99 125 138 99 123 141 99 121 142 99 121 142 101 118 143 103 114 144 105 112 144 109 110 145 110 107 144 112 104 142 113 101 141 114 98 139 116 96 137 117 95 136 118 92 136 118 90 137 119 85 137 121 81 135 125 80 135 128 79 135 129 78 135 132 76 134 135 74 132 139 73 130 141 72 127 144 73 125 146 73 122 147 73 120 149 73 120 149 74 119 151 74 118 152 74 117 153 73 117 154 72 115 156 72 114 158 75 113 158 76 112 158 77 111 159 78 109 157 78 109 157 78 107 157 79 106 157 79 105 158 78 106 160 78 108 160 78 111 160 78 112 160 78 114 161 77 114 162 76 114 100 127 139 99 123 141 100 120 142 100 119 143 101 117 144 104 114 146 106 111 146 109 108 146 111 106 146 112 103 144 112 100 143 113 97 141 113 94 140 115 92 138 116 90 137 117 89 138 118 85 138 120 81 137 123 78 136 127 77 137 129 76 137 132 74 136 136 73 134 139 71 132 141 72 130 144 74 127 146 73 125 147 73 124 148 73 123 150 75 122 152 74 121 153 74 120 155 74 119 155 73 118 155 72 117 155 74 116 156 76 115 157 77 113 156 78 111 156 78 111 156 78 109 156 79 108 155 79 106 157 78 107 158 78 109 159 78 111 159 78 113 158 77 114 160 76 115 162 75 115 100 127 139 99 124 141 99 121 143 100 118 144 102 116 145 103 113 147 106 110 148 107 108 148 109 106 146 111 102 144 111 99 144 112 96 143 112 93 142 112 91 141 114 90 139 114 86 138 116 84 138 120 80 138 123 78 138 125 77 139 129 75 138 133 73 137 136 70 135 140 71 133 143 72 132 145 74 130 147 74 128 147 74 127 149 73 126 150 74 125 152 72 124 153 72 123 155 73 121 155 73 120 155 73 118 154 74 117 154 76 117 154 77 116 154 77 114 154 79 112 154 79 110 155 79 109 155 79 108 157 79 108 157 78 109 157 79 111 157 78 112 157 77 114 159 76 116 161 76 116 102 127 139 101 124 141 99 122 143 100 119 145 101 116 146 102 113 147 104 111 148 106 108 147 107 105 146 109 101 145 111 98 144 111 96 143 109 94 142 110 92 141 111 90 140 112 86 139 115 84 139 119 80 139 122 79 138 126 76 139 129 73 139 134 71 137 138 70 135 140 71 134 142 71 133 145 73 131 147 74 131 148 73 129 150 73 128 151 72 127 152 72 125 153 72 125 154 73 124 155 73 122 155 73 120 155 74 119 154 77 119 153 77 118 153 78 117 153 79 114 154 78 112 154 78 110 154 79 109 155 79 109 157 79 110 157 79 111 158 78 113 158 78 115 159 78 117 161 77 117 103 129 139 102 126 141 102 124 142 101 121 145 101 118 145 101 114 146 103 111 147 105 108 146 105 105 146 107 100 145 109 96 144 109 95 144 109 93 142 110 91 140 111 89 140 112 87 140 115 83 140 118 81 140 123 79 140 126 76 139 130 73 139 134 71 138 138 70 136 139 70 136 142 71 136 145 73 135 146 73 133 147 73 132 149 73 130 151 72 129 152 71 129 153 72 128 154 73 126 155 74 124 156 74 123 154 76 121 153 77 121 151 77 121 152 78 118 154 78 116 154 78 114 154 79 112 154 80 112 155 80 111 156 79 111 157 79 112 158 79 114 160 79 115 162 79 117 163 78 118 103 131 139 102 128 140 102 125 141 101 123 143 101 119 144 101 115 144 102 110 145 104 107 146 105 103 147 107 99 145 110 96 144 110 95 142 110 93 141 110 92 140 110 90 139 112 86 140 114 83 140 118 81 139 122 79 141 126 76 142 130 74 141 134 71 140 137 69 139 139 70 140 142 71 139 145 72 138 146 72 136 148 73 133 149 73 131 150 73 130 152 73 132 153 73 131 154 74 129 156 74 128 156 74 126 154 75 125 152 76 124 151 77 123 153 77 121 154 77 118 154 78 116 154 80 114 153 80 114 154 80 114 156 79 114 158 79 115 159 81 116 162 80 117 163 80 118 164 79 118 104 132 138 103 129 139 102 127 141 101 124 142 101 120 143 102 116 143 102 110 145 105 105 146 105 102 146 108 99 146 110 96 144 110 95 143 110 95 141 110 93 140 110 90 139 110 86 139 112 83 139 117 80 139 121 79 141 125 76 142 129 74 142 132 72 142 136 69 141 139 69 141 142 71 142 144 71 141 146 72 139 147 72 136 149 73 133 151 74 132 153 73 133 154 73 133 156 73 133 156 73 131 155 73 129 154 74 128 152 76 127 151 76 126 151 77 124 153 78 120 153 80 118 154 80 116 153 81 116 154 81 116 156 80 117 157 79 118 160 79 119 163 81 118 164 80 118 164 79 118 104 131 138 104 130 139 104 127 140 103 124 142 102 121 143 102 115 143 103 110 144 104 105 145 106 102 145 108 98 144 110 96 143 110 96 142 109 95 142 109 94 140 111 90 139 111 87 139 113 85 139 116 81 138 120 79 141 124 77 141 129 74 141 133 72 141 136 71 140 140 71 141 141 71 142 144 71 143 146 71 142 147 71 139 149 72 137 151 72 135 153 73 135 154 73 135 156 73 135 157 72 134 155 72 132 153 74 131 152 75 130 150 75 129 150 77 126 151 79 123 152 81 121 153 81 119 153 81 118 154 81 117 156 80 118 157 78 119 158 78 120 161 79 119 163 80 118 163 78 117 104 132 136 104 130 138 104 128 139 104 125 141 103 121 142 103 116 141 104 110 142 104 106 142 105 103 142 107 100 142 109 97 142 109 97 141 108 96 140 108 95 140 110 91 139 112 88 138 113 85 137 115 82 137 119 81 138 123 79 139 128 76 139 133 74 140 136 73 140 138 72 142 140 71 144 143 70 144 145 69 143 147 71 141 150 71 140 151 71 138 151 72 138 153 72 136 155 72 136 156 71 136 155 71 135 154 71 135 152 73 134 151 76 131 150 77 128 151 79 126 152 80 123 151 81 122 153 81 120 154 80 118 154 80 119 156 80 120 157 80 120 160 80 119 162 80 118 163 78 118 103 133 135 104 131 136 105 128 137 105 125 139 104 120 139 104 115 139 105 111 139 105 107 139 106 104 139 108 101 140 108 98 140 107 97 140 107 97 139 108 95 139 110 91 138 112 89 136 114 87 136 116 84 136 119 82 137 123 80 138 126 79 138 131 76 138 135 73 139 137 72 141 139 71 143 142 71 145 143 69 144 147 70 144 149 71 143 151 71 141 152 71 140 153 71 139 154 71 138 155 71 138 154 71 137 153 70 137 151 72 137 150 75 134 151 78 131 152 79 127 152 80 125 152 80 123 151 81 121 152 81 119 153 81 120 154 82 120 157 82 120 160 81 119 160 79 118 162 77 119 102 133 131 103 132 132 104 130 134 105 125 136 105 120 136 104 116 136 105 112 136 105 107 136 106 104 136 107 102 137 107 99 137 108 97 138 108 97 138 110 94 137 111 91 135 113 90 134 115 87 135 118 85 135 119 83 136 121 82 136 124 80 137 128 79 137 132 76 139 135 75 140 138 74 143 141 73 145 143 72 146 145 69 145 149 70 146 150 70 145 152 70 144 153 70 143 154 71 141 153 71 140 153 71 139 153 71 139 151 73 139 150 75 136 151 78 132 152 78 129 152 80 127 152 81 125 151 82 123 151 81 122 152 83 121 153 82 122 156 82 120 159 81 119 160 79 119 160 77 119 104 134 128 103 132 129 103 129 131 104 125 133 105 122 132 105 118 133 105 113 134 105 109 133 106 105 134 108 103 134 109 101 134 109 99 135 110 97 136 111 95 134 112 93 132 113 91 132 115 89 132 117 88 133 119 86 135 121 85 136 122 84 137 125 82 138 128 80 139 131 78 140 134 76 143 138 74 146 141 72 147 144 71 148 148 70 148 150 71 147 151 70 146 152 70 145 152 71 143 152 72 143 152 73 143 153 73 142 151 75 141 150 76 138 151 77 135 150 78 132 150 80 130 150 81 129 151 82 127 151 83 125 151 84 123 152 84 122 154 83 121 157 81 120 158 79 121 158 78 121 104 135 125 104 133 127 103 129 129 103 126 130 104 123 130 105 119 130 105 115 132 105 110 132 106 107 133 108 105 133 110 102 132 112 101 133 112 99 133 112 96 133 112 95 132 113 94 131 114 92 132 116 91 134 118 89 134 120 88 134 121 85 136 123 83 138 125 82 139 128 80 141 132 78 143 135 76 146 138 73 149 142 73 150 145 72 150 149 70 151 149 70 149 149 70 147 150 70 145 151 72 145 152 73 144 152 73 144 151 74 143 150 75 141 150 76 138 150 78 135 150 79 134 149 80 132 150 83 130 150 84 128 151 85 127 151 84 124 153 83 122 154 81 120 156 80 122 156 77 123 104 134 122 104 132 124 103 130 127 103 127 128 102 124 129 103 120 129 104 116 129 104 112 130 105 110 130 107 107 131 110 104 130 111 102 131 113 101 130 113 98 130 112 97 131 112 96 131 113 96 133 115 94 134 117 91 135 119 89 135 120 87 135 121 86 137 124 85 140 127 83 142 131 80 144 133 78 147 136 75 149 140 74 151 143 72 152 146 71 152 148 70 151 148 69 150 149 70 148 151 71 147 151 73 146 152 73 146 152 74 145 151 74 142 150 75 140 149 77 139 148 79 137 149 81 135 150 82 133 150 83 131 151 84 129 151 83 127 151 82 124 153 81 122 154 79 121 155 78 123 103 133 120 103 131 122 103 130 125 104 126 126 103 124 126 103 121 126 103 117 126 103 114 127 104 112 127 105 109 128 109 106 128 112 104 128 112 102 128 112 100 128 112 99 129 113 97 131 114 96 132 115 96 133 116 93 134 118 91 134 119 89 134 121 87 136 124 86 139 126 84 142 130 83 145 132 80 148 135 77 150 139 76 152 143 74 152 146 73 152 148 71 152 147 71 150 149 69 148 151 71 148 151 71 147 151 72 147 152 74 146 151 75 145 150 76 144 150 78 141 149 79 139 149 81 138 150 82 136 150 83 134 150 83 132 152 82 129 152 81 126 153 80 125 154 78 124 154 78 124 102 132 119 104 131 121 104 128 122 105 125 124 104 122 124 103 120 124 104 119 125 103 116 124 104 114 125 106 111 126 108 108 126 110 106 126 113 104 127 113 103 128 113 101 128 113 100 129 114 98 131 114 98 131 115 95 132 117 93 132 118 92 134 121 89 136 124 87 139 127 86 142 129 86 145 131 83 148 134 82 151 139 80 151 143 78 152 146 75 153 148 74 152 148 72 151 149 71 149 150 72 148 151 72 147 152 73 148 153 75 147 152 75 146 150 77 147 149 80 144 150 80 141 149 81 141 149 81 139 150 82 137 150 82 135 151 82 131 152 81 128 153 80 126 153 79 126 154 78 125 100 130 118 103 129 120 104 127 122 105 124 123 103 121 123 104 120 122 105 118 123 105 117 123 105 115 124 107 112 124 108 109 125 109 107 125 112 106 127 113 104 128 113 103 128 113 101 128 113 99 129 114 98 130 115 97 130 115 96 131 117 94 134 121 91 137 124 88 139 126 87 142 128 87 146 131 86 148 134 84 150 138 82 151 143 80 151 145 77 150 146 75 151 147 74 150 148 73 149 149 72 147 150 73 146 150 74 147 151 74 146 151 75 147 150 78 148 149 80 147 149 80 145 150 81 143 151 81 142 152 81 140 151 82 138 151 81 134 152 80 130 152 80 128 153 78 127 153 77 126 97 129 120 101 128 121 104 126 122 105 123 122 105 121 123 104 119 122 105 118 122 105 116 122 105 114 123 106 111 123 108 109 124 110 107 125 111 106 126 112 105 127 113 104 128 112 102 127 113 100 128 113 99 129 115 97 130 115 97 132 117 95 135 120 93 137 124 90 140 126 89 143 128 88 145 130 87 147 134 86 147 137 84 149 141 81 149 143 79 148 144 77 148 145 76 148 146 74 148 148 73 146 149 74 146 149 73 146 151 74 146 151 75 147 151 78 149 150 79 149 149 79 148 150 79 146 152 79 144 152 80 143 153 80 141 153 79 136 153 79 133 153 79 130 153 78 128 154 76 126 96 128 120 99 127 120 103 124 121 104 121 123 104 120 124 104 119 124 105 118 123 106 116 122 105 114 122 106 112 124 108 110 125 110 108 126 112 106 127 113 104 127 113 102 128 112 101 128 112 100 128 112 100 130 114 99 131 116 98 133 117 96 136 120 93 138 123 91 141 126 89 143 128 88 145 130 86 145 133 86 146 136 84 147 139 83 147 142 81 147 143 78 147 143 76 146 144 75 146 146 74 145 147 74 146 149 73 146 150 73 146 150 75 148 149 77 149 147 78 151 148 78 151 150 78 149 152 80 146 153 80 145 154 80 142 153 78 139 153 79 137 153 79 133 155 77 131 155 75 127 95 127 119 98 125 119 101 123 121 102 121 123 103 119 125 104 118 124 104 117 124 105 115 123 105 115 123 106 113 123 109 110 125 110 108 127 111 106 128 113 103 128 114 101 128 113 100 128 112 98 128 113 99 130 114 98 133 116 96 134 118 95 137 120 92 140 122 90 141 125 89 142 126 88 144 129 87 144 132 86 144 135 85 146 138 82 145 140 82 145 141 79 146 142 77 145 144 75 145 144 74 145 145 74 145 147 73 145 148 74 146 148 74 148 146 76 150 146 77 151 147 78 151 149 78 150 150 79 147 152 79 146 153 78 145 153 78 143 152 78 139 154 78 137 153 76 133 153 72 129 95 126 117 98 124 119 99 122 122 100 120 123 102 118 125 105 118 125 105 116 125 105 114 124 106 114 124 107 112 125 108 112 126 110 109 126 111 106 128 112 103 128 113 101 129 113 101 130 113 99 130 114 98 132 115 96 134 117 95 136 118 94 138 119 92 140 121 90 141 122 88 142 124 89 143 128 88 144 130 87 145 133 86 145 137 85 145 138 83 144 140 80 144 142 78 144 143 76 145 144 74 144 144 73 144 145 73 145 146 73 147 146 74 148 146 76 150 146 78 151 148 78 150 148 78 149 148 79 147 150 78 145 151 78 145 151 78 145 151 77 142 151 76 139 151 74 135 149 70 131 95 126 116 97 124 119 98 122 122 99 120 123 101 119 124 103 118 125 105 116 125 106 114 124 107 113 124 108 112 125 108 110 126 109 109 128 109 107 129 110 104 129 112 102 131 113 102 132 114 100 133 115 97 135 116 96 137 117 94 138 117 92 138 118 91 140 120 89 142 122 88 143 124 87 143 127 88 145 130 88 145 132 87 146 136 86 146 137 83 145 139 81 145 142 79 145 143 76 146 144 74 145 144 74 145 144 74 146 144 74 148 145 74 149 145 75 149 145 77 149 145 78 148 145 77 147 147 78 146 148 78 145 149 77 145 150 76 146 148 76 144 147 74 141 147 71 139 147 68 135 