P3
50 50
255
192 121 89 193 120 90 195 119 90 195 117 91 197 117 91 199 117 91 202 117 91 204 116 90 207 116 89 206 118 88 208 117 88 211 116 88 211 115 88 211 114 87 212 113 85 214 112 85 215 110 86 215 108 87 215 107 87 215 105 86 215 103 85 215 101 84 215 100 86 213 100 86 211 98 87 210 98 87 210 97 86 209 95 85 210 93 85 210 92 84 208 91 83 205 89 81 201 90 81 197 90 82 195 91 82 193 90 83 193 90 85 192 91 84 191 91 85 192 90 84 191 91 84 190 92 83 190 93 83 190 93 82 190 93 83 189 92 84 188 91 84 186 90 82 185 88 81 184 88 80 191 120 87 192 119 88 194 118 88 195 117 89 196 117 89 199 117 89 201 116 89 204 116 89 205 116 88 205 117 88 207 116 89 210 116 89 211 114 88 213 113 86 213 112 86 214 111 87 214 110 87 216 109 88 217 108 87 216 105 85 216 104 85 216 101 85 214 100 85 213 98 86 212 97 86 211 97 87 210 96 86 209 95 86 208 94 85 208 94 83 207 93 82 203 91 83 199 91 83 196 91 84 193 91 83 192 91 84 191 91 84 190 92 84 190 93 84 191 92 83 191 92 83 189 93 82 189 94 82 188 93 82 189 92 83 189 92 83 187 91 83 185 90 82 184 88 80 184 88 79 191 119 87 193 118 87 193 117 88 194 115 87 195 116 87 198 116 88 201 115 89 203 116 88 205 116 88 206 117 88 208 116 89 209 114 90 211 114 89 214 113 87 214 112 87 214 111 87 215 111 86 216 110 87 217 109 86 217 106 84 217 103 84 216 101 85 214 99 85 213 97 85 213 97 85 213 96 86 211 94 86 210 94 85 209 95 85 207 95 84 205 94 85 202 92 86 198 91 85 194 92 85 192 92 85 192 91 86 191 92 86 190 91 85 190 93 83 190 93 82 189 93 81 188 93 80 188 94 81 188 93 81 189 92 82 188 91 82 187 90 82 185 90 81 183 89 81 181 88 80 190 118 88 192 118 88 193 117 87 194 116 86 195 114 86 197 114 87 200 116 87 202 117 87 204 116 89 206 116 89 208 116 89 209 115 89 211 112 89 214 113 89 214 112 87 215 111 86 215 110 86 216 110 87 215 107 85 216 105 83 216 104 84 215 102 84 214 99 85 214 97 86 213 95 85 213 95 85 213 94 85 211 93 86 209 94 86 206 95 86 204 94 86 202 93 87 198 91 87 195 92 87 194 93 87 194 92 87 191 93 87 189 93 85 189 93 83 188 94 82 188 93 81 189 93 80 189 95 79 190 93 81 190 92 82 189 91 82 186 91 82 185 91 81 182 90 81 181 89 81 189 118 86 192 116 88 193 115 87 194 114 87 194 113 86 197 114 86 199 115 87 201 115 87 203 115 87 205 115 88 206 115 88 208 114 88 210 113 88 213 112 88 214 111 86 214 110 85 214 110 85 214 110 85 214 107 84 213 105 83 213 104 83 212 102 84 212 99 85 213 96 85 213 94 84 212 93 84 212 93 85 210 92 86 208 93 86 206 94 86 204 94 87 201 93 87 198 92 88 196 92 87 195 93 87 194 94 85 192 94 85 189 94 84 188 94 83 189 95 81 189 94 79 189 93 78 190 94 78 190 94 79 190 93 79 189 92 80 187 91 82 184 91 82 182 90 82 180 90 82 189 117 85 190 115 86 193 113 86 193 113 86 195 113 85 197 113 86 198 113 87 201 113 87 202 112 87 205 113 88 206 113 88 208 112 87 209 112 87 211 111 86 213 110 85 213 109 85 213 109 83 212 109 83 212 108 83 211 106 83 211 105 83 211 101 83 211 99 84 211 96 84 212 94 84 212 93 84 210 93 86 209 92 86 208 92 86 206 93 87 203 92 88 202 93 87 200 93 87 197 93 86 197 94 86 195 95 85 193 94 85 190 94 83 189 94 81 189 94 79 190 94 78 190 93 77 190 93 77 190 93 76 189 93 77 188 92 78 187 91 80 185 91 81 181 91 81 178 91 81 188 115 84 189 113 84 191 112 85 193 112 84 195 112 84 197 112 84 199 111 86 201 110 87 203 110 86 205 111 86 206 111 86 206 110 86 207 109 87 209 108 86 211 108 85 212 109 84 212 108 83 211 108 82 211 107 82 211 106 82 211 104 82 211 101 83 211 99 84 211 96 84 212 94 82 212 93 84 211 93 85 210 92 86 208 93 86 205 92 86 204 92 87 203 94 87 201 94 88 198 94 86 197 95 86 195 95 85 193 94 84 191 93 82 189 92 80 188 94 77 189 94 77 190 92 77 190 92 76 189 93 75 189 93 75 188 92 77 187 91 79 184 91 80 181 92 81 177 92 80 188 113 82 189 113 82 191 112 83 192 110 82 195 111 82 197 110 84 199 109 85 201 108 86 203 107 85 204 108 83 205 109 84 205 108 84 207 108 85 208 107 85 210 107 84 211 107 84 211 106 82 210 106 81 210 105 81 210 105 80 210 103 80 210 101 81 210 98 81 210 96 80 211 95 80 213 94 83 213 94 84 211 94 86 208 94 88 206 94 86 204 94 87 204 95 87 202 94 86 199 94 85 197 94 83 194 94 82 193 93 82 191 92 81 190 90 78 189 91 76 189 92 76 189 91 75 190 91 75 189 92 74 189 92 74 188 92 77 186 92 78 184 92 79 180 92 80 176 92 79 188 112 82 190 113 82 191 112 82 192 110 82 195 110 82 198 108 83 199 107 84 201 106 85 203 105 82 205 106 81 206 107 81 207 108 82 208 106 83 209 105 84 210 104 84 210 105 82 210 104 81 209 104 81 210 103 80 210 103 80 211 102 80 210 100 79 210 99 78 210 98 78 212 96 79 213 95 83 213 95 85 211 95 87 208 95 87 206 95 87 205 95 85 204 95 85 202 95 84 200 93 84 196 94 83 194 93 81 192 91 81 191 90 79 190 89 77 189 89 75 188 90 75 188 90 74 188 90 75 189 90 75 189 90 76 187 92 78 185 92 78 182 92 79 178 91 79 175 93 77 188 111 84 189 112 83 191 111 83 192 109 82 195 108 83 197 106 84 199 105 83 202 104 82 203 103 81 205 105 80 206 107 80 207 107 80 209 106 81 210 104 82 210 102 83 210 101 82 209 102 81 209 103 81 210 102 80 210 102 79 211 101 78 210 100 77 209 99 76 211 98 77 212 97 79 214 96 82 214 95 86 212 96 87 209 95 86 207 95 86 205 95 85 204 95 84 202 95 84 199 94 83 197 93 82 194 93 80 192 91 78 190 89 77 189 88 76 187 88 75 188 88 74 188 89 74 188 89 75 189 90 76 187 91 77 185 92 78 183 92 79 181 91 78 178 92 78 175 93 77 188 111 85 189 110 84 190 110 85 192 108 84 195 105 83 196 104 83 198 103 82 201 102 81 203 103 81 204 104 80 205 105 78 208 106 78 209 104 78 210 103 80 210 101 80 209 99 80 209 100 80 210 101 81 211 99 78 211 100 77 211 101 76 210 101 76 210 99 76 212 98 77 213 97 79 214 95 82 214 94 85 211 96 86 210 95 87 208 95 85 205 95 84 202 95 84 201 95 84 199 93 82 196 93 81 194 92 79 192 91 77 190 89 75 188 87 75 186 87 74 187 87 74 188 88 74 188 88 75 188 89 77 187 90 79 185 92 78 182 92 77 180 91 77 177 91 77 175 93 77 188 110 86 188 110 85 188 107 85 191 105 83 193 103 82 195 101 81 196 101 79 199 101 79 201 101 79 203 102 78 204 104 77 205 104 77 208 102 77 209 101 78 209 101 79 209 99 78 210 98 79 211 98 79 211 98 78 210 98 76 211 99 75 211 99 74 211 98 76 212 96 77 213 95 80 213 94 82 213 93 85 211 94 86 209 94 87 207 94 87 204 95 87 202 94 87 202 93 85 199 92 83 197 92 80 194 92 80 192 91 79 190 88 77 188 87 77 187 86 76 187 86 75 187 86 75 188 87 76 187 88 79 187 89 79 184 90 79 182 91 78 179 91 77 177 91 76 176 91 76 187 109 86 188 107 85 188 105 83 190 103 82 192 101 81 195 99 80 197 100 78 198 99 77 200 99 77 202 100 76 203 101 75 204 101 75 206 100 77 207 100 77 208 99 77 209 98 78 209 96 78 210 96 77 210 96 76 209 96 74 210 97 73 210 98 73 211 96 75 211 94 77 212 94 79 212 93 82 212 92 84 211 92 85 208 92 86 206 92 87 203 92 88 201 93 87 199 92 87 198 91 85 197 91 83 195 91 82 193 90 81 191 87 78 190 85 79 189 85 78 188 85 78 188 85 78 187 85 78 187 86 80 186 87 80 185 88 79 182 90 79 179 90 78 177 90 77 176 91 77 186 108 84 188 106 82 188 104 81 189 101 80 191 100 79 194 100 78 196 100 77 199 99 76 200 99 76 201 99 75 203 99 74 203 100 74 205 99 74 206 98 74 207 97 76 207 95 77 208 95 77 208 95 76 209 95 74 208 94 73 208 95 73 209 96 75 210 95 76 212 94 77 212 93 79 212 92 81 212 91 81 210 91 83 207 92 84 205 92 85 202 91 87 199 90 87 198 90 87 198 90 85 197 91 84 195 90 84 193 90 83 192 88 82 192 85 80 191 84 80 190 84 78 189 83 78 188 83 80 188 84 81 186 86 81 185 87 80 183 89 79 180 89 79 177 90 78 175 91 78 186 107 81 187 106 79 187 104 77 188 102 77 191 101 76 193 101 76 195 100 76 197 98 75 199 98 75 201 98 74 202 98 73 203 98 72 204 98 72 205 97 73 206 96 74 207 94 76 207 94 75 207 94 76 207 94 75 208 94 74 207 94 75 208 94 76 208 94 77 211 93 78 211 92 79 211 92 80 210 90 80 209 91 81 206 90 82 204 90 83 201 89 85 199 90 87 199 90 87 199 89 85 198 89 85 196 90 84 195 90 84 193 88 83 193 86 81 192 84 81 192 83 79 190 83 78 190 82 80 190 83 80 189 84 80 187 85 80 184 86 79 180 88 79 177 89 78 175 91 77 186 105 79 186 105 77 187 104 75 188 103 75 191 101 74 193 100 75 195 99 75 196 98 75 198 98 75 199 97 74 201 96 72 203 96 70 204 97 70 206 96 72 207 95 72 208 94 73 207 95 74 207 95 75 207 94 76 207 94 76 207 95 76 206 93 77 209 92 79 210 91 78 210 91 79 209 91 80 209 90 81 207 90 82 205 89 82 203 88 83 202 88 85 201 88 86 200 88 87 200 87 86 198 88 86 198 88 86 197 88 85 196 87 84 194 85 81 193 83 80 193 82 80 192 81 79 191 82 80 190 83 81 189 84 80 188 84 80 185 84 79 182 85 78 179 87 78 176 90 76 186 105 77 187 104 75 187 104 74 189 104 74 191 103 74 192 100 73 195 99 73 196 99 74 197 98 74 199 97 72 201 96 70 203 95 69 206 96 70 207 96 70 208 95 70 208 93 70 208 94 71 207 95 73 208 94 75 207 96 76 207 96 77 207 94 77 208 92 79 209 90 80 209 90 81 207 89 81 206 90 83 206 90 83 204 89 83 202 87 82 203 86 84 202 86 85 202 87 86 201 86 87 201 87 87 200 85 87 200 85 86 198 85 83 196 85 81 195 85 80 195 83 80 194 82 80 192 82 80 191 82 81 190 83 80 188 82 80 186 82 79 184 83 77 180 85 76 177 89 76 186 105 74 187 104 72 187 104 71 188 104 71 190 104 71 192 102 72 194 100 73 196 99 73 198 99 71 199 98 69 201 97 69 204 95 69 207 94 69 208 94 69 208 94 69 208 93 69 209 92 69 208 94 71 208 95 73 208 95 75 208 96 76 208 94 78 208 92 79 208 91 81 207 90 82 206 90 83 205 89 84 205 89 85 204 88 85 203 86 85 203 85 84 204 85 85 203 84 85 203 84 86 203 84 87 202 83 86 201 82 85 199 83 82 197 82 82 196 83 82 196 83 82 194 81 82 193 80 82 193 80 82 191 81 81 189 81 80 187 81 80 185 82 78 183 84 77 179 87 76 188 104 72 187 104 71 188 104 71 190 104 70 192 103 71 194 101 72 195 99 72 196 99 72 198 98 70 201 97 69 203 95 68 205 94 69 207 93 69 208 93 68 208 94 68 208 94 68 209 93 66 208 93 69 209 93 71 210 94 73 209 94 75 210 93 76 209 92 78 208 90 81 207 90 82 205 90 83 205 89 84 204 87 85 205 86 86 204 84 86 204 83 85 206 83 85 205 82 85 204 82 86 205 82 85 204 82 85 203 81 83 201 81 83 199 81 84 198 82 83 197 83 83 195 81 84 194 80 83 193 79 82 191 80 81 190 79 81 188 81 80 187 82 78 184 83 77 180 85 78 189 104 72 190 103 72 191 103 71 193 102 72 195 101 71 197 100 71 198 100 71 199 100 71 200 98 71 202 95 71 204 94 69 206 94 69 207 95 69 208 94 68 208 93 67 209 93 67 208 92 67 208 91 67 208 91 69 209 92 72 209 93 72 210 92 75 209 91 77 207 90 80 206 90 82 205 89 83 205 87 85 205 86 86 205 84 86 205 83 86 207 82 85 207 81 84 206 81 85 207 81 84 207 82 83 206 82 81 204 81 82 203 79 82 200 80 83 199 81 83 198 82 83 196 80 83 195 80 82 194 79 82 192 78 82 191 79 81 189 80 80 188 81 78 185 82 79 182 83 79 191 102 71 193 102 71 194 101 71 195 100 72 197 98 72 199 98 71 200 99 70 201 99 70 202 98 71 203 95 71 205 94 70 206 95 69 207 94 69 208 94 68 209 93 68 210 92 67 209 92 67 208 91 66 208 91 69 208 92 71 207 91 73 208 91 74 208 91 77 206 91 79 206 89 80 206 88 83 206 87 84 206 85 86 206 84 85 207 82 84 207 81 83 207 81 83 208 81 83 208 81 83 208 83 81 206 83 81 204 81 81 202 80 82 201 80 83 199 81 84 198 80 83 198 79 82 196 79 82 194 79 83 193 78 82 192 79 80 190 80 80 188 80 80 186 81 80 184 82 79 193 98 71 195 98 71 197 98 71 198 97 72 200 96 72 201 96 70 201 98 71 200 98 72 201 98 71 202 95 71 203 93 70 205 94 69 207 94 69 208 94 68 208 94 67 209 93 67 208 92 66 208 91 66 207 91 68 207 92 71 207 92 72 207 92 73 207 90 76 206 90 79 205 90 80 205 89 83 205 89 84 207 87 85 207 85 84 207 83 84 207 81 84 207 81 83 208 82 83 209 83 82 208 83 82 207 83 82 205 82 82 203 82 83 202 81 83 200 81 83 198 79 83 197 79 82 197 79 81 195 79 81 194 80 80 193 79 80 191 80 80 190 80 80 187 80 80 185 82 79 196 97 71 197 96 71 199 96 72 201 95 72 201 95 72 201 95 72 201 96 72 201 97 73 201 97 73 201 96 72 202 95 71 203 95 69 205 94 68 206 95 68 207 95 67 206 94 66 206 93 66 207 92 67 207 92 69 206 92 70 206 93 72 206 92 73 206 91 76 205 90 78 205 91 80 205 90 83 205 88 84 207 87 83 206 85 84 207 84 84 208 82 84 209 81 83 208 82 83 208 82 83 207 83 83 207 83 83 206 83 82 203 82 83 202 81 83 199 81 82 197 80 82 196 80 81 195 80 81 196 79 81 194 80 79 194 80 80 192 80 80 190 79 80 187 79 80 185 80 80 197 96 73 198 95 72 199 94 72 201 94 72 201 95 73 201 95 73 202 96 73 202 97 73 202 96 73 201 96 72 202 96 71 202 96 69 204 95 67 203 96 66 203 97 66 204 96 66 204 95 66 205 93 66 205 93 68 205 94 69 205 93 71 206 92 74 206 91 76 206 92 78 205 93 80 205 91 82 205 89 84 206 86 84 206 85 84 206 84 84 207 83 83 208 81 83 207 81 83 206 82 83 206 81 84 206 82 83 206 82 83 203 81 83 201 81 83 199 81 82 197 80 81 195 80 81 195 79 81 195 78 81 194 79 79 193 79 80 190 78 79 188 77 79 186 79 81 184 80 82 197 95 74 199 94 72 200 94 72 201 94 74 201 94 75 202 95 75 203 96 74 204 96 74 203 96 74 202 96 73 202 96 70 203 96 68 203 96 66 203 97 65 202 98 64 202 98 65 202 97 65 202 96 66 203 94 67 204 94 68 205 94 71 206 94 74 207 94 76 206 94 78 206 94 80 206 92 82 207 89 84 207 87 85 206 85 84 206 85 84 207 84 83 207 82 83 205 82 83 205 81 83 205 80 83 205 81 82 204 81 82 203 80 82 202 80 82 199 80 82 196 80 81 193 79 82 193 78 81 193 78 80 192 78 79 192 78 80 190 77 79 188 77 80 186 79 82 184 81 82 198 94 74 200 93 73 200 94 74 200 95 75 201 94 76 203 95 76 204 96 76 204 96 75 203 96 73 203 97 71 203 97 68 203 97 66 203 98 65 202 99 64 203 100 65 202 100 65 202 98 65 202 97 65 203 96 66 204 96 68 206 95 70 207 96 72 208 95 75 207 95 78 206 94 80 206 93 82 208 91 84 208 88 83 208 86 82 207 86 82 206 84 83 206 83 82 205 83 81 205 82 82 204 81 83 204 82 82 202 82 81 202 81 82 201 80 81 198 79 81 195 78 82 193 77 82 192 78 81 193 78 81 193 77 80 192 77 80 191 78 80 188 78 81 186 80 82 184 80 82 199 95 75 200 95 74 200 96 76 200 96 77 201 95 77 203 94 76 204 96 76 204 97 75 204 99 72 205 99 69 205 98 67 204 99 66 203 99 65 202 99 65 202 101 66 202 101 65 201 101 66 202 99 66 202 98 67 203 97 68 206 97 70 207 98 72 208 97 74 207 96 77 207 95 79 208 94 81 209 92 83 209 90 81 208 88 80 207 85 81 205 83 82 205 83 82 205 84 81 205 84 81 203 83 82 203 82 83 201 83 83 200 83 83 199 81 83 198 80 82 195 79 83 192 79 83 192 78 82 194 78 82 194 78 81 191 80 80 189 81 80 187 81 80 186 81 82 185 80 82 197 95 76 199 96 76 200 97 76 199 97 77 200 97 78 202 96 78 203 96 76 204 97 75 204 99 72 205 100 69 205 102 67 204 101 66 204 101 66 203 100 65 201 101 66 201 102 66 200 102 67 201 101 68 202 101 69 204 100 70 207 99 72 208 100 74 208 99 76 207 98 78 209 96 79 210 95 80 210 94 80 210 93 79 209 89 79 206 87 80 205 85 82 205 85 82 205 85 82 204 86 81 203 85 82 202 84 82 202 83 83 200 83 84 199 81 85 197 80 85 196 81 85 194 80 85 193 79 84 195 80 83 193 80 82 192 81 81 188 82 80 187 82 81 185 81 81 183 81 80 197 95 78 198 96 78 199 97 78 200 97 78 201 96 78 202 96 78 204 96 76 205 97 75 205 100 73 205 102 71 205 103 69 205 102 67 204 101 66 202 102 67 201 102 67 201 102 68 200 102 71 201 101 71 203 101 71 205 101 72 207 100 75 208 100 76 208 99 78 208 97 79 209 96 79 209 97 80 209 96 79 208 93 79 208 89 79 207 88 80 206 86 81 205 87 82 204 86 82 204 86 82 202 86 82 201 85 82 200 85 82 200 84 84 198 82 86 196 80 85 195 81 86 194 80 86 194 80 85 194 80 84 193 81 83 191 81 82 188 82 82 186 83 81 183 83 80 180 82 79 198 95 81 199 96 81 200 97 82 201 96 80 202 95 79 203 96 78 204 96 77 205 98 76 205 100 75 205 103 73 206 104 71 205 104 69 203 104 68 201 104 68 200 103 69 200 102 71 200 102 73 202 102 73 204 102 74 205 101 75 207 101 77 207 99 79 207 99 80 208 97 81 208 97 80 208 98 80 209 97 80 209 95 81 208 92 80 207 89 82 205 88 83 203 88 83 203 87 83 202 87 83 200 87 83 199 87 82 198 86 83 197 85 84 198 84 86 196 82 86 194 82 86 193 81 86 193 80 86 193 80 85 192 81 84 190 81 83 187 82 81 184 84 80 180 84 79 178 83 79 199 96 85 201 96 83 201 97 82 200 97 81 201 96 81 202 96 80 203 98 78 204 100 77 204 101 76 204 103 75 205 104 73 204 105 73 202 105 72 202 104 71 201 104 73 200 104 74 201 104 75 202 103 75 203 102 77 204 101 79 206 100 80 207 100 82 206 99 83 207 98 82 208 98 81 208 99 82 209 98 83 210 96 82 210 93 82 207 91 83 206 90 83 203 90 84 202 88 85 200 87 85 199 87 84 198 87 84 197 86 84 196 85 85 196 85 86 196 84 87 194 84 86 194 83 86 193 82 86 192 81 86 191 82 85 190 82 83 188 82 82 184 83 80 180 83 79 177 83 79 200 98 87 201 98 85 201 98 83 201 98 82 201 97 80 202 98 79 202 100 79 202 102 78 204 102 77 204 103 77 204 105 76 202 106 75 202 105 76 201 105 75 202 103 76 201 104 76 201 105 76 201 103 77 201 102 80 203 100 81 205 99 81 206 99 83 207 98 83 207 98 82 208 98 83 208 98 84 208 97 84 209 96 83 209 95 83 208 93 83 207 92 84 204 90 85 202 90 86 201 89 86 198 89 85 197 88 86 195 87 85 194 87 86 193 87 86 193 87 86 193 86 87 192 86 86 191 85 85 189 85 85 189 84 84 189 83 83 187 83 82 184 84 80 180 85 79 177 84 78 201 99 89 202 100 87 203 100 85 203 100 83 203 99 81 202 101 79 201 102 78 202 103 78 203 104 78 203 105 78 203 106 79 201 108 78 202 107 77 202 106 77 202 105 78 202 104 77 202 104 78 203 104 79 202 102 82 202 100 82 203 100 83 205 100 83 206 99 83 207 98 83 208 98 84 208 97 84 208 97 84 207 96 83 207 95 84 206 94 84 205 92 85 203 90 86 201 89 87 200 89 88 198 89 87 195 90 86 194 89 86 193 89 86 193 89 86 192 88 85 191 88 86 190 88 85 188 88 84 188 88 83 188 86 83 189 85 82 187 86 81 184 87 80 180 86 80 177 86 79 203 100 91 203 101 88 204 100 87 204 101 84 203 102 83 202 103 80 202 103 80 203 104 79 204 106 80 203 106 80 203 107 81 202 109 80 202 108 78 203 107 78 204 106 79 204 105 77 204 105 78 203 104 80 203 103 81 202 102 82 203 101 84 204 101 84 206 100 82 207 99 83 207 98 82 208 97 83 207 98 84 206 97 83 205 96 84 205 94 85 205 91 86 202 89 87 199 87 88 198 88 88 196 88 88 195 89 87 193 90 87 192 90 87 192 90 86 191 90 85 190 90 85 188 90 86 186 91 85 187 91 83 187 89 84 187 88 83 185 88 81 183 89 81 181 89 81 177 88 80 203 102 92 204 102 90 204 102 88 205 103 85 204 103 84 203 103 83 202 103 82 203 105 81 204 107 81 204 108 82 204 109 82 203 110 82 203 109 81 204 107 79 205 107 79 204 107 78 204 106 77 203 105 79 202 104 80 201 103 83 202 102 84 204 101 85 205 99 84 207 99 83 208 97 83 208 97 82 205 97 83 204 98 83 203 96 84 204 93 85 204 90 86 202 89 87 200 88 87 198 88 86 196 88 87 195 90 87 193 91 87 191 92 87 189 91 87 189 91 85 188 92 85 186 93 85 185 93 84 185 93 82 184 91 83 184 90 82 184 90 81 181 92 80 180 91 81 178 90 80 203 104 93 203 104 91 204 105 89 205 106 87 205 105 86 204 105 86 202 105 85 203 106 85 204 107 84 206 108 85 206 109 84 206 109 83 206 109 82 205 108 81 204 107 80 205 107 78 205 106 78 204 105 79 203 104 80 202 103 82 202 101 83 203 99 85 204 99 84 206 98 83 207 97 83 207 97 82 204 97 83 203 98 83 204 97 84 204 93 85 202 91 85 202 89 86 200 89 87 198 89 86 195 89 86 195 91 87 193 91 87 190 93 88 188 92 87 187 92 86 185 93 85 184 94 84 184 93 83 183 93 82 183 92 81 182 92 80 181 91 80 180 93 78 178 93 78 176 92 78 202 106 94 204 106 94 204 107 92 204 107 90 205 107 89 204 106 88 203 106 88 203 107 87 206 108 86 207 109 88 209 108 88 209 109 86 208 108 85 207 108 84 207 108 82 206 108 81 206 107 80 204 105 80 203 104 80 203 103 82 203 100 83 204 99 83 203 98 83 205 98 83 207 98 82 206 97 82 205 97 83 204 98 84 204 95 84 204 93 84 202 90 85 201 90 85 199 90 86 197 90 86 196 90 85 195 91 86 192 92 86 190 93 87 187 93 87 186 92 86 184 93 84 182 93 84 183 93 83 182 92 82 181 92 80 180 92 78 179 93 77 177 94 75 176 93 75 175 94 75 203 107 95 204 107 96 204 107 94 204 108 93 203 107 92 203 105 91 203 106 91 203 107 91 206 108 90 208 109 91 210 108 91 210 108 89 209 107 88 209 108 86 209 108 84 208 108 84 207 107 83 206 106 83 205 104 82 204 103 82 204 101 83 203 99 83 204 100 82 206 99 81 206 99 82 206 98 82 205 97 83 205 96 82 203 94 83 203 92 84 202 92 85 200 92 85 198 90 85 196 89 85 195 89 85 193 90 85 192 91 86 189 90 87 186 91 86 185 91 84 183 93 83 180 93 82 181 92 82 182 92 82 181 92 80 180 92 77 178 94 76 176 94 74 174 94 73 174 94 74 204 108 97 204 109 98 204 109 97 204 109 95 204 108 94 202 106 95 203 107 95 203 107 95 205 108 94 207 109 94 209 108 94 211 107 93 211 107 91 210 107 89 210 106 87 209 108 86 209 107 86 207 106 84 207 105 84 205 104 83 204 102 83 204 102 83 206 101 83 207 100 82 207 99 82 206 99 82 204 98 82 204 97 82 202 95 83 201 93 84 200 93 84 199 92 85 198 92 84 196 91 84 194 90 85 192 90 85 190 89 85 187 89 85 185 89 84 182 91 83 180 93 82 178 94 82 178 93 81 180 93 79 181 92 78 179 92 77 177 94 76 176 95 74 174 94 73 173 94 72 204 110 99 204 110 100 204 109 100 204 108 99 204 108 98 203 109 98 203 109 98 204 110 97 205 109 97 207 110 97 208 109 97 210 108 96 212 107 93 211 107 92 211 106 90 210 107 89 210 107 88 209 106 88 207 105 86 206 103 85 205 103 84 206 103 84 207 103 83 208 102 84 208 101 84 205 100 83 204 98 82 203 96 82 201 96 82 200 94 83 200 93 83 199 92 83 197 92 84 195 91 85 193 90 84 191 89 84 189 88 85 186 89 84 184 89 83 181 92 82 179 95 82 176 95 81 176 94 80 179 94 79 179 92 78 179 92 77 177 93 76 176 94 75 176 93 74 174 93 73 205 111 101 203 111 102 202 110 102 202 109 102 202 110 101 202 111 101 204 111 101 206 112 100 207 111 100 207 111 100 209 110 100 210 108 98 211 107 96 211 107 95 211 107 93 211 106 92 210 108 91 210 107 90 208 105 89 206 104 87 206 105 87 207 105 86 207 105 86 207 104 86 206 102 85 204 101 83 203 98 83 201 97 82 199 97 82 198 95 83 198 94 83 198 94 83 195 92 85 193 90 85 191 89 84 188 89 84 186 88 84 184 89 83 182 90 82 180 92 82 178 95 81 175 95 81 175 94 80 176 93 79 178 92 78 177 91 77 177 91 76 176 93 76 175 91 75 175 91 73 205 112 102 204 111 103 203 111 104 201 110 104 201 111 103 202 112 104 204 112 104 206 112 103 207 112 103 208 111 103 209 109 102 210 108 101 211 107 100 212 107 99 212 107 96 212 107 94 211 108 92 210 108 91 209 107 89 208 105 88 206 104 88 206 105 87 205 106 86 205 105 86 204 103 85 203 102 84 202 100 83 199 99 82 197 98 83 195 96 84 196 96 84 195 94 83 193 93 85 191 90 85 188 88 84 185 89 83 183 89 83 182 90 83 181 90 82 178 93 80 177 93 80 174 93 79 174 92 79 175 90 78 177 91 78 177 90 78 176 90 77 176 91 76 176 90 77 174 90 75 204 113 103 205 111 103 202 111 104 201 111 105 202 111 106 202 112 107 204 112 106 205 111 106 207 111 105 208 109 104 209 108 104 210 108 102 211 108 102 212 109 101 212 107 98 213 108 96 212 108 94 210 108 92 209 106 90 208 105 89 206 105 88 204 105 88 204 106 87 203 106 87 203 105 85 202 103 84 201 101 84 198 99 83 196 98 84 195 96 84 196 96 83 194 95 84 191 93 84 189 91 85 186 89 84 183 89 83 183 90 84 182 90 83 180 91 82 177 91 80 175 91 78 175 90 80 174 88 79 174 88 78 176 89 77 177 90 78 177 89 77 177 89 77 176 88 77 174 90 76 204 113 104 205 113 103 204 113 103 204 113 105 204 113 106 203 112 107 203 110 106 204 111 106 207 110 106 207 110 106 210 109 105 211 108 103 211 109 103 212 109 102 212 108 100 212 109 98 212 109 96 209 108 94 209 106 93 208 106 91 207 106 89 204 106 89 202 107 89 202 107 87 203 105 86 203 104 85 201 103 85 197 100 84 195 98 85 194 97 85 194 96 85 192 95 86 190 93 86 187 90 84 185 89 83 183 90 83 182 91 83 181 92 81 178 92 82 176 91 80 174 90 79 173 88 79 174 87 80 175 86 78 176 87 78 177 88 78 178 89 79 177 88 78 176 88 77 175 89 76 204 112 104 205 112 103 205 113 104 206 113 105 205 113 106 204 112 107 203 111 106 205 110 107 206 110 107 207 110 106 209 110 106 210 110 105 210 110 104 211 110 102 213 109 101 212 109 98 212 108 97 211 108 95 210 107 94 207 107 93 206 107 91 204 106 89 202 107 88 201 107 88 201 105 87 201 104 86 199 102 86 197 101 87 195 98 87 193 98 87 192 97 87 191 95 87 189 93 86 186 91 84 185 90 84 184 90 84 182 91 83 180 92 81 178 91 81 175 90 80 174 88 79 173 88 79 173 86 80 174 85 79 175 86 80 176 87 80 178 88 79 178 88 79 176 89 78 174 89 77 204 110 105 206 111 104 206 113 105 206 113 105 205 112 106 205 111 106 204 110 107 206 109 107 208 109 108 208 110 108 208 110 107 209 111 106 209 111 105 211 109 103 212 109 101 213 109 98 212 107 97 211 107 96 210 108 94 208 107 93 205 107 92 203 107 90 201 107 88 199 106 89 199 105 88 198 103 87 197 102 88 195 99 89 193 99 89 191 98 88 189 97 87 189 95 87 187 92 86 186 91 85 184 91 84 183 91 84 181 91 83 179 91 81 177 90 81 175 89 80 174 88 80 173 87 79 173 86 81 174 85 81 174 86 79 176 85 79 177 86 79 176 87 79 174 88 79 173 88 79 203 109 106 205 110 105 205 111 105 206 112 104 206 111 105 204 110 107 204 109 107 206 109 108 208 109 109 208 109 108 208 109 108 208 110 108 208 110 106 210 109 105 211 110 102 212 110 100 212 107 99 212 106 96 210 106 95 208 107 93 205 108 93 203 108 92 201 107 91 197 105 90 196 104 90 195 102 90 195 100 90 193 99 90 190 99 90 187 98 90 187 97 89 186 95 88 186 92 86 185 91 86 183 90 84 182 91 84 179 90 83 178 89 83 176 88 82 175 88 81 174 87 80 174 87 80 173 86 81 175 84 81 175 84 81 176 85 80 176 86 80 175 86 82 174 87 82 173 87 82 201 109 107 203 109 107 204 108 107 205 109 107 204 109 107 205 108 108 205 108 109 207 108 110 207 108 110 208 108 109 208 109 110 208 109 109 208 110 107 209 110 105 209 109 102 210 109 101 211 107 99 209 105 98 207 105 96 206 106 94 204 107 93 201 107 92 199 105 92 195 104 91 193 102 91 193 101 92 192 100 92 191 99 91 188 99 91 185 98 91 184 96 90 184 94 89 185 92 87 184 91 86 181 90 86 179 91 86 178 89 84 176 88 85 175 87 85 175 86 83 174 86 82 174 85 82 173 85 82 174 84 83 175 83 83 174 85 83 173 87 83 172 86 84 173 86 84 173 86 85 201 109 108 202 107 110 203 106 111 205 106 110 205 107 110 205 106 109 206 106 110 206 107 111 206 106 111 207 107 111 208 107 111 208 108 109 208 109 108 208 109 106 208 109 103 208 109 100 208 106 99 206 105 98 205 104 97 203 104 95 201 105 94 199 105 94 196 104 92 194 103 92 192 101 92 191 99 92 190 99 93 189 98 93 186 98 92 184 98 92 182 95 92 182 94 90 182 92 89 182 91 88 180 91 87 178 90 86 177 89 86 175 88 86 175 87 87 175 86 87 174 84 86 174 83 85 174 84 85 174 84 85 174 84 85 173 84 86 172 85 85 171 85 85 172 84 86 172 84 87 200 106 111 201 106 112 202 104 112 204 104 111 206 105 111 206 105 111 205 104 112 205 104 112 206 104 112 206 105 112 208 106 111 208 106 110 207 107 109 207 107 106 205 107 105 205 106 102 204 105 99 202 103 99 202 103 98 201 103 96 199 104 94 197 104 93 194 104 93 191 103 93 190 101 93 189 99 93 189 98 93 188 98 94 185 97 94 182 96 94 181 94 95 181 92 93 180 91 93 179 90 91 178 91 89 178 90 88 177 88 88 176 86 88 175 85 88 175 85 89 174 83 89 173 83 88 173 83 87 174 82 88 174 84 87 173 84 88 171 84 88 171 84 88 170 84 88 171 83 87 