P3
50 50
255
94 152 91 93 153 88 90 154 86 88 154 85 87 157 85 87 160 84 84 163 82 83 164 80 83 166 79 83 166 77 82 168 76 82 169 74 81 170 72 81 170 72 82 170 73 83 171 74 84 172 75 84 174 77 85 175 78 85 178 79 86 180 82 88 182 85 91 182 88 94 182 90 94 182 90 94 181 89 95 181 90 95 181 91 96 182 93 95 182 93 95 182 91 96 180 90 96 180 89 96 178 91 96 177 93 98 178 94 98 179 95 99 179 97 102 180 100 106 180 102 110 179 104 111 177 106 112 175 109 113 172 109 115 172 109 116 172 109 117 171 110 118 169 111 120 165 111 121 164 111 94 148 90 92 149 87 89 151 84 88 152 82 87 156 81 87 159 81 85 162 79 83 164 78 82 165 77 82 167 74 83 168 72 82 168 71 82 168 70 83 168 70 83 169 70 83 170 71 84 172 72 84 173 73 85 175 76 86 176 76 86 179 79 88 181 83 91 183 86 92 183 88 94 183 87 94 182 87 95 182 88 95 182 89 95 181 89 96 182 89 95 182 87 95 180 88 96 179 89 96 178 91 96 179 91 97 180 92 99 181 92 100 180 95 104 180 97 108 180 99 111 178 101 112 176 104 113 174 107 114 171 107 116 170 108 116 171 109 118 170 110 119 168 112 121 166 112 121 165 111 93 145 86 91 147 84 89 149 81 88 150 79 87 153 78 87 156 77 86 159 76 84 162 74 83 165 73 82 166 71 81 167 70 82 166 68 83 166 67 84 167 67 84 168 67 86 168 68 86 172 69 85 174 70 86 175 72 86 177 74 87 178 76 89 180 80 91 181 83 91 183 85 92 183 85 93 182 84 95 182 85 96 182 86 96 181 85 96 181 85 96 182 84 97 181 85 97 179 87 97 179 89 98 180 89 98 182 91 100 183 93 102 182 94 106 182 96 110 179 97 112 176 98 113 173 100 115 172 103 116 170 105 117 168 107 118 169 108 119 168 110 119 167 111 121 166 112 121 164 112 93 144 82 92 146 80 90 147 78 89 149 76 89 152 75 89 155 74 86 159 73 85 161 72 84 165 71 83 166 70 82 165 69 82 165 67 83 164 65 84 165 65 84 166 65 85 167 65 86 169 66 86 172 67 86 174 68 86 177 71 87 177 74 88 177 77 90 179 78 90 181 80 91 181 81 93 181 81 95 181 81 96 181 82 97 180 82 98 180 81 97 181 82 97 181 84 99 180 86 99 180 87 99 181 89 100 183 91 102 183 93 104 183 94 107 181 96 111 178 97 114 176 97 115 173 99 117 171 101 118 169 103 120 167 106 120 167 108 121 166 110 122 165 112 122 165 113 123 164 113 96 144 79 95 144 77 92 146 76 92 148 74 91 151 73 89 154 72 88 157 73 87 160 73 86 163 71 85 164 70 83 164 69 82 164 68 84 164 66 85 163 64 84 164 63 84 166 62 86 168 63 86 170 65 87 173 66 87 175 67 88 176 70 88 176 73 89 177 74 91 178 75 92 179 76 93 180 77 95 181 79 97 181 80 98 181 80 98 181 79 97 181 81 98 182 83 99 181 84 100 181 86 101 182 89 103 183 90 105 184 92 107 183 93 110 180 95 112 177 96 115 175 97 118 173 98 119 171 101 120 169 103 121 167 106 122 166 108 123 165 110 124 165 112 124 165 113 125 164 112 99 143 76 97 144 75 95 145 74 93 147 73 92 151 73 91 154 73 90 157 73 89 159 73 88 161 71 87 163 70 85 163 68 84 162 66 84 162 65 85 163 63 85 163 61 85 165 59 85 167 60 86 169 61 86 171 64 87 173 65 88 174 68 88 174 70 89 175 71 90 177 71 92 177 72 94 179 74 97 180 77 99 180 79 99 181 80 99 181 80 99 181 80 99 181 81 100 181 84 102 182 86 104 183 89 105 183 91 106 182 92 109 180 93 112 178 94 115 175 96 117 173 97 119 171 98 121 169 100 122 168 103 123 167 104 124 166 107 125 165 110 125 164 112 125 164 113 126 163 112 101 142 75 98 143 75 96 144 74 94 147 73 94 150 74 93 154 74 92 157 74 91 159 72 90 160 70 88 162 69 86 162 67 86 162 66 85 162 64 84 163 63 84 163 60 85 164 58 83 165 58 84 166 59 85 169 61 87 171 64 87 172 66 88 174 67 88 175 68 90 176 68 92 176 68 94 177 70 96 178 74 99 178 76 101 180 78 101 180 79 101 179 79 101 179 81 102 180 83 103 180 85 105 180 88 106 181 90 107 181 93 109 178 93 114 176 94 116 173 95 118 171 97 121 169 99 122 166 101 124 166 102 126 165 103 127 164 105 127 163 108 127 163 111 127 164 112 127 162 112 101 142 74 99 143 75 97 144 75 96 147 75 96 150 75 95 153 74 94 154 72 94 157 71 93 158 70 90 160 69 88 161 67 87 161 66 87 163 64 85 164 62 85 165 60 85 166 60 85 165 59 84 166 59 85 168 61 87 170 62 87 172 63 88 174 64 90 175 64 91 175 65 93 176 66 94 176 67 96 176 71 99 176 74 101 178 77 101 178 78 104 179 79 104 179 80 103 179 82 104 178 84 105 179 87 107 179 90 109 178 93 111 176 93 114 175 94 117 173 96 119 170 98 122 167 99 123 166 100 126 164 101 129 164 102 130 163 104 130 163 106 130 163 109 130 163 111 129 161 113 100 142 74 99 143 74 98 144 75 97 146 75 97 148 74 97 152 73 95 153 72 94 155 71 93 156 70 92 158 68 90 159 67 89 162 65 88 163 64 87 165 63 86 166 62 86 166 61 86 166 61 85 166 60 86 167 61 87 169 61 87 170 61 88 172 61 90 172 61 92 173 62 94 175 63 95 175 65 97 176 67 99 176 71 100 177 75 102 177 77 105 177 78 106 177 80 106 178 82 106 177 84 107 177 87 109 177 90 111 177 91 113 175 94 115 174 94 117 172 96 120 169 98 123 166 100 124 164 100 126 162 101 129 162 102 132 162 104 132 162 107 132 161 109 132 161 111 131 159 113 100 140 74 99 142 74 98 143 75 98 145 74 97 147 73 96 150 72 96 152 71 96 153 70 93 153 68 92 155 66 92 159 66 92 160 64 91 161 62 88 163 63 87 166 63 87 167 63 87 166 62 85 166 62 86 167 62 87 167 60 88 169 60 89 170 60 90 171 59 92 172 60 93 173 63 94 174 64 95 174 67 98 174 70 102 174 74 103 174 77 105 175 78 106 176 80 107 177 83 108 177 85 110 176 87 112 176 89 113 176 91 113 173 93 115 172 95 118 170 96 121 167 99 123 164 100 125 163 100 127 162 100 130 160 101 132 161 104 134 161 107 134 160 109 131 159 112 131 158 113 101 139 73 100 140 73 99 142 73 98 144 73 97 146 71 97 148 70 97 149 70 97 151 69 94 151 67 93 155 65 93 157 65 93 159 63 92 159 62 91 161 62 89 163 63 88 165 62 87 166 63 87 167 63 87 166 62 86 166 60 86 168 60 87 169 59 88 170 59 90 171 61 92 172 62 93 172 63 95 172 66 99 172 70 101 172 75 104 171 77 106 173 79 108 175 80 109 176 83 110 175 86 112 175 88 113 174 90 114 172 92 114 170 93 117 169 94 119 168 97 121 165 99 124 163 100 126 162 100 129 161 101 131 160 102 132 159 104 134 160 108 134 159 110 133 158 111 132 159 112 100 138 73 100 139 71 100 142 71 98 143 70 98 145 69 98 147 68 98 147 68 97 148 67 95 150 66 95 153 64 94 155 63 94 156 63 93 157 62 92 158 62 90 160 62 89 162 62 89 163 63 88 164 63 88 164 61 87 164 60 86 165 59 86 167 59 86 169 59 88 169 61 91 169 62 94 169 63 97 169 66 100 169 71 102 169 75 105 169 78 108 171 80 111 172 81 111 172 82 112 173 85 114 173 88 115 171 89 116 168 92 117 166 94 120 166 95 121 166 97 123 164 98 126 162 99 130 161 100 132 159 102 133 158 105 134 158 105 134 159 107 135 158 110 135 157 110 134 159 110 100 138 73 99 139 70 98 141 69 99 142 69 99 144 67 100 146 67 98 146 66 97 147 66 97 148 65 97 150 64 96 152 62 95 154 61 95 156 62 93 156 61 91 157 61 90 158 61 90 160 62 89 160 61 89 161 61 89 162 60 88 163 59 88 166 61 88 166 60 88 166 61 91 166 61 95 167 64 98 166 68 101 167 71 103 167 75 105 167 77 109 168 78 112 169 80 111 169 82 113 170 84 116 169 86 117 168 89 118 165 91 119 164 93 121 164 95 123 163 97 126 162 97 129 162 98 132 160 101 135 158 103 136 158 105 137 158 106 137 158 108 136 157 109 137 157 108 137 158 109 100 139 73 99 139 69 99 140 67 100 142 66 100 143 65 99 143 65 99 145 66 98 145 66 98 145 64 98 147 64 97 149 63 97 151 61 95 153 61 94 154 61 93 156 60 92 157 60 91 159 61 90 159 62 89 158 61 90 159 61 89 161 61 89 164 61 90 164 62 90 164 62 92 164 62 95 165 65 98 164 68 102 164 71 104 166 75 106 166 76 109 165 77 111 166 79 113 166 81 115 166 83 117 166 85 118 165 87 120 165 89 121 164 92 123 163 94 126 162 96 129 161 97 132 161 100 134 159 103 137 157 104 138 157 106 139 157 107 140 156 109 139 156 110 139 157 109 139 158 108 99 139 72 99 140 70 98 141 67 99 140 65 99 142 64 99 144 64 100 145 65 101 144 65 100 144 65 99 145 64 98 146 63 98 148 63 96 150 63 95 152 61 94 154 61 94 156 60 93 157 61 92 157 61 91 157 61 92 158 62 91 160 62 91 160 62 92 160 62 92 161 63 93 162 64 96 163 65 99 162 67 103 162 70 105 163 74 107 164 75 111 164 76 112 164 78 114 163 80 117 163 83 118 164 85 120 163 86 122 163 87 123 164 89 126 163 93 129 163 96 133 161 97 135 160 100 137 157 103 140 157 105 141 157 107 141 157 108 141 156 109 143 156 109 142 157 108 140 158 107 99 139 71 99 140 69 98 141 67 99 141 65 101 142 64 101 143 63 101 144 64 103 143 65 102 144 65 101 144 64 100 146 63 99 147 63 98 150 63 97 151 62 96 153 62 95 154 61 95 155 61 94 155 61 93 155 61 93 157 61 93 157 62 94 158 62 95 157 61 95 158 62 95 158 64 98 159 65 100 160 67 104 162 69 106 162 72 109 163 74 111 162 76 113 162 78 116 161 79 118 161 82 119 160 84 121 161 84 124 162 86 126 163 89 129 163 92 132 162 94 135 160 97 137 158 100 139 157 102 141 157 105 143 156 106 143 156 107 142 155 107 143 155 107 143 157 106 141 159 106 99 138 71 99 139 69 98 141 67 100 141 66 101 141 65 101 142 63 102 143 64 103 143 64 103 144 64 102 144 63 102 145 63 101 146 62 100 148 63 98 150 62 98 151 61 96 151 61 96 152 61 96 154 62 94 154 62 95 155 61 95 155 63 95 155 62 97 155 61 97 155 62 98 155 63 100 157 64 102 158 67 105 159 67 108 159 70 109 160 73 112 160 75 114 160 77 117 159 79 120 159 81 121 159 83 123 160 84 126 160 86 129 161 89 131 161 91 134 161 94 136 158 96 138 156 99 141 156 101 143 157 104 143 157 105 144 156 106 143 155 106 143 155 106 143 156 105 141 159 103 99 136 73 98 138 70 99 140 69 100 141 67 101 142 66 102 142 65 103 143 63 104 144 63 103 143 63 102 143 63 102 142 62 103 144 62 102 145 61 100 147 61 99 149 60 98 149 60 98 149 61 97 151 62 96 152 63 97 153 61 98 153 61 98 153 61 98 152 61 99 151 63 99 151 63 101 153 65 104 155 66 106 155 67 109 155 70 111 156 72 114 158 74 115 159 76 117 158 78 120 158 81 122 158 81 124 159 82 129 159 85 131 159 87 133 159 90 136 158 93 139 157 95 141 155 98 142 155 100 143 156 103 144 156 104 144 156 105 144 156 105 143 154 105 141 155 103 140 158 101 98 135 74 99 136 72 100 138 71 101 139 69 102 140 68 104 142 66 104 142 65 104 142 64 103 143 64 103 143 64 103 143 62 103 143 61 102 143 60 102 144 60 100 146 59 99 147 60 99 147 61 100 149 61 99 150 62 99 151 60 100 151 59 100 150 59 100 149 60 99 149 62 100 148 63 102 149 65 105 151 66 108 152 67 110 152 69 112 152 71 114 155 72 117 157 75 118 156 77 121 158 78 123 159 78 127 158 80 130 157 84 132 157 87 134 157 90 137 156 93 140 155 94 142 155 97 142 156 98 143 157 101 144 156 101 144 156 101 143 155 101 142 155 101 140 155 101 137 157 98 97 136 75 99 136 74 101 137 72 101 138 69 102 139 68 103 140 66 103 141 66 103 141 65 103 141 64 104 142 64 104 143 64 103 143 61 102 143 60 102 144 60 101 145 60 100 145 60 101 145 61 101 147 62 101 148 61 101 148 59 101 148 58 101 148 58 102 147 59 101 146 61 101 146 63 103 146 65 105 148 65 108 149 67 110 148 69 112 149 71 114 151 72 116 153 75 118 155 75 121 156 76 125 157 76 129 155 79 131 155 83 134 154 87 136 154 90 139 154 92 141 154 93 142 155 94 142 157 96 143 158 97 144 158 99 142 156 99 142 155 99 141 155 99 139 156 98 137 156 97 97 136 76 98 137 74 100 137 73 101 137 70 102 137 69 103 138 67 103 139 66 103 140 65 104 141 64 103 141 65 104 142 64 103 143 62 103 144 61 102 144 61 101 145 61 101 146 61 101 146 62 103 145 61 102 146 60 100 146 59 100 146 58 102 145 58 103 145 59 104 144 61 104 144 63 105 145 65 106 145 67 107 145 68 110 145 71 113 146 72 114 149 72 116 151 73 118 153 74 121 154 74 125 154 76 128 154 78 131 152 83 135 151 88 137 151 90 139 152 91 141 153 92 142 155 93 143 157 94 143 157 96 143 157 97 142 156 97 143 155 96 142 154 95 139 154 95 137 156 95 97 134 75 98 135 74 99 136 72 101 136 71 102 136 70 103 137 67 102 138 65 102 139 65 103 140 65 104 141 64 104 143 64 104 144 63 104 144 62 104 144 63 102 146 62 102 146 61 102 146 61 103 144 61 103 145 60 102 145 60 102 145 60 103 145 59 105 143 59 105 144 60 106 144 63 106 144 65 107 143 66 108 143 68 109 143 70 112 144 70 114 147 71 116 150 72 119 151 73 122 150 74 125 151 76 127 151 79 130 150 83 133 150 86 137 150 89 139 151 91 140 152 91 143 154 91 144 156 93 143 156 94 143 155 94 143 155 94 144 155 94 143 154 93 142 154 92 140 155 93 96 134 74 98 134 72 99 134 71 100 136 70 101 136 69 102 137 67 101 137 66 101 138 66 102 140 64 103 141 64 103 142 64 104 143 63 105 144 63 106 145 63 105 147 61 105 146 61 104 146 60 104 145 59 104 145 60 105 145 61 105 144 60 104 144 60 106 143 61 107 143 62 107 143 64 107 144 65 108 144 66 110 141 68 111 142 70 113 144 71 115 147 70 117 148 71 120 148 72 122 149 74 124 149 76 127 148 79 130 148 83 133 149 86 136 149 88 139 150 90 142 151 91 143 152 93 143 154 94 143 154 94 144 154 93 146 154 92 146 154 93 145 154 93 143 154 93 141 153 94 94 135 73 95 134 71 96 133 69 98 134 69 100 135 69 102 136 67 102 136 67 102 137 66 102 138 65 102 139 63 103 140 63 104 141 63 104 143 63 106 145 62 106 145 61 106 144 60 105 145 61 105 145 59 105 145 60 106 144 61 106 143 61 105 143 61 106 144 62 106 143 64 107 143 65 107 144 66 109 144 68 110 142 70 110 141 70 113 142 70 115 144 70 118 146 70 121 147 71 123 148 74 126 148 76 128 147 78 131 146 82 134 147 84 136 148 86 139 149 89 142 150 90 143 150 93 144 152 93 145 152 94 146 153 93 147 153 93 146 153 93 145 153 93 143 154 92 141 153 94 92 133 69 94 133 69 96 133 68 98 133 67 99 134 67 101 134 67 102 134 66 102 136 65 101 136 64 102 136 63 103 138 63 104 140 62 104 142 61 106 144 60 106 144 60 107 144 60 105 144 60 106 143 60 107 142 61 107 143 62 107 143 62 106 143 63 106 143 63 106 143 64 107 143 66 107 144 68 108 143 70 109 141 71 110 140 71 114 142 70 117 143 70 119 143 71 121 145 73 124 147 74 126 147 76 129 146 78 131 145 80 134 145 81 137 146 84 139 148 86 142 148 88 144 149 91 145 150 92 147 151 93 148 151 92 147 152 92 148 152 93 147 153 93 145 153 94 143 153 94 93 132 67 94 133 66 95 133 66 97 133 66 98 134 65 101 133 65 101 133 66 100 134 65 100 134 64 101 135 63 103 137 62 105 138 61 106 141 60 106 142 59 106 144 59 106 145 59 105 144 60 106 143 61 107 142 61 107 142 62 107 142 64 106 144 64 106 144 64 105 144 65 106 144 67 107 144 69 108 142 71 109 140 71 111 139 72 114 141 72 118 142 71 121 142 72 123 144 74 125 146 75 127 146 76 130 145 77 132 144 78 135 144 80 138 146 81 140 146 83 143 146 86 146 146 89 147 147 91 149 148 92 150 149 91 149 151 92 149 151 92 148 151 93 147 152 93 145 151 93 92 131 66 93 131 65 94 131 65 95 131 63 97 132 64 99 133 65 99 132 65 99 132 65 100 132 64 102 132 63 103 134 61 104 137 61 105 139 60 106 140 59 106 141 59 105 142 59 104 142 61 105 142 62 105 141 63 106 141 65 106 142 65 106 142 64 105 143 64 104 143 66 105 143 68 106 141 69 108 139 70 108 140 72 111 139 73 114 140 73 119 141 73 121 141 73 124 143 74 126 144 75 128 144 75 131 142 76 134 143 78 136 144 80 139 145 81 142 145 82 144 144 85 146 144 87 148 145 89 150 146 91 150 146 92 151 149 92 150 149 92 150 149 92 149 150 92 149 149 92 91 129 67 91 128 64 93 129 63 95 129 62 97 129 63 98 130 64 98 131 65 98 130 65 98 130 64 100 130 63 101 132 61 102 136 61 104 137 60 105 138 59 105 139 60 104 139 60 104 140 60 104 139 61 104 140 63 104 140 64 105 140 64 104 140 64 105 140 65 105 141 67 105 140 68 106 138 69 107 138 69 108 138 70 111 138 71 115 139 73 119 139 73 121 140 73 124 142 73 128 142 74 131 141 76 134 141 76 137 142 77 138 143 80 141 143 82 143 143 82 145 142 84 147 142 86 149 142 89 150 143 90 151 144 92 152 147 92 151 147 93 151 149 93 151 150 91 152 150 92 91 126 67 92 126 65 93 126 63 95 126 63 97 127 62 98 128 63 98 130 64 98 129 64 98 128 63 100 128 62 99 131 62 100 133 61 102 135 60 103 136 59 104 137 59 104 137 59 105 137 60 104 137 61 104 139 62 105 139 61 104 139 62 104 139 64 105 138 66 105 138 68 105 137 69 105 137 69 106 136 69 108 137 69 112 137 70 114 137 72 119 138 72 123 139 73 126 140 73 129 141 73 133 141 75 137 141 77 138 142 78 140 143 80 142 143 83 144 143 84 146 141 86 147 141 87 149 141 88 151 142 89 153 143 91 153 146 92 151 147 92 151 148 91 152 149 91 152 150 92 92 124 69 91 123 66 93 123 63 95 124 62 96 125 63 97 127 64 97 128 64 98 127 64 99 127 62 100 128 62 100 130 62 100 130 61 101 132 60 101 134 60 104 135 59 104 135 60 104 135 61 104 135 61 103 136 61 104 137 61 104 137 62 103 136 64 104 136 66 104 136 68 104 135 69 105 135 69 106 134 69 108 134 67 111 134 69 114 135 69 118 136 70 122 137 71 127 139 71 130 140 72 134 140 75 138 142 76 139 143 77 141 144 80 144 143 83 145 141 86 147 140 87 148 141 88 150 141 89 152 142 90 153 143 91 153 145 91 152 147 91 152 148 91 153 148 91 153 148 93 93 121 71 92 122 68 94 122 65 96 122 63 96 124 63 96 125 64 97 125 64 98 125 64 99 125 63 99 125 61 99 127 61 100 128 61 100 130 61 101 132 61 103 132 61 104 132 60 104 132 59 104 132 59 104 133 60 104 134 61 104 134 64 103 134 65 103 134 67 103 133 70 103 134 70 104 133 69 105 132 69 107 132 68 110 133 68 114 134 69 116 135 70 120 136 69 125 137 70 129 139 72 134 140 75 138 142 77 139 144 78 141 144 81 143 143 83 145 141 85 147 139 86 149 141 87 150 141 89 152 141 90 153 143 90 153 145 89 152 147 89 151 148 90 152 148 91 153 148 94 95 119 72 94 119 70 95 119 66 97 120 64 97 121 63 97 122 63 98 121 63 99 122 62 98 122 62 98 123 61 98 125 61 99 126 61 100 127 60 101 129 61 102 130 61 102 129 60 103 129 58 105 129 58 105 130 59 104 130 62 102 131 64 103 131 66 103 130 68 102 130 70 103 131 71 104 132 70 105 131 70 107 131 69 110 131 68 113 132 69 116 134 71 120 135 71 124 137 71 128 138 73 133 139 75 137 142 76 140 143 78 142 144 80 142 144 83 144 142 84 148 140 85 149 141 86 149 141 88 151 142 89 152 144 89 152 146 89 151 146 89 152 146 90 153 147 91 153 146 94 96 116 72 96 118 71 98 117 68 99 117 66 99 118 65 99 119 64 99 118 62 97 119 61 97 120 60 98 122 60 99 123 60 99 125 60 101 125 60 100 125 60 99 127 59 100 128 58 102 127 56 104 126 57 103 127 60 102 128 61 102 128 64 102 128 66 101 127 69 102 127 71 103 129 71 104 130 71 106 129 71 107 130 70 110 129 69 113 129 70 116 131 72 119 134 73 123 135 73 128 136 75 132 137 76 136 139 77 140 141 80 142 143 81 143 144 82 145 143 83 149 141 84 149 140 87 149 140 88 150 141 89 151 142 89 152 143 90 152 143 91 152 143 92 153 144 94 154 144 95 99 113 74 100 115 71 101 115 69 101 116 67 101 116 67 100 116 65 99 117 63 98 117 61 97 116 61 97 118 60 99 120 59 101 121 59 101 122 59 100 123 59 99 124 57 100 125 56 101 124 56 102 124 57 102 124 60 102 125 63 102 124 65 101 125 67 101 125 69 102 125 71 104 126 72 104 127 72 106 127 71 109 127 71 111 127 71 113 128 72 114 129 73 116 131 74 122 132 74 127 134 77 131 135 78 135 137 79 138 139 81 141 141 81 144 143 81 146 142 83 148 140 85 149 139 87 150 139 88 151 139 89 150 139 91 151 140 92 152 141 93 152 141 93 153 141 94 154 141 96 102 113 75 103 114 73 104 114 70 103 115 68 102 114 67 101 114 66 99 115 64 98 115 62 98 115 61 99 115 60 100 116 59 101 118 59 100 119 58 99 120 57 99 121 56 99 122 56 100 122 56 101 123 57 101 124 60 103 122 62 102 122 65 103 122 67 103 121 69 102 123 69 103 124 70 104 123 72 106 124 71 109 124 71 110 124 71 113 126 72 114 127 73 116 129 75 121 130 78 126 132 79 130 134 79 135 136 81 138 137 82 141 139 83 143 140 82 146 140 83 148 139 84 148 137 85 150 137 87 151 138 89 150 137 91 150 137 92 151 138 93 152 138 94 154 137 95 156 138 96 104 112 78 104 113 75 103 113 74 102 113 72 102 113 71 101 113 68 100 113 66 99 113 63 99 113 60 99 113 60 100 114 59 100 115 59 100 116 57 99 117 56 99 117 56 100 118 57 100 119 57 101 121 57 101 122 60 102 121 63 102 119 65 103 118 66 103 118 68 102 120 69 102 121 70 104 121 70 106 121 71 107 121 71 108 122 72 111 124 72 114 126 73 116 127 77 120 129 79 124 131 80 130 133 81 134 134 82 138 135 83 141 137 83 144 138 84 147 138 83 148 138 84 149 136 85 150 136 86 151 136 88 150 135 91 150 135 92 152 135 93 153 134 94 153 133 94 156 134 96 105 111 79 105 112 78 104 112 77 102 112 76 102 114 73 100 113 70 100 112 68 99 111 64 99 112 62 99 112 60 99 111 60 100 111 58 100 112 56 99 113 56 100 114 57 100 115 58 101 116 57 101 119 59 101 120 60 101 119 62 102 118 63 102 117 64 103 116 66 103 117 68 103 118 69 103 119 70 104 119 71 105 119 71 108 121 71 111 123 72 113 125 74 116 126 75 120 128 78 123 130 80 129 131 82 133 132 83 136 134 84 140 136 84 143 137 83 147 136 81 148 135 82 149 135 84 151 135 86 151 133 86 151 132 90 151 133 92 152 132 93 154 132 93 155 131 95 156 132 96 107 111 80 105 113 79 103 113 79 102 112 78 101 113 76 99 112 73 100 111 70 99 110 67 99 110 64 98 110 62 98 110 61 99 111 59 99 111 58 99 111 58 100 112 58 100 113 58 100 114 58 100 118 59 101 118 60 100 117 60 100 115 61 101 115 63 102 115 65 103 115 67 104 116 69 104 117 71 106 117 70 106 119 71 109 122 71 111 124 72 113 125 73 116 125 75 120 127 77 124 128 79 129 129 80 131 130 82 135 132 83 139 134 82 143 136 80 146 134 79 148 133 81 150 132 84 152 132 85 152 131 87 152 130 89 152 131 91 151 130 94 154 129 95 154 129 96 155 130 97 107 112 82 105 113 81 104 113 80 103 113 79 102 113 77 100 111 76 100 111 73 100 110 71 98 110 67 97 110 64 98 109 62 99 110 61 99 110 59 99 110 59 99 111 59 100 111 59 100 112 60 100 115 59 100 115 60 100 116 60 100 114 61 101 113 62 101 113 65 102 114 67 104 115 68 107 115 69 108 116 70 109 119 71 111 121 71 113 123 71 114 123 73 117 124 75 122 125 77 125 127 79 129 128 81 131 129 81 134 131 81 139 132 80 142 133 78 145 133 78 148 131 80 150 131 84 152 130 86 152 128 88 152 127 89 152 126 92 151 125 93 153 126 95 154 126 97 155 128 99 107 112 84 106 113 82 105 114 81 105 114 79 103 113 80 102 112 78 101 112 76 100 112 73 100 111 70 99 110 66 100 110 64 99 109 62 99 109 62 99 109 60 99 110 60 100 109 61 100 110 60 100 112 59 101 113 60 101 113 61 101 113 62 102 112 63 103 112 64 104 113 66 106 112 68 109 113 69 110 116 70 112 119 72 113 120 72 114 122 71 117 123 72 120 124 75 123 124 77 127 127 79 130 128 80 132 129 80 134 131 79 138 132 78 142 133 78 145 132 78 148 131 80 151 130 84 152 129 87 152 126 88 152 125 91 151 123 93 151 122 94 153 122 95 154 123 97 155 125 99 107 111 86 107 113 85 106 115 84 107 115 82 106 114 82 105 112 81 103 113 79 102 113 75 101 112 72 100 111 70 100 109 68 100 108 65 99 107 65 100 108 65 100 109 63 99 109 63 100 109 62 102 110 61 102 111 62 102 112 63 102 112 63 103 112 64 104 112 65 106 111 66 107 112 68 110 114 70 112 116 71 115 117 72 117 118 71 117 120 72 119 122 73 123 124 74 125 124 77 128 126 78 131 128 79 133 130 78 135 131 78 138 132 79 142 132 79 145 131 80 148 130 83 151 129 86 152 127 88 151 125 90 151 124 93 151 121 95 152 120 95 153 120 96 154 122 98 156 123 99 107 109 87 107 111 86 107 113 86 107 115 84 107 115 85 105 114 84 105 113 82 104 113 79 103 113 75 102 112 73 101 109 72 99 107 70 99 107 68 99 108 66 100 108 65 100 109 65 100 109 64 103 109 64 103 110 64 103 112 65 103 113 65 104 112 66 104 111 67 106 112 68 109 113 69 111 115 72 114 116 73 117 116 73 120 117 72 120 119 73 122 121 74 125 122 75 128 123 77 130 125 78 133 128 78 135 129 78 137 131 80 140 132 81 142 130 81 145 130 82 149 129 84 151 128 87 152 126 90 151 123 93 151 122 95 151 120 96 152 118 98 154 119 98 155 121 98 157 122 99 108 108 88 109 110 86 108 112 86 107 114 87 107 115 87 106 115 86 106 115 85 105 114 83 104 113 80 104 112 76 102 109 74 101 108 72 99 108 70 98 107 68 99 108 67 99 108 66 102 108 64 104 109 65 105 110 66 105 112 66 105 113 67 105 112 68 106 112 69 108 113 71 110 114 72 112 115 74 115 115 74 118 116 74 121 117 74 123 117 75 124 120 75 125 122 75 128 122 77 131 124 77 133 127 77 136 128 79 138 129 81 141 130 82 144 129 83 146 129 84 149 128 85 151 126 89 152 122 92 151 121 95 150 121 97 151 119 98 152 117 99 154 118 99 156 119 100 158 120 98 109 108 89 110 110 88 109 112 88 108 115 88 108 115 89 108 116 88 108 116 87 107 115 84 106 114 82 105 112 79 104 110 77 102 110 75 100 109 72 99 109 70 99 108 69 100 108 67 102 109 66 105 109 66 105 110 66 106 112 67 106 113 68 107 113 70 109 113 71 110 113 71 111 114 73 113 115 75 116 114 75 119 115 75 121 116 76 123 117 77 125 119 77 127 121 77 129 122 76 131 123 77 133 125 78 135 126 80 138 128 82 142 128 83 144 128 83 147 128 86 149 126 87 151 124 90 151 121 94 150 120 97 150 119 100 150 118 100 153 116 100 155 116 100 157 118 100 159 119 98 111 109 89 110 111 89 110 113 89 109 116 89 110 117 89 110 118 90 109 116 89 107 115 87 106 114 85 105 114 82 105 113 81 104 111 77 101 110 74 101 110 72 100 109 70 100 109 69 104 109 67 106 111 68 107 112 67 107 113 69 108 113 70 110 113 72 112 113 72 113 114 72 114 114 74 116 114 76 118 115 76 120 116 76 122 117 77 124 118 78 126 120 78 128 122 79 130 123 78 130 123 77 132 124 78 134 125 79 138 126 81 143 126 84 146 126 85 148 126 87 149 125 89 150 123 92 150 121 95 150 119 98 151 118 100 151 117 101 153 115 101 154 115 101 157 116 100 160 117 98 110 109 88 110 111 89 111 114 90 110 117 90 112 119 90 111 119 91 110 117 91 107 115 89 106 115 86 106 115 84 106 115 82 105 113 78 103 112 76 103 112 73 102 111 70 102 110 70 104 111 70 107 112 69 110 115 69 110 114 70 111 113 71 113 113 73 116 113 74 117 114 74 118 115 75 119 116 76 120 116 77 121 117 77 122 118 78 124 120 79 127 121 80 129 122 80 131 123 81 132 123 80 132 123 79 135 123 81 139 124 82 143 124 84 145 125 86 148 124 88 149 122 91 149 121 93 150 120 96 151 118 98 152 117 99 153 116 100 153 116 101 155 115 100 157 115 99 159 117 98 111 111 90 111 113 91 111 115 92 111 118 91 111 120 91 112 120 90 110 119 90 108 117 90 106 116 88 106 116 85 107 115 82 106 114 79 105 113 76 104 114 74 104 113 72 103 111 71 106 113 71 108 113 72 111 115 72 113 117 72 114 115 73 116 115 74 119 114 74 120 117 75 120 117 76 120 117 77 121 118 78 122 120 79 124 121 79 125 122 80 128 123 81 131 123 81 133 123 82 133 123 82 134 123 82 136 122 83 139 122 84 142 122 86 145 122 88 147 122 90 149 121 92 150 120 94 152 120 96 153 118 99 154 117 99 154 116 99 155 116 100 156 116 99 158 116 99 160 116 98 114 113 91 113 114 94 112 117 94 113 119 93 112 120 91 112 121 91 110 120 90 109 119 90 107 118 89 106 117 86 107 116 82 106 115 80 106 114 78 105 115 75 105 114 73 106 113 72 108 114 72 111 116 73 113 118 72 116 119 73 119 118 75 121 117 76 122 117 76 122 119 77 123 120 78 122 120 79 123 120 80 124 120 81 126 121 81 127 123 82 130 124 83 132 123 83 134 122 83 134 122 82 135 122 83 137 121 84 138 121 85 142 121 88 146 121 90 149 121 91 150 121 92 151 120 95 153 120 96 153 119 98 154 117 98 156 117 98 157 116 98 158 116 98 161 117 98 161 116 97 116 115 94 115 115 95 115 118 95 115 120 94 114 120 92 114 122 92 112 122 92 110 122 90 108 121 88 108 120 87 108 117 83 108 116 80 108 115 79 108 115 76 108 114 74 108 115 73 110 117 73 113 119 74 116 121 74 120 121 74 122 119 76 124 119 78 124 121 78 125 121 79 125 122 79 125 122 80 125 122 82 126 121 83 127 122 84 129 124 84 131 124 84 132 123 84 134 122 84 134 121 84 135 121 84 138 121 85 140 121 87 143 121 89 147 121 90 150 121 92 151 121 94 152 120 97 152 120 98 154 119 98 156 117 98 157 116 98 158 116 97 160 116 97 162 117 97 162 116 96 118 116 95 117 116 94 117 119 95 116 120 95 116 121 94 115 123 93 113 124 93 112 124 90 112 123 88 111 121 86 110 120 83 110 119 81 111 118 80 111 117 77 111 116 75 111 117 74 113 119 74 116 121 75 120 123 76 123 122 76 125 122 77 126 122 78 127 122 78 128 122 79 127 123 79 127 121 81 127 121 83 128 121 85 128 123 85 130 124 86 132 123 85 133 122 85 133 121 85 134 121 85 136 120 86 139 120 87 141 121 89 144 120 90 148 121 92 150 121 94 151 121 96 152 121 98 152 120 98 155 118 98 157 117 98 158 116 98 160 117 97 162 117 96 163 116 95 163 114 95 