P3
50 50
255
99 131 167 102 132 166 103 131 163 104 132 162 105 131 160 105 132 159 105 133 158 104 135 158 105 138 158 104 138 156 104 139 156 102 139 155 103 141 154 103 142 153 104 143 151 105 143 149 106 142 147 106 141 145 106 142 145 107 143 144 108 144 144 107 145 143 107 145 143 109 146 143 110 146 141 111 146 142 110 146 144 110 147 144 111 147 144 112 147 144 111 145 143 112 144 142 115 142 140 117 140 139 118 138 138 119 136 137 117 134 137 116 134 138 116 133 138 116 133 138 115 135 137 114 136 139 115 136 140 116 134 140 119 132 140 121 131 140 122 130 139 124 128 138 125 130 137 126 132 137 99 130 165 102 131 163 103 130 162 104 132 160 104 132 158 105 132 157 105 134 158 104 136 158 103 137 157 103 138 156 103 138 156 103 139 156 103 141 154 104 142 153 105 143 152 106 142 150 107 142 148 108 141 147 109 141 146 109 142 144 108 144 143 107 145 143 108 146 143 109 146 142 110 146 141 111 147 142 110 147 142 111 147 143 112 148 143 111 147 142 112 145 142 113 143 141 115 142 139 117 140 138 118 138 138 118 136 138 117 134 138 117 134 138 116 133 136 116 133 136 116 134 136 116 135 138 115 135 137 116 133 138 118 131 138 120 130 138 122 129 139 123 129 138 125 129 138 125 130 137 101 129 162 102 130 160 103 130 159 103 132 158 103 131 157 103 131 157 104 133 157 104 135 156 103 138 157 102 139 156 103 139 156 104 139 156 104 140 154 104 142 152 106 142 152 107 142 150 109 142 149 110 142 148 111 141 146 110 142 145 109 144 144 108 145 144 108 146 143 110 146 142 112 145 142 112 145 142 112 146 143 111 146 143 111 147 141 112 147 141 112 145 141 113 143 140 115 141 139 117 140 138 117 138 139 117 136 139 117 134 139 117 133 138 117 133 135 117 132 135 118 132 135 118 133 136 117 132 136 119 131 135 120 129 136 121 128 136 122 127 136 123 127 137 123 128 136 122 130 136 101 128 160 102 130 158 104 130 157 104 130 156 104 130 156 103 131 155 104 132 155 104 134 156 103 137 155 102 140 155 102 140 154 103 140 153 105 141 153 105 141 152 107 142 150 108 142 150 109 142 149 110 142 148 112 143 147 112 143 146 110 144 146 108 144 146 108 144 144 110 144 143 113 144 143 114 144 143 113 145 143 112 145 143 112 146 142 112 146 141 112 145 141 113 143 140 115 142 139 116 141 140 117 138 140 116 136 140 117 134 139 118 134 137 118 134 135 119 132 135 120 132 134 119 132 134 119 131 136 120 131 135 122 130 134 123 127 134 124 126 134 123 126 135 123 127 136 122 129 137 100 127 159 101 129 158 103 128 157 103 128 156 104 129 154 105 129 154 105 131 154 105 133 154 104 137 154 102 139 154 103 140 153 103 141 152 104 142 152 105 142 153 106 142 151 108 141 150 109 142 149 110 142 148 111 143 148 111 142 148 108 143 148 108 144 147 108 143 146 110 143 143 112 144 144 113 143 145 114 143 145 113 144 145 112 144 144 114 144 142 113 143 142 114 141 141 115 140 140 115 140 140 116 138 140 116 136 140 116 135 138 119 133 136 120 134 135 121 133 135 121 132 134 120 132 135 121 133 135 122 131 135 124 129 134 124 127 136 124 126 136 122 127 137 122 128 136 122 128 137 101 128 158 102 128 157 103 127 157 104 126 155 103 127 155 105 127 153 105 130 153 104 132 153 103 135 154 103 137 154 103 140 152 103 142 152 104 142 152 105 142 151 106 142 151 108 142 150 110 142 150 111 141 149 111 143 148 109 142 149 108 142 150 108 143 149 108 142 147 109 142 145 111 143 144 112 142 146 114 142 147 114 142 146 115 141 145 116 141 143 115 141 141 115 140 141 114 139 140 114 139 140 116 138 140 116 136 139 117 134 138 119 133 136 121 133 135 122 133 135 121 132 135 122 133 135 122 132 135 123 131 134 125 129 135 124 127 135 123 125 137 121 125 137 120 127 138 122 128 138 102 127 159 103 128 156 106 127 155 106 126 154 105 127 153 105 128 153 105 130 153 104 133 154 104 135 154 104 138 153 104 141 152 103 141 152 105 141 152 106 141 151 107 142 151 108 143 150 110 142 150 110 141 150 110 142 150 109 142 150 109 141 150 110 141 149 110 141 146 110 142 145 111 143 145 112 142 146 113 142 146 114 143 146 116 140 145 117 140 143 117 139 141 115 139 142 114 139 140 115 139 140 116 138 140 116 135 138 118 133 137 119 133 135 121 133 134 122 133 135 122 133 136 123 132 136 123 132 135 124 131 135 124 130 135 124 128 136 122 127 137 121 127 138 121 127 138 121 128 137 103 128 161 105 128 158 107 128 155 106 127 154 107 127 153 107 129 153 105 131 151 105 133 152 105 137 153 104 139 152 103 142 152 103 142 152 105 141 152 106 141 152 108 142 153 109 141 152 109 142 151 109 141 151 110 141 152 110 141 152 110 140 151 111 140 149 111 140 148 111 141 147 111 142 147 111 142 146 112 143 146 114 142 145 117 140 145 118 139 143 117 138 143 115 139 142 115 140 140 115 140 138 116 138 137 117 134 136 119 133 136 120 133 135 121 133 135 122 133 135 123 133 136 123 131 137 123 131 135 124 131 135 123 130 135 122 129 136 122 129 138 120 129 138 121 128 136 122 128 136 104 128 160 105 128 158 106 127 156 106 127 155 106 128 155 107 129 154 107 131 152 106 133 152 107 137 151 105 140 152 104 143 152 103 143 152 105 142 153 105 142 153 107 142 153 108 142 153 108 142 153 109 141 153 110 140 153 111 140 152 111 139 151 112 139 150 113 139 149 112 139 150 112 141 149 112 141 147 112 142 146 114 142 145 118 141 143 118 139 141 117 139 141 117 139 141 117 140 139 117 140 136 117 139 134 119 135 134 119 134 135 119 133 134 120 133 134 120 133 136 121 132 136 122 130 137 122 129 136 123 129 136 122 130 136 121 130 136 121 130 137 121 129 137 122 128 136 123 127 135 103 128 160 105 128 157 106 126 157 106 125 156 106 127 155 107 129 153 107 132 153 107 134 152 106 137 151 106 141 151 104 143 152 104 143 152 106 142 151 106 141 152 106 142 153 107 141 153 107 140 154 108 140 154 110 139 153 110 139 152 110 138 153 111 138 152 112 138 151 112 137 151 112 138 151 112 139 149 113 140 146 115 141 144 117 141 141 119 140 140 118 140 140 117 140 139 118 140 137 118 139 133 118 139 133 120 137 132 120 135 133 120 135 134 119 134 135 119 132 136 119 131 136 119 130 137 120 130 137 120 130 136 121 130 136 120 130 137 120 130 136 122 128 135 123 127 135 124 126 134 103 128 159 103 129 158 104 126 157 105 126 155 107 127 153 107 130 152 108 133 151 107 136 151 107 138 151 105 142 151 103 143 152 103 142 151 106 141 151 106 141 151 107 141 152 107 141 152 107 140 153 108 140 153 109 139 152 109 138 152 110 137 153 110 136 154 111 135 153 111 134 153 112 136 152 112 137 149 113 138 147 115 139 144 117 139 141 119 139 140 118 139 140 118 139 138 119 139 135 118 139 133 118 139 132 118 138 132 118 137 132 117 136 134 117 134 135 118 133 135 117 132 136 116 131 136 118 131 136 118 131 136 118 130 136 118 129 136 119 128 135 120 128 134 121 126 135 122 125 135 103 127 160 104 127 157 104 127 156 106 127 154 108 128 152 108 132 151 109 135 150 108 136 150 107 137 150 105 141 150 104 142 151 104 142 150 105 141 150 107 140 151 106 139 153 107 140 153 107 140 153 108 140 153 108 137 153 109 136 153 111 135 153 111 134 152 110 133 152 110 132 152 112 134 152 112 136 150 112 137 147 114 137 145 116 136 142 118 137 140 119 137 139 119 137 137 119 137 134 118 137 132 117 138 132 117 138 131 117 137 132 116 135 134 115 133 135 115 133 136 115 132 135 114 132 135 115 131 135 115 130 134 115 131 135 116 130 135 118 129 135 119 129 134 120 128 134 121 126 136 105 126 159 104 127 157 105 127 155 108 129 152 108 131 151 108 133 150 108 135 150 108 136 150 108 137 150 106 139 150 105 141 150 105 141 149 107 141 148 108 140 150 107 140 152 107 139 153 107 139 154 108 138 153 108 137 152 109 134 153 111 133 152 112 132 152 111 132 151 111 132 151 112 132 150 112 134 148 111 135 147 113 135 144 114 134 142 116 134 141 117 135 139 118 135 138 118 136 134 117 136 132 117 136 132 116 136 131 116 135 131 115 133 132 115 132 134 114 132 134 114 132 134 114 131 135 114 131 134 114 131 133 114 132 134 115 130 133 116 130 133 117 130 133 119 128 134 120 127 134 106 127 160 105 128 157 105 129 154 107 131 153 107 133 152 107 134 152 108 135 152 108 136 151 107 137 151 106 138 149 106 140 149 107 141 148 108 142 148 108 141 149 107 139 152 107 138 153 108 138 152 109 137 153 109 136 152 109 133 152 111 131 151 112 131 151 112 131 151 111 130 151 111 130 148 111 131 148 112 132 147 112 132 144 113 133 142 114 132 141 116 133 140 116 134 138 116 135 136 115 135 134 116 134 132 116 134 131 115 133 131 114 132 132 114 133 133 113 132 133 113 132 133 113 132 134 113 131 133 114 132 133 114 133 132 115 132 131 116 132 131 116 131 132 118 130 133 119 129 134 106 128 160 105 128 158 105 129 156 107 131 154 107 133 153 107 134 153 107 134 152 107 136 150 106 136 150 107 138 150 108 139 149 108 140 147 108 141 148 109 141 150 109 138 153 108 137 153 110 136 153 110 135 152 109 133 151 111 131 151 112 129 149 112 128 149 111 128 150 111 129 150 110 128 149 110 129 148 109 129 147 110 129 145 111 130 143 113 132 141 115 133 139 116 133 137 115 134 136 116 134 134 115 133 132 115 133 130 114 134 130 112 133 131 112 133 132 113 133 133 113 133 133 113 132 133 113 131 133 114 132 133 114 133 132 114 133 132 115 133 131 116 133 131 118 132 132 120 130 132 106 128 160 107 127 158 107 129 157 107 131 154 107 133 153 107 133 153 107 133 152 107 133 151 107 134 151 108 136 150 109 138 149 108 138 147 109 139 148 110 139 150 110 139 152 111 137 153 111 135 152 110 133 151 111 131 151 112 128 149 112 127 148 112 127 146 112 128 147 112 127 148 110 126 147 109 126 147 109 128 146 110 129 146 111 129 144 112 130 141 114 131 140 115 131 138 116 132 137 115 132 134 114 132 132 115 133 130 113 135 130 112 134 131 111 134 131 112 135 132 112 133 133 113 132 133 113 131 133 114 132 132 115 132 132 115 133 132 115 132 131 117 132 131 118 132 131 120 131 131 109 128 161 109 128 158 109 129 156 108 130 155 108 132 154 107 132 154 107 133 152 108 132 151 107 133 150 108 135 149 109 136 148 109 136 149 109 137 149 110 137 150 111 137 151 112 136 152 112 134 152 111 130 150 112 128 150 113 126 147 113 124 146 113 125 145 112 125 146 111 125 146 110 124 145 110 124 145 110 125 145 111 127 144 111 126 142 111 128 141 113 129 139 114 129 138 116 130 137 115 131 136 114 131 133 114 132 131 112 134 131 112 134 131 112 134 131 112 134 130 112 132 131 113 132 133 113 131 132 114 131 132 115 132 132 115 132 132 116 132 131 117 132 131 118 132 130 119 133 130 111 128 162 110 128 159 109 128 156 109 129 156 108 129 155 108 130 155 108 132 153 108 132 151 108 132 149 109 134 149 109 134 148 110 134 148 111 135 149 112 135 149 112 135 150 112 133 150 112 131 150 111 128 149 113 124 148 114 122 145 114 122 144 113 123 144 113 124 142 113 123 143 111 123 144 111 123 144 112 123 144 111 123 143 111 124 142 112 126 142 114 127 140 115 127 138 116 127 138 115 129 136 114 130 135 113 132 132 112 134 131 113 135 131 112 134 130 112 134 130 113 133 130 113 132 132 114 132 132 114 131 132 115 132 132 115 133 132 115 134 132 117 133 131 117 134 130 118 133 130 111 128 163 110 127 160 109 127 158 110 128 157 109 128 156 110 128 155 110 131 153 109 131 151 109 132 150 109 133 149 110 133 147 112 134 147 113 133 147 113 133 148 114 131 148 114 130 148 113 128 148 113 125 147 115 123 145 115 120 141 115 120 141 114 120 141 115 121 140 114 121 140 113 122 141 113 122 141 113 121 142 113 121 142 113 122 143 114 124 142 115 126 140 116 126 138 115 126 138 115 127 137 114 129 136 113 131 134 113 134 131 112 135 131 112 134 129 111 134 130 112 134 131 114 132 132 114 132 132 114 131 133 115 132 132 115 135 132 116 135 131 117 134 130 117 135 129 119 133 129 112 128 162 110 126 161 109 126 159 110 126 157 110 127 155 111 127 154 110 130 153 109 130 151 109 131 149 109 132 148 112 131 147 113 132 146 114 132 146 114 130 146 114 128 147 114 127 146 115 125 146 115 122 144 116 120 141 116 119 139 117 119 138 115 119 139 115 119 138 115 119 138 115 120 139 115 119 140 115 119 140 115 119 141 114 121 142 114 124 141 114 125 140 115 125 139 115 125 138 115 127 137 113 129 136 113 132 134 113 133 131 112 134 130 112 133 130 113 133 131 113 133 131 114 133 131 115 133 132 116 133 132 115 133 132 115 135 132 115 135 131 116 135 129 118 136 128 119 134 127 112 127 160 111 126 160 110 125 158 110 125 155 112 127 153 112 127 153 111 129 152 109 130 151 110 131 149 110 131 147 112 130 146 114 130 145 115 130 145 114 129 145 114 127 145 115 126 144 116 124 143 116 120 142 117 118 139 117 117 137 118 118 137 118 119 137 117 118 137 117 117 136 117 118 138 117 117 139 118 118 139 118 118 141 117 120 141 117 123 140 116 124 139 115 124 139 115 125 138 114 127 137 114 129 135 113 131 133 113 132 131 112 133 130 114 132 130 114 131 130 114 132 131 114 133 131 116 133 132 117 134 133 116 134 133 115 136 131 115 136 131 116 136 129 118 135 127 121 135 127 113 125 160 112 125 159 111 123 157 112 125 154 112 126 152 112 127 151 111 127 151 111 129 150 111 130 148 111 129 145 113 128 143 114 128 143 115 128 143 114 126 143 115 125 143 116 125 142 117 123 140 118 121 139 118 119 138 118 117 136 118 117 135 117 118 135 117 117 136 117 117 136 118 118 137 118 117 138 119 117 138 119 118 139 119 119 140 118 122 139 117 123 138 116 124 137 115 125 136 115 127 135 115 129 134 114 130 133 113 130 131 113 131 131 114 131 130 114 131 130 115 131 132 116 132 132 117 132 132 117 134 133 117 133 133 116 134 133 116 135 131 118 135 129 119 134 127 123 134 126 114 123 159 113 123 158 113 122 156 113 123 153 112 125 151 111 126 150 111 126 150 112 127 149 112 128 146 113 128 144 114 127 142 115 126 141 115 125 141 115 123 142 115 122 141 116 122 139 117 122 138 118 120 137 117 118 136 118 117 135 118 116 135 117 116 135 117 115 136 117 115 136 118 117 137 119 118 137 120 117 138 119 117 138 119 119 139 119 120 139 119 121 138 117 124 137 116 125 136 115 125 134 114 127 133 115 128 132 115 130 132 114 131 130 115 132 130 116 131 130 117 130 133 118 131 134 118 132 133 118 132 134 117 132 134 117 132 133 117 132 131 119 133 128 122 133 126 125 133 125 114 121 157 115 121 157 114 121 154 113 122 152 112 123 150 111 125 149 111 125 148 111 127 147 112 127 145 113 126 143 114 125 142 115 124 140 115 122 140 114 121 140 115 120 139 116 120 137 116 120 136 117 118 135 117 116 135 118 116 135 119 115 135 118 114 135 117 114 135 117 115 136 119 116 136 119 118 137 120 117 137 120 118 138 120 120 138 120 120 138 119 122 137 118 125 136 116 125 135 115 125 134 114 126 132 115 128 132 116 129 131 116 131 130 117 133 130 118 131 130 118 130 132 119 130 133 119 131 134 119 131 134 118 131 135 118 131 133 119 131 131 123 131 128 125 132 126 127 132 126 114 120 156 115 120 156 114 120 154 114 120 152 113 122 150 111 123 149 110 124 146 111 125 145 112 125 143 113 124 142 114 122 141 114 122 140 113 120 139 113 119 139 114 118 137 114 118 135 115 118 134 116 118 134 117 116 134 118 115 134 118 115 133 118 114 134 117 114 135 118 115 135 118 116 136 118 118 136 119 118 137 119 120 138 119 121 137 120 121 136 120 122 137 119 124 136 117 125 136 116 125 134 115 126 132 116 128 131 116 129 131 118 130 131 119 132 132 119 131 131 118 130 133 119 130 134 119 131 135 120 132 135 119 131 135 120 130 133 121 130 131 124 130 128 125 131 126 127 131 127 115 119 155 116 119 155 116 119 154 115 119 152 114 120 150 112 121 148 110 122 146 110 124 143 111 124 142 112 122 141 113 120 141 113 119 140 114 119 139 114 117 137 114 117 136 113 117 134 114 117 133 116 116 133 117 115 132 117 115 133 117 115 133 117 115 135 118 116 136 118 116 136 117 117 135 117 118 136 119 119 137 119 119 137 118 121 137 119 121 137 119 122 136 119 123 137 118 124 136 118 123 135 118 125 133 118 127 131 118 129 131 119 130 131 119 130 132 118 131 132 118 130 134 118 131 135 119 132 135 119 132 135 121 131 135 120 131 133 123 130 131 124 130 129 124 130 128 127 130 129 115 118 155 115 118 153 115 118 153 114 118 152 114 118 150 113 119 148 111 121 145 110 122 142 111 121 140 112 120 140 112 118 140 113 118 139 114 117 138 114 116 136 115 117 134 114 116 132 115 116 131 115 116 130 116 116 130 116 115 131 117 116 133 118 115 134 118 116 135 116 116 135 116 117 135 117 118 136 119 118 136 119 119 136 118 120 136 118 120 136 118 121 136 120 123 137 119 123 137 119 124 136 118 125 134 119 128 132 119 130 132 120 129 132 119 130 133 119 131 134 118 130 135 118 131 135 119 131 134 120 131 135 121 131 134 121 130 133 123 130 131 124 129 130 124 128 129 126 130 130 115 118 155 115 119 153 113 118 152 113 119 151 113 119 150 113 119 148 112 119 146 112 120 143 112 119 140 112 118 139 112 117 139 114 116 139 114 115 137 115 115 136 116 114 135 116 114 133 116 116 131 116 116 129 116 116 129 117 115 131 118 116 132 118 115 132 117 115 134 115 116 135 116 117 136 116 118 136 118 119 135 118 119 135 118 120 136 117 120 136 118 121 135 119 124 136 119 124 136 118 124 136 118 125 135 118 127 134 119 129 134 119 128 134 120 129 134 119 130 134 117 130 134 117 130 133 118 131 133 119 130 133 121 131 133 122 131 133 123 130 132 124 130 130 125 129 130 127 130 129 116 118 156 115 118 153 114 119 151 114 120 148 114 119 148 113 118 146 113 119 145 112 119 144 112 118 141 112 117 140 113 116 140 113 115 139 114 114 137 115 113 137 116 113 136 116 114 134 117 114 132 118 115 130 117 115 130 118 115 130 119 115 131 118 115 132 117 115 134 117 116 136 117 118 136 116 118 135 117 118 135 118 119 135 117 120 137 117 120 136 118 121 135 118 123 135 119 123 135 118 125 137 118 125 136 119 127 135 119 128 134 119 128 135 119 128 135 120 129 135 119 129 134 117 130 134 117 131 132 119 131 133 120 132 133 122 132 133 123 131 133 123 130 131 125 130 130 128 129 129 117 118 154 116 118 151 114 118 149 115 118 147 115 118 145 114 118 144 114 119 144 113 118 144 112 117 142 112 115 142 112 114 141 113 113 140 114 112 139 115 111 138 116 112 136 117 113 135 119 113 134 119 113 131 120 114 131 119 114 131 118 113 131 118 114 133 118 115 135 118 117 135 117 118 135 118 118 134 117 118 134 118 120 135 118 121 136 118 121 136 119 122 135 120 122 134 119 123 135 118 126 136 119 127 136 119 128 134 118 129 134 118 128 134 119 127 134 118 128 134 119 129 134 118 130 134 118 131 132 119 132 132 119 133 132 121 131 133 123 132 133 124 131 132 127 131 130 130 129 128 117 117 151 116 118 149 115 118 148 114 118 146 115 118 144 115 118 145 114 118 144 113 117 143 112 116 143 111 114 142 112 112 142 113 111 140 113 110 139 114 111 138 116 112 137 117 113 135 118 112 134 118 111 132 119 112 132 119 114 132 118 113 132 119 115 134 119 116 135 119 118 135 118 119 135 119 120 135 117 121 135 117 121 135 118 121 135 119 122 135 119 122 134 120 123 134 120 125 134 119 127 134 119 127 134 118 128 134 117 129 133 117 129 133 118 128 133 117 128 134 117 130 134 119 130 134 118 131 133 118 132 132 119 133 132 120 132 133 122 132 132 124 132 133 127 131 131 129 130 129 117 117 150 117 118 149 116 119 147 115 118 145 114 118 143 114 117 144 113 116 144 112 115 143 112 115 143 112 113 143 113 112 142 113 111 140 114 110 140 115 109 139 116 111 137 117 111 136 118 111 135 118 111 134 117 112 134 117 112 133 118 113 134 118 115 134 119 117 134 118 119 135 119 120 136 119 120 136 118 121 136 119 122 135 119 121 135 119 121 134 119 123 134 120 124 133 120 125 134 120 126 134 119 127 132 118 126 132 117 128 132 117 129 132 119 129 132 118 130 132 118 130 133 119 130 133 118 131 133 118 133 133 119 134 133 120 133 133 121 134 132 124 134 132 127 132 131 129 131 129 118 115 149 116 116 148 115 116 147 116 117 145 115 117 144 114 116 143 112 115 143 112 114 143 111 113 143 112 112 142 114 110 141 115 110 139 116 108 140 116 108 139 116 109 137 117 108 136 118 108 135 117 109 134 117 109 134 117 110 133 118 112 133 117 114 133 117 117 134 118 118 135 119 118 136 120 120 136 119 121 135 120 122 135 121 121 133 120 122 133 120 124 132 121 125 132 121 125 131 122 125 131 121 126 130 120 127 130 119 128 130 119 127 130 120 128 130 120 128 130 119 129 131 119 131 131 119 132 132 120 133 134 120 135 133 120 135 132 122 136 132 125 135 131 128 134 131 130 132 130 117 115 149 116 115 148 116 116 146 116 117 145 115 117 143 113 117 142 113 115 142 113 113 142 113 112 141 114 110 140 116 109 140 117 108 140 117 108 140 117 107 139 118 107 139 119 106 137 118 106 136 118 107 135 117 109 134 118 110 133 118 112 132 117 115 132 117 116 133 118 117 134 120 118 134 120 120 134 121 120 135 122 121 134 124 122 132 123 123 132 123 124 131 123 125 129 123 125 128 124 124 128 122 125 128 121 126 128 120 128 128 120 128 128 119 128 129 120 128 130 120 129 132 120 131 132 119 133 132 119 134 133 119 134 133 121 136 132 122 137 132 125 136 131 127 134 130 128 133 130 118 114 149 118 115 148 118 116 147 116 117 145 115 116 143 115 116 143 115 114 142 114 114 141 114 113 139 116 112 139 116 111 139 116 109 139 117 108 141 118 107 141 118 106 140 120 106 138 119 106 137 118 106 136 118 108 135 118 111 133 118 112 132 118 113 132 120 114 133 120 117 132 121 118 132 123 119 132 123 120 133 124 123 133 126 124 132 126 124 131 126 124 130 125 125 127 126 125 126 125 125 126 124 124 126 123 125 127 121 127 127 121 128 128 121 129 128 122 128 130 121 129 132 120 131 132 120 132 132 120 133 132 122 134 132 122 135 132 123 136 131 124 136 130 127 136 130 129 135 131 119 114 149 118 114 148 118 115 146 116 116 144 116 116 144 116 115 143 115 114 141 116 114 139 114 114 139 115 113 139 116 112 139 117 110 140 117 109 141 117 107 142 118 106 141 119 105 139 119 106 138 119 106 138 119 108 135 118 110 135 118 112 133 119 113 133 121 114 133 121 115 132 122 118 131 124 119 131 126 120 132 126 123 132 127 125 131 128 125 130 128 125 129 128 125 127 128 124 125 127 124 125 127 124 125 124 125 126 123 128 126 124 130 127 124 130 128 123 130 129 122 129 130 122 130 131 122 131 131 122 133 131 123 135 130 124 135 130 124 137 130 126 137 130 127 137 130 128 137 130 120 114 149 119 115 147 117 116 146 117 116 146 117 115 145 116 115 142 116 114 140 116 115 140 115 115 140 115 113 139 116 113 139 117 111 140 117 110 140 118 109 139 119 107 140 119 107 139 119 107 138 119 108 138 120 108 136 120 110 134 120 111 133 121 113 133 122 114 132 122 115 132 124 118 132 126 120 131 128 121 131 129 123 131 129 125 130 130 126 129 129 125 128 129 125 127 129 124 125 129 125 124 129 125 125 127 126 125 126 129 126 125 131 127 125 132 127 125 131 129 125 130 130 124 129 131 124 130 130 124 133 130 124 135 130 125 135 130 125 137 130 126 139 129 127 139 130 128 138 130 121 116 148 119 117 147 119 117 146 119 116 144 118 115 143 117 115 141 117 115 140 116 116 140 116 116 139 116 115 139 117 114 138 117 112 138 118 111 139 119 111 138 120 109 137 120 108 137 120 108 136 120 108 137 120 108 136 122 109 135 124 111 134 124 112 133 125 114 132 125 115 132 127 119 132 129 121 130 130 123 129 131 124 130 131 125 130 131 125 129 130 124 127 130 124 126 130 123 125 130 124 124 129 126 124 129 127 125 128 129 127 127 131 126 127 131 127 127 130 129 127 131 130 127 130 130 127 130 129 127 132 129 126 133 128 127 135 129 126 136 129 127 139 130 127 139 130 128 138 130 122 116 146 121 118 146 121 118 145 121 116 142 119 116 140 119 116 140 118 117 139 118 117 138 118 116 138 119 116 138 119 115 137 120 115 136 120 114 137 120 112 137 122 111 136 122 110 136 121 109 136 121 109 136 122 109 135 122 110 134 124 111 134 126 112 133 127 114 132 128 117 131 128 120 130 131 121 129 133 123 129 133 125 130 133 124 129 133 124 128 132 123 126 132 123 125 131 123 123 130 124 122 130 126 123 130 127 124 128 129 126 127 131 127 127 131 128 129 130 129 129 131 129 130 131 129 130 130 129 130 131 128 129 133 127 130 134 128 129 135 128 128 137 129 128 138 129 128 137 130 123 117 144 123 118 143 123 119 142 122 117 139 121 117 139 120 117 139 119 118 138 120 118 137 121 116 137 122 115 137 122 115 136 123 115 135 124 115 135 124 113 135 125 111 134 123 110 134 124 109 135 124 110 134 125 111 134 126 113 132 127 113 131 129 112 132 130 114 132 131 118 131 131 121 130 132 122 129 133 123 129 134 124 129 134 124 129 134 123 128 133 123 125 132 123 124 131 124 122 131 125 121 131 126 122 131 127 123 129 128 124 129 130 126 129 130 126 130 131 127 131 130 128 131 130 129 131 130 128 131 130 128 132 132 128 132 132 127 132 134 128 130 136 129 129 138 129 128 137 130 123 117 140 124 119 140 125 119 139 123 118 138 123 117 138 123 117 137 123 117 136 123 118 136 125 117 135 125 115 136 126 115 136 126 114 135 127 115 135 128 114 135 128 112 133 127 111 132 128 111 133 128 112 133 128 112 132 129 114 131 130 113 131 131 114 130 132 116 130 132 118 130 132 122 129 134 123 128 134 124 127 134 125 128 134 124 128 135 123 127 134 124 125 133 125 123 133 127 122 133 126 121 132 126 121 131 127 121 131 128 123 130 130 125 130 131 124 130 131 125 130 130 125 132 129 127 132 129 127 132 130 127 133 132 128 133 131 128 132 133 129 131 134 131 129 135 131 128 136 131 124 118 137 126 118 137 127 117 136 126 118 136 127 118 136 127 117 134 127 117 134 126 118 135 128 117 134 129 116 135 129 115 136 130 115 136 131 115 134 131 115 134 132 113 133 132 113 133 131 114 133 131 115 131 130 115 132 132 115 131 132 115 131 134 116 131 133 118 130 134 120 130 135 122 129 136 123 128 136 123 126 135 124 126 135 126 126 136 126 125 135 126 124 136 126 122 136 127 121 135 126 119 133 128 118 133 128 120 132 128 121 131 129 122 130 130 121 130 131 122 131 130 123 134 129 125 133 130 125 132 131 125 132 131 126 132 131 127 132 132 130 131 133 132 130 133 133 128 133 133 127 118 134 127 118 133 128 117 132 129 117 133 130 117 133 129 117 132 130 117 134 129 118 135 130 117 135 131 116 135 131 116 136 132 115 135 133 115 134 134 116 133 135 115 133 134 115 133 134 116 133 132 116 132 132 116 133 134 117 132 134 118 131 135 118 131 135 119 130 136 121 130 137 121 128 137 122 126 136 122 125 136 124 125 137 126 124 137 127 123 137 128 122 137 127 121 137 127 120 137 128 119 136 128 118 134 128 119 134 128 119 133 128 119 131 129 120 131 130 120 132 130 120 133 129 120 131 130 121 131 131 124 132 131 125 131 132 126 131 133 130 130 133 132 129 132 133 128 132 134 130 117 132 129 117 130 130 116 129 131 116 130 131 117 132 133 118 132 133 118 134 133 118 134 133 117 135 133 117 134 134 116 135 135 116 135 136 116 133 137 116 132 137 116 132 137 116 132 136 117 133 135 117 133 134 116 133 135 118 132 135 119 131 136 119 131 137 119 130 138 120 129 137 121 127 137 121 127 138 123 126 138 125 125 138 126 123 138 127 122 138 130 120 138 129 120 139 129 119 138 129 118 137 129 119 135 129 118 135 130 117 133 128 118 132 128 118 133 128 118 133 129 117 132 128 117 131 128 119 131 128 123 132 130 124 132 131 126 132 132 128 130 132 131 129 131 132 127 130 134 132 115 131 132 115 129 132 114 128 134 115 128 134 117 130 135 118 131 136 118 133 136 117 134 136 117 134 137 116 134 138 116 134 139 116 132 139 116 131 140 116 131 140 116 131 139 116 132 137 116 132 135 116 132 135 116 132 134 117 131 134 118 131 136 119 131 137 119 130 138 120 129 137 121 127 137 121 126 138 123 125 139 125 124 140 127 122 138 128 122 138 130 121 140 130 120 139 129 118 138 129 118 137 129 118 136 129 118 136 129 117 134 128 116 133 127 116 133 127 116 132 127 115 132 127 117 131 127 118 130 127 120 131 128 121 132 129 124 131 130 127 131 130 130 130 129 132 128 129 133 134 114 131 135 114 129 135 114 128 136 115 127 137 117 129 137 119 130 138 118 131 139 117 133 139 117 133 140 117 133 141 116 132 141 116 131 142 117 130 142 116 130 140 116 130 139 117 131 137 116 131 135 116 132 135 115 132 134 117 131 134 117 131 136 117 130 135 119 129 136 119 128 137 120 128 137 122 127 138 124 125 139 126 124 140 127 123 139 128 123 138 129 122 139 128 120 139 129 119 138 129 118 137 129 118 137 129 117 136 127 116 134 126 115 134 127 115 133 127 114 132 127 114 131 126 116 131 126 117 131 125 118 131 124 120 131 125 123 131 126 127 131 127 130 130 126 133 129 126 134 137 113 130 137 114 129 137 114 127 138 115 127 139 117 127 140 118 129 141 119 130 142 118 131 143 118 132 143 118 132 144 117 131 144 116 131 143 116 130 143 116 131 141 116 131 139 117 132 139 117 132 138 116 132 137 116 131 135 117 129 134 117 129 134 116 128 134 117 126 135 118 127 135 120 126 135 121 126 137 123 124 138 125 124 138 126 124 139 127 123 138 126 123 139 126 120 138 128 119 138 128 119 137 128 117 137 127 116 135 126 114 134 126 114 134 126 114 133 126 113 132 125 114 131 124 115 130 123 116 131 122 118 131 121 120 130 122 122 130 123 126 131 124 129 130 123 132 130 125 134 140 111 129 140 111 129 139 112 127 140 114 127 140 117 127 141 118 128 142 119 129 142 119 130 144 118 131 145 118 131 145 118 131 144 117 131 143 116 131 143 117 131 142 116 131 140 117 131 139 118 130 138 117 129 137 116 129 136 117 128 135 115 128 134 116 126 134 115 125 135 117 126 135 119 124 135 120 124 136 121 124 137 123 123 137 124 124 137 124 124 137 124 123 137 124 121 136 126 119 135 128 118 135 128 117 135 127 115 135 124 114 134 124 115 134 124 114 133 124 113 132 123 114 131 123 115 130 121 115 131 120 117 132 119 119 131 120 122 131 121 125 131 120 128 130 121 130 129 121 132 142 109 128 143 109 128 142 111 127 141 113 127 141 116 126 143 118 127 143 120 128 143 120 129 145 119 130 146 119 130 146 119 131 144 119 131 143 118 131 142 117 131 141 117 130 141 118 130 140 118 129 139 118 128 139 117 128 138 116 128 137 116 127 136 115 125 135 116 125 135 117 123 135 118 122 135 120 123 136 121 122 137 120 122 137 121 123 135 122 123 135 122 123 134 122 122 133 124 120 133 126 119 133 127 118 134 126 116 135 123 115 135 123 115 134 123 114 134 123 114 132 122 114 130 121 115 130 119 115 131 118 117 132 117 118 131 118 122 133 118 125 132 119 126 131 118 129 130 119 131 143 108 127 144 109 128 142 110 128 142 113 127 142 116 126 143 119 126 144 120 125 144 121 126 145 122 126 145 120 127 145 120 130 145 120 130 144 119 130 143 118 129 143 118 128 143 118 129 143 119 128 142 118 127 141 117 127 140 117 126 139 117 126 137 116 125 137 117 124 136 118 122 135 119 122 136 120 122 137 120 122 137 120 122 136 120 122 134 120 123 134 121 122 133 122 121 132 122 121 133 124 119 132 124 117 133 124 115 132 124 114 132 124 114 132 123 115 133 122 115 132 122 115 131 121 116 132 119 116 132 117 117 133 116 118 133 116 121 134 117 124 134 117 126 133 116 128 133 117 130 