P3
50 50
255
168 107 79 168 107 79 168 106 80 168 107 82 168 106 82 168 106 82 169 106 81 169 107 82 171 110 82 172 111 83 173 111 84 173 111 85 174 111 85 175 110 85 176 109 85 178 109 84 179 109 83 183 109 82 186 110 81 187 110 80 188 110 81 188 111 81 189 112 80 191 113 80 192 114 79 192 117 79 190 118 80 188 119 79 188 120 79 186 121 78 187 121 78 188 120 78 190 118 77 190 116 77 190 116 76 190 116 77 191 116 78 192 115 80 194 115 82 195 115 81 194 116 80 192 116 79 192 114 78 194 111 77 195 109 76 194 108 77 193 106 77 190 105 78 189 106 79 188 107 80 167 107 79 168 107 79 168 105 80 168 106 81 168 106 82 167 106 82 168 107 82 170 108 82 172 110 82 173 112 82 174 111 84 173 111 86 174 112 85 175 111 86 176 110 86 177 111 85 180 111 84 184 111 83 186 111 82 187 112 82 188 112 81 189 113 80 190 113 79 193 113 79 194 114 79 193 116 80 191 117 80 189 117 80 188 118 79 187 118 79 189 118 79 190 117 79 191 116 78 192 114 77 191 114 77 192 114 78 193 114 79 194 113 81 196 113 82 196 114 81 196 114 81 195 113 80 195 111 78 195 109 78 195 108 77 195 106 77 195 103 77 193 103 78 190 103 79 189 104 81 168 106 81 169 107 80 168 106 82 168 106 83 168 107 83 167 107 83 168 108 83 170 109 83 172 111 82 174 112 83 174 111 84 173 111 86 175 112 86 177 112 86 177 112 86 178 112 86 180 113 85 183 113 84 185 113 83 188 114 81 190 113 80 191 113 79 193 112 79 195 112 79 195 112 80 194 114 79 192 115 80 191 115 80 190 116 79 189 116 79 190 115 79 192 114 80 193 114 80 192 113 79 193 113 80 193 112 80 194 112 80 196 112 82 197 112 83 197 112 82 197 112 82 197 110 80 197 108 79 195 107 78 195 105 78 195 104 79 195 102 78 194 102 79 192 102 81 191 101 82 169 105 82 169 106 82 169 105 83 169 106 83 168 108 84 167 109 85 168 110 85 170 111 84 172 111 84 174 112 84 174 112 85 174 112 86 175 112 87 178 113 86 179 113 86 181 113 86 181 115 86 183 115 85 185 114 83 188 115 82 192 114 80 193 114 79 195 113 79 196 112 79 195 112 80 195 113 81 195 112 81 194 113 81 192 114 79 191 113 79 191 113 79 192 112 79 193 112 80 194 112 81 194 111 81 193 110 81 194 110 81 196 110 82 197 110 82 197 110 83 197 109 81 198 108 81 197 107 79 195 104 79 195 102 78 195 102 79 196 102 79 196 101 80 194 101 82 193 101 83 169 105 83 170 105 83 170 105 83 170 106 84 169 107 85 168 110 86 168 112 86 170 112 85 172 112 86 174 112 85 175 112 86 177 113 86 178 113 86 178 114 87 180 114 86 183 116 85 182 116 85 183 116 84 186 116 83 189 116 82 191 116 80 193 116 79 196 114 78 196 112 79 196 112 80 197 112 81 197 111 82 197 112 82 195 112 81 195 112 79 194 111 79 193 110 79 195 111 80 195 110 81 194 110 80 195 110 80 197 111 81 199 110 82 199 108 82 198 107 81 197 106 81 197 106 81 196 104 80 196 101 80 196 101 79 197 102 79 198 101 79 197 99 80 196 99 82 195 100 84 169 107 83 170 106 84 170 106 84 170 106 85 170 108 86 169 109 87 169 111 88 171 112 87 172 112 86 174 113 86 176 114 86 178 114 86 180 115 85 180 115 86 182 116 85 184 116 84 184 116 83 185 117 83 187 117 82 188 117 81 190 117 80 192 115 80 194 113 79 196 112 79 198 111 79 199 111 80 199 111 81 199 111 82 198 110 82 196 110 81 196 110 80 196 109 79 196 109 80 196 109 80 197 110 80 198 109 80 199 110 80 201 108 81 198 107 81 198 106 81 196 105 80 196 103 80 196 101 82 197 101 81 198 101 81 200 101 81 201 100 81 199 98 81 198 98 81 197 99 84 169 108 83 169 108 84 170 108 85 171 108 86 171 109 87 170 110 88 170 112 88 172 113 88 173 114 87 175 114 87 178 114 87 180 114 86 180 115 85 181 116 85 183 116 86 185 116 85 186 116 83 186 117 84 186 118 83 187 118 81 189 116 81 190 115 81 192 114 80 194 114 80 197 111 79 198 111 80 200 110 81 199 110 80 199 110 81 197 109 82 197 109 80 197 108 80 197 108 79 198 108 78 198 108 79 199 107 79 201 108 79 201 106 79 199 105 79 197 104 79 196 102 79 197 101 79 198 100 81 199 99 81 201 100 83 202 99 82 202 98 82 202 97 83 201 96 83 199 97 84 170 110 83 169 109 84 170 109 85 171 109 86 171 109 87 171 110 87 172 112 86 174 113 87 175 114 87 177 114 87 179 114 87 182 115 87 182 116 85 183 116 85 183 116 85 185 116 84 186 117 82 186 117 83 187 118 82 187 117 81 188 118 80 190 117 81 192 115 80 194 113 79 196 112 78 198 110 79 200 109 81 200 108 81 199 109 81 198 108 82 198 108 80 197 107 80 198 107 80 200 106 79 200 106 79 201 106 79 202 106 77 201 104 77 200 104 78 198 102 78 197 101 78 197 99 77 199 97 79 200 97 81 202 98 82 202 98 83 203 97 82 204 96 82 204 95 83 201 95 84 171 109 83 171 110 84 172 111 85 171 111 85 172 111 86 173 111 87 174 113 86 176 115 86 178 114 87 180 114 87 182 114 88 184 114 87 184 116 86 184 115 85 185 115 84 185 116 83 186 117 82 187 117 81 187 116 80 187 117 80 189 117 78 191 118 78 193 116 78 194 113 77 197 112 77 198 110 77 199 108 80 201 107 80 201 108 81 200 107 81 198 106 80 198 105 79 199 104 79 201 104 80 200 104 78 201 104 77 201 103 75 200 101 76 200 101 76 198 100 76 197 99 77 197 97 77 199 95 79 202 95 79 203 96 81 203 96 83 205 96 82 205 94 82 205 93 83 204 93 85 173 110 84 173 110 84 173 111 84 173 111 85 174 111 85 175 113 86 177 114 86 179 115 85 181 116 86 182 115 86 185 115 87 186 115 87 186 115 86 186 114 84 186 115 84 187 115 83 188 117 82 188 115 80 188 115 78 189 116 77 189 116 75 192 117 75 193 116 75 194 115 75 196 113 75 197 110 78 200 107 78 202 106 79 202 106 80 200 106 81 199 105 81 199 104 80 200 103 80 202 102 79 201 102 78 201 102 76 200 102 76 199 100 76 199 99 75 198 98 76 198 96 77 199 95 79 200 94 79 202 94 79 203 94 80 205 94 82 207 94 83 207 93 84 207 92 85 205 93 87 174 113 82 174 113 83 174 113 84 175 113 85 175 113 85 177 114 85 179 116 85 181 116 85 183 116 85 185 114 86 187 114 87 188 115 86 189 115 84 190 116 83 190 115 82 190 114 82 190 115 82 190 114 80 190 115 77 190 115 76 191 116 74 193 116 73 195 115 74 195 115 75 196 113 76 197 109 78 200 107 78 202 105 79 202 106 80 200 105 82 199 106 81 199 105 79 200 103 80 201 102 80 201 102 78 200 101 76 199 100 76 199 100 76 198 98 76 198 97 77 198 96 78 199 94 81 201 95 81 202 94 82 204 93 83 207 93 82 208 93 84 208 93 87 207 93 87 206 94 89 175 115 82 175 115 83 176 116 84 177 115 84 177 114 85 179 115 84 182 116 84 183 116 85 185 115 85 188 114 85 189 115 85 190 116 84 191 116 83 192 115 82 193 115 82 193 113 81 193 114 79 193 114 78 192 115 77 193 116 76 194 115 74 195 115 73 196 115 72 195 114 74 196 113 76 199 110 77 201 107 78 202 106 79 202 106 79 201 108 80 200 106 79 199 104 80 200 103 80 200 102 80 200 101 78 199 101 77 199 100 77 199 98 77 198 97 78 198 96 79 198 95 80 199 94 81 201 93 83 203 92 84 205 93 85 208 93 86 208 92 87 208 93 89 208 94 90 206 94 92 175 116 82 176 115 82 177 115 83 177 114 83 178 115 83 181 117 84 183 117 85 184 116 84 186 115 84 188 115 85 190 116 84 191 116 83 192 116 82 194 116 82 195 114 81 196 113 80 196 114 79 194 115 78 195 116 77 196 116 76 197 116 75 197 116 74 197 116 73 197 115 74 199 113 75 200 111 77 201 108 79 202 107 78 203 109 79 201 109 80 201 107 80 201 105 80 199 103 80 199 102 80 200 101 79 199 99 78 199 98 77 198 96 78 198 95 79 198 94 82 198 93 83 199 93 84 202 93 86 205 91 87 207 92 88 209 93 89 209 93 91 209 94 92 209 93 93 207 93 95 175 115 82 177 116 82 178 116 83 178 116 83 179 117 83 182 117 85 184 117 85 185 116 84 186 115 84 189 116 84 190 116 83 192 116 82 193 115 82 193 115 81 195 114 81 196 114 80 197 114 79 197 115 78 198 117 77 198 117 76 198 117 76 198 117 75 198 118 73 198 116 74 199 113 75 200 112 77 201 111 78 202 111 78 203 110 79 202 110 80 201 108 79 200 105 80 199 104 80 199 101 79 200 98 80 199 97 80 198 95 80 198 93 82 198 93 83 199 93 84 199 94 85 200 94 87 203 92 88 204 91 89 207 92 90 209 92 92 210 93 95 209 93 95 208 93 95 207 92 96 175 114 82 176 115 83 178 116 84 180 118 84 181 118 83 183 118 85 185 117 85 187 116 84 188 115 83 190 115 83 191 115 83 192 116 82 192 115 80 193 115 80 195 115 79 196 114 79 197 114 78 198 116 78 198 117 78 199 117 77 198 117 76 197 117 77 197 117 75 198 118 75 198 116 76 199 113 77 201 112 78 202 111 79 203 111 79 201 109 80 200 108 80 199 105 81 198 102 81 197 98 81 197 96 81 198 94 82 198 93 83 198 91 84 198 92 85 199 92 85 200 94 87 202 94 89 204 93 91 205 92 92 206 92 93 209 93 94 209 92 96 210 92 98 208 92 98 206 93 98 175 114 83 176 115 84 179 117 84 180 118 83 182 118 84 183 118 84 186 117 85 188 116 84 190 115 83 192 115 84 192 115 83 192 115 82 193 117 80 194 118 78 194 117 80 195 116 79 197 116 78 197 116 77 198 117 78 197 118 77 197 119 77 197 119 77 196 119 76 197 119 76 198 118 77 200 116 79 200 113 79 202 113 80 202 111 80 202 110 81 200 108 80 199 105 82 197 102 83 196 97 83 197 94 83 199 92 85 198 92 85 198 91 86 198 91 87 199 92 88 201 93 90 203 94 91 205 93 93 206 92 94 208 92 96 209 93 96 209 93 97 209 93 99 207 93 100 206 93 100 174 115 84 176 115 85 178 116 85 180 116 85 182 116 86 184 116 86 187 117 84 189 116 83 191 116 83 191 116 83 191 116 81 192 117 82 192 117 80 193 118 79 194 118 79 194 119 80 195 118 78 196 118 78 195 119 78 195 119 79 195 120 78 195 120 77 195 120 76 195 119 76 197 118 77 200 118 80 201 115 81 200 113 81 201 111 82 201 108 83 199 108 82 198 105 83 196 102 84 196 97 84 197 93 86 198 91 87 198 91 88 198 89 88 199 90 91 199 91 92 200 92 94 202 92 93 204 93 95 206 93 96 208 92 98 209 93 98 210 94 99 209 95 99 207 94 99 205 93 100 172 115 87 174 115 87 177 116 87 178 116 87 181 115 87 184 115 86 188 116 84 190 116 84 191 116 84 191 116 83 191 116 81 190 117 81 191 117 80 192 118 79 193 118 79 194 119 80 195 119 79 195 119 80 194 120 80 193 120 79 194 121 79 193 120 78 193 121 77 194 121 77 196 120 79 198 118 80 199 115 81 199 112 82 199 110 82 199 108 83 198 107 83 197 105 84 198 101 85 198 97 87 198 93 89 198 91 89 198 90 90 199 88 92 200 89 93 200 90 95 200 90 95 202 92 96 204 93 98 206 93 98 206 94 99 207 95 99 208 95 100 207 96 100 206 95 100 204 94 101 171 117 89 173 117 89 175 117 88 178 116 87 180 115 87 183 114 86 186 115 85 188 116 84 190 116 84 190 117 83 190 118 81 190 119 81 190 118 80 192 118 80 193 118 79 193 120 81 194 119 81 193 118 79 192 120 79 192 120 79 192 121 79 192 121 79 192 122 79 193 122 79 195 121 80 196 120 80 197 116 81 197 112 82 197 110 83 198 108 83 197 107 84 197 104 85 198 100 86 198 97 89 199 93 91 199 90 92 199 88 94 199 88 95 200 89 96 199 91 97 200 91 98 201 93 99 203 94 100 205 94 100 205 94 101 206 94 102 206 95 103 205 96 102 205 96 103 205 94 105 170 117 90 170 117 90 173 117 90 175 116 89 178 115 88 180 114 86 184 115 86 186 116 84 188 118 84 188 119 83 190 119 83 190 118 82 190 117 81 191 117 80 192 118 80 191 120 81 191 120 81 191 119 81 191 120 80 190 120 80 191 122 82 191 122 82 192 122 82 193 122 82 193 122 82 195 120 81 195 116 82 195 113 83 196 110 84 196 108 85 197 105 85 197 103 87 198 99 89 199 97 90 199 94 92 199 91 93 200 88 96 199 89 97 199 90 98 199 91 99 199 91 101 201 93 101 202 95 102 203 95 102 204 94 105 205 95 107 205 94 107 205 96 107 204 95 107 205 94 108 168 116 91 169 118 91 171 117 91 173 117 90 176 115 89 180 115 87 182 116 86 185 116 86 186 118 86 188 119 84 189 119 85 190 118 85 190 117 83 190 118 82 190 120 82 190 120 82 188 121 83 188 121 83 188 121 83 187 121 83 189 123 84 190 123 84 191 122 85 193 122 84 193 121 84 193 119 84 194 117 84 194 114 84 195 110 86 195 107 87 197 104 88 197 102 89 199 98 90 200 96 91 199 93 93 199 91 94 200 89 97 200 89 100 200 90 102 200 92 103 199 93 104 201 95 104 201 95 105 201 95 107 204 95 110 204 96 111 204 95 111 204 95 112 204 95 111 205 95 111 165 117 93 167 119 92 169 118 92 172 117 92 174 117 90 178 117 89 181 118 88 184 117 87 186 118 86 187 120 86 188 120 86 189 119 87 189 119 87 189 120 86 188 121 85 188 122 85 187 122 85 187 121 85 186 122 86 186 123 85 186 124 85 189 124 86 190 124 87 191 123 86 192 122 86 192 119 87 193 116 86 193 114 87 195 111 88 195 107 89 197 103 90 198 101 91 199 97 93 199 95 94 200 93 96 200 92 98 201 90 100 201 91 101 200 92 104 199 93 106 199 94 107 200 95 107 201 96 109 202 96 112 202 96 114 203 97 115 203 95 114 204 95 114 204 96 114 204 95 114 165 119 94 165 120 94 168 120 94 170 119 95 173 120 93 176 119 93 179 118 91 182 119 89 184 120 88 185 121 88 186 122 88 187 122 88 187 122 89 187 122 89 187 123 88 186 124 87 187 123 88 186 123 87 185 123 88 185 123 88 186 124 88 187 125 88 188 124 87 190 123 87 191 121 88 191 120 88 192 115 88 193 113 89 194 112 91 195 109 92 197 105 94 197 101 94 197 97 96 198 95 98 200 94 99 201 93 100 201 92 103 200 93 105 200 93 107 199 94 109 199 94 110 199 94 112 201 95 115 202 95 116 202 96 117 202 97 118 203 96 118 203 96 117 203 95 117 204 95 117 164 119 96 165 120 96 167 121 97 169 122 96 171 121 96 174 121 94 177 121 93 180 122 91 180 124 91 181 124 91 181 124 92 183 124 92 184 124 91 185 124 91 186 125 91 185 125 90 186 125 92 185 125 92 185 124 91 184 125 91 185 125 90 185 126 89 187 124 90 188 122 90 190 121 89 190 118 90 191 115 90 192 113 92 193 112 94 195 109 97 196 106 97 197 102 98 197 98 99 199 95 101 200 94 103 201 93 104 201 92 107 201 92 108 200 92 110 200 92 113 200 92 115 200 93 117 199 93 119 200 93 120 202 94 121 202 97 122 202 96 122 203 96 122 203 94 121 203 94 122 165 119 98 165 121 97 166 122 98 168 123 98 170 123 98 173 123 96 174 124 94 176 126 94 177 126 95 178 127 95 179 126 95 179 126 95 180 126 94 181 126 93 183 127 92 183 127 92 184 128 93 183 128 93 184 127 93 184 127 93 184 126 92 184 127 91 185 125 91 187 124 91 188 121 92 188 118 92 189 114 93 190 111 95 192 111 97 193 110 100 194 107 100 195 103 102 196 100 103 198 98 104 199 96 106 199 93 108 200 92 110 201 92 112 201 90 114 200 90 117 200 91 118 199 91 121 198 91 123 199 92 124 200 94 125 202 96 126 202 96 126 203 95 125 202 94 127 203 92 127 164 119 98 165 121 99 165 123 100 166 124 100 168 124 99 170 125 97 171 127 96 173 127 96 175 129 97 176 129 96 177 128 97 177 127 97 179 128 97 180 127 96 181 127 95 181 129 94 181 131 94 182 130 95 182 128 95 183 128 95 183 128 95 183 127 94 185 125 93 187 124 93 188 121 94 188 118 94 188 114 95 189 111 98 190 110 100 191 109 103 192 107 103 193 104 105 195 101 107 197 99 109 196 97 111 197 94 113 198 91 114 200 90 117 201 89 119 200 90 120 200 89 122 200 89 124 197 90 126 197 91 127 199 92 129 199 93 129 200 94 129 201 94 131 200 93 133 201 92 133 163 119 100 163 121 101 163 123 102 165 126 102 166 126 102 167 126 101 169 128 99 171 128 99 173 129 98 175 129 98 175 128 99 175 128 99 177 128 100 179 128 99 180 128 98 181 130 98 181 132 97 181 131 97 182 130 97 181 130 97 182 128 97 182 127 97 184 126 96 186 125 96 187 122 97 186 119 96 187 115 98 188 111 101 189 109 103 190 109 106 191 107 108 191 104 110 193 101 112 194 100 115 194 98 117 196 94 118 197 91 119 199 88 120 199 89 122 200 89 123 200 89 125 198 90 127 197 90 129 195 90 131 197 91 131 199 92 131 199 93 132 201 93 134 201 92 136 201 91 136 162 120 103 162 122 104 163 123 104 163 126 105 164 127 104 165 127 103 167 127 102 170 128 103 172 129 102 172 129 100 172 130 100 174 130 101 175 129 102 177 128 103 178 129 103 179 132 102 181 134 101 181 133 100 182 132 101 182 131 100 182 129 100 182 129 100 183 128 99 184 126 98 185 123 99 185 119 99 185 116 101 187 113 103 189 110 105 190 110 109 190 108 112 190 106 115 190 103 117 192 101 120 193 98 122 195 94 122 195 91 123 197 88 125 197 86 126 199 87 127 199 88 128 197 89 130 195 90 132 195 91 134 196 91 134 198 91 134 200 91 135 201 91 136 201 91 137 201 90 138 161 121 105 160 123 107 161 124 107 162 125 106 163 127 106 163 128 106 165 127 106 168 127 106 169 128 105 170 131 105 171 131 105 172 132 104 174 130 105 175 129 106 176 131 106 177 133 105 179 135 105 180 134 104 180 134 104 180 133 104 180 132 103 181 130 102 182 130 101 183 127 100 183 123 101 183 119 103 184 116 103 186 114 106 187 112 108 188 110 110 188 109 114 188 108 116 188 106 120 190 102 123 192 99 125 194 96 125 194 92 127 195 88 128 197 86 129 196 87 130 197 88 131 196 88 133 195 89 135 195 90 136 196 90 137 200 89 136 200 89 136 200 89 138 200 90 139 201 90 140 157 121 109 158 124 110 159 125 110 160 127 109 161 127 108 161 128 109 163 128 109 165 127 108 167 128 108 168 130 107 168 132 108 169 132 108 170 131 108 172 131 109 174 132 109 175 134 109 176 135 109 178 136 108 178 135 107 179 135 106 179 135 105 181 133 105 181 131 104 181 127 104 181 124 104 182 121 105 183 117 106 185 115 108 185 113 110 186 112 113 186 110 116 186 110 118 187 107 122 189 104 125 191 100 128 193 97 128 193 92 129 195 89 130 196 87 131 197 87 133 196 87 134 195 87 136 195 87 137 195 89 138 198 89 138 200 90 138 200 90 139 201 89 140 200 89 141 200 89 141 155 124 112 156 125 113 156 126 113 157 127 113 159 127 112 161 127 112 162 127 110 163 127 110 165 128 110 166 130 110 166 130 111 167 132 111 167 132 110 170 132 111 170 132 111 171 132 112 173 134 112 175 136 111 175 136 109 177 137 108 179 136 108 179 134 107 180 131 107 180 128 106 179 125 107 180 122 108 181 119 109 182 116 112 183 114 113 183 112 115 184 111 118 185 111 121 186 108 125 187 103 128 190 100 131 192 98 133 192 94 133 193 90 133 194 90 135 195 89 137 195 87 137 194 87 137 195 87 138 196 89 139 197 91 140 200 91 140 200 91 141 200 90 143 200 90 144 199 90 144 154 126 117 155 127 117 156 128 117 156 129 115 158 129 115 159 128 114 161 128 113 162 128 112 163 128 113 163 128 114 163 130 115 163 131 114 165 131 113 166 131 113 167 130 113 168 132 115 169 134 114 172 136 113 174 137 112 176 137 111 177 136 110 177 134 109 177 131 110 177 128 110 176 126 110 178 123 111 178 121 113 180 118 115 181 117 115 183 115 117 183 113 120 184 111 124 184 107 127 185 104 131 188 101 133 189 99 135 191 95 136 192 93 137 193 91 138 194 90 140 195 88 140 195 87 140 194 88 140 194 89 141 196 92 142 198 93 142 198 93 143 199 92 144 198 92 146 196 91 146 152 127 122 153 129 122 155 129 120 156 128 119 156 128 118 157 128 115 158 128 115 159 128 115 159 127 116 160 127 117 160 129 118 161 130 117 162 131 116 162 131 115 164 130 115 165 130 116 167 133 116 169 136 116 171 137 116 173 136 115 173 135 114 174 133 113 175 131 113 174 129 113 174 126 114 175 124 115 176 122 116 178 119 117 179 118 118 182 116 119 183 113 121 184 109 126 185 106 129 185 105 132 185 102 135 187 100 137 189 98 139 190 94 140 191 93 142 192 92 142 193 90 142 193 88 143 193 88 142 194 89 142 195 92 144 195 94 145 196 94 145 198 94 148 197 94 149 195 92 149 152 128 125 153 130 123 153 129 122 155 129 121 156 129 120 156 129 118 156 129 117 157 128 117 156 128 119 157 128 120 158 129 120 157 130 120 158 131 118 158 131 118 161 130 118 163 130 118 165 132 119 166 135 119 168 136 119 169 136 118 169 134 118 170 132 117 171 130 115 172 128 115 173 127 117 173 125 118 175 122 118 176 120 120 177 119 121 179 117 122 181 114 124 182 110 128 183 106 131 184 104 136 185 102 138 186 101 141 187 98 142 188 95 144 188 94 145 190 93 145 190 91 145 192 90 147 192 90 146 191 91 145 192 93 146 192 94 147 194 95 148 195 95 149 196 94 151 194 92 150 153 129 125 153 129 124 154 129 123 154 129 122 156 130 121 156 129 121 156 130 120 154 128 120 154 128 120 155 128 121 156 130 122 155 131 121 155 132 121 155 131 122 158 130 122 160 131 122 163 132 122 165 134 121 166 134 121 167 135 121 167 134 121 167 133 120 167 131 119 169 129 118 170 128 118 171 125 119 172 123 120 175 121 122 175 119 124 176 118 125 178 114 127 179 110 129 181 106 133 180 103 138 181 102 140 183 100 142 184 99 144 185 96 147 186 95 149 188 94 148 189 94 149 189 93 149 190 93 148 189 93 148 189 94 148 190 95 150 192 97 151 194 96 152 194 95 153 193 94 152 152 129 127 154 130 125 154 130 124 154 131 122 155 132 122 155 131 122 155 132 122 154 130 122 153 129 121 153 130 123 154 131 124 154 132 123 153 133 123 154 132 125 156 131 124 159 131 124 162 132 124 163 133 123 164 133 122 164 133 122 163 133 123 163 132 122 164 131 122 166 130 122 168 128 122 169 125 122 171 123 123 172 120 125 173 120 126 173 117 128 173 114 131 176 109 133 177 106 136 177 103 140 177 101 142 179 100 145 180 98 147 182 98 150 183 98 151 185 97 152 186 96 153 187 96 153 187 96 152 186 96 151 186 96 151 188 97 151 189 97 153 191 97 154 191 98 155 191 97 155 151 130 127 152 130 126 153 131 125 153 132 123 154 132 123 155 133 123 154 133 123 153 133 122 152 132 122 152 132 123 153 133 125 152 133 125 153 133 126 153 132 126 154 131 126 156 131 126 158 132 126 160 132 126 161 132 124 161 132 124 161 132 124 160 132 124 162 131 125 162 129 125 164 127 126 167 125 126 168 123 128 169 121 129 169 119 130 169 117 131 171 114 134 173 111 137 174 108 140 175 104 142 175 102 144 175 99 147 177 100 150 179 99 152 180 99 154 181 99 155 182 99 156 184 98 156 183 98 156 184 97 154 184 98 153 185 98 154 186 98 155 188 98 154 189 98 156 189 98 157 150 131 128 150 131 128 150 132 128 151 132 125 152 133 125 153 133 125 153 134 125 151 133 124 150 132 125 150 133 126 151 134 126 152 133 127 153 133 127 154 132 128 154 132 128 154 132 127 155 133 127 158 133 128 159 131 127 159 130 127 159 131 127 158 130 127 160 130 128 160 129 130 162 126 131 164 124 131 166 122 133 166 120 133 165 118 134 167 116 136 169 115 139 170 113 141 171 109 144 172 106 146 172 102 146 173 100 150 174 100 153 177 100 155 177 100 157 178 100 158 179 100 159 181 100 159 180 99 158 181 99 156 183 99 155 183 99 155 184 99 156 185 99 156 186 98 158 187 99 159 147 131 131 147 132 131 148 134 130 150 134 129 150 134 128 150 133 127 149 134 127 150 135 127 149 134 127 149 134 128 151 135 128 152 136 129 153 135 130 152 134 130 152 134 129 153 134 130 155 135 131 157 135 131 157 133 131 157 130 130 157 129 130 158 129 131 158 129 132 158 127 133 159 126 136 162 125 137 164 123 138 164 121 138 164 119 139 165 117 142 167 116 144 168 114 146 168 110 149 168 107 150 169 104 150 169 103 152 171 101 155 173 100 157 174 100 159 175 102 161 176 101 161 178 100 161 177 100 159 178 100 158 180 100 158 182 100 157 183 101 158 184 100 159 185 99 160 185 98 161 146 131 132 146 134 131 147 135 132 147 134 132 148 134 130 148 134 130 147 133 130 147 134 130 147 135 130 147 137 130 149 138 130 150 138 130 151 137 131 151 135 131 150 135 131 151 136 132 153 136 134 154 135 134 155 133 133 155 131 132 157 129 133 156 129 134 156 128 135 156 126 137 158 125 139 161 124 142 161 123 144 162 122 144 163 120 145 164 119 147 165 117 149 165 114 151 165 111 152 166 109 154 166 106 155 167 104 156 168 102 157 169 101 160 171 101 162 172 103 164 172 102 165 174 102 163 175 102 161 176 102 160 178 103 159 181 101 160 183 100 160 183 100 161 184 99 162 185 98 164 145 133 133 145 135 132 145 135 133 145 134 132 145 134 132 146 135 132 146 134 132 145 135 132 145 136 132 145 138 131 146 140 130 146 139 130 147 138 131 149 137 132 148 136 132 148 136 135 150 137 136 152 135 136 154 132 136 155 130 135 156 129 136 155 129 137 155 127 138 157 126 140 159 125 142 160 124 145 161 123 148 160 123 149 161 121 150 162 120 151 163 119 152 163 114 155 164 112 156 164 109 157 165 106 159 165 103 160 165 102 162 167 102 163 168 102 165 169 103 167 170 104 167 170 104 165 171 103 163 171 103 162 175 103 162 179 102 162 182 100 163 183 98 164 184 98 165 186 98 166 144 135 134 143 136 134 142 136 134 142 135 134 143 135 134 144 136 135 144 135 134 145 136 134 145 137 134 145 140 133 145 140 132 144 140 131 145 139 131 145 138 132 147 137 135 146 137 137 148 137 138 149 134 139 152 132 138 153 130 139 154 129 139 153 128 141 155 127 141 157 125 143 158 125 145 160 124 147 160 124 150 159 124 151 160 123 153 160 122 154 160 119 155 161 116 157 163 113 158 164 110 159 163 107 160 163 106 163 163 104 166 165 103 166 166 104 167 167 104 169 167 106 169 168 106 166 169 106 164 169 104 164 172 103 164 177 101 164 180 100 165 182 99 166 184 98 167 187 97 168 143 135 135 142 137 135 141 136 135 140 136 136 140 137 136 140 137 136 142 136 135 143 137 135 145 138 136 146 140 135 145 140 134 144 140 132 143 139 133 143 139 133 143 138 135 144 137 139 146 136 140 147 134 141 149 131 141 152 130 142 152 130 144 152 128 145 153 127 146 155 127 146 156 126 148 157 126 150 157 126 152 156 126 154 157 125 156 157 123 158 158 121 159 158 117 158 161 114 159 162 110 161 161 109 162 161 107 166 161 106 168 162 105 169 163 106 171 163 106 171 165 107 170 166 107 167 167 106 166 167 106 166 170 104 166 175 101 166 179 100 166 182 99 168 184 98 169 186 97 169 141 135 136 140 137 136 139 137 136 138 137 138 137 137 138 138 137 137 140 137 135 142 137 135 144 139 136 144 139 136 145 140 135 143 139 135 142 139 134 141 139 135 141 139 137 143 137 141 144 135 143 146 133 144 147 131 144 149 131 146 151 131 149 152 130 150 151 128 150 151 128 151 153 127 152 153 127 153 153 127 154 154 127 156 154 126 158 154 123 159 154 121 161 155 118 161 158 115 161 160 113 162 160 111 164 160 109 168 160 107 170 159 107 171 161 106 172 163 106 172 164 108 171 164 108 170 165 106 170 166 105 168 169 103 168 173 101 167 178 100 167 181 99 169 184 97 170 186 96 170 137 135 136 136 137 136 136 137 137 136 138 138 136 139 138 137 137 137 140 137 136 141 137 135 142 139 136 143 139 138 144 138 137 143 138 137 141 137 136 142 138 137 141 138 138 142 136 142 144 135 145 145 133 147 146 132 148 147 132 149 148 132 152 149 130 154 149 129 155 148 128 155 149 127 155 151 128 156 152 128 157 153 127 158 153 126 160 151 124 162 152 122 164 155 118 165 158 116 164 158 114 164 158 112 167 158 110 170 159 108 171 159 108 172 161 108 174 163 107 172 163 107 173 163 107 173 165 105 172 167 104 171 169 102 170 173 101 170 177 100 169 181 99 170 184 98 171 187 96 171 135 134 137 134 136 137 134 136 137 135 138 138 136 139 138 138 138 136 140 138 135 140 138 135 141 138 137 142 137 138 143 136 138 142 135 137 142 136 138 141 136 138 140 136 141 141 136 144 142 135 146 143 134 149 145 133 151 145 133 154 146 133 155 147 131 157 146 129 157 146 129 157 146 128 157 148 128 158 150 128 160 151 127 161 151 126 161 150 125 164 151 122 165 153 119 167 155 118 166 157 116 166 157 113 167 157 111 169 159 110 172 160 110 174 161 109 176 162 108 175 162 107 175 162 107 175 163 105 174 165 104 173 169 103 172 173 102 172 177 101 172 181 100 172 186 99 171 187 97 171 133 132 138 132 134 139 133 135 139 134 137 139 135 139 138 138 139 137 139 139 136 140 138 135 141 137 137 142 137 138 142 136 138 142 135 139 141 134 140 141 134 141 140 134 143 141 135 146 143 134 149 143 133 152 144 132 156 145 133 159 145 133 160 145 132 160 144 130 160 144 129 160 144 128 159 145 128 161 147 128 162 148 128 163 148 128 164 149 125 166 149 124 167 150 121 168 152 119 168 154 117 168 156 114 169 157 113 171 159 112 174 160 111 177 161 110 178 161 108 177 161 107 177 162 108 176 163 106 175 165 104 176 168 104 175 173 103 174 177 102 175 182 100 174 186 99 173 187 97 172 131 130 140 130 131 140 131 133 139 132 135 140 134 139 139 136 139 138 137 140 137 139 138 137 140 137 138 142 137 138 143 136 140 141 134 141 141 133 141 140 133 143 141 134 144 142 134 147 144 133 151 144 133 156 144 133 159 145 133 161 144 133 162 143 132 163 142 131 163 142 130 163 142 129 162 142 128 163 143 129 163 144 129 164 146 129 166 146 127 167 146 125 167 147 123 167 150 120 168 152 117 169 155 116 171 157 116 173 158 113 176 160 112 178 160 111 179 160 109 178 160 107 177 162 107 177 164 107 177 166 106 178 169 105 177 173 104 177 176 102 177 181 101 175 184 99 173 186 98 172 129 130 140 128 131 140 129 133 140 131 136 139 132 139 139 134 140 138 136 139 139 136 139 139 138 138 140 140 136 140 141 134 141 141 134 142 140 133 143 140 132 144 140 133 147 141 133 150 143 133 155 145 133 158 145 133 161 144 133 162 143 134 165 143 132 166 141 132 166 140 133 165 140 131 165 139 130 166 140 129 165 141 129 165 143 130 167 144 129 167 143 127 168 144 125 168 147 122 169 150 119 171 153 117 172 155 116 174 156 113 177 157 112 179 157 111 179 159 110 179 159 108 178 161 107 178 163 107 179 166 107 179 169 105 178 174 103 178 177 103 178 180 102 177 182 100 174 184 99 172 129 130 139 127 131 140 127 133 140 129 136 139 131 138 138 132 139 138 133 139 139 135 139 140 136 138 141 138 136 142 139 133 142 140 133 144 140 134 145 141 133 146 141 132 149 142 133 153 143 133 157 145 134 160 145 133 163 143 134 165 142 133 168 141 133 168 140 133 168 139 134 168 138 134 167 137 132 168 138 132 168 139 132 168 141 131 168 141 130 169 141 128 170 141 126 170 144 124 172 148 120 174 152 118 175 153 117 176 154 115 177 155 114 179 156 112 179 157 111 179 159 110 179 161 109 179 163 108 180 166 106 180 169 105 179 174 103 180 176 103 178 178 102 177 179 101 175 182 100 173 