P3
50 50
255
65 95 135 65 97 137 65 97 138 66 96 138 67 96 140 66 98 141 66 100 141 66 101 143 66 103 145 67 104 145 67 104 147 66 103 150 66 102 152 68 102 154 68 101 154 68 103 153 68 103 154 68 103 154 69 104 153 69 104 154 70 105 154 69 106 153 70 108 153 69 110 151 69 111 150 70 114 150 69 117 151 68 118 151 67 120 149 65 123 150 62 125 149 59 127 148 57 129 147 57 131 147 57 132 147 55 134 145 54 136 145 54 138 145 53 140 144 52 141 143 51 143 142 51 145 143 52 147 144 52 149 144 53 152 144 54 154 144 55 157 143 54 157 144 53 159 144 53 161 143 64 93 136 64 94 138 63 96 139 64 96 140 65 97 141 65 98 141 66 99 142 65 100 143 66 101 145 66 103 146 66 103 147 65 104 150 65 103 151 67 103 154 67 102 154 67 104 155 67 104 154 67 104 154 68 104 154 68 104 155 69 105 153 69 107 152 69 108 152 68 110 151 69 112 151 70 115 151 69 118 151 68 120 150 66 122 151 64 123 151 61 125 150 58 128 149 55 130 148 56 132 148 56 133 148 54 135 147 53 137 145 53 138 145 53 141 144 52 142 143 51 143 142 52 145 143 52 147 144 51 149 144 52 152 143 53 154 142 53 155 142 52 157 142 52 158 141 52 161 142 63 91 137 62 91 138 61 92 140 63 95 141 64 96 141 65 98 142 65 99 142 64 100 143 64 101 145 65 102 146 64 103 147 65 104 150 65 103 152 65 103 154 66 104 155 66 105 154 67 105 154 68 105 154 68 105 154 68 107 155 69 108 154 69 109 153 68 110 152 68 111 152 67 113 151 68 116 150 67 118 150 65 120 150 64 122 151 62 124 152 59 127 151 57 129 150 55 132 150 54 134 149 54 135 149 54 137 148 53 138 147 51 139 146 51 141 145 52 142 143 52 144 142 51 144 143 50 146 143 51 148 145 53 150 144 53 153 142 53 155 141 52 157 141 50 158 140 51 160 140 61 89 138 60 89 139 60 89 141 62 92 142 64 94 141 65 97 142 65 98 142 64 100 143 62 101 143 63 101 144 64 102 146 65 101 148 65 103 151 65 104 153 65 105 154 66 106 154 66 107 155 67 106 154 68 108 154 68 109 154 67 111 154 68 112 153 67 113 153 66 114 153 66 116 151 66 119 151 66 120 151 64 123 152 62 125 151 61 126 152 59 129 152 56 132 151 54 134 151 53 136 149 53 139 148 53 140 148 52 140 147 52 141 145 52 142 144 52 143 143 52 144 143 50 144 143 50 146 144 51 148 144 52 150 144 53 152 142 52 154 142 51 156 141 50 158 140 51 160 140 59 88 139 59 88 139 59 87 141 61 90 142 63 92 142 64 95 142 64 97 142 64 99 142 63 99 142 62 100 142 63 100 144 65 100 146 64 102 150 65 104 153 66 105 153 67 106 154 67 106 155 66 108 155 67 109 155 65 111 154 65 113 154 66 114 154 65 116 154 65 117 153 64 119 151 64 121 151 64 123 151 63 125 151 62 127 150 61 129 150 59 132 151 57 134 151 54 137 150 54 139 149 53 140 148 53 141 146 53 142 146 52 144 145 52 145 144 52 145 143 52 145 144 50 145 145 50 147 145 50 149 144 51 150 144 52 152 143 52 154 142 51 155 140 50 157 141 51 160 141 57 85 139 58 85 140 59 86 141 60 88 142 62 90 142 63 93 141 62 95 141 63 97 140 64 98 141 63 98 141 63 100 142 64 101 145 64 102 148 64 103 150 65 104 152 66 106 153 65 107 154 65 109 154 65 112 154 63 113 154 62 115 155 63 116 156 62 118 155 63 119 153 63 121 153 63 123 152 62 126 151 62 128 150 61 130 150 60 131 150 60 134 150 57 136 149 55 139 149 53 141 148 53 141 147 53 142 146 53 144 145 52 146 145 52 147 144 52 147 145 52 146 145 50 147 145 50 149 145 50 151 144 50 151 143 51 152 143 52 152 143 51 153 142 51 155 141 52 159 141 57 82 138 57 83 139 57 84 140 58 85 141 60 88 140 61 91 138 61 94 138 62 96 138 63 96 140 64 97 142 63 98 143 63 100 146 64 101 147 63 103 149 64 105 151 65 106 153 64 108 153 62 110 153 62 114 153 61 115 154 60 117 155 60 118 155 59 120 154 59 121 154 60 123 153 61 125 151 61 128 151 60 131 150 60 131 150 60 134 149 59 136 149 56 138 148 54 140 149 53 142 149 53 143 147 53 145 146 52 146 146 52 147 146 52 149 145 51 149 146 52 149 146 51 148 145 50 149 145 50 151 144 50 152 144 50 152 143 50 152 143 51 153 143 51 155 142 51 158 140 56 81 138 57 82 138 56 83 139 57 85 139 58 87 139 60 90 138 62 92 137 62 93 138 62 94 140 63 96 142 63 97 144 64 99 146 63 102 148 62 104 149 62 106 150 63 108 151 63 109 153 61 111 153 60 114 153 59 116 154 58 118 154 58 120 154 58 122 153 58 123 153 59 125 153 58 127 151 58 131 150 59 132 150 60 133 150 60 134 148 59 136 148 57 139 148 54 141 150 54 143 149 53 145 149 52 146 147 51 147 146 51 149 146 52 150 145 52 149 145 52 148 146 51 149 145 50 149 145 50 151 145 50 152 144 50 153 143 48 153 143 48 154 142 49 156 141 51 159 140 57 80 139 56 82 139 56 84 138 57 85 138 58 88 138 60 90 138 62 91 137 63 92 137 63 93 140 62 96 142 63 97 145 64 99 146 63 101 149 62 105 151 61 108 151 61 110 152 61 111 153 60 113 153 59 114 153 58 117 153 56 119 153 56 122 153 56 124 152 56 126 152 56 127 151 58 130 151 58 133 151 58 134 149 59 135 148 59 136 147 59 137 147 58 139 148 56 142 149 54 143 149 53 145 147 52 147 146 51 149 144 51 150 145 51 150 144 50 150 144 50 150 143 50 151 143 50 151 144 51 151 145 51 153 144 50 154 143 48 155 142 47 156 142 48 159 142 51 160 142 55 82 140 55 83 140 56 84 138 56 87 137 57 89 137 59 90 137 61 91 137 62 92 137 62 93 139 63 96 142 64 98 144 64 100 146 63 102 149 62 105 151 61 108 150 60 110 152 58 113 152 57 114 153 56 116 153 56 119 153 55 122 153 55 124 153 53 125 152 54 128 152 54 130 151 55 131 150 57 134 150 56 135 148 58 136 147 58 136 146 57 137 147 57 140 147 55 142 146 53 144 145 52 146 143 51 148 143 52 150 142 52 151 143 52 151 142 50 152 142 49 152 141 49 153 141 49 153 142 50 153 142 50 155 143 49 157 143 47 159 143 47 160 142 49 161 142 52 162 143 55 82 139 55 83 139 56 84 138 57 87 138 57 88 137 58 89 137 61 90 137 63 91 137 63 93 138 63 96 140 63 99 143 64 101 146 62 103 148 63 105 149 62 108 150 59 110 152 57 113 153 55 115 152 54 118 152 53 120 152 54 123 152 54 126 152 53 128 151 52 129 150 52 130 150 53 132 149 55 133 148 55 135 148 56 136 146 54 138 146 54 138 146 55 140 144 54 142 144 54 144 144 53 146 142 52 148 141 51 150 139 51 151 140 51 152 140 49 154 140 47 153 140 47 153 140 47 153 140 49 155 140 48 157 142 48 159 144 46 163 143 47 164 143 49 165 142 52 165 142 56 82 138 55 81 137 56 83 137 57 85 137 58 87 137 58 88 136 59 89 136 61 91 137 62 93 137 62 95 139 61 98 142 62 101 144 62 104 147 61 106 148 60 109 149 58 111 151 56 113 152 54 116 152 53 118 151 53 120 150 52 123 150 52 126 150 52 128 150 50 129 149 50 131 149 51 131 148 51 132 147 52 133 147 53 135 145 52 137 145 50 139 144 51 139 142 51 142 141 53 144 140 53 146 140 51 148 138 50 150 138 49 153 139 49 154 139 48 156 139 46 156 138 46 155 138 46 155 138 47 156 138 47 159 140 47 162 141 47 164 143 47 166 143 48 167 141 50 168 140 55 83 137 55 82 136 55 82 135 55 83 135 55 85 135 56 86 136 58 87 136 59 90 136 61 92 137 61 95 137 60 97 140 59 100 143 59 103 145 58 106 146 57 108 147 55 111 148 54 112 150 52 114 149 51 116 148 52 120 148 51 124 147 50 127 147 49 130 147 48 130 147 48 131 147 49 131 147 49 132 146 49 134 145 50 136 143 50 137 143 49 138 142 49 140 141 49 143 139 50 145 138 52 147 137 50 149 137 50 151 138 48 153 139 47 155 138 46 156 136 46 157 135 46 156 135 46 156 135 46 159 135 47 162 136 46 164 138 46 166 140 47 167 141 47 170 139 49 171 138 55 83 136 56 83 134 55 83 134 54 83 133 54 84 134 56 85 134 58 87 135 59 88 135 59 91 136 59 94 138 58 97 139 56 99 141 55 103 143 55 105 143 54 108 145 53 110 146 51 113 147 51 114 146 50 116 145 50 120 145 48 124 145 48 126 145 47 129 146 46 131 145 46 131 145 46 132 145 46 133 144 47 135 143 48 137 142 49 139 141 47 140 140 46 142 139 47 144 137 49 145 136 51 147 136 49 148 137 49 150 138 47 153 138 46 154 135 45 157 134 45 158 132 45 157 131 45 158 132 45 161 132 45 163 134 44 165 135 45 167 137 47 169 138 47 171 137 48 172 137 55 85 133 55 84 134 55 84 134 53 84 134 53 84 133 55 86 135 56 86 135 57 88 135 57 90 137 57 93 137 55 97 138 54 99 139 53 102 140 52 104 141 51 107 143 50 110 142 50 112 143 50 115 143 49 117 143 48 120 142 47 124 143 46 127 144 46 128 143 44 131 143 44 132 142 44 133 142 45 135 142 46 137 140 47 139 140 48 140 140 46 142 140 46 144 138 46 144 135 47 145 135 48 146 135 47 148 135 47 149 136 47 151 135 45 153 133 45 156 132 45 158 130 45 158 129 44 161 130 44 162 129 44 165 130 44 167 132 46 169 135 47 170 135 48 171 135 48 172 136 55 85 132 55 84 133 55 83 133 53 83 133 52 84 133 53 85 134 54 86 135 55 88 135 55 91 136 55 94 136 53 97 136 52 99 137 51 102 138 51 104 139 50 107 139 49 109 139 47 113 139 47 116 140 48 118 140 47 120 139 48 124 140 47 127 141 45 129 140 44 131 139 43 132 140 43 135 139 45 136 139 45 139 139 46 140 139 46 141 139 45 143 138 46 144 137 46 144 135 46 145 134 46 147 134 46 149 133 46 150 133 46 151 133 46 153 131 45 155 129 46 157 127 44 158 127 44 160 127 44 163 127 46 166 127 46 168 128 47 171 131 48 171 131 49 172 132 50 172 134 55 84 131 56 83 132 55 82 133 54 83 133 52 83 135 53 84 135 53 86 136 54 89 135 55 92 135 53 94 135 52 96 134 50 99 134 50 101 135 49 104 135 49 106 136 48 110 136 46 113 135 46 115 135 47 118 135 47 120 135 46 123 136 45 126 137 44 128 136 44 131 135 43 134 136 42 136 136 43 138 137 44 139 137 44 141 137 44 141 138 44 143 137 44 143 136 44 145 134 44 146 132 45 148 132 46 149 132 46 150 132 45 152 131 45 153 129 45 154 128 45 156 126 44 159 125 42 162 125 43 164 126 45 166 126 47 168 127 48 171 128 49 172 128 51 173 130 52 173 133 56 83 130 56 82 131 54 82 132 53 82 134 53 83 135 52 84 135 52 87 134 52 89 134 53 92 134 52 95 133 51 96 133 49 99 133 48 101 133 49 104 132 48 106 133 47 110 133 45 112 133 46 116 133 47 119 132 46 121 132 45 123 133 43 125 134 43 127 134 43 130 133 42 133 132 41 135 132 41 138 134 41 140 135 41 141 135 41 143 135 41 145 135 40 146 135 41 146 133 42 148 132 43 149 132 44 150 131 43 151 130 43 152 129 44 153 128 43 154 127 42 156 126 40 159 124 42 163 124 43 166 125 44 168 125 47 170 127 49 171 127 50 173 127 51 174 129 51 174 131 56 82 127 55 81 128 54 80 130 53 81 133 52 82 133 51 84 133 50 86 133 51 89 133 52 92 132 51 95 132 50 97 132 49 99 131 47 102 131 46 105 130 47 108 131 47 111 131 46 114 130 46 116 130 46 118 130 45 120 130 43 122 130 42 125 131 41 128 131 42 130 131 42 133 130 40 135 130 40 138 133 39 141 133 38 143 133 38 145 132 38 146 133 37 146 133 38 148 132 39 148 131 40 149 131 41 151 130 40 153 129 41 153 128 41 155 127 41 156 126 40 157 125 40 159 124 42 163 124 43 166 124 44 169 125 46 171 126 48 172 126 49 173 127 50 175 129 49 175 131 56 80 127 55 79 127 54 79 129 53 80 130 51 81 131 50 83 131 49 87 131 49 90 131 50 93 131 50 96 130 48 98 131 47 100 130 47 104 130 46 107 130 46 109 130 46 111 129 45 114 127 45 116 126 44 117 127 44 119 128 43 122 128 41 125 128 40 128 128 41 131 128 40 133 128 39 136 128 40 139 130 38 142 130 36 144 131 36 146 131 36 147 130 36 148 130 35 149 130 36 150 129 36 151 129 36 152 129 38 155 128 38 156 126 38 156 125 39 157 124 39 158 125 40 160 125 41 163 124 41 167 126 43 170 126 45 171 126 46 172 127 47 174 127 48 175 129 49 176 131 55 80 126 55 80 125 54 80 126 53 81 127 50 82 128 49 84 130 47 87 130 47 89 130 48 93 130 48 96 128 48 98 128 47 101 127 46 104 128 45 107 127 45 109 127 46 111 127 46 113 125 44 115 124 43 117 125 42 119 126 42 120 126 41 125 127 40 128 126 39 131 125 38 134 125 38 137 126 39 139 127 38 142 126 37 144 128 35 146 129 35 147 127 36 150 128 34 151 128 34 151 127 34 151 128 35 153 128 36 156 127 37 158 124 38 158 122 39 159 122 41 160 124 41 162 125 41 165 125 41 168 127 43 170 127 44 170 126 45 172 128 47 174 128 48 176 130 49 178 132 54 81 126 53 82 125 53 81 125 52 82 125 51 84 125 49 87 127 47 88 127 46 90 128 46 94 128 47 97 126 47 99 124 47 102 124 47 104 124 46 107 123 45 111 122 46 112 123 45 114 124 44 115 123 42 116 122 42 117 123 42 120 124 41 123 125 39 127 124 38 131 124 38 135 123 39 137 124 38 139 125 38 141 124 37 144 125 36 146 125 34 147 124 33 149 124 32 151 125 32 151 125 34 152 124 34 154 125 35 156 125 36 158 122 37 160 121 39 162 120 41 163 122 42 164 123 41 167 125 42 169 126 44 170 127 44 171 127 45 172 128 46 175 129 49 178 129 49 180 131 53 82 125 51 83 124 52 82 124 52 85 124 50 87 123 48 89 123 46 90 123 45 92 124 45 95 125 45 98 123 45 100 122 45 103 120 46 105 120 46 108 119 45 110 119 44 113 120 43 114 120 41 114 120 41 115 120 41 116 120 41 118 122 40 122 122 38 125 121 37 129 121 37 134 121 38 136 122 38 138 121 38 140 121 36 142 122 35 144 121 33 145 121 32 148 121 31 150 121 30 152 122 32 153 123 33 155 123 34 157 121 36 159 120 37 161 119 39 164 119 41 165 121 43 166 123 42 168 125 42 168 126 43 169 127 45 171 129 45 172 130 46 176 130 47 179 131 48 180 131 51 84 123 51 85 122 50 85 121 51 88 120 49 90 120 48 91 119 47 92 119 46 95 119 45 97 120 44 99 120 44 100 119 45 103 118 45 106 117 44 108 116 44 109 117 42 112 117 41 113 116 40 113 117 39 114 118 41 116 118 41 118 119 39 120 118 38 122 118 36 128 118 36 132 118 37 135 118 37 137 118 36 139 119 35 141 119 34 142 119 33 144 119 32 147 118 31 149 117 30 151 119 31 154 119 31 156 118 33 157 119 35 159 119 37 162 118 39 165 118 40 166 119 43 167 122 43 168 125 43 168 126 43 170 127 44 171 129 45 173 129 46 177 130 46 179 130 47 180 131 52 87 121 51 87 120 51 88 118 49 89 117 49 90 116 48 92 116 47 94 115 46 96 115 45 97 115 46 99 115 45 100 116 45 103 116 44 106 115 43 108 114 42 109 114 42 111 114 40 112 113 39 113 114 38 113 115 40 114 116 40 116 116 39 119 115 38 121 114 36 125 115 37 130 115 37 133 115 36 137 116 34 138 116 33 139 116 32 141 116 31 143 115 30 147 115 30 148 114 30 150 115 31 153 115 32 155 115 33 158 117 35 160 117 37 162 117 39 163 117 40 165 118 41 167 121 42 168 124 42 169 126 42 171 128 43 172 127 44 174 128 45 176 129 46 179 129 47 179 131 53 88 118 53 88 117 51 88 116 49 90 115 49 90 114 49 93 114 47 95 113 46 96 113 44 97 113 45 98 113 46 100 113 45 102 114 43 105 114 41 107 113 40 109 112 40 110 111 38 111 111 37 112 113 38 112 113 39 114 113 38 115 114 38 117 112 37 120 111 36 124 112 36 128 113 35 132 113 35 135 113 33 138 114 33 139 114 31 140 113 29 142 113 30 145 111 30 148 112 31 150 112 31 153 113 33 156 112 34 158 115 37 160 115 39 162 115 39 163 115 40 164 116 42 166 119 43 168 123 42 170 125 42 171 126 42 173 127 43 175 128 44 176 129 45 178 129 45 178 132 56 89 116 55 90 115 53 91 114 51 91 114 50 92 113 50 93 112 48 95 111 47 96 111 45 98 111 45 98 111 45 100 111 44 102 111 42 104 111 41 106 112 40 108 111 39 109 109 38 110 109 36 111 111 37 112 111 36 115 111 36 117 112 35 118 111 36 121 110 36 125 109 34 127 110 33 130 111 32 134 112 32 137 113 31 138 113 31 138 111 30 141 110 30 144 110 30 147 110 30 149 110 31 152 111 33 155 112 36 157 114 39 159 115 40 162 114 40 163 113 42 164 114 44 166 117 43 168 120 43 171 122 42 172 125 41 173 127 42 174 128 42 176 129 44 177 129 45 178 131 57 91 114 55 92 113 55 91 112 52 92 113 51 94 112 51 95 111 49 95 109 48 97 109 46 98 108 46 99 109 46 101 109 45 102 109 43 103 109 42 105 110 40 107 110 40 109 108 39 110 108 37 111 109 35 112 109 35 115 110 36 118 110 36 120 110 35 122 109 34 125 109 32 128 109 30 130 110 28 133 111 29 137 113 28 137 112 29 138 110 29 141 109 29 144 109 30 147 109 30 149 110 32 151 111 34 154 112 38 157 112 40 159 114 41 162 113 42 164 113 43 165 114 45 167 116 45 169 119 44 171 121 43 172 124 42 174 127 42 174 128 42 176 128 43 177 129 45 178 131 57 93 110 57 93 110 56 92 111 54 93 111 53 94 111 52 95 109 50 96 108 48 97 107 47 98 107 47 100 107 46 101 106 44 103 107 44 103 106 42 104 107 40 105 108 39 109 107 37 110 107 35 111 107 34 113 108 33 115 108 34 117 108 35 120 108 34 122 108 32 124 109 29 126 109 29 130 110 28 133 112 28 135 112 27 136 112 28 137 110 29 141 108 31 144 108 30 147 109 31 149 110 33 151 111 36 153 112 38 156 113 41 159 114 42 162 113 43 165 113 44 167 114 47 168 115 46 170 117 45 171 120 44 173 123 43 173 125 43 174 126 42 176 127 43 176 129 44 177 131 58 94 107 57 93 108 56 93 109 54 94 110 52 95 109 51 96 108 50 96 106 48 98 106 47 99 106 47 101 105 46 101 105 44 102 104 43 103 104 41 104 105 38 105 105 36 109 105 35 111 106 34 113 107 33 115 106 33 116 107 33 117 107 34 119 107 34 122 107 31 124 109 29 126 110 28 130 110 28 133 111 28 134 112 28 136 111 30 138 108 30 140 108 31 144 107 31 147 109 32 149 110 34 151 111 36 153 112 38 155 113 41 158 113 42 162 113 43 165 113 44 168 114 47 170 115 46 170 117 46 171 119 45 173 122 44 174 123 43 174 124 42 174 126 43 175 128 46 177 129 59 94 105 58 94 105 56 95 107 54 96 109 52 96 107 51 97 105 50 98 105 49 98 106 48 99 107 47 101 106 46 100 104 43 101 104 42 103 104 40 104 104 37 106 104 35 109 105 33 112 106 33 115 106 32 116 106 32 116 106 32 117 105 33 119 106 31 122 107 30 123 109 28 125 110 28 129 111 29 133 112 29 135 111 30 137 110 31 139 109 32 142 108 32 144 108 32 146 108 32 148 108 34 150 110 35 153 112 37 156 112 38 157 113 41 161 113 43 165 112 45 168 113 46 171 115 46 171 116 46 171 118 46 173 120 46 173 122 44 174 123 44 174 125 45 175 126 47 176 128 59 96 105 57 96 104 57 97 105 55 97 106 52 98 107 51 98 106 50 99 105 50 100 105 49 100 107 48 100 106 46 101 105 44 102 105 41 103 104 39 105 104 36 106 103 35 110 104 34 114 106 33 116 107 33 117 108 32 117 107 32 117 105 31 119 106 29 121 108 27 122 109 29 125 110 29 129 111 29 133 111 29 134 110 30 137 110 31 140 110 32 143 110 31 144 109 32 147 108 33 149 109 35 151 109 36 154 111 37 156 111 39 157 112 40 160 112 43 163 112 46 167 112 47 169 114 47 172 116 47 172 117 47 172 119 47 173 121 46 172 122 45 173 124 46 175 126 49 175 129 59 96 104 58 98 103 56 98 103 55 99 104 53 99 105 51 100 105 51 100 104 49 100 105 48 100 107 48 100 106 47 101 106 44 102 104 41 103 104 39 106 103 37 108 104 36 111 104 35 114 106 33 117 108 33 118 109 32 118 108 31 119 107 30 119 106 29 121 107 28 123 108 29 126 109 30 129 110 31 132 111 31 134 110 32 137 111 32 140 111 32 144 111 32 145 110 32 147 109 34 150 109 36 152 110 38 153 110 38 155 111 40 157 112 41 159 112 42 163 113 45 165 113 47 169 114 47 172 115 47 172 117 47 173 118 47 174 120 47 172 122 47 172 124 49 173 125 51 174 128 61 97 104 60 99 103 57 99 103 57 100 104 54 101 104 52 101 105 51 100 106 50 101 107 49 100 106 48 101 106 47 102 105 44 102 104 42 105 104 39 107 104 37 108 105 38 112 105 37 114 107 36 116 109 35 119 110 33 120 109 31 120 107 30 121 107 30 122 106 29 124 108 29 127 110 30 129 111 31 132 112 32 135 111 32 137 111 33 141 111 32 144 111 33 146 111 33 149 111 36 152 110 39 154 111 40 155 111 41 156 110 42 159 110 42 160 111 43 163 112 45 165 112 47 169 114 47 172 116 47 173 118 46 173 119 47 174 122 49 173 123 49 173 124 52 173 126 53 174 128 63 100 104 62 100 103 59 101 103 58 102 103 56 102 104 53 101 106 52 101 107 52 100 107 51 101 107 48 101 106 48 102 106 46 103 105 42 106 104 40 108 105 39 110 106 39 113 107 39 115 109 38 116 109 36 118 110 34 119 108 31 120 107 31 121 108 30 121 107 30 123 108 30 127 110 31 130 112 31 132 112 31 134 112 32 138 110 33 141 111 33 145 111 34 148 112 35 151 111 37 153 112 41 155 113 41 157 112 42 158 110 42 161 111 42 162 112 43 164 111 44 166 112 47 169 113 46 171 116 46 172 118 46 172 120 47 172 123 49 172 125 51 173 125 53 172 126 54 173 130 63 100 104 61 101 103 60 102 103 58 103 104 56 103 105 54 103 106 53 102 107 52 102 107 51 102 107 50 102 107 49 102 106 48 104 105 45 107 105 42 110 106 40 113 106 40 114 107 41 115 109 39 115 109 37 116 108 35 117 107 33 119 108 32 120 108 32 121 108 30 123 108 32 126 111 31 130 112 32 132 112 31 135 111 31 138 110 32 143 112 34 146 112 35 149 112 36 152 112 39 154 113 40 155 113 41 157 112 41 160 111 41 162 111 43 164 113 43 166 112 44 166 113 46 168 115 45 169 115 46 170 119 46 171 122 47 171 125 49 171 126 51 172 127 52 171 128 54 172 131 63 101 104 61 102 103 59 104 104 56 104 105 54 105 107 53 105 107 53 105 107 53 103 108 52 102 108 51 102 108 50 103 106 48 106 106 45 108 106 43 110 107 41 112 106 40 114 107 41 114 108 41 115 109 39 115 108 37 116 108 35 117 109 33 119 109 32 120 109 31 123 109 32 126 111 32 129 112 32 132 112 31 137 112 31 141 111 32 144 112 34 148 113 35 151 112 37 153 113 38 155 114 39 157 114 39 159 114 39 161 112 40 163 112 42 165 113 44 167 114 45 167 115 45 167 116 45 168 117 47 169 119 47 169 121 48 169 124 49 170 128 51 171 129 52 171 130 54 172 133 62 104 105 60 105 104 58 106 105 56 106 106 54 106 107 53 107 107 53 106 107 54 105 108 53 103 109 53 104 108 52 105 108 49 105 107 46 108 108 44 109 108 43 111 109 42 113 108 43 115 109 43 115 110 40 115 110 39 114 110 38 116 110 35 117 111 33 119 111 33 122 111 32 127 111 32 130 112 31 133 112 31 138 111 30 143 111 32 147 112 34 149 113 36 152 113 37 155 115 38 157 116 38 159 115 38 161 115 38 163 114 39 164 115 41 165 115 43 167 117 45 168 117 45 167 117 45 168 117 47 168 118 48 168 121 48 168 124 49 169 127 50 170 130 51 170 132 53 172 134 62 105 105 59 106 105 57 108 105 56 109 106 54 108 107 54 109 107 55 108 107 54 107 108 53 106 109 53 105 109 51 105 109 50 106 109 48 108 110 46 109 110 45 110 110 43 112 109 44 114 111 43 115 110 41 114 110 39 114 111 38 116 112 37 117 113 35 119 113 35 123 112 34 127 112 33 131 113 32 135 112 31 139 112 30 144 112 31 147 112 34 149 113 35 153 115 36 156 116 36 157 117 37 159 117 38 162 117 39 163 117 39 164 118 41 166 118 43 168 119 44 169 119 44 169 119 45 169 119 47 166 120 48 167 122 48 168 125 49 170 127 51 170 132 52 170 133 52 170 134 63 107 104 59 108 104 57 110 105 56 110 105 55 110 106 55 112 106 55 110 107 53 109 107 53 108 108 53 107 109 50 106 110 50 107 110 49 108 111 47 109 112 46 110 111 45 111 111 45 114 112 44 115 112 42 116 111 40 116 112 39 117 112 37 118 112 37 120 113 36 124 112 36 128 112 34 132 113 32 137 113 31 141 112 31 145 113 32 148 113 33 151 114 35 154 115 35 156 117 35 158 119 36 160 119 38 162 119 39 163 120 39 165 121 41 167 122 42 169 122 42 171 123 43 170 123 46 168 122 46 166 123 47 167 124 47 169 125 49 170 129 50 170 132 52 170 133 52 170 135 64 107 104 61 110 104 58 111 104 56 111 104 55 113 105 55 114 105 54 111 105 54 110 106 54 109 108 54 109 109 51 108 110 49 108 111 48 109 112 48 110 112 48 112 113 47 113 113 46 117 113 44 118 111 43 117 110 41 118 111 40 118 110 38 118 111 38 120 112 38 124 112 38 128 112 36 132 112 33 137 112 33 141 112 32 145 113 33 149 113 33 151 114 33 155 115 33 157 117 35 159 119 36 161 121 38 164 121 39 165 122 39 167 123 40 169 123 41 170 124 42 171 124 43 170 125 44 168 125 45 167 126 45 168 126 48 169 127 50 171 130 51 170 132 53 170 134 52 170 135 66 105 105 63 108 105 60 110 104 58 112 105 56 114 106 56 114 105 56 113 105 55 112 105 55 112 106 54 111 108 52 110 110 49 110 110 48 110 111 48 112 112 48 113 113 48 115 113 46 118 112 44 119 110 43 119 110 42 118 110 41 119 109 40 119 111 41 120 112 40 125 113 39 129 113 38 133 112 35 138 110 34 142 111 33 146 112 34 150 113 33 152 114 32 155 116 33 159 118 34 160 120 36 162 122 38 165 123 39 167 124 39 169 125 39 171 126 41 172 125 43 172 125 43 170 126 43 169 126 44 167 127 45 167 127 48 169 128 50 169 131 51 170 133 52 170 134 52 171 135 69 104 106 66 106 107 62 109 106 60 111 106 58 113 106 57 114 105 57 114 104 57 114 104 56 114 105 55 114 106 52 113 108 50 112 109 48 112 109 47 113 111 48 115 112 48 116 112 46 118 111 45 119 111 44 118 111 42 118 111 42 120 110 42 122 111 42 123 111 42 125 112 40 129 112 39 133 111 37 138 111 36 143 111 35 148 111 34 151 113 34 153 114 33 156 116 33 159 119 34 161 120 35 163 121 36 166 123 38 167 125 40 170 127 40 171 127 41 174 125 42 173 126 43 171 126 42 171 126 43 169 126 44 167 126 46 168 127 49 170 130 51 170 132 52 170 134 52 172 134 71 104 107 68 106 108 65 111 108 63 112 107 61 113 105 60 115 105 59 115 104 58 115 104 56 116 103 55 116 105 52 115 105 49 115 107 48 115 109 48 116 110 48 116 111 48 118 112 48 119 111 47 119 112 46 118 112 44 119 111 43 120 110 44 123 111 44 125 110 43 127 111 41 130 112 39 134 111 38 139 111 36 143 111 37 148 112 36 151 113 34 154 114 33 157 117 33 159 119 35 161 119 35 165 120 37 167 122 38 168 124 38 170 126 41 171 126 42 173 126 42 173 126 42 172 126 43 170 125 44 169 125 45 169 126 46 170 128 49 171 129 50 170 131 53 170 132 54 170 134 74 105 107 70 106 107 67 111 108 66 113 106 64 114 106 62 115 105 61 115 104 58 116 103 57 117 103 56 118 104 54 117 104 51 116 106 50 117 108 50 117 109 50 119 111 49 120 112 49 120 112 48 120 113 47 121 112 46 122 112 45 123 112 46 125 111 45 128 110 45 130 111 43 133 111 42 135 110 40 139 111 38 143 112 38 148 113 36 150 114 35 154 115 35 157 116 35 160 117 36 162 118 36 165 119 38 168 121 38 169 124 38 172 126 41 172 127 42 172 127 42 172 127 42 172 125 43 172 125 44 170 124 46 171 126 49 171 128 51 171 129 52 171 130 55 170 133 55 170 135 77 106 106 74 108 106 71 111 106 68 115 107 67 116 106 65 117 104 64 118 103 61 117 102 58 117 103 56 119 103 54 119 103 52 119 105 52 119 106 52 119 107 51 120 110 50 121 112 50 123 111 48 123 111 47 123 112 46 125 112 46 126 113 46 128 112 46 130 111 46 132 111 45 134 110 44 136 109 41 138 111 39 142 113 39 146 114 38 148 116 37 152 116 36 156 117 36 159 118 36 162 119 37 166 119 38 169 120 38 170 123 39 172 125 42 173 125 43 172 125 44 173 125 44 174 125 43 172 125 45 171 125 48 171 125 51 172 127 54 171 129 55 171 130 55 171 133 56 170 134 79 107 104 77 109 104 73 112 105 71 115 106 69 117 106 68 118 105 66 120 104 62 120 104 59 120 103 56 120 104 54 120 104 53 121 104 52 121 105 53 120 107 51 122 109 50 123 110 49 125 110 48 127 111 48 128 111 47 128 112 46 129 113 45 129 113 45 131 113 46 133 112 46 135 110 45 137 109 43 139 111 41 141 114 41 144 115 41 146 116 39 151 116 40 155 118 38 158 119 38 162 119 39 165 120 39 168 120 39 170 121 40 171 122 42 172 123 43 173 123 45 173 125 47 174 125 47 174 125 47 173 125 50 172 126 53 172 127 55 172 128 56 171 129 56 170 131 56 171 133 80 108 103 78 111 104 76 114 104 73 116 105 71 119 107 70 121 106 67 122 105 63 123 104 61 121 104 57 121 103 55 121 103 53 121 102 53 123 104 53 122 107 51 122 107 51 124 108 49 126 109 48 129 110 47 130 112 47 131 113 46 130 113 46 130 114 46 131 113 47 134 112 46 136 111 46 138 110 47 140 110 45 141 114 43 143 117 43 146 117 43 151 117 42 154 119 41 157 119 39 161 119 40 164 119 40 168 119 40 170 120 41 171 122 42 172 122 43 173 123 46 174 124 48 175 125 49 175 125 51 174 126 53 173 126 56 172 127 57 172 128 58 171 129 57 172 131 56 172 132 82 109 103 79 112 103 77 114 102 76 116 104 73 119 105 71 122 106 69 123 105 66 124 105 63 123 104 59 122 102 55 122 101 54 122 103 53 122 104 53 123 106 52 123 107 51 124 107 49 127 109 49 131 110 49 132 111 48 132 113 47 132 115 47 132 114 47 134 113 48 134 112 48 136 112 48 138 111 48 140 111 46 141 114 45 144 116 46 147 118 45 151 119 45 154 119 42 157 118 40 161 117 40 165 117 40 169 118 40 172 119 41 171 120 43 172 121 44 175 122 47 175 123 48 175 124 50 177 125 54 176 125 56 174 127 58 173 127 59 173 127 59 172 129 58 173 130 58 173 130 83 112 103 80 113 102 78 114 102 77 116 103 75 118 104 72 121 104 70 123 105 67 124 105 64 124 104 59 125 102 56 125 102 56 125 103 54 125 105 54 125 107 53 125 108 51 126 109 50 128 110 50 131 112 52 133 113 51 134 114 49 134 115 49 135 114 48 136 114 49 136 113 49 137 113 48 139 112 48 141 112 46 143 113 44 146 116 46 149 118 46 152 119 46 155 118 44 157 117 43 161 116 43 166 117 44 170 117 43 173 119 44 172 119 46 174 120 47 176 120 49 177 121 50 177 122 52 178 123 55 178 125 59 176 126 60 175 126 61 175 126 62 174 127 60 174 129 60 174 130 