P3
50 50
255
164 104 151 163 102 152 164 101 152 163 101 152 163 99 151 164 98 151 165 99 152 166 100 153 167 101 156 165 102 159 164 104 160 164 103 160 163 102 161 162 103 160 163 101 159 163 101 159 164 102 158 164 102 158 165 103 159 167 104 162 168 104 162 168 104 161 167 104 162 168 105 161 169 106 160 171 108 160 170 108 161 170 108 161 171 107 161 171 107 161 170 108 159 170 109 157 168 110 156 167 110 154 166 110 154 165 112 153 163 112 153 162 112 153 163 111 153 164 109 152 164 106 150 165 105 150 165 104 149 167 103 149 167 103 151 167 102 152 167 103 153 168 105 153 170 107 154 171 107 155 166 105 151 165 103 150 165 102 150 165 101 150 165 100 151 165 99 151 165 99 151 166 100 152 166 100 154 164 101 157 163 102 158 163 102 158 163 101 158 162 102 158 163 101 157 164 100 158 165 101 158 166 101 158 167 102 159 168 104 160 169 106 161 168 105 161 168 105 161 169 105 160 171 107 159 171 109 160 171 109 160 172 109 159 172 109 158 172 109 157 172 109 156 172 109 154 171 111 153 170 110 152 168 111 153 166 112 152 165 112 151 165 113 150 164 112 149 164 111 150 164 109 149 165 107 147 166 107 147 166 106 147 168 105 148 168 105 148 169 105 150 170 107 151 170 109 151 172 109 150 167 107 150 165 105 150 166 104 150 167 101 149 168 100 150 167 99 150 166 98 151 165 99 151 165 99 153 163 100 154 162 101 156 162 102 156 162 102 156 162 101 157 163 101 157 166 101 157 166 101 157 167 103 157 169 105 158 170 106 159 170 107 159 170 106 160 170 107 160 171 107 158 172 108 158 171 109 158 173 109 158 174 109 158 173 109 156 174 110 156 173 109 154 173 109 153 173 110 151 171 111 150 169 111 150 167 113 150 166 114 148 165 114 147 164 114 147 164 113 147 164 111 146 165 109 146 166 109 145 167 107 145 169 107 146 171 106 146 171 106 146 172 108 146 173 109 146 174 110 146 167 109 150 167 107 149 166 105 148 167 103 149 168 100 150 168 99 150 167 99 151 165 99 151 164 99 151 162 99 153 162 100 154 163 101 155 163 103 155 163 102 155 165 103 156 167 102 157 167 102 155 168 105 156 170 107 157 171 108 157 172 109 158 172 109 158 171 108 158 172 109 157 173 110 158 172 110 157 174 111 156 174 110 156 174 110 154 175 110 153 174 110 153 175 110 152 174 111 150 173 112 149 171 112 149 171 114 148 168 115 147 166 115 145 164 116 145 164 115 144 165 114 145 165 111 145 165 110 145 168 108 144 171 107 143 172 107 143 172 107 143 173 109 142 174 110 142 176 111 143 168 109 150 168 108 150 167 106 149 167 103 149 166 101 150 167 101 150 166 100 150 164 100 152 163 100 152 163 101 153 163 101 154 163 101 154 163 101 154 165 103 154 165 104 156 167 104 157 168 105 156 170 105 155 171 107 155 172 108 156 171 109 157 171 110 156 172 110 156 172 111 156 173 112 155 174 112 154 175 112 154 175 112 154 175 111 152 176 111 152 176 111 152 175 112 150 175 113 149 175 115 149 173 115 149 173 114 148 169 115 147 167 117 146 166 117 144 165 116 144 165 116 144 166 114 143 168 112 143 171 110 143 173 110 141 174 109 140 173 108 140 174 110 139 176 111 140 177 112 141 168 108 150 168 108 149 167 107 150 166 104 149 166 102 149 166 101 150 166 102 150 164 101 151 163 102 152 163 103 153 162 102 153 164 102 154 164 102 155 165 102 156 165 104 156 166 106 157 169 107 156 170 108 154 171 109 153 171 109 154 172 110 154 172 111 154 173 112 154 172 114 153 173 114 151 173 114 150 175 115 149 175 114 150 175 115 150 176 114 150 176 114 149 177 115 147 176 116 146 175 118 147 174 117 148 173 117 148 170 117 147 169 118 146 168 119 143 167 119 143 167 117 142 168 115 141 169 113 141 172 112 140 174 110 138 174 110 137 174 109 137 175 109 137 177 111 139 177 112 139 167 110 150 167 108 149 166 106 149 166 104 150 165 102 151 165 101 152 165 102 151 164 102 151 163 104 152 162 104 152 162 104 153 164 103 153 164 103 155 165 103 156 166 105 156 167 106 155 168 108 154 170 110 153 170 110 153 172 110 153 173 111 152 172 112 152 172 113 152 172 116 150 172 117 148 173 117 148 174 118 147 175 117 147 176 117 147 177 117 146 177 117 145 177 118 143 176 120 142 175 121 143 175 121 146 173 120 146 171 120 146 171 120 145 169 122 143 169 121 142 169 119 141 169 117 139 171 115 137 175 113 136 176 111 135 176 111 134 176 110 134 176 110 135 177 111 136 178 111 137 165 109 151 166 107 150 166 105 149 165 104 150 165 103 152 165 102 152 166 102 153 164 103 153 163 104 153 162 105 153 163 105 153 164 104 154 163 103 154 164 103 155 165 105 154 167 107 154 167 108 152 168 110 152 169 111 152 170 111 151 172 113 150 172 114 150 171 115 149 172 119 148 172 120 146 172 120 145 173 121 145 175 120 144 176 119 144 176 120 142 176 120 141 176 121 140 175 123 141 175 124 142 175 124 143 174 123 144 172 124 143 171 124 143 172 125 143 171 124 142 171 123 140 172 120 137 173 119 135 176 116 133 177 113 132 178 113 131 178 112 131 178 111 132 178 112 133 179 112 133 162 110 149 163 109 147 163 106 148 164 104 150 165 103 152 165 103 153 166 102 154 165 102 153 164 103 153 163 104 153 164 105 155 164 104 155 163 104 154 164 105 153 165 106 153 167 107 152 166 109 151 166 111 151 168 113 150 169 114 149 171 115 149 172 117 147 172 118 147 172 120 147 171 122 146 170 122 144 171 122 143 173 122 142 175 122 141 175 123 139 175 123 138 175 126 138 175 127 137 174 128 139 174 127 140 175 127 142 174 128 142 173 128 141 173 128 141 173 127 140 173 125 137 174 124 134 176 123 132 177 119 131 178 116 129 179 115 128 179 115 128 179 114 129 181 114 130 181 115 131 162 111 146 162 109 146 163 106 147 164 103 149 165 102 150 166 102 152 167 102 153 166 102 153 164 103 152 164 104 154 165 105 153 165 105 153 165 106 153 165 106 151 164 106 151 165 108 151 165 111 150 166 113 149 167 115 148 168 116 147 169 117 147 170 118 146 172 119 145 171 121 144 170 122 144 169 122 143 171 122 141 173 123 140 174 124 138 176 125 137 176 126 136 175 129 135 175 130 134 175 130 135 174 131 137 175 131 139 175 132 140 175 132 140 175 131 139 176 130 138 176 129 135 177 128 133 178 126 131 178 121 129 179 119 126 180 117 127 181 118 127 182 117 127 183 118 129 183 118 130 161 111 146 162 108 146 162 106 148 163 104 148 165 104 148 166 103 150 167 103 151 166 103 151 165 104 151 165 105 151 167 106 151 167 106 149 166 107 150 165 108 148 163 109 148 164 111 149 165 114 148 166 116 147 166 117 146 167 118 145 167 118 144 169 121 143 170 122 141 170 123 141 170 122 141 169 123 140 170 124 138 173 126 137 176 127 136 176 127 136 175 129 136 174 131 134 175 133 133 175 134 133 176 134 135 176 135 137 175 136 138 175 136 139 176 136 138 176 135 136 177 133 134 177 130 132 178 128 129 179 124 128 180 122 126 181 121 126 183 121 127 184 121 126 184 121 128 184 121 129 159 112 145 160 110 145 161 108 145 163 107 145 166 105 147 167 105 148 167 104 149 166 105 150 167 105 148 167 107 147 167 107 147 167 107 147 167 107 147 164 110 145 163 111 146 164 113 146 165 117 146 166 119 146 165 120 145 166 121 143 168 121 141 168 122 140 169 124 139 170 125 138 170 124 137 170 125 135 172 126 134 175 127 134 176 129 133 176 129 134 175 132 133 175 134 132 175 135 131 175 137 131 175 136 132 175 138 134 174 139 137 175 139 137 176 139 136 176 137 135 177 136 132 177 133 129 177 129 127 179 127 126 180 126 126 182 124 125 183 124 125 184 124 125 185 124 127 184 123 128 159 114 144 160 112 144 161 110 144 163 109 144 165 107 145 166 107 147 166 107 147 166 107 147 167 108 146 167 108 144 167 108 144 166 108 143 166 110 142 164 112 142 164 113 142 164 115 142 164 118 142 165 120 143 165 123 142 165 124 141 167 123 139 169 125 137 169 127 136 169 127 135 170 126 133 172 127 132 174 128 132 176 129 131 177 131 131 176 133 132 175 134 131 175 136 130 173 137 129 173 138 130 173 139 131 173 139 133 173 140 133 174 141 133 175 141 133 177 139 132 178 138 130 177 136 127 177 133 126 178 131 124 180 129 124 181 129 125 182 127 125 183 126 125 184 125 126 186 124 128 157 116 143 159 114 143 161 113 142 163 111 142 165 110 142 165 110 144 165 110 145 165 109 145 166 109 143 165 109 140 166 110 138 166 111 138 165 112 137 164 114 139 163 116 139 162 118 138 163 120 137 163 122 138 163 125 138 164 127 138 164 127 137 167 128 136 169 130 133 170 128 131 170 128 129 172 129 129 174 129 129 176 131 128 177 134 127 177 136 128 175 137 128 174 138 128 172 139 127 171 140 128 172 140 130 171 140 130 171 141 130 173 143 130 174 143 130 177 141 129 178 140 128 177 138 126 177 136 125 177 134 123 179 132 123 180 132 124 181 131 125 183 128 126 184 126 126 185 125 128 157 117 143 158 117 142 160 116 141 161 114 140 163 113 140 164 111 141 164 111 140 164 112 140 165 111 138 165 110 136 165 111 135 166 112 134 166 114 134 165 116 134 163 118 134 162 120 133 162 123 133 161 124 132 162 127 132 163 128 133 164 130 134 166 132 132 168 132 129 171 131 127 172 130 126 173 131 127 175 132 127 176 134 125 177 137 124 178 138 126 177 139 126 175 141 126 172 141 125 171 142 126 170 141 126 172 142 127 172 143 127 173 144 127 175 143 126 176 141 126 177 141 126 176 140 126 176 138 124 176 137 124 178 136 123 180 135 124 181 133 125 182 130 126 185 127 126 185 126 127 155 119 142 156 119 141 156 118 140 158 116 139 160 114 138 162 113 137 162 113 136 164 113 135 163 113 134 164 112 133 164 113 132 165 114 132 165 116 131 164 117 131 164 120 130 162 123 129 162 125 129 162 126 129 161 128 128 162 129 130 163 130 129 165 133 128 167 135 126 169 134 124 172 132 124 173 133 124 174 136 123 175 138 122 176 139 122 177 141 122 178 142 122 176 143 123 173 145 123 171 144 123 171 144 124 172 144 124 171 145 123 172 144 123 173 143 123 175 142 124 175 142 125 176 141 124 176 141 125 176 139 124 178 138 123 180 137 124 182 135 125 184 132 126 184 130 127 185 128 127 155 121 140 155 121 139 155 120 138 156 118 137 157 117 135 159 116 133 160 116 133 161 116 131 162 115 130 162 113 128 162 115 128 162 116 127 162 118 127 162 119 126 163 121 126 161 124 126 161 127 126 161 128 125 161 128 124 162 130 125 162 133 125 164 135 124 166 137 122 169 137 121 171 136 120 171 136 120 172 137 120 174 139 119 176 141 119 178 144 119 178 145 119 177 146 120 174 147 121 173 147 120 172 146 121 172 146 122 171 146 121 172 144 120 173 143 120 173 144 122 175 144 124 176 142 123 176 142 123 177 142 123 179 141 122 181 138 123 183 136 125 184 133 125 185 131 126 185 130 126 155 122 139 154 122 138 154 121 136 153 120 135 154 119 133 156 118 131 158 118 130 159 118 129 160 116 127 161 115 125 162 115 125 160 117 124 160 119 123 160 120 122 161 123 122 160 125 122 159 127 122 160 127 120 160 128 120 160 131 120 162 134 120 163 136 119 166 139 117 168 139 117 170 139 117 171 139 117 170 139 116 173 141 116 175 142 115 177 145 116 178 146 117 177 147 118 175 148 119 173 148 119 171 147 118 171 146 120 171 146 119 172 145 118 174 144 118 173 144 120 175 145 121 176 144 122 175 144 122 176 143 122 178 141 123 180 138 124 183 138 125 185 136 125 185 133 125 185 132 126 152 125 138 151 124 136 151 123 134 150 122 132 151 120 130 153 119 129 155 119 128 157 119 127 159 118 125 159 117 123 158 117 123 157 119 121 157 121 119 158 122 119 160 124 118 159 126 118 159 126 117 159 127 116 159 128 116 161 131 115 162 135 114 163 138 113 164 140 112 167 141 113 168 142 113 169 141 113 170 141 113 172 142 113 173 145 113 175 146 114 176 147 115 175 147 116 175 149 117 174 150 117 172 148 117 170 146 117 171 147 117 172 147 116 172 146 117 172 145 119 174 145 120 175 145 120 176 144 120 176 142 121 178 140 122 179 139 124 182 138 125 184 137 126 185 135 126 185 133 125 151 126 136 149 126 134 148 125 132 147 124 131 148 123 130 150 122 128 151 121 126 154 120 124 155 119 123 156 119 121 155 120 120 154 122 118 155 123 116 157 124 115 157 125 114 158 127 114 159 128 113 159 129 112 159 130 112 161 133 111 162 137 110 162 139 109 163 141 109 165 142 110 166 142 109 167 142 110 169 142 111 170 142 112 171 145 112 173 147 113 174 148 113 173 149 114 173 149 114 172 150 115 171 149 116 170 147 116 170 147 116 171 147 116 172 146 117 172 145 119 174 145 119 174 144 119 175 144 120 175 142 121 178 141 122 179 139 124 181 139 125 183 138 125 184 137 125 185 135 125 149 128 133 147 127 132 145 126 132 145 125 130 146 125 128 147 124 126 147 123 123 150 122 121 152 121 120 153 121 120 152 122 118 153 124 116 154 125 113 156 126 111 156 128 111 157 129 110 157 130 111 158 131 110 159 133 109 161 137 108 161 140 107 162 142 106 162 143 106 164 144 107 164 144 107 164 142 108 167 142 109 169 143 110 169 145 111 170 147 112 170 148 112 170 149 112 170 149 113 171 151 114 170 149 116 169 148 116 170 147 116 171 147 117 172 146 117 172 145 118 173 145 119 173 144 119 174 143 121 175 142 122 177 140 123 178 139 124 180 139 125 182 139 126 183 138 126 183 135 127 147 130 130 145 130 130 143 129 128 143 127 127 143 126 126 143 126 124 145 126 120 147 124 119 149 123 118 150 123 118 150 124 117 151 126 114 152 126 111 153 128 110 155 130 108 155 131 108 156 132 109 156 133 107 158 136 106 158 139 105 161 140 104 161 143 103 161 144 102 161 145 104 162 145 104 162 144 105 164 143 106 167 144 108 168 146 109 169 146 110 168 147 112 167 148 111 167 149 112 168 150 114 169 149 115 169 149 117 170 148 118 170 147 118 171 147 118 170 146 119 170 145 120 171 144 121 171 143 122 174 142 124 176 141 124 177 140 125 179 139 126 180 138 127 181 138 127 181 136 127 144 133 128 142 131 127 142 130 127 141 130 126 140 129 123 141 128 120 143 128 118 146 126 117 147 126 117 147 127 117 147 128 115 148 128 112 149 128 109 150 130 109 151 131 107 153 134 106 154 136 106 155 137 104 156 138 102 157 140 103 158 141 102 158 142 101 158 143 100 158 144 101 158 145 102 159 146 104 161 145 105 164 145 107 166 145 108 166 146 110 166 147 111 165 148 111 165 148 111 166 148 113 166 149 115 166 149 117 168 149 118 168 148 119 168 147 119 168 146 120 168 145 122 168 144 122 168 142 123 171 141 124 174 141 124 175 141 125 177 140 126 177 139 127 178 139 127 177 138 128 143 135 126 141 134 125 140 132 125 138 131 123 138 131 121 139 130 118 141 129 116 143 127 115 145 128 116 144 129 116 145 131 115 145 131 111 145 131 109 147 131 108 149 132 107 151 134 105 153 137 104 153 138 101 154 139 101 154 141 100 156 142 99 156 143 98 156 144 97 155 145 99 156 146 100 155 147 103 156 148 105 160 146 106 163 146 108 164 146 111 163 147 112 164 147 112 165 148 111 165 148 113 164 149 114 164 148 117 166 149 119 164 148 120 165 147 121 166 146 122 165 146 123 165 145 123 166 142 124 169 140 124 171 140 124 173 139 124 174 140 125 174 139 126 174 139 126 174 138 128 140 137 123 139 136 122 137 134 122 136 132 121 135 132 119 137 131 117 138 130 114 140 129 113 141 130 114 141 130 115 141 131 113 142 132 111 142 132 108 143 133 107 145 134 105 148 135 104 149 137 101 149 140 100 150 142 99 151 143 99 151 144 97 151 146 97 152 147 97 152 147 97 152 148 99 152 149 102 152 149 105 156 148 106 159 148 109 160 148 111 161 148 113 161 148 113 162 148 113 163 149 113 162 149 114 162 148 117 162 149 119 163 148 121 165 147 122 164 147 122 164 146 122 164 143 123 165 141 124 166 139 125 168 139 124 170 140 124 171 138 124 171 138 125 171 137 126 173 137 130 138 138 119 137 138 120 136 136 121 134 135 120 134 133 117 134 132 114 134 131 113 136 130 112 136 131 112 136 131 112 137 132 112 137 133 110 138 133 108 138 134 106 141 135 104 144 136 102 144 140 100 145 142 98 147 144 97 146 146 96 147 146 96 148 148 97 149 148 96 149 149 96 149 150 98 148 151 101 149 151 105 152 150 106 155 149 109 156 148 111 157 148 112 158 148 113 159 148 113 160 149 113 159 149 114 159 149 116 159 149 118 161 147 120 163 147 122 164 147 121 165 146 121 164 144 122 164 141 123 165 140 125 166 140 125 167 139 124 168 138 125 169 137 126 169 137 128 170 137 131 137 141 117 135 140 117 134 139 118 133 137 118 131 135 116 130 135 114 131 134 113 132 133 112 133 133 111 134 133 112 135 134 111 134 135 110 134 135 107 136 137 105 139 137 102 141 140 99 141 142 97 141 145 95 141 146 95 142 148 95 144 149 96 145 149 96 146 149 96 145 149 96 145 150 98 146 151 101 146 151 104 148 150 105 151 149 107 153 149 109 154 149 110 155 148 111 156 149 112 156 149 113 157 149 113 157 149 115 157 148 117 157 146 119 160 146 120 162 146 120 164 146 120 164 144 120 164 142 122 164 139 124 164 139 125 164 138 125 164 137 126 165 137 126 166 136 128 167 135 130 136 141 115 133 141 116 132 140 116 131 138 116 130 137 114 129 138 113 128 138 113 128 136 111 131 136 110 132 135 111 133 137 111 132 137 109 132 137 106 133 139 103 135 141 99 137 143 96 138 145 96 139 147 94 139 149 95 140 150 96 140 150 96 142 150 96 142 150 95 140 150 96 141 150 98 141 150 101 143 149 103 145 149 105 147 149 106 150 149 108 152 149 109 154 148 109 153 149 110 154 148 111 155 146 112 154 147 114 154 146 116 155 145 119 158 145 120 160 144 120 161 145 120 162 144 119 162 142 120 162 139 122 161 139 124 161 137 125 160 135 125 162 135 126 162 135 127 164 134 129 135 142 113 133 143 115 132 142 115 130 141 114 129 140 113 128 140 112 126 140 111 126 139 111 128 139 111 130 138 110 130 139 108 130 139 106 130 140 103 132 141 102 132 143 97 134 144 96 135 147 96 135 150 94 137 151 94 137 151 95 138 151 95 138 150 96 138 151 96 137 151 97 137 152 98 137 151 101 139 150 102 141 149 104 143 150 105 145 151 105 149 150 107 150 149 108 150 149 109 150 147 110 152 145 111 151 145 114 151 145 116 153 145 118 155 143 120 157 143 120 158 143 119 158 144 119 160 142 120 160 140 121 160 139 123 159 137 123 158 136 124 158 136 127 159 136 128 161 134 130 135 143 111 133 144 112 132 144 112 130 144 112 128 143 111 126 144 111 125 144 110 124 143 110 125 142 110 126 141 109 127 142 107 127 143 104 127 144 101 128 144 99 128 145 96 130 146 95 131 147 95 133 150 94 134 152 95 135 151 94 134 151 95 134 151 96 133 150 97 134 150 97 134 152 99 134 151 100 135 150 101 137 149 102 139 150 102 142 151 103 145 151 105 146 149 106 146 147 107 146 145 108 149 144 110 148 144 113 149 145 115 152 144 118 153 143 119 153 142 119 154 142 119 155 142 119 157 141 120 159 140 121 159 138 121 158 137 122 157 137 124 156 137 126 157 136 129 158 134 130 135 145 109 134 145 110 132 146 110 130 145 111 128 145 110 126 146 110 124 146 110 122 146 110 122 146 109 123 145 108 124 145 105 124 145 103 124 145 100 123 146 98 125 147 96 127 147 94 128 148 94 130 151 94 131 152 95 131 153 96 131 152 96 130 151 97 130 151 96 130 150 95 131 151 96 131 151 97 132 151 99 135 150 100 137 150 100 138 151 102 140 149 103 141 147 105 142 144 105 143 144 107 145 143 109 145 143 112 147 144 114 148 144 117 149 143 118 150 142 118 150 141 120 152 141 121 154 140 121 156 138 121 157 137 122 157 136 123 156 136 125 156 137 126 155 135 129 155 135 130 135 147 107 133 146 108 130 147 107 129 147 109 127 147 109 125 148 109 123 148 109 120 147 108 120 147 108 120 146 106 121 146 104 122 146 102 121 148 99 120 148 98 121 149 98 123 149 96 125 150 95 127 152 96 127 152 95 126 152 96 126 153 95 126 152 95 127 151 95 127 151 95 128 151 95 128 151 96 129 151 96 131 150 97 133 150 99 134 149 100 134 147 102 136 144 103 139 142 105 140 142 106 142 143 108 144 143 111 144 143 113 145 142 115 147 143 117 146 142 117 146 140 119 148 140 120 149 140 121 152 139 122 155 137 123 155 136 124 155 135 126 155 135 127 153 135 129 152 134 131 134 149 107 131 149 107 129 150 106 127 149 107 125 150 108 124 151 107 121 149 107 119 148 107 118 147 107 119 148 104 119 148 104 120 148 103 119 150 101 118 150 99 118 150 98 120 152 97 122 153 97 123 153 97 123 152 97 122 152 97 123 152 96 122 152 95 123 151 95 125 150 94 125 151 95 125 151 94 126 151 95 128 151 95 130 149 96 130 147 97 131 145 99 132 142 101 135 140 103 138 141 106 140 142 108 141 143 109 140 142 111 142 142 113 143 142 115 143 141 117 143 140 118 145 139 119 146 139 120 149 138 120 152 137 122 153 135 125 153 133 126 153 133 129 151 132 130 151 131 131 130 152 106 128 153 106 127 153 106 126 152 106 124 153 106 123 153 106 120 152 105 118 150 105 117 150 105 117 150 103 118 149 103 118 150 103 117 152 102 115 151 100 116 152 99 117 152 98 118 154 97 119 153 97 120 153 97 120 152 97 120 151 96 121 151 95 121 150 94 122 150 93 122 150 92 122 151 92 123 151 93 125 150 93 127 147 93 127 144 94 128 143 96 129 141 99 131 140 102 134 140 105 136 141 107 138 143 109 138 143 110 139 142 111 139 141 114 140 140 115 141 139 117 142 138 117 144 138 119 146 137 120 149 135 121 151 133 123 152 131 125 152 130 127 151 129 130 151 129 131 129 155 104 127 155 105 127 155 105 125 154 105 124 156 105 123 155 105 119 154 103 117 153 104 116 151 104 116 150 103 117 149 102 116 150 102 115 152 102 114 153 100 114 153 99 115 153 98 115 153 97 116 153 96 116 152 97 117 151 96 118 150 95 119 149 95 119 150 93 119 150 91 118 150 90 118 150 90 119 150 91 122 148 91 123 145 91 124 143 92 124 141 95 126 141 98 128 140 101 131 140 103 133 141 104 135 141 106 137 141 108 138 143 111 138 141 113 137 139 114 139 137 115 140 137 116 142 137 118 144 137 119 147 135 121 149 132 123 151 129 124 153 128 126 152 127 129 151 127 130 127 157 103 125 158 104 124 157 104 123 157 104 122 159 104 121 157 102 119 155 102 117 154 102 116 152 103 116 150 103 115 150 102 114 150 103 113 152 103 112 153 101 112 153 100 112 152 98 113 151 98 112 151 98 113 150 97 114 150 96 116 150 94 116 148 93 116 150 92 116 149 91 115 150 90 116 150 90 116 149 90 118 146 90 119 143 90 121 141 92 123 141 94 126 140 96 127 139 98 129 139 100 130 139 102 133 140 104 134 141 107 135 141 110 136 140 111 136 138 113 137 137 114 138 136 116 139 136 117 142 136 118 145 134 120 147 130 122 149 128 123 151 127 125 151 126 127 150 127 129 126 159 102 124 160 102 123 160 103 122 160 105 120 160 103 120 159 102 118 156 101 115 154 102 114 152 102 114 150 102 112 149 102 110 149 103 110 150 102 110 151 101 111 151 100 111 151 99 111 150 99 110 150 100 110 150 98 112 149 98 112 149 96 114 148 93 114 148 92 113 148 90 112 148 90 112 148 90 113 146 90 114 144 91 115 142 91 119 140 91 122 140 93 124 140 95 126 139 96 127 138 98 129 138 101 131 139 103 132 140 105 133 140 108 133 139 110 134 138 111 135 137 114 135 137 116 138 137 116 140 135 118 143 132 120 145 129 121 147 128 123 148 129 125 150 127 127 150 126 128 125 160 101 124 162 102 122 162 103 120 161 103 118 160 102 117 158 101 117 156 101 114 153 102 113 151 102 112 150 102 111 147 102 109 147 103 108 148 102 109 149 101 110 148 99 111 148 99 111 148 100 110 148 99 108 149 98 109 148 97 110 149 96 110 148 94 110 147 92 110 146 90 110 146 89 110 145 88 110 145 89 111 144 91 113 143 91 117 141 92 120 140 93 122 139 93 124 140 95 126 138 97 128 138 100 129 138 102 129 139 104 130 138 106 132 138 108 132 137 110 132 136 113 134 135 114 135 136 116 138 133 117 141 130 120 144 129 121 146 128 122 146 128 124 147 129 127 147 128 128 126 161 101 123 162 101 121 162 102 119 161 102 117 159 101 114 157 102 114 154 102 113 152 102 112 150 102 112 149 101 110 148 102 108 148 102 107 149 101 107 149 100 108 147 100 109 146 100 110 146 99 109 146 98 108 147 98 108 147 98 109 147 97 108 146 94 107 145 92 108 145 90 108 144 89 108 143 89 109 142 89 110 142 90 112 143 91 114 141 93 117 140 93 120 140 92 123 139 93 125 139 94 126 139 98 126 138 101 127 138 103 129 138 104 130 138 107 130 137 110 131 135 111 133 134 114 134 133 116 138 132 117 139 131 120 141 131 121 142 130 122 143 129 124 145 129 126 145 129 127 125 160 100 122 161 101 119 160 100 118 159 100 116 158 100 113 156 100 112 153 101 111 152 101 111 151 101 111 151 101 108 149 101 106 149 100 105 149 100 106 149 99 106 148 100 108 146 100 108 146 99 106 145 98 106 145 98 106 145 99 108 145 97 107 144 95 106 143 92 106 143 91 106 141 90 107 140 90 108 140 90 109 140 90 110 142 90 113 140 91 114 140 92 117 139 92 120 139 93 122 139 94 122 139 97 124 137 99 125 137 101 127 138 104 128 137 106 129 136 108 130 135 111 132 134 113 133 132 114 135 132 116 137 133 118 138 133 120 138 132 122 140 131 123 141 131 123 142 130 125 124 160 100 121 161 100 118 160 99 117 158 99 115 157 99 112 156 98 111 154 99 110 152 99 110 151 99 109 151 99 107 151 99 106 151 99 105 151 99 105 149 98 106 147 100 107 146 99 106 146 99 105 145 99 104 145 99 105 144 98 106 144 97 105 143 95 104 141 93 105 141 91 105 139 90 106 137 91 108 139 90 109 138 91 111 139 91 111 139 91 112 138 91 115 137 92 117 137 92 119 139 95 121 138 96 123 137 98 124 137 100 125 135 102 127 135 104 129 135 107 131 134 108 132 133 111 133 132 112 134 132 114 134 133 116 135 133 120 136 133 120 136 133 121 137 132 121 139 129 123 123 160 100 120 161 99 117 159 98 116 158 98 114 156 98 112 155 97 110 154 97 110 153 97 109 153 96 107 151 96 106 151 96 105 152 96 105 151 97 105 150 98 105 148 99 105 147 100 104 145 99 103 144 99 104 144 99 105 143 97 105 142 96 104 140 94 105 139 92 105 138 91 106 138 90 107 138 90 108 138 90 109 138 89 110 138 90 111 138 90 112 137 91 113 136 92 114 136 93 118 137 95 121 136 96 122 135 97 123 136 99 125 135 102 127 134 104 129 133 105 130 132 106 131 132 108 133 131 111 133 131 111 132 132 115 133 131 118 134 132 120 133 132 120 134 130 121 135 127 123 121 161 99 118 160 98 116 159 96 114 158 97 112 156 97 111 155 96 109 155 95 109 154 95 108 152 93 107 151 93 105 152 93 104 152 95 105 151 95 106 149 96 105 149 97 104 147 98 103 146 97 103 145 96 104 144 96 105 142 96 105 140 95 104 140 94 105 139 93 105 138 92 106 137 90 107 137 89 107 138 88 108 137 88 108 137 89 109 137 89 110 136 90 112 136 92 115 135 93 118 134 94 120 133 95 121 132 96 123 133 97 124 132 100 125 132 101 128 132 102 129 131 104 130 131 105 130 130 108 131 131 111 130 130 114 131 130 116 131 131 118 130 130 119 130 128 120 131 126 121 119 161 99 116 161 98 115 161 97 114 161 97 111 158 96 110 156 95 108 156 93 108 154 94 107 152 93 105 152 92 104 153 91 104 152 92 105 152 95 106 150 96 105 149 96 104 147 96 103 147 96 103 146 96 103 143 95 105 140 95 103 139 94 103 139 92 103 139 91 104 138 90 105 137 89 105 136 88 106 136 87 107 135 87 107 135 88 108 134 89 109 134 90 111 133 92 114 132 93 117 132 93 118 130 94 120 130 96 123 129 96 124 128 97 125 129 99 127 129 101 128 129 103 128 130 104 128 130 105 129 130 109 129 129 112 130 128 115 129 128 116 129 128 117 128 127 119 129 125 119 116 162 99 113 163 97 113 163 97 112 162 96 110 159 95 109 157 93 108 157 93 107 155 93 105 154 92 103 153 91 102 152 90 103 151 91 104 151 93 105 151 95 106 149 95 105 147 96 104 146 96 103 144 94 104 142 93 104 140 93 103 139 92 102 139 91 102 139 90 103 137 89 103 136 88 104 135 87 104 134 87 106 133 87 106 132 89 108 132 89 109 132 89 112 131 90 114 131 90 116 130 93 118 129 94 121 128 95 123 127 96 124 126 96 125 126 98 126 126 101 127 127 102 127 127 101 128 128 103 128 128 107 128 126 110 128 126 113 128 127 114 128 126 115 127 125 117 127 125 117 113 163 99 111 164 97 110 164 95 110 163 95 109 160 94 109 158 94 107 158 92 106 156 92 105 156 91 105 154 91 103 152 91 103 151 90 103 151 91 105 151 93 106 149 94 105 146 94 103 145 93 102 143 92 103 140 91 102 138 90 102 137 90 101 137 88 100 138 88 101 136 89 102 135 88 103 134 87 104 132 87 106 131 88 106 130 88 107 130 88 109 131 89 111 130 89 114 129 90 115 128 92 119 128 93 121 127 95 123 126 97 124 124 98 124 123 98 125 123 100 127 123 100 126 125 100 126 126 103 127 126 106 128 125 108 128 125 110 127 125 112 126 124 113 126 125 116 125 125 116 110 164 98 108 164 98 107 164 96 109 162 94 108 161 93 108 160 93 107 158 92 106 158 92 105 156 90 105 154 91 103 152 90 103 152 90 104 150 91 105 149 91 105 146 92 104 145 92 103 143 92 102 142 91 101 139 90 101 137 90 100 136 88 101 136 88 100 137 88 100 135 90 101 134 88 101 133 89 103 131 88 105 129 89 106 129 89 107 129 90 109 129 90 110 129 89 112 127 91 115 126 92 119 126 94 120 125 96 121 124 97 123 124 99 123 123 99 123 121 99 125 121 100 126 122 101 126 123 103 127 123 106 127 123 107 126 123 109 126 121 111 125 123 112 125 124 113 125 125 114 110 165 98 108 165 97 107 163 96 108 162 94 108 160 92 107 159 92 107 159 92 106 158 91 105 155 90 104 152 90 104 151 91 104 150 91 103 149 90 104 146 91 104 144 91 103 143 92 102 141 91 101 140 91 100 139 91 100 137 90 99 136 89 100 136 89 102 135 90 101 135 90 101 135 89 101 132 88 102 130 89 104 127 89 106 127 89 107 128 90 109 127 91 110 127 92 111 125 91 113 124 93 116 122 94 117 122 96 119 122 97 121 122 98 122 123 99 123 121 99 123 120 100 124 120 101 126 121 102 125 122 103 125 121 105 126 121 106 125 121 108 124 123 110 124 124 110 124 123 111 110 167 98 108 166 96 107 163 95 107 161 94 107 160 92 106 160 91 106 159 90 105 157 90 104 154 89 102 152 89 103 150 91 104 147 90 104 145 89 103 144 91 104 142 92 102 140 92 101 138 91 99 137 90 99 137 91 98 137 91 99 136 90 100 135 90 102 135 89 103 135 89 102 134 88 102 131 88 103 128 88 104 126 88 105 126 89 106 125 91 107 124 91 109 123 92 109 122 92 111 120 93 114 119 95 115 119 96 118 119 98 119 120 98 121 121 99 122 120 101 123 119 102 124 120 102 124 120 102 124 121 102 123 121 103 125 120 104 124 121 106 124 123 106 124 123 107 123 123 108 110 168 99 108 166 97 107 164 96 105 162 94 104 161 94 104 159 92 104 158 91 103 156 90 101 154 89 101 152 89 101 148 90 102 146 90 102 144 90 102 142 92 102 139 92 101 137 92 100 136 91 98 135 91 97 135 92 98 135 92 98 134 91 101 134 91 102 134 89 103 134 89 102 132 88 103 130 88 104 128 88 104 125 88 105 123 89 105 122 91 105 121 92 106 120 92 107 118 92 109 116 93 112 116 95 115 115 96 117 117 98 118 118 99 120 119 98 121 119 100 122 118 101 123 119 102 123 119 101 123 121 101 122 121 101 123 121 103 124 121 103 123 122 104 121 122 104 120 122 106 