P3
50 50
255
154 138 181 155 138 181 155 138 181 155 138 184 157 138 184 157 137 186 158 136 188 157 137 191 158 138 192 158 141 192 159 141 192 160 143 193 162 144 192 162 145 191 163 147 191 162 149 192 162 152 191 161 154 191 161 156 190 160 159 189 161 161 187 162 164 186 163 169 186 163 171 185 162 172 185 160 174 186 158 175 185 157 174 183 157 174 182 156 174 179 156 174 178 155 173 178 155 173 177 157 173 179 159 172 180 160 173 180 159 175 182 158 176 184 158 177 184 156 178 183 156 179 182 154 180 180 152 181 180 151 181 179 149 181 179 147 180 179 145 180 177 144 181 178 142 180 177 141 180 175 151 136 183 152 137 183 154 135 182 154 135 184 155 137 185 155 135 187 155 135 189 155 136 191 155 137 192 155 140 193 157 141 192 158 142 192 159 143 193 159 144 192 160 147 192 160 148 192 160 150 192 159 153 192 159 156 191 159 159 189 160 162 188 160 166 186 161 169 185 161 171 184 161 173 184 158 174 185 156 174 184 156 174 183 157 175 181 157 175 178 156 176 177 155 175 176 155 174 177 156 173 178 159 173 179 160 174 180 160 176 182 159 176 183 157 177 183 157 179 182 155 180 182 154 179 181 153 180 181 152 181 181 150 181 180 148 180 178 146 180 178 144 180 178 143 181 177 141 182 176 149 135 183 149 135 184 151 134 184 152 133 186 153 135 186 153 134 187 153 134 189 152 135 192 151 135 193 151 137 192 153 139 191 155 140 192 155 142 193 155 143 193 156 147 192 158 148 193 159 149 193 158 152 192 158 155 190 158 159 189 159 164 187 159 168 187 159 170 185 159 171 184 158 172 183 157 173 183 155 174 183 155 175 182 156 176 180 156 175 179 156 176 178 156 176 177 154 176 176 155 174 176 158 174 178 159 175 179 159 175 180 159 177 183 158 177 182 156 179 183 155 180 183 153 180 183 153 180 182 153 181 182 152 181 180 149 181 179 147 180 178 144 180 177 143 182 177 142 183 177 147 133 185 147 133 186 149 132 186 150 132 186 151 132 187 151 133 188 150 134 189 149 134 191 149 134 192 148 135 192 149 137 192 151 138 193 152 140 194 152 142 194 152 145 193 155 147 193 157 148 192 156 151 191 158 154 190 159 159 188 158 164 188 157 167 186 157 168 185 157 170 184 156 171 183 155 172 182 155 173 181 156 175 180 157 176 180 156 176 180 156 175 178 155 176 177 155 176 177 155 176 178 157 175 179 157 177 180 158 177 180 158 178 182 159 179 183 158 180 184 156 181 184 153 180 184 152 180 184 153 181 183 152 180 182 150 180 180 148 180 179 145 180 179 143 181 178 143 182 177 145 131 186 145 131 188 147 132 188 148 131 188 148 132 189 148 133 190 148 134 190 147 134 192 146 134 192 146 134 193 146 134 193 148 137 193 149 138 194 148 141 194 149 143 194 151 146 193 153 148 193 155 151 192 156 154 191 157 159 190 155 163 188 155 166 187 154 169 186 154 171 185 154 172 183 154 172 181 155 174 179 157 175 179 158 175 179 158 176 178 156 176 177 155 176 176 155 176 176 156 177 178 156 177 179 158 178 181 158 179 181 158 180 182 159 181 184 157 182 185 156 182 185 155 181 184 154 180 184 153 181 182 152 180 181 150 179 181 148 180 180 147 180 180 146 181 179 145 181 176 146 129 188 146 130 190 145 130 190 146 130 190 146 131 191 146 131 192 145 132 193 145 132 194 144 132 195 144 132 196 145 132 195 145 134 194 145 137 195 145 139 195 146 142 193 149 145 192 151 148 192 153 150 191 154 153 189 154 158 190 154 161 190 152 165 188 151 168 186 151 171 184 152 173 182 153 173 180 155 174 179 157 176 179 157 177 178 157 177 177 156 177 175 155 176 175 154 176 176 154 178 177 156 180 178 158 181 180 158 181 181 158 182 181 158 183 183 157 183 184 155 183 184 154 181 183 154 181 182 153 181 182 152 181 181 150 181 180 149 181 180 148 181 179 147 180 178 147 180 177 146 129 189 146 130 191 144 129 193 145 129 192 145 129 194 145 129 196 145 130 196 143 130 196 144 131 197 144 132 197 144 131 196 143 132 196 143 135 196 143 138 195 144 140 194 147 144 193 150 147 192 151 148 190 150 152 189 151 157 190 151 160 190 150 164 189 150 167 187 150 170 183 151 171 181 152 172 179 154 173 179 156 176 178 156 178 177 155 179 176 155 178 175 155 177 175 154 178 176 154 180 176 155 181 178 157 182 180 156 183 180 156 184 181 155 184 183 154 185 183 154 185 183 153 184 182 153 184 182 152 184 182 151 184 181 150 184 181 149 183 180 149 181 180 148 180 179 146 181 177 146 129 190 146 128 192 145 128 193 145 127 194 145 129 195 144 127 198 144 127 198 143 128 198 143 128 198 143 129 198 144 130 198 144 131 197 141 133 196 142 136 195 144 139 195 147 142 193 148 146 192 148 148 191 149 151 189 149 155 190 148 158 191 148 162 190 149 165 187 149 167 184 150 168 181 151 169 180 152 171 179 154 175 178 154 178 176 154 179 175 154 179 177 154 179 176 154 179 176 154 180 177 153 182 179 154 183 181 154 185 180 154 185 180 153 185 181 153 187 182 153 186 183 152 186 182 152 184 182 151 184 181 151 185 180 151 185 181 150 184 181 149 183 180 148 183 179 146 182 178 144 127 192 145 126 193 145 127 194 145 127 195 144 127 196 143 126 198 143 126 199 144 126 198 143 127 198 143 128 198 144 129 198 144 130 199 142 133 197 141 137 195 142 139 195 144 142 193 146 145 192 147 146 192 148 150 190 148 152 190 147 156 191 146 160 190 147 163 188 148 165 184 149 166 182 150 167 181 150 170 180 152 173 180 152 176 178 153 178 176 153 179 177 153 181 177 153 181 176 154 182 178 153 183 179 152 184 180 153 186 179 152 186 178 151 186 179 151 186 178 151 185 179 151 184 181 150 184 180 150 183 180 150 185 179 150 186 180 150 187 179 149 187 180 148 186 179 146 184 178 144 124 193 144 124 195 143 125 196 142 126 197 143 127 197 143 126 198 143 125 198 143 125 197 143 126 197 143 128 197 144 129 197 143 131 197 141 134 198 140 137 196 142 140 194 143 143 194 143 145 192 145 147 192 147 149 191 147 151 191 146 154 190 145 158 189 145 160 188 146 162 185 148 164 183 148 166 182 149 169 182 150 172 181 151 174 179 151 176 178 152 178 178 152 181 178 153 182 178 153 183 178 153 183 178 152 184 179 152 185 180 150 185 179 149 184 178 150 184 177 150 184 177 150 184 178 148 183 178 148 182 180 148 183 180 148 185 180 148 188 179 149 188 180 147 187 180 145 186 179 145 125 194 144 124 197 143 125 198 142 126 198 142 127 198 142 127 198 144 127 197 144 126 197 144 127 197 144 128 197 144 130 197 142 132 196 140 134 197 139 137 196 141 141 194 142 144 194 142 146 192 144 149 192 146 151 191 146 152 191 145 153 190 144 156 188 144 158 188 146 159 187 146 162 184 146 167 184 146 168 183 147 171 182 148 173 181 149 176 180 151 177 180 151 180 178 151 181 178 152 182 178 151 182 179 150 184 179 150 184 179 148 185 178 147 184 177 148 183 176 149 183 176 149 182 176 148 181 177 147 181 178 146 183 178 146 186 178 148 187 178 148 188 180 146 188 180 144 187 179 142 124 194 142 124 197 142 124 199 141 125 199 141 126 198 142 127 198 142 126 198 143 127 197 143 127 197 143 129 197 141 132 196 139 133 196 140 135 195 139 138 194 140 141 194 141 144 193 141 146 192 143 148 192 144 150 192 144 152 191 142 153 190 143 155 188 144 159 188 145 161 186 145 162 186 144 166 185 144 170 184 145 172 183 146 173 182 146 175 181 149 177 180 149 179 178 149 181 178 150 181 178 149 181 178 149 182 179 148 182 179 147 182 177 146 183 175 147 182 176 148 182 176 148 181 175 148 180 175 146 182 177 145 184 177 145 185 178 146 185 178 146 186 179 144 187 180 142 187 180 139 125 195 140 124 197 139 124 199 140 125 200 140 126 200 140 126 199 140 127 198 140 128 199 141 129 197 140 130 196 138 133 196 138 135 196 138 136 195 138 139 194 139 142 194 139 144 194 140 147 194 142 148 194 142 150 193 141 152 193 141 152 191 142 154 190 143 159 189 143 162 188 143 164 187 142 168 186 142 171 185 142 174 184 143 176 183 144 177 182 147 178 181 147 178 181 149 180 180 150 181 179 150 180 178 149 180 178 148 180 177 146 180 177 145 180 176 144 180 176 144 180 176 146 181 175 146 180 175 145 182 176 144 185 176 143 185 177 143 185 177 143 186 178 141 187 180 139 187 180 137 125 196 137 124 197 137 124 199 139 124 200 139 125 200 139 125 199 139 126 199 138 128 200 138 130 198 137 132 198 137 133 197 136 135 196 137 138 195 137 140 194 137 143 194 138 146 195 139 148 195 140 149 195 141 151 194 141 151 194 141 153 194 142 156 192 143 160 192 143 163 190 143 166 189 141 169 187 141 173 186 141 176 185 142 179 184 143 180 182 146 180 182 147 180 182 148 181 183 149 182 181 150 180 179 148 180 179 147 181 177 145 180 176 144 179 176 143 179 175 142 180 175 144 180 175 144 181 175 143 183 175 143 184 175 142 185 176 141 185 176 140 185 177 139 186 177 137 186 177 135 126 194 135 126 196 135 125 198 136 125 200 137 125 200 137 126 199 136 127 200 136 129 202 136 131 200 135 133 199 135 134 198 134 136 197 134 138 196 134 141 195 135 143 195 136 146 197 137 148 198 139 150 198 140 150 197 140 152 195 142 154 196 143 158 195 144 161 194 143 165 192 141 168 190 140 171 188 141 175 186 141 178 187 142 181 185 143 181 183 145 181 183 147 182 183 148 183 183 148 183 182 148 181 181 147 180 179 146 180 177 144 179 177 142 179 176 142 180 175 141 180 175 142 181 174 141 182 174 141 183 174 142 183 175 142 183 175 141 183 175 139 184 176 136 185 176 136 185 177 132 127 192 132 127 194 132 125 196 133 124 199 134 125 201 134 126 200 134 127 201 134 129 203 133 131 202 134 134 201 133 136 199 132 137 197 132 138 198 133 140 197 134 142 197 135 145 199 136 148 200 137 150 200 139 152 199 140 154 197 142 156 196 144 160 196 144 163 193 143 167 192 141 169 191 139 172 189 141 175 187 141 178 187 141 182 185 143 183 184 145 183 182 147 185 182 148 184 181 148 184 181 148 183 180 147 182 179 145 180 178 144 179 177 142 179 176 141 180 175 140 181 175 141 181 173 140 181 173 140 181 173 140 183 174 141 183 174 141 183 174 139 185 175 136 184 176 135 184 177 129 128 190 129 127 193 129 126 195 130 125 199 130 125 200 131 126 202 131 128 203 130 129 204 130 132 203 131 134 201 132 135 200 131 137 199 131 138 200 131 139 200 132 142 200 134 143 201 135 147 201 137 149 200 138 153 199 139 156 197 142 159 197 143 163 197 144 166 194 144 169 191 142 172 190 140 173 189 141 175 188 141 179 187 142 182 185 144 184 183 146 185 181 146 185 181 146 185 180 147 183 180 146 183 179 146 183 179 144 181 178 143 178 177 141 178 176 140 179 177 139 180 175 141 181 173 141 181 172 141 180 172 140 181 173 141 182 174 141 184 174 138 183 174 135 183 174 134 183 176 128 127 188 127 126 192 126 126 194 127 125 197 128 126 200 128 128 202 128 129 203 127 131 204 127 133 202 129 134 201 130 135 201 129 137 201 130 139 202 129 140 202 129 141 201 131 143 201 134 146 200 135 150 200 136 154 198 137 158 197 139 162 197 141 164 197 143 167 194 144 170 192 143 173 190 141 175 188 140 178 188 140 180 187 141 183 184 142 186 183 143 186 181 143 185 180 143 186 180 144 185 179 144 184 179 144 184 179 144 182 178 142 180 177 140 179 177 139 180 177 138 180 177 140 180 174 141 181 173 141 181 172 141 182 172 140 183 173 139 183 172 138 183 172 135 182 173 133 182 175 125 127 186 124 126 190 124 125 193 124 127 196 125 128 199 124 130 201 125 130 203 125 131 203 125 132 203 126 134 203 127 135 203 127 137 204 127 139 204 127 141 202 128 143 202 129 144 200 131 146 199 132 150 199 134 154 198 135 158 198 137 162 197 139 165 196 141 168 195 143 171 192 142 174 190 140 177 190 139 180 189 139 183 188 139 185 185 139 186 184 140 186 181 141 186 178 141 187 178 141 186 180 141 185 179 141 184 178 142 182 178 142 182 179 140 181 178 139 180 178 139 180 178 139 181 176 141 181 174 141 181 174 140 182 174 139 184 174 138 184 173 138 183 172 136 182 173 134 182 175 122 127 185 122 127 188 123 126 192 124 128 195 122 130 197 122 131 199 122 131 201 121 131 202 123 133 204 124 134 204 123 135 204 124 137 205 124 140 204 124 141 203 126 142 201 127 143 200 129 146 198 130 150 197 132 155 198 134 159 198 136 162 196 137 167 196 139 170 194 140 172 192 140 175 191 139 178 190 137 181 189 137 183 188 138 186 186 137 188 184 137 187 183 138 187 180 138 187 178 137 186 179 138 187 180 138 184 180 139 182 179 140 182 179 139 181 178 139 181 179 140 181 179 140 181 179 141 181 177 141 181 176 139 183 176 139 184 175 138 184 175 137 183 174 136 182 175 135 183 175 118 128 185 119 128 187 121 126 190 122 128 193 121 130 196 119 131 197 118 131 200 118 132 201 120 134 204 121 136 204 121 137 204 121 138 205 121 139 204 122 141 202 124 143 201 126 144 200 127 148 198 129 152 197 131 156 197 133 158 196 134 162 196 135 167 195 137 170 194 138 173 192 138 177 191 138 179 190 136 182 189 136 185 189 136 187 187 135 188 185 135 188 184 135 188 183 134 188 181 133 187 180 134 187 181 134 187 181 135 184 180 137 182 180 138 181 179 138 181 179 138 182 181 138 181 181 140 182 180 140 182 179 139 184 178 139 185 176 138 184 175 136 183 175 136 183 175 135 184 176 115 129 184 116 127 186 119 126 188 120 128 191 119 129 194 118 131 196 117 131 199 116 132 201 117 134 202 118 137 203 119 138 204 119 139 205 119 141 205 121 143 203 123 145 200 125 147 199 126 149 199 128 152 198 130 155 196 131 158 195 132 162 195 134 166 195 136 169 194 137 173 193 136 177 192 135 180 191 135 183 190 135 185 189 133 187 187 132 188 186 133 189 185 132 189 183 132 189 180 131 188 181 132 187 182 133 188 183 132 186 183 134 184 182 135 183 182 135 183 181 135 183 181 136 183 182 137 183 180 138 183 179 138 185 179 137 185 177 137 184 176 136 183 175 134 184 176 133 184 177 113 125 184 114 125 186 118 125 187 118 127 189 117 128 191 115 129 194 115 130 196 115 132 198 115 135 200 116 137 202 117 138 204 117 141 204 119 144 204 122 145 203 124 146 201 125 148 200 125 150 199 127 152 198 128 155 197 129 159 196 130 162 195 132 166 195 134 170 194 136 173 194 134 177 192 133 181 192 132 183 190 132 185 189 131 187 188 130 188 188 131 189 185 130 189 183 129 188 182 129 187 182 130 187 184 131 188 184 131 188 185 133 186 183 134 185 182 134 184 182 134 184 182 134 184 182 135 184 180 136 184 178 136 186 178 135 185 177 136 184 176 135 183 177 133 183 177 132 182 178 111 123 181 112 124 183 115 125 185 115 126 186 116 126 189 114 128 190 113 129 192 113 131 194 114 134 197 115 137 200 115 139 202 116 142 202 119 145 203 121 146 202 123 148 201 123 150 200 124 152 199 125 153 198 127 157 198 128 160 197 129 162 195 131 166 195 132 171 194 133 175 193 133 178 193 131 181 193 131 183 191 130 184 190 128 186 189 127 188 187 126 189 185 125 189 183 126 188 182 126 188 183 128 188 184 129 189 185 130 188 185 131 187 185 132 186 184 132 185 184 131 185 183 133 184 181 134 185 179 135 186 178 135 186 177 134 185 176 134 185 176 134 184 177 133 183 178 133 183 178 109 121 179 110 121 181 112 123 184 113 124 185 113 125 186 113 127 187 112 128 189 112 130 190 113 133 194 112 137 197 113 139 199 116 143 200 119 146 200 120 148 200 122 150 200 123 152 199 124 154 199 124 155 198 127 157 198 128 159 198 129 162 196 131 168 195 132 172 195 133 176 193 132 179 194 131 181 194 130 182 192 129 184 191 126 186 190 125 188 188 123 188 187 122 188 186 122 188 185 123 188 184 125 187 185 127 187 186 128 187 186 129 187 186 129 185 186 130 184 185 129 183 183 131 184 180 132 185 177 133 186 177 133 186 176 133 184 175 133 184 175 134 184 176 133 183 178 133 182 178 109 121 179 109 122 180 110 123 182 111 125 183 112 125 184 112 127 186 112 128 187 112 130 189 111 133 191 112 135 194 114 139 196 116 143 197 117 146 198 118 148 198 120 150 200 122 153 200 124 156 200 124 157 199 126 159 199 128 161 199 130 163 199 131 169 198 132 174 196 132 178 195 131 181 195 130 182 195 129 183 194 127 184 192 125 187 191 124 188 190 121 188 188 120 188 188 120 188 188 122 188 187 123 187 187 124 186 187 124 185 187 126 186 188 126 184 188 127 182 186 128 182 185 130 182 181 130 184 178 131 185 177 132 185 176 133 184 176 133 184 176 134 183 177 133 183 177 133 182 178 109 123 177 109 124 180 109 124 182 110 126 182 112 126 182 113 126 184 112 127 185 111 129 188 112 132 190 113 135 192 115 139 195 116 144 197 116 146 198 117 149 199 119 150 200 121 154 200 122 157 201 123 159 202 125 161 201 128 164 201 129 166 201 131 169 200 132 173 200 130 178 198 130 181 196 129 183 195 128 183 194 126 184 192 123 186 192 122 187 190 120 187 190 118 188 190 119 188 190 121 187 189 122 186 190 122 185 190 122 184 190 122 183 188 124 182 187 125 182 185 127 181 185 128 182 182 128 183 179 129 184 177 131 185 176 131 185 177 132 185 177 133 183 177 133 183 178 133 182 178 108 124 177 108 125 180 109 125 182 110 125 182 112 126 183 113 126 184 112 127 184 112 129 186 113 133 189 114 136 192 115 140 194 115 145 196 116 147 198 117 149 199 117 151 199 120 155 200 122 158 202 122 161 203 124 162 203 127 166 203 128 167 204 129 170 202 130 174 202 129 179 200 129 182 198 128 184 197 126 185 195 122 186 194 121 187 193 121 188 194 119 188 194 117 188 193 118 187 192 119 187 191 120 186 191 121 185 190 120 183 190 120 182 189 122 181 186 123 180 185 124 180 184 126 181 181 127 182 180 128 183 177 129 184 176 130 184 177 131 184 178 132 183 178 132 182 178 133 181 179 108 124 180 109 125 181 109 125 183 110 125 184 112 126 185 113 126 186 113 127 186 113 130 187 113 134 190 114 139 193 115 143 194 114 145 195 115 148 198 116 150 198 117 153 199 119 155 200 121 159 202 122 162 204 123 164 204 125 167 204 126 169 204 128 171 204 128 174 204 128 179 203 128 182 202 126 184 200 124 186 199 121 188 198 120 188 197 119 188 198 118 188 198 116 187 197 116 187 195 118 186 194 119 185 192 120 185 192 119 183 190 119 181 189 120 180 187 121 179 185 122 179 184 124 180 181 127 182 180 128 182 179 129 183 177 130 183 177 130 182 178 130 182 179 131 182 180 132 181 179 109 123 182 109 125 184 111 126 185 112 126 186 113 126 187 113 127 187 113 128 188 113 131 189 114 135 192 114 140 193 114 144 194 115 147 196 116 149 198 117 151 200 118 154 200 120 157 201 122 160 202 123 163 203 123 165 205 124 166 204 125 170 205 126 172 205 126 175 206 126 179 206 126 183 205 125 185 203 123 187 203 121 188 201 119 187 201 118 187 202 117 188 201 115 187 200 115 186 199 116 186 196 117 185 194 117 184 192 118 182 191 118 181 190 118 181 189 119 179 186 121 180 184 123 180 182 125 180 179 127 180 179 128 179 177 129 180 177 130 181 178 131 181 180 132 181 181 131 181 181 110 124 183 111 126 186 112 126 187 115 128 188 114 128 189 113 130 189 113 131 191 113 134 192 114 137 192 115 140 193 116 145 194 116 149 196 117 150 199 118 153 200 120 156 201 121 159 202 122 160 203 123 163 204 123 163 204 123 165 205 123 169 206 124 171 206 124 174 207 125 178 207 124 183 207 122 186 206 121 187 205 120 187 206 118 187 206 117 186 206 116 186 204 116 185 203 115 185 200 115 185 199 117 184 197 117 183 194 118 182 193 117 182 192 118 181 191 118 180 187 119 179 185 122 179 182 124 179 179 127 179 179 128 178 178 127 178 178 128 179 179 130 179 180 130 180 180 130 181 180 111 126 184 113 127 186 113 127 187 115 128 188 117 129 190 115 132 192 115 135 193 114 137 193 117 138 192 117 142 194 117 147 195 118 151 197 120 152 198 121 155 201 122 157 203 123 160 204 123 162 205 123 162 206 123 163 206 123 165 207 122 167 207 122 170 207 122 172 207 122 177 208 122 182 208 121 185 207 120 187 207 120 186 209 118 187 208 117 186 208 116 185 206 116 185 204 116 185 202 116 186 201 116 185 199 117 185 196 117 184 195 117 182 194 118 181 192 117 180 189 118 180 185 120 180 182 123 178 180 125 177 180 126 177 178 125 177 178 126 177 179 127 177 180 129 178 180 128 178 180 113 127 184 114 128 185 116 129 186 118 129 188 119 131 191 118 134 193 117 136 194 117 138 193 119 141 193 120 146 194 120 149 195 120 152 197 120 153 198 121 156 202 123 159 204 124 161 205 123 162 206 122 163 207 122 163 207 122 164 209 121 166 210 121 168 209 121 170 208 121 176 209 121 180 210 121 183 208 120 186 209 120 186 210 119 188 208 117 187 209 117 186 208 116 186 206 116 187 204 117 187 202 116 186 200 116 186 198 115 183 196 115 182 195 116 181 193 117 180 189 118 179 186 118 179 184 121 178 182 122 177 181 124 176 179 124 175 179 125 175 179 126 176 178 127 176 178 126 177 178 115 128 184 117 130 185 119 131 186 121 131 188 121 132 191 119 134 193 119 138 194 121 140 194 121 144 195 122 148 196 122 151 197 122 153 198 121 155 200 122 158 203 124 160 205 124 163 206 123 163 207 122 164 208 121 163 208 121 164 210 121 165 211 121 168 211 121 170 209 121 173 211 121 177 211 121 181 209 120 184 209 120 186 211 119 188 210 117 186 210 116 187 210 116 187 208 116 187 207 117 186 205 116 185 202 115 185 201 114 183 200 114 181 197 114 181 194 115 179 191 116 177 188 118 177 185 120 177 183 121 176 181 122 176 180 122 175 180 124 174 179 125 174 177 126 174 176 125 175 177 117 129 184 119 130 184 121 131 186 123 132 189 122 133 191 122 135 193 122 139 194 122 143 195 122 147 197 123 149 198 121 152 199 121 154 200 121 156 202 123 159 204 124 161 205 123 163 207 122 164 208 121 164 208 121 164 210 120 164 211 120 166 212 121 168 211 120 170 210 121 171 211 121 175 211 121 179 210 121 182 210 120 184 211 118 186 212 117 187 211 116 188 210 117 187 209 117 185 208 116 184 207 114 185 204 114 184 202 114 182 200 113 181 197 113 180 194 114 179 192 115 177 189 116 176 186 118 176 183 119 176 182 120 176 181 122 176 180 122 175 179 123 175 177 125 174 175 125 175 175 119 131 183 121 132 184 123 132 186 124 133 189 123 136 192 123 138 193 122 142 195 122 145 196 123 148 198 122 151 200 121 153 201 120 155 201 122 157 203 124 159 205 124 162 206 122 163 207 121 165 209 121 165 210 121 165 211 121 165 212 121 166 213 120 169 212 120 170 212 120 171 212 121 174 211 121 177 210 121 179 209 120 182 211 118 184 212 117 186 211 117 187 210 118 186 209 117 184 209 115 184 208 114 183 206 114 182 203 114 182 201 114 181 198 112 180 195 113 179 192 114 177 189 113 176 186 114 177 183 116 177 182 118 176 181 119 177 179 121 176 178 123 175 176 123 174 174 123 175 174 121 133 183 122 135 185 124 135 187 126 137 188 125 140 191 124 143 193 123 145 195 122 148 196 121 149 198 121 152 200 120 154 201 120 156 202 121 159 204 123 159 205 123 160 206 123 162 207 122 163 209 121 164 211 121 165 212 120 167 212 121 167 213 120 167 213 119 168 212 118 170 211 119 172 210 121 174 210 120 176 209 119 178 210 118 180 211 118 183 210 118 185 209 117 185 208 116 184 208 114 183 207 114 182 206 114 182 205 114 181 202 114 181 199 112 180 195 113 178 192 113 176 189 113 176 185 114 177 182 116 178 181 117 177 179 118 176 178 120 174 178 122 173 175 122 174 174 123 174 173 124 137 184 125 138 186 126 139 187 127 141 190 126 144 191 126 147 193 123 148 196 121 150 197 120 152 197 120 153 199 120 155 201 119 157 202 120 159 204 122 159 205 122 160 205 122 161 207 121 162 208 120 163 211 119 164 212 119 166 212 119 167 212 117 167 212 116 167 211 116 168 211 117 170 210 119 172 210 118 174 210 119 175 209 118 177 210 118 180 209 117 181 207 117 182 207 117 183 206 116 183 206 115 183 205 115 182 204 114 181 202 114 181 198 113 180 195 113 179 191 113 178 187 114 177 184 116 178 181 117 178 180 118 177 179 119 175 178 120 173 177 122 172 175 123 173 173 122 173 173 127 139 184 127 140 186 128 142 188 129 145 189 129 147 191 128 150 192 125 151 196 122 151 197 121 152 197 120 155 199 119 156 200 120 158 203 120 159 204 121 159 206 121 160 206 122 161 206 119 162 207 117 163 208 116 164 210 116 165 212 115 167 212 115 168 212 115 168 212 116 169 212 118 169 211 119 171 211 118 172 210 118 173 208 118 175 209 117 178 208 116 180 207 115 181 206 116 182 206 116 184 206 116 184 205 116 184 203 115 183 200 114 181 197 114 180 194 113 180 190 115 179 187 116 178 184 118 178 181 118 178 179 119 176 178 119 174 178 120 172 177 122 172 175 123 172 172 123 173 172 129 141 185 128 143 187 129 145 189 129 147 190 129 150 191 129 152 193 127 152 196 123 152 198 121 153 198 120 155 199 120 157 199 120 157 201 120 159 203 120 160 205 120 161 205 120 161 205 118 162 205 116 163 206 114 164 209 114 165 211 113 166 210 113 168 211 114 168 211 115 167 212 118 170 212 119 173 211 119 173 210 118 174 209 117 175 209 116 178 208 115 179 207 116 181 206 116 182 206 116 183 206 116 184 204 115 184 203 115 184 200 114 183 196 114 183 193 114 183 189 116 182 186 117 180 184 118 178 182 118 177 181 119 175 179 120 173 179 120 172 177 122 171 174 123 172 173 123 173 172 131 142 186 131 146 188 130 147 190 130 148 191 129 151 193 128 152 195 126 153 197 124 153 197 122 154 198 121 156 199 121 158 199 122 157 201 121 159 202 121 161 204 120 162 204 120 163 204 119 164 203 117 164 205 114 164 207 113 165 208 113 165 208 112 166 209 113 168 210 115 168 210 117 170 211 119 173 211 119 174 209 119 176 208 117 177 208 117 177 208 116 179 207 115 181 207 115 182 207 115 183 206 115 184 204 114 184 202 114 185 200 113 184 197 113 185 193 115 185 189 116 183 187 117 182 186 118 179 183 120 178 183 120 176 181 120 172 179 120 171 178 122 171 176 123 172 174 123 172 173 133 144 186 133 147 188 132 149 190 131 149 192 130 150 193 129 152 195 128 153 196 125 154 198 123 155 198 122 157 199 121 159 200 122 159 202 122 160 203 122 160 202 123 161 203 121 163 202 120 163 202 117 164 204 113 164 205 113 164 206 113 164 207 113 167 209 114 167 209 115 168 210 117 170 210 118 171 209 119 173 208 118 175 207 117 176 207 117 177 207 116 178 208 116 181 207 115 183 206 116 183 205 115 185 204 114 185 202 114 185 200 113 185 196 112 185 193 114 185 190 116 184 188 117 182 186 118 181 184 120 179 184 121 176 182 122 173 180 121 171 180 122 170 177 123 169 175 123 169 174 135 144 185 134 146 187 132 149 189 130 149 192 130 150 193 129 152 194 128 154 196 126 155 197 124 156 198 123 157 199 123 159 201 123 158 202 123 159 201 123 159 201 123 161 201 122 162 202 120 163 201 117 163 202 114 163 203 113 164 205 112 165 207 113 165 209 114 166 209 115 166 208 116 168 208 117 170 207 117 172 206 117 175 205 117 176 205 117 178 206 118 179 207 116 181 205 115 182 204 115 184 204 115 185 204 114 185 202 113 185 200 114 184 196 114 185 194 115 185 192 116 184 189 116 183 187 120 181 187 120 178 186 122 175 185 123 173 183 123 171 181 122 169 179 123 168 176 123 167 174 135 143 186 132 146 187 130 149 189 130 149 192 131 150 194 130 151 196 128 153 197 126 154 198 125 155 199 123 157 200 123 157 200 123 157 201 123 157 201 123 158 200 122 160 199 122 161 200 122 162 200 118 163 200 117 163 202 115 164 204 114 164 206 114 163 208 114 165 208 114 166 207 115 168 207 115 170 206 116 172 206 117 174 205 117 176 205 118 177 206 118 179 206 116 180 205 114 181 204 114 183 204 114 184 203 113 184 202 113 184 200 114 183 197 114 183 195 115 183 193 117 182 191 118 181 190 120 181 189 121 178 189 122 174 188 123 171 185 123 169 183 123 167 180 123 166 178 123 165 175 133 144 187 132 146 188 129 148 189 128 149 190 128 150 192 130 150 194 128 152 197 126 152 199 125 154 200 124 155 200 123 155 200 123 155 201 124 156 200 124 157 199 123 159 199 122 161 198 120 161 198 118 162 199 117 163 201 116 163 203 116 162 206 115 162 207 114 165 207 114 166 205 115 168 206 116 169 206 116 171 205 116 173 205 117 175 204 117 176 204 118 177 203 116 179 204 115 179 203 114 180 204 114 182 203 113 182 202 113 183 199 115 183 197 115 182 196 115 181 195 117 180 194 118 180 193 120 179 193 121 176 192 122 172 190 123 170 188 123 168 184 122 167 181 122 165 177 122 164 175 132 144 187 130 145 187 128 147 188 127 149 189 127 151 191 128 151 193 128 151 196 126 151 198 125 152 200 125 153 200 123 152 200 123 152 200 124 153 199 123 155 198 121 158 197 120 159 196 118 159 197 117 161 198 118 162 200 118 161 202 116 160 204 116 161 205 115 163 205 115 165 205 115 167 204 115 169 205 116 171 204 116 173 203 117 174 203 117 175 203 117 176 202 116 177 202 115 177 202 114 178 202 115 179 202 114 181 200 115 181 198 117 181 197 117 180 196 116 180 196 117 180 195 118 179 195 119 177 194 120 175 193 120 172 191 120 169 189 121 169 186 121 167 182 120 165 178 122 164 175 132 143 186 129 145 186 127 148 188 127 150 189 126 151 190 126 151 191 126 151 194 126 152 195 126 152 198 125 153 198 124 152 199 124 151 199 124 151 198 122 154 197 121 156 196 120 158 196 119 158 195 118 159 197 118 159 198 119 160 200 118 160 202 117 160 202 117 162 203 117 166 202 117 166 203 117 168 203 117 170 202 117 172 201 116 174 201 117 175 201 117 175 201 115 175 201 115 175 200 114 175 200 115 177 201 115 179 199 116 179 198 116 178 198 116 178 198 116 178 199 117 178 198 118 177 197 118 176 196 118 174 195 118 172 194 118 170 191 118 170 188 119 168 183 120 166 179 122 163 176 131 144 184 129 146 184 128 148 185 127 150 187 126 150 188 126 150 189 125 151 191 125 151 192 124 153 195 124 153 197 124 152 197 124 151 197 124 150 197 122 152 196 122 154 196 121 156 195 120 156 194 119 156 195 119 156 196 119 158 197 119 159 199 118 159 201 118 162 202 119 164 201 119 166 201 119 167 201 120 168 201 119 170 200 118 172 198 118 174 200 118 174 199 117 173 199 116 172 200 116 173 201 116 175 201 116 176 201 117 176 200 117 176 201 116 176 201 116 176 201 116 175 200 116 175 199 116 175 197 117 173 196 117 172 196 118 172 195 119 171 191 119 169 187 119 166 183 122 162 179 131 143 180 129 145 182 128 147 184 127 149 185 126 150 187 125 150 188 124 151 190 124 152 191 123 153 193 123 153 195 124 152 195 124 151 194 123 150 195 122 151 195 123 152 195 123 154 194 122 153 194 121 154 194 121 154 195 121 155 195 120 157 197 120 158 199 119 159 201 120 161 201 121 163 200 121 164 200 122 166 199 122 167 199 120 169 197 121 171 197 119 171 198 119 171 197 119 170 199 118 171 201 117 172 201 116 173 201 117 173 202 116 174 201 116 173 203 116 173 203 116 173 202 115 174 200 116 174 197 117 174 196 118 174 196 118 173 196 119 171 193 120 171 190 121 167 185 122 163 181 129 142 177 128 144 179 128 146 182 126 148 184 126 149 185 125 151 186 124 151 189 123 152 189 122 152 191 123 152 193 125 152 194 125 151 194 124 152 194 123 151 194 124 151 194 124 152 194 124 152 193 124 152 194 123 153 195 123 155 195 123 155 197 122 156 198 121 157 199 122 158 199 122 160 199 122 161 199 123 164 199 123 165 198 122 166 197 122 168 197 121 169 197 121 169 196 120 169 198 119 169 200 118 170 200 117 171 201 117 172 201 117 172 201 117 171 203 116 171 204 115 170 203 116 172 201 116 173 199 117 173 198 117 174 197 119 173 196 119 171 194 120 171 191 120 168 188 122 165 185 