P3
50 50
255
196 149 125 195 148 127 194 146 128 191 144 130 189 142 132 189 142 133 190 141 135 189 140 135 188 140 136 188 139 136 186 138 137 185 138 140 186 138 143 186 137 146 186 137 148 186 135 149 187 133 150 189 132 152 189 130 154 190 129 154 190 127 154 190 125 155 189 123 155 189 123 156 190 120 157 191 118 158 192 117 158 192 116 159 193 115 161 192 115 164 191 114 166 190 115 167 192 115 170 194 116 173 196 116 175 197 114 178 198 112 182 199 110 184 200 109 186 201 107 188 202 106 191 202 106 194 203 106 196 202 108 198 203 108 199 203 109 198 201 110 197 201 112 198 200 113 197 201 115 198 198 150 124 197 149 126 195 147 127 192 144 129 190 142 131 190 141 133 190 140 134 190 141 134 189 140 135 189 139 136 187 137 138 185 138 140 186 138 144 186 138 147 186 137 150 186 135 150 187 133 152 189 133 154 191 131 155 190 130 155 190 128 155 190 126 155 190 124 156 190 124 157 191 122 158 193 120 158 193 118 158 194 117 159 193 116 160 194 116 163 194 115 164 193 115 166 194 115 168 195 116 172 197 115 174 197 113 176 198 110 180 199 108 182 200 107 185 200 106 188 202 105 191 203 106 194 203 107 196 203 107 198 202 107 199 203 109 199 203 110 198 202 112 198 201 114 199 201 115 200 199 151 123 198 149 124 194 146 126 191 144 127 190 142 130 190 141 133 190 140 134 190 140 135 190 140 136 189 139 137 187 138 140 186 139 142 185 139 145 186 139 147 186 138 150 187 135 152 188 133 154 189 132 155 190 130 156 190 129 156 191 128 156 190 126 157 190 126 157 191 124 157 192 122 159 192 121 158 192 119 158 194 117 160 194 117 161 194 117 163 195 116 163 194 116 166 194 116 169 195 115 172 196 114 174 197 112 176 198 109 179 198 107 181 198 106 184 199 106 188 200 106 190 202 107 192 201 108 194 203 108 197 203 107 199 204 108 200 203 109 199 202 111 199 202 113 199 202 113 201 198 153 121 197 150 123 195 148 124 192 146 126 192 143 127 192 141 131 191 140 134 190 140 135 190 140 136 191 140 139 190 139 142 188 140 145 187 141 147 186 140 149 186 138 151 187 135 153 189 133 155 190 131 157 191 130 157 192 128 157 193 128 158 193 128 158 193 127 159 193 124 159 193 122 158 192 121 159 191 119 160 193 117 161 195 116 162 195 117 163 196 117 164 196 116 167 194 115 168 193 114 171 194 112 174 195 108 176 196 106 179 197 105 181 197 105 184 199 105 186 199 105 188 201 107 190 201 108 193 202 109 196 204 107 198 204 107 199 204 108 200 204 110 198 203 111 199 202 111 200 197 152 120 196 150 122 194 148 123 194 146 124 194 144 128 193 142 132 192 140 134 192 139 135 192 140 138 192 141 141 191 141 143 190 141 146 188 142 148 186 141 151 186 139 152 187 136 154 188 133 155 190 132 157 191 131 158 193 129 159 195 129 159 195 128 159 194 126 159 193 124 159 193 122 159 192 120 160 192 117 160 192 115 161 193 115 162 193 116 164 195 116 165 195 115 166 194 113 168 193 111 171 193 109 175 194 106 177 195 104 179 195 103 182 197 104 183 199 104 185 200 104 187 201 105 190 201 107 192 202 108 195 203 107 196 204 108 198 205 107 198 204 108 199 203 109 199 202 110 200 197 152 119 196 150 121 196 148 123 195 148 125 194 145 129 193 143 131 194 141 133 194 140 135 193 141 138 192 142 142 191 142 143 190 143 146 189 144 148 188 143 151 187 140 152 187 136 154 188 134 155 190 132 157 191 132 158 193 130 158 195 130 158 195 128 159 195 125 160 194 122 159 193 121 159 192 118 161 191 115 161 191 114 162 192 114 163 193 114 164 193 114 164 194 113 165 192 111 168 192 111 171 193 108 175 194 106 178 194 103 180 194 102 182 196 103 184 199 103 186 201 104 187 202 105 189 202 106 191 202 108 193 202 108 194 203 109 196 203 108 197 202 108 198 201 109 199 200 109 199 197 150 119 197 149 121 197 148 122 195 148 126 195 146 129 195 144 132 195 143 133 195 141 136 193 142 138 192 142 142 191 144 144 190 145 146 190 144 148 190 142 151 189 139 153 189 137 155 190 135 157 191 134 159 192 132 160 194 131 159 195 130 159 195 128 158 195 125 159 194 121 159 194 119 159 192 117 160 191 115 161 190 114 162 191 113 164 191 112 164 191 113 163 192 111 164 192 111 167 192 109 171 193 107 175 193 105 178 193 103 180 194 103 182 195 103 184 199 102 186 201 102 188 202 104 189 201 105 190 200 108 192 200 109 193 200 109 194 201 108 195 202 107 197 200 108 199 199 109 197 199 148 121 198 147 122 197 147 123 196 147 126 195 146 129 195 145 132 195 144 134 194 143 135 194 142 138 192 142 142 191 143 144 191 145 146 191 144 148 191 143 151 192 140 154 191 138 155 192 136 157 193 135 159 195 132 161 196 131 161 196 130 160 196 128 159 196 125 159 195 121 160 196 118 160 195 116 160 194 115 160 192 115 162 191 113 163 191 111 164 190 110 164 191 110 165 191 108 167 191 107 169 193 106 173 193 105 176 192 104 180 192 104 181 194 102 184 197 102 186 200 102 187 200 104 187 200 104 188 199 107 189 199 109 191 198 109 192 199 109 193 200 109 195 198 109 197 196 108 196 199 147 123 199 146 123 197 146 124 197 146 127 196 145 129 196 145 131 196 143 133 194 142 135 193 141 138 192 143 142 192 144 144 191 145 146 192 146 148 192 144 151 194 143 153 195 140 155 196 139 157 197 136 159 198 133 161 198 131 161 198 129 160 197 126 160 197 124 160 197 121 160 197 119 160 197 117 161 195 117 161 194 115 161 192 112 162 190 110 163 189 109 164 189 107 165 189 107 167 190 106 168 192 105 171 193 105 174 192 104 178 192 104 180 193 103 183 195 103 184 197 105 185 199 105 186 199 104 187 199 106 186 198 108 189 198 108 191 198 108 191 199 109 193 197 108 195 196 106 195 198 148 124 197 147 125 197 146 127 197 146 128 196 144 130 196 144 131 196 143 133 196 141 135 194 141 138 193 142 141 192 145 144 192 145 145 193 146 148 195 144 149 196 143 151 198 141 154 199 140 156 199 138 158 200 135 159 201 132 160 201 128 161 201 125 160 200 124 160 199 122 160 198 120 161 198 119 161 197 117 162 194 115 161 191 112 161 189 110 162 189 107 163 189 105 165 190 105 167 191 104 168 192 104 170 192 103 173 191 103 176 192 103 179 194 103 181 194 103 182 196 104 183 197 103 185 199 105 185 199 106 186 197 107 187 197 107 190 197 107 191 197 108 193 196 107 193 196 106 192 198 149 126 198 149 128 197 148 128 196 146 129 195 145 131 194 143 132 196 142 133 196 141 135 194 141 138 194 141 140 193 144 143 192 146 144 194 146 147 196 144 148 197 143 151 200 142 154 201 141 156 201 139 157 201 136 159 202 131 160 203 128 160 203 126 160 202 124 160 202 122 159 202 121 160 200 120 160 198 118 161 194 115 161 191 111 161 190 110 161 191 107 163 189 105 164 190 105 166 191 104 168 191 103 170 191 103 172 191 103 175 191 102 177 192 102 179 193 103 181 195 103 182 197 103 183 198 104 183 197 105 185 197 106 186 196 106 187 196 107 189 195 107 190 195 107 191 196 107 190 199 149 126 198 150 127 197 148 129 196 146 129 195 144 131 194 143 131 195 142 132 195 141 134 195 141 137 194 142 140 194 143 142 194 145 144 194 146 147 196 144 148 199 144 151 202 143 153 203 141 153 202 139 156 203 135 158 204 132 160 205 130 160 204 127 160 203 125 161 203 122 160 203 120 159 201 120 160 197 118 160 193 114 162 192 111 162 191 110 161 191 108 163 190 105 164 190 105 166 190 103 168 190 103 171 190 103 173 190 102 174 190 102 176 191 101 178 192 102 179 194 103 180 196 103 181 195 103 182 195 104 183 194 104 185 194 105 186 193 106 187 194 107 189 194 106 190 194 107 190 199 151 125 198 150 127 196 149 128 195 147 129 194 145 131 194 143 129 194 143 131 194 142 133 194 143 135 193 144 138 194 144 141 195 145 144 195 145 145 197 144 147 201 145 150 203 143 151 203 142 153 203 140 156 204 137 158 205 134 160 205 132 160 204 129 161 203 127 161 203 124 160 203 123 160 201 120 160 198 117 161 195 114 163 193 112 163 191 110 162 192 108 164 193 105 165 191 104 166 191 103 168 190 102 171 190 101 171 190 101 173 189 102 175 191 101 176 193 102 177 194 102 178 194 103 179 194 103 180 194 103 181 193 104 183 192 106 185 191 106 187 191 107 189 192 107 190 192 107 189 198 152 125 197 151 126 195 149 128 195 147 129 195 145 130 194 144 129 193 145 129 193 145 131 191 144 135 191 144 137 193 144 140 195 146 143 196 145 144 197 145 146 201 145 149 204 144 152 205 142 153 205 141 156 205 140 158 205 137 160 205 134 160 204 131 161 205 129 160 203 126 159 202 124 160 201 121 161 199 118 163 197 115 164 195 113 163 194 111 162 193 108 164 193 106 165 193 105 167 192 104 169 190 102 170 191 101 170 190 100 172 191 100 173 193 100 175 194 101 176 194 101 176 193 101 178 193 103 180 193 103 181 191 104 183 191 105 185 189 105 187 189 105 189 190 107 189 191 107 187 199 154 123 198 153 126 196 151 128 194 149 128 194 147 128 194 146 128 193 147 128 192 148 131 192 146 134 192 146 137 194 146 140 194 146 142 195 146 143 197 146 146 201 145 149 204 145 151 205 143 153 206 141 155 205 140 156 204 139 159 205 136 161 205 133 160 205 130 160 203 127 159 201 125 161 200 122 162 199 121 163 197 119 164 195 116 164 194 112 165 193 110 165 193 107 166 193 106 167 193 104 167 192 103 167 193 102 168 191 100 170 193 100 172 194 100 174 194 100 175 193 100 176 192 100 177 193 101 178 192 103 182 191 104 183 191 104 186 189 105 188 188 107 188 190 108 188 191 108 188 200 156 122 198 154 124 196 153 127 195 151 127 194 151 128 194 150 128 195 150 129 194 149 132 193 149 135 193 147 137 194 147 140 194 147 142 196 146 143 198 147 145 201 147 147 204 146 150 206 145 153 207 143 155 207 142 156 206 141 159 205 138 160 205 134 160 204 131 160 203 128 159 202 126 159 200 124 161 198 123 165 197 121 165 195 118 165 194 115 166 193 111 167 193 109 168 194 109 168 194 106 167 194 103 167 194 102 169 193 101 170 194 100 172 194 99 173 193 100 174 193 99 176 191 99 177 191 100 179 190 102 182 190 103 184 191 105 186 189 107 188 188 108 188 189 108 187 190 108 187 202 157 120 200 156 123 197 155 125 196 154 128 196 154 129 195 153 129 196 151 130 196 150 133 196 149 136 195 149 137 195 149 139 196 148 142 198 148 144 200 148 145 202 148 148 204 147 150 206 146 153 207 145 155 207 143 156 208 141 158 206 138 159 206 134 159 205 130 160 204 128 160 203 126 161 201 124 162 199 124 166 197 123 167 195 120 167 194 116 167 193 113 168 194 111 169 194 110 168 195 109 168 195 105 167 194 104 168 193 103 169 195 101 171 194 99 172 192 101 174 192 100 175 190 100 178 189 100 179 189 102 182 190 103 185 190 104 185 189 106 187 188 107 188 189 107 188 190 106 187 204 157 121 201 157 123 198 156 126 197 156 128 196 156 129 196 154 130 198 153 131 198 151 134 197 150 136 197 149 137 198 149 139 200 149 142 200 149 145 201 148 147 203 148 149 205 147 151 207 147 153 208 145 155 208 144 156 207 141 157 205 137 158 204 134 159 206 130 159 205 127 160 203 125 161 203 125 163 200 124 165 198 124 167 195 122 167 194 117 168 193 114 168 193 112 168 195 111 167 195 110 167 194 108 167 193 105 167 193 104 169 193 103 171 193 102 172 192 103 174 192 102 176 190 101 177 189 101 179 189 102 181 190 103 182 189 104 183 189 107 185 188 107 186 189 107 186 190 106 187 205 158 121 202 157 123 200 157 124 198 157 128 198 156 130 198 155 131 200 155 132 199 153 134 199 152 136 199 150 138 200 150 139 201 149 143 203 148 146 203 148 147 204 148 150 205 147 152 206 146 154 207 146 154 207 144 155 205 140 156 203 136 157 204 134 157 205 129 159 205 127 160 205 125 161 203 126 162 201 126 164 200 125 166 198 122 167 196 120 168 194 117 169 194 113 169 194 112 167 194 110 167 194 107 166 194 106 167 193 106 169 192 105 171 191 104 172 191 103 174 192 103 176 192 103 178 191 103 180 191 104 181 190 104 182 190 105 183 188 107 184 189 107 185 189 107 186 189 106 186 206 158 121 203 158 121 201 158 124 201 158 127 200 157 130 200 156 131 200 156 133 199 155 135 200 153 136 200 151 139 201 150 141 203 149 145 204 149 146 204 148 149 205 148 152 206 147 153 206 146 154 206 145 154 204 143 155 202 139 155 202 134 156 202 132 159 205 129 160 205 127 160 205 125 161 203 126 161 202 125 162 200 125 164 199 123 166 197 121 168 196 119 168 195 115 169 195 112 168 195 109 167 194 107 167 193 107 168 192 107 170 191 106 171 191 106 173 192 105 174 192 105 177 192 105 179 192 105 181 192 106 182 191 106 183 191 106 185 189 107 186 189 107 186 189 107 186 189 107 186 206 159 122 204 158 123 203 157 124 202 158 127 201 158 130 201 157 131 201 157 134 200 154 135 202 153 138 202 152 140 202 151 143 203 150 145 204 150 146 205 149 150 206 148 153 206 147 154 205 146 156 204 144 155 203 141 155 201 137 156 200 134 158 201 132 161 203 129 161 205 127 161 204 125 161 203 126 161 202 126 161 201 125 163 199 123 165 197 121 167 196 119 168 193 116 167 194 112 168 195 109 168 194 108 168 193 107 169 192 106 171 192 106 172 192 105 173 192 106 174 192 106 177 192 105 180 192 106 183 192 106 185 192 107 185 190 108 186 190 108 187 190 109 187 190 109 187 189 109 187 206 160 123 205 159 124 203 157 126 203 157 127 202 157 130 201 156 132 201 156 134 200 155 136 202 153 138 201 152 141 203 152 143 203 151 145 203 149 147 205 149 149 205 148 153 205 147 155 204 146 157 202 142 156 202 140 156 202 137 158 201 133 161 202 131 163 203 128 162 203 127 162 203 126 160 203 125 160 202 125 161 201 125 163 199 124 164 198 122 165 195 119 166 193 115 167 192 111 168 193 109 169 194 108 169 192 106 170 192 105 172 192 104 173 191 105 173 190 105 176 191 105 179 191 105 181 191 106 185 192 107 187 190 106 187 189 106 188 190 108 188 190 111 188 189 112 187 188 111 188 204 160 123 204 159 125 203 156 126 203 155 127 202 155 130 201 154 133 201 153 136 201 154 137 201 151 139 201 151 141 203 151 143 204 151 146 205 149 148 206 149 149 206 147 153 204 146 155 203 144 157 203 141 157 203 139 157 202 137 159 201 134 161 201 131 162 201 129 162 202 128 161 203 126 161 202 126 160 202 125 162 202 124 162 200 123 162 197 120 164 195 117 165 193 113 167 192 111 168 193 109 168 193 108 170 193 107 171 192 105 173 191 105 174 191 104 174 190 104 177 190 104 179 191 106 182 191 107 184 191 106 186 190 105 187 189 106 188 189 107 188 189 109 189 188 111 189 187 111 189 202 158 122 202 157 124 203 156 125 202 155 127 202 153 131 200 151 134 200 151 137 199 151 138 200 150 140 202 150 142 205 149 144 205 149 147 205 150 149 206 149 150 205 146 152 203 145 154 203 143 155 203 141 157 203 139 158 201 138 160 200 136 162 199 132 162 200 130 162 200 129 162 201 128 160 201 127 161 201 126 162 201 126 162 199 123 161 198 119 162 195 115 164 193 113 166 194 110 168 194 108 168 193 108 169 193 107 172 192 105 173 192 105 175 191 105 175 190 104 177 190 104 179 190 105 181 191 106 183 190 106 185 190 105 186 189 106 187 189 107 188 188 109 188 187 110 189 185 111 188 198 156 123 199 154 124 201 154 126 200 154 127 199 152 130 198 150 134 198 149 137 198 149 139 199 149 141 202 148 143 205 148 145 206 148 148 206 148 149 205 147 149 205 145 151 204 143 154 203 142 155 203 140 158 202 140 159 200 140 160 199 138 161 198 134 162 198 132 161 198 131 161 199 130 160 200 129 161 199 128 161 198 125 162 197 122 161 197 118 161 195 116 163 193 113 165 194 111 167 194 109 169 194 108 170 193 106 171 192 105 172 192 105 174 192 104 176 191 104 175 192 104 177 192 104 179 192 105 181 190 105 183 189 105 185 188 105 187 188 106 188 188 108 188 187 109 188 184 111 187 195 155 125 197 154 126 198 153 126 198 152 127 197 152 130 197 149 134 197 149 137 197 149 140 198 149 142 201 148 143 203 147 147 204 147 149 206 146 150 206 144 151 204 144 152 203 143 154 203 142 157 203 142 158 203 141 159 200 140 160 198 138 161 197 135 162 196 133 160 197 132 160 198 131 160 197 130 160 197 128 162 196 124 162 195 122 162 195 119 162 195 116 162 194 114 165 194 112 167 195 109 169 195 108 169 193 107 170 194 106 170 193 105 172 192 104 174 193 104 174 194 104 176 193 104 177 193 105 180 191 105 183 190 105 184 189 105 185 186 105 186 186 107 186 186 110 186 183 111 186 193 154 125 194 155 127 195 154 128 196 152 129 196 152 131 195 152 133 195 150 136 195 149 138 195 149 141 198 149 143 200 148 145 202 146 148 204 145 150 206 144 152 204 143 154 203 143 155 203 143 156 202 143 157 201 143 158 199 141 160 197 139 161 196 136 161 195 134 160 195 133 160 195 131 160 194 128 160 194 126 161 194 124 161 194 121 161 195 119 162 195 116 163 194 113 165 193 111 168 194 108 169 193 107 169 192 108 170 194 107 170 194 105 170 194 104 171 194 103 173 195 104 175 194 103 175 193 104 178 191 105 181 190 105 182 190 106 182 188 107 184 186 107 183 185 110 184 182 112 184 192 155 125 193 155 127 193 156 128 193 154 129 193 154 132 193 152 133 193 150 136 193 149 138 194 149 141 195 149 142 197 147 145 199 146 147 201 143 149 203 143 152 203 143 154 202 143 155 202 142 155 201 144 156 200 144 157 198 142 159 196 140 159 195 137 159 193 134 159 193 133 159 194 130 159 194 127 160 193 124 161 194 122 160 194 119 161 195 117 163 196 115 166 195 113 167 193 109 169 192 108 170 191 107 170 192 107 171 192 107 170 193 106 168 194 104 170 193 103 172 193 103 173 192 103 174 191 103 176 189 104 179 188 105 181 190 107 181 189 107 182 187 109 182 184 111 181 182 112 182 189 156 124 191 157 127 193 158 128 192 157 129 193 155 132 193 152 134 192 150 135 192 150 138 192 150 140 193 150 143 194 147 145 197 145 147 198 143 150 199 142 154 200 143 155 200 143 156 200 143 155 199 144 156 199 144 156 197 143 158 195 140 159 193 137 158 192 135 158 191 132 158 192 129 158 193 126 158 193 124 160 194 122 160 195 119 161 196 115 163 196 114 167 195 112 168 193 109 170 193 108 171 192 106 171 193 105 171 193 105 169 192 105 168 193 104 169 192 103 170 191 104 171 190 104 172 188 103 174 187 103 177 188 104 178 187 106 178 187 108 179 186 111 181 184 112 180 182 112 181 189 158 124 191 158 127 193 159 128 192 159 129 192 156 132 191 154 134 191 152 136 192 151 137 192 150 139 193 149 143 193 148 145 194 145 148 195 143 151 196 143 153 197 143 154 197 144 155 197 145 154 197 145 155 197 144 156 195 142 157 194 140 158 192 137 157 192 134 157 191 131 156 191 128 156 191 125 157 193 123 157 194 121 157 195 118 160 196 115 162 196 113 167 194 110 168 193 110 169 193 107 170 193 105 170 194 104 170 194 104 169 193 103 169 192 103 169 191 102 170 189 103 170 188 103 172 187 102 174 187 102 175 187 103 176 186 106 176 186 109 176 185 111 178 184 111 179 182 110 179 189 159 122 191 160 126 192 161 128 191 160 130 191 158 133 190 156 135 190 155 136 191 153 137 192 150 139 192 149 143 192 147 145 193 145 148 193 145 150 193 144 152 194 144 153 195 144 153 196 145 154 196 146 155 195 144 156 193 141 157 193 140 156 192 137 157 191 134 157 190 131 156 189 127 155 190 125 156 193 122 157 194 119 157 194 117 159 194 114 162 194 112 166 194 111 168 194 110 169 193 108 169 193 106 169 192 103 169 193 102 168 193 101 168 192 101 169 190 102 170 188 102 171 186 102 172 186 102 173 185 102 173 184 103 173 185 105 175 184 109 175 183 111 176 183 111 177 180 111 178 189 161 121 189 161 125 190 161 128 190 160 130 189 159 133 190 158 136 189 157 137 190 155 138 191 152 140 192 149 142 193 147 144 193 145 147 192 145 147 192 144 150 192 144 151 194 144 152 195 145 152 194 146 153 192 146 155 191 143 155 190 139 156 190 136 157 188 134 158 188 130 157 189 126 155 190 125 156 191 120 158 192 118 158 193 116 161 193 114 162 192 113 165 193 111 168 193 109 168 192 108 168 192 105 170 192 102 169 192 100 168 191 99 167 191 100 168 189 100 170 188 101 170 186 102 171 185 102 171 184 102 172 184 104 172 184 106 173 182 107 173 182 109 175 182 110 175 180 111 176 189 161 120 189 162 123 189 162 126 188 161 129 189 159 131 190 159 134 189 159 135 190 157 137 191 154 138 192 150 141 193 147 142 192 146 143 192 146 144 191 144 146 191 144 148 193 145 148 193 145 149 192 146 152 191 145 154 189 143 155 188 139 155 189 136 156 188 133 158 187 129 157 188 126 156 189 125 157 190 121 157 191 119 159 192 116 161 191 114 163 191 112 165 192 109 166 191 107 165 191 106 166 191 103 169 190 102 168 191 99 168 191 98 168 190 98 167 189 99 168 187 100 169 185 101 169 185 102 170 184 101 172 184 102 172 183 105 173 181 107 173 181 108 174 181 110 174 179 111 173 189 161 118 189 161 122 189 162 123 189 161 126 190 160 130 191 159 133 189 160 134 189 159 135 190 157 137 190 153 138 191 149 140 191 148 141 192 146 142 190 144 143 189 145 145 190 145 146 190 145 147 190 144 150 189 145 152 187 142 153 186 138 154 187 136 155 186 133 156 185 129 156 187 126 156 187 123 156 189 121 157 190 119 158 191 115 160 191 113 162 190 111 163 189 108 163 189 105 164 188 104 165 189 102 166 189 101 167 189 99 167 189 97 167 189 97 166 188 98 167 188 98 167 186 99 168 185 101 168 184 101 170 184 101 171 182 104 171 181 105 172 179 107 173 178 109 172 177 109 171 189 162 116 189 161 119 189 161 121 189 161 124 191 161 128 191 160 131 189 160 133 189 159 134 189 158 135 189 156 136 190 152 138 190 150 141 190 148 141 190 147 142 189 147 143 189 145 145 189 145 145 189 144 148 189 144 149 186 142 150 185 138 151 184 136 151 183 132 153 184 129 154 184 126 155 185 123 155 187 120 155 189 117 158 190 114 160 190 112 162 189 111 161 188 107 162 186 104 162 188 103 162 188 100 164 187 99 165 187 98 166 188 97 166 187 97 165 187 98 166 186 98 166 185 98 167 184 100 167 184 100 168 183 100 169 181 102 170 180 102 171 178 105 170 176 106 170 173 107 169 189 162 113 190 162 115 190 161 117 190 161 120 191 161 124 191 160 127 190 160 131 189 160 133 189 159 133 189 157 135 190 154 137 190 152 139 189 150 140 189 150 141 190 149 141 189 148 142 189 146 142 189 145 143 189 144 145 187 142 147 185 138 148 183 135 147 183 132 148 184 128 150 184 126 152 183 122 152 184 118 153 186 115 156 188 113 159 187 112 160 188 110 160 187 108 161 186 105 161 186 102 160 188 100 161 186 99 162 186 98 163 186 97 163 186 98 164 185 99 165 184 99 166 183 100 167 182 100 168 181 100 169 182 100 169 181 101 169 179 101 169 177 103 168 175 105 167 172 105 167 188 161 110 189 162 112 190 162 114 190 161 117 190 160 120 190 160 124 189 160 128 188 160 130 188 159 132 189 158 134 189 155 136 189 152 137 189 151 138 188 150 138 187 149 139 188 148 140 189 146 140 189 145 141 189 144 142 188 142 144 186 138 145 184 134 145 184 131 146 184 128 147 183 125 148 181 121 149 183 118 150 185 115 152 186 113 155 185 113 158 186 111 159 186 109 159 186 106 159 186 103 158 187 101 158 187 100 160 187 100 161 186 99 163 185 99 163 184 99 163 182 100 164 181 101 165 180 102 167 180 102 167 180 101 167 179 101 168 178 100 168 175 102 166 174 102 166 171 101 165 186 162 108 188 162 109 189 162 110 190 161 113 190 161 117 189 161 121 188 160 123 186 160 126 187 158 129 186 157 132 187 155 134 187 152 134 188 151 136 187 150 137 186 149 137 187 147 137 187 146 138 187 145 139 189 144 141 189 142 143 187 139 144 185 136 144 183 132 144 183 128 145 182 125 147 181 121 147 181 119 149 183 116 150 184 113 152 184 112 154 184 111 155 184 109 156 184 107 156 184 104 156 186 102 156 187 100 157 185 101 160 184 101 162 183 100 162 182 100 162 181 100 164 180 101 164 179 102 164 178 102 164 177 102 165 177 102 165 176 100 166 175 100 165 172 102 164 170 101 164 184 163 105 185 164 107 186 163 109 188 162 111 189 162 114 189 162 116 187 161 119 187 160 122 186 158 125 185 156 127 186 154 129 186 153 132 187 152 134 187 151 134 187 149 135 186 147 134 186 146 135 187 144 136 188 143 138 187 142 140 186 139 143 185 137 144 184 133 143 183 128 144 181 124 145 181 121 146 180 120 147 181 116 149 181 113 150 182 112 150 182 110 152 181 109 153 181 107 153 181 105 154 184 104 153 185 102 156 185 102 158 183 102 159 183 102 160 182 102 161 181 102 162 179 102 163 178 103 163 177 102 162 176 102 162 175 102 163 174 100 163 174 99 164 172 101 163 170 103 162 182 165 104 183 166 106 185 164 109 186 163 110 187 163 112 187 162 114 186 161 116 186 159 120 185 157 122 185 156 124 185 154 127 185 154 129 186 152 132 186 150 132 185 149 132 185 147 132 186 146 132 186 145 133 186 144 135 186 141 137 185 139 140 184 137 142 183 134 142 182 129 142 179 126 143 179 123 145 179 120 145 179 117 147 179 114 148 180 112 149 181 111 150 179 109 150 179 107 150 180 106 151 181 105 151 183 105 153 184 104 156 183 103 157 181 103 157 180 103 158 179 104 159 178 104 161 176 104 161 176 103 161 176 103 161 175 102 161 173 100 161 172 101 161 171 102 160 169 104 160 182 168 102 183 167 105 184 165 108 185 164 109 186 163 111 187 163 113 185 161 115 184 159 117 184 157 120 184 155 123 183 154 125 183 153 127 183 151 128 185 150 129 184 149 129 184 148 130 184 147 130 184 145 130 185 144 131 185 142 133 183 138 136 183 136 139 182 134 140 180 130 142 179 128 143 178 125 144 177 122 144 177 119 145 177 116 146 177 112 147 178 111 148 178 110 149 178 108 149 178 107 148 179 107 149 179 106 150 180 105 153 181 105 154 179 104 155 178 104 156 177 105 157 177 105 158 175 105 158 176 105 158 176 103 159 174 102 160 173 102 159 172 103 157 169 104 157 168 105 157 182 168 101 183 168 104 184 166 107 184 165 109 185 163 111 185 163 112 185 160 114 184 158 116 182 157 118 182 154 121 181 154 124 181 152 125 181 151 125 183 151 125 183 151 126 183 150 126 183 149 127 182 147 127 183 144 128 183 141 130 183 139 133 182 136 135 182 135 137 180 132 140 179 128 142 178 126 142 176 123 142 175 121 143 175 118 144 175 114 145 175 111 146 176 110 147 177 108 149 177 108 148 176 108 148 176 107 148 176 107 150 177 106 151 177 105 152 178 105 154 177 105 156 176 105 156 176 105 156 176 105 156 174 104 156 172 104 157 171 103 156 170 105 155 169 106 155 167 107 154 181 168 101 182 168 103 184 166 106 183 165 108 182 164 110 183 162 111 183 159 113 182 158 115 181 157 118 178 154 120 179 154 122 180 154 123 181 153 124 183 153 123 183 152 123 183 151 122 183 150 123 183 149 124 183 145 124 183 142 126 182 140 129 181 137 132 180 136 135 179 133 136 178 130 139 176 126 140 174 124 140 174 121 141 174 118 142 175 114 143 175 112 144 175 110 145 175 109 146 176 108 146 176 108 146 176 108 146 176 108 147 176 107 149 176 105 149 177 104 150 177 104 153 177 103 154 177 104 154 175 105 154 174 105 154 171 105 154 170 106 154 169 107 154 168 108 153 165 110 152 180 169 100 181 168 102 182 169 104 181 167 106 180 164 109 180 162 111 180 160 113 180 159 115 179 157 116 179 156 119 179 154 120 180 153 121 182 153 121 183 154 120 183 154 121 184 153 120 183 151 120 183 149 121 183 148 122 182 144 124 180 141 127 179 138 130 178 136 133 177 135 135 175 132 137 174 128 138 174 124 138 174 121 138 173 118 139 174 115 141 175 113 142 174 111 142 175 111 144 175 110 144 174 110 144 175 109 144 175 107 144 175 107 145 175 106 146 176 105 148 176 104 149 176 103 150 176 104 151 175 104 152 173 106 153 170 107 152 168 109 152 166 110 152 165 111 151 163 112 150 178 170 99 178 170 101 179 170 104 179 169 106 179 166 109 180 163 110 180 160 112 181 159 114 180 157 116 179 155 117 180 154 118 182 153 119 183 155 120 185 156 118 184 156 117 184 155 117 183 152 117 181 150 118 180 147 120 178 145 122 177 142 127 176 139 130 175 136 131 175 134 133 173 131 134 172 129 135 172 125 135 172 121 136 172 118 137 173 116 140 174 115 141 175 114 141 174 113 142 174 111 141 174 110 142 174 110 141 174 108 142 173 107 143 173 107 145 174 106 146 174 105 147 174 104 148 173 104 150 173 105 151 170 107 151 167 108 150 165 110 149 163 111 148 161 112 148 159 113 146 175 171 100 176 171 102 175 170 103 176 169 106 178 166 108 179 164 109 179 162 111 180 160 114 181 158 116 181 156 117 181 155 117 183 155 118 184 156 118 184 158 117 183 157 115 182 155 114 181 152 115 179 150 116 177 147 118 175 145 121 174 142 125 173 138 127 173 136 129 173 134 129 173 131 131 172 128 133 172 125 134 171 122 136 170 119 138 172 118 139 173 117 139 174 116 139 173 114 138 172 112 137 173 111 139 173 110 139 173 108 139 172 107 141 170 108 143 171 106 144 171 105 145 171 104 145 171 104 146 170 106 147 168 107 148 166 109 147 163 111 145 160 113 144 159 113 142 156 114 141 172 170 100 173 170 102 174 170 103 174 168 105 176 166 106 178 164 108 179 163 109 181 161 112 181 159 114 180 157 115 180 156 115 182 157 116 183 157 116 183 158 116 183 157 114 181 154 113 179 152 113 177 151 115 174 148 116 172 144 117 171 141 121 170 138 124 171 135 125 171 134 127 172 132 128 171 129 131 172 126 133 171 123 134 170 120 136 171 117 137 172 118 136 171 117 135 172 115 133 171 113 134 171 112 136 170 111 138 170 110 138 169 108 140 167 108 140 167 107 140 168 106 141 167 105 141 167 105 142 167 107 143 167 109 144 165 110 144 162 111 142 158 114 140 156 115 137 154 116 135 170 168 99 172 169 100 172 169 102 173 167 104 175 166 104 177 165 105 179 164 107 180 162 109 179 159 111 179 156 113 179 157 114 181 157 114 182 157 114 181 157 113 180 155 113 178 152 112 176 151 112 173 150 112 170 148 113 168 145 116 168 140 118 168 136 120 168 134 122 169 133 124 170 132 126 171 129 128 172 127 130 171 123 131 171 120 133 171 118 133 170 118 132 170 117 130 170 115 129 168 114 131 167 113 132 168 112 134 167 112 136 166 110 137 165 109 137 165 109 137 164 108 138 164 107 137 163 108 138 164 108 138 165 109 138 163 110 139 161 110 138 157 113 135 153 114 131 151 116 129 168 166 96 170 166 98 170 167 100 172 166 102 173 166 102 175 165 103 177 164 104 177 162 106 177 159 108 177 157 110 178 155 111 179 155 112 179 155 112 178 155 111 177 154 111 174 152 111 172 152 109 169 148 110 167 147 111 166 145 113 165 140 114 166 136 116 166 134 117 167 132 120 169 131 122 170 129 124 170 125 127 170 121 128 170 119 129 170 117 129 169 117 127 168 116 126 167 114 126 166 113 127 166 113 129 166 113 130 165 113 132 163 111 134 162 112 134 162 111 133 162 110 134 161 110 134 161 109 134 160 110 134 160 109 134 159 111 133 157 111 131 154 113 129 150 114 126 147 116 123 167 164 93 168 164 95 168 165 96 170 165 99 173 163 101 173 164 101 175 163 102 175 162 104 175 160 106 175 157 108 176 156 107 177 155 108 177 156 109 175 155 108 173 154 108 171 152 109 169 152 109 166 150 109 163 148 108 162 145 109 163 140 111 163 136 112 164 133 115 165 131 117 166 130 120 167 127 122 168 122 124 169 120 125 169 119 125 169 118 124 168 116 125 165 115 124 164 114 123 163 113 125 164 114 127 163 114 127 161 113 127 159 114 129 159 114 130 158 113 130 158 112 130 158 112 130 157 111 130 156 110 129 155 111 128 154 112 126 153 112 125 150 114 123 147 116 120 143 118 117 