P3
50 50
255
181 167 138 181 169 140 182 171 144 183 173 147 184 177 149 186 178 151 186 179 153 188 180 155 190 182 158 193 183 162 194 184 165 193 186 168 193 189 170 193 192 170 195 192 171 194 191 173 194 190 174 196 191 174 196 192 174 195 192 175 193 194 177 192 194 178 190 196 181 189 197 181 187 196 181 187 196 182 186 196 182 186 196 183 185 196 182 184 194 183 182 194 183 180 192 183 178 190 183 177 189 182 177 186 180 177 184 177 176 185 177 176 184 175 176 180 174 177 179 174 176 175 173 174 175 172 174 174 170 173 173 168 173 172 166 172 171 164 171 170 162 170 169 161 169 167 160 168 165 160 178 165 139 179 167 142 179 170 144 179 173 146 180 176 148 183 177 150 184 179 153 186 181 156 188 183 157 191 184 161 192 185 165 192 186 168 192 189 171 192 191 171 194 192 171 194 191 173 194 192 173 195 193 174 194 195 174 193 195 175 191 194 176 190 195 177 188 196 180 186 197 180 184 197 180 185 197 181 185 197 181 184 197 181 182 197 182 180 196 182 179 194 183 177 192 183 176 191 183 174 189 181 174 187 180 175 185 178 175 183 176 175 183 175 175 181 174 176 178 173 175 176 172 175 175 171 174 175 170 173 175 167 173 173 165 172 172 163 170 171 162 169 169 161 169 167 159 169 164 159 177 164 140 178 166 143 178 169 144 178 173 147 179 176 149 181 177 151 182 179 154 184 181 156 187 182 157 189 184 160 190 185 163 189 186 167 190 188 169 191 190 172 192 191 172 193 191 172 194 192 173 194 193 172 193 195 173 190 197 175 188 196 175 188 197 176 186 197 178 184 198 179 183 197 179 182 197 179 182 198 180 182 198 181 180 197 181 179 197 182 178 195 183 176 193 183 174 192 182 173 189 180 174 186 180 173 186 179 173 183 177 173 181 176 174 180 174 175 177 173 176 175 172 176 175 169 175 174 167 172 174 166 172 173 164 171 170 163 170 169 162 169 168 161 169 165 160 169 162 161 175 163 140 176 165 144 177 169 145 177 173 147 178 175 150 178 177 152 180 179 153 182 179 155 184 181 157 185 183 159 185 185 163 186 185 165 187 186 169 189 188 172 190 191 172 190 192 173 192 193 174 192 195 172 191 196 172 188 198 173 185 197 174 185 197 175 183 199 177 182 199 178 182 198 178 181 199 177 181 198 178 179 199 180 178 198 180 177 197 181 175 195 182 173 194 182 173 192 181 173 189 180 173 186 180 172 184 180 172 183 177 173 181 175 173 179 174 175 178 173 176 176 171 176 174 169 175 173 166 172 172 165 172 170 165 171 168 165 170 165 163 169 164 161 169 162 161 169 160 161 172 162 141 175 165 144 176 168 146 176 172 149 176 173 152 176 175 154 178 177 155 180 179 156 182 181 159 183 182 160 183 183 163 184 184 165 186 185 169 188 188 172 189 190 173 188 193 173 189 194 174 190 195 173 188 197 173 186 199 173 184 198 174 182 198 175 182 199 176 183 199 177 182 200 177 180 200 177 178 198 178 178 198 179 177 198 180 175 197 179 174 196 180 173 193 181 173 192 180 173 189 180 173 186 179 172 183 178 172 181 176 174 180 175 173 180 174 173 179 173 175 176 171 175 172 168 174 170 166 172 168 164 172 167 164 170 166 165 169 164 163 167 163 162 168 161 161 168 159 161 170 163 141 172 165 145 174 168 148 174 171 151 174 172 153 175 175 155 177 178 157 179 179 158 180 181 161 182 181 162 182 182 164 183 183 166 184 185 169 187 187 171 187 191 172 187 193 172 187 195 172 186 196 172 185 197 173 184 198 172 182 198 173 182 199 174 182 199 175 182 200 176 181 201 175 178 201 176 178 199 176 176 198 178 175 198 178 175 197 179 174 196 178 173 194 180 172 192 180 172 189 180 172 186 179 173 184 177 174 181 176 174 181 175 174 180 174 174 178 173 174 175 171 173 171 168 172 169 166 171 167 164 171 166 164 168 165 164 167 164 163 167 162 162 167 159 162 168 157 161 168 163 143 170 165 146 171 168 149 171 170 152 171 171 154 173 174 155 175 176 157 178 178 160 179 179 162 179 180 164 180 181 166 182 184 166 183 185 168 185 187 169 187 191 170 186 193 171 184 194 171 182 196 171 182 197 172 182 197 171 181 198 172 182 199 174 182 200 175 181 201 175 179 202 173 178 200 175 177 199 175 175 198 177 174 197 178 175 196 179 174 195 179 173 194 178 172 192 179 172 189 179 172 187 178 173 184 176 173 183 175 172 182 174 173 180 173 173 177 172 173 174 171 172 172 168 171 170 166 171 166 164 169 165 164 168 165 164 167 163 163 167 162 163 167 158 162 168 156 161 166 163 144 167 165 148 168 167 151 169 168 153 170 170 155 171 171 157 172 173 159 175 176 161 177 179 163 177 180 165 178 182 167 180 184 167 182 186 167 183 188 168 184 190 169 182 192 169 182 193 169 181 195 170 180 197 171 180 198 171 179 198 172 180 199 173 180 201 173 179 201 173 177 201 172 177 200 173 176 200 175 175 198 176 174 196 177 175 194 179 174 192 179 174 192 179 174 190 178 173 189 178 172 187 178 172 185 175 173 183 174 172 181 173 172 180 173 172 176 171 171 173 170 170 171 169 169 170 167 170 167 166 168 166 164 168 165 165 169 164 165 168 161 164 168 158 162 168 156 160 163 162 147 164 163 149 165 166 152 167 168 155 169 169 157 171 170 159 172 172 161 174 175 163 176 177 164 175 180 165 176 182 167 178 184 168 180 187 167 181 188 168 182 190 168 181 192 168 180 193 168 180 195 169 179 197 170 179 198 170 178 197 172 178 197 172 178 198 172 177 198 172 175 198 172 175 199 173 175 198 174 175 196 175 174 194 177 174 192 179 174 190 180 173 189 179 173 189 178 172 188 176 172 186 176 171 185 175 171 182 173 172 180 172 171 179 171 170 177 169 170 172 170 169 171 170 169 170 168 168 168 167 168 167 166 167 166 165 169 164 165 169 162 164 169 158 162 168 155 159 160 161 147 161 162 149 163 163 153 165 167 156 167 169 157 169 170 159 170 172 162 172 174 163 174 177 164 173 179 166 175 182 168 177 184 169 178 185 169 179 185 169 181 188 166 181 191 167 180 192 168 179 194 170 179 195 170 178 196 170 178 196 170 177 197 172 175 197 173 174 196 173 173 194 174 173 195 175 173 194 176 173 194 176 173 193 177 173 192 179 173 189 179 172 188 179 171 187 178 171 185 176 171 184 175 171 182 174 171 180 173 171 178 171 171 177 170 170 175 169 169 173 169 169 172 169 168 170 169 168 169 167 168 167 166 168 166 165 168 164 165 169 161 164 169 158 162 167 155 160 157 159 148 158 161 151 160 163 154 164 167 156 166 169 158 167 171 160 168 173 162 170 175 163 171 177 165 173 179 167 174 182 169 175 183 171 176 184 170 177 185 168 179 186 166 180 189 167 179 192 169 179 193 170 178 194 170 177 194 170 176 195 170 175 196 171 174 196 173 173 195 174 172 194 176 172 193 177 171 192 178 171 193 178 171 193 178 172 192 178 172 190 179 171 187 179 170 185 177 169 184 176 169 182 176 169 180 174 169 179 172 168 177 171 168 176 169 169 174 169 169 173 168 168 172 169 167 171 169 167 170 166 168 168 165 169 166 165 168 164 164 168 161 163 168 158 162 167 155 159 155 160 149 156 162 151 158 164 155 162 167 157 164 169 159 165 172 161 166 175 164 168 176 165 169 179 167 171 180 169 172 181 170 174 182 171 175 183 170 176 185 168 177 185 167 178 188 168 179 190 169 178 191 171 176 191 170 175 193 170 174 194 170 173 195 172 172 194 173 173 193 175 171 193 178 170 191 179 170 191 179 169 191 179 170 191 179 171 191 178 169 190 177 169 187 176 169 184 176 168 182 176 168 181 175 168 180 174 167 178 172 167 177 170 166 176 169 167 175 169 167 174 168 167 172 169 167 172 167 168 170 165 169 169 165 169 167 164 169 165 163 168 161 162 167 158 161 166 154 158 153 160 150 155 163 152 156 165 155 158 167 159 160 169 160 162 172 162 164 175 165 165 177 167 166 179 169 168 179 171 171 181 172 172 183 172 173 185 170 175 186 169 176 185 167 177 187 167 176 189 169 176 189 169 174 191 170 172 192 170 172 194 171 171 194 173 170 193 173 171 192 175 170 192 177 168 191 179 167 190 178 166 190 178 168 190 178 169 189 178 169 188 176 168 186 175 168 184 174 167 182 175 166 181 175 166 180 175 166 178 172 165 176 169 165 175 169 165 174 170 166 172 169 167 172 168 168 172 167 169 171 165 169 170 165 170 167 164 168 165 163 167 161 162 167 158 161 167 156 158 152 162 151 153 164 153 153 166 156 154 168 159 155 170 161 157 172 163 160 175 166 162 177 167 164 178 170 167 179 171 169 181 174 170 183 173 172 185 171 173 185 171 174 185 169 174 188 167 173 188 168 172 190 170 170 192 170 169 192 170 168 193 172 167 193 172 168 193 173 168 191 174 169 190 176 167 189 177 165 189 178 164 188 178 165 188 178 167 187 177 168 185 176 167 185 174 167 183 172 167 181 173 165 180 174 166 178 174 167 177 172 166 176 170 165 174 170 166 172 169 166 171 169 166 171 168 167 172 167 169 171 167 170 170 166 169 167 165 169 164 164 168 160 162 168 158 160 168 155 158 150 163 151 151 165 154 150 167 157 152 170 159 153 170 161 155 172 165 157 174 167 160 175 168 162 177 170 164 178 171 166 180 173 167 182 173 169 184 172 171 184 170 172 185 169 172 187 169 169 188 170 169 191 171 168 192 170 165 192 170 165 192 170 165 192 170 166 191 172 167 190 173 167 189 176 165 188 177 163 188 177 163 187 178 163 186 178 164 184 176 166 183 174 166 184 172 166 182 171 167 180 172 166 178 173 166 177 172 166 175 172 167 174 172 166 171 170 166 171 168 166 170 168 167 171 168 168 169 167 169 168 167 170 167 167 169 166 166 169 163 164 169 158 162 170 155 159 170 153 157 149 164 150 150 166 154 150 168 157 153 171 160 153 171 162 154 172 165 155 173 168 158 174 169 160 175 172 161 177 172 163 178 172 165 181 172 167 183 172 168 183 172 169 185 170 168 186 171 166 188 171 164 191 171 164 192 171 162 192 170 162 191 170 163 191 171 165 191 172 165 190 173 164 188 175 163 187 177 163 187 177 163 186 178 162 185 177 163 184 175 163 183 173 163 182 172 165 181 171 166 178 171 166 177 172 166 175 172 166 174 171 167 173 171 167 171 170 168 171 168 168 170 168 168 170 168 169 169 167 170 168 167 170 166 166 170 165 164 170 161 162 170 156 159 171 155 157 171 153 155 149 165 148 150 167 152 151 170 156 152 172 159 152 173 162 154 172 166 155 173 169 157 175 170 159 176 172 161 176 173 161 178 172 163 180 173 164 182 174 165 182 172 166 183 171 164 184 171 162 186 172 160 189 171 161 191 171 160 192 171 159 191 170 161 190 171 162 189 171 163 189 173 163 188 175 162 188 176 163 188 176 162 186 175 162 186 175 161 185 173 162 183 172 163 181 172 164 180 171 165 178 171 166 176 173 166 174 173 167 174 172 168 173 171 168 172 170 170 171 169 171 171 168 171 170 168 171 169 167 171 168 165 172 165 164 172 162 162 172 159 160 171 157 157 171 155 155 172 153 155 150 165 146 151 169 151 152 173 155 153 174 158 154 175 162 155 175 165 157 175 168 158 175 170 159 176 171 161 177 172 161 179 173 162 181 173 163 182 174 163 183 174 161 181 173 160 182 172 158 184 172 159 187 172 158 189 171 157 189 170 158 188 171 159 188 171 161 187 171 162 187 172 162 187 173 162 186 174 162 186 174 162 185 174 161 184 174 160 184 173 161 183 172 161 182 172 162 180 172 162 178 171 164 177 172 165 174 172 167 172 172 168 172 172 169 172 170 171 171 168 171 171 168 172 170 167 172 168 167 174 166 165 175 163 163 175 160 161 174 158 159 173 156 157 172 153 155 172 152 154 150 167 146 151 169 151 153 173 154 155 175 157 156 175 161 156 176 164 158 176 168 160 176 170 160 177 171 160 178 172 160 180 173 160 182 174 160 184 175 159 183 175 158 182 174 158 182 173 157 183 172 156 184 172 155 185 171 156 186 172 156 186 172 157 186 172 159 187 172 160 186 171 161 185 173 161 185 173 161 185 174 160 185 173 160 184 173 160 183 173 161 182 173 160 182 172 160 180 171 161 178 172 162 176 171 163 174 171 165 172 172 167 172 171 169 172 169 171 171 169 172 170 168 172 168 167 173 167 166 175 165 164 176 161 162 176 159 161 176 158 159 175 156 157 175 154 155 174 153 153 150 169 147 151 171 151 152 173 154 154 174 157 156 175 161 157 176 165 158 176 169 159 177 172 160 177 171 161 178 172 160 181 175 158 183 175 158 184 175 157 184 177 156 182 176 156 182 174 157 182 173 155 184 173 154 184 172 154 184 173 155 184 173 156 184 173 158 186 173 159 185 173 161 185 173 160 184 174 159 184 174 158 184 173 159 182 173 160 181 173 161 181 175 161 181 173 161 180 172 161 178 171 162 176 172 163 175 172 164 173 171 167 172 170 170 172 170 171 170 169 172 168 169 172 167 166 173 164 166 175 163 164 176 161 162 177 159 162 177 157 160 177 156 158 175 156 156 175 155 155 151 169 149 152 172 152 153 173 155 154 173 157 156 174 161 158 175 166 158 175 170 159 176 173 159 178 172 160 180 174 158 182 176 157 183 177 157 184 177 155 182 178 155 183 178 156 183 176 156 183 175 155 183 175 153 183 174 155 182 174 155 182 174 157 184 174 158 185 174 159 184 174 160 184 175 159 182 175 158 182 175 158 181 175 159 180 175 159 179 175 161 180 176 161 178 175 160 178 173 160 176 172 162 176 172 163 175 171 164 173 170 167 172 170 170 171 169 171 169 167 172 166 165 173 165 164 173 163 164 174 163 163 175 161 162 176 158 161 177 156 159 178 156 156 176 155 155 175 155 156 152 168 150 153 171 153 154 172 155 155 173 159 158 173 163 159 173 168 158 174 171 159 177 173 159 178 174 159 180 175 157 181 176 156 182 177 156 181 178 155 181 179 155 182 179 156 183 178 157 183 176 154 182 176 154 180 176 155 181 176 157 181 177 157 182 176 159 184 176 159 183 176 159 181 176 159 181 176 159 179 176 159 178 177 161 178 178 161 178 178 161 178 176 161 177 175 161 176 173 161 176 172 161 175 171 162 174 171 164 173 170 166 171 170 169 169 169 171 168 166 172 165 164 173 164 162 173 163 162 174 162 161 175 161 161 177 160 159 178 157 156 178 156 154 177 155 153 177 154 155 153 168 151 155 170 154 156 171 156 157 172 160 158 172 164 160 173 168 160 174 171 160 177 173 159 178 174 158 179 175 156 180 177 156 178 178 156 179 179 156 179 179 157 180 180 157 180 180 156 180 179 155 181 178 154 180 178 155 179 179 156 179 180 157 180 179 158 182 179 158 182 178 158 181 178 159 179 178 159 177 178 160 176 178 161 175 179 161 176 178 161 176 176 161 176 175 162 174 174 161 174 173 162 173 173 163 171 171 164 172 171 167 170 169 169 167 167 172 165 165 173 164 164 173 163 163 174 162 162 174 162 160 175 161 159 177 159 157 177 158 154 178 156 153 179 155 153 179 154 154 154 168 153 156 169 155 157 171 157 157 171 160 158 170 164 160 173 168 161 175 171 160 175 173 158 176 174 157 177 175 157 177 176 157 177 177 157 176 179 157 177 181 159 177 182 158 177 181 157 178 180 156 179 178 154 179 179 155 179 181 156 179 182 156 180 183 156 181 182 157 181 181 158 179 181 159 178 181 160 177 181 161 175 180 161 174 179 160 174 178 161 175 178 162 174 176 163 172 175 163 171 173 163 171 173 163 170 172 164 170 170 166 167 169 168 165 168 171 163 166 173 161 164 174 160 163 175 160 162 174 160 160 174 159 157 176 158 155 177 156 153 178 155 152 178 154 153 179 153 153 156 167 153 156 169 155 156 170 157 156 170 161 158 170 164 159 171 168 160 172 171 158 173 172 157 174 174 156 175 175 156 175 177 157 175 177 157 174 179 157 174 181 158 175 181 158 175 179 157 176 178 156 177 179 155 177 181 155 177 182 155 177 183 155 178 184 155 178 183 157 177 183 158 176 182 158 176 183 158 175 183 161 173 182 161 173 180 161 173 178 162 173 178 162 174 177 163 172 176 164 170 174 163 170 172 163 169 172 165 169 171 167 166 170 169 164 168 170 162 167 171 159 165 173 158 163 174 158 161 174 158 159 176 158 156 176 156 154 176 154 153 177 152 151 177 152 151 177 151 152 156 165 152 156 168 154 155 169 157 156 170 162 157 170 164 159 170 168 158 171 170 157 171 172 156 171 174 155 172 176 155 172 177 156 173 178 157 172 179 158 172 179 158 172 180 157 173 180 156 174 180 154 174 181 154 174 181 154 174 182 154 174 183 154 175 184 156 175 184 157 176 183 159 175 184 159 174 183 159 172 182 161 171 181 161 170 180 162 171 178 162 171 179 162 173 178 163 171 176 163 169 175 164 168 173 164 167 172 165 166 171 168 164 169 169 163 167 169 161 167 170 159 165 171 158 162 173 157 161 175 157 158 175 155 158 175 153 156 174 152 154 175 150 151 176 149 150 176 148 151 155 165 152 156 166 155 155 167 158 155 169 161 156 168 164 156 169 168 156 170 170 156 169 172 155 168 176 155 168 177 155 168 179 155 170 179 157 170 180 157 169 180 157 170 180 155 172 181 154 172 181 154 172 182 153 172 181 153 174 182 154 174 183 154 173 184 156 173 185 157 174 183 158 173 183 159 171 182 159 169 181 160 168 181 162 168 179 163 168 178 163 170 179 163 171 178 163 171 178 164 169 176 164 167 174 165 166 172 166 164 170 168 163 168 168 161 167 168 159 166 169 158 164 170 157 161 172 155 160 174 154 158 174 152 158 173 150 157 173 149 154 173 147 152 174 146 150 175 145 150 154 164 153 155 165 156 156 165 159 155 166 161 154 167 164 154 166 168 154 167 170 153 167 172 153 166 175 154 166 177 154 166 179 154 167 180 154 167 180 154 167 180 155 169 181 154 171 181 152 171 182 151 172 182 153 171 182 153 173 182 153 173 184 154 172 185 156 172 185 156 172 183 157 171 182 159 168 181 160 167 181 161 165 179 163 165 179 165 166 178 165 167 178 164 168 177 164 169 177 163 168 177 165 168 175 165 166 172 166 164 170 167 162 167 168 160 167 168 157 165 169 156 162 169 155 160 171 152 159 172 152 157 172 149 158 173 148 157 174 147 154 174 145 152 173 143 150 175 142 150 153 164 153 153 165 156 154 165 159 155 165 162 154 165 165 153 165 167 151 166 168 151 165 171 152 164 174 151 165 177 150 165 179 151 165 180 151 166 181 151 167 182 153 168 182 153 171 183 151 171 183 151 171 182 151 171 183 152 172 182 152 172 183 154 171 185 155 170 185 156 170 184 158 168 181 159 166 179 160 165 178 162 164 177 163 164 177 164 165 177 164 165 177 164 166 175 164 167 175 163 167 175 164 166 174 166 164 174 166 162 170 168 161 168 169 159 166 169 156 163 168 155 161 169 153 160 171 151 158 171 149 156 173 147 157 173 145 156 175 145 154 175 143 152 175 141 151 175 140 152 151 164 152 152 165 154 153 164 158 154 165 162 154 165 165 152 165 167 150 164 167 149 163 169 150 163 173 148 165 176 148 165 179 148 165 180 149 166 182 149 168 183 150 169 183 150 171 184 149 171 184 149 171 183 150 171 182 151 171 182 151 170 183 154 169 183 155 170 183 156 169 182 158 167 180 159 165 178 159 163 176 160 163 176 161 163 175 162 164 175 163 165 175 164 166 173 164 168 173 164 167 172 164 164 172 166 162 172 167 160 171 167 159 168 169 158 164 168 154 162 167 153 161 168 151 161 170 149 159 171 146 157 173 144 156 174 143 156 175 143 155 174 142 153 174 140 152 174 139 151 148 163 150 150 163 153 151 163 157 153 165 161 153 165 164 153 164 166 151 164 167 148 162 169 148 163 173 146 163 176 146 164 179 146 165 181 146 167 183 146 169 184 147 169 185 148 170 185 148 169 185 148 169 184 149 170 184 150 171 182 151 170 182 152 168 182 155 169 181 156 168 180 156 165 179 157 164 177 158 163 176 159 162 176 159 162 174 159 162 174 160 165 174 161 166 173 163 168 172 164 166 170 164 164 171 165 161 172 166 159 169 167 157 167 168 156 164 168 154 162 168 150 161 168 149 160 169 146 158 170 144 156 172 142 155 174 140 155 173 140 154 173 139 153 173 138 151 173 137 151 146 162 150 147 163 151 149 163 155 150 163 158 151 164 162 153 164 164 150 164 166 149 163 169 147 163 174 146 163 177 146 163 180 145 165 182 144 167 183 144 169 185 145 170 186 146 169 185 146 168 185 146 168 184 147 168 185 148 169 183 150 169 181 151 167 180 152 167 180 153 166 178 153 163 177 156 161 176 157 161 175 157 161 174 158 163 174 158 163 173 158 164 173 159 166 172 161 166 172 163 165 170 164 163 170 165 161 170 167 159 169 167 156 166 168 154 163 168 151 162 167 149 161 168 147 159 168 143 158 170 141 156 172 139 155 173 137 154 173 136 153 173 136 153 172 135 151 173 134 150 143 160 149 144 160 151 145 161 153 148 161 156 149 162 160 150 163 163 149 163 167 147 163 171 146 162 175 146 162 178 145 162 180 145 163 182 144 166 183 143 167 185 144 168 187 145 168 186 145 167 185 145 166 184 146 167 184 147 168 182 148 168 181 150 166 180 150 166 179 150 165 178 152 163 176 154 160 175 156 159 175 157 160 174 156 162 173 156 163 173 157 164 172 158 166 172 160 166 171 162 164 169 163 161 168 165 158 168 166 157 167 168 155 164 169 152 162 169 149 161 168 147 160 168 144 158 169 140 157 169 139 155 171 136 154 172 133 153 172 132 153 172 131 153 172 131 151 172 130 149 141 157 148 142 157 150 143 159 152 145 159 155 146 160 159 147 160 163 147 161 166 145 162 171 143 162 175 144 161 177 143 161 179 143 162 181 142 164 183 142 165 185 143 166 187 144 165 187 145 165 186 145 165 185 145 166 183 145 166 182 146 167 181 147 165 180 148 164 179 150 163 178 151 161 176 153 159 176 155 159 174 156 160 173 156 162 172 156 163 172 156 163 171 157 164 170 159 164 168 161 162 168 162 160 167 163 157 165 165 154 163 167 152 161 168 151 160 169 148 160 169 145 159 170 141 157 169 138 156 169 135 155 170 132 155 170 129 154 170 129 153 171 128 152 173 128 152 172 128 149 139 154 148 140 156 149 142 158 152 143 159 154 144 160 157 144 160 161 143 160 165 142 159 169 142 160 173 142 159 178 141 159 179 140 161 181 140 163 182 141 164 184 142 164 186 143 164 187 143 164 186 144 164 185 144 165 184 144 166 183 144 165 182 145 164 180 146 162 180 148 161 178 149 160 177 150 160 176 152 160 175 154 161 172 155 162 171 154 163 170 155 162 170 155 161 168 158 162 167 160 161 166 161 159 165 162 155 164 164 153 162 166 150 160 167 148 160 168 146 159 168 142 159 169 139 158 169 135 157 168 132 156 169 129 155 171 127 155 171 126 153 170 125 153 172 125 151 172 125 151 137 154 146 140 156 149 140 157 151 141 159 153 141 159 156 141 159 160 140 159 164 139 158 167 139 157 171 139 159 177 138 159 179 138 160 181 138 163 182 139 165 183 140 164 185 142 164 186 142 163 186 142 164 185 143 163 185 143 163 184 142 162 183 143 161 181 145 160 179 148 160 178 148 160 177 150 161 177 151 162 175 152 161 172 152 161 170 153 161 169 154 160 169 155 160 168 156 159 168 158 159 166 160 158 165 161 156 164 163 152 161 165 149 160 166 147 160 167 144 159 167 141 159 167 136 159 167 131 159 166 129 157 167 127 157 169 125 156 171 122 154 170 122 153 171 121 153 172 120 152 136 155 144 138 157 147 138 158 149 138 159 152 138 159 155 138 158 158 138 157 162 138 156 166 137 157 171 136 158 176 136 159 178 135 162 181 136 164 182 137 164 183 138 164 184 139 163 184 139 162 185 140 162 185 141 162 185 141 161 184 142 161 183 143 160 180 145 159 178 146 159 178 147 159 178 148 160 177 149 161 175 150 161 173 150 160 170 151 160 169 152 159 169 154 158 169 155 158 168 156 158 166 158 157 165 160 154 163 162 151 161 164 146 159 166 144 159 166 141 159 166 137 159 165 133 158 165 129 158 165 126 158 167 123 158 168 122 158 168 119 155 169 118 154 170 117 154 171 115 153 135 155 142 136 157 145 136 158 146 136 159 150 136 159 154 136 158 157 135 156 161 135 156 165 133 157 169 133 158 173 134 159 178 134 161 182 135 163 183 136 163 183 137 162 183 137 162 184 137 161 184 137 161 184 138 162 185 139 160 184 141 160 182 142 159 179 144 159 179 145 158 179 147 158 180 147 159 179 148 160 176 149 159 173 149 157 172 150 157 171 152 156 170 153 156 169 154 156 168 156 155 165 157 154 165 158 151 163 161 149 162 163 146 160 164 141 159 164 138 159 164 134 159 163 129 159 163 126 159 164 123 158 165 121 158 166 119 158 167 116 157 168 114 155 169 113 154 169 113 154 134 155 141 134 157 142 134 158 145 134 159 148 134 159 152 133 158 157 132 157 161 133 157 164 133 157 167 132 158 171 134 159 176 134 160 179 135 162 180 135 163 181 135 162 182 134 162 183 134 161 183 135 161 184 136 160 184 138 159 183 139 159 181 140 159 179 142 158 178 144 157 179 146 157 181 146 157 181 146 158 178 147 157 175 148 156 174 148 154 173 150 154 171 152 153 170 154 153 168 156 151 166 156 150 166 157 148 164 158 147 162 160 144 160 161 140 159 162 135 159 163 130 160 162 125 161 162 121 161 162 120 161 163 119 162 164 116 161 166 112 160 165 111 157 165 110 155 166 110 155 134 153 139 133 156 140 133 157 144 133 158 147 133 157 151 132 157 156 132 157 160 132 157 163 132 157 167 132 158 171 133 160 175 133 160 177 133 160 178 133 161 179 134 161 180 133 160 182 133 160 182 134 159 183 134 159 183 136 158 182 138 159 181 139 157 179 141 157 178 143 155 180 144 155 181 144 155 182 144 155 180 145 154 176 146 154 175 147 153 174 149 151 172 151 152 170 152 150 168 153 148 167 155 147 166 156 145 164 157 143 162 157 141 160 158 137 160 160 132 160 160 126 162 161 121 162 161 118 162 162 117 163 163 115 164 164 112 164 165 110 163 165 108 160 163 107 158 163 106 156 134 152 136 133 154 138 132 155 142 132 157 146 133 157 150 133 156 154 132 157 158 131 157 161 130 157 165 132 157 168 133 158 172 133 158 175 133 158 176 132 158 177 133 159 178 133 159 178 132 158 180 133 157 182 133 158 182 135 157 182 137 157 180 138 156 179 139 155 179 140 154 180 140 153 182 141 153 181 143 152 180 144 150 179 147 152 176 148 152 176 149 150 173 150 149 171 151 148 169 152 147 167 154 145 166 156 142 165 156 140 164 156 136 162 157 133 162 157 128 162 158 123 164 160 118 164 161 114 165 162 113 165 162 112 166 162 110 165 163 108 164 164 106 162 162 104 159 164 102 158 135 150 134 134 152 136 132 152 141 132 155 145 133 156 148 132 156 152 131 156 157 130 156 160 131 156 162 132 155 165 133 155 169 133 156 172 132 156 174 131 157 174 130 157 175 129 157 176 131 156 178 131 156 181 131 156 183 133 156 182 134 155 181 136 154 180 138 154 180 137 152 181 139 150 182 140 151 182 143 150 182 145 149 180 147 149 177 147 149 176 147 148 174 148 147 171 150 145 168 151 144 167 152 142 166 154 139 166 155 136 165 156 132 164 155 128 163 155 124 163 156 119 164 158 114 166 159 112 166 160 110 166 161 108 167 161 107 165 161 105 164 162 103 162 162 101 161 164 99 159 134 148 134 133 150 137 132 150 141 133 152 144 132 154 147 132 155 151 131 155 154 131 154 157 132 154 159 133 153 162 133 153 165 133 153 170 130 154 171 130 154 173 129 155 174 128 155 176 129 155 178 129 155 180 130 155 182 131 154 181 133 153 181 135 152 182 135 151 182 136 150 181 138 148 183 139 147 184 142 148 183 145 147 180 147 147 178 147 146 175 146 146 172 148 145 170 148 143 169 149 141 168 151 139 168 153 136 168 153 132 167 154 129 166 153 125 165 154 120 165 155 115 166 156 112 167 157 110 167 159 108 167 160 106 166 161 104 166 161 102 164 161 99 162 162 98 161 163 97 160 133 146 134 133 148 138 133 149 140 133 151 143 132 153 144 131 153 148 131 153 151 132 152 154 132 151 157 132 150 160 132 150 162 130 150 166 128 152 168 129 153 170 130 152 172 128 153 174 128 153 177 128 154 179 128 154 180 130 153 181 133 151 180 135 150 182 135 148 182 137 148 182 138 146 183 138 146 183 142 146 183 144 145 180 146 145 178 145 145 176 146 145 172 147 143 172 149 141 170 148 138 169 149 137 170 150 134 169 152 129 168 151 126 168 152 124 167 153 118 167 154 114 168 155 110 169 155 107 168 157 106 167 159 104 166 159 101 165 160 100 164 161 98 162 161 96 161 161 94 159 133 145 135 132 147 137 133 148 139 132 150 142 131 152 144 130 152 146 130 151 149 129 150 152 130 148 154 130 147 157 129 146 160 128 147 163 127 148 165 127 149 168 127 150 171 128 151 171 127 152 175 127 152 177 127 151 178 129 150 179 132 149 179 135 147 181 136 146 183 136 145 183 137 142 183 138 142 183 141 144 181 143 143 179 145 142 177 145 141 174 145 141 172 146 139 172 148 137 171 148 135 171 148 133 171 149 130 170 151 125 170 152 123 170 152 121 169 152 117 169 153 113 169 153 110 169 153 106 168 155 104 167 157 102 164 157 99 164 158 98 163 159 97 162 160 96 160 160 93 159 131 143 135 131 144 137 132 146 138 132 148 141 131 150 142 129 150 144 128 149 146 128 148 149 128 148 152 129 145 155 128 145 158 127 144 160 126 145 163 126 146 167 125 147 169 127 148 170 127 150 172 126 150 175 127 149 177 129 147 179 132 145 179 134 144 180 135 142 182 134 141 183 135 140 183 137 140 182 140 140 181 142 140 177 143 140 176 143 139 174 144 139 173 145 137 173 146 134 173 146 131 172 147 129 173 149 125 172 150 122 172 150 120 172 151 117 170 151 114 169 151 110 169 152 107 168 153 104 167 153 101 166 155 98 164 156 97 164 157 96 163 158 96 161 159 94 159 159 92 158 129 142 134 128 143 135 129 145 137 129 146 138 129 148 139 128 149 142 127 147 145 126 146 146 127 146 149 127 144 152 126 142 155 125 142 158 125 142 161 126 143 165 126 144 167 126 146 169 126 148 171 126 148 173 126 146 175 129 144 178 131 142 179 133 140 181 132 139 181 132 138 182 135 137 182 137 136 181 139 137 179 140 137 178 142 137 176 142 137 176 143 136 175 144 134 174 145 130 175 145 128 174 147 125 174 148 121 173 149 118 173 150 117 172 151 114 170 150 112 169 150 108 168 151 104 167 152 102 165 151 99 165 153 97 164 155 96 163 156 95 162 157 95 161 157 94 160 157 93 158 129 141 135 127 143 135 127 144 137 127 145 137 128 146 138 128 147 140 126 146 143 127 144 144 127 143 147 126 142 150 125 141 154 124 140 157 124 139 160 124 141 163 124 143 165 125 144 167 125 145 169 124 144 170 126 143 173 128 141 175 131 139 177 131 138 178 130 136 180 132 135 181 133 135 180 136 134 180 138 134 180 140 134 179 141 133 178 141 134 177 141 133 177 143 131 176 143 127 176 144 124 176 146 122 176 147 119 175 148 116 173 149 114 172 150 112 170 150 109 169 149 106 168 149 103 166 149 101 165 149 99 163 152 97 163 154 96 161 155 94 160 156 95 160 155 93 159 156 93 158 129 140 134 128 141 134 126 142 136 125 143 136 126 143 137 126 145 139 126 145 140 126 142 142 126 141 145 125 140 149 125 139 153 123 138 155 123 138 158 124 138 160 124 140 163 124 140 166 124 141 168 125 140 169 126 140 171 128 140 174 130 138 175 130 136 176 131 134 178 133 133 179 135 132 179 137 130 179 139 130 180 139 130 181 140 130 179 140 130 178 140 129 178 141 127 177 141 123 177 142 120 177 144 119 177 146 116 176 146 114 174 146 112 172 149 110 171 149 107 168 148 105 166 148 101 165 148 100 164 148 98 162 151 97 160 153 95 159 155 94 159 156 93 159 155 91 159 155 91 158 128 138 135 127 140 135 126 141 135 125 141 135 125 142 136 125 143 137 125 143 138 125 140 141 124 140 144 125 138 149 124 136 152 123 136 153 122 137 155 122 137 158 123 136 160 124 137 163 124 138 166 126 137 168 127 136 169 129 136 172 130 136 173 131 133 174 131 132 175 134 131 177 136 130 177 137 129 178 139 129 179 139 128 180 139 127 179 139 128 179 139 126 178 139 123 177 140 120 177 142 118 178 144 115 176 144 113 175 144 111 175 145 109 172 147 108 170 148 105 167 148 104 165 147 102 164 148 99 162 148 97 160 148 95 159 151 94 158 153 93 158 154 92 158 155 91 158 155 90 157 