P3
50 50
255
155 100 118 156 101 119 156 101 119 156 101 120 155 100 121 155 98 122 154 95 124 153 95 124 153 94 124 151 93 125 151 92 125 151 94 124 151 93 125 151 93 124 151 95 123 150 97 123 151 98 123 152 99 123 154 99 122 155 100 122 156 101 122 157 101 121 156 103 121 156 106 120 155 107 119 156 109 117 157 111 115 158 113 112 158 116 109 159 117 105 160 118 102 161 117 99 161 117 96 163 117 96 165 116 94 168 116 92 171 118 92 174 119 90 175 121 89 174 120 87 174 121 86 175 123 84 174 124 83 174 127 83 175 130 83 176 132 83 178 135 83 178 139 81 179 143 81 180 145 80 156 99 116 157 100 116 158 101 117 157 100 119 156 99 121 155 98 123 155 95 124 154 94 125 153 94 124 152 93 124 152 92 125 152 93 125 151 93 124 151 94 122 152 95 122 151 97 122 152 98 122 154 98 122 155 98 122 154 98 122 155 100 123 156 100 122 155 101 121 155 104 120 154 104 119 155 107 118 156 110 116 156 113 113 157 114 111 157 115 107 158 115 103 160 115 100 160 115 98 162 115 97 165 114 95 169 114 94 173 115 92 174 118 90 174 119 88 174 121 88 175 121 85 176 121 84 175 123 83 176 126 83 177 129 82 178 133 82 181 136 82 181 139 81 182 143 80 182 145 80 156 99 114 156 99 115 158 100 116 158 99 118 157 99 121 157 98 125 155 96 126 154 94 125 153 93 124 152 92 125 152 92 125 152 92 125 151 92 123 150 93 121 151 94 121 153 96 121 154 96 119 155 97 120 155 96 121 156 97 121 155 98 122 156 99 123 155 100 122 154 101 120 154 103 118 155 105 118 156 108 116 156 112 114 156 112 112 157 112 108 158 112 105 159 112 103 160 112 100 162 112 98 166 112 96 170 112 95 173 114 93 174 115 90 174 117 88 175 119 86 176 119 84 176 120 83 176 122 82 176 125 81 177 129 81 178 133 81 181 136 81 183 139 81 183 142 81 183 145 82 157 98 115 157 98 116 157 98 116 158 98 119 158 98 122 156 97 126 155 96 127 154 93 126 153 94 126 152 93 125 151 93 125 150 92 124 151 91 123 151 91 121 151 92 120 153 93 119 154 94 119 155 96 120 156 96 121 157 98 121 157 98 122 157 99 122 155 100 121 154 101 120 155 103 118 156 105 117 157 107 115 157 110 114 156 110 113 157 111 109 158 111 107 159 111 104 161 110 102 164 110 99 167 112 98 170 113 96 173 113 95 174 113 91 175 115 88 176 117 86 176 119 84 177 120 82 178 122 81 179 125 81 178 130 82 180 134 81 181 136 82 183 139 81 184 142 82 185 144 82 157 98 114 159 98 117 159 97 118 159 97 122 157 97 125 156 96 127 155 94 128 153 93 127 152 93 125 152 93 126 150 93 125 150 93 123 150 91 121 152 91 120 152 91 119 152 92 118 154 94 118 156 96 119 157 98 120 158 99 120 159 98 120 158 99 120 156 100 120 154 102 119 155 103 117 157 103 117 159 106 115 159 109 114 159 109 113 159 109 110 159 110 108 160 110 105 161 110 103 164 110 101 167 112 99 170 114 96 172 114 94 173 115 91 174 116 89 176 116 86 178 118 82 179 121 81 181 123 81 181 126 82 181 130 81 184 134 81 185 136 82 186 138 83 187 142 83 186 144 84 159 98 114 159 98 117 160 97 120 159 96 122 158 95 125 156 95 127 155 94 127 154 93 127 153 93 125 153 93 126 150 91 125 149 91 122 150 92 119 150 91 118 152 92 117 153 92 119 154 93 118 156 96 118 156 98 119 158 98 119 159 100 118 159 99 117 156 100 117 155 101 117 155 101 117 158 103 116 160 105 116 161 107 114 161 107 112 160 108 111 160 108 108 162 109 106 163 110 104 164 111 101 167 112 100 170 113 98 171 115 95 173 116 93 174 117 88 177 118 85 179 119 82 181 122 81 182 124 82 182 127 81 184 130 81 186 133 81 188 135 82 189 137 83 190 140 83 188 144 84 160 99 115 159 97 118 159 97 120 158 96 122 158 96 124 157 94 125 156 94 125 156 94 125 155 94 124 153 93 125 151 92 124 150 92 122 150 92 120 150 92 118 151 92 118 152 93 118 153 94 118 156 95 118 157 98 117 158 99 116 159 101 115 158 100 115 156 100 115 155 102 115 156 102 115 159 103 115 160 105 114 162 106 112 162 106 111 162 106 109 163 107 107 164 108 106 164 110 104 166 112 103 168 113 101 169 114 99 171 116 96 172 117 92 174 119 88 178 120 84 180 122 82 182 123 82 183 125 82 184 128 81 186 130 81 188 132 82 190 133 83 190 137 83 190 140 83 188 143 83 162 100 115 160 98 117 159 97 121 159 96 121 159 95 122 158 94 123 156 95 123 156 94 123 155 95 123 153 94 123 151 93 122 151 93 121 151 92 118 151 92 117 152 93 117 153 93 118 154 93 118 156 95 116 158 97 114 159 99 113 159 101 112 158 100 113 157 101 113 157 101 112 158 101 111 159 103 112 161 103 111 163 104 111 165 105 111 164 106 108 166 107 107 167 109 105 167 110 104 167 112 103 167 114 100 168 115 97 171 117 96 173 118 92 175 119 87 178 121 84 181 124 82 184 125 81 184 126 82 186 128 81 188 130 80 189 132 81 192 133 81 192 136 81 190 140 82 189 144 83 161 100 115 161 99 117 161 97 119 161 97 121 162 96 122 160 96 121 158 95 122 157 95 123 155 95 122 154 95 121 153 94 121 152 93 119 151 93 117 152 92 117 153 92 117 154 93 117 156 94 115 157 95 114 159 97 112 159 99 110 159 100 111 159 100 110 159 100 109 161 101 109 161 102 108 161 104 110 163 104 109 164 104 109 165 105 108 165 106 107 168 107 105 169 108 104 169 110 103 168 111 101 168 113 100 169 116 96 172 118 95 173 119 92 176 120 87 179 121 84 182 124 83 184 126 83 186 127 82 187 129 82 189 131 80 190 132 80 192 134 80 192 137 80 191 140 81 189 145 81 161 100 115 161 99 116 162 98 119 163 98 121 162 98 121 161 97 122 160 96 121 158 95 121 156 96 122 155 96 121 154 94 120 152 93 118 151 93 116 152 92 116 153 92 116 155 92 115 157 93 114 158 94 113 159 97 111 159 99 108 161 100 107 161 101 107 162 101 106 163 102 106 164 102 106 164 104 107 164 105 108 164 105 107 165 106 105 167 107 104 170 108 103 171 108 101 170 110 101 169 112 100 170 114 98 171 116 96 172 119 93 174 120 91 177 122 88 180 123 85 182 125 83 184 126 82 186 128 82 187 130 81 190 131 80 191 132 80 191 135 80 191 138 79 191 141 80 191 145 81 161 100 115 162 99 115 162 98 119 163 98 120 162 97 121 161 98 121 160 97 120 160 96 120 158 96 121 157 97 120 156 95 118 154 94 115 152 93 114 153 92 114 154 91 114 154 90 113 157 91 112 158 93 111 158 96 108 159 99 106 162 100 105 163 101 104 164 102 103 165 103 103 166 104 104 166 104 104 166 105 104 166 106 104 168 108 103 169 108 102 173 108 100 173 109 100 172 111 99 172 113 97 172 115 95 173 116 94 174 118 92 176 121 89 178 123 88 179 124 85 181 125 82 183 126 81 185 127 80 187 129 79 189 131 78 190 133 77 191 136 77 191 140 77 192 143 79 192 145 80 163 99 115 162 99 116 162 99 117 162 98 118 161 97 118 160 97 119 160 97 117 159 97 118 158 96 118 157 97 117 157 96 116 155 95 114 153 93 114 154 92 113 156 90 113 156 90 111 157 90 111 158 92 110 159 96 108 161 99 105 163 100 103 164 102 101 165 102 101 166 104 101 168 104 101 168 105 101 169 106 102 169 108 101 170 109 102 171 109 101 173 109 99 174 111 98 174 112 97 173 114 94 175 114 92 174 116 91 175 119 90 177 120 89 179 123 87 179 123 84 180 125 81 182 125 78 183 127 76 185 130 76 187 132 76 189 135 76 190 138 76 191 141 77 192 144 77 194 147 78 163 98 115 162 98 116 161 99 116 160 98 117 160 98 117 160 97 118 161 97 116 160 97 115 160 96 115 159 97 115 158 96 114 155 93 113 153 91 113 154 90 113 156 90 111 158 91 111 158 92 110 159 93 109 160 96 107 162 98 105 164 100 102 165 102 99 166 103 98 167 104 97 168 104 97 168 106 99 170 108 99 170 110 99 171 111 100 173 112 99 175 112 98 176 112 96 175 113 94 175 114 92 176 115 89 175 117 88 176 119 87 176 120 85 177 122 84 178 125 82 179 126 80 181 127 77 181 129 75 182 132 74 186 134 74 187 136 74 188 139 75 190 142 76 192 145 78 193 148 79 164 98 115 163 98 114 161 99 114 161 98 115 161 99 116 162 99 117 163 97 115 162 97 114 161 96 113 160 96 113 159 95 113 157 93 113 156 90 112 156 90 111 158 92 111 159 93 110 159 95 110 160 96 108 162 98 105 164 99 102 165 101 100 167 103 98 169 105 96 170 105 94 169 106 94 170 108 96 172 110 95 171 111 96 172 112 97 174 112 96 175 114 95 176 114 93 177 114 92 177 115 88 177 117 86 176 118 84 176 119 83 176 121 82 177 125 81 177 127 80 178 128 77 179 130 74 181 131 74 182 133 74 183 135 74 185 138 73 187 142 75 188 144 77 191 146 79 193 148 81 165 97 112 164 99 113 163 99 113 161 99 113 162 100 115 163 101 115 163 99 115 161 98 113 162 97 112 161 95 112 160 95 112 157 93 111 157 92 111 158 91 110 161 93 110 161 95 109 161 97 107 162 98 105 163 101 103 165 103 101 167 104 99 169 105 97 171 107 95 172 108 93 173 109 92 173 110 93 173 111 93 173 112 93 173 113 94 174 113 93 174 114 92 176 116 90 177 117 89 177 117 86 176 119 83 176 118 82 176 120 80 177 122 79 177 127 78 178 129 77 178 129 75 179 131 73 181 131 74 182 133 73 183 136 72 185 138 73 186 141 74 188 143 77 190 146 80 191 150 81 165 98 110 164 99 112 163 99 111 162 100 112 162 100 112 162 101 113 162 101 112 162 100 111 162 98 111 162 96 111 161 95 111 159 94 110 160 94 109 161 93 110 163 94 108 163 96 107 163 99 106 164 100 103 167 104 101 168 106 99 169 106 97 170 108 96 173 110 95 175 110 93 174 112 92 174 112 92 174 113 92 175 114 92 174 115 92 174 116 91 175 116 90 176 117 89 177 119 87 177 119 85 176 119 83 176 120 80 176 121 78 177 124 77 177 127 75 177 128 75 178 128 74 179 129 73 180 131 73 181 133 73 183 136 72 185 138 71 187 140 72 188 142 76 190 146 79 191 149 80 167 99 108 165 99 110 164 100 110 163 101 111 163 101 111 164 101 110 163 101 110 162 101 109 162 99 110 162 97 110 162 96 110 162 95 109 163 95 109 164 95 108 164 96 107 166 98 105 167 99 104 167 102 101 169 105 99 170 107 97 172 108 96 173 110 95 175 112 94 176 113 94 176 114 94 176 114 93 175 116 92 175 117 92 174 117 90 175 117 89 175 119 88 176 119 87 178 120 87 178 120 86 178 121 83 177 122 81 178 124 78 178 125 75 177 126 73 177 128 72 178 129 71 180 129 71 181 131 72 182 133 73 184 136 72 186 138 71 187 140 72 188 142 75 190 145 77 191 147 80 169 99 106 167 99 107 165 101 107 165 102 107 165 102 107 165 103 107 164 102 108 163 100 108 163 100 107 163 99 107 163 99 107 164 98 108 165 97 107 165 97 106 166 97 106 168 99 105 170 102 103 171 104 100 172 106 99 173 109 96 175 110 96 177 113 95 177 115 94 179 116 94 179 116 94 178 116 93 177 117 93 176 118 92 176 119 91 177 120 90 176 121 88 177 121 87 178 122 86 179 123 84 179 123 83 179 124 79 178 125 76 179 125 73 178 126 72 178 127 71 178 128 71 180 130 71 181 131 72 183 134 72 184 136 72 187 138 72 188 140 74 189 142 75 190 145 77 192 147 79 170 98 103 169 100 104 168 102 105 168 102 104 167 103 105 167 103 106 166 102 106 165 101 106 165 99 105 165 99 105 165 99 105 166 99 105 166 99 105 168 99 104 169 100 104 170 100 104 172 102 101 174 106 99 175 109 97 175 110 95 178 112 94 179 114 94 180 116 93 180 117 94 180 117 94 179 118 92 179 118 91 178 118 91 179 120 91 179 121 90 178 122 89 178 124 87 180 124 86 180 125 85 181 124 82 181 126 78 180 127 74 179 127 72 178 127 72 179 128 71 180 129 70 181 130 71 182 133 71 184 135 71 185 137 71 187 138 72 188 140 73 189 141 74 191 144 76 192 146 79 171 97 103 171 99 103 170 101 104 169 101 104 168 102 104 168 103 104 168 102 104 167 101 103 167 100 104 167 99 105 167 99 104 168 100 103 169 100 103 170 101 102 172 102 102 174 103 102 175 104 101 176 107 99 177 110 96 177 111 94 180 113 92 182 115 93 183 117 94 183 118 94 183 117 94 183 118 91 181 119 91 182 120 91 182 121 91 181 123 89 181 124 88 181 125 86 182 126 86 183 126 84 183 126 80 182 126 76 181 127 73 180 128 72 180 128 72 182 129 71 181 130 70 182 132 70 184 135 70 185 137 70 186 138 71 187 138 71 189 139 72 189 140 73 190 142 76 192 144 78 171 97 101 172 99 102 171 99 102 170 99 103 169 101 103 170 101 102 170 102 100 170 102 100 169 101 102 169 101 102 169 101 102 170 102 101 172 103 101 174 103 100 175 104 99 176 106 99 178 107 98 179 109 96 180 111 95 181 112 94 184 115 92 185 116 92 185 118 93 185 119 95 186 119 93 186 119 91 185 120 90 186 122 90 185 123 89 184 124 87 184 125 85 185 126 85 185 127 84 185 127 82 185 127 79 184 128 75 182 130 73 182 130 71 183 130 71 183 129 72 183 131 71 183 133 71 185 136 70 187 138 70 188 138 71 188 138 71 190 138 72 190 139 75 190 141 77 192 143 78 173 97 100 174 99 100 173 100 101 171 99 101 170 99 101 171 100 99 172 101 99 172 103 99 171 104 99 171 104 100 171 104 99 172 105 99 174 106 99 177 106 98 178 107 97 179 108 96 180 109 94 182 110 92 183 112 92 185 114 92 185 115 91 187 116 91 189 117 92 188 119 94 188 120 93 189 121 91 188 122 89 189 124 89 189 124 87 189 125 85 187 126 85 187 128 83 187 129 82 187 129 80 187 130 78 186 131 76 185 132 74 185 133 73 184 132 71 184 132 72 186 133 72 186 135 72 187 136 70 188 138 71 189 138 70 191 138 71 190 138 74 190 138 76 190 140 76 191 142 77 174 98 101 175 99 100 174 99 101 173 100 100 172 100 99 173 100 99 174 102 98 174 105 99 173 105 98 172 106 98 173 108 98 174 108 97 176 110 97 179 110 97 180 110 96 181 111 94 182 112 92 184 112 92 186 113 92 187 115 90 188 116 89 189 117 89 191 118 91 191 118 92 191 120 92 191 120 91 191 122 89 192 124 86 193 125 85 193 125 84 192 127 84 192 128 82 190 130 80 189 131 78 189 132 77 188 134 75 188 135 73 187 135 72 186 135 72 186 134 72 189 135 72 189 137 72 189 138 72 190 139 72 191 139 72 192 139 74 191 139 76 190 139 76 190 140 77 191 142 76 174 98 102 175 98 101 175 99 99 174 100 99 174 101 98 175 102 99 175 103 98 175 105 98 175 107 98 175 109 97 176 111 96 177 112 96 179 113 95 181 112 96 182 113 95 183 114 94 184 113 92 186 114 91 188 115 91 190 116 89 191 117 88 192 118 88 192 119 90 193 119 91 192 120 91 193 121 90 194 122 88 195 124 86 196 126 85 196 126 84 195 127 82 194 128 80 193 130 79 192 133 77 191 134 75 191 136 74 191 137 73 189 138 72 189 137 72 189 137 71 190 138 73 191 139 73 191 139 74 192 139 74 193 140 74 193 140 75 193 140 76 191 140 76 191 140 76 192 143 76 174 97 103 175 99 100 176 100 99 176 101 98 176 103 99 177 104 99 176 104 98 176 105 98 176 108 98 177 111 98 178 113 96 179 114 95 181 114 95 183 115 94 183 115 95 184 115 94 185 116 93 187 116 91 189 117 90 191 118 89 191 119 89 193 120 89 193 120 89 193 121 89 194 122 90 194 123 89 196 124 88 197 126 87 198 127 84 197 129 83 198 128 81 198 130 80 197 132 78 195 135 77 194 136 75 193 136 73 193 138 72 193 139 71 194 139 71 193 139 72 194 140 72 194 141 74 194 141 74 195 141 74 195 141 74 194 142 76 194 141 76 192 142 75 192 141 76 194 143 75 174 98 103 175 99 100 177 101 99 178 103 98 177 105 99 178 106 99 177 105 99 176 107 100 177 109 99 178 112 98 180 114 95 182 115 94 183 116 94 184 116 94 185 117 94 185 117 95 186 118 93 189 119 91 190 119 91 191 120 91 192 121 90 194 122 89 195 122 89 195 122 89 195 124 90 196 125 89 197 126 88 198 128 86 199 129 83 200 130 81 200 131 81 200 132 81 199 134 78 199 136 78 197 138 76 195 139 74 195 140 72 196 140 71 196 142 70 196 142 71 197 142 73 197 142 74 197 143 74 197 142 74 197 142 74 196 142 75 195 143 75 194 144 74 195 144 75 198 144 74 173 100 103 175 102 101 177 104 101 178 107 100 179 108 99 179 108 98 178 107 100 177 108 100 177 110 99 179 112 97 180 114 95 182 117 94 184 118 94 184 119 94 185 120 95 185 120 95 187 120 93 188 121 92 189 122 92 191 123 92 193 123 91 195 125 90 195 124 89 195 124 88 196 125 88 197 128 87 197 128 86 198 130 82 199 131 80 200 131 79 200 132 80 201 134 80 201 136 79 201 137 78 199 139 76 198 141 75 197 141 74 198 141 73 199 143 71 199 143 72 200 144 73 199 145 74 198 145 73 198 144 74 198 142 73 197 142 73 196 144 74 196 146 73 197 147 75 198 149 75 175 102 105 176 104 102 178 107 102 179 110 101 180 110 100 181 110 99 180 109 100 179 110 100 178 111 99 179 113 97 181 115 95 183 117 95 184 119 95 186 121 94 187 122 94 188 122 93 189 121 92 189 122 92 190 123 92 193 124 92 193 124 92 194 125 90 195 127 89 196 127 88 197 128 87 197 129 85 197 131 83 197 133 79 200 134 78 200 134 77 200 134 78 201 136 79 202 138 80 202 138 78 201 140 76 201 142 76 201 142 75 201 142 74 201 143 73 201 144 73 201 145 73 199 145 74 198 146 74 198 145 73 197 143 73 198 143 73 198 145 73 197 147 74 198 148 75 198 150 75 177 104 105 178 106 104 178 108 102 178 110 101 180 112 100 180 111 100 181 112 98 181 113 99 181 113 99 181 115 98 183 116 96 184 117 95 185 119 95 188 121 95 189 122 94 190 123 92 191 122 93 192 122 93 192 123 92 193 123 91 194 124 90 195 126 89 196 128 88 197 128 87 197 129 85 196 130 83 196 132 80 198 134 78 200 135 75 200 135 75 200 136 77 201 138 79 202 139 78 203 139 77 203 141 77 202 142 76 202 142 75 203 142 74 203 143 74 203 145 72 202 145 72 201 146 74 198 146 74 198 144 73 198 144 73 198 144 73 198 145 73 197 148 74 197 150 74 198 151 75 176 104 105 177 107 104 177 108 104 178 110 102 179 112 100 180 112 99 181 112 98 182 114 98 182 114 98 184 115 98 185 116 96 186 117 95 187 118 94 190 120 93 191 122 92 192 123 91 194 124 92 193 123 91 194 124 90 196 124 90 195 125 88 196 127 88 197 127 87 197 129 86 196 131 83 195 132 81 196 134 78 198 135 77 199 136 75 200 137 76 200 138 77 200 139 77 201 140 77 202 140 76 203 142 77 202 143 76 202 143 76 202 143 74 203 143 73 202 144 72 202 146 71 200 145 72 198 146 74 197 146 72 197 145 73 197 145 73 198 146 72 197 149 72 197 151 73 197 153 73 175 104 107 177 105 105 178 107 104 178 109 102 179 112 100 182 113 98 183 113 97 183 114 97 185 115 97 185 115 96 187 116 95 187 117 95 189 117 94 190 119 91 192 121 91 193 122 90 195 124 90 196 125 89 197 126 89 198 125 89 197 127 88 198 128 88 198 129 87 197 130 84 197 132 82 197 135 79 197 136 79 197 136 77 198 136 74 200 138 75 199 139 75 200 140 76 201 141 77 202 142 77 202 143 76 202 143 77 202 144 76 202 144 75 201 143 73 202 144 72 201 145 71 201 144 72 199 145 73 196 146 73 196 146 73 196 146 72 196 147 72 197 149 72 197 152 72 197 154 74 175 103 106 177 104 104 178 106 103 179 109 102 179 111 99 182 112 96 183 113 95 184 115 96 186 115 95 187 115 95 187 116 94 188 117 93 190 118 92 192 120 90 193 121 89 195 122 88 196 124 87 198 126 88 199 128 89 199 128 90 199 128 87 199 129 87 198 130 86 198 132 82 198 134 80 198 136 79 198 138 78 198 138 76 198 137 75 199 139 73 199 140 74 200 141 74 202 142 75 203 143 75 201 144 76 201 145 77 202 144 76 201 144 75 200 143 73 199 144 72 199 145 72 198 144 74 198 146 73 197 147 73 195 146 73 195 146 73 194 146 73 195 148 72 196 152 73 197 154 73 175 101 105 177 104 104 178 106 103 178 108 101 179 110 98 181 112 94 183 114 93 185 114 92 186 115 91 187 116 91 187 118 92 188 119 91 191 119 89 192 120 88 193 122 87 195 124 85 197 126 85 198 127 87 199 129 89 199 130 89 199 131 88 198 130 86 198 131 84 199 134 82 199 136 80 198 137 79 198 140 78 198 139 75 197 139 73 198 139 72 199 141 72 199 142 72 200 144 73 201 145 75 201 146 75 201 145 75 200 145 75 199 144 74 198 144 73 197 145 72 197 145 73 196 146 74 196 147 73 196 148 73 194 148 74 193 146 73 193 146 73 194 148 73 195 151 74 196 153 75 174 101 105 176 103 103 177 105 103 178 107 101 179 109 98 180 111 93 182 113 91 184 115 90 184 115 89 186 117 90 187 120 90 189 120 89 192 120 86 193 121 86 195 123 85 196 125 83 197 127 84 198 128 85 199 129 86 199 132 87 198 133 87 197 133 86 197 134 83 197 136 81 197 138 79 196 140 79 198 141 78 198 142 75 197 142 73 197 142 71 198 142 71 198 144 71 199 146 72 199 148 73 199 149 73 199 147 73 198 146 73 197 146 73 195 146 73 196 146 72 196 147 74 195 148 74 195 148 75 193 149 74 193 149 75 192 147 75 192 147 74 192 148 75 193 150 76 195 152 76 173 100 104 174 102 103 176 104 103 177 105 100 178 107 97 180 109 94 182 112 91 183 114 88 183 116 87 185 119 87 187 121 87 189 121 87 193 122 84 196 122 84 196 124 82 198 126 82 198 127 81 199 129 82 199 131 83 198 133 84 197 135 85 197 135 85 197 136 83 196 138 81 195 139 79 195 141 78 196 143 77 197 144 74 197 144 72 197 146 70 198 146 70 197 147 70 198 149 71 198 151 70 198 151 70 199 150 71 197 148 71 196 147 72 194 148 73 194 149 72 195 149 73 194 150 74 193 150 74 192 151 73 191 150 75 191 149 76 190 149 76 190 149 76 192 150 78 195 152 78 172 100 105 173 102 103 174 105 102 175 106 100 178 107 97 179 108 95 180 110 92 181 113 89 183 117 87 185 119 86 187 122 86 190 122 85 194 123 83 196 124 82 198 125 80 198 128 79 199 128 79 200 130 78 199 131 79 198 133 80 197 135 81 197 136 82 196 138 81 195 140 80 194 141 80 195 143 78 196 144 76 196 145 74 196 146 71 197 148 70 198 150 68 198 150 68 197 152 70 198 154 70 198 153 69 198 151 71 196 150 72 194 149 73 193 150 74 192 150 74 192 151 73 192 152 73 191 153 72 190 153 73 189 151 74 189 150 75 188 150 77 190 150 77 190 150 77 193 152 77 171 99 106 172 102 105 173 105 103 175 107 101 177 107 99 177 109 95 179 111 92 181 113 89 183 116 86 185 121 86 187 122 86 190 123 84 193 124 82 194 126 81 196 128 79 198 130 78 199 131 77 200 131 76 199 133 77 197 135 78 197 136 79 196 138 79 195 141 79 195 143 78 196 144 77 195 145 76 195 145 75 196 147 73 196 148 71 197 151 68 198 153 68 198 154 67 197 156 68 197 156 69 197 155 70 196 153 71 195 152 72 193 152 74 190 152 75 191 152 74 191 152 73 191 154 73 189 154 73 188 153 74 188 152 74 188 151 74 189 150 76 188 150 76 190 150 76 191 151 75 170 99 107 171 101 106 172 104 104 173 107 102 174 109 100 175 110 97 177 112 93 180 114 90 181 117 86 184 121 86 185 123 87 187 124 84 191 125 83 192 128 81 194 131 79 195 133 78 196 133 77 198 135 77 198 135 76 197 137 76 197 138 76 196 140 76 195 143 76 195 145 76 195 147 75 194 148 74 194 148 74 196 149 72 197 151 70 196 154 69 196 155 68 196 156 67 196 158 67 196 157 68 195 156 70 194 156 72 194 156 73 191 154 75 190 154 75 190 153 75 189 153 73 189 154 73 188 154 74 187 154 75 186 153 76 187 151 76 188 150 76 188 150 75 189 151 75 190 150 74 168 100 107 170 101 106 171 105 105 171 108 103 172 110 100 173 112 98 175 113 95 177 115 92 180 116 88 182 121 87 183 124 87 184 126 85 188 127 83 191 129 81 192 133 79 194 135 78 195 137 77 196 137 76 196 138 75 196 139 75 196 140 74 196 142 75 195 145 74 194 148 74 194 151 75 193 152 74 194 152 73 195 152 71 195 154 70 196 156 69 195 156 68 195 158 67 194 159 67 193 158 68 192 159 70 192 159 73 192 159 73 190 158 74 189 156 74 188 155 75 188 155 74 187 154 74 187 155 75 186 154 74 186 154 76 186 152 76 186 151 76 187 150 75 188 150 75 189 151 73 166 101 106 168 102 105 169 106 105 168 109 104 170 111 102 172 113 100 173 115 97 175 116 93 177 118 89 179 121 88 181 124 87 183 126 86 186 129 83 188 132 81 190 134 79 192 136 79 194 137 78 195 139 78 195 139 77 194 141 76 194 143 74 195 146 74 195 148 73 195 151 74 194 154 75 194 155 74 194 155 73 195 154 71 195 155 70 195 156 69 194 158 68 193 160 67 191 162 67 191 161 69 190 161 71 189 161 72 189 160 73 188 159 73 186 158 73 185 157 74 186 157 75 186 156 74 186 155 74 187 153 75 187 153 75 186 153 76 187 151 76 188 150 76 187 150 75 188 151 74 164 102 105 166 104 104 167 107 104 168 110 104 170 112 103 170 115 101 171 116 98 173 118 94 174 120 91 177 122 89 179 125 87 182 128 85 185 132 83 188 135 83 189 137 81 190 138 80 193 139 79 193 140 80 193 141 79 193 143 77 193 146 76 193 148 75 194 151 74 195 154 75 194 156 75 194 157 73 193 157 72 194 157 70 194 157 69 193 159 69 192 161 68 191 163 67 190 164 68 189 163 70 187 163 70 186 162 72 187 162 72 186 162 73 183 161 72 183 160 73 183 160 73 185 158 74 186 156 74 187 154 74 188 154 75 187 152 76 188 150 76 188 149 76 188 150 76 188 151 75 162 105 104 164 107 104 165 109 104 166 111 104 168 114 102 168 116 101 169 118 99 170 119 96 172 121 93 175 124 91 179 127 89 182 131 87 183 134 86 186 136 85 189 138 83 191 140 81 192 141 80 192 142 80 193 143 80 193 146 79 193 147 79 194 150 76 194 153 75 195 156 75 194 156 74 194 156 73 192 157 72 193 158 70 192 159 69 191 160 69 190 163 69 189 165 67 188 165 68 186 165 69 185 163 71 184 164 72 184 163 73 183 163 73 181 163 73 181 162 72 182 161 72 183 159 72 184 157 73 185 155 74 185 154 75 186 152 76 188 151 76 188 150 76 189 150 77 188 151 77 160 107 103 161 109 102 162 111 103 164 113 103 166 116 102 166 118 102 168 119 100 170 120 97 171 123 95 174 126 93 178 130 91 181 133 89 183 134 89 185 136 88 188 140 85 191 142 83 191 143 82 192 143 81 193 145 80 193 148 79 193 149 79 193 151 78 194 154 76 194 156 76 193 157 75 192 158 75 192 159 74 191 160 72 190 161 70 189 161 69 188 164 67 188 166 67 186 166 68 185 165 69 184 164 70 183 164 72 182 165 73 180 164 73 180 163 73 180 164 72 179 163 71 180 161 72 181 158 73 184 156 73 185 155 74 185 154 76 187 153 76 187 152 77 188 151 78 188 151 78 159 108 103 159 110 102 160 112 102 162 115 102 164 116 101 165 119 100 167 121 99 169 122 98 171 124 96 173 128 95 176 131 94 179 133 93 181 136 92 183 138 90 186 141 88 189 143 86 190 144 85 192 145 83 192 147 83 191 150 82 192 151 80 193 153 80 193 155 80 193 157 79 192 159 78 192 160 78 192 161 77 191 162 74 189 163 72 187 164 70 186 165 69 186 166 69 185 167 70 184 166 69 184 166 69 182 165 71 181 166 73 180 166 73 179 164 74 178 166 72 177 164 71 178 162 73 180 160 74 183 158 74 183 156 75 183 156 75 185 155 77 185 153 77 186 152 77 186 151 78 159 108 101 159 112 101 159 113 101 160 115 101 162 117 101 164 121 100 166 122 99 167 124 98 169 126 97 171 129 96 174 131 96 176 134 95 178 136 94 181 138 92 184 142 90 187 144 88 189 146 86 190 147 85 190 149 85 189 151 85 190 153 83 191 154 82 191 156 81 192 159 80 191 159 81 190 161 80 190 163 80 189 165 79 187 166 76 187 166 74 186 166 73 185 167 73 183 168 71 183 167 70 184 166 70 182 165 72 181 166 73 179 166 73 178 166 73 177 167 74 176 166 74 177 164 74 179 162 76 180 160 77 179 160 77 181 159 77 182 156 77 183 154 77 184 153 78 184 151 77 160 110 101 159 112 101 159 113 101 159 115 101 161 119 100 163 122 100 164 123 99 166 124 98 168 126 98 170 128 98 172 132 98 174 134 98 177 137 96 179 139 94 182 141 92 185 144 89 186 146 87 188 148 86 188 151 86 187 153 86 187 155 85 188 155 84 188 158 82 189 159 82 190 161 82 189 162 82 188 164 83 187 165 82 187 166 80 186 167 77 185 166 75 184 167 75 184 168 73 183 167 72 183 167 72 181 167 72 180 166 74 178 167 74 178 168 74 176 168 74 176 168 74 177 166 75 178 164 77 178 164 79 178 163 78 179 162 78 181 160 78 183 157 79 184 155 79 183 153 78 159 110 101 159 112 101 158 113 100 158 117 100 160 120 99 162 121 100 163 122 99 165 124 99 167 127 98 169 129 98 171 131 98 173 133 98 175 135 97 179 137 96 181 140 94 183 144 92 185 147 90 185 148 88 184 152 87 183 154 87 184 155 87 184 157 87 184 159 86 185 160 85 186 159 85 186 161 85 185 162 85 185 163 84 185 165 83 185 166 81 185 166 79 183 166 77 183 167 75 183 166 75 182 167 73 180 166 74 179 167 74 178 166 75 177 167 75 175 168 74 175 169 74 176 167 75 176 166 78 176 165 80 177 164 81 178 163 80 180 161 80 181 160 81 182 158 81 183 156 80 159 110 102 159 112 101 159 114 101 159 118 100 159 120 100 161 121 100 162 123 100 164 125 100 166 127 99 168 129 98 170 132 99 172 132 99 174 134 98 177 136 98 179 139 95 181 143 94 180 146 92 180 148 91 180 151 90 180 153 90 181 156 89 180 158 89 180 159 88 182 158 87 181 158 88 182 159 88 183 160 88 182 162 86 183 164 85 184 165 83 183 166 82 182 166 80 181 165 77 181 165 76 181 166 76 179 166 76 178 166 75 178 167 76 176 168 76 175 169 75 175 169 75 175 169 76 174 168 78 174 167 81 175 166 83 177 164 83 178 162 82 179 160 82 180 159 82 181 157 81 159 111 102 159 112 102 159 115 102 160 118 102 159 119 102 161 122 102 161 126 102 163 128 101 165 129 101 167 130 101 169 132 101 171 133 101 173 134 101 175 135 100 176 137 97 177 140 95 177 144 94 177 147 93 177 149 92 178 151 91 178 154 91 177 156 92 177 157 90 177 157 90 177 158 90 179 159 89 179 159 89 179 161 89 180 163 87 181 164 86 181 165 85 181 165 82 180 164 80 180 164 79 179 164 78 178 165 77 177 165 76 177 166 77 176 167 77 175 168 77 174 169 78 174 169 78 173 168 79 174 168 81 174 167 83 176 164 84 177 162 84 177 160 83 178 159 83 180 156 83 159 112 102 160 113 103 160 116 102 160 118 103 159 120 104 160 123 104 160 126 103 162 129 104 162 131 104 164 131 104 168 132 103 169 132 103 170 133 102 171 135 101 172 135 100 173 138 98 174 140 96 174 143 94 174 147 94 174 148 92 175 152 91 175 154 93 174 155 93 174 156 93 174 158 91 175 159 91 176 158 91 176 159 91 177 160 90 178 161 89 178 163 88 178 163 86 179 163 84 178 163 83 176 163 80 175 164 79 175 164 79 175 166 78 175 168 78 175 167 79 174 167 80 174 167 81 173 167 81 173 168 82 173 167 82 175 164 84 176 162 85 177 160 85 178 158 85 178 155 85 