P3
50 50
255
78 134 187 78 134 189 78 135 190 78 134 190 77 134 190 76 134 189 77 134 189 77 134 187 78 135 187 78 135 185 78 137 182 78 140 180 78 140 177 80 142 175 82 145 175 83 147 175 83 149 176 83 151 175 87 154 175 91 155 174 94 156 174 96 155 173 97 156 174 100 158 174 101 160 176 101 161 176 101 161 177 101 161 177 102 161 178 103 160 179 101 159 178 100 158 177 99 157 176 98 157 174 97 155 173 98 155 171 98 154 170 101 154 170 103 155 169 103 155 170 104 154 168 105 154 165 108 154 162 110 155 161 112 154 161 112 153 162 112 153 159 113 152 158 114 151 156 115 150 154 78 136 188 78 136 189 78 136 190 77 135 190 77 134 189 78 134 189 79 134 189 79 135 188 80 135 187 80 137 184 80 139 181 79 140 180 78 141 178 80 142 177 81 144 176 82 146 177 82 147 176 84 150 176 87 153 176 91 154 175 95 154 175 96 154 175 98 155 175 99 157 175 100 159 176 100 160 177 100 161 178 101 162 178 102 162 179 102 161 180 102 160 179 100 159 178 99 159 176 99 158 173 98 156 172 97 154 172 98 154 171 101 154 172 102 154 171 103 154 170 104 154 168 106 154 165 108 153 162 111 153 160 112 154 159 112 153 160 112 153 159 113 152 157 114 150 156 116 150 154 77 137 188 77 136 189 77 136 189 77 136 190 78 135 189 79 136 188 80 137 189 80 136 188 80 137 185 79 138 183 79 139 181 79 140 180 78 141 178 79 141 177 81 142 178 82 145 177 82 146 177 85 148 177 87 151 176 91 153 176 94 154 176 97 155 176 97 155 176 99 157 176 99 158 176 100 158 178 101 160 178 102 162 178 104 162 179 104 162 180 103 160 179 101 160 179 101 160 176 101 158 174 100 156 172 98 156 173 99 154 173 100 153 173 101 153 171 104 154 170 105 154 169 106 154 167 110 153 163 112 153 161 112 154 160 113 154 159 113 153 157 114 153 156 115 152 154 115 151 152 77 136 186 76 136 187 75 135 187 77 135 188 79 136 188 79 137 188 79 138 187 79 137 187 79 138 186 79 138 184 80 139 183 80 139 181 80 140 179 81 141 178 81 144 178 81 145 178 82 146 178 85 148 178 89 150 177 91 153 177 94 155 177 96 156 176 97 156 176 98 157 176 99 158 176 100 159 177 100 160 177 103 161 177 103 161 178 104 162 179 103 161 180 101 161 179 102 160 178 102 160 175 102 159 174 101 158 174 101 156 174 101 154 173 102 153 171 105 154 170 106 153 169 108 153 166 110 152 165 111 152 163 113 154 160 114 154 159 114 153 158 115 153 155 116 152 153 117 152 151 78 137 184 76 136 186 76 135 185 77 135 185 79 135 186 79 137 187 79 138 187 79 138 187 79 138 186 79 139 185 80 139 184 81 140 182 81 140 181 81 142 180 82 143 179 82 144 179 83 146 178 86 147 178 89 150 178 91 152 179 94 153 178 96 155 176 96 157 176 97 157 174 99 158 175 100 159 175 101 159 175 103 159 176 103 159 177 103 160 177 102 160 178 102 160 178 102 160 177 103 161 176 104 160 176 104 159 175 104 156 174 105 154 172 104 154 171 107 154 169 109 153 168 110 152 166 111 152 165 111 152 164 113 153 161 115 153 159 116 153 157 117 154 153 119 154 152 119 152 151 79 137 183 77 136 184 77 136 184 78 135 183 78 135 183 78 137 185 78 138 186 78 138 185 80 139 184 80 139 184 81 139 183 81 141 183 82 142 183 82 143 182 82 143 181 82 144 181 84 146 180 86 148 180 88 150 180 90 152 180 92 153 179 95 155 178 96 156 176 96 156 175 98 156 175 100 156 174 102 157 173 103 158 174 103 157 176 103 158 176 102 158 177 102 160 177 102 160 176 104 161 175 107 160 174 107 159 173 107 156 172 107 155 171 107 155 170 109 154 167 110 153 166 110 153 164 110 152 164 111 152 164 113 152 162 115 153 159 117 154 155 118 155 153 119 154 150 120 151 150 79 137 183 78 137 183 77 136 181 78 136 181 77 136 181 76 137 182 77 138 184 78 138 183 78 138 183 80 139 183 81 140 183 83 143 183 84 143 183 83 145 183 83 145 182 83 146 181 84 146 182 85 147 181 87 149 180 90 152 180 92 153 179 94 153 178 94 153 177 96 153 175 98 153 174 99 154 173 101 155 172 102 156 173 103 156 173 104 157 175 103 158 176 104 160 176 104 161 176 106 161 176 108 160 175 109 159 173 109 157 172 109 156 171 110 155 170 111 154 168 112 153 166 112 153 164 112 152 164 112 153 164 113 153 163 115 154 160 117 155 157 118 155 153 120 154 150 121 152 149 78 137 182 77 138 182 77 138 181 76 137 181 75 137 182 76 138 183 76 139 182 77 139 182 79 139 183 80 140 184 82 142 184 83 145 184 84 145 184 84 146 184 84 147 183 84 148 183 86 147 183 86 147 181 88 148 180 90 150 179 91 151 179 93 150 179 95 150 177 97 151 175 98 152 173 98 152 173 99 154 173 101 155 173 101 155 173 103 156 174 104 158 176 106 160 176 107 161 176 108 161 176 109 160 175 110 157 173 111 155 172 111 155 171 111 154 170 112 154 169 112 153 167 113 153 165 114 153 164 113 153 164 114 153 163 115 155 160 117 156 157 118 155 154 120 154 152 122 153 150 77 137 182 76 138 181 76 139 181 76 139 180 75 139 180 75 140 181 76 140 181 78 139 182 79 140 182 80 142 183 82 145 183 83 146 184 84 147 184 85 148 184 86 150 184 87 150 182 88 148 181 88 148 180 89 148 179 92 149 178 92 150 178 94 150 178 95 151 177 97 151 175 98 151 174 99 151 175 100 153 175 102 154 175 103 154 175 105 156 175 106 158 176 107 159 177 108 160 177 110 158 176 111 157 173 112 156 171 112 155 171 113 154 171 113 153 170 113 152 169 114 152 167 115 154 165 116 154 165 116 154 164 115 154 162 115 155 159 116 156 156 119 156 155 121 156 153 121 155 151 75 140 182 75 140 182 76 141 182 76 141 180 76 141 179 77 141 179 78 141 179 78 140 180 80 140 181 81 143 182 83 146 182 84 148 182 86 150 182 86 150 183 87 151 183 89 151 181 89 150 180 89 150 179 90 149 179 92 149 178 93 149 177 95 150 177 95 150 177 96 150 175 97 151 175 99 151 175 102 152 175 102 153 176 104 154 176 106 156 176 107 158 177 109 158 176 110 158 175 112 156 174 112 154 173 112 155 171 113 155 170 114 154 170 114 153 171 114 153 169 114 153 168 116 153 166 115 153 165 116 153 163 116 153 162 116 155 159 117 156 157 119 157 155 121 157 153 122 155 152 75 140 182 75 142 182 76 141 181 77 142 180 77 142 178 79 142 178 80 142 178 81 141 178 82 142 180 82 145 181 83 148 181 85 150 182 86 151 182 88 151 182 89 150 182 90 151 181 91 151 180 92 151 180 92 150 178 92 150 176 92 150 176 94 150 175 93 150 175 95 151 175 97 151 175 100 151 175 102 152 176 104 154 175 106 155 175 107 155 177 108 155 176 110 155 175 111 155 174 113 154 172 113 153 171 114 153 170 115 153 169 115 153 170 116 152 171 116 152 169 116 152 168 115 151 166 116 150 166 117 152 163 118 153 161 118 155 158 120 157 156 120 157 155 121 157 155 122 155 153 76 141 180 76 141 180 76 141 180 77 142 178 78 144 177 81 143 177 81 142 177 81 142 178 82 145 179 83 147 179 84 149 180 86 151 180 87 152 181 89 151 181 90 152 181 91 152 181 93 152 180 93 151 179 94 150 178 93 150 177 92 151 175 93 150 174 93 150 173 94 151 173 98 152 174 101 152 175 103 153 175 105 155 175 106 155 175 107 155 175 109 154 175 112 155 175 113 153 175 113 152 173 114 152 171 115 152 170 116 152 170 117 152 169 118 150 168 118 150 167 117 151 167 118 150 167 118 149 166 119 151 163 119 154 160 119 156 158 121 158 156 121 157 155 121 156 155 122 155 154 76 142 179 76 142 179 76 142 178 77 143 176 80 143 175 82 143 175 82 143 176 82 144 178 83 146 178 85 148 179 86 149 180 86 150 180 88 152 179 91 153 179 92 153 179 92 153 179 93 152 180 94 152 179 94 150 178 94 150 176 94 150 175 94 150 175 94 150 173 95 150 173 97 151 174 100 153 175 103 154 174 104 155 175 106 155 175 108 155 174 110 155 175 112 155 175 114 153 175 114 151 173 115 152 171 115 152 171 117 152 170 119 151 169 120 150 168 118 150 166 118 150 167 119 149 168 120 149 167 120 152 164 120 154 162 120 156 159 121 157 156 122 157 154 122 156 155 122 156 153 76 143 179 75 143 178 76 144 176 79 144 175 81 144 175 83 144 175 84 144 176 85 145 177 86 146 178 86 148 178 87 150 179 87 151 178 89 152 177 92 153 177 92 152 179 93 151 179 92 151 178 94 151 178 95 150 177 96 150 176 95 148 175 95 148 175 95 150 174 95 150 173 98 151 174 100 152 174 103 154 174 105 155 175 107 156 175 109 156 175 111 156 174 112 155 174 114 153 174 115 152 173 115 152 172 116 153 171 119 153 171 120 152 169 119 150 168 120 150 167 119 150 166 120 150 167 121 151 167 121 152 166 122 154 164 121 156 161 122 156 158 122 156 156 122 156 155 121 156 153 75 143 178 76 144 178 77 145 176 79 145 176 82 145 176 85 145 176 86 145 176 86 146 177 88 147 177 88 149 178 88 151 178 89 153 176 91 154 175 93 153 174 93 153 175 92 151 177 92 151 176 93 150 175 94 150 175 95 149 174 96 148 174 96 148 174 98 149 175 98 150 174 99 151 173 101 152 173 104 154 174 107 155 175 109 156 175 110 157 175 112 157 174 113 156 174 115 153 173 116 152 173 117 152 173 118 154 171 120 154 170 120 154 170 120 152 169 121 151 167 120 151 166 120 150 166 122 151 167 122 152 166 123 154 164 123 155 161 123 155 159 122 155 157 122 156 155 122 156 154 75 142 178 76 143 178 78 144 178 80 145 177 82 146 176 86 146 176 88 146 177 88 147 176 89 149 176 89 150 176 90 151 176 90 152 174 91 153 172 92 153 172 92 153 172 91 151 174 91 151 174 92 151 173 94 150 173 95 149 172 97 147 173 98 147 173 99 147 173 99 148 172 100 150 173 102 151 173 105 153 173 108 154 173 110 155 173 111 156 173 112 156 174 113 155 174 114 152 173 117 151 173 119 152 173 119 155 171 119 155 170 120 155 170 120 154 169 121 152 168 121 152 168 122 152 167 122 152 166 122 153 166 124 153 166 124 154 163 124 154 160 123 155 159 122 155 156 122 156 154 75 142 179 77 144 179 79 145 178 81 146 177 83 146 176 86 146 176 89 146 175 88 148 175 89 150 175 90 152 174 90 152 174 90 152 172 91 152 171 92 152 171 91 152 171 91 151 171 91 151 172 92 152 171 94 151 171 96 149 171 98 148 171 99 147 172 100 147 172 101 148 172 101 149 172 103 150 172 106 152 172 110 154 172 112 155 172 112 156 172 113 156 173 113 154 173 116 152 172 118 152 173 118 152 172 118 154 171 119 155 170 120 156 170 120 155 169 122 154 168 122 155 167 123 154 166 123 153 166 124 153 166 124 153 166 124 153 165 124 154 163 124 154 160 123 156 158 123 157 157 75 143 179 77 144 179 79 146 178 81 146 177 83 146 176 85 146 175 88 147 175 89 148 174 89 150 173 90 153 172 90 154 172 90 153 171 91 153 171 91 153 170 91 154 169 92 152 170 92 151 170 94 151 169 95 149 169 97 149 170 99 148 170 100 147 170 100 148 172 101 148 172 103 150 172 104 151 171 108 151 171 111 154 171 113 155 172 113 156 172 113 155 172 115 154 172 117 153 172 119 153 172 119 153 171 119 154 170 119 155 169 120 156 169 121 157 168 122 156 167 123 157 165 123 156 165 125 155 166 125 153 167 125 152 168 126 153 167 125 154 165 125 154 162 125 156 160 125 157 159 76 142 179 77 143 177 80 145 177 82 145 176 84 145 176 85 146 175 88 147 174 89 149 173 90 151 171 90 153 171 90 153 171 91 153 172 92 154 170 91 155 169 91 156 167 92 154 168 94 153 169 95 152 169 96 150 169 98 150 169 99 148 169 101 147 169 102 146 170 102 148 172 104 149 171 106 151 170 110 153 170 113 154 170 114 154 171 114 155 171 115 155 170 117 154 171 118 155 171 120 156 172 120 156 171 119 156 170 120 156 169 122 156 168 123 156 167 123 156 166 124 158 165 125 158 165 126 156 166 126 153 167 126 154 168 127 153 167 126 154 165 126 155 164 128 156 163 129 158 161 77 143 178 78 143 177 80 144 177 83 144 177 85 145 176 87 146 175 88 147 174 90 149 172 91 151 171 90 152 171 90 152 170 92 153 171 92 155 170 91 155 168 91 154 167 92 154 168 94 153 167 96 152 168 98 150 169 99 150 169 101 148 169 102 146 169 104 146 169 105 147 170 106 148 171 109 150 171 111 152 169 112 153 168 114 154 169 115 155 169 116 157 169 117 157 170 118 157 170 119 158 170 119 158 171 119 158 169 120 157 169 123 156 168 125 157 165 126 159 165 127 160 166 127 159 166 127 157 167 127 155 168 127 155 168 127 154 167 128 155 165 128 156 164 129 156 163 130 157 162 77 142 178 80 142 178 81 143 177 83 144 177 85 145 176 88 146 174 88 147 173 89 150 171 90 152 170 91 153 170 92 153 171 93 153 169 94 154 168 94 154 167 93 153 166 93 153 166 95 152 167 98 152 168 99 151 169 100 150 169 102 148 169 103 148 170 105 146 170 107 147 170 108 148 169 110 149 169 111 152 168 112 152 167 114 153 168 116 154 167 116 156 167 116 157 169 118 158 169 118 159 169 120 159 170 120 158 168 121 158 168 124 158 168 126 159 166 127 160 165 127 161 166 127 160 166 128 158 166 128 157 167 129 157 167 129 156 166 130 156 165 131 157 164 131 156 164 131 156 163 78 142 178 80 141 178 82 142 177 83 143 177 85 144 176 86 145 175 88 148 173 89 151 170 90 152 169 92 153 169 94 153 169 94 153 168 95 152 165 95 152 164 95 152 164 96 152 165 98 152 167 99 151 169 101 150 170 102 149 170 103 149 170 104 146 170 106 146 170 106 147 169 108 149 168 110 149 167 111 150 167 113 152 167 115 153 167 116 155 166 116 156 167 118 157 168 118 158 169 119 159 169 121 160 169 122 159 168 124 160 167 126 159 167 128 160 167 128 161 167 128 162 167 129 161 166 129 159 165 128 158 166 129 158 167 129 156 165 131 157 164 133 156 165 133 156 164 133 154 163 77 141 177 79 141 176 81 142 176 83 143 177 85 144 177 87 146 176 88 149 173 89 152 170 90 153 168 92 153 168 93 152 167 95 152 167 97 151 165 97 150 163 97 151 163 97 151 165 98 152 167 101 152 169 102 151 170 103 150 170 103 148 171 103 146 170 104 146 170 105 147 170 107 148 167 109 150 167 111 150 167 113 152 166 114 153 167 116 154 168 116 156 168 118 158 169 119 158 169 120 159 169 122 159 168 124 159 167 125 160 166 127 159 166 128 160 168 129 161 167 130 162 167 131 162 166 131 160 165 130 159 165 130 158 164 130 156 164 131 156 163 132 154 163 134 154 163 134 153 162 78 142 176 79 141 175 82 141 175 84 143 176 86 145 176 87 147 176 89 150 174 90 152 171 91 154 169 92 154 168 93 153 167 95 152 167 98 151 165 98 151 163 99 152 163 99 152 165 100 152 167 101 152 169 102 151 170 103 151 171 103 148 171 103 147 172 103 146 172 105 148 170 106 150 168 109 150 166 111 150 167 113 152 166 114 153 167 115 155 168 117 156 169 118 158 169 119 160 168 121 160 167 124 160 168 126 160 168 127 161 166 129 159 167 131 159 167 131 161 166 131 161 166 132 161 166 131 161 164 131 160 163 130 158 162 130 156 162 130 155 161 131 154 162 133 153 162 135 153 160 80 141 174 81 141 173 84 142 173 86 143 173 87 146 175 88 148 175 89 150 174 91 153 172 91 154 170 92 154 168 94 153 167 95 152 166 97 151 164 98 150 164 100 151 163 100 152 165 101 151 167 101 150 169 102 151 170 103 150 171 104 148 172 104 147 172 104 147 172 105 149 171 107 151 168 109 151 167 112 151 167 112 153 166 113 154 166 115 155 167 116 157 169 118 159 169 120 161 168 122 162 166 125 162 168 129 161 167 129 161 167 129 161 167 131 160 167 132 160 168 132 160 167 132 160 166 133 160 164 132 158 163 131 156 162 130 155 161 129 154 160 131 154 161 133 152 161 134 152 160 84 141 173 85 142 171 86 143 172 87 145 173 88 146 175 88 148 175 89 150 173 90 152 172 91 153 171 92 153 169 93 154 168 94 152 167 96 151 166 97 149 165 99 150 165 100 150 166 101 149 166 102 150 168 102 150 170 103 149 171 104 148 173 103 148 173 103 149 172 104 150 171 107 151 169 109 152 169 111 152 167 112 154 166 113 155 166 115 156 168 117 158 168 119 160 168 121 162 167 124 162 166 127 162 167 129 161 168 131 161 167 131 161 167 132 159 167 132 159 167 132 159 166 132 159 164 133 159 163 132 159 163 130 157 162 129 156 161 129 155 159 130 154 159 132 152 159 133 151 158 86 142 171 86 141 171 88 143 171 87 145 172 87 146 174 87 147 175 88 150 175 89 152 173 90 154 171 91 154 169 93 154 169 95 152 169 96 151 168 97 150 166 98 152 166 99 151 166 100 149 166 102 149 166 102 149 168 103 148 170 103 149 172 103 150 172 103 151 172 104 151 172 107 152 170 108 154 169 110 155 167 112 156 167 113 157 167 117 158 167 119 160 168 120 161 167 124 163 167 125 163 167 128 162 167 129 162 168 131 161 168 131 159 167 132 159 167 133 159 166 132 158 165 132 159 164 132 159 163 132 159 162 132 158 161 131 156 160 131 155 159 132 154 158 133 152 157 133 150 156 87 142 169 88 141 170 88 143 171 88 145 172 87 147 173 87 148 174 86 149 174 87 152 173 89 154 171 92 156 170 94 156 168 95 153 169 96 152 169 97 152 167 99 152 167 100 151 165 101 150 166 102 149 167 102 149 168 103 149 170 102 149 173 103 151 173 102 151 173 104 151 173 105 153 173 106 154 170 107 157 169 110 158 168 113 158 168 117 159 168 120 162 168 122 163 168 124 164 169 126 164 168 128 164 168 129 162 168 130 161 168 131 161 167 133 160 167 133 160 167 133 158 166 133 159 164 133 159 165 134 159 163 134 158 161 134 157 161 133 155 159 134 154 157 135 152 155 135 151 155 88 142 168 88 143 168 89 144 170 88 145 171 88 148 172 89 150 172 88 150 173 88 152 174 90 154 172 92 156 171 94 156 169 94 155 169 95 154 169 97 153 168 99 152 167 100 152 166 101 151 166 102 150 168 102 150 169 102 150 171 103 150 174 103 151 174 103 152 174 104 153 174 104 154 174 105 156 173 106 158 171 109 159 172 112 159 171 117 160 170 121 163 170 122 165 171 125 165 170 127 165 169 128 165 169 129 163 168 130 161 168 132 162 166 133 162 166 133 161 166 133 160 164 134 159 163 135 160 165 135 160 164 135 159 163 136 158 160 137 156 158 137 153 156 137 152 154 138 153 154 90 142 168 90 144 168 90 146 168 90 147 169 91 149 170 90 151 170 90 152 171 90 152 173 91 154 172 93 155 171 94 156 170 95 156 170 96 155 170 97 154 169 98 153 167 99 153 167 100 152 167 101 152 169 102 151 170 103 151 172 104 150 174 105 152 174 104 153 174 104 155 175 104 156 175 105 158 173 107 159 173 109 160 174 113 160 174 118 162 173 121 165 173 124 166 172 125 166 171 127 166 171 127 167 170 130 164 169 131 164 169 132 165 167 133 164 166 133 162 165 134 162 164 135 162 163 136 162 164 137 162 164 138 160 164 138 158 160 139 157 157 139 155 155 138 155 154 138 154 154 93 144 167 94 146 167 94 147 167 93 149 168 93 150 168 92 151 169 92 153 171 93 152 171 92 154 172 93 155 172 94 157 171 96 156 170 97 155 170 97 153 170 98 153 168 99 153 168 100 153 168 100 153 169 101 152 170 102 152 172 104 151 174 105 153 175 106 155 176 105 157 175 105 158 175 107 159 175 108 160 174 110 162 175 114 163 175 118 164 174 122 166 174 123 167 173 125 168 173 127 167 172 129 168 171 131 168 169 132 167 168 133 166 168 134 166 166 135 165 165 135 164 165 136 164 163 137 163 164 140 162 165 140 161 164 140 160 161 140 158 157 139 157 156 139 155 154 139 155 154 97 144 166 97 145 166 97 146 167 97 149 168 97 151 168 96 152 169 96 153 171 96 152 171 93 154 171 93 155 172 94 157 171 96 157 169 97 156 169 97 155 170 98 153 169 99 154 168 100 155 168 101 155 169 102 153 170 103 152 172 105 153 174 105 154 175 106 157 177 106 159 177 107 159 176 108 160 176 111 161 175 112 163 176 115 165 176 119 166 175 122 167 173 124 168 172 126 170 172 127 170 172 130 169 172 132 170 170 133 169 168 134 169 166 136 170 166 137 168 165 137 167 165 137 166 164 139 165 165 140 164 165 141 163 163 140 161 161 140 160 158 140 159 156 140 158 156 139 157 155 101 143 165 100 144 165 101 146 167 100 148 167 100 150 168 98 151 168 98 152 169 95 153 170 93 154 170 94 156 169 95 157 168 96 158 167 97 157 167 98 156 169 99 155 168 100 155 167 100 155 167 101 155 168 103 154 170 105 153 172 106 154 173 108 155 175 108 157 177 108 160 178 109 160 178 110 161 178 113 162 177 115 165 176 117 166 176 120 168 174 123 169 172 124 169 172 125 170 171 127 170 171 130 170 170 132 171 171 133 170 168 135 172 167 137 172 166 139 171 165 138 170 165 140 169 165 141 167 164 142 165 163 142 164 162 143 164 162 143 162 159 142 161 158 141 159 157 139 159 157 105 140 165 104 142 166 105 146 166 103 148 167 102 150 168 100 151 167 99 151 168 98 152 169 96 153 169 97 155 167 96 157 165 97 158 165 99 157 165 100 156 167 100 157 167 100 156 167 100 156 167 102 155 167 103 155 169 104 155 171 106 156 173 108 158 176 110 159 178 111 160 179 112 161 180 113 162 179 116 163 178 117 166 176 120 167 175 122 169 173 123 169 172 124 170 172 124 170 172 127 170 171 131 170 170 133 172 170 134 172 168 136 173 167 137 173 166 139 173 165 140 172 165 142 171 165 143 170 164 144 168 163 144 166 162 144 166 162 145 165 160 144 164 159 143 163 158 140 163 157 109 139 165 107 142 165 107 145 165 106 147 166 104 149 167 103 151 167 102 151 167 100 152 167 99 153 166 99 155 164 100 156 163 100 158 163 100 158 163 101 158 165 101 158 165 100 157 165 101 156 166 103 156 166 104 156 168 105 157 170 106 158 173 108 159 176 110 161 178 112 161 179 113 161 180 115 162 180 115 163 179 118 166 177 120 167 176 121 168 174 123 169 173 123 170 171 124 171 171 127 171 170 130 171 169 132 172 168 134 174 167 136 175 167 137 174 166 140 174 166 142 174 166 144 174 165 144 172 165 145 171 163 146 168 162 146 167 162 146 167 161 145 168 160 143 167 160 141 166 158 112 137 163 111 139 164 110 142 164 108 145 166 106 148 167 105 151 166 103 152 166 101 152 165 101 154 164 102 155 162 102 156 162 101 158 162 101 159 161 101 159 163 100 158 164 100 158 164 101 157 164 102 156 165 103 156 167 104 157 169 106 159 172 108 160 175 110 160 179 113 161 180 113 161 180 114 162 180 115 164 180 118 165 179 120 167 176 121 168 175 122 169 174 123 171 172 125 171 171 128 171 171 130 171 169 132 172 168 134 173 167 135 174 167 138 175 167 141 175 167 143 175 167 144 175 166 145 175 166 146 173 165 148 170 164 146 169 163 146 169 162 145 169 162 144 170 161 142 169 160 115 137 162 114 139 163 112 141 164 110 143 165 109 146 166 107 150 166 105 152 165 104 152 163 103 154 163 103 156 160 104 156 160 103 157 161 102 159 160 100 160 161 100 160 161 101 159 162 101 158 164 102 156 164 103 156 164 104 158 168 106 159 171 108 161 174 111 161 178 113 161 180 113 162 180 115 163 180 116 163 180 117 164 179 119 165 177 120 168 177 121 169 176 123 169 174 125 170 173 128 171 172 129 171 170 131 172 169 134 172 168 137 173 168 139 174 169 141 174 169 143 175 169 145 176 167 146 176 168 146 174 168 147 173 166 147 172 166 145 172 164 144 172 163 144 173 162 142 173 161 119 138 161 117 140 163 115 141 163 113 143 163 111 145 164 110 149 165 108 152 165 107 153 164 106 155 162 105 156 160 105 158 159 104 159 159 103 159 159 102 160 159 102 160 159 102 160 160 102 160 162 102 158 161 104 157 164 105 158 167 106 160 171 108 161 174 110 161 177 113 163 178 114 164 179 115 164 179 117 164 180 118 165 179 119 166 178 120 168 179 121 169 178 123 169 176 125 170 175 127 171 173 130 171 171 132 171 170 134 171 169 137 173 170 138 175 171 140 174 172 143 174 172 144 176 170 145 176 169 146 176 170 145 176 169 145 175 166 145 176 166 144 176 164 142 175 162 141 175 161 121 140 161 119 141 163 118 142 163 117 144 163 115 146 164 113 148 164 110 151 164 108 154 163 109 156 162 109 158 160 107 159 159 105 159 158 104 159 158 104 159 159 104 160 159 104 160 159 104 160 161 103 160 160 104 159 163 104 160 166 106 162 169 108 161 172 111 163 174 113 165 177 114 166 178 115 167 179 117 167 180 118 167 180 120 168 180 121 168 180 121 169 180 124 170 178 126 171 175 129 171 173 131 170 172 134 169 172 136 170 171 137 172 172 140 174 173 140 174 173 142 174 173 143 175 171 145 175 170 145 177 170 145 177 169 145 176 166 145 177 165 144 177 164 143 177 162 141 176 162 122 141 161 121 141 162 120 143 162 121 145 163 119 147 165 116 149 164 114 151 163 112 153 161 112 156 161 111 158 160 111 158 159 109 159 157 108 159 156 107 159 158 107 159 158 106 161 158 107 161 160 106 161 161 106 162 162 105 162 165 107 163 167 109 163 169 111 165 172 112 166 174 113 167 176 115 168 178 117 168 180 119 168 180 121 169 181 122 170 181 123 169 180 125 171 178 128 171 175 130 170 175 132 169 174 134 169 174 136 170 174 138 171 174 140 173 174 141 173 173 143 173 172 145 174 171 146 175 170 145 177 170 144 177 169 144 176 166 144 176 164 143 177 163 142 177 162 141 176 162 124 141 160 124 143 161 124 144 161 124 147 162 123 148 164 121 149 164 119 151 163 117 153 161 116 156 160 115 157 159 115 159 158 114 160 157 112 160 156 111 160 157 110 160 157 110 162 158 109 163 159 108 163 161 107 163 162 106 164 163 108 164 165 110 164 167 111 165 170 112 167 173 114 168 175 116 169 177 119 170 179 120 171 180 122 172 181 123 172 182 124 172 180 127 172 178 130 171 177 133 171 177 134 170 176 135 170 176 136 170 175 138 171 174 140 172 173 140 173 173 143 173 172 145 175 171 145 176 170 145 176 170 145 176 169 145 177 167 144 177 166 143 176 164 142 177 163 141 176 163 125 141 159 126 142 160 127 144 162 127 147 162 126 149 162 124 150 163 123 152 162 122 154 160 121 156 160 120 158 159 118 158 157 117 160 156 115 161 156 113 160 157 112 161 158 112 163 159 112 164 159 110 164 161 110 165 162 109 165 162 110 164 164 112 165 166 113 167 169 114 167 171 115 169 174 117 170 176 120 171 177 121 172 179 123 173 180 124 173 180 126 173 181 129 172 180 131 171 179 135 171 179 136 172 179 137 171 177 137 171 176 139 172 174 141 171 173 141 172 172 142 173 171 143 174 171 144 176 170 145 177 169 144 176 169 145 177 167 145 177 165 144 176 164 143 175 164 142 175 164 127 141 159 127 142 160 129 144 161 130 147 161 129 148 161 127 150 162 126 152 162 125 155 160 123 157 159 123 158 159 121 159 158 121 160 157 118 161 157 116 161 157 114 161 158 114 163 160 114 164 162 113 165 162 112 165 162 111 165 162 112 165 163 113 166 165 114 169 168 115 169 170 116 170 172 119 171 174 121 172 176 122 173 178 123 172 178 125 172 180 127 172 180 130 171 180 133 171 180 135 172 179 136 171 179 137 171 177 139 172 175 141 171 173 142 171 172 142 172 170 143 173 170 143 173 170 143 175 169 144 176 169 144 176 168 144 176 167 143 175 165 143 174 165 143 174 164 142 174 164 130 140 157 130 143 158 131 146 159 131 148 160 131 149 161 130 151 162 129 153 162 128 156 160 126 157 160 125 158 160 124 159 158 123 160 158 121 161 157 119 162 157 116 162 158 116 163 160 115 164 162 116 164 163 115 164 163 115 165 162 115 166 163 114 168 165 114 170 167 116 171 170 118 172 171 120 172 172 121 172 175 122 174 176 123 173 177 125 172 178 127 171 179 131 171 180 134 171 180 136 170 180 136 169 180 138 170 178 139 171 175 141 171 173 140 171 172 141 172 171 142 173 170 142 173 169 142 174 169 144 175 168 144 175 168 142 176 167 142 175 166 142 174 165 142 174 165 142 175 165 131 141 156 131 143 158 132 147 158 132 150 158 132 151 159 132 153 160 131 154 161 130 156 161 129 156 160 128 157 160 126 158 159 125 160 159 123 160 159 121 161 159 120 162 160 118 164 161 119 164 162 118 164 162 117 165 162 117 166 162 116 167 163 116 170 164 117 173 167 118 174 169 119 174 170 119 174 171 121 174 173 122 175 174 124 174 176 125 173 177 127 171 178 131 172 179 134 170 179 136 169 179 136 169 179 137 169 178 138 170 175 139 171 173 139 171 172 140 173 171 140 173 170 141 173 168 142 174 168 143 175 168 142 176 168 142 176 168 141 174 167 142 174 167 141 173 166 141 174 166 133 142 155 135 145 156 135 148 155 134 151 156 133 153 157 133 154 158 132 155 159 132 156 159 131 157 159 130 158 159 128 159 160 127 159 160 124 160 161 123 162 161 121 163 160 120 163 161 121 163 160 120 164 160 119 166 162 118 167 162 116 170 163 117 172 164 119 173 166 119 175 168 119 176 169 119 176 169 121 177 170 122 176 171 123 174 173 124 173 174 128 172 175 131 172 176 133 170 178 135 169 179 136 170 179 137 169 178 136 170 175 137 171 174 138 172 173 138 173 171 140 175 170 140 174 169 141 174 168 141 175 168 141 176 168 140 176 167 140 174 167 141 174 168 142 173 167 141 173 166 135 143 153 136 146 153 135 149 153 133 153 153 132 154 154 132 155 156 133 156 156 134 157 157 133 157 158 132 158 158 130 159 159 128 159 160 127 161 161 125 162 161 123 162 161 121 163 162 120 164 161 120 165 160 120 166 162 120 168 162 119 169 162 119 172 163 120 173 164 120 174 165 120 175 167 119 175 167 120 176 168 121 177 169 123 175 169 125 173 170 129 173 171 132 171 174 134 170 176 135 171 176 135 171 176 135 170 176 135 171 175 136 172 173 137 173 172 138 173 171 140 175 171 140 175 170 141 175 169 141 176 169 140 176 168 138 176 167 138 175 167 140 173 169 141 173 169 140 174 168 137 145 151 136 148 151 135 152 151 134 154 152 133 156 153 132 157 153 133 158 155 133 158 156 133 158 156 132 158 157 131 159 158 130 160 159 129 160 161 127 161 161 126 162 162 124 162 163 122 164 161 121 164 161 120 167 161 120 168 160 120 169 160 120 170 161 120 172 163 120 173 164 120 174 166 119 175 166 120 175 166 121 176 166 123 176 167 126 174 167 129 174 169 132 173 171 134 171 173 135 171 174 136 171 174 135 170 173 135 171 173 136 173 172 138 174 171 139 174 171 140 174 171 140 175 170 141 175 170 141 175 170 139 174 169 138 176 168 139 175 168 140 173 170 142 173 170 140 174 169 137 148 150 136 150 150 136 153 151 135 155 151 135 157 151 133 157 152 134 158 154 134 158 156 134 158 156 132 158 156 131 159 157 130 161 159 130 160 161 129 160 162 128 162 163 126 162 163 124 163 162 122 164 161 122 166 161 121 167 161 121 168 161 120 169 161 121 172 162 120 173 164 119 174 165 120 175 165 120 176 165 121 176 165 124 175 165 126 174 166 128 174 167 131 174 169 133 173 170 134 173 171 135 172 172 135 171 171 136 173 173 136 173 173 138 174 173 140 174 173 139 174 172 140 174 172 140 173 172 140 173 173 139 173 172 137 175 171 139 174 171 141 174 171 142 173 171 140 174 171 136 149 149 136 151 150 136 154 149 136 156 150 136 157 151 135 157 152 135 158 153 135 157 155 135 157 157 134 157 158 132 158 158 131 160 159 130 160 160 130 160 162 129 162 163 127 162 163 125 163 163 124 164 162 123 165 162 122 167 162 121 167 162 121 170 162 120 172 162 120 173 162 120 174 165 120 175 165 122 176 164 123 176 164 124 175 164 126 173 164 128 174 166 130 175 167 131 174 169 133 174 170 135 173 172 135 173 172 135 174 172 135 174 173 138 175 173 138 174 174 139 174 175 140 174 174 140 173 175 139 173 175 138 173 175 138 173 175 140 174 173 140 173 172 141 171 172 140 172 172 