P3
50 50
255
127 71 168 126 68 170 125 67 171 125 66 171 122 66 171 119 65 170 119 63 169 121 61 168 123 60 168 126 59 165 127 57 164 126 57 161 126 57 159 126 58 159 126 58 157 126 57 156 126 59 156 127 62 155 127 66 154 127 70 151 126 72 150 128 74 149 130 78 149 131 80 149 130 83 149 129 87 151 128 90 152 128 93 151 129 95 148 130 98 148 130 100 148 129 104 149 128 107 148 128 110 148 129 113 148 130 115 147 131 116 148 130 118 151 130 122 152 131 125 155 132 125 157 133 125 157 136 125 157 137 124 158 138 124 158 139 125 160 140 127 163 141 129 163 141 130 162 142 132 162 124 71 168 123 68 169 123 67 171 121 66 172 119 66 172 117 63 170 118 63 168 120 61 167 122 60 167 126 59 164 125 57 161 125 56 158 126 56 157 127 56 156 127 56 156 127 56 154 127 58 154 127 61 154 127 64 152 127 68 149 127 71 150 128 75 148 129 77 147 129 80 147 128 83 148 127 87 149 126 90 150 127 93 149 129 95 148 130 98 148 130 99 147 130 103 147 129 107 146 129 109 146 130 111 147 131 113 147 130 116 150 130 118 152 130 121 153 131 123 155 132 125 157 133 125 157 135 123 155 136 123 156 138 125 158 139 127 160 141 129 162 141 130 162 142 132 162 143 134 162 121 71 169 121 69 170 120 67 172 118 66 173 117 65 171 116 64 169 117 63 167 119 61 165 121 60 164 123 58 162 122 57 159 124 56 157 126 55 155 127 54 154 128 55 153 127 56 153 127 57 154 127 60 153 128 64 151 128 68 148 127 72 148 127 75 147 128 77 146 128 80 146 127 83 146 126 86 146 126 90 146 127 93 146 127 96 145 129 98 146 130 100 145 130 103 144 130 106 144 130 109 144 131 110 145 131 113 147 131 117 149 131 119 151 131 121 154 130 122 154 132 123 155 133 124 157 135 123 156 136 123 156 138 125 157 139 127 159 141 129 160 141 131 161 142 132 161 142 133 161 119 72 169 118 71 170 117 69 172 116 68 172 115 66 170 114 65 168 114 63 166 116 61 163 119 59 161 120 57 159 121 58 157 123 57 156 124 54 154 126 53 153 129 54 152 128 54 153 127 56 153 128 59 152 128 64 150 129 67 148 128 71 147 127 74 145 127 76 145 127 79 145 127 83 143 126 86 144 126 88 144 125 92 144 126 96 143 129 98 144 131 100 143 131 103 142 131 107 141 130 109 141 132 111 143 132 114 146 131 118 147 132 120 151 132 121 153 132 121 153 132 122 154 133 123 155 135 123 155 136 124 155 139 125 156 139 128 158 139 131 159 141 131 160 142 133 161 143 133 161 119 72 169 116 71 171 115 70 171 116 69 169 115 67 168 114 65 167 113 64 164 114 61 160 115 59 158 118 58 157 120 58 157 123 57 154 124 54 152 126 54 151 128 54 151 129 55 151 128 56 151 129 60 150 129 63 148 129 65 148 128 69 146 127 73 144 126 75 144 125 79 144 125 82 142 125 85 142 125 88 142 124 92 142 125 96 142 127 98 141 129 101 140 132 103 141 132 107 141 131 110 140 131 112 142 132 115 143 131 119 146 132 120 148 132 121 151 133 121 151 133 123 152 134 123 153 135 125 155 136 127 155 138 128 157 139 129 158 139 131 159 140 132 161 141 132 162 141 132 161 118 73 168 116 72 169 115 70 168 114 68 167 114 66 166 114 64 163 114 63 161 114 61 157 115 59 154 118 58 154 120 57 154 123 56 152 125 56 150 126 55 150 128 55 149 128 56 148 129 57 149 129 60 148 129 63 146 129 64 146 128 66 146 127 70 143 126 75 143 125 78 142 125 83 140 126 85 140 125 88 141 125 91 141 125 95 141 127 98 140 130 101 139 132 104 140 133 108 140 132 111 139 131 113 140 132 116 141 132 118 144 131 120 146 132 121 149 133 122 150 133 124 151 133 125 153 134 126 154 136 127 155 137 129 156 138 129 157 140 130 158 140 131 159 140 132 160 140 133 161 117 73 167 116 73 167 115 71 166 113 68 164 114 66 162 114 64 159 114 62 156 114 60 153 115 60 151 117 59 151 119 58 150 121 57 150 124 56 150 126 56 148 127 57 148 125 57 147 127 58 147 129 59 145 128 62 144 129 63 143 128 66 144 127 69 142 125 73 141 126 77 140 126 82 138 126 85 138 125 88 138 125 91 139 126 95 139 128 97 139 130 101 138 132 103 138 133 108 138 132 111 138 131 114 138 132 116 140 133 118 141 133 119 143 133 120 145 133 122 148 132 125 149 132 126 151 134 127 152 136 127 153 138 127 153 138 129 154 140 130 156 139 131 158 140 132 159 140 133 158 116 72 165 115 72 165 115 71 165 114 68 163 113 67 160 113 65 156 113 63 153 113 61 151 114 61 148 116 61 147 118 60 148 120 60 148 123 58 149 124 57 148 124 58 147 124 58 146 126 60 144 127 61 143 128 61 142 128 63 141 128 66 141 127 68 141 125 72 139 126 76 137 128 80 137 126 84 136 125 88 137 125 92 137 126 95 137 127 98 137 130 102 137 131 106 137 132 109 137 133 112 138 133 114 138 134 116 139 134 116 139 134 118 140 134 119 142 133 122 144 132 124 145 133 126 147 135 128 149 136 128 150 138 128 150 138 130 151 139 130 152 139 131 155 139 132 157 140 134 158 114 69 165 114 70 164 114 71 162 114 70 160 113 69 157 113 65 155 113 64 152 114 63 149 115 63 147 116 62 146 117 61 146 119 60 147 121 59 147 123 58 146 122 58 147 123 58 146 126 59 143 126 60 143 127 62 141 128 64 140 127 66 140 127 68 139 126 71 137 127 75 136 127 79 135 126 84 134 125 88 134 125 92 136 125 95 136 127 98 135 129 103 135 131 107 135 132 110 135 133 113 136 134 114 136 135 115 136 134 116 136 134 118 137 134 120 139 133 121 140 134 124 142 134 126 143 135 128 145 135 129 147 137 129 148 139 129 149 140 129 151 139 130 153 140 132 155 140 135 158 113 67 164 114 68 162 112 69 159 112 70 157 113 68 155 112 67 152 112 66 150 113 64 148 115 63 146 116 62 146 117 62 145 118 61 145 119 59 145 121 59 146 121 59 146 123 58 145 125 58 144 126 61 142 127 62 140 127 65 138 127 67 138 126 69 137 127 72 136 127 75 134 127 78 133 126 84 132 124 88 132 125 92 133 127 95 134 128 99 134 129 103 133 130 106 133 131 110 134 132 112 134 133 113 133 134 114 132 135 116 133 134 118 134 135 119 135 134 121 136 135 123 138 136 126 139 136 128 141 136 129 143 137 130 145 139 130 148 141 131 149 141 131 151 140 133 153 140 135 155 114 66 161 114 67 158 113 68 155 112 68 154 111 69 153 112 68 152 111 67 149 113 65 147 115 63 145 115 62 145 116 61 144 117 61 144 119 60 144 120 59 145 120 60 145 122 60 145 124 59 143 125 61 142 125 63 140 126 65 138 126 69 137 126 71 135 126 74 133 127 76 132 127 79 131 126 84 130 125 88 131 125 92 131 127 96 132 128 100 132 129 103 132 130 106 131 130 110 131 132 111 131 133 112 129 133 114 129 134 116 129 135 118 130 134 119 131 134 121 133 133 124 134 135 125 137 136 127 138 136 129 140 137 130 142 137 132 145 139 133 146 140 134 149 141 134 151 140 137 154 115 65 158 116 65 155 114 66 153 113 67 152 111 67 151 110 68 151 110 67 149 112 65 147 114 63 144 115 62 144 116 61 144 118 61 143 118 61 144 119 61 143 120 61 143 122 61 143 122 60 141 123 63 140 124 66 140 125 67 139 125 70 137 124 73 134 123 75 132 124 77 130 125 81 129 125 85 128 125 89 128 126 92 129 128 95 130 129 99 131 130 104 131 130 107 130 130 108 129 131 111 128 132 114 127 132 115 127 133 117 128 133 119 128 134 120 128 134 123 130 133 125 132 134 125 134 134 127 137 135 128 138 136 130 140 137 132 143 139 134 145 140 135 147 141 136 149 141 137 151 115 63 156 115 63 153 115 64 151 114 63 150 113 64 149 111 66 148 111 66 148 111 65 147 112 63 144 114 63 144 115 62 143 116 62 143 116 62 142 118 62 140 119 62 140 120 62 140 119 62 139 120 64 139 121 67 139 123 70 139 123 72 136 123 72 133 122 74 131 122 77 128 123 81 126 125 85 126 126 89 125 126 92 126 128 96 127 130 100 128 130 105 129 130 106 129 130 109 128 131 112 127 131 115 126 131 118 125 132 119 125 132 121 125 133 122 126 132 124 128 132 125 131 132 127 132 133 128 134 135 128 135 136 130 138 137 133 141 139 135 144 140 136 145 140 137 148 141 139 149 114 62 153 114 63 150 115 62 148 115 61 148 115 62 148 113 64 146 111 64 145 112 65 145 113 65 142 114 65 141 114 65 142 115 64 141 116 64 140 119 64 138 119 63 138 117 64 138 117 66 138 117 67 138 118 70 138 119 71 136 120 73 133 121 73 131 120 74 129 120 78 126 121 82 125 124 86 124 126 89 124 127 93 124 128 97 125 129 100 126 130 105 128 130 107 128 129 110 126 130 113 125 131 116 124 130 119 123 130 121 123 131 122 124 131 123 124 131 123 127 131 125 129 132 127 130 132 129 133 134 129 135 135 131 138 136 134 141 136 135 143 138 136 144 140 138 145 141 141 146 114 63 151 114 63 149 115 62 147 115 62 147 115 62 146 113 64 144 111 64 144 112 65 143 113 66 140 114 67 139 115 67 139 115 68 139 116 66 138 118 66 137 117 66 137 116 68 137 115 69 137 115 69 136 115 71 136 116 72 135 117 73 132 117 74 130 117 76 127 117 79 125 119 83 125 122 87 124 124 91 123 127 95 124 128 97 125 127 101 126 128 105 127 128 108 127 128 111 125 129 114 123 129 117 122 129 121 122 128 123 122 129 125 124 129 125 125 129 125 126 130 126 128 131 127 130 132 129 133 132 130 135 134 131 137 135 133 140 136 135 141 137 138 143 139 141 144 140 142 146 112 64 148 113 65 147 114 65 145 114 64 144 114 64 144 112 64 143 111 65 143 112 66 142 112 67 139 114 68 137 115 68 136 115 70 137 116 70 137 117 70 136 115 71 135 115 72 136 114 72 135 113 72 134 114 73 134 114 74 132 114 74 130 115 74 128 116 77 125 117 80 124 118 85 125 120 88 125 122 93 125 124 96 126 126 100 125 125 102 125 125 106 126 125 109 125 125 113 124 127 115 121 128 119 121 127 121 121 126 123 122 127 126 125 128 127 126 128 127 127 129 128 129 130 130 131 131 131 133 132 132 134 132 132 137 134 134 139 135 137 141 136 140 142 138 143 143 139 144 146 112 66 147 112 66 145 112 66 144 112 67 142 113 65 142 111 65 142 110 66 141 109 68 140 110 69 139 112 69 137 113 71 135 113 71 134 114 72 134 115 73 134 114 74 134 113 75 134 112 75 134 111 75 132 112 75 131 113 76 130 114 76 129 114 76 127 115 78 125 116 81 124 117 85 124 119 89 124 121 94 125 123 98 125 123 101 125 123 103 124 122 107 123 123 110 123 124 113 121 125 117 118 126 120 119 126 121 121 125 124 122 125 127 124 126 128 127 127 128 127 128 129 129 128 131 131 130 132 132 131 133 133 132 134 135 133 136 138 135 139 140 136 142 141 137 144 143 139 146 145 112 66 147 112 65 146 111 66 144 111 67 142 111 67 141 110 68 141 109 68 141 107 70 140 107 71 139 109 71 137 111 73 135 111 73 133 112 74 133 113 74 133 113 76 134 112 77 134 110 78 133 111 78 131 112 78 129 113 78 129 113 78 128 113 78 126 113 80 124 115 82 123 116 84 122 117 88 122 120 93 123 122 98 123 122 101 124 121 103 123 121 108 122 122 112 121 123 114 118 123 118 117 124 120 118 124 123 119 123 124 121 124 127 124 126 128 127 127 129 128 127 130 131 129 132 132 129 133 133 131 135 134 133 136 134 134 138 137 135 140 139 136 143 141 137 145 143 139 147 146 111 66 147 110 66 146 111 67 144 112 68 142 111 68 140 110 69 139 108 70 139 106 71 140 105 72 139 107 73 137 108 74 134 110 74 133 111 74 132 111 75 131 111 77 131 111 78 131 110 79 131 111 80 130 112 80 128 113 79 127 113 79 126 113 78 124 113 80 123 113 82 121 115 84 120 115 88 120 117 93 120 119 97 121 119 100 123 120 103 121 119 108 120 119 113 119 120 116 117 122 118 118 122 120 118 121 122 120 122 124 121 123 126 123 126 128 126 127 130 129 128 131 132 129 132 134 129 133 135 131 137 135 133 139 136 135 141 137 136 142 139 135 145 142 137 146 143 140 148 146 109 67 145 110 67 144 111 68 142 112 69 141 112 69 139 109 70 139 107 71 139 106 72 139 105 72 138 104 73 136 106 75 135 107 75 134 108 75 132 109 76 130 110 77 129 110 77 129 112 78 128 111 80 127 111 80 126 111 80 125 112 79 126 112 79 124 113 80 123 113 83 121 113 85 118 113 88 118 114 93 118 116 97 119 117 99 119 117 103 119 116 106 119 116 111 118 118 115 118 118 118 119 118 120 121 118 122 122 120 125 123 123 128 124 126 129 127 128 131 130 128 131 133 129 133 135 131 136 136 132 139 137 135 141 137 136 143 138 137 145 140 136 147 141 138 149 144 140 151 146 109 68 143 111 69 143 111 69 142 111 70 140 110 70 139 109 70 139 106 71 138 104 72 136 104 71 136 104 73 135 104 74 135 105 75 135 107 77 133 109 77 131 110 77 129 110 78 128 111 80 127 111 81 126 111 81 126 111 80 126 112 79 126 112 81 124 113 83 122 113 84 120 112 86 118 113 89 116 114 93 117 114 97 118 115 99 117 114 103 116 114 107 118 115 111 120 116 115 119 115 119 120 116 121 122 117 124 124 119 126 125 121 129 127 125 131 129 128 133 130 129 134 134 130 136 136 133 138 138 135 140 138 136 143 138 136 145 140 137 147 141 137 148 143 139 150 144 140 153 147 109 69 141 110 69 141 109 70 139 109 71 138 108 71 138 107 72 139 105 72 137 104 71 136 102 71 134 103 72 135 104 74 135 105 75 134 105 76 132 107 76 130 108 77 128 109 79 127 109 80 127 110 81 126 110 82 127 111 81 126 111 81 125 111 83 124 112 86 122 111 87 120 111 88 119 111 91 118 113 94 117 113 97 116 113 100 115 112 105 115 113 109 117 113 112 119 114 116 120 113 119 122 114 121 124 116 124 126 118 126 127 121 129 129 125 131 131 127 133 132 129 135 135 130 137 138 133 139 140 135 141 140 136 144 140 136 147 141 137 148 143 137 150 144 137 152 145 137 155 148 107 70 139 108 70 139 108 71 137 108 72 137 107 73 137 106 73 136 106 72 135 104 71 135 103 70 134 102 71 132 102 74 133 103 76 133 103 76 131 104 76 129 105 77 127 107 78 126 108 80 125 109 82 125 110 83 125 111 83 124 111 84 123 112 87 122 111 89 120 111 90 119 111 91 119 110 93 119 110 95 117 110 100 116 110 103 115 111 106 116 111 110 117 112 114 121 113 117 123 113 119 124 114 122 126 114 124 128 117 128 130 120 129 131 123 131 132 126 133 134 127 136 137 129 139 139 131 141 140 133 143 140 135 146 141 136 148 143 137 151 144 137 153 144 136 155 145 136 157 146 105 71 135 106 70 135 107 70 135 108 71 135 106 73 135 105 72 133 106 72 132 104 71 131 102 70 131 101 71 130 101 74 131 101 75 131 102 75 130 103 76 128 104 77 126 106 78 125 108 80 125 109 82 123 110 83 122 112 85 121 112 88 121 113 90 120 112 92 119 111 93 118 109 93 117 108 94 117 108 98 117 108 101 116 109 105 116 109 109 116 109 112 119 111 116 123 112 119 123 112 121 125 113 123 127 113 125 129 114 128 131 116 131 132 119 133 135 122 135 137 125 137 139 126 140 139 129 143 139 130 146 139 132 150 141 134 152 143 136 154 143 135 156 144 134 157 145 134 160 146 103 69 132 104 69 132 105 70 132 106 70 132 105 71 131 105 72 130 105 72 129 104 71 128 103 70 128 103 71 129 101 72 130 101 74 131 101 75 129 102 76 127 104 76 125 105 78 124 107 80 124 109 83 122 110 85 119 111 88 119 112 91 119 112 92 119 111 95 118 111 97 118 109 97 117 107 98 117 106 101 117 107 103 117 107 107 117 109 111 118 108 115 120 109 118 122 109 120 123 110 122 125 111 124 128 111 128 129 112 130 132 114 132 134 116 133 137 118 134 139 122 137 140 123 141 140 126 145 139 127 147 138 129 151 141 133 154 143 135 157 144 136 159 145 134 161 145 133 163 145 100 67 129 102 68 130 103 70 130 104 70 129 104 70 128 104 71 128 103 71 128 104 71 127 104 71 126 102 72 127 100 72 128 99 74 128 100 75 127 101 76 125 103 77 123 104 78 123 105 80 122 107 83 120 109 86 118 109 90 117 110 93 117 110 95 117 109 97 116 110 99 116 109 100 116 107 102 116 105 103 116 105 105 117 105 109 116 107 112 117 106 116 119 106 118 121 107 120 123 107 122 126 107 125 128 108 128 129 109 131 132 111 133 134 113 133 137 116 134 139 118 137 140 120 141 139 123 146 137 125 149 138 127 152 138 131 156 142 133 159 144 134 162 145 133 164 146 133 167 147 98 67 127 99 68 127 99 70 128 101 70 127 102 71 126 103 72 126 103 72 125 103 71 125 102 71 124 100 72 125 99 72 125 100 73 124 99 75 123 100 77 122 102 78 121 103 78 121 103 80 120 103 83 119 105 86 118 106 90 117 107 94 116 106 96 116 107 98 115 107 101 114 107 102 114 105 105 115 103 105 115 103 106 114 103 109 115 103 112 117 103 116 119 103 118 120 104 120 122 104 122 125 105 126 125 105 128 129 106 131 132 109 133 134 111 134 136 113 136 138 115 138 138 117 142 137 120 146 136 123 149 137 125 153 138 129 157 141 131 160 144 132 163 144 131 167 145 131 169 146 95 68 125 96 70 125 98 71 125 100 71 124 102 72 123 102 72 124 102 72 123 102 71 123 100 71 123 99 72 122 99 73 122 100 74 120 100 76 120 100 78 118 100 78 116 100 78 117 101 81 117 100 83 118 101 87 117 103 90 115 103 93 114 103 96 114 105 99 114 104 102 113 103 105 114 102 107 114 101 107 114 101 108 114 101 111 114 101 114 116 101 116 119 102 118 121 102 121 122 103 123 123 104 125 125 104 128 129 104 131 132 107 134 133 108 135 134 110 137 136 112 139 135 115 143 135 117 145 135 121 149 137 124 152 139 127 156 141 128 161 142 129 164 143 130 168 144 130 170 147 95 71 121 96 72 122 97 73 122 99 73 122 99 73 121 100 72 122 100 71 122 100 70 121 99 72 120 98 73 119 99 74 118 99 75 117 99 77 116 100 77 114 100 78 113 100 80 114 99 82 114 99 84 114 100 86 113 100 90 113 101 93 112 100 96 112 100 100 112 101 103 112 100 106 112 100 108 112 99 109 113 99 110 113 98 113 115 99 116 117 101 117 119 102 119 120 102 122 121 102 123 122 103 125 124 105 128 128 104 131 131 105 135 133 105 137 134 107 138 134 110 141 135 113 145 135 116 146 136 118 148 137 121 152 140 124 156 141 125 161 141 126 166 142 127 170 145 128 171 147 95 73 118 95 73 119 96 74 119 97 74 119 97 72 118 97 72 118 98 71 118 98 70 118 97 72 117 97 73 116 98 74 115 99 75 113 100 77 112 101 78 110 100 80 111 99 81 111 99 82 110 99 83 109 99 86 109 99 89 110 99 93 110 98 96 109 99 100 110 98 104 109 98 107 109 98 109 111 97 111 112 97 112 114 98 115 115 100 118 117 101 118 119 101 120 120 101 122 120 102 124 122 101 125 123 102 128 126 103 130 128 104 134 130 104 138 133 105 140 133 107 143 135 110 146 135 114 147 136 117 149 138 120 153 141 122 158 142 123 164 143 124 169 143 125 172 144 127 173 146 95 74 115 94 74 114 95 74 115 95 73 115 94 72 115 94 71 114 95 71 115 94 72 114 95 72 113 96 74 113 96 74 112 99 75 110 100 77 109 100 79 108 100 81 109 99 81 108 99 82 106 98 84 105 98 87 105 98 90 106 98 92 107 98 96 107 98 100 107 97 104 107 97 106 108 98 108 110 97 111 112 97 114 113 98 116 114 100 119 116 100 120 118 100 121 120 100 123 120 100 125 121 101 126 122 102 129 124 103 131 126 103 134 128 103 137 131 105 141 133 106 144 134 109 146 134 113 148 135 116 151 138 119 154 142 121 159 143 121 165 143 122 170 144 122 174 145 125 175 146 94 76 111 94 76 111 94 74 112 94 74 112 93 73 112 92 72 111 92 72 111 92 72 110 94 73 111 95 74 111 96 75 110 99 75 108 99 77 108 99 80 107 99 81 107 98 82 106 98 83 104 97 85 103 97 88 102 97 90 102 96 93 104 97 96 104 97 100 105 96 104 105 96 106 106 97 108 108 97 111 109 98 114 111 98 116 114 98 118 116 98 121 116 98 123 117 99 124 118 100 126 119 101 127 121 101 129 123 102 133 126 103 135 128 105 137 130 106 140 132 108 144 132 111 146 133 113 149 136 116 152 140 117 156 142 119 161 144 120 166 144 120 170 146 122 173 147 123 176 147 94 76 108 96 77 109 94 75 109 94 74 110 93 74 110 90 74 110 91 73 110 91 73 109 93 74 110 95 75 109 96 75 108 98 76 107 98 77 106 97 80 106 97 82 105 97 84 104 96 85 103 95 87 102 94 89 100 94 92 100 94 95 101 96 98 102 96 100 103 95 103 104 94 105 105 95 108 105 97 110 107 97 112 110 96 114 113 96 117 115 97 122 115 98 124 115 98 126 116 98 127 117 99 128 120 101 130 122 102 132 125 104 135 127 107 137 129 109 139 130 110 142 131 112 146 133 115 150 136 116 153 139 117 156 142 118 161 144 118 166 145 120 170 146 121 174 147 123 176 147 93 76 104 94 76 105 93 76 107 93 76 108 93 76 109 91 76 109 90 76 108 91 75 107 92 76 106 92 77 106 94 77 107 96 77 106 97 78 106 96 81 105 95 83 105 96 85 104 95 86 102 94 88 100 93 91 99 92 94 99 93 96 98 94 99 99 94 101 100 94 104 101 93 107 102 95 109 102 95 110 105 95 112 109 94 114 112 95 118 114 95 121 114 96 125 114 95 127 116 96 127 117 98 128 119 99 130 121 101 132 123 105 135 125 108 137 127 110 140 129 112 143 131 115 146 133 117 150 136 116 154 138 117 158 141 118 163 143 118 166 145 120 170 145 122 173 146 123 176 147 92 77 101 91 76 102 90 77 103 91 77 106 92 78 107 91 78 108 90 77 107 89 77 105 89 78 104 90 79 103 92 79 103 93 80 103 95 80 104 95 81 104 94 82 103 94 85 102 93 87 101 92 90 99 92 92 98 91 95 98 92 97 97 93 98 97 93 100 98 92 103 98 92 106 99 92 108 101 93 110 104 93 113 108 92 116 110 93 118 112 93 123 113 94 126 114 94 128 115 95 129 118 97 130 119 99 132 121 101 135 122 104 137 123 108 138 126 111 141 129 114 143 131 117 146 133 117 151 136 117 154 139 119 159 141 119 164 143 120 167 144 122 169 146 123 172 146 124 176 148 90 78 99 89 78 100 88 77 102 89 78 104 89 79 105 89 78 106 88 79 106 87 79 104 87 81 102 88 81 101 89 81 101 92 82 101 94 81 101 94 81 101 93 83 101 92 85 101 93 88 98 92 91 98 92 93 99 91 96 98 91 98 96 92 98 95 92 100 96 91 103 96 91 107 98 90 109 99 90 111 102 90 114 104 89 117 107 89 120 109 90 123 111 92 126 112 92 128 113 94 130 116 95 132 119 98 134 120 101 137 120 104 138 121 108 141 124 111 143 128 114 145 130 117 148 133 118 151 135 118 155 139 119 160 141 121 165 142 121 169 145 123 171 146 124 173 147 125 178 148 88 79 97 88 80 98 86 78 99 86 78 100 86 80 102 87 80 103 86 80 103 85 81 102 85 83 100 86 84 100 88 84 99 91 84 98 92 83 99 92 83 100 93 85 100 93 87 98 93 89 98 92 92 97 91 94 97 92 96 98 92 97 97 91 98 95 92 98 95 92 101 95 90 105 97 88 109 98 87 113 100 87 115 102 87 117 104 87 120 107 89 123 108 91 126 110 92 128 112 93 130 114 95 133 116 97 136 117 101 138 117 104 139 119 107 142 124 111 144 127 114 147 130 117 150 133 119 153 136 120 157 138 121 162 140 123 166 141 124 170 144 124 173 145 124 175 147 127 177 149 87 81 95 87 80 97 85 80 98 84 80 99 84 80 100 84 81 100 84 82 100 84 83 99 85 84 98 86 84 98 88 85 98 89 86 97 91 85 97 92 86 97 93 88 97 92 89 96 91 90 96 90 92 96 90 95 97 90 95 98 91 96 97 91 96 96 91 99 95 92 101 96 90 104 97 88 109 98 85 113 99 85 116 101 85 117 103 86 120 105 89 122 108 90 124 108 91 127 110 93 130 112 96 133 114 98 136 115 101 138 116 104 140 120 106 142 124 110 145 128 114 148 130 118 150 133 120 154 135 122 160 137 123 164 139 125 168 140 126 171 142 126 174 145 127 175 147 129 178 150 86 83 93 85 83 95 84 82 96 84 81 97 83 80 98 83 81 99 83 82 98 83 84 97 85 85 96 87 86 96 89 88 95 90 88 94 92 87 94 93 88 93 92 90 93 92 91 94 91 91 94 91 92 95 91 94 96 91 95 97 91 95 98 91 97 97 92 99 96 91 101 96 90 104 96 87 107 97 85 111 99 84 115 101 84 117 103 86 119 106 88 122 107 90 125 108 92 127 109 94 130 111 96 133 112 99 136 115 102 138 117 105 140 120 108 142 124 111 145 129 115 148 131 118 152 133 121 156 134 123 161 135 125 166 137 126 170 139 126 172 141 127 173 144 129 176 147 129 179 149 86 84 91 86 85 93 84 84 93 82 82 94 81 82 95 82 82 95 83 83 95 83 84 93 85 86 92 87 87 92 88 89 92 90 89 91 92 90 90 91 91 90 91 92 90 90 92 90 90 93 91 90 94 92 91 95 94 92 96 96 92 96 98 93 98 97 92 100 97 91 103 96 89 105 96 88 108 97 86 111 98 84 114 101 84 118 103 85 120 105 88 123 106 90 125 108 92 127 109 94 130 110 97 133 111 100 137 114 104 138 117 107 141 121 110 143 125 112 146 129 116 150 131 118 153 133 121 157 133 123 162 135 125 167 136 126 170 139 126 173 142 127 174 145 128 176 146 129 180 147 85 85 90 86 85 91 85 84 90 83 84 90 82 84 90 81 83 91 81 84 91 82 85 90 84 87 90 87 88 89 87 90 89 88 90 87 90 91 87 91 93 88 90 94 88 89 94 88 90 95 89 90 96 91 91 97 93 92 97 94 93 97 96 93 100 97 92 102 96 91 105 95 89 108 95 88 109 97 86 111 98 86 114 101 86 117 103 86 121 104 88 124 106 89 125 108 91 126 109 94 130 111 97 133 112 100 136 114 103 137 118 106 141 121 109 143 125 113 147 128 116 150 130 121 155 132 123 158 133 124 162 134 126 166 136 127 170 138 126 173 141 127 177 144 127 179 145 129 181 147 85 86 87 86 86 87 84 85 86 83 86 87 82 85 88 81 84 88 81 84 88 81 87 86 83 87 86 85 89 85 86 91 85 87 92 84 88 92 85 89 94 85 90 96 85 89 95 86 90 97 88 90 98 91 91 98 93 93 99 93 93 99 95 93 102 95 93 104 94 93 107 95 91 110 94 90 112 96 88 113 98 88 115 101 88 118 103 88 122 105 88 123 107 89 126 109 92 128 110 94 131 110 97 134 112 99 136 115 103 137 118 106 141 121 109 144 125 112 147 126 116 152 128 120 156 130 123 160 132 124 164 134 124 166 136 125 171 138 127 175 140 128 178 143 128 180 147 128 182 148 85 87 84 84 88 84 83 87 84 82 87 83 82 87 84 81 87 86 80 87 84 81 88 83 82 89 83 84 89 81 86 92 82 85 93 82 85 93 82 86 95 82 86 96 82 87 98 84 88 99 86 88 100 88 90 101 90 91 100 92 93 101 94 94 104 94 94 106 94 94 109 95 93 113 95 92 114 96 91 117 98 90 119 101 90 120 102 90 122 104 91 124 107 92 127 110 94 129 111 96 131 112 98 134 114 100 136 115 102 138 118 106 141 122 109 144 124 113 148 126 117 154 127 120 157 129 122 161 131 122 164 134 122 168 136 124 172 138 125 176 140 126 179 143 127 181 146 128 183 148 84 89 80 83 88 80 81 89 79 81 89 81 81 88 81 80 88 82 80 89 82 81 90 81 81 92 82 83 92 80 84 93 80 83 94 80 84 95 80 84 97 80 85 98 81 85 99 82 87 101 83 87 102 85 88 102 86 89 101 89 92 102 92 93 106 93 93 108 93 93 112 93 95 114 94 94 117 96 93 120 98 91 122 100 91 123 101 91 125 104 92 127 106 92 129 109 94 130 111 98 133 112 100 136 113 101 138 115 103 140 118 107 142 122 110 145 125 113 149 126 117 155 127 120 158 129 122 161 131 121 165 134 121 169 135 122 173 137 124 177 139 126 179 142 127 182 145 127 184 147 84 90 76 82 90 76 81 90 78 82 90 78 81 91 79 80 92 78 80 92 80 80 92 81 80 94 80 81 94 80 82 96 79 81 97 79 82 98 79 83 99 79 84 100 79 83 102 80 84 104 81 84 104 82 85 104 83 88 104 86 90 105 90 92 107 92 93 110 92 94 114 92 95 117 94 95 120 95 94 123 96 93 126 98 92 128 99 92 129 102 92 129 106 94 130 109 95 131 111 99 135 112 101 138 112 102 139 114 105 141 117 109 144 121 112 146 124 115 150 125 118 155 127 119 159 129 121 163 131 122 167 133 122 169 135 122 174 136 123 177 137 124 180 139 125 183 143 126 184 146 83 93 74 83 94 75 82 92 75 82 93 76 81 93 77 80 93 77 79 93 79 78 94 80 78 96 79 79 97 79 80 99 79 79 101 78 80 103 77 81 103 77 82 104 78 81 104 79 81 105 80 82 105 81 83 106 83 85 106 85 88 108 89 91 110 91 93 112 91 94 116 92 94 119 93 95 122 94 94 125 95 94 128 96 93 131 98 93 132 101 93 132 105 95 132 108 97 134 111 99 138 111 102 140 112 105 142 113 106 144 116 110 146 120 112 148 122 115 152 124 118 155 126 120 159 128 121 163 130 122 166 131 122 169 133 122 172 133 122 177 135 123 181 138 124 183 141 125 184 144 84 95 72 83 95 73 83 94 73 81 94 73 81 95 75 80 95 76 78 95 77 77 95 77 77 97 77 76 100 76 77 102 77 78 104 77 79 105 77 79 106 76 80 106 77 81 107 78 80 107 80 80 107 82 82 107 83 85 108 85 87 110 88 89 112 89 91 115 90 93 118 92 93 120 93 93 124 94 93 128 95 93 131 96 94 134 97 94 134 99 95 134 103 97 134 108 98 137 110 99 140 111 103 142 111 106 144 113 108 146 116 111 149 118 112 152 120 115 154 123 117 157 125 117 160 128 121 163 129 122 166 130 122 169 131 122 172 131 123 177 134 124 181 137 124 183 140 124 185 143 82 95 71 82 95 71 81 95 71 81 95 72 80 95 73 80 95 74 79 96 75 77 97 76 76 98 77 76 101 77 76 103 76 77 105 75 78 108 76 78 108 76 78 109 76 78 110 77 78 109 79 79 109 81 81 108 85 84 109 87 87 112 88 88 115 89 89 118 91 90 120 93 91 122 93 91 127 94 92 131 95 94 135 96 94 136 96 95 137 99 96 137 102 98 138 106 99 140 108 101 143 110 104 145 112 106 148 113 108 151 115 110 153 118 112 156 120 115 158 122 117 159 125 118 161 126 120 163 128 122 167 128 122 170 129 122 173 130 124 177 132 124 180 135 124 183 139 125 186 141 81 95 70 81 97 69 81 96 70 79 95 72 78 96 72 78 97 74 78 98 75 77 97 76 76 99 77 76 103 77 75 104 75 75 106 74 75 108 74 76 110 75 76 112 75 76 111 76 76 111 79 79 110 81 81 110 85 84 111 89 85 113 90 86 116 90 87 120 92 88 124 94 88 126 95 89 130 95 90 133 95 92 136 96 94 138 96 95 140 98 97 141 101 98 142 104 100 144 107 102 146 108 105 149 112 106 152 114 108 155 115 110 156 117 112 159 119 115 160 121 117 161 123 119 163 125 121 165 126 122 167 126 123 170 127 123 173 129 123 176 130 123 180 133 124 183 136 125 185 139 79 96 68 79 96 68 80 96 68 78 97 69 78 97 71 78 98 72 76 100 75 76 100 75 75 101 75 75 104 76 75 105 74 74 108 73 73 110 73 74 112 73 74 113 74 74 113 77 75 113 79 79 112 82 82 112 87 84 112 90 84 115 92 84 118 92 84 122 92 85 125 94 86 129 94 87 133 94 89 135 95 90 137 96 92 140 97 95 141 99 98 144 101 99 146 103 101 147 105 104 150 107 105 152 111 106 154 113 108 157 114 109 159 117 112 161 118 114 164 118 118 165 120 119 166 122 121 167 123 123 168 125 123 170 125 124 174 127 123 177 129 123 180 131 124 182 133 125 184 135 