P3
50 50
255
134 156 188 133 154 187 132 152 184 132 151 182 132 150 179 132 151 175 131 150 173 130 150 171 128 150 171 128 149 169 128 149 166 127 147 163 127 146 161 128 143 158 129 141 155 130 140 152 131 139 150 131 138 148 133 137 144 134 136 140 136 137 137 138 137 135 140 137 134 141 138 131 141 138 128 142 137 126 144 136 123 145 135 121 146 135 121 147 135 121 149 135 119 149 136 118 149 136 118 149 138 118 148 139 117 147 142 117 146 143 117 146 146 115 144 147 113 145 147 111 146 145 110 146 145 109 145 143 108 146 142 106 146 143 107 146 143 105 146 144 104 146 144 103 146 146 102 146 146 101 133 156 188 131 154 186 131 153 184 132 152 181 131 150 179 131 151 176 130 150 173 129 149 171 128 148 169 128 149 166 129 148 165 129 147 163 129 147 160 130 145 157 130 143 154 132 141 152 132 140 150 133 140 146 134 139 143 136 138 140 137 137 137 138 136 134 140 138 131 141 138 129 142 139 126 143 137 123 144 136 120 146 136 118 147 136 118 149 136 118 150 135 117 150 136 117 150 138 117 148 139 117 148 139 115 146 141 114 145 144 113 146 146 112 145 147 110 144 148 109 145 146 109 145 145 107 146 144 107 146 143 106 147 143 104 146 142 103 146 143 102 146 143 102 146 143 102 146 144 101 132 156 188 131 156 186 131 154 183 132 154 182 132 152 179 132 151 176 130 150 173 129 149 170 127 148 167 127 148 165 129 148 163 129 148 162 129 147 160 130 146 157 131 144 155 133 142 152 133 142 149 134 140 144 136 139 141 138 139 139 137 138 135 138 138 132 139 140 128 141 140 126 142 140 124 144 138 120 146 137 117 147 138 115 148 136 116 149 136 116 150 135 115 150 137 115 148 139 114 147 141 115 147 141 114 146 142 113 146 144 110 146 146 108 146 148 107 145 148 106 144 147 106 145 146 105 146 145 104 146 143 103 147 143 101 147 141 101 146 141 99 145 142 100 145 142 99 145 142 99 132 156 188 131 156 186 130 155 184 131 154 181 132 154 179 131 152 175 131 150 172 130 150 169 128 149 167 129 147 164 129 147 162 130 147 161 129 146 159 129 145 156 131 145 154 132 143 151 134 142 146 135 140 143 137 140 139 138 140 136 138 139 133 138 139 129 140 140 126 141 140 124 142 139 121 144 139 118 147 138 116 148 137 115 149 136 114 150 136 114 150 137 114 149 138 114 149 139 113 148 141 113 148 142 112 147 143 111 146 145 107 147 146 105 147 147 104 145 148 104 145 147 103 145 147 103 144 146 101 144 145 100 145 144 99 145 142 99 146 140 98 146 141 97 146 141 98 145 141 97 131 157 185 131 157 185 131 156 183 131 154 180 131 153 178 131 152 175 131 151 172 130 150 169 129 149 167 129 147 165 129 146 161 130 146 160 130 146 158 130 144 155 131 145 153 133 144 149 135 142 145 137 141 141 138 141 138 138 140 134 139 139 130 140 140 128 141 140 125 142 141 122 144 141 119 145 140 116 147 138 115 149 136 113 150 136 112 150 137 110 150 137 111 150 137 111 150 139 110 149 140 111 148 141 110 148 142 107 147 144 104 147 146 102 146 146 101 146 147 101 145 147 100 143 147 99 143 146 98 143 146 97 144 145 97 145 142 97 146 141 95 147 141 94 146 140 95 145 141 94 131 157 182 130 158 182 131 157 182 131 155 180 130 154 178 130 153 175 131 152 172 130 151 170 130 150 167 128 148 163 129 147 161 130 147 159 130 147 157 130 146 154 132 145 152 135 145 148 136 144 145 136 143 141 137 142 135 138 142 132 140 143 128 140 143 125 142 143 122 143 143 120 144 142 118 145 141 116 147 140 114 148 138 110 149 137 109 149 137 109 149 137 109 151 137 109 151 138 108 150 139 108 149 140 107 148 142 104 147 143 101 146 145 100 146 146 98 145 146 97 144 147 98 142 147 97 141 146 97 142 145 96 143 144 96 143 142 95 145 141 93 146 141 93 146 141 92 145 140 91 131 159 182 130 159 181 131 158 181 132 156 180 131 156 179 131 154 177 131 154 175 130 153 171 129 151 167 129 150 162 129 148 160 129 147 159 129 146 157 131 145 153 133 145 151 135 146 147 136 145 144 135 144 140 136 143 135 138 143 130 139 145 126 140 146 122 142 145 121 144 144 118 146 143 117 145 142 115 146 140 112 147 139 108 147 138 108 147 138 107 148 138 107 149 138 106 150 138 105 150 138 104 149 140 103 147 141 102 146 143 100 145 144 99 145 144 96 144 144 95 142 145 95 142 146 95 141 146 94 141 146 94 142 144 94 141 144 93 143 142 92 145 142 92 146 141 91 146 141 90 130 159 182 130 159 181 131 159 181 132 157 181 131 157 179 133 156 177 132 156 175 131 154 172 130 152 167 130 152 162 131 150 159 130 148 156 130 147 155 131 145 152 134 144 150 135 144 147 136 145 142 136 144 138 136 145 133 138 144 128 138 146 124 140 146 120 142 146 118 145 145 116 145 145 114 145 144 113 145 142 110 145 140 107 145 140 105 146 139 105 147 139 104 148 140 103 148 139 101 150 138 100 149 139 99 147 140 98 146 142 97 145 142 97 143 143 96 143 143 94 142 144 93 142 145 92 140 145 93 139 145 93 140 144 93 140 144 92 142 142 91 144 141 91 144 141 90 145 142 87 131 161 181 132 159 181 132 160 181 133 160 180 133 159 178 134 159 176 134 157 173 133 156 171 133 155 166 132 152 161 132 152 158 132 151 154 132 149 153 132 147 149 134 146 147 136 145 143 136 146 139 135 147 135 136 147 130 138 147 125 138 147 123 140 147 119 142 148 116 144 148 114 145 146 112 144 145 110 143 143 108 143 141 106 143 140 104 144 141 102 145 141 101 146 142 101 147 139 99 148 139 97 148 139 95 147 140 95 145 141 95 145 141 95 144 141 95 142 141 93 143 143 92 142 144 92 139 145 91 138 144 92 138 145 91 139 144 91 140 142 91 142 140 89 141 141 88 143 142 86 132 162 181 133 161 180 133 160 179 134 160 177 135 160 177 136 159 174 136 157 172 135 158 170 134 156 165 134 154 161 133 154 158 133 152 154 132 150 151 134 148 148 136 147 145 137 147 141 136 148 137 136 149 133 137 150 128 137 149 124 138 149 120 140 149 117 142 148 114 144 148 112 144 147 110 142 146 108 141 145 107 141 143 104 142 143 102 143 143 99 144 143 98 144 142 97 146 141 96 147 141 94 146 141 93 145 142 92 145 142 92 145 141 93 144 140 94 142 141 93 142 143 93 140 145 91 139 144 91 137 144 90 136 144 90 136 142 90 139 139 89 140 138 87 139 139 87 141 139 85 131 162 179 132 162 179 133 162 176 135 162 175 136 160 174 137 160 172 137 158 170 136 159 168 135 157 165 134 157 162 134 155 159 134 154 153 134 151 150 136 150 147 137 150 144 136 150 139 137 152 134 138 151 130 138 152 125 138 151 122 138 150 119 140 150 116 142 150 113 143 150 110 143 149 109 141 147 108 141 146 106 141 145 103 143 144 99 142 144 97 143 143 96 143 143 94 144 144 93 145 143 93 144 143 92 144 143 92 145 143 91 145 142 91 144 141 91 142 141 91 140 142 90 138 142 90 137 142 89 135 142 88 133 141 88 134 140 88 137 138 86 138 136 85 139 136 84 139 137 84 132 163 177 133 163 176 135 163 175 137 163 173 137 162 172 138 162 170 139 160 168 138 159 166 136 159 165 135 157 163 134 154 159 134 153 154 136 153 149 138 153 146 138 152 142 138 153 137 140 155 133 140 155 128 140 156 122 140 154 119 139 152 116 140 151 114 141 151 112 141 151 110 141 151 108 140 150 107 140 148 104 141 147 101 142 146 97 142 145 95 141 144 93 142 144 92 143 145 92 143 144 92 143 144 91 143 145 91 143 143 89 144 142 88 143 141 89 141 141 89 139 140 87 137 139 88 135 139 86 134 138 85 133 138 85 133 138 85 134 137 84 137 135 84 138 135 82 138 135 81 133 163 175 135 163 174 136 164 172 138 164 171 138 163 170 139 161 169 140 160 165 138 160 164 137 160 163 136 158 161 135 156 158 136 155 154 137 156 149 140 155 144 141 155 139 141 156 134 142 157 129 141 158 125 141 158 119 141 157 116 140 155 112 140 153 110 139 153 109 139 154 108 140 154 106 139 152 104 139 150 102 140 148 98 141 148 94 142 147 92 141 146 91 141 145 90 142 146 89 140 146 89 140 147 89 141 146 88 142 144 87 142 142 85 141 140 86 140 139 86 138 137 86 136 137 85 134 136 83 132 135 82 132 135 82 133 136 83 134 135 83 136 135 82 137 135 81 138 135 79 133 162 174 135 164 172 137 165 170 139 164 169 139 163 168 140 162 166 139 162 164 138 161 162 139 160 160 138 158 158 137 159 156 138 158 152 140 158 147 142 157 143 142 157 137 143 158 131 143 158 126 142 159 122 142 160 117 141 160 114 141 158 109 139 156 108 138 156 108 139 156 105 140 155 103 139 152 101 140 151 99 140 150 96 141 149 92 142 149 90 140 147 90 140 146 89 141 148 87 139 148 87 139 148 87 140 148 86 140 146 84 140 143 82 140 140 83 139 139 83 136 138 84 135 137 83 134 135 81 132 134 79 131 135 78 132 134 80 134 135 81 135 135 80 138 136 80 140 135 79 135 162 172 137 164 170 139 165 168 140 165 167 141 164 165 142 164 165 140 164 162 139 163 160 139 161 158 139 160 155 139 160 153 140 161 149 143 160 145 144 159 140 143 161 135 144 162 129 144 161 123 143 161 118 143 162 114 142 161 110 140 160 107 138 160 105 138 160 105 139 159 103 139 157 101 140 154 99 140 152 96 140 152 95 141 152 92 141 152 90 139 151 88 138 149 87 139 150 85 139 150 83 139 149 83 139 149 81 138 147 81 138 144 80 138 140 79 138 139 81 137 138 82 134 138 81 133 136 78 132 134 77 131 134 77 131 134 77 133 134 78 136 134 78 139 134 78 141 133 78 137 163 171 139 165 170 141 166 167 142 167 166 142 166 164 142 166 163 141 166 161 140 164 158 140 163 157 141 162 153 142 162 150 143 161 146 144 161 141 144 162 137 145 163 133 146 163 126 145 162 120 145 162 115 143 162 110 141 161 107 140 161 105 139 162 103 138 161 102 139 160 100 140 159 100 141 156 98 141 154 95 141 154 94 141 155 91 140 155 88 138 154 87 138 153 86 138 152 84 138 151 81 139 151 79 138 150 79 137 148 78 137 145 78 137 143 78 137 141 80 136 140 80 135 139 78 133 136 77 132 134 75 131 134 75 133 133 75 134 133 76 138 133 75 140 132 75 140 132 77 139 162 170 141 165 168 142 168 167 143 168 165 143 167 163 142 167 160 142 168 158 141 167 156 142 165 154 143 164 150 144 163 146 144 162 143 146 162 139 145 163 135 145 163 130 145 162 124 145 162 119 145 163 114 143 163 109 141 163 105 140 162 102 140 162 101 138 162 99 139 160 98 140 158 98 140 157 96 140 156 94 140 156 92 140 157 90 138 158 87 138 157 85 137 155 84 138 154 81 139 154 79 139 153 77 137 151 76 137 148 76 137 146 76 137 144 76 136 142 78 135 141 77 135 138 77 134 136 75 133 134 74 134 134 74 134 133 73 136 132 73 139 130 73 140 130 73 139 130 76 141 163 168 141 165 167 143 167 166 143 167 164 144 168 162 143 169 159 142 169 156 142 168 154 143 166 150 145 166 146 145 165 142 146 163 140 146 162 136 145 163 131 144 162 126 144 163 121 143 162 117 144 162 111 144 162 107 142 162 103 140 162 102 140 162 100 139 162 98 139 159 96 139 158 95 139 158 93 139 157 91 139 156 90 140 158 88 139 159 86 137 159 83 137 157 83 137 156 79 137 156 77 138 154 75 138 151 74 138 148 75 137 147 75 136 145 75 134 143 76 133 141 76 133 139 77 134 136 76 134 135 74 134 133 73 136 132 72 137 130 71 138 129 71 139 130 74 139 130 75 141 163 167 143 165 165 143 167 163 143 166 162 144 168 160 143 169 158 142 168 155 143 168 151 144 168 147 145 168 143 145 166 139 145 164 136 146 163 132 146 162 128 145 162 123 144 162 118 144 162 114 143 162 109 142 162 105 142 161 102 141 162 100 140 163 99 140 161 96 139 161 95 138 160 93 139 159 91 139 159 89 138 159 87 139 159 86 138 159 84 136 159 82 135 159 80 135 158 78 135 156 75 135 155 74 136 152 73 136 150 73 136 148 74 134 146 74 133 144 75 132 142 76 132 139 76 133 137 75 134 136 74 134 134 72 135 132 71 136 131 71 137 130 71 139 130 74 138 131 75 141 164 166 143 165 163 144 166 161 145 166 160 144 167 158 144 169 156 143 169 152 142 169 149 144 169 145 145 169 141 145 167 138 144 165 134 144 164 129 146 162 125 146 162 120 145 162 115 144 161 111 143 161 106 143 160 103 141 160 101 141 161 99 140 161 97 138 162 96 137 161 94 137 161 91 138 161 89 138 162 87 137 162 85 137 161 83 135 161 82 134 160 78 134 160 76 133 159 76 132 157 74 132 156 73 133 153 72 133 151 72 135 149 73 135 148 74 134 144 76 132 141 75 132 140 75 132 138 73 133 137 72 133 135 70 134 134 70 135 132 71 136 132 72 137 131 73 137 131 74 142 165 164 143 165 162 144 165 160 144 166 158 144 168 156 144 168 153 143 169 150 143 169 147 145 170 142 144 170 139 143 169 136 144 167 133 145 165 129 146 163 124 146 162 118 146 161 113 146 160 109 145 161 104 144 160 101 143 160 100 142 162 98 140 163 96 138 162 95 137 162 93 136 162 91 137 162 88 137 162 85 135 162 83 135 161 81 133 162 80 133 161 77 133 160 75 133 158 74 132 157 72 132 156 71 131 154 70 132 152 70 133 149 72 134 148 73 135 144 74 134 142 73 132 141 73 132 139 72 132 137 70 132 135 69 133 134 69 135 132 70 136 131 72 136 131 73 137 132 74 142 166 163 143 165 161 144 165 158 145 165 157 144 166 155 144 168 152 143 168 149 143 169 145 144 169 141 143 170 137 144 170 134 144 168 131 145 167 128 145 165 124 146 162 117 148 161 113 148 160 108 147 159 104 146 160 100 144 161 98 142 162 96 140 162 94 140 161 94 138 162 92 136 162 90 136 163 87 135 162 84 134 162 82 132 162 81 132 162 79 133 160 75 132 159 74 131 158 72 130 158 71 130 156 70 130 153 69 131 150 69 132 149 71 134 147 73 134 144 73 134 142 72 132 141 72 132 139 72 131 138 70 133 137 69 133 135 70 134 132 71 135 131 73 136 132 74 136 133 74 141 165 161 143 165 158 144 164 156 145 164 155 144 166 153 144 166 151 143 168 147 144 170 143 144 170 138 144 170 136 144 170 133 145 168 130 145 167 128 145 167 123 146 164 117 148 163 112 148 161 109 148 161 105 148 160 101 145 161 97 144 162 95 143 163 94 142 162 93 140 162 92 137 162 89 136 163 85 134 162 83 133 162 82 132 161 80 132 162 79 132 161 76 131 159 74 130 159 72 129 159 71 129 156 69 129 154 68 129 151 69 130 147 70 131 146 71 132 144 72 132 142 72 133 140 71 132 139 71 132 139 69 133 137 69 134 136 69 134 133 70 134 131 72 135 132 74 134 133 74 140 164 159 141 164 156 143 164 154 145 165 152 144 166 151 144 167 149 144 168 145 145 169 140 145 169 135 145 169 133 145 168 131 145 167 129 145 168 126 146 167 121 146 166 118 146 165 113 148 164 109 148 162 106 147 161 102 146 162 98 145 162 94 145 162 93 142 162 92 139 161 91 138 162 88 137 162 85 135 162 82 134 161 81 133 161 80 131 161 79 131 160 77 131 159 74 129 158 72 127 158 71 127 157 69 127 154 69 128 151 69 128 148 69 129 146 70 129 144 70 130 143 70 131 140 70 131 139 70 131 138 69 132 136 70 132 136 70 133 134 70 133 133 71 132 132 72 132 132 73 140 163 157 140 165 154 142 165 152 144 165 149 144 165 148 144 166 145 145 167 142 146 168 137 145 169 133 145 170 131 146 168 128 145 168 127 145 168 124 146 168 120 145 168 116 146 167 112 146 165 108 146 163 105 146 163 101 146 163 98 145 162 94 145 162 91 142 161 91 140 161 89 139 161 86 137 162 82 136 161 80 136 160 80 134 161 79 132 160 79 131 159 77 129 159 75 128 158 73 127 157 70 125 156 69 125 153 68 126 151 68 126 149 68 127 146 68 127 144 67 128 142 68 130 141 68 130 139 69 129 137 70 129 136 71 130 135 70 130 134 69 129 134 69 129 132 70 131 132 71 139 162 155 139 164 152 141 165 150 143 165 147 144 165 145 145 166 142 145 169 138 146 170 134 145 171 131 146 171 128 146 169 126 146 169 124 146 169 122 146 170 119 145 169 115 144 168 111 145 167 107 145 166 103 144 165 100 144 163 97 143 163 94 144 161 91 142 160 89 140 160 86 139 160 83 136 160 80 135 160 79 135 159 79 134 159 78 131 157 78 129 157 77 128 156 76 127 156 73 126 155 70 125 154 68 124 152 68 125 150 68 125 148 68 126 146 67 126 143 67 127 142 68 128 141 68 128 140 69 127 138 71 127 135 71 126 134 69 128 133 68 128 134 67 129 133 69 130 132 70 140 164 152 140 165 150 141 165 147 142 166 145 144 167 142 145 168 138 145 170 135 145 171 132 146 172 129 147 171 126 146 170 124 147 170 122 148 170 119 147 171 116 146 170 113 144 170 108 144 169 105 144 168 101 144 166 99 143 163 96 143 163 93 142 162 90 142 160 87 138 159 84 136 159 81 134 159 80 134 158 78 134 158 77 133 157 77 131 155 76 128 156 77 127 155 76 126 154 73 125 153 70 125 153 68 124 151 68 125 149 69 125 147 69 125 145 68 126 142 66 126 141 67 127 139 69 127 138 70 126 137 71 126 135 70 125 133 69 126 133 68 128 133 68 129 133 68 130 133 69 140 166 151 140 167 148 141 167 144 142 168 142 144 169 139 145 170 136 145 170 133 145 171 129 145 172 126 146 172 124 146 170 121 148 171 119 149 171 118 148 171 115 147 171 113 145 170 108 143 169 103 142 167 100 142 165 97 141 164 94 142 162 90 142 160 89 141 158 85 138 158 83 134 158 81 133 157 80 132 157 78 132 157 77 131 156 77 129 154 77 128 155 77 126 154 76 125 152 73 124 152 72 124 151 70 123 150 70 124 148 70 124 147 70 125 145 69 125 142 68 126 140 68 127 139 70 126 138 71 125 138 72 125 136 71 123 134 70 123 135 69 126 134 69 128 133 68 129 134 68 139 167 147 139 169 144 140 169 142 142 170 139 143 171 137 145 172 133 146 172 130 147 172 126 147 172 123 148 172 122 148 172 120 148 171 117 148 170 115 147 170 113 146 170 111 144 169 107 142 168 102 140 166 99 140 164 95 140 164 93 142 162 90 142 157 88 141 156 85 138 156 83 135 155 81 133 155 80 131 155 78 131 155 77 129 153 76 128 152 77 126 153 77 126 152 76 126 151 74 124 151 72 123 151 72 123 150 73 124 148 72 125 146 71 124 144 71 124 141 69 124 140 68 126 139 69 125 139 70 124 139 70 123 137 70 122 134 70 122 135 70 125 135 69 126 134 68 127 135 68 139 168 144 139 170 142 140 171 141 141 172 137 143 172 134 144 173 131 146 174 128 147 173 124 149 172 122 149 172 121 149 172 119 149 171 116 148 170 114 146 169 112 144 169 110 142 168 106 141 168 102 140 166 98 139 165 95 140 163 93 141 160 91 142 156 89 141 154 85 138 153 84 136 154 82 134 154 80 132 154 78 131 154 77 130 152 76 128 152 78 126 152 78 126 151 77 126 151 75 125 150 73 124 150 73 123 149 72 123 148 72 123 146 71 122 144 71 123 140 69 123 140 69 124 140 70 123 140 69 122 139 69 122 137 69 122 135 70 123 135 69 124 134 67 126 135 67 126 135 68 139 169 142 139 171 139 142 173 137 142 172 135 142 172 132 143 173 129 145 175 126 147 174 123 148 172 120 149 171 118 149 171 116 149 169 115 147 169 113 145 169 110 143 168 107 141 168 104 139 167 101 139 165 98 139 163 95 140 161 93 141 158 91 141 155 89 140 153 86 137 153 84 137 153 82 136 153 81 134 153 80 131 152 78 130 151 77 128 151 78 127 150 78 128 150 76 127 150 75 125 148 74 123 148 74 122 148 72 122 147 71 121 144 70 120 142 70 122 141 70 122 140 69 121 140 69 120 140 68 121 139 68 121 138 69 122 137 69 122 136 67 123 136 65 124 135 66 125 133 67 140 170 140 141 172 136 142 173 134 143 172 133 142 173 131 143 173 128 145 174 124 146 174 121 147 173 120 148 171 117 148 171 115 148 169 113 146 167 112 144 167 108 141 167 105 140 167 103 139 164 100 140 164 97 140 163 94 140 160 92 141 157 92 140 155 90 139 153 87 138 153 85 138 153 83 136 153 83 135 153 80 132 152 78 129 150 77 128 149 78 127 149 78 128 149 76 128 150 74 126 148 74 124 147 73 122 148 72 120 146 71 120 144 71 120 142 70 120 139 70 121 138 70 120 139 68 119 141 68 120 140 68 120 139 68 121 138 67 122 139 65 122 137 64 123 135 65 124 133 66 141 170 137 141 171 133 143 171 131 144 173 131 143 174 129 142 173 126 144 173 123 146 173 120 147 172 118 149 170 117 149 170 115 148 169 112 147 168 111 144 167 108 141 166 105 141 164 103 141 163 100 141 162 97 141 162 94 141 160 92 141 158 91 139 155 90 139 153 87 138 154 86 138 153 84 136 152 83 134 152 82 134 151 79 131 151 79 129 149 78 129 149 77 129 149 76 129 149 73 128 148 73 125 147 72 123 146 71 121 145 71 119 143 71 119 142 70 119 140 68 120 140 67 119 140 67 118 141 68 117 142 68 118 140 67 119 139 67 121 139 65 122 138 65 122 136 65 123 134 65 143 169 134 143 169 132 143 170 129 144 171 128 144 172 125 144 171 123 144 171 121 145 172 118 147 170 116 149 170 115 149 170 113 149 169 111 147 169 110 144 168 107 142 165 104 142 164 104 143 163 101 142 162 98 141 161 95 142 160 93 141 158 91 140 156 90 139 154 87 138 154 85 137 153 83 135 152 82 134 150 81 134 151 79 132 151 79 131 150 78 131 150 77 129 149 75 129 149 74 127 148 73 125 146 72 124 145 71 122 144 69 120 142 70 120 141 69 119 140 67 119 140 66 118 140 66 117 141 67 116 141 68 117 140 67 119 140 66 120 139 66 121 138 66 122 135 66 122 133 65 145 167 134 145 168 131 145 169 129 144 170 125 144 171 123 144 170 120 145 171 118 146 172 117 147 171 114 148 171 113 149 170 110 149 170 109 148 171 108 145 169 106 143 167 104 142 165 103 143 163 101 141 161 99 142 160 97 142 160 93 142 159 92 141 156 90 140 155 88 138 154 85 136 152 82 135 152 81 134 151 80 133 152 80 132 151 80 130 151 79 130 151 77 129 150 75 128 149 74 127 147 73 125 146 73 125 143 71 122 142 70 121 141 69 120 140 68 119 140 67 119 139 67 119 139 66 116 139 67 115 140 69 116 140 67 118 140 67 120 139 67 121 138 66 123 135 65 123 133 66 146 165 132 146 167 129 146 168 126 144 169 123 143 169 121 144 170 119 146 171 116 147 171 114 148 171 112 149 172 109 149 172 108 149 171 107 148 171 106 147 170 105 145 169 103 144 166 102 144 163 100 143 160 98 143 159 95 143 159 92 142 158 91 141 157 90 139 156 87 138 154 85 137 153 83 135 153 81 134 153 79 132 153 79 131 152 79 130 152 78 129 152 77 128 151 75 127 150 75 128 147 73 126 145 73 124 143 71 122 142 71 120 143 70 119 141 68 119 140 68 118 139 67 118 137 67 116 137 68 115 138 69 115 139 68 117 139 67 119 139 67 121 138 66 123 136 65 124 134 65 147 165 130 146 166 127 146 168 125 145 168 122 144 170 120 145 170 118 146 170 115 148 171 113 150 171 110 149 172 108 150 171 107 149 171 106 148 170 105 147 169 103 146 169 102 145 168 100 145 164 98 143 161 97 142 159 95 141 158 92 141 157 91 141 156 88 139 155 86 137 154 84 136 153 82 136 154 81 134 154 79 132 153 79 131 152 79 131 153 79 130 153 76 127 152 74 127 151 74 128 148 73 126 145 72 123 144 71 122 145 70 120 145 69 118 142 69 118 141 68 118 139 67 117 137 67 115 136 68 114 137 69 115 138 68 116 138 66 118 138 66 120 137 66 123 137 66 124 135 66 148 167 129 147 168 126 147 168 123 146 170 121 146 171 118 147 172 115 148 171 113 150 171 110 152 171 107 151 171 106 150 171 106 149 170 104 148 169 102 147 168 102 145 169 101 144 168 99 144 165 97 143 162 96 142 160 94 141 158 92 140 157 89 139 156 86 138 155 84 136 154 83 136 153 81 136 154 80 134 153 79 133 153 79 131 152 79 130 152 78 130 153 76 128 153 74 127 152 73 127 149 73 125 147 72 122 147 71 121 147 70 118 146 69 117 143 68 116 142 67 115 138 66 114 136 67 114 137 69 114 137 68 114 137 67 115 137 65 117 138 66 121 138 67 122 137 67 124 136 67 148 168 125 149 169 123 148 169 121 147 171 118 149 172 114 151 173 112 152 172 109 153 171 107 153 171 104 153 171 104 152 170 104 151 169 103 148 169 102 147 168 100 146 168 100 145 167 97 144 164 95 143 162 93 142 159 91 142 157 89 140 157 88 139 157 85 138 157 83 137 155 82 136 154 81 137 154 80 135 153 80 133 154 81 132 153 80 130 152 78 129 153 76 127 153 75 126 152 74 126 150 73 124 149 72 122 148 72 121 147 72 119 145 71 118 144 70 116 142 68 113 139 67 113 138 67 113 138 68 112 136 67 111 135 66 113 136 67 116 136 67 120 137 68 122 138 69 124 137 68 150 170 122 150 169 120 149 168 117 150 171 114 151 173 111 152 174 108 153 173 105 153 172 105 154 172 104 154 171 104 154 171 103 151 170 101 148 170 100 148 169 98 147 168 96 145 166 94 143 163 92 141 162 92 141 159 90 141 157 89 140 158 86 139 158 85 139 157 84 139 155 82 137 155 81 137 154 80 135 154 81 133 155 82 132 153 80 130 152 79 128 153 77 126 152 75 126 151 75 126 151 74 124 150 73 123 149 73 120 149 73 119 147 72 117 145 71 115 143 70 114 139 69 113 138 69 113 138 68 111 137 67 110 135 67 111 136 68 114 136 69 118 138 70 122 138 70 124 137 69 151 169 120 151 170 116 151 169 114 152 171 112 153 173 109 154 174 107 154 174 104 154 173 104 155 174 104 155 173 103 154 173 103 152 172 102 150 171 99 149 170 96 147 169 94 145 167 92 143 164 91 140 162 90 140 159 89 139 158 89 138 157 86 139 157 84 139 157 84 139 157 82 138 156 81 136 155 82 134 155 81 132 155 82 131 154 81 130 152 80 128 152 79 126 153 78 125 153 77 125 152 77 123 151 75 122 150 75 120 149 74 119 147 73 117 145 72 115 142 70 114 140 69 114 139 69 113 138 68 111 138 68 110 137 68 111 136 69 114 136 70 117 138 71 121 139 70 124 139 70 152 170 118 152 170 114 153 170 112 154 170 111 154 173 108 154 174 106 154 174 104 155 175 103 155 176 103 155 175 102 153 174 102 152 172 100 149 171 97 148 171 94 146 170 91 144 169 90 143 167 90 141 163 89 139 160 89 137 158 88 136 157 85 137 157 83 139 157 83 139 156 83 137 156 82 135 155 83 133 156 82 130 156 83 129 155 83 128 154 82 126 153 81 125 154 80 124 154 80 123 153 78 120 152 76 118 151 74 118 149 74 118 148 73 117 144 72 115 142 71 113 141 69 114 140 69 112 140 68 111 139 68 110 138 69 110 137 70 114 136 71 117 138 71 119 140 71 122 140 70 153 172 116 153 172 113 153 171 111 154 171 110 154 173 107 154 174 106 154 175 103 154 176 101 154 175 102 153 176 101 152 174 100 150 173 98 148 172 95 146 170 93 145 169 91 143 169 89 142 168 88 140 165 88 138 163 87 136 160 86 135 158 84 136 157 82 136 157 82 137 156 83 136 156 83 134 154 83 132 155 83 129 155 84 128 155 84 127 156 82 125 155 81 123 154 81 122 154 79 122 152 79 119 151 77 117 152 75 116 150 74 116 148 72 116 145 71 116 144 70 114 141 70 114 141 70 113 140 69 111 138 70 109 138 69 110 138 70 113 139 69 116 140 70 120 141 70 122 141 70 156 173 114 155 173 112 154 172 110 155 172 108 154 173 105 153 174 103 153 174 100 153 175 99 152 175 99 151 175 98 149 174 96 147 174 94 146 172 92 145 170 91 144 169 90 141 169 88 140 168 87 138 166 86 137 163 84 134 161 83 133 159 83 134 158 81 135 157 81 135 156 83 133 156 83 132 155 84 130 155 84 128 155 85 127 155 83 126 156 82 124 156 81 121 155 80 120 154 79 119 152 79 117 151 78 117 151 77 116 149 75 117 148 73 116 145 71 115 144 70 113 142 71 113 141 72 113 141 70 112 140 71 110 139 71 110 141 69 112 143 70 115 143 69 119 144 69 123 144 69 158 173 111 156 172 109 155 172 108 154 173 106 152 174 103 152 174 100 152 175 98 152 176 97 151 176 96 150 176 95 148 175 93 147 174 91 147 172 89 146 170 88 144 170 87 142 169 86 139 168 84 137 167 82 135 165 82 133 162 81 132 161 81 133 159 80 134 157 81 134 156 81 133 155 83 131 156 84 129 156 84 128 156 83 126 157 81 125 158 80 122 157 79 120 156 79 117 154 79 117 153 79 116 152 78 117 151 77 117 150 75 117 148 73 117 145 71 115 144 72 113 142 73 112 141 72 112 142 72 112 141 72 111 140 71 111 142 70 114 145 70 116 145 69 120 146 69 123 145 68 159 173 108 156 173 107 154 172 106 153 174 103 152 174 101 151 174 97 151 176 96 150 177 95 150 177 93 150 176 92 148 176 90 148 175 88 147 174 86 146 172 86 144 171 85 141 170 83 138 170 82 136 169 81 134 166 81 133 164 80 133 163 80 134 162 80 135 159 80 135 157 81 133 156 82 131 157 83 128 157 83 126 158 81 124 158 80 122 159 79 120 158 79 118 157 79 117 155 78 117 154 78 118 153 78 118 153 77 119 151 75 118 148 73 117 146 72 115 145 72 113 143 73 112 142 72 112 140 72 113 140 72 114 141 72 114 143 71 115 146 69 117 147 68 121 146 67 124 146 68 159 174 106 157 173 105 155 173 102 152 173 100 151 174 98 151 175 97 150 177 95 149 178 93 150 178 91 150 177 89 150 178 87 149 177 86 148 175 84 147 173 83 144 171 82 140 171 81 137 170 80 135 170 80 134 168 80 134 166 78 134 165 80 135 164 80 136 160 80 134 158 82 132 158 82 130 158 82 127 158 82 126 158 80 124 158 79 122 159 79 120 157 79 119 156 79 118 156 78 118 155 77 118 155 77 118 153 76 118 152 75 117 151 74 116 149 74 115 146 73 113 144 72 113 143 73 113 142 73 114 142 72 115 142 72 116 144 71 115 147 69 117 148 68 120 147 67 124 146 67 160 173 105 158 173 103 156 173 100 154 173 98 151 174 98 150 175 96 149 176 93 149 178 91 149 178 89 150 178 87 150 179 85 149 178 84 149 176 82 148 174 80 145 173 78 141 172 78 138 171 78 136 171 78 135 170 79 134 168 79 133 167 79 134 166 80 134 163 80 134 161 82 131 159 81 129 159 81 127 158 81 126 158 79 124 156 78 122 158 79 121 157 79 120 156 79 119 155 78 118 156 77 118 156 77 119 154 77 119 154 76 118 153 76 115 152 75 114 148 73 113 146 73 113 146 73 114 146 74 113 145 72 115 146 71 116 146 71 118 148 69 120 149 67 122 147 67 126 146 66 160 173 105 159 173 103 157 172 100 155 173 98 152 174 97 150 175 94 148 175 92 148 177 89 149 178 87 149 178 85 150 179 83 150 178 82 150 177 80 147 175 78 145 173 77 142 173 76 139 173 76 137 172 77 136 171 78 135 170 79 134 167 79 134 166 79 134 164 79 133 161 79 131 160 77 129 159 77 128 158 78 126 156 78 123 156 78 122 156 78 122 156 77 121 155 78 120 155 78 119 156 77 119 157 78 119 156 79 119 155 79 118 155 77 116 154 76 114 151 74 113 150 74 114 148 73 114 147 74 114 148 73 115 149 72 116 149 71 119 149 70 122 148 69 124 146 67 126 146 66 160 173 107 159 173 104 157 173 101 156 174 97 154 174 95 151 176 93 148 176 91 147 176 89 148 178 85 148 178 84 149 179 81 149 179 80 149 178 78 147 177 77 144 174 75 141 174 74 140 174 75 138 173 76 137 170 77 136 169 78 136 169 78 134 168 78 133 166 77 132 163 76 131 160 76 129 159 76 127 158 76 126 157 77 124 156 77 124 155 77 124 156 78 122 155 77 122 155 77 121 157 77 121 157 77 120 157 80 118 156 80 117 156 79 117 155 78 116 154 77 114 152 75 115 150 75 114 150 75 114 149 73 115 150 72 117 150 71 119 149 70 122 148 69 124 146 68 127 147 66 