P3
50 50
255
195 135 127 193 133 123 192 130 122 190 129 121 188 127 120 186 125 121 184 123 122 181 122 123 179 120 123 178 119 122 177 118 121 177 116 122 175 113 121 173 112 120 171 109 120 172 107 120 173 104 120 174 103 119 175 101 119 175 101 117 174 100 116 172 99 115 170 98 114 168 100 115 167 100 116 168 100 117 169 99 116 168 97 116 166 95 115 165 94 114 164 91 114 164 88 116 162 85 117 160 82 120 159 80 122 156 76 126 155 75 129 152 74 131 150 73 132 149 72 133 146 71 134 145 72 135 143 71 137 141 70 139 137 70 140 134 68 140 133 66 143 131 63 145 129 61 146 125 60 148 197 136 128 195 134 125 193 132 124 191 131 123 189 129 122 187 128 122 184 126 123 181 123 124 180 121 124 179 120 123 177 118 121 176 115 123 175 113 122 172 111 122 170 109 122 171 107 122 172 106 122 173 103 121 174 102 119 173 102 118 172 101 117 171 100 116 169 100 115 167 100 115 166 100 116 166 101 116 168 99 117 169 97 116 167 96 115 166 95 115 164 94 115 163 91 116 160 88 117 158 85 119 157 82 122 155 79 125 152 77 128 150 76 130 148 74 132 146 73 134 145 72 135 144 72 137 141 72 139 139 71 139 137 70 139 134 68 141 132 65 143 129 63 144 126 60 146 123 58 148 197 136 130 197 136 127 195 135 126 192 133 124 189 131 123 186 130 123 183 128 124 180 126 125 179 123 124 178 120 123 176 118 123 176 115 125 175 113 125 172 110 124 171 109 123 171 107 123 172 106 122 172 105 121 173 103 119 173 103 119 171 103 118 169 103 117 168 102 116 166 101 115 165 101 115 165 100 116 166 99 116 167 98 115 166 97 116 164 96 116 163 95 116 162 92 116 158 90 117 156 88 120 155 85 122 154 82 124 151 80 128 149 77 131 147 75 134 145 74 135 143 73 136 143 71 138 141 71 140 138 71 140 135 69 141 132 67 141 130 64 142 127 61 145 124 58 146 123 57 148 197 139 131 197 138 129 194 138 127 192 136 125 189 133 125 186 131 124 183 129 125 181 127 125 178 124 125 177 120 125 176 118 125 176 115 125 175 113 126 173 111 125 171 109 125 170 108 124 171 106 123 171 106 122 171 106 120 171 105 120 170 105 118 168 105 117 166 105 117 165 104 116 163 102 115 162 100 115 163 99 114 164 99 115 164 99 116 163 98 115 162 96 116 160 94 116 157 92 118 155 90 121 153 88 124 152 84 126 150 82 128 149 79 131 147 77 134 145 75 136 143 73 138 142 71 138 141 69 140 137 68 140 134 68 142 131 66 143 128 63 144 126 60 146 124 59 147 122 56 147 197 140 133 196 139 131 194 138 129 191 137 127 188 135 127 185 132 127 183 130 127 181 127 127 179 123 127 177 120 128 177 118 127 177 116 126 175 115 126 172 112 126 170 110 125 170 109 125 171 108 124 171 108 123 171 109 122 170 109 122 169 109 121 167 108 119 165 107 118 164 105 117 163 103 115 161 103 115 161 101 115 160 99 115 161 100 115 161 100 115 160 98 115 158 95 116 156 92 119 155 91 121 153 88 124 151 86 127 149 83 128 148 81 131 147 77 134 146 75 136 143 72 137 140 70 138 139 68 138 137 67 139 133 66 141 130 65 142 128 62 144 126 61 145 124 58 145 123 56 146 197 141 134 196 139 133 195 139 131 191 138 130 188 137 131 185 134 130 183 130 129 182 127 129 180 123 130 179 120 129 179 119 128 177 117 128 176 116 127 173 113 126 173 111 125 171 111 124 170 111 124 170 111 122 171 111 122 171 111 123 169 111 123 166 109 121 164 108 119 163 106 117 162 103 115 161 104 115 161 103 115 160 102 115 160 102 114 160 100 114 159 98 115 158 95 116 156 93 119 155 91 120 153 88 123 150 85 127 148 82 128 147 80 131 146 77 134 144 75 136 142 73 136 140 70 137 138 67 139 137 66 139 134 66 141 130 65 141 127 62 143 126 60 144 123 57 145 122 56 146 197 141 135 196 140 134 195 140 132 191 138 132 188 137 133 186 135 133 185 131 132 183 126 132 182 122 131 182 119 130 180 119 130 179 118 128 177 116 128 174 114 127 173 113 126 172 112 125 171 112 123 170 112 122 170 112 122 169 113 123 168 112 124 166 109 123 164 109 120 164 107 117 163 105 115 162 105 115 161 104 115 159 103 114 160 102 114 160 101 115 159 98 116 158 96 117 156 92 118 154 90 120 152 88 124 150 85 126 148 83 128 145 80 131 144 79 132 143 77 135 141 74 136 139 71 137 137 68 139 135 65 139 132 66 140 129 64 142 126 62 143 125 60 144 123 57 144 121 55 145 197 142 135 197 141 134 194 140 134 191 139 132 189 136 133 187 133 134 185 131 132 184 126 131 184 122 131 184 119 131 182 119 131 180 118 129 179 117 128 176 116 127 174 115 126 173 114 125 172 112 124 170 112 123 170 113 122 169 114 124 167 113 125 166 110 123 163 109 120 164 106 118 164 107 117 163 106 116 162 106 117 160 104 116 160 103 115 159 102 116 158 100 118 157 97 118 155 93 119 153 90 122 151 88 125 149 86 126 147 84 127 144 81 128 142 79 130 141 76 132 139 74 135 137 72 136 135 70 137 132 67 137 130 65 139 127 64 141 125 63 142 123 60 143 121 57 144 119 56 144 198 144 136 197 143 136 195 141 135 192 138 134 191 135 133 189 132 134 187 129 132 186 126 130 186 122 130 186 120 130 184 119 129 182 118 129 180 117 128 178 116 126 176 115 125 174 114 124 172 112 124 170 113 124 170 113 123 170 114 124 169 114 124 167 111 123 164 109 121 164 107 119 164 108 118 164 107 118 163 107 118 162 106 118 160 103 116 158 102 117 157 100 118 155 97 119 153 94 121 151 90 122 149 88 124 147 86 125 145 84 127 143 82 127 141 80 128 139 77 129 137 75 131 135 73 133 132 70 135 130 68 137 128 66 139 126 64 140 124 63 141 122 61 143 121 59 144 117 57 144 198 144 138 197 143 137 196 141 136 193 139 134 192 136 133 191 133 132 190 129 130 190 125 129 189 122 128 189 121 128 187 120 127 185 119 127 182 117 127 179 116 125 176 114 125 174 113 124 173 113 124 171 113 124 170 115 124 171 115 124 170 113 123 168 111 122 166 109 122 165 108 121 165 108 120 164 108 120 163 107 120 162 105 119 161 104 119 159 102 120 156 101 120 153 98 120 152 95 121 150 91 122 148 88 124 145 87 126 144 85 127 142 83 126 141 82 127 137 79 128 135 76 129 132 73 131 129 71 134 127 69 136 125 67 138 124 65 138 122 64 140 121 62 143 120 59 144 117 57 143 197 145 139 196 145 139 194 143 137 194 139 135 193 137 132 193 135 131 192 131 129 192 127 128 192 124 127 191 122 127 189 122 127 187 120 126 183 118 126 179 116 124 176 115 124 174 113 123 173 112 123 172 112 123 172 114 124 170 115 124 169 113 123 168 111 122 167 109 123 166 109 122 165 108 122 163 107 122 163 107 121 162 106 122 161 104 121 159 102 121 155 101 120 153 99 121 152 95 122 150 92 122 146 89 124 144 88 126 142 86 127 141 84 125 140 82 126 137 79 127 135 76 128 130 74 129 127 71 132 126 69 134 124 67 136 122 66 137 120 65 139 119 62 141 118 59 143 116 58 143 196 146 139 196 145 139 195 143 137 194 139 135 194 137 133 195 136 131 195 133 129 194 130 128 194 127 126 193 124 125 191 122 124 189 121 124 185 117 123 180 117 123 177 116 123 174 114 123 174 113 123 173 113 123 172 114 123 171 114 124 170 113 123 169 112 123 168 110 123 167 109 123 165 107 123 164 106 124 163 105 122 162 105 123 162 104 123 159 102 122 156 100 122 154 98 122 151 95 123 149 92 123 146 89 124 143 88 125 141 87 125 140 84 125 138 82 126 136 79 127 133 77 128 129 74 129 127 71 131 125 69 133 122 68 134 119 67 136 118 65 137 118 62 140 117 60 143 115 60 142 196 147 140 196 145 138 195 142 137 197 139 136 197 138 134 198 136 130 197 134 130 196 131 128 195 128 125 195 126 125 193 123 124 191 120 123 187 117 122 183 116 122 179 116 123 176 115 124 175 113 124 174 114 124 172 114 125 171 114 126 170 113 126 170 112 125 170 110 125 168 108 126 166 107 126 166 106 126 164 104 125 163 105 125 162 103 124 160 100 124 156 98 124 154 97 126 151 94 125 148 92 124 145 89 124 143 89 124 141 87 124 139 84 125 137 82 125 134 79 127 131 77 128 128 74 128 125 72 130 122 70 131 118 69 133 118 67 134 116 65 136 117 63 138 115 61 140 113 60 141 197 146 139 197 145 138 198 143 137 199 140 136 200 139 133 200 137 131 198 136 131 197 133 129 195 129 127 196 126 125 196 123 124 194 120 123 190 119 122 186 117 122 182 118 123 178 117 125 176 115 126 175 116 127 173 116 126 172 115 127 171 114 128 170 113 128 171 112 128 169 110 128 168 108 127 167 106 127 165 104 127 164 103 127 162 102 126 159 99 126 156 96 126 152 95 127 149 94 128 146 92 127 144 89 126 143 88 124 142 85 125 139 83 125 137 82 125 134 79 126 130 76 126 126 74 127 122 71 129 119 70 130 117 68 131 115 66 133 115 65 135 114 64 136 114 62 138 112 61 139 197 147 139 198 145 137 198 143 136 200 140 136 201 139 133 202 138 131 200 136 132 198 133 131 197 130 128 196 127 127 196 124 125 195 122 123 193 120 123 188 119 123 184 120 125 181 118 126 179 117 128 177 117 129 175 117 128 172 116 129 171 115 130 171 113 130 170 112 129 169 110 129 169 109 128 168 107 127 167 104 129 164 101 128 160 100 127 157 97 127 153 96 127 150 94 127 148 94 127 145 92 127 143 89 126 143 86 126 141 84 125 138 83 125 136 80 125 133 78 125 129 75 126 125 73 126 120 71 127 117 70 129 114 67 131 113 66 131 112 65 133 112 64 135 112 61 137 112 62 139 196 146 137 197 146 137 198 144 136 200 142 136 202 140 134 203 139 133 201 136 133 199 134 132 198 130 130 197 128 126 197 126 124 195 124 125 193 122 125 191 121 124 187 122 126 184 120 128 182 118 129 179 117 129 176 117 129 174 117 130 172 116 131 171 114 131 169 112 129 168 110 130 168 108 129 167 107 129 165 104 129 161 101 129 158 98 127 155 97 127 150 94 126 148 94 126 146 93 126 144 90 126 143 88 126 142 85 126 139 83 125 137 81 125 134 80 125 132 77 126 127 73 125 123 72 125 118 71 125 114 69 127 111 67 129 110 65 131 110 64 132 110 62 133 110 61 135 110 62 137 195 147 136 196 145 136 198 144 136 200 143 136 202 141 135 203 140 135 202 137 134 200 135 132 199 132 130 198 129 127 197 127 126 195 125 126 194 123 126 191 124 127 189 124 128 187 122 128 184 120 128 180 119 129 177 118 129 173 117 130 172 116 132 170 116 132 168 114 130 166 111 130 166 109 129 166 107 130 163 104 130 159 101 129 156 99 128 154 97 127 150 95 126 147 94 126 145 92 126 144 89 126 141 87 126 138 85 125 136 82 125 134 81 125 132 79 125 129 77 126 124 73 125 121 72 124 117 70 124 113 69 125 110 67 128 108 66 128 107 64 129 107 62 131 107 63 133 108 63 136 194 147 136 195 146 136 196 144 136 198 143 136 201 141 136 201 140 136 200 137 135 200 135 133 199 132 130 198 130 129 197 128 129 195 126 129 193 124 128 191 125 128 189 125 128 187 124 127 185 122 128 181 120 129 177 119 130 173 118 130 171 118 132 169 116 132 167 113 132 165 111 131 165 108 131 163 107 131 161 104 131 157 102 130 154 99 129 152 97 127 149 95 125 146 94 124 143 92 125 142 90 126 140 88 126 137 85 125 135 83 126 132 81 126 130 78 126 127 76 127 123 73 126 120 72 125 115 71 125 112 69 126 109 68 127 107 67 128 106 66 128 106 65 130 105 65 132 105 65 136 193 147 136 195 145 136 196 144 136 197 141 136 198 140 136 200 139 136 199 137 135 198 135 135 199 133 133 197 131 132 197 129 131 196 127 131 194 126 130 192 126 129 190 125 127 188 123 128 185 123 127 181 121 128 176 120 130 173 119 131 171 118 131 169 115 132 167 113 131 165 111 131 164 110 131 162 108 132 159 105 132 155 102 131 153 100 129 150 98 128 147 96 126 145 94 124 143 93 125 140 92 126 137 90 125 135 86 126 132 83 127 131 80 126 129 78 127 126 74 127 122 73 127 117 72 126 113 71 127 110 70 127 109 69 129 106 68 129 104 67 129 104 66 130 102 65 132 102 66 134 192 144 137 194 143 136 194 141 137 195 141 137 197 140 136 198 139 136 197 136 136 197 134 136 197 133 135 197 132 134 197 130 133 195 129 132 193 127 131 192 126 129 190 124 127 188 124 127 186 123 126 181 123 128 177 121 129 174 120 129 172 117 131 170 114 131 168 113 131 166 113 131 163 111 131 160 109 131 157 107 131 154 103 131 152 100 129 149 99 129 146 97 128 144 95 126 140 94 125 138 93 126 134 89 127 132 86 126 130 84 126 128 80 126 126 77 127 124 74 128 120 72 129 115 73 128 112 72 128 108 70 129 107 70 129 104 69 129 103 68 129 102 67 130 101 65 132 99 66 134 192 143 138 193 142 137 194 141 137 194 140 138 195 139 137 195 137 137 196 135 137 196 134 137 196 134 137 197 133 135 196 131 135 195 130 134 193 128 132 192 126 130 190 125 128 188 124 128 186 123 128 181 121 128 177 120 128 174 118 129 173 116 130 170 114 130 168 113 131 166 112 131 163 110 131 160 108 131 156 106 131 152 104 131 151 101 130 148 100 129 145 98 128 140 96 126 137 94 125 134 93 126 132 90 128 129 86 128 127 84 127 125 81 127 125 77 127 123 74 128 119 72 129 114 73 130 111 73 129 107 71 129 105 70 129 104 69 128 102 68 129 101 68 130 99 67 133 97 66 134 190 142 139 191 141 138 192 138 137 193 138 137 193 137 137 194 135 137 194 135 138 195 135 138 195 133 137 195 132 137 195 131 136 194 130 135 193 129 133 191 126 131 190 124 129 188 123 129 184 123 128 180 121 128 177 119 128 175 118 129 172 117 129 170 115 130 167 112 131 165 111 131 164 109 131 159 109 131 155 106 130 151 103 130 149 102 130 146 100 129 144 99 126 139 97 124 136 95 124 132 93 126 130 91 127 128 88 128 126 86 128 124 82 128 122 78 127 122 75 127 119 73 129 115 73 129 112 73 127 107 72 128 105 71 129 104 70 128 102 68 129 101 69 131 99 69 132 96 69 134 188 140 140 189 139 138 190 138 137 191 136 137 192 135 137 192 134 137 192 134 136 192 134 137 193 134 137 194 133 137 194 132 137 193 131 136 192 130 134 191 126 132 189 125 131 188 124 129 184 122 129 182 119 128 179 117 128 174 116 128 171 115 129 170 114 129 168 111 129 165 109 129 163 109 130 159 108 130 154 106 129 151 103 128 149 101 128 146 99 127 143 99 125 138 97 124 134 94 124 131 92 125 128 90 127 126 90 128 124 87 128 121 84 127 120 80 127 119 77 128 117 74 127 114 73 127 111 74 126 107 73 126 105 72 127 103 70 127 102 70 128 101 71 131 98 72 132 94 72 134 187 138 138 188 138 138 188 137 138 189 136 137 189 134 137 190 134 135 191 133 135 191 133 135 192 134 136 193 134 137 193 134 136 193 132 136 192 130 134 190 127 132 188 126 130 187 124 129 183 121 128 181 119 129 179 116 128 174 113 128 171 113 128 169 111 127 168 110 127 165 109 128 163 107 129 158 106 128 154 105 128 150 102 127 148 100 126 144 99 125 141 98 124 136 96 123 132 93 123 130 90 124 126 89 125 124 89 127 121 88 127 118 85 127 116 81 128 115 78 127 115 76 126 112 74 124 109 74 124 106 74 124 104 74 124 103 72 125 102 72 127 100 74 129 96 73 132 92 73 133 187 139 139 187 137 139 187 137 138 188 136 137 188 135 136 189 134 136 189 133 135 190 132 134 190 134 136 190 134 136 191 134 135 192 131 134 191 129 133 188 128 132 186 126 130 184 123 129 181 120 128 179 117 128 178 114 127 175 110 127 172 110 127 169 108 127 167 108 125 165 106 126 162 104 127 156 104 127 153 102 126 149 100 125 146 98 124 142 97 124 140 96 123 136 94 123 133 91 123 128 89 123 124 88 123 121 88 125 119 88 126 116 85 127 113 83 127 112 81 126 111 78 125 110 76 122 108 75 122 106 75 123 104 75 123 102 74 124 100 73 126 98 74 129 94 73 131 91 72 132 186 140 138 186 138 139 187 138 138 187 137 136 187 136 136 186 135 135 186 134 135 187 133 135 188 134 135 188 134 135 189 133 134 190 132 134 188 129 132 186 127 132 184 125 131 182 122 130 179 118 129 177 115 129 176 112 128 174 109 128 172 106 128 169 105 127 166 104 126 164 103 125 160 100 125 156 100 125 152 99 124 148 97 122 144 97 122 141 95 121 139 92 121 136 91 122 132 90 123 126 89 122 123 88 124 120 88 124 117 87 126 114 86 126 111 83 125 109 81 125 107 80 124 106 78 122 106 77 121 104 77 121 103 76 122 100 75 124 98 74 125 95 73 128 92 74 130 90 72 132 186 140 138 186 140 139 187 140 139 186 139 137 186 138 136 184 137 135 184 135 134 186 134 135 186 133 135 187 132 135 187 132 134 187 131 134 186 128 133 185 126 132 183 124 131 180 121 129 177 117 130 176 114 129 175 111 128 174 108 128 172 104 128 168 102 127 165 101 126 163 99 124 159 97 123 156 96 122 152 95 121 148 95 120 143 93 120 139 93 120 138 91 120 135 88 121 130 88 120 126 88 121 122 86 122 120 87 123 117 87 123 113 86 122 111 84 122 109 82 122 106 80 122 103 78 121 103 77 121 101 78 120 100 77 121 98 76 124 96 75 126 92 74 127 90 73 129 89 72 132 185 141 139 186 142 140 185 142 140 185 141 138 184 140 137 183 139 136 184 137 134 184 136 134 184 134 135 184 132 135 185 131 134 184 129 133 184 127 133 182 125 132 180 122 130 177 120 129 175 117 130 174 114 129 173 110 128 171 106 127 169 103 127 166 100 126 163 98 125 161 96 123 158 94 122 155 93 121 151 93 120 148 93 119 143 91 120 139 91 121 137 90 121 133 88 120 129 86 119 125 86 120 120 86 120 118 84 120 116 85 120 113 85 120 111 83 119 108 82 119 104 81 119 101 79 119 99 78 120 98 78 119 97 77 119 96 77 123 94 76 125 91 75 128 88 73 130 87 72 132 185 142 141 185 144 142 185 143 141 184 142 140 184 141 139 184 140 138 184 139 136 184 137 136 183 134 137 183 133 136 183 129 134 183 127 134 182 125 133 179 124 131 177 121 130 175 118 129 173 115 129 172 112 128 170 109 126 168 105 125 164 102 124 162 98 124 158 97 124 157 95 123 155 92 122 154 91 120 151 91 120 148 91 119 143 90 120 138 89 121 135 88 121 133 87 120 127 85 119 122 83 118 118 83 118 115 82 118 113 83 118 112 84 118 109 82 118 106 81 117 102 80 117 99 79 117 96 78 118 94 78 118 93 78 119 92 77 122 91 77 124 89 77 128 87 75 130 85 73 131 183 141 142 184 142 142 184 143 141 184 142 141 184 141 140 184 140 139 184 138 138 185 136 137 184 135 136 182 132 135 182 128 134 181 125 134 180 123 132 177 122 131 175 120 129 173 116 128 172 113 126 169 111 126 166 108 124 164 104 123 160 101 123 157 98 123 155 97 123 153 94 122 153 92 120 152 91 119 150 90 119 147 91 119 143 90 120 139 88 120 134 86 120 130 84 119 125 83 118 121 83 117 118 82 116 115 81 116 111 81 117 109 82 117 107 82 117 103 81 116 100 81 115 97 81 115 94 80 115 91 80 117 90 81 119 88 81 121 87 81 125 87 78 128 87 76 131 85 74 132 184 140 141 184 142 142 184 142 141 185 141 141 184 140 141 183 139 140 184 138 139 184 136 137 183 134 135 181 130 134 180 127 133 179 125 133 178 122 132 176 120 131 175 118 129 172 115 128 169 111 126 167 109 124 164 106 122 161 103 122 157 101 121 155 99 120 152 96 119 151 94 119 150 92 118 148 91 117 146 90 118 143 90 119 143 90 118 139 88 119 134 86 118 129 83 116 123 83 116 119 82 116 116 81 115 112 81 115 109 80 115 105 81 116 103 82 116 101 82 114 99 83 113 95 83 114 91 82 115 89 83 117 87 83 119 86 83 121 86 82 124 85 81 128 85 78 130 83 75 132 184 140 139 185 140 140 185 142 139 185 141 140 185 140 140 184 138 140 183 137 139 183 135 135 181 133 134 179 130 133 177 127 132 178 125 131 177 122 130 175 119 130 174 116 129 171 112 127 168 108 125 165 107 123 162 105 122 159 102 121 156 100 119 153 98 118 152 95 117 150 94 117 148 93 116 146 91 116 144 90 117 142 89 117 140 89 116 137 88 116 134 86 116 128 84 114 122 84 114 117 83 114 113 82 113 111 82 114 107 82 114 104 82 115 102 81 115 100 82 114 97 84 112 94 85 113 89 85 115 88 85 117 85 84 118 84 84 121 84 82 124 83 80 127 82 79 129 82 77 132 184 138 137 185 139 136 185 141 136 186 140 137 185 139 138 183 138 138 182 137 136 180 134 134 178 132 133 177 131 131 175 129 130 175 124 129 173 122 129 173 118 129 171 114 128 169 110 126 166 108 125 162 106 123 159 104 122 157 103 121 154 101 119 152 97 116 150 96 116 148 95 116 146 94 114 145 93 113 144 91 114 142 89 114 139 89 114 136 89 115 133 87 114 127 85 113 121 85 113 117 85 112 113 84 113 109 85 113 106 85 114 103 84 114 101 83 114 98 83 112 95 84 113 92 85 114 89 87 114 87 87 116 85 87 118 83 85 121 81 82 123 80 80 124 79 79 127 80 78 131 183 136 134 184 138 133 185 139 134 184 139 134 184 139 135 182 138 135 181 136 134 178 134 133 176 132 133 175 131 131 173 129 130 172 125 129 171 120 128 171 117 128 169 113 127 166 110 125 163 108 122 160 106 121 159 104 120 156 104 119 154 102 118 152 100 115 150 97 113 147 96 114 145 95 112 144 95 111 143 93 112 141 92 112 139 90 112 135 88 113 131 88 112 126 86 112 121 85 113 116 86 112 113 87 112 109 88 112 107 88 113 104 86 112 101 85 112 98 85 112 94 86 113 91 87 114 88 88 114 86 88 117 85 88 119 82 86 121 79 83 123 79 82 124 78 80 126 78 80 129 182 135 130 182 136 130 183 137 131 183 137 132 183 138 133 181 137 133 180 136 132 177 135 132 175 133 132 173 131 131 171 129 129 170 125 128 170 121 127 169 117 126 168 114 125 165 111 124 162 109 122 159 107 121 157 105 120 156 104 119 153 102 117 150 99 114 147 97 113 146 97 112 145 96 110 143 95 108 142 94 109 139 92 111 137 90 110 134 89 109 130 88 109 125 88 111 121 88 111 116 88 112 113 89 111 109 89 111 106 90 111 104 89 111 101 87 111 99 86 112 95 87 112 92 88 113 89 88 114 86 89 116 85 88 119 83 87 121 80 85 122 77 83 123 76 82 125 76 82 129 182 134 128 182 136 128 182 136 127 182 136 129 182 137 130 181 138 130 178 137 130 175 135 129 173 134 129 171 131 129 169 128 127 168 125 126 168 121 126 167 117 125 165 115 123 163 112 122 160 110 121 158 108 120 156 105 119 154 103 117 152 101 115 149 99 112 146 98 111 145 98 109 144 97 107 143 96 106 140 96 106 137 95 108 134 93 108 131 91 107 127 89 107 123 89 109 119 90 110 116 89 111 112 90 110 108 91 111 106 91 110 104 91 110 101 90 110 97 89 110 95 89 110 93 89 110 90 89 112 87 90 115 84 89 117 82 88 119 80 87 121 77 85 122 75 84 124 75 84 127 182 135 126 182 134 126 181 135 125 180 136 126 180 137 126 179 138 127 175 138 127 173 136 126 171 135 126 168 132 126 165 128 125 164 125 124 163 120 124 164 118 122 162 115 121 160 113 120 159 110 119 157 108 120 155 105 118 153 103 115 152 100 113 149 99 112 146 99 110 144 98 107 142 99 106 140 98 105 137 98 105 134 97 105 132 95 105 129 92 104 126 90 104 122 91 105 118 91 106 115 92 107 111 92 108 108 93 110 106 93 109 104 92 109 101 93 108 96 92 108 94 91 108 92 91 108 89 91 110 87 92 113 84 92 115 82 90 118 80 88 120 79 86 122 77 86 124 75 85 127 181 135 124 180 134 123 179 134 123 178 135 123 177 137 123 175 138 124 172 138 124 170 136 123 168 134 122 164 131 123 161 127 122 160 123 122 159 120 122 159 118 121 159 116 119 159 113 118 158 109 117 156 106 116 153 105 116 152 102 114 150 101 112 147 100 110 144 100 109 142 100 107 139 100 106 137 99 105 134 98 102 132 98 103 129 96 103 127 94 102 122 93 102 120 93 102 117 94 104 115 95 105 112 95 106 109 96 107 107 96 106 104 96 106 101 94 106 96 94 105 92 94 106 90 94 106 88 95 108 85 95 111 84 95 114 82 92 118 80 90 120 78 89 122 76 89 123 75 88 127 180 134 121 180 136 122 178 135 121 176 135 120 174 136 120 171 137 121 169 138 122 165 135 121 163 131 120 160 128 119 158 125 119 157 122 120 156 120 120 155 117 119 155 116 117 157 113 115 156 109 114 155 106 114 152 104 114 150 103 113 148 103 111 145 102 110 142 102 108 140 103 108 137 102 107 134 102 104 132 100 102 129 100 102 126 97 102 122 96 101 118 96 101 116 96 102 115 96 103 113 97 104 110 98 105 108 99 105 106 99 104 103 98 103 98 97 103 95 96 103 91 97 104 88 96 105 86 96 107 84 97 109 82 97 113 81 95 116 79 92 118 77 90 120 76 90 122 76 90 125 177 134 120 177 134 120 176 135 120 173 135 119 170 136 120 168 136 120 165 135 119 162 132 118 160 129 118 158 126 116 155 124 116 154 121 116 155 119 117 153 118 117 153 115 115 154 112 112 153 109 111 153 106 112 151 105 112 149 105 111 145 105 109 142 105 108 140 105 107 137 105 107 134 103 106 131 103 104 128 103 102 125 102 101 122 99 101 119 98 102 116 98 101 114 98 102 113 99 103 110 100 103 107 101 103 106 102 103 104 101 103 100 100 102 96 99 101 93 99 100 90 100 102 88 98 104 85 98 107 83 98 110 81 98 113 80 97 115 78 95 118 75 92 120 74 92 124 75 92 126 175 133 119 174 134 119 173 135 119 170 135 118 168 136 117 165 135 118 162 132 116 159 129 116 157 127 115 157 124 114 155 122 115 153 119 115 152 118 115 151 117 114 151 113 112 151 110 110 150 107 110 149 106 110 148 105 109 147 105 109 143 106 107 139 107 108 137 107 106 134 106 106 132 105 105 129 104 103 125 104 101 123 103 100 119 102 100 117 100 101 114 99 102 112 99 102 109 100 102 108 102 101 105 102 102 103 102 102 101 102 102 98 102 99 95 101 99 91 102 99 89 101 102 86 100 103 83 100 106 81 100 109 79 99 112 78 98 115 76 97 117 74 95 119 74 95 122 74 94 125 173 135 117 172 135 117 171 135 117 168 134 116 164 134 115 162 132 115 160 130 115 157 127 114 156 126 114 155 123 114 153 120 114 151 117 114 151 115 112 149 114 111 148 111 110 147 109 109 146 107 108 144 105 108 144 106 108 143 107 108 140 106 108 136 107 107 134 108 106 131 107 105 129 105 103 127 105 101 124 104 100 121 104 99 119 104 99 116 102 100 113 100 101 110 99 100 108 99 100 105 101 100 103 103 101 102 103 101 99 102 99 96 102 98 93 102 98 89 102 99 86 102 99 84 102 102 83 102 105 81 101 109 78 100 111 77 99 114 75 98 117 75 96 119 75 96 121 75 95 125 172 136 116 170 135 115 169 134 115 166 133 116 163 132 114 160 130 114 157 128 114 156 126 113 154 124 113 154 122 113 152 120 113 150 117 112 148 114 111 147 112 109 147 110 108 145 110 108 142 109 106 141 107 106 140 108 107 139 108 108 137 107 108 135 108 108 132 109 106 130 109 104 128 107 102 126 106 100 123 105 99 121 105 98 117 104 98 114 103 100 110 101 99 108 100 98 107 101 98 104 102 99 102 103 100 101 102 99 98 102 98 95 103 97 91 104 97 88 103 97 85 103 98 84 103 101 81 103 105 80 102 109 78 100 111 77 98 113 77 96 116 76 96 118 76 97 120 76 96 123 171 136 116 170 134 115 168 133 114 165 132 114 162 130 114 158 129 114 156 127 114 155 125 113 154 122 113 152 120 113 151 118 112 149 115 111 147 112 109 146 110 108 144 110 107 143 110 106 140 110 105 139 110 105 138 110 106 136 110 106 134 111 108 133 111 107 132 111 105 129 109 103 127 108 102 124 106 100 121 107 99 119 106 99 115 105 98 110 104 98 108 102 98 107 102 97 106 103 98 103 103 98 101 104 98 99 103 98 96 102 97 93 104 96 89 104 97 87 105 97 84 103 99 82 103 102 80 103 105 79 102 108 78 99 110 78 98 112 77 96 114 76 97 116 75 97 117 75 97 121 171 135 117 169 134 114 168 132 113 165 131 112 161 129 112 157 127 112 154 125 113 154 124 113 153 120 113 152 117 112 151 116 111 148 114 109 147 111 108 145 111 107 144 110 104 141 112 103 139 113 103 137 112 103 135 111 105 133 111 106 132 112 107 131 113 105 130 113 103 128 111 102 125 109 100 122 108 100 119 107 98 117 107 98 112 105 97 108 105 96 106 104 96 104 102 95 103 103 96 101 104 96 99 104 96 97 104 95 94 103 94 90 103 94 87 104 96 85 104 97 84 103 98 81 103 102 79 102 104 77 100 106 78 97 109 77 96 111 76 96 112 76 97 113 75 97 114 75 97 118 170 134 116 169 133 114 166 131 112 164 129 111 160 128 110 157 127 110 154 124 111 153 122 111 153 120 112 152 116 111 151 114 109 149 112 109 147 110 107 146 111 106 144 113 103 141 113 103 138 114 103 136 113 103 134 113 103 131 112 104 130 113 104 129 114 103 127 113 102 126 112 100 125 110 99 121 109 99 118 109 96 114 108 95 111 107 95 106 107 94 104 106 94 102 105 93 100 104 93 99 106 94 97 106 93 95 105 93 91 104 92 88 104 93 85 105 94 84 105 96 83 104 98 81 103 100 79 101 103 78 99 105 77 97 108 76 95 110 75 95 110 76 97 111 76 97 113 75 98 116 170 135 115 168 133 113 165 132 112 163 130 110 160 128 109 156 126 108 154 124 108 153 121 109 153 118 110 150 116 109 150 114 108 149 112 108 148 110 106 146 112 104 143 112 103 140 114 101 137 115 101 135 114 101 132 114 101 129 114 101 127 114 101 127 115 101 125 115 100 124 114 98 122 112 97 119 111 96 116 110 94 113 110 93 109 110 92 106 109 93 103 109 92 101 109 92 99 108 92 98 108 92 96 107 92 92 106 91 88 106 91 85 106 93 83 106 95 82 106 96 81 104 97 79 104 99 77 102 101 76 99 104 74 97 106 74 96 108 74 98 109 75 99 110 76 98 111 75 98 114 170 134 113 167 133 112 165 132 110 161 130 109 159 128 108 156 126 107 154 124 106 154 121 108 152 119 108 151 117 108 150 114 107 149 112 106 148 112 105 146 112 104 144 114 102 141 115 100 139 116 99 136 116 99 132 115 99 129 115 98 126 115 99 125 116 99 123 116 98 123 115 97 120 114 95 117 112 94 115 112 93 111 112 91 109 112 90 106 112 90 103 111 89 100 111 89 98 112 90 96 111 91 94 109 92 91 107 91 86 107 92 84 107 93 82 107 95 82 106 96 80 105 96 78 105 97 76 102 98 75 101 102 74 99 106 75 99 108 75 99 109 75 100 110 76 100 111 77 100 113 170 134 111 167 133 111 163 133 109 160 129 108 158 128 107 156 127 107 154 125 106 154 123 105 151 121 106 150 118 106 150 115 105 149 114 105 148 114 104 146 115 103 145 116 102 143 115 99 140 116 98 136 117 98 134 116 97 130 116 97 127 116 98 124 116 98 123 117 97 122 117 95 118 116 94 116 115 92 113 114 91 110 115 90 107 115 88 104 115 88 101 114 87 99 114 88 97 114 89 95 113 90 93 111 90 90 110 91 86 109 90 83 109 92 81 108 94 81 107 95 79 107 95 77 105 95 75 104 97 74 102 99 75 101 103 76 101 105 75 101 107 76 100 109 76 100 110 77 101 112 171 133 109 168 132 109 164 132 109 160 130 108 156 129 107 155 128 107 154 126 106 153 124 105 151 121 105 150 118 105 149 116 104 148 116 103 147 115 103 147 116 102 146 116 101 143 115 100 140 116 99 137 117 98 135 115 97 132 116 95 128 116 95 125 117 95 123 117 94 120 117 93 118 118 92 114 117 91 112 116 89 110 117 88 107 117 87 103 117 86 101 117 85 98 117 85 95 116 87 93 115 87 91 113 87 89 113 88 85 112 88 82 112 91 80 111 93 79 109 94 78 107 94 75 106 94 74 106 96 74 104 97 75 103 101 77 102 103 77 101 105 77 100 108 77 99 110 78 101 112 