P3
50 50
255
98 141 117 98 141 117 98 140 116 100 139 115 102 137 115 105 136 115 107 134 115 108 131 115 110 129 115 112 127 116 114 127 117 115 126 116 117 127 116 118 127 115 119 127 115 120 127 114 122 126 114 122 124 114 121 123 114 120 124 114 120 125 115 120 126 115 120 126 116 122 128 117 122 129 118 124 129 117 126 130 119 129 129 120 133 130 122 137 130 123 140 127 123 143 124 123 145 121 122 147 119 121 148 116 119 151 114 116 153 112 116 152 111 116 152 109 114 151 106 114 149 106 115 148 104 113 148 105 112 148 105 109 146 106 108 143 106 107 141 108 107 140 108 106 140 109 104 139 108 103 103 141 120 103 140 121 102 139 120 104 137 119 106 135 119 109 135 118 110 133 117 111 130 118 113 127 118 114 127 118 117 125 118 119 125 118 121 125 118 123 124 117 124 123 117 126 123 116 127 121 116 127 120 117 126 120 117 124 122 117 123 123 116 123 124 117 123 125 117 124 127 119 126 128 120 128 130 120 130 131 121 132 130 122 136 129 123 139 128 124 142 126 125 145 124 124 148 121 123 149 119 122 150 116 120 152 113 118 154 110 116 153 108 117 152 107 116 152 105 115 151 104 114 149 104 112 150 105 112 150 105 111 149 106 110 146 107 109 143 108 108 143 109 107 142 109 105 142 108 105 107 140 125 108 140 124 108 139 124 108 137 123 110 134 122 112 133 121 113 131 121 115 129 121 116 128 121 117 126 120 120 125 120 123 124 120 125 123 120 128 122 119 129 120 119 131 120 118 132 119 118 131 118 117 130 118 118 127 119 119 126 120 118 126 123 118 127 124 119 128 125 121 130 127 121 132 129 122 134 130 122 135 129 123 138 127 125 142 126 126 144 124 126 146 123 126 149 120 125 150 117 123 151 114 121 153 112 120 154 109 118 154 107 116 154 106 116 152 105 115 150 104 114 150 104 112 151 105 112 152 106 111 151 107 111 149 108 110 147 109 110 145 109 110 145 108 108 144 107 108 110 138 129 112 139 128 113 137 128 113 135 127 114 133 127 115 133 126 116 130 126 118 129 125 120 127 122 120 126 123 123 125 122 125 124 123 128 122 121 131 120 121 133 119 121 135 117 121 135 116 119 135 117 120 133 117 120 130 116 121 129 118 121 130 121 120 130 123 122 131 125 123 133 126 123 135 127 124 137 127 125 138 127 126 139 125 126 143 123 126 147 122 127 149 121 126 151 118 126 151 116 124 151 113 122 153 112 121 155 108 119 156 107 117 155 106 116 154 105 115 151 105 114 152 105 113 153 106 112 153 106 112 151 108 113 151 108 112 149 109 111 147 108 111 147 107 111 146 107 111 113 139 132 116 138 132 117 138 132 117 137 132 119 135 131 119 132 129 120 130 129 121 129 128 123 127 126 125 126 126 127 125 125 128 123 126 132 122 125 136 120 124 137 117 124 138 115 122 139 115 122 138 114 122 137 115 123 135 116 125 134 117 125 134 120 123 134 123 124 134 125 125 136 126 125 138 125 126 139 125 127 140 123 127 141 122 127 145 121 127 148 120 127 151 119 127 152 116 126 152 114 125 152 113 123 153 111 121 155 109 120 157 108 118 156 107 117 155 105 117 154 106 116 154 106 114 154 105 112 155 106 112 154 107 112 153 108 113 151 108 112 148 108 112 148 107 112 147 105 113 116 140 135 118 139 136 119 137 135 121 137 136 122 135 134 124 131 133 124 129 133 125 127 131 126 127 129 128 126 129 130 124 129 132 123 128 136 121 128 140 119 128 142 118 127 142 115 125 143 113 125 142 113 126 141 113 127 140 115 129 138 118 128 138 120 126 138 123 127 138 125 127 138 125 128 139 124 128 140 123 128 142 123 126 144 121 127 146 120 128 150 119 128 153 118 127 154 116 126 153 113 125 153 111 125 154 111 124 155 110 122 157 108 121 157 108 120 156 107 119 156 106 117 156 106 114 156 106 113 157 106 113 157 105 113 156 107 114 153 108 114 151 107 114 150 106 112 148 106 113 119 140 139 121 139 139 123 136 139 123 136 139 125 134 138 128 133 137 128 130 136 128 128 134 130 127 133 131 126 131 133 123 131 136 123 132 140 122 132 142 121 131 144 119 130 147 115 129 147 113 129 146 113 130 146 114 131 144 114 132 142 117 131 142 120 131 142 122 130 142 123 130 140 123 130 140 123 129 142 122 128 144 122 127 146 121 127 149 120 128 153 120 128 154 117 128 154 114 128 154 112 126 154 111 126 155 110 126 156 109 124 157 108 124 157 107 123 156 107 121 158 107 119 158 106 117 158 106 116 160 105 115 161 105 114 159 106 115 156 107 114 154 107 113 152 106 112 151 106 113 122 139 143 124 138 143 126 136 143 128 135 143 130 134 141 132 133 139 132 132 138 134 129 137 134 127 136 136 125 135 137 124 133 140 122 134 144 123 135 146 122 134 148 119 133 150 115 132 151 113 132 150 112 133 150 113 135 148 114 136 146 116 135 146 119 135 146 119 135 144 120 135 143 122 133 143 121 131 145 121 129 147 121 129 149 121 129 151 120 129 154 119 129 155 116 128 157 114 129 156 111 127 156 110 128 156 109 127 157 108 127 157 107 126 157 107 125 157 106 123 159 107 119 160 107 118 161 107 118 162 106 117 162 106 116 162 106 115 160 107 114 158 106 113 155 105 113 152 105 114 124 139 147 126 137 146 129 135 146 131 134 145 133 134 144 134 133 142 136 131 140 138 129 139 138 128 139 140 125 138 141 124 136 145 123 137 148 124 137 149 123 137 151 119 137 152 116 136 152 114 136 152 112 137 152 112 140 152 113 141 150 115 139 149 118 139 149 117 139 147 118 139 146 120 136 146 119 135 147 120 133 149 121 131 151 121 130 153 119 130 156 118 130 158 116 130 159 114 129 159 112 129 158 110 129 158 108 129 158 109 129 157 108 127 158 107 126 160 107 124 161 107 122 163 107 120 163 107 120 164 107 119 164 106 118 163 106 118 163 107 117 161 106 116 156 106 115 154 105 116 128 137 149 130 137 148 131 136 147 134 135 147 136 134 147 137 133 145 139 131 144 141 130 142 142 129 141 143 127 140 146 125 139 149 124 139 152 124 140 153 123 139 154 120 139 155 117 140 155 115 141 154 112 142 154 111 142 153 112 144 153 114 143 151 116 142 150 116 141 150 116 141 149 117 139 149 118 136 149 119 134 152 121 133 155 121 132 156 120 132 158 118 131 160 117 130 162 114 130 161 112 130 161 110 129 160 108 129 159 109 127 159 109 126 160 108 126 162 108 125 163 107 123 164 107 122 165 106 122 166 108 121 166 107 121 166 106 120 164 106 119 161 106 118 158 106 119 156 105 119 132 137 150 135 136 150 136 136 149 137 136 149 139 134 149 140 132 147 142 131 146 143 130 144 145 128 143 147 127 141 150 125 141 153 125 140 155 124 140 157 122 141 158 119 142 158 117 143 158 114 143 157 112 144 155 111 145 155 112 145 154 114 145 151 116 145 151 116 145 152 115 144 151 115 141 152 117 139 152 119 136 154 120 135 157 120 134 160 119 133 162 117 132 163 116 131 163 114 130 162 112 130 161 110 129 160 107 128 161 108 127 162 107 126 163 108 125 164 109 124 165 108 124 167 107 123 168 107 123 168 107 123 167 106 122 167 107 122 165 107 121 163 106 120 160 106 120 158 106 120 136 136 152 139 136 153 141 136 152 143 136 152 144 135 151 145 133 150 146 132 149 147 132 147 148 129 145 151 127 143 154 126 142 156 125 142 159 125 143 160 122 145 161 118 145 161 116 145 159 112 146 158 111 145 157 110 145 157 111 146 156 114 146 154 114 147 153 113 147 153 113 146 153 115 144 154 116 142 154 118 139 156 118 138 160 119 136 162 118 134 164 116 133 164 115 132 164 114 131 163 112 131 162 110 130 161 108 129 162 108 128 163 109 128 165 109 127 166 109 126 167 109 125 168 108 125 169 107 125 168 107 125 169 107 125 168 107 123 166 107 123 165 106 122 162 106 121 159 105 119 141 136 154 143 135 155 146 135 154 148 136 154 149 135 152 149 133 152 151 133 152 152 133 150 153 130 148 154 129 145 157 127 144 159 125 144 160 124 145 163 121 149 164 117 149 163 115 148 162 113 148 160 111 147 159 110 146 159 111 147 158 113 148 156 113 148 156 113 148 155 113 147 156 114 146 156 115 144 156 116 142 158 116 140 162 117 138 165 116 136 165 115 134 166 113 132 166 111 131 166 110 131 164 109 131 164 107 132 165 108 131 166 110 130 168 110 130 169 109 128 169 109 127 169 108 126 170 108 127 170 108 127 171 107 127 170 107 125 168 106 124 165 106 123 163 105 121 160 103 120 144 135 154 147 135 156 150 135 156 153 135 155 154 134 154 154 132 153 155 132 153 157 132 152 158 131 151 159 129 148 160 127 146 161 124 148 163 122 150 165 118 151 166 115 151 165 114 151 163 113 149 162 111 147 162 110 148 161 111 148 161 111 148 159 111 148 158 112 148 158 112 148 159 112 147 158 113 146 159 114 144 161 115 142 164 114 140 166 114 138 167 113 134 167 110 133 167 109 133 167 108 133 166 108 134 166 107 134 166 108 133 167 110 132 170 110 132 171 109 131 171 109 129 171 109 129 171 108 130 171 108 129 170 107 128 170 107 126 169 107 125 167 106 124 163 105 123 161 103 121 147 135 156 151 134 157 154 134 157 156 133 157 157 132 156 159 131 154 160 131 154 162 130 154 163 129 152 164 127 150 164 125 149 164 122 150 165 118 151 167 115 152 167 113 152 166 112 151 164 112 150 162 111 149 163 109 149 163 111 148 163 111 147 162 111 147 161 111 147 161 111 147 161 111 147 161 112 146 162 113 145 164 112 144 165 112 141 167 113 139 168 110 135 169 107 134 168 106 134 168 106 134 168 106 134 169 107 135 169 108 134 169 110 134 170 110 134 171 111 133 172 110 132 171 109 132 171 108 131 171 107 129 170 107 128 169 107 127 168 106 126 167 106 124 165 104 123 163 103 122 150 134 158 152 132 158 156 132 158 158 131 158 159 130 157 162 129 156 163 129 155 164 128 154 165 127 153 166 125 151 167 122 152 166 119 152 166 116 153 167 114 153 167 111 153 165 111 153 163 112 151 162 110 150 163 111 150 164 111 148 165 111 146 165 110 146 164 109 145 164 110 146 163 111 146 163 111 145 165 111 144 166 111 144 167 109 142 168 109 140 168 107 137 169 104 136 168 104 135 169 105 135 171 106 135 171 107 135 170 107 135 170 109 135 170 109 135 171 111 134 172 110 134 172 109 133 171 108 132 172 108 131 171 108 129 169 107 128 169 106 128 168 105 126 167 105 124 163 102 124 151 133 159 154 131 159 157 131 159 160 130 159 162 129 158 163 128 156 164 127 155 166 126 155 166 124 154 168 122 153 168 119 153 168 118 153 167 115 154 167 113 154 166 111 153 164 111 153 163 111 151 162 110 150 163 109 149 164 109 149 165 109 146 167 109 144 167 108 144 165 109 145 165 108 145 165 109 145 166 109 144 168 109 142 169 107 141 170 106 140 170 104 138 170 103 135 171 103 135 172 104 134 173 105 135 173 107 136 171 108 136 171 109 138 171 110 137 172 111 137 173 111 135 173 109 134 172 108 133 173 109 132 172 108 130 170 107 130 171 106 129 169 104 127 168 104 127 162 102 125 153 131 160 156 129 160 159 129 161 161 129 161 163 128 160 165 127 158 165 126 156 166 125 156 167 123 156 168 120 155 169 117 154 168 116 154 168 114 154 166 112 154 164 111 153 164 112 152 164 111 152 163 110 151 164 108 150 164 107 149 166 107 146 168 107 144 168 107 143 167 107 143 167 107 144 166 107 144 168 108 143 171 108 141 172 105 139 172 104 138 171 103 137 172 103 135 173 103 135 174 104 134 174 104 136 174 106 138 173 107 138 173 108 139 173 109 139 174 111 137 175 111 136 174 110 135 173 108 134 173 109 133 171 109 132 170 107 130 170 106 129 170 105 129 167 103 127 162 101 126 154 130 160 157 130 160 159 129 161 162 127 161 165 126 161 167 125 160 167 124 159 167 123 157 167 122 156 168 119 154 168 117 153 167 115 154 167 113 154 165 111 154 165 111 152 164 111 152 164 111 152 164 110 151 164 108 150 166 107 148 168 106 146 169 106 144 170 108 143 169 107 143 169 106 143 170 106 143 171 106 142 173 106 141 174 105 139 175 104 137 174 103 136 174 103 135 175 103 136 176 104 135 176 105 137 176 106 139 175 108 139 176 109 139 176 111 139 176 112 137 176 112 136 176 111 135 176 110 134 175 110 135 172 110 134 170 109 132 170 107 131 169 106 129 166 105 128 162 104 127 156 129 161 159 129 160 160 128 161 163 127 160 165 126 160 168 124 161 168 123 160 167 122 158 167 120 155 167 118 154 167 116 153 167 115 153 168 112 152 166 111 152 165 110 152 165 110 152 165 109 152 165 108 151 165 107 150 167 106 148 170 106 146 172 106 145 172 107 145 171 105 145 171 105 144 173 105 144 175 105 142 176 105 141 176 104 139 177 103 136 175 103 136 175 103 136 176 104 136 176 105 136 176 107 138 177 108 139 177 110 140 179 111 140 178 111 139 178 112 138 177 111 136 177 111 135 177 111 136 175 112 136 172 111 135 169 110 134 168 109 131 167 109 130 166 107 129 162 106 130 158 127 161 160 127 161 162 127 162 164 125 161 166 123 162 168 122 163 168 122 162 169 120 160 168 119 156 168 117 154 168 115 152 169 114 152 168 112 152 167 110 152 167 109 151 166 108 151 166 107 150 166 107 149 167 106 149 168 107 148 172 106 146 174 106 145 174 105 146 173 104 145 173 104 145 174 105 144 174 105 143 176 105 142 176 104 138 178 103 137 177 103 136 176 104 136 177 105 136 176 106 137 177 109 138 177 111 140 179 111 140 178 112 140 177 112 139 178 112 139 178 111 138 178 110 137 178 111 137 176 112 137 173 112 137 170 111 135 168 111 132 166 109 131 164 109 131 160 107 132 158 125 161 160 124 162 163 124 163 165 123 164 166 122 164 167 122 164 168 122 162 168 119 160 168 117 156 168 116 154 168 116 152 169 114 152 168 113 151 168 111 150 167 109 149 167 107 149 168 107 149 169 107 148 169 106 147 170 107 145 173 107 145 175 106 145 175 105 147 174 105 146 175 106 145 175 105 143 175 105 142 175 105 141 176 105 139 177 103 138 178 103 138 178 105 138 178 107 137 176 108 137 177 110 140 178 112 140 179 112 140 178 112 139 177 112 138 178 112 139 178 111 138 179 110 138 177 111 138 176 113 139 173 113 139 170 112 136 168 112 134 165 111 133 162 110 132 158 108 133 160 123 162 162 123 164 164 123 165 165 123 166 166 121 166 167 121 165 168 120 163 168 118 160 167 117 157 167 116 155 168 116 154 169 114 152 170 113 151 169 111 150 169 109 150 169 108 149 170 107 148 170 107 148 171 106 147 172 106 145 175 106 145 176 107 145 176 106 146 175 106 146 176 105 144 175 105 143 175 104 141 176 105 140 176 104 139 177 104 138 179 105 138 179 106 139 178 108 139 178 109 140 178 112 140 178 113 139 178 113 139 177 114 139 177 114 138 178 112 139 178 112 138 178 111 139 177 111 139 176 114 140 173 114 139 170 113 138 167 112 135 164 111 135 161 110 136 158 110 135 162 120 165 164 120 166 165 122 166 167 121 167 167 119 165 168 119 165 169 118 164 169 117 161 168 116 158 167 115 156 168 115 155 169 114 153 170 113 151 170 112 151 170 110 151 170 108 149 172 107 147 172 107 147 172 107 148 175 106 146 176 106 146 177 108 145 178 108 145 176 107 146 176 106 144 176 106 142 175 106 142 176 106 141 177 104 139 177 104 138 177 106 138 177 107 140 178 109 139 179 111 140 179 112 139 178 113 139 178 115 138 177 116 139 178 115 138 178 115 139 177 113 139 178 112 139 178 112 139 177 114 139 174 115 139 170 114 137 167 114 137 165 112 137 162 111 138 159 112 137 164 118 166 165 118 167 166 119 166 168 119 165 168 118 165 169 117 164 170 116 164 170 116 161 170 115 159 169 116 158 169 115 157 170 116 154 171 115 153 170 113 151 170 111 151 170 109 150 172 109 148 173 108 148 174 107 147 176 107 147 178 107 147 178 108 146 178 109 145 178 108 144 178 108 141 177 107 140 176 108 142 175 108 141 177 106 140 177 105 140 177 106 139 177 108 140 178 110 139 179 111 139 180 111 139 179 112 140 179 115 140 179 118 139 179 117 139 178 116 139 177 114 138 178 113 137 178 113 137 177 114 139 175 115 139 171 115 140 168 114 138 165 112 139 163 113 140 161 114 139 165 117 166 166 118 167 167 117 167 169 118 166 170 118 166 170 116 165 172 116 164 171 115 162 171 114 160 171 115 159 170 116 158 171 116 155 172 115 154 172 113 151 172 112 150 171 111 150 171 110 148 173 109 147 176 108 146 178 108 146 179 107 146 179 107 145 179 109 144 180 110 142 179 110 140 178 110 140 178 109 141 177 109 140 177 107 140 177 107 140 177 107 138 178 109 139 178 110 139 180 110 139 181 111 138 180 112 138 180 114 139 180 117 138 178 118 138 177 117 138 177 117 137 177 116 136 177 115 136 177 115 139 174 115 140 170 115 140 168 115 140 166 114 139 164 114 140 162 114 138 165 117 167 166 117 167 169 116 168 170 116 169 170 117 168 171 115 167 172 115 166 171 115 164 172 114 162 171 114 161 171 116 158 172 117 155 173 115 153 173 114 150 173 113 149 172 112 148 173 111 147 173 108 146 176 108 144 178 107 145 179 107 146 180 107 144 179 108 142 180 109 141 180 110 139 179 110 138 178 108 139 178 109 140 178 108 140 178 108 140 179 108 138 179 108 139 180 109 139 181 110 138 182 111 138 181 113 138 179 115 138 179 117 137 178 118 137 177 118 136 176 118 136 176 117 135 176 116 135 176 115 137 174 115 139 171 115 139 169 114 139 167 113 139 164 112 139 162 112 138 167 115 168 169 116 168 171 115 169 171 115 169 171 116 169 172 115 168 172 115 167 172 115 165 172 115 162 172 115 160 173 116 158 174 115 155 174 116 153 173 114 148 174 112 146 173 112 145 173 111 145 174 109 143 175 108 142 178 107 143 179 108 144 179 107 143 179 108 141 179 109 140 179 110 138 179 110 136 178 108 137 178 109 138 178 108 138 178 108 138 179 108 138 179 108 139 180 108 139 181 108 139 181 111 139 179 113 139 178 114 138 177 116 137 177 118 136 176 118 134 176 117 133 176 117 133 175 116 133 175 115 134 173 115 137 171 114 138 170 113 138 166 112 138 164 110 137 162 110 136 168 115 169 170 115 170 171 115 170 171 115 170 172 116 169 173 116 167 173 116 167 173 115 165 173 116 162 174 115 159 174 115 157 174 115 154 174 115 152 174 115 148 175 112 145 174 112 143 174 110 142 175 109 141 176 108 139 177 108 139 178 108 140 178 108 141 178 108 140 178 109 139 179 110 137 178 110 135 178 109 135 178 109 136 178 109 136 178 108 138 178 108 138 178 110 138 179 109 138 180 109 138 180 111 139 178 113 138 176 114 136 176 115 137 176 117 135 176 118 133 176 116 132 176 116 132 176 114 130 176 113 132 173 113 134 170 112 135 169 111 136 165 111 136 163 109 134 162 108 134 169 115 169 171 115 170 172 115 170 172 116 168 173 115 169 174 115 168 173 116 166 173 117 164 173 117 162 173 117 159 174 116 158 175 116 155 175 114 153 175 113 149 175 112 145 175 112 143 175 110 141 175 109 139 177 109 138 177 108 137 177 108 137 176 109 137 177 109 137 177 109 137 178 110 135 178 110 134 178 109 133 179 109 134 180 110 136 179 109 138 179 109 138 178 110 137 179 111 138 179 110 138 177 110 137 176 112 135 176 113 135 176 114 135 177 116 134 177 116 133 176 114 131 177 114 130 176 113 130 175 111 130 173 111 132 171 110 133 168 109 135 165 109 135 163 108 134 162 107 134 171 114 167 172 114 167 173 115 167 172 116 167 173 114 168 172 114 167 172 115 165 173 116 162 174 118 160 174 118 158 176 118 157 176 116 154 176 113 152 177 111 150 176 111 145 176 111 142 175 109 141 176 108 139 177 108 137 176 108 137 176 109 136 175 109 135 176 110 135 177 110 135 177 110 134 178 111 133 179 110 132 180 110 134 180 111 135 180 111 136 180 111 136 180 110 136 179 110 136 177 110 137 176 110 136 176 111 134 176 111 134 176 112 133 177 113 132 177 115 132 176 114 131 176 112 130 176 111 129 174 109 128 173 108 130 171 108 132 168 108 134 165 108 134 162 108 132 161 106 132 172 115 166 174 114 166 175 114 165 174 115 166 172 114 166 172 113 165 172 114 164 173 115 161 174 116 159 176 116 157 178 117 155 177 115 153 177 113 152 178 111 149 178 109 146 177 110 143 177 109 140 176 107 139 176 107 137 176 108 137 175 108 136 176 109 135 177 110 134 177 112 134 178 112 132 178 111 132 179 111 131 180 111 132 180 112 134 180 113 135 179 112 134 179 111 134 178 109 135 176 108 135 176 109 135 176 110 134 176 109 133 177 110 133 178 111 131 177 112 130 176 112 129 176 111 128 175 111 128 174 109 128 173 107 129 171 108 131 169 109 131 164 109 132 162 108 130 160 106 129 173 116 165 175 116 165 175 115 164 173 114 165 173 114 164 172 113 163 173 113 162 175 114 161 176 116 158 178 116 156 179 116 153 177 114 151 178 112 149 179 111 148 179 110 145 178 109 144 178 107 142 177 106 140 177 106 138 176 108 137 176 108 136 176 109 135 177 110 134 178 111 134 177 111 133 177 112 131 177 112 131 178 112 131 179 112 132 179 113 133 179 112 133 178 111 133 177 109 133 176 108 133 176 109 133 176 109 133 176 109 132 176 109 132 176 110 130 176 110 128 175 109 127 173 109 127 173 110 127 173 109 127 172 107 129 170 107 129 168 107 129 165 107 129 163 106 127 161 105 125 174 117 164 174 116 164 174 115 164 174 115 163 174 116 162 174 114 161 175 114 160 176 114 159 178 115 157 178 115 155 179 115 151 179 115 149 178 113 147 179 111 146 180 110 144 180 107 143 178 106 143 177 105 140 178 105 137 177 107 136 176 108 136 176 110 135 176 110 134 177 111 134 178 111 135 177 112 133 177 112 132 177 111 130 177 111 131 177 111 132 177 112 132 178 110 132 178 109 134 177 109 133 177 109 132 176 109 131 176 109 130 175 109 130 175 110 129 175 108 127 174 107 126 172 107 126 171 107 127 171 107 127 170 107 127 168 106 126 166 106 126 165 105 126 163 104 124 162 103 124 173 117 164 172 117 163 172 116 163 172 116 162 174 115 161 175 115 160 176 114 158 177 115 157 177 114 156 178 114 153 178 115 150 179 116 148 178 113 146 179 111 145 180 109 144 180 107 142 179 105 141 179 105 140 178 107 138 176 108 136 176 109 136 176 112 135 176 111 135 176 111 135 177 111 135 177 111 133 178 112 132 177 112 131 176 112 131 176 110 131 177 110 131 179 109 131 179 108 133 178 107 133 178 107 132 177 108 131 174 109 129 174 110 128 173 109 128 173 108 127 173 106 126 171 105 126 170 105 126 171 105 126 168 106 126 167 105 124 165 105 124 164 103 123 163 101 123 162 101 123 173 117 163 172 117 162 172 116 162 172 116 161 173 115 160 175 115 158 176 115 158 176 115 156 176 114 154 177 114 152 178 114 149 179 114 147 179 113 146 179 110 145 180 108 144 181 107 143 181 106 141 179 107 140 178 108 138 176 109 136 175 111 135 175 112 135 176 113 135 176 111 134 177 111 135 177 111 134 177 111 133 177 111 132 176 110 130 175 109 130 177 108 131 179 107 131 179 106 131 179 105 131 178 105 131 176 106 130 175 107 130 174 108 128 173 108 128 172 106 127 172 104 127 171 103 127 171 103 126 170 104 126 168 103 125 165 104 124 163 103 122 161 102 121 162 100 121 161 100 122 172 118 163 172 117 161 172 117 160 172 117 159 174 116 159 175 115 157 176 115 155 176 115 154 177 115 153 179 114 151 179 115 150 180 113 148 181 111 148 180 110 146 181 108 144 181 108 143 181 107 141 180 109 139 178 110 137 176 111 135 176 112 135 176 112 136 176 111 137 176 110 136 177 109 136 177 110 134 177 110 133 175 109 132 175 109 131 175 108 131 176 107 132 178 105 132 178 104 132 178 105 132 178 104 132 178 103 131 175 104 130 173 105 128 172 105 127 171 104 127 172 102 127 171 101 127 171 101 126 170 101 125 168 100 124 164 101 124 161 101 121 160 100 121 160 100 120 160 99 119 171 120 162 171 119 161 171 118 159 172 117 158 173 116 158 174 116 156 175 116 154 177 116 152 179 115 151 179 114 151 179 114 149 182 113 148 183 110 148 183 109 146 183 108 144 183 108 141 182 109 139 181 110 139 179 111 138 178 112 137 178 112 138 178 111 138 178 110 137 177 109 137 176 109 135 176 108 133 175 108 133 174 108 132 174 109 132 174 108 132 174 106 133 175 104 133 177 102 133 177 102 132 177 101 131 176 100 131 175 101 130 173 102 128 172 102 126 171 101 126 171 101 126 171 100 126 170 98 126 170 98 125 168 99 124 164 100 124 161 99 122 159 98 120 159 98 119 159 97 119 171 120 162 171 119 160 172 118 158 171 117 158 172 116 157 172 115 156 174 116 154 176 117 152 178 115 151 180 114 150 181 113 148 183 111 146 184 110 145 184 108 145 185 107 142 184 109 140 182 109 139 182 110 139 180 111 139 178 111 138 179 111 138 179 110 138 178 108 137 178 108 135 176 108 133 176 108 133 175 108 133 174 107 134 173 107 134 173 106 134 172 103 133 173 101 133 175 100 132 176 100 131 175 99 130 174 99 130 174 99 129 173 100 130 171 99 128 171 99 127 170 98 126 169 98 126 169 96 125 168 97 126 167 98 126 164 98 126 160 98 123 159 97 120 158 95 119 158 95 120 171 119 160 171 118 159 171 119 159 171 117 157 171 116 156 172 115 154 173 116 153 174 116 152 177 116 150 180 114 148 182 111 147 183 110 146 184 108 144 184 107 143 184 107 141 182 108 140 181 110 139 181 110 139 180 109 138 179 110 137 179 110 138 178 109 137 179 108 135 177 108 134 176 108 132 176 107 133 176 107 133 174 105 134 172 105 134 171 104 134 170 102 133 171 100 132 172 99 132 174 99 130 173 98 130 173 98 130 173 98 129 172 98 129 172 98 129 171 97 128 169 96 126 168 95 126 167 96 126 166 96 126 164 97 127 162 98 126 160 97 123 158 96 121 157 94 120 156 94 120 171 119 159 171 118 159 171 118 158 171 118 156 171 116 155 171 115 153 173 115 152 174 115 151 177 114 149 180 112 147 182 110 146 183 109 144 184 108 142 184 108 140 182 108 139 182 109 139 181 110 139 181 110 138 181 109 138 180 108 137 179 109 137 179 110 136 178 109 134 176 108 133 174 108 132 173 106 132 173 105 133 173 104 132 171 105 133 170 104 134 169 101 132 168 101 131 170 99 131 172 98 130 171 97 130 171 97 130 171 96 129 171 97 129 171 96 129 170 94 128 168 94 127 165 94 126 164 94 126 165 94 127 162 95 127 160 96 127 158 96 125 157 95 122 155 93 121 153 92 119 170 119 159 170 118 159 170 117 156 171 117 155 172 116 154 172 115 152 172 116 151 174 115 151 177 112 149 181 110 147 183 109 144 184 108 142 184 108 141 183 108 139 181 109 139 181 109 138 181 108 138 181 108 138 181 107 138 181 107 137 180 108 136 179 109 134 176 109 134 174 108 133 173 108 132 172 106 132 171 104 133 170 104 131 169 104 130 168 103 131 167 101 130 166 101 130 168 99 130 168 98 130 168 97 131 168 96 130 169 96 130 169 95 128 168 94 129 166 93 128 165 92 128 163 94 127 161 93 127 162 93 128 160 93 127 158 94 127 156 94 125 155 93 123 154 92 121 152 91 119 170 119 160 170 119 159 171 118 157 171 119 155 172 117 153 173 117 152 173 115 151 175 114 150 177 111 149 179 110 147 181 110 145 183 109 142 183 109 141 183 108 140 183 108 138 182 108 139 181 106 138 180 106 138 180 105 138 179 105 136 178 106 136 177 107 135 175 108 135 173 108 135 171 107 133 170 105 133 169 104 132 168 103 132 168 103 130 166 104 130 165 102 130 164 100 130 164 98 130 165 96 129 165 96 130 165 96 131 166 94 130 166 92 129 164 92 129 163 91 129 162 91 128 160 91 127 158 91 128 158 91 128 158 92 128 156 92 126 154 92 124 152 92 122 152 90 119 152 91 119 171 120 161 171 121 160 172 121 158 172 120 155 173 118 153 173 117 151 173 115 150 175 113 150 176 112 150 178 111 148 179 112 146 181 111 143 181 110 142 182 108 141 183 107 140 181 107 139 180 106 139 178 105 139 178 104 138 178 104 137 177 105 136 177 106 136 175 105 136 172 106 136 169 106 135 168 104 134 167 103 133 166 102 132 166 102 130 165 103 130 164 102 130 163 100 130 162 98 130 163 95 130 163 94 131 163 93 132 163 93 131 163 90 130 162 89 131 161 89 130 159 89 129 157 88 128 155 89 128 155 89 128 156 90 128 153 90 125 152 90 123 150 90 121 150 88 119 149 88 118 171 122 162 171 122 162 172 121 161 172 119 158 173 118 156 174 116 154 174 115 151 175 114 150 176 112 149 178 112 147 179 111 145 179 112 143 181 111 142 181 109 142 181 107 140 181 105 139 179 105 139 177 105 139 176 103 139 176 104 138 175 105 137 174 105 137 173 105 136 171 105 136 168 105 135 167 104 133 166 102 133 165 101 132 165 102 130 165 102 129 164 102 130 162 99 129 161 97 130 160 95 130 161 94 131 160 93 132 160 91 131 161 88 130 160 86 132 158 87 131 156 86 131 154 87 130 153 86 129 153 87 127 151 88 127 150 88 124 149 87 122 148 85 121 147 85 119 145 86 118 171 122 161 171 122 162 172 122 161 172 120 159 173 118 158 175 116 155 175 115 153 175 114 151 176 114 150 177 112 147 177 111 145 178 111 143 180 111 141 180 108 141 180 106 140 181 105 140 179 104 141 176 104 140 175 104 139 175 103 137 174 103 137 173 103 136 171 104 136 170 105 134 168 104 134 166 103 132 165 101 132 164 101 132 164 101 131 163 101 129 162 100 130 161 98 129 159 96 129 158 94 130 159 94 130 157 92 130 157 90 129 157 87 129 157 85 130 155 85 131 153 85 130 151 84 129 151 84 128 150 85 126 148 85 123 147 84 121 147 82 120 145 82 119 144 83 119 143 84 118 172 121 162 172 121 161 173 120 161 174 119 159 174 117 158 176 115 158 176 115 155 176 113 152 177 113 151 177 113 149 178 111 145 178 110 143 178 109 141 178 106 141 178 105 141 178 104 141 177 104 142 175 103 142 174 102 140 174 101 139 172 101 137 171 102 136 170 103 135 169 104 133 167 103 133 165 102 132 165 101 131 164 101 131 162 100 131 161 99 130 160 99 130 160 97 129 158 94 129 157 92 129 157 91 129 156 90 129 155 87 128 154 85 128 154 83 129 153 82 129 152 82 128 149 82 127 148 82 125 147 82 123 146 81 121 146 79 119 145 78 118 144 78 119 142 80 119 141 80 118 173 121 162 173 121 161 174 120 161 174 118 160 175 116 159 176 115 159 177 114 157 178 112 154 178 111 151 178 112 149 179 110 146 178 108 144 178 107 141 177 105 141 176 103 142 176 103 144 176 102 144 175 102 144 174 101 142 173 100 139 172 100 137 170 100 135 168 102 134 167 102 133 165 102 133 164 102 131 165 101 131 162 100 130 161 99 130 159 99 130 158 98 130 158 96 130 157 93 129 156 91 128 154 89 128 153 88 127 154 85 126 153 83 127 151 81 127 150 82 127 149 81 127 146 80 124 144 79 123 144 79 121 145 78 119 144 77 118 144 75 117 142 76 119 141 77 119 139 79 117 171 121 163 172 121 161 173 119 161 175 118 161 176 116 160 177 114 160 178 112 158 179 111 156 178 109 153 178 108 150 178 107 148 179 107 146 177 105 144 175 103 143 174 102 144 173 101 145 173 100 144 173 100 143 173 99 142 173 99 141 171 99 139 168 100 136 165 101 134 165 102 133 163 102 132 162 102 131 162 101 130 160 99 129 159 98 129 158 98 130 156 96 130 155 94 130 154 92 128 155 91 127 153 89 128 152 86 127 152 83 126 152 81 126 149 81 125 149 80 125 147 79 124 144 79 122 143 78 121 143 77 120 143 76 118 143 75 118 142 74 117 141 75 118 140 76 118 139 77 117 169 119 163 170 119 163 172 118 162 174 117 162 176 115 161 178 111 161 177 110 160 178 109 157 179 108 154 180 107 152 180 106 149 179 104 147 177 103 147 174 102 146 172 101 145 171 100 145 171 99 145 171 98 144 170 99 142 170 99 142 169 99 141 166 99 139 164 100 136 163 102 134 161 102 132 160 102 131 159 100 129 158 99 128 158 98 128 157 97 128 155 95 130 154 93 129 153 90 128 153 89 127 151 88 127 151 85 126 151 82 126 149 79 125 148 78 125 147 78 124 145 77 123 144 76 121 143 77 119 142 75 119 141 74 117 140 73 117 141 74 117 140 74 118 139 75 117 139 75 116 