P3
50 50
255
177 182 76 179 184 74 180 185 74 181 184 73 182 184 72 184 182 71 183 182 71 184 181 70 184 180 70 185 179 70 186 180 68 188 178 68 189 178 68 189 176 68 191 176 67 191 175 65 190 173 64 192 172 65 194 171 66 196 169 67 197 166 68 200 165 70 201 163 70 201 163 70 200 161 70 199 158 70 198 156 69 197 156 68 197 155 68 195 155 67 193 154 67 191 154 67 189 150 67 187 148 68 185 146 68 182 144 67 179 142 66 177 140 67 176 138 66 175 136 65 173 134 63 173 133 63 172 134 62 173 135 61 173 136 60 174 135 60 174 134 60 174 133 61 173 130 60 174 128 59 174 181 76 177 182 73 177 184 73 178 183 72 179 181 71 181 181 71 180 179 71 181 178 70 183 178 68 183 178 67 184 178 67 185 177 68 186 176 68 187 176 67 189 175 67 190 174 65 190 173 65 192 171 65 195 169 65 197 168 67 199 165 69 201 164 71 202 163 71 202 162 70 201 161 69 201 160 69 200 157 69 198 156 69 197 155 69 196 154 68 194 153 66 192 152 66 190 149 66 189 147 67 186 146 66 183 142 66 180 139 65 178 137 65 176 135 65 176 133 64 175 131 62 174 131 62 174 133 61 173 133 59 173 134 58 174 132 58 174 130 57 174 129 58 174 126 59 174 123 59 171 179 75 173 180 74 174 182 73 175 182 72 176 181 71 178 179 69 177 177 70 178 176 69 180 175 67 182 176 66 183 176 66 184 176 67 185 174 68 185 174 67 187 173 66 190 171 66 192 172 66 194 170 66 197 167 65 199 165 67 200 164 69 201 163 70 202 162 71 202 162 69 202 161 68 202 159 68 201 158 68 199 156 68 198 155 69 197 154 68 195 153 66 193 152 66 192 150 65 190 147 66 187 145 65 184 141 65 181 138 64 179 136 64 177 133 63 176 132 62 176 130 62 177 129 61 176 130 60 175 132 58 175 131 58 175 129 57 174 127 57 174 125 58 174 123 59 174 121 59 168 179 75 169 180 74 171 181 73 172 181 73 172 179 71 174 178 70 175 177 69 176 175 68 178 174 67 181 174 67 183 175 66 183 174 67 184 172 69 185 171 67 187 171 67 190 170 67 192 170 66 194 167 65 197 165 66 199 163 67 200 161 68 200 160 70 201 160 70 201 160 68 201 159 68 202 158 67 201 156 67 200 155 67 198 154 68 197 153 67 194 153 66 193 151 66 193 148 66 191 145 66 187 143 65 185 140 64 182 137 63 179 134 62 178 131 63 177 130 63 177 129 63 176 127 61 176 129 59 176 129 59 176 129 58 175 127 57 174 124 57 173 122 57 173 120 58 173 119 59 165 177 75 167 178 75 168 178 73 169 177 73 170 176 71 170 176 71 171 175 70 171 173 68 175 173 68 179 173 67 182 173 67 183 174 68 184 172 69 186 170 68 188 170 67 189 169 67 191 169 66 194 166 65 196 164 65 196 162 66 198 159 68 199 158 69 199 158 68 199 158 67 199 158 67 201 156 67 201 154 66 200 152 66 198 152 67 196 151 65 194 150 65 192 149 65 193 147 65 192 143 65 188 141 65 186 138 64 182 135 64 179 132 64 178 130 64 178 128 63 177 127 63 178 126 62 176 126 61 176 126 60 176 125 59 175 124 57 173 121 57 173 120 56 173 119 57 172 117 58 163 174 74 165 175 74 166 175 73 167 176 72 167 175 71 168 174 70 169 172 69 169 171 69 172 170 68 177 171 67 180 171 67 182 173 68 184 171 69 187 169 68 189 168 66 191 167 66 191 166 66 193 164 66 194 163 66 195 161 66 196 159 67 197 158 68 196 157 68 197 157 67 198 155 67 199 153 66 200 152 64 200 150 65 198 149 64 196 148 64 194 147 64 194 147 65 193 145 64 193 142 65 190 140 65 187 137 64 184 135 64 182 132 64 181 129 65 180 127 64 179 126 62 179 125 62 178 124 61 177 124 60 177 123 59 175 122 57 173 120 57 173 118 56 172 116 55 172 115 57 161 174 74 162 173 73 163 173 73 163 174 72 165 173 71 166 171 70 167 169 69 167 168 68 170 168 67 175 168 66 179 170 67 182 171 69 184 171 68 186 169 67 189 167 65 190 166 66 191 164 67 191 163 67 193 161 67 194 159 68 196 158 69 197 157 69 196 155 68 196 154 66 196 152 66 197 150 64 198 149 63 198 147 64 197 146 64 195 145 64 194 144 64 194 143 65 193 142 64 192 138 64 190 136 64 187 135 65 186 134 65 184 130 65 183 127 66 182 126 66 181 125 63 179 124 63 178 123 62 179 122 60 179 122 58 178 121 57 176 118 57 173 115 56 172 114 55 171 114 55 160 173 75 159 172 74 161 172 73 163 172 72 164 171 72 164 168 72 165 167 71 166 165 70 169 165 68 173 166 67 178 167 67 181 168 68 184 169 67 186 168 66 189 168 67 189 166 67 189 164 68 189 162 69 190 160 68 192 157 69 193 156 69 195 155 69 196 152 69 196 152 68 196 149 66 196 148 64 196 147 64 196 145 63 196 143 64 195 142 64 194 140 64 194 139 64 194 138 64 192 135 64 190 133 65 188 133 65 187 131 67 186 128 67 185 126 66 184 123 65 181 123 63 180 122 62 180 121 61 181 121 60 180 121 59 179 119 58 177 117 58 173 114 56 172 112 54 171 112 54 159 172 75 159 171 75 161 170 74 163 170 73 163 168 73 163 166 73 165 165 72 167 164 71 169 164 70 173 165 69 177 165 69 181 166 68 184 167 67 187 167 67 188 166 68 189 164 69 190 162 70 190 161 70 189 159 69 190 156 70 192 155 70 194 153 70 194 151 69 195 149 69 196 147 66 195 145 65 194 145 63 193 143 63 193 141 63 194 140 65 194 137 65 194 135 65 194 134 65 192 133 65 189 131 65 187 130 66 187 129 67 187 126 68 186 123 66 184 122 64 183 121 63 182 121 62 182 120 62 181 119 61 180 119 59 179 118 60 176 116 59 174 113 57 172 111 55 171 111 55 159 170 78 160 169 77 161 170 77 162 169 75 162 167 75 162 165 74 163 163 73 165 163 72 169 163 70 173 164 69 177 165 69 181 166 68 186 168 68 187 167 68 189 164 69 189 162 70 190 160 71 188 159 70 188 158 70 189 154 70 190 153 70 191 151 70 192 149 70 192 146 69 193 144 68 193 143 65 193 143 64 192 142 63 192 140 64 191 139 65 192 136 65 193 132 65 193 131 65 191 130 65 188 130 65 186 129 65 186 128 66 187 124 66 186 120 66 185 120 64 184 120 63 183 119 63 182 119 64 181 118 63 179 116 60 177 116 61 175 114 59 174 113 57 172 112 55 171 112 54 159 170 80 160 168 80 161 169 78 161 168 76 161 165 74 162 164 74 163 163 73 165 162 72 168 162 71 173 162 69 177 165 69 182 166 68 186 168 68 187 166 69 188 164 70 189 161 71 189 159 71 188 157 71 188 156 70 189 154 69 189 150 69 190 149 70 189 146 70 190 144 69 192 142 68 193 140 66 192 140 65 192 139 64 191 138 65 190 137 66 192 133 65 193 131 65 191 130 66 189 128 66 186 128 65 185 129 66 186 126 67 187 122 67 187 119 66 185 118 65 185 117 64 184 117 62 182 117 64 180 115 64 178 113 62 176 112 61 174 112 59 173 112 58 172 111 56 170 110 55 158 169 81 160 167 79 160 167 79 160 166 77 160 163 75 162 161 74 164 161 72 166 161 71 169 163 70 173 163 70 176 164 70 181 166 69 184 166 70 186 165 69 186 163 70 188 161 69 189 159 70 188 156 70 188 154 70 189 151 68 188 149 68 188 147 69 188 143 69 189 141 68 191 139 68 192 137 67 192 136 67 192 136 66 191 135 66 191 134 66 191 133 66 190 131 66 188 128 65 187 127 65 186 127 65 185 126 67 185 124 68 187 122 68 187 119 67 186 117 66 185 117 65 184 115 64 183 113 64 181 112 65 178 111 63 175 111 61 172 111 59 170 110 58 171 111 57 169 109 55 156 168 80 157 166 79 157 166 79 159 165 78 159 163 77 161 160 75 163 159 73 166 160 71 169 162 70 174 163 71 177 164 72 180 166 70 182 166 71 184 164 71 185 161 69 187 158 70 187 157 69 187 155 69 187 152 69 188 149 67 188 147 67 186 144 69 186 140 68 186 139 69 188 136 68 190 133 68 192 132 68 191 131 67 191 131 66 191 130 66 189 130 66 188 128 66 187 127 66 185 125 65 185 125 66 186 123 68 186 122 69 187 122 69 186 119 68 186 118 67 185 116 66 184 114 66 181 112 67 179 111 66 175 111 64 172 110 63 169 110 61 169 109 60 169 108 58 169 107 55 154 167 79 155 165 79 156 164 79 157 163 78 159 161 77 161 159 75 163 159 73 166 160 71 169 162 72 174 163 73 176 163 72 178 164 72 179 164 72 182 162 71 184 160 70 186 157 70 187 154 69 187 152 69 186 151 68 187 148 68 187 145 69 185 141 69 184 138 68 185 135 67 186 132 67 188 129 66 189 129 67 190 128 67 190 128 65 189 128 65 187 126 65 187 124 66 186 124 66 184 122 66 183 121 67 184 120 68 185 120 69 184 119 69 184 118 70 183 116 69 182 114 68 181 112 69 179 111 68 176 110 67 172 109 65 169 108 64 168 108 62 167 108 59 168 106 59 168 106 56 153 165 79 153 164 78 154 162 78 155 161 78 158 160 77 161 160 75 162 160 73 165 161 72 169 162 72 173 163 73 175 162 72 177 161 72 177 162 72 179 161 72 181 159 71 183 155 69 184 153 68 184 150 67 184 148 68 185 146 68 184 142 69 183 139 69 183 135 69 183 132 66 184 129 66 185 127 66 187 126 66 188 125 66 187 125 64 187 125 64 185 121 65 185 120 66 183 120 66 182 119 68 181 118 69 182 117 69 182 117 69 182 116 70 181 116 70 181 113 70 180 111 71 179 110 71 177 109 70 175 109 68 172 108 66 169 108 65 167 108 63 167 106 60 167 105 60 167 105 58 151 162 79 153 161 78 155 160 77 156 160 77 158 160 76 160 161 75 162 162 74 164 161 74 167 161 73 171 161 72 174 160 73 174 160 73 174 159 72 176 159 72 178 158 71 179 156 69 181 152 68 181 149 67 182 147 67 183 144 67 182 141 67 182 136 68 182 131 69 182 129 67 183 127 66 184 125 66 185 122 66 186 122 66 186 121 64 187 120 64 185 119 66 184 117 66 181 116 67 180 116 68 180 115 69 180 114 69 180 114 69 179 113 70 179 111 70 178 110 70 178 109 71 177 108 71 177 107 71 174 107 69 171 106 68 169 106 66 170 107 64 169 106 62 167 106 60 166 105 58 149 161 79 151 160 78 154 159 77 155 159 77 157 159 77 159 160 76 160 161 76 162 161 75 166 160 73 169 160 73 171 159 73 172 158 74 173 158 72 174 158 71 175 157 71 176 154 69 177 151 67 179 146 67 180 144 66 181 141 66 181 137 66 181 133 67 180 129 68 180 126 68 181 123 67 181 122 66 182 119 66 183 118 66 184 117 65 185 115 65 184 115 66 183 115 67 181 114 68 180 113 69 179 113 69 179 113 69 179 111 70 177 110 69 177 110 69 177 108 70 177 108 71 177 108 72 176 107 72 173 106 71 172 105 68 171 105 66 170 106 64 170 106 63 169 105 62 167 106 60 147 160 78 150 159 78 152 159 77 154 158 78 155 158 79 157 159 79 158 160 77 161 159 76 164 157 74 166 157 74 169 156 73 171 156 74 173 156 73 172 155 72 173 154 71 173 151 70 174 149 69 176 146 67 177 141 66 178 138 65 178 134 66 178 129 67 178 126 68 178 123 68 178 121 68 179 119 68 179 116 68 180 114 67 180 113 66 181 113 66 182 112 66 182 112 67 180 111 68 179 111 69 178 110 68 178 109 69 178 109 70 176 108 70 176 109 70 176 107 70 177 107 71 176 107 71 175 106 71 174 104 70 173 103 69 173 103 67 171 104 65 171 104 65 170 104 64 169 104 63 145 159 77 148 159 77 150 158 77 152 157 77 154 157 80 156 157 80 158 158 79 160 157 78 162 156 77 164 154 75 167 154 75 170 153 75 170 153 73 171 151 72 170 150 71 171 148 70 171 147 69 173 144 68 173 140 66 174 135 65 175 130 66 175 125 68 175 121 68 175 120 69 175 119 69 176 116 70 177 112 68 178 111 67 179 110 65 179 110 66 180 109 66 180 108 66 179 108 67 176 107 68 177 106 68 176 107 68 176 106 70 176 105 70 176 107 70 176 107 70 176 106 71 175 107 71 175 105 71 175 103 71 175 102 70 174 102 69 172 102 68 172 102 67 172 102 67 171 102 66 145 159 76 147 157 76 149 157 77 150 155 79 152 155 79 155 155 81 156 155 80 158 154 79 161 154 78 164 153 76 166 151 76 168 152 76 169 150 74 169 148 72 168 147 71 169 145 70 169 143 69 168 141 67 169 137 66 172 132 65 173 126 65 172 121 69 172 118 70 173 117 71 173 115 71 174 112 71 175 110 71 175 108 69 176 107 66 177 106 66 178 105 66 177 104 65 177 105 67 175 103 68 175 103 68 175 103 69 175 103 70 176 104 70 175 105 71 176 106 71 176 104 71 175 104 71 175 104 72 176 102 72 176 101 71 175 100 70 174 100 69 173 101 69 174 102 69 173 102 68 145 157 76 147 156 76 149 155 77 149 154 79 151 153 80 153 153 81 155 152 81 158 150 81 160 152 79 163 152 77 164 150 76 166 149 76 166 148 74 167 147 71 166 145 72 165 142 69 164 140 68 165 136 67 166 133 67 168 128 66 169 123 67 170 118 70 170 114 72 171 113 73 171 112 73 172 110 72 172 108 72 172 106 72 172 104 70 174 102 67 175 101 65 176 101 66 176 102 67 175 101 66 175 100 67 175 100 69 175 100 70 176 102 71 175 104 72 175 105 72 176 104 72 175 103 71 175 102 73 177 101 73 177 100 73 175 99 71 174 99 70 174 101 70 174 102 70 174 102 70 145 155 78 147 154 78 148 154 78 149 152 79 150 150 81 152 151 81 154 150 82 157 149 82 159 149 81 161 149 78 163 148 76 163 147 76 163 145 74 164 144 72 163 142 71 162 139 70 162 136 69 163 132 68 163 128 68 165 124 67 167 119 68 168 114 71 168 112 74 169 110 75 169 108 75 169 107 74 169 105 74 169 103 72 170 101 71 172 99 68 173 99 66 175 99 65 176 100 66 175 100 64 175 98 66 174 98 69 175 99 70 175 100 72 176 102 71 176 103 71 175 102 72 175 100 73 177 100 73 178 99 75 178 98 75 176 99 74 176 99 73 176 100 72 176 101 71 175 101 70 145 153 79 147 152 79 148 151 79 148 150 81 150 148 81 152 147 81 154 148 82 157 147 83 159 147 81 162 146 79 163 146 77 162 145 74 161 143 74 160 141 71 160 139 70 160 136 70 161 132 70 160 129 69 161 125 69 162 120 69 164 115 70 166 112 73 167 110 75 168 108 75 168 106 76 167 104 76 166 102 75 167 99 73 168 98 72 169 97 71 172 96 68 173 98 66 174 98 65 175 97 65 175 95 67 175 96 69 175 98 71 174 99 72 174 100 71 176 100 70 175 99 72 176 98 73 178 97 75 178 98 76 178 98 77 177 99 77 177 99 75 177 100 73 177 100 72 176 100 72 147 151 80 148 150 81 147 148 81 149 148 81 150 146 82 152 146 82 154 146 82 157 145 82 159 145 80 160 145 78 160 145 76 160 143 74 159 141 73 158 138 71 158 137 70 159 134 70 159 129 70 158 126 70 159 124 70 161 118 71 162 114 72 164 110 74 165 107 75 166 106 76 166 104 77 165 101 76 165 100 75 167 98 73 167 96 71 167 94 71 169 94 70 171 95 67 172 96 66 173 95 65 175 95 67 174 95 69 174 97 70 174 97 71 174 98 71 175 98 70 175 97 71 176 96 73 177 95 74 177 96 76 177 96 77 178 97 78 177 97 76 177 98 74 176 98 73 177 98 73 148 149 81 150 147 82 149 146 82 149 145 82 150 142 83 152 142 83 154 144 81 155 143 80 157 142 79 158 141 78 158 141 75 158 139 73 157 137 73 157 135 71 157 133 70 157 130 70 157 125 70 157 123 71 158 121 72 158 117 72 161 113 73 162 110 75 163 106 76 162 104 77 163 102 78 163 99 77 164 98 75 165 97 73 166 96 72 166 93 72 168 93 72 170 93 71 171 93 69 172 93 68 174 94 68 174 93 68 174 94 69 174 95 71 174 95 71 174 95 71 174 95 72 176 95 72 177 93 74 178 94 76 179 94 78 178 94 77 177 94 76 176 94 74 177 95 73 178 95 73 150 145 81 150 144 82 149 142 82 149 141 83 149 140 84 150 140 83 152 140 80 153 140 79 154 140 77 156 139 76 156 139 75 155 137 73 155 134 72 155 131 71 155 129 71 154 125 71 155 122 70 156 120 72 158 117 72 157 114 72 159 110 73 160 107 74 161 104 77 161 101 78 162 98 78 162 97 77 164 96 76 165 96 74 166 94 73 167 92 73 168 92 74 170 92 73 172 91 71 172 93 69 173 93 68 174 92 69 175 92 70 175 93 70 174 93 72 175 93 72 176 95 72 178 94 72 178 92 73 179 92 75 179 92 77 179 92 77 178 92 75 177 91 74 178 92 73 178 92 73 150 142 81 150 140 82 149 139 82 148 138 82 148 137 83 150 136 81 150 137 80 152 137 79 153 137 76 154 137 75 153 136 73 154 134 73 154 130 72 154 128 71 153 125 72 153 121 72 154 118 72 155 117 73 157 114 72 157 112 73 157 108 74 159 104 75 160 102 77 160 99 78 161 97 78 162 96 77 164 95 76 165 95 74 166 94 74 168 93 74 168 93 74 168 92 73 170 91 72 170 92 70 172 92 69 173 92 69 174 91 70 173 91 70 174 92 72 175 92 71 177 93 71 178 93 72 178 91 73 178 90 74 179 91 76 179 91 77 178 90 75 177 89 73 179 90 72 179 89 72 150 139 81 149 138 83 149 136 83 149 135 82 147 135 81 148 134 81 149 134 81 150 134 79 153 133 76 153 134 75 153 133 74 152 131 73 152 127 72 152 124 72 152 122 73 153 119 73 154 116 73 154 114 73 156 112 73 156 109 74 156 106 75 158 103 76 159 101 76 160 99 77 161 97 77 164 96 77 164 94 76 165 95 76 166 93 75 167 93 74 168 91 73 169 91 73 169 90 73 170 90 71 170 90 70 171 89 69 172 89 69 173 90 71 174 91 71 174 91 71 176 92 71 177 91 71 178 90 73 179 90 74 179 90 76 178 90 77 178 90 76 177 89 74 178 88 72 179 87 71 149 138 83 149 136 82 149 134 82 148 133 82 148 132 82 148 130 81 148 130 80 148 130 79 151 130 77 152 130 75 151 129 74 151 127 74 151 123 74 150 120 74 150 119 75 152 116 74 153 114 75 153 112 75 154 110 75 156 107 76 156 105 76 157 101 76 159 100 76 161 98 77 163 97 78 164 95 77 164 94 77 166 93 77 167 91 76 168 91 75 169 90 73 170 89 72 170 88 71 169 89 71 170 88 70 171 87 69 173 87 69 174 88 70 175 90 71 175 90 70 176 90 70 177 89 71 177 89 72 178 88 74 178 89 75 178 88 76 178 88 76 177 87 74 178 86 73 179 85 71 149 136 84 149 133 84 148 132 82 148 131 83 149 130 83 148 129 83 148 129 80 148 128 79 149 127 78 150 128 77 151 126 76 151 123 75 151 120 75 150 118 76 149 115 78 150 113 77 151 111 77 152 109 76 153 108 75 155 105 76 157 104 76 158 102 76 159 99 76 161 97 78 162 95 78 163 94 79 164 93 78 167 92 78 168 91 77 169 90 76 170 89 74 170 88 72 170 87 71 170 87 70 170 87 70 171 87 69 173 87 71 174 87 71 175 89 71 175 88 71 175 88 70 175 88 71 176 88 71 177 87 72 177 87 74 177 86 74 178 86 75 178 86 75 178 85 73 179 84 72 148 131 85 148 132 85 148 130 83 149 129 84 149 129 84 147 129 83 147 127 82 148 126 79 148 125 78 149 124 79 150 122 79 149 120 79 150 117 79 150 115 79 149 113 80 150 110 79 151 107 78 153 106 77 155 105 77 156 104 76 157 102 77 158 100 77 160 98 78 161 95 78 162 94 80 163 92 80 164 92 79 166 91 79 168 89 78 169 89 77 170 88 76 170 87 74 170 86 72 170 87 70 171 87 70 173 86 71 175 86 71 175 86 72 176 87 72 174 86 71 173 86 71 174 85 72 175 85 71 176 86 71 176 86 72 176 85 72 177 85 73 178 85 74 178 84 74 178 84 72 147 128 83 147 128 84 147 128 83 148 127 83 147 126 84 146 126 85 144 125 85 146 123 82 147 123 81 148 121 82 149 119 82 149 117 81 148 114 81 148 112 82 149 109 82 150 106 80 153 104 79 154 103 78 156 102 80 157 101 79 159 99 78 160 97 78 161 95 78 162 93 78 163 92 79 164 91 80 164 91 80 166 90 80 168 88 78 168 87 77 167 87 76 168 86 75 170 85 73 171 86 72 171 85 72 174 85 73 176 86 72 176 86 72 177 87 72 174 86 72 173 84 72 172 84 72 173 84 73 175 84 73 177 84 73 177 85 72 176 86 72 176 85 72 177 84 72 176 83 70 147 125 83 147 124 83 146 125 82 144 124 82 144 124 84 144 123 85 143 122 85 143 122 84 144 121 84 146 119 82 149 116 82 149 113 82 149 111 82 148 108 83 149 105 83 152 103 81 154 102 79 155 102 80 156 100 81 157 97 80 159 96 80 160 95 80 162 93 78 162 92 78 163 91 79 163 91 80 164 91 80 166 90 80 168 89 79 168 88 78 168 88 77 169 87 74 171 85 74 172 85 73 172 85 74 174 86 75 175 86 74 175 86 74 176 86 74 174 86 73 172 84 73 171 83 73 173 84 73 175 84 74 176 84 73 176 84 71 176 85 70 176 83 69 177 83 69 176 83 69 147 121 82 146 121 81 145 123 81 143 122 82 142 122 83 141 122 84 141 120 84 141 119 85 141 118 86 144 116 86 148 113 85 149 111 84 150 107 83 149 105 83 150 103 83 152 101 83 154 101 82 154 99 82 156 97 82 158 95 82 159 94 81 160 93 81 163 91 80 162 90 78 163 91 78 164 91 79 165 91 80 166 90 81 166 89 79 167 88 79 169 87 77 171 85 76 171 85 76 172 84 76 173 84 76 173 85 76 174 85 76 175 84 76 175 84 75 173 84 74 172 84 74 171 83 74 172 83 74 174 83 75 174 83 74 173 84 71 174 85 70 175 84 69 176 83 68 176 83 68 147 118 80 147 119 80 145 119 81 143 119 82 141 119 84 140 119 85 140 118 85 140 116 86 140 114 88 142 112 88 145 110 88 147 107 86 149 104 85 150 102 84 151 100 84 152 97 84 153 97 84 156 95 84 157 93 84 158 92 84 159 90 82 162 89 82 163 89 81 163 89 79 163 90 79 165 90 79 166 89 80 166 88 82 167 88 81 167 88 80 169 86 78 170 84 77 171 85 76 172 85 76 174 84 75 174 84 76 173 83 76 173 83 77 173 84 75 171 83 75 171 82 76 172 83 77 172 82 76 173 82 76 172 83 74 172 84 72 173 84 71 175 84 68 176 84 68 177 83 67 147 115 80 146 116 80 145 116 81 142 116 84 141 116 85 140 116 85 139 115 86 139 114 86 139 112 88 141 109 90 143 107 91 145 104 89 148 101 87 149 98 86 151 96 86 151 95 86 153 93 86 155 91 86 157 89 86 158 88 85 160 87 84 162 87 84 164 87 83 164 87 82 164 88 81 166 88 80 167 87 80 167 87 81 167 87 80 168 86 80 169 85 79 169 84 78 170 84 76 171 84 75 172 84 75 172 82 75 171 81 75 171 82 76 170 82 76 169 82 76 169 81 77 169 81 77 169 81 77 170 82 76 171 83 74 171 83 73 172 84 71 175 84 69 177 85 68 178 84 66 147 113 80 146 114 81 144 113 82 142 113 85 140 113 85 139 113 87 138 113 87 137 112 88 138 109 90 141 106 92 143 104 93 145 102 91 148 99 89 149 96 89 150 95 89 152 92 88 154 90 88 154 88 88 155 86 88 157 85 88 159 84 87 162 85 87 164 86 86 164 86 85 165 85 83 167 86 82 167 85 81 168 85 80 167 85 80 168 86 80 168 86 79 167 85 78 168 84 76 170 84 74 169 83 74 169 82 74 168 81 75 169 80 76 168 81 76 167 81 77 167 81 77 167 81 78 166 80 77 166 81 76 167 82 75 168 82 73 171 83 71 173 83 69 176 84 68 178 83 67 146 110 80 145 110 82 144 111 83 143 111 85 141 110 86 139 111 87 138 109 88 137 107 89 139 106 92 141 105 93 143 103 94 145 101 93 147 99 92 148 96 92 150 93 90 153 91 90 155 87 89 155 85 89 154 84 89 156 83 88 159 82 89 161 84 88 163 84 86 164 84 85 166 83 83 167 83 82 167 84 81 167 84 79 167 84 79 169 85 79 167 86 79 166 85 79 167 84 77 166 84 75 166 82 73 166 81 73 165 80 75 165 79 75 164 80 75 164 82 76 164 82 76 165 81 77 164 79 77 163 79 76 165 81 73 167 81 72 169 82 70 171 83 69 174 83 68 176 83 66 145 109 81 144 109 83 143 109 85 141 108 87 140 109 87 139 108 88 138 107 90 138 105 91 138 103 92 140 103 93 142 101 94 146 99 94 149 97 92 150 95 91 154 91 90 155 90 90 155 86 90 155 84 90 155 83 89 156 82 89 159 81 89 161 82 87 163 82 85 162 82 84 165 82 83 166 81 81 166 82 81 167 84 80 168 84 79 168 84 79 167 85 79 165 86 78 165 84 77 163 83 77 163 81 75 163 80 74 162 79 74 162 79 73 161 81 74 160 83 75 161 82 75 162 82 75 162 80 75 162 78 75 163 78 73 166 80 71 168 82 69 171 82 68 173 83 67 175 84 66 144 108 82 143 107 84 141 107 86 141 108 88 140 108 88 139 106 89 139 104 91 139 103 91 139 101 93 141 101 92 144 100 93 148 98 93 150 96 92 152 93 91 154 91 90 155 89 90 156 86 90 157 84 91 157 82 90 158 81 90 160 80 88 161 80 86 162 79 83 162 80 83 164 81 82 165 80 81 166 82 82 167 83 81 168 84 80 168 84 81 166 85 80 165 85 78 163 83 78 161 81 78 160 80 77 160 79 75 159 79 74 159 80 72 158 82 72 157 83 73 159 83 72 159 81 73 161 80 72 160 79 72 162 77 71 166 79 69 168 81 68 170 80 67 172 82 65 174 83 65 144 106 82 143 106 84 142 107 86 141 107 88 140 106 89 140 105 89 140 102 91 141 101 91 141 100 92 143 100 93 145 99 92 147 97 92 151 95 91 153 93 92 154 91 92 155 89 91 157 86 93 159 84 93 159 82 91 160 80 91 161 80 89 161 78 86 160 79 85 162 78 83 164 79 83 164 80 83 165 82 83 166 83 83 166 84 82 167 84 82 165 84 80 164 82 79 162 81 78 160 80 77 159 78 76 158 79 74 157 79 72 157 79 70 156 81 70 156 83 70 159 82 70 159 81 70 158 81 70 159 81 71 161 79 70 164 79 68 166 79 66 168 80 66 170 81 65 173 82 65 142 105 82 142 106 84 142 105 87 141 105 88 140 105 89 140 103 90 140 101 90 141 100 90 142 100 91 144 99 91 144 96 91 147 95 90 151 93 90 153 92 91 155 91 92 156 88 93 158 85 94 159 82 93 160 81 91 161 80 91 161 78 88 161 79 86 160 79 85 161 77 84 162 77 84 163 80 85 164 82 85 164 83 85 165 83 83 166 83 83 166 82 81 164 81 79 163 80 77 160 79 76 157 78 75 155 79 73 154 79 70 154 79 68 155 80 68 156 81 68 158 81 68 157 81 68 157 80 68 158 80 68 160 79 68 162 78 66 164 79 65 167 79 66 169 79 65 172 81 65 142 104 81 142 104 84 142 104 85 140 103 88 140 103 89 140 101 89 140 99 89 141 98 89 143 98 89 144 97 89 146 95 90 147 92 89 151 91 90 153 89 90 155 88 91 157 87 92 158 83 93 159 81 94 159 79 92 160 79 91 161 78 88 161 79 86 159 78 84 160 77 85 162 77 86 162 79 85 164 81 85 164 83 84 165 83 84 164 83 82 163 82 80 161 80 78 161 79 77 159 79 75 156 80 73 155 80 72 154 80 70 154 79 68 154 80 68 156 81 67 157 82 67 157 81 67 157 80 67 158 79 67 160 78 66 162 77 65 163 78 64 165 78 66 168 78 65 172 79 65 143 103 81 143 102 83 142 102 83 141 101 85 141 100 87 140 98 88 140 98 89 141 97 88 142 94 88 144 94 88 146 93 87 148 91 88 151 90 88 153 87 90 155 86 91 156 85 92 158 83 93 159 81 93 159 79 94 160 79 92 160 79 90 160 79 86 160 78 85 161 77 85 161 78 86 162 80 85 163 81 84 164 82 83 163 82 83 162 82 82 161 83 80 159 81 79 159 81 78 157 81 75 157 81 73 156 81 70 154 80 70 153 80 68 154 80 67 155 80 66 156 81 67 157 81 67 157 80 66 158 79 65 160 77 64 162 78 63 163 78 63 166 78 64 169 78 65 172 79 65 143 101 81 144 100 82 142 100 81 141 99 83 141 98 85 141 96 85 141 95 87 141 94 87 143 92 87 144 92 87 146 91 86 147 89 86 149 88 87 152 86 88 154 84 91 156 84 93 158 82 93 159 81 93 159 80 93 159 80 93 160 79 91 161 79 87 161 79 85 160 78 84 160 78 85 161 80 85 162 80 83 162 80 83 163 80 82 162 80 81 160 81 81 159 82 79 158 82 78 157 82 76 157 81 73 155 81 70 154 81 69 154 81 68 155 80 67 155 79 67 156 80 66 156 81 67 156 80 66 158 79 64 160 79 64 163 79 64 164 79 62 167 78 62 170 79 63 172 79 64 143 99 81 143 99 82 143 98 82 142 97 82 142 95 82 143 93 83 142 92 85 142 92 85 142 91 85 144 90 85 145 88 86 146 87 85 148 86 86 151 84 88 154 83 90 156 82 92 157 82 93 158 81 94 160 81 94 160 79 93 159 78 91 160 78 88 161 79 86 160 78 85 160 78 85 161 79 86 164 79 84 164 79 83 164 79 84 163 80 83 159 81 81 158 82 79 158 83 77 158 83 76 157 82 73 156 82 70 155 82 69 156 82 68 156 81 66 155 80 66 157 79 66 157 80 66 157 80 66 158 79 65 161 77 65 163 78 64 166 78 62 168 79 62 170 79 61 172 79 62 144 97 81 145 97 82 144 95 83 144 93 81 144 91 81 144 90 81 144 90 83 144 90 84 144 90 85 144 88 85 145 85 85 146 85 85 147 84 86 151 83 88 153 82 89 154 80 91 156 80 93 157 79 94 159 79 94 161 78 93 162 77 92 161 76 89 161 77 86 162 78 86 162 77 87 163 77 86 164 78 85 164 78 84 164 78 85 162 80 84 160 81 83 159 83 81 159 84 79 158 85 77 158 84 73 158 83 70 157 83 69 156 83 68 157 82 67 156 81 67 158 80 66 158 79 65 159 79 66 160 78 66 162 77 65 164 76 63 166 77 62 169 78 61 171 78 61 173 78 62 146 94 81 147 93 83 146 92 82 146 90 81 145 89 81 146 88 81 146 87 81 148 88 83 147 88 84 147 86 85 147 84 85 147 83 86 150 82 86 152 80 87 154 81 89 154 79 90 157 77 92 159 77 93 160 77 93 163 76 92 164 75 92 163 75 91 163 75 89 164 75 89 164 76 89 164 76 87 163 76 86 164 77 85 164 79 85 164 81 85 162 81 84 161 83 82 159 83 80 159 84 77 158 83 76 157 83 72 157 83 69 157 82 68 157 81 67 157 79 67 157 79 66 157 78 66 159 78 66 161 77 65 163 77 65 166 76 63 168 75 62 171 75 62 172 76 62 175 76 63 147 90 83 147 89 83 147 89 83 146 88 82 146 87 82 147 86 83 148 86 82 148 87 83 148 87 83 147 85 85 149 83 86 151 82 86 152 81 87 153 80 88 154 79 88 156 78 91 158 76 92 160 77 93 162 76 92 163 75 91 164 74 91 165 74 91 165 73 91 166 73 91 166 74 90 166 74 89 165 75 87 165 76 86 165 78 86 165 80 86 163 81 85 162 81 83 160 82 81 159 82 78 159 82 77 158 83 74 158 83 71 157 82 69 158 80 67 159 79 67 158 80 67 157 80 67 159 79 66 161 77 65 164 76 65 167 74 63 170 72 62 173 73 62 173 73 63 175 73 66 148 86 83 148 85 83 147 86 83 146 84 82 146 84 80 148 84 81 149 85 82 149 85 83 149 85 84 149 84 85 150 83 87 152 82 87 154 80 88 155 79 89 156 77 89 157 77 90 159 76 92 161 76 92 162 76 93 164 75 92 164 73 91 166 74 92 166 72 92 166 71 92 166 72 91 166 72 89 167 73 88 166 75 87 165 77 87 165 78 87 164 79 87 163 79 85 161 80 83 161 80 80 160 81 78 160 82 76 159 83 74 159 82 70 159 79 68 159 79 68 159 79 68 158 78 67 159 78 66 162 76 66 165 75 65 168 72 64 171 71 63 173 71 63 174 71 64 177 70 67 