P3
50 50
255
77 144 70 77 143 70 77 142 70 78 140 71 78 138 70 78 136 70 79 135 70 79 133 70 80 133 71 80 134 71 80 134 71 79 133 73 78 131 74 78 131 77 76 130 80 75 128 80 74 128 80 73 127 82 72 125 83 70 124 85 69 123 86 68 120 87 69 118 88 72 115 88 74 114 89 74 111 90 74 109 91 74 107 91 75 105 91 74 103 92 74 103 92 74 103 92 74 101 94 74 99 95 73 99 96 73 99 96 74 98 98 74 97 98 76 94 98 77 91 98 78 89 99 78 87 99 78 87 100 79 88 100 78 88 102 78 89 103 78 88 105 77 88 108 79 87 111 81 88 114 73 148 70 74 146 69 75 144 69 76 142 69 76 139 70 77 137 70 77 136 71 78 134 71 77 133 71 78 134 71 80 135 71 80 133 73 78 132 76 78 131 78 76 132 80 75 131 81 73 129 82 72 127 83 71 125 84 70 123 85 69 121 85 69 120 87 68 118 87 71 115 88 73 113 89 73 110 90 74 109 91 74 109 90 74 106 90 73 105 91 72 103 92 73 102 93 72 100 93 72 99 95 72 99 96 72 98 97 72 97 97 72 96 97 75 95 98 76 92 98 77 91 99 77 89 99 77 88 100 77 89 101 78 89 103 78 89 105 79 88 106 77 88 108 78 89 111 80 89 113 70 148 69 71 148 68 72 145 68 73 142 69 74 139 70 75 138 70 76 137 70 75 135 71 76 134 71 76 135 72 78 134 72 79 133 73 79 131 75 77 130 78 75 131 80 74 131 81 72 129 82 71 126 83 70 125 84 69 123 85 69 121 85 69 120 86 69 118 87 71 114 87 72 112 89 73 110 89 74 110 89 73 108 89 72 107 89 73 105 89 73 103 91 73 102 92 72 101 94 71 99 95 71 98 96 71 98 97 71 96 97 72 95 96 74 94 97 74 94 97 75 92 97 76 91 99 77 89 100 76 89 101 77 89 103 78 88 104 77 89 106 76 89 109 77 90 112 78 90 114 68 149 69 69 148 68 70 146 68 70 143 70 70 141 71 72 140 71 74 139 70 73 137 70 75 136 71 75 135 72 76 135 73 77 133 74 77 131 75 76 131 77 74 130 78 73 130 80 72 129 81 71 128 82 69 125 83 68 124 84 69 122 85 70 120 86 71 118 85 72 115 86 72 113 87 72 111 87 72 110 86 72 108 86 72 106 87 72 105 88 73 103 90 72 101 92 72 100 94 71 99 95 71 98 95 70 97 95 71 96 95 72 96 94 72 95 95 73 95 96 74 94 98 76 92 99 76 91 100 76 90 101 76 90 102 76 89 104 76 90 105 75 90 109 76 91 112 77 91 114 65 150 69 66 150 69 68 147 69 69 145 71 68 143 71 70 143 71 71 141 71 72 139 71 73 138 71 73 136 73 73 135 73 74 134 74 74 133 76 74 132 76 73 131 77 73 130 80 72 129 81 69 127 81 68 126 82 67 123 83 68 121 83 70 120 84 72 117 83 72 115 84 70 113 85 71 111 85 71 109 85 71 108 86 71 106 88 72 105 88 72 102 89 71 101 90 71 100 91 72 99 93 71 98 93 70 98 92 71 97 93 71 98 94 73 98 95 73 96 95 74 95 97 75 93 99 76 92 100 75 91 101 75 90 102 75 89 104 75 90 106 75 90 110 75 91 112 76 92 114 64 151 70 64 151 70 65 149 70 66 147 71 66 147 71 67 147 72 69 144 72 71 142 72 72 139 72 72 138 74 72 137 73 71 136 75 71 134 76 71 134 78 71 133 78 71 131 80 70 129 82 69 127 82 67 125 82 67 123 82 67 121 82 70 118 82 71 116 83 71 114 84 71 112 84 71 110 84 70 108 85 70 107 86 71 106 87 72 105 86 72 103 88 71 102 89 71 100 90 71 99 91 71 100 92 71 100 92 72 101 93 73 101 94 73 101 95 74 99 96 75 97 97 75 94 99 75 92 99 74 91 101 74 91 101 74 91 104 73 91 107 73 90 111 74 91 113 75 92 115 62 151 71 62 151 72 62 150 72 64 151 72 65 150 72 66 150 73 68 148 73 69 143 74 70 140 74 70 140 73 69 138 73 68 138 75 68 136 78 69 135 80 69 134 80 69 133 81 69 130 83 69 127 83 68 125 82 68 123 81 68 121 81 70 118 82 70 115 82 71 113 83 71 112 84 72 111 86 71 109 87 70 109 87 71 107 87 71 106 87 72 105 89 71 103 89 71 102 89 71 102 91 71 102 92 72 102 93 73 102 94 74 103 95 75 102 96 75 101 97 76 99 98 76 96 99 75 94 99 74 93 101 73 92 102 73 92 104 73 92 107 72 91 110 73 92 113 73 93 116 61 153 73 60 153 73 61 154 74 62 154 73 62 153 73 64 152 75 65 151 76 66 147 76 67 143 74 66 142 74 67 140 76 66 139 78 65 139 79 66 138 81 67 136 82 67 134 82 68 130 82 68 127 82 67 126 81 67 124 81 68 121 82 69 117 81 70 114 82 71 112 83 72 111 84 73 110 85 72 109 87 71 109 87 72 108 86 72 107 87 73 106 89 72 105 89 71 104 90 71 103 91 71 104 93 73 103 94 74 103 95 75 104 96 76 103 97 76 102 98 77 101 99 76 98 100 75 96 100 74 94 102 74 93 104 74 94 105 74 94 107 74 93 111 72 94 115 72 94 117 59 153 74 60 154 73 60 155 73 60 157 73 60 155 74 62 154 76 62 153 77 62 150 77 62 147 75 63 145 76 64 142 77 64 141 79 63 139 81 63 139 82 65 136 82 65 133 83 66 129 83 67 127 82 66 126 81 66 123 80 68 121 81 68 116 80 70 112 81 71 110 82 71 110 83 70 110 84 69 109 85 69 108 87 70 108 87 73 107 87 73 107 88 73 106 90 72 106 91 72 105 92 73 104 92 74 106 93 75 105 95 76 105 96 77 104 97 77 103 98 77 101 99 78 100 100 77 97 102 76 95 104 75 94 106 75 95 107 75 95 109 75 95 113 73 95 116 72 96 119 58 153 74 58 154 73 58 156 73 57 157 73 58 156 75 60 155 78 60 154 79 59 152 78 59 150 77 60 147 77 60 143 79 61 141 80 61 139 81 62 138 82 64 135 83 64 132 83 64 129 83 66 127 82 66 125 82 65 122 81 66 120 80 66 116 80 67 112 80 69 110 80 69 109 82 68 109 83 67 108 84 67 107 86 69 107 86 71 107 87 73 107 87 73 107 89 73 107 91 73 106 92 73 106 92 74 108 93 75 108 95 77 107 96 78 106 98 77 105 99 78 102 100 77 100 101 76 97 104 74 94 106 74 94 108 74 94 109 75 96 111 75 97 115 75 97 118 75 98 120 56 153 73 54 154 74 54 155 73 55 156 74 56 156 76 57 156 78 58 155 79 57 153 80 57 151 79 57 148 80 58 144 81 59 142 82 59 140 82 61 137 82 63 134 83 64 132 83 65 129 82 66 126 82 65 123 82 65 121 82 65 119 81 65 115 81 66 111 80 68 109 80 68 108 82 67 107 82 65 106 83 66 106 84 67 106 86 69 107 86 70 107 87 71 107 88 72 107 91 74 107 91 74 108 93 75 108 94 75 108 95 75 107 97 76 106 99 75 105 100 75 102 101 75 100 102 73 97 105 72 96 107 72 95 110 71 97 112 73 98 113 75 98 116 76 98 118 76 100 122 53 153 72 52 154 73 52 155 73 53 155 74 55 156 76 56 156 78 56 156 79 56 154 79 56 152 80 56 149 81 57 146 82 59 144 82 59 141 83 61 138 83 62 134 84 64 131 83 66 128 83 67 124 83 67 122 83 66 121 83 66 119 82 64 116 82 65 112 81 65 110 82 64 109 82 63 107 82 65 104 83 66 104 85 66 104 86 67 106 86 69 107 87 70 108 88 71 107 90 73 107 91 73 108 93 73 107 94 75 107 96 75 107 98 75 106 99 75 105 100 73 103 101 72 100 103 72 99 106 71 98 108 69 98 110 70 98 113 72 100 115 75 99 117 75 100 119 75 101 122 51 153 74 51 153 75 51 154 74 51 155 75 52 155 76 55 156 77 55 156 78 55 155 80 55 153 81 56 150 82 56 146 81 58 144 80 60 142 81 61 138 82 62 134 83 64 131 84 65 127 84 66 124 84 67 122 83 66 118 82 66 117 82 64 115 83 63 113 83 64 111 83 63 109 82 63 105 83 64 103 85 65 103 87 66 104 87 66 106 88 68 109 88 68 109 88 70 108 90 71 107 91 72 107 93 71 107 94 72 107 97 72 106 98 73 106 100 72 105 101 71 104 103 70 101 104 69 100 106 68 99 109 67 99 110 69 100 114 71 102 116 72 102 119 73 103 120 74 104 121 50 153 76 50 153 76 50 154 75 49 154 75 51 154 76 52 155 77 53 155 80 54 153 81 54 151 81 55 149 80 56 148 80 58 145 79 60 143 79 61 138 80 63 135 81 64 131 82 65 129 83 66 124 84 66 121 82 66 117 82 65 115 82 64 114 83 61 113 85 63 111 84 64 108 83 63 105 84 64 104 86 65 103 89 66 104 89 66 107 89 67 109 90 67 110 90 68 109 92 69 108 92 70 107 93 69 107 95 69 107 97 70 107 99 69 106 101 69 106 104 68 104 105 67 103 107 68 102 108 67 101 109 67 101 111 69 103 113 71 104 116 71 105 118 71 104 120 73 105 121 49 154 75 50 155 75 49 154 75 48 153 75 49 154 75 50 154 76 51 154 79 52 153 81 53 150 81 55 149 79 57 147 78 58 145 78 60 142 79 61 139 79 63 135 80 64 131 81 65 128 83 66 124 83 66 120 82 65 118 83 64 116 83 62 112 84 61 110 85 63 110 85 63 107 85 64 105 85 64 104 87 66 104 90 67 105 91 68 107 92 68 108 91 68 109 93 68 109 93 68 109 93 69 109 94 68 108 95 67 109 97 67 108 99 67 106 102 66 106 105 66 106 107 65 105 109 66 105 109 66 104 111 67 104 111 68 103 114 69 105 116 70 106 118 71 106 120 72 107 121 50 155 75 49 155 74 48 155 74 48 155 75 47 155 75 48 154 76 49 153 78 50 151 81 52 149 81 54 147 79 57 144 77 58 141 77 59 139 78 61 139 78 63 136 80 64 132 81 66 128 81 66 123 82 66 120 81 65 117 82 63 114 83 62 111 83 62 108 84 62 107 83 63 106 85 63 105 86 64 104 88 66 103 91 67 105 92 69 107 93 69 108 94 68 108 95 68 108 94 68 109 94 68 109 95 67 110 97 65 109 98 66 109 100 65 108 102 65 107 105 65 108 107 65 108 108 65 106 109 66 106 110 67 105 111 68 105 113 68 106 117 68 107 119 69 108 121 69 109 122 49 156 74 48 156 73 48 156 73 48 156 74 47 155 75 47 153 76 47 153 78 49 151 79 51 149 78 54 146 77 56 143 76 58 140 77 60 139 77 60 137 77 62 135 78 63 132 79 64 128 80 64 122 80 65 119 80 64 116 79 63 114 80 62 111 81 62 108 81 63 106 82 63 105 83 63 105 86 64 105 89 65 104 91 66 105 93 68 106 95 69 106 96 68 107 96 68 108 95 68 109 95 67 110 96 67 111 98 66 112 99 65 109 101 64 108 104 63 108 106 63 110 106 64 110 106 64 108 108 64 107 110 65 107 111 66 107 114 66 108 116 66 110 119 67 110 120 69 110 122 48 157 74 47 157 74 48 157 74 46 156 75 45 154 75 46 152 76 46 151 76 48 150 77 50 148 75 53 145 75 56 143 76 58 141 77 59 138 76 59 137 76 59 135 76 60 132 76 61 128 76 62 123 75 63 119 77 62 117 77 62 114 79 62 110 80 62 108 80 63 106 82 63 104 82 63 104 85 62 104 89 63 104 91 64 106 93 66 106 96 67 105 97 67 106 97 67 107 97 67 109 96 66 111 96 65 112 97 66 112 98 64 110 101 62 110 103 61 110 104 62 111 105 63 111 105 64 110 107 63 109 109 63 108 111 64 109 113 65 110 115 66 112 117 68 113 119 68 112 121 48 157 75 46 157 75 46 157 75 45 156 75 44 153 76 44 151 76 45 150 75 48 149 76 50 147 75 52 145 75 54 143 76 56 140 76 57 139 75 58 137 75 59 134 75 59 132 74 58 127 73 60 124 73 60 120 74 61 118 76 62 115 78 62 112 79 63 109 80 63 107 81 62 105 82 63 103 85 62 103 88 61 104 91 62 106 93 63 107 94 66 107 96 66 106 97 66 108 98 65 110 97 65 112 98 65 113 99 65 112 99 64 111 100 62 112 102 60 111 104 61 112 105 62 113 105 62 112 107 62 110 108 63 110 110 63 111 113 64 111 115 66 112 117 66 113 118 66 114 119 47 158 75 46 157 76 43 156 76 43 154 76 43 152 76 44 149 75 46 147 75 49 146 74 50 146 74 52 145 74 53 143 74 55 140 74 56 138 74 57 135 73 57 133 72 58 130 72 57 127 71 57 124 71 58 121 72 60 119 75 60 115 79 62 112 80 61 110 80 61 108 81 61 106 82 61 105 84 61 105 87 62 106 90 63 107 91 63 108 93 65 108 95 65 108 97 64 107 98 64 109 98 65 111 99 64 112 99 64 112 99 63 111 101 62 112 103 61 111 104 61 111 104 61 113 106 62 113 108 62 112 109 63 111 111 63 110 112 65 110 115 66 112 116 66 113 118 66 114 119 45 157 76 44 156 77 43 154 78 43 152 76 43 149 76 45 147 75 47 145 73 49 144 73 49 145 74 50 144 74 52 143 74 53 139 73 54 137 72 56 133 70 57 131 70 56 128 70 56 125 69 55 123 70 57 121 72 57 118 75 59 114 78 59 112 78 60 109 79 60 108 79 59 106 81 59 106 82 59 107 86 61 108 89 61 109 90 62 109 92 63 109 94 63 108 95 63 108 96 63 108 97 63 110 98 64 111 98 64 110 100 62 110 101 61 111 103 62 111 105 60 112 105 61 112 107 61 113 109 62 113 109 62 113 110 63 111 113 64 111 114 66 112 116 66 114 118 65 113 119 45 156 75 44 155 76 43 153 77 42 150 76 42 148 75 45 146 74 47 145 73 49 143 74 48 143 73 49 141 73 52 141 73 53 137 72 53 135 71 54 133 69 55 130 68 55 127 68 54 124 69 53 122 70 55 120 71 56 117 74 57 114 75 57 111 76 58 109 75 59 108 77 59 107 79 58 107 81 58 108 83 59 109 87 60 110 89 61 109 91 62 108 93 62 108 94 63 109 95 63 110 96 62 110 97 63 110 97 64 110 98 63 111 100 61 111 103 61 111 105 60 112 107 61 112 109 61 113 110 62 114 111 62 114 111 63 112 114 65 112 115 66 113 116 66 113 118 65 112 120 45 157 75 44 155 75 43 153 77 42 149 77 42 147 76 44 146 75 46 145 74 47 143 72 48 141 72 49 139 71 51 138 72 53 137 72 53 135 70 53 132 68 54 130 67 54 125 68 54 124 68 54 122 70 54 120 71 55 117 72 55 114 73 53 111 72 55 109 72 55 109 74 56 108 78 57 108 81 57 108 83 58 111 85 59 110 87 60 110 91 61 109 92 62 108 93 62 110 94 62 110 95 62 110 96 63 110 97 63 110 98 63 111 99 62 111 102 61 111 105 61 112 107 62 112 108 62 112 109 62 112 110 62 113 112 64 113 113 66 113 114 66 112 115 65 112 116 65 113 119 44 157 75 43 155 75 42 153 77 41 150 76 41 148 74 43 147 74 45 146 74 45 144 72 47 142 71 48 139 71 50 137 71 52 136 70 52 134 69 53 132 67 54 128 66 54 124 67 54 122 69 53 121 70 53 119 71 52 115 71 52 113 70 52 112 70 52 110 71 53 109 73 54 109 76 55 109 79 56 109 82 57 110 85 57 111 87 59 111 91 60 111 93 61 111 93 61 111 94 61 111 95 62 112 95 61 111 97 63 111 96 64 111 98 63 110 100 62 111 103 62 110 106 62 110 108 63 110 109 63 111 110 63 112 112 65 112 113 66 110 114 66 110 115 65 111 115 66 112 119 44 158 76 41 156 75 40 153 76 41 150 75 42 149 74 42 148 73 43 147 72 44 145 71 45 143 70 47 140 70 49 137 70 51 135 69 52 134 67 54 131 67 53 128 66 53 125 67 53 122 68 52 121 69 51 118 69 50 114 69 51 113 69 51 111 70 51 110 70 51 110 72 52 110 74 53 111 77 54 111 81 56 110 84 55 111 88 57 112 90 58 113 92 59 113 93 60 112 94 60 112 95 60 113 95 61 111 95 63 111 96 64 112 97 64 111 99 64 111 102 63 110 104 63 109 106 64 110 108 64 111 109 64 112 109 66 111 110 66 109 112 66 108 114 66 109 115 65 110 118 41 159 76 38 157 76 38 153 75 39 151 74 41 150 73 40 148 72 42 147 71 43 147 69 43 145 69 45 142 70 48 139 70 49 136 68 51 133 66 53 131 65 53 128 66 53 125 67 52 122 68 52 120 68 50 118 68 50 114 68 49 113 69 48 111 69 49 111 70 51 112 71 52 112 74 53 112 76 54 112 79 54 111 83 54 112 87 55 113 89 56 114 91 58 114 92 59 114 94 59 114 95 60 113 96 61 112 96 62 112 96 63 111 97 63 110 99 64 111 101 63 110 104 63 109 106 63 109 107 64 110 107 65 111 107 67 110 108 67 108 110 66 107 112 66 109 114 66 110 117 40 160 77 39 157 76 39 153 74 39 151 73 40 150 72 40 149 71 41 148 69 42 147 69 42 145 69 44 144 69 46 141 69 47 138 67 49 136 66 51 132 66 52 129 66 51 126 67 52 123 67 52 121 66 50 118 67 48 116 67 49 114 68 47 111 69 48 112 70 51 113 70 52 113 73 53 112 76 54 112 79 53 113 82 53 114 85 55 114 88 57 115 90 57 115 93 58 115 95 58 115 95 59 114 97 60 114 96 60 112 97 61 111 99 62 110 100 62 110 101 62 109 103 61 109 106 61 109 106 63 110 107 65 111 107 66 111 108 66 108 109 66 107 112 66 108 113 66 110 115 41 160 76 40 157 75 42 154 73 42 152 72 42 150 70 42 150 69 41 149 68 41 148 69 41 147 69 42 146 69 43 144 68 46 141 67 48 139 65 50 134 65 51 130 66 50 126 67 50 125 66 51 123 66 50 120 66 49 117 66 48 115 66 47 113 68 48 113 69 50 113 70 52 114 72 54 114 76 54 115 80 53 114 82 53 115 84 54 116 86 56 116 88 56 117 91 58 117 93 58 116 94 60 116 95 60 115 94 60 113 96 60 112 98 60 111 99 61 110 101 60 109 103 60 109 105 60 110 106 61 110 106 63 110 107 65 110 107 66 109 109 67 107 111 66 107 113 66 109 116 44 160 74 44 158 74 44 155 73 44 153 71 44 152 70 43 150 68 41 149 68 41 150 68 40 148 69 42 147 68 43 146 67 45 144 66 48 141 66 49 136 66 50 131 66 49 128 66 50 127 66 51 126 65 50 122 65 49 119 65 49 117 66 49 115 66 48 115 68 49 114 70 51 115 72 54 115 74 54 115 77 54 115 80 54 115 81 54 116 84 55 118 86 57 118 88 58 118 90 59 116 92 59 116 93 59 115 94 59 113 96 59 113 96 59 111 98 58 110 100 59 109 102 59 111 104 59 111 105 62 111 106 64 111 106 65 109 107 67 108 109 67 108 111 66 108 114 66 109 118 47 161 74 46 158 73 47 155 73 46 154 71 44 153 70 43 152 68 42 151 68 41 150 68 40 149 68 41 148 67 43 147 66 46 146 65 48 143 65 49 138 65 49 133 66 48 131 66 49 129 65 49 127 64 51 125 64 50 122 65 49 121 65 50 119 66 49 117 67 50 116 69 52 116 72 54 116 74 55 115 76 56 116 78 56 115 81 57 118 82 58 118 84 58 119 87 58 119 88 58 119 89 58 117 92 58 115 93 60 114 95 59 113 95 57 111 95 57 111 99 57 111 102 58 112 103 59 112 105 60 112 106 62 112 107 65 111 108 66 109 110 66 109 112 66 109 115 66 109 118 49 161 73 48 158 72 47 156 71 48 155 70 46 154 69 44 154 68 43 152 67 41 151 68 41 150 68 42 151 67 44 150 67 46 148 66 47 144 65 47 141 65 47 136 66 48 134 65 48 131 65 48 129 64 50 128 64 50 126 64 50 125 65 50 123 65 50 121 66 50 119 67 52 117 71 55 117 73 56 117 75 57 117 77 57 118 77 58 119 80 58 119 83 59 120 86 59 121 88 58 121 89 58 118 92 58 116 92 60 114 93 59 113 93 57 111 95 57 112 97 57 112 99 58 113 103 58 112 104 61 112 105 62 113 107 62 113 108 64 111 110 65 111 113 65 110 117 66 109 120 51 161 72 49 157 71 49 156 69 49 155 67 47 154 67 45 155 66 44 155 66 43 153 66 42 153 66 43 152 67 44 151 67 44 149 67 47 147 65 47 143 65 47 140 66 48 137 66 48 135 65 48 133 65 49 132 64 49 131 64 48 128 65 49 127 65 49 125 65 50 122 67 52 120 71 55 118 73 58 118 75 58 118 76 58 119 76 58 119 79 57 120 82 58 121 85 58 122 88 58 121 88 58 119 89 59 117 90 59 115 91 59 114 92 58 113 95 58 113 96 58 113 98 59 113 101 59 113 103 60 113 104 61 114 106 61 114 108 62 113 111 63 112 113 65 112 118 65 111 122 54 162 70 52 159 68 52 156 66 50 155 65 49 155 64 47 155 64 46 155 63 45 154 63 45 155 65 44 153 66 44 152 67 45 150 67 47 148 66 47 146 66 47 144 66 47 141 67 48 138 67 48 137 66 49 135 65 47 134 64 47 132 64 47 130 65 48 128 65 49 127 67 51 125 69 55 122 71 58 120 74 60 120 77 60 120 77 58 120 78 58 122 81 58 122 85 58 122 86 58 121 87 59 119 87 59 117 87 59 116 89 59 113 91 59 113 93 59 112 95 59 113 97 59 114 100 60 114 101 60 115 103 60 115 105 61 115 108 62 114 112 62 113 114 64 112 119 65 112 124 56 162 68 55 159 67 54 157 65 52 156 63 50 156 63 48 155 63 48 155 63 47 155 63 46 155 65 45 154 66 45 153 66 46 151 68 47 148 68 47 147 68 47 145 67 47 143 68 48 141 69 48 139 67 48 138 65 46 137 64 46 136 64 46 133 64 47 131 65 49 129 66 51 128 68 55 125 70 58 123 73 60 122 75 60 121 77 60 121 79 60 122 81 59 121 84 59 121 85 59 120 86 61 119 86 61 117 86 61 115 88 61 112 90 60 111 92 59 111 95 60 113 98 60 113 100 61 114 100 61 115 102 61 115 105 61 115 108 61 116 112 62 114 116 63 114 120 64 114 124 58 162 65 57 159 64 56 157 62 54 156 63 52 156 63 50 155 62 49 155 63 48 155 64 47 155 65 45 155 66 47 153 67 47 151 68 47 149 68 47 148 68 47 146 68 48 145 69 48 143 69 49 140 68 48 139 66 47 138 64 46 136 64 46 134 64 46 132 64 48 131 67 51 130 68 54 128 70 57 125 73 59 123 74 61 122 76 62 122 79 62 123 81 61 122 84 61 121 85 61 121 85 62 119 85 62 115 86 62 113 87 61 112 90 60 111 92 60 111 94 59 112 98 59 113 100 60 114 101 60 115 103 61 115 105 61 117 109 62 116 113 61 116 118 63 116 121 64 116 126 61 161 64 59 159 62 58 156 61 56 156 62 53 155 63 50 155 63 48 155 63 48 155 63 48 155 64 47 155 65 48 155 66 47 153 66 47 151 67 47 149 66 48 148 66 48 146 68 49 145 69 49 143 69 48 141 66 47 139 65 46 136 66 46 135 67 48 133 67 49 133 68 50 132 70 52 129 72 56 127 73 59 124 74 61 123 76 63 123 79 63 123 82 63 122 83 63 121 85 62 120 86 61 117 86 61 113 87 61 112 89 61 111 90 60 111 92 60 110 94 60 112 97 58 114 100 58 114 101 60 115 103 61 116 106 62 116 110 64 117 113 63 117 118 64 117 123 64 118 127 62 161 63 61 159 62 59 157 62 56 156 62 53 156 63 51 155 62 50 155 62 48 156 63 49 156 63 49 155 63 48 155 63 48 154 63 47 153 65 47 150 65 48 149 65 49 147 67 49 146 69 50 143 69 49 142 67 49 140 66 47 137 67 47 135 69 49 134 69 51 135 70 51 133 71 53 130 73 56 128 74 58 126 75 60 125 77 62 124 78 64 123 80 64 121 83 64 120 85 62 118 86 61 115 87 60 113 89 61 112 90 61 111 90 60 111 92 60 110 94 60 112 97 60 114 100 60 114 102 62 115 104 63 117 107 64 116 110 65 119 114 66 119 118 66 119 122 66 119 127 64 161 63 63 159 62 61 158 62 58 157 61 55 157 61 54 157 61 52 156 61 52 157 62 50 156 62 49 156 62 49 155 63 48 154 62 47 153 63 47 152 63 48 149 65 49 148 67 49 145 68 49 143 67 50 142 67 50 140 68 50 138 69 50 136 70 51 136 71 51 135 72 52 133 73 54 132 74 56 130 74 57 128 75 59 127 78 61 126 79 63 123 81 64 121 83 64 119 84 62 117 86 62 114 87 61 113 89 61 113 89 61 112 90 61 111 92 61 111 94 61 112 97 61 113 99 61 114 102 63 114 104 65 115 107 65 116 111 67 119 116 67 120 119 67 120 123 67 119 127 66 162 64 65 160 63 63 159 61 61 158 61 58 158 61 57 157 61 56 157 61 55 157 60 52 157 61 51 156 62 50 155 62 49 153 63 48 153 63 49 152 64 48 151 66 48 148 67 48 145 67 48 143 67 49 142 66 50 140 69 51 139 70 52 137 71 53 137 72 52 136 72 53 135 73 53 133 73 55 130 74 57 128 75 57 127 78 58 125 80 60 123 81 62 120 82 63 118 84 62 117 86 62 114 87 61 113 87 61 114 88 61 113 90 62 112 93 62 111 94 62 112 96 62 113 100 63 113 103 64 114 104 66 115 106 68 117 111 68 120 116 66 121 121 67 121 125 68 120 128 68 162 64 67 161 62 66 160 61 63 158 61 62 158 60 61 157 60 59 157 61 57 157 61 55 157 62 52 157 63 51 156 64 51 154 63 50 154 64 50 154 66 49 152 67 48 150 68 48 147 68 49 145 68 50 142 69 51 140 70 52 140 70 53 139 71 54 138 71 54 137 72 54 135 72 54 132 74 55 130 75 57 128 77 57 127 78 57 126 80 59 123 81 61 120 82 62 117 84 63 117 85 63 116 86 63 114 86 64 114 87 64 114 89 63 113 90 63 113 92 63 113 96 64 113 99 66 114 102 67 115 104 69 117 107 69 119 111 69 121 116 68 122 122 68 123 125 70 122 128 71 162 65 70 161 63 68 160 64 66 160 63 65 158 62 64 158 60 62 157 61 59 157 62 56 157 64 53 157 64 52 157 64 52 156 65 52 155 65 51 155 68 50 155 69 50 153 69 50 150 70 50 147 71 52 145 70 52 142 71 54 141 71 55 139 71 56 138 72 57 138 72 57 135 73 57 132 75 58 129 77 59 129 78 59 128 79 59 125 80 60 121 81 61 120 83 63 118 84 63 117 84 65 116 84 66 116 85 66 116 86 67 116 88 67 115 89 66 115 91 67 114 94 69 115 98 69 116 102 69 117 105 69 119 107 70 121 112 69 121 117 69 123 123 69 124 126 71 124 127 73 162 65 72 161 65 70 160 66 69 160 66 66 159 65 65 159 64 63 159 63 61 158 64 57 157 66 54 158 66 54 158 66 54 157 65 53 157 66 52 158 69 53 157 71 53 154 71 54 152 71 55 150 72 55 146 72 55 143 72 56 143 72 56 140 72 57 138 74 59 138 74 58 135 76 59 132 78 61 130 79 62 128 79 62 127 79 62 125 80 62 121 81 62 119 82 64 120 83 65 118 83 66 118 84 66 118 84 68 117 84 69 116 87 70 116 88 70 115 90 72 114 93 72 115 96 72 117 99 72 119 104 72 120 107 72 121 113 71 124 118 69 124 122 71 126 125 73 126 127 75 162 67 72 161 67 72 160 67 71 160 67 68 160 67 66 161 65 64 160 65 62 159 65 60 158 67 57 157 68 56 158 67 56 158 67 56 158 68 56 158 69 55 157 72 56 155 73 57 153 73 57 151 74 58 147 74 58 144 73 58 142 73 59 140 74 60 138 75 61 137 76 61 135 77 62 133 80 63 131 80 63 129 80 65 128 80 65 126 79 64 123 81 64 121 83 65 121 84 67 121 83 68 120 84 69 119 85 71 117 85 71 117 87 72 117 88 73 116 90 74 116 92 75 116 95 75 118 99 74 119 103 74 122 108 74 124 113 72 126 118 72 126 122 72 127 125 73 128 128 75 162 68 74 160 68 73 160 68 72 160 68 69 161 67 67 161 66 65 162 66 64 161 68 62 159 68 60 159 69 60 159 69 60 159 69 59 158 70 58 158 72 58 159 73 58 156 75 59 154 74 60 151 75 61 148 75 61 146 74 60 143 75 61 140 76 63 138 77 63 137 77 63 136 78 64 135 79 65 134 80 65 132 80 66 131 81 67 129 80 67 125 81 68 122 83 68 121 84 70 122 84 70 121 84 72 120 84 73 119 86 73 118 87 74 117 87 75 117 89 77 117 92 77 118 95 78 119 98 77 121 103 77 124 108 76 127 114 75 129 119 73 129 123 74 129 126 74 129 129 76 162 68 74 161 69 73 161 68 73 162 67 70 162 65 68 163 66 66 163 68 66 161 69 65 160 69 63 160 70 63 160 71 62 160 70 61 160 72 60 159 74 60 159 75 61 158 75 62 155 74 63 153 75 63 151 75 63 149 75 64 145 76 65 142 77 64 140 77 65 139 78 65 139 78 66 137 78 67 135 79 67 134 80 68 133 80 69 130 81 69 127 82 70 125 83 71 124 83 71 124 83 73 123 83 74 122 84 75 121 85 75 120 87 75 119 87 75 119 89 77 120 92 78 120 96 79 121 99 79 122 103 79 127 109 77 130 115 76 131 121 74 132 125 74 132 128 75 131 131 78 163 70 76 162 70 75 162 68 74 162 66 72 162 66 70 162 67 68 162 67 67 162 68 66 162 70 65 162 72 65 161 72 64 161 72 63 160 74 61 161 76 62 159 75 63 157 74 65 156 74 66 153 74 66 151 74 67 150 75 68 147 75 68 144 75 66 141 76 68 140 77 69 139 78 69 137 79 69 137 80 70 135 79 70 133 80 71 131 81 71 129 82 71 127 82 73 126 81 73 125 81 73 123 82 75 123 83 76 123 85 76 122 87 77 122 88 77 122 90 78 121 92 78 122 96 79 123 100 80 125 105 79 128 110 78 131 117 76 133 122 75 133 126 75 133 129 76 133 131 78 165 70 77 162 69 75 163 68 74 163 68 74 163 68 72 162 68 70 161 68 68 162 69 67 163 72 66 163 73 66 163 74 65 160 74 64 160 74 64 159 75 64 158 74 66 156 72 68 155 71 68 153 72 70 151 73 71 150 74 71 148 74 70 145 75 69 143 76 69 140 76 71 139 77 72 139 79 72 138 79 73 137 79 73 134 79 74 132 81 73 130 81 73 129 81 73 128 80 74 125 79 73 125 81 75 126 83 76 126 85 77 125 87 78 125 88 78 125 90 79 125 92 80 125 96 81 125 101 81 127 106 81 130 112 79 134 117 77 134 122 77 134 124 78 134 127 79 133 131 79 166 70 78 164 70 77 164 70 76 164 69 77 164 68 76 163 68 75 163 68 72 163 69 70 163 71 69 164 72 69 164 74 68 162 74 66 160 73 66 159 74 67 157 73 69 155 71 71 154 70 72 153 71 72 151 72 73 149 74 73 147 73 73 146 74 72 144 76 71 141 76 73 140 77 75 140 77 74 139 78 75 138 78 76 136 80 76 135 81 75 133 82 76 131 82 75 129 80 74 128 79 74 128 79 75 129 82 77 128 85 78 128 86 79 128 88 78 126 90 79 127 93 81 127 97 81 128 101 82 130 106 82 133 112 81 134 118 80 136 122 81 136 124 82 137 127 82 135 130 80 166 70 80 166 71 80 166 71 79 166 71 79 165 70 78 165 69 77 164 68 75 164 69 74 164 70 73 164 71 73 165 73 72 162 73 70 161 72 69 160 72 69 157 71 71 156 70 73 155 69 74 153 70 74 151 71 74 149 74 74 147 74 76 145 75 74 142 77 75 141 78 77 141 77 78 140 77 78 140 78 77 139 80 77 138 81 78 137 81 78 134 82 77 133 82 76 131 79 75 130 79 74 130 79 76 131 81 78 131 84 79 130 87 80 130 89 80 129 92 80 129 94 81 129 98 83 130 102 84 134 107 83 136 113 84 137 117 84 139 122 85 139 124 86 138 127 85 137 130 83 167 69 83 167 70 82 168 71 81 167 72 82 166 71 81 166 70 79 165 69 79 165 69 78 165 69 78 165 71 78 164 71 76 163 71 75 162 71 73 160 71 72 158 70 73 157 69 75 156 69 76 154 70 76 152 71 75 150 73 75 147 74 76 145 75 76 141 77 77 141 77 78 140 78 79 140 78 79 140 79 79 139 80 78 139 80 79 137 80 79 136 81 79 134 80 77 133 80 76 133 80 75 132 80 76 133 81 78 133 83 79 133 86 80 132 90 80 132 93 81 131 96 82 132 99 83 133 103 84 136 108 85 138 113 87 139 118 88 141 121 89 141 123 90 141 127 89 140 131 