P3
50 50
255
104 136 75 102 138 74 99 138 75 97 136 75 96 136 75 94 136 77 94 137 76 94 139 77 94 140 78 94 143 78 93 146 77 94 148 76 94 147 77 96 148 77 98 149 77 98 151 77 98 154 76 98 156 76 97 158 77 95 159 79 93 161 78 93 161 78 93 162 79 93 163 81 94 165 82 97 166 83 98 167 83 97 167 84 97 167 85 99 168 84 100 169 84 101 170 85 101 171 86 100 173 88 99 174 88 97 174 86 97 175 85 96 174 87 96 174 87 96 174 88 95 174 88 94 175 88 93 176 89 93 175 90 91 176 91 91 176 92 92 175 92 92 175 93 93 176 95 94 175 96 107 136 74 105 137 74 103 137 73 101 136 73 99 135 75 98 136 76 98 137 76 97 139 77 96 140 76 96 143 77 97 146 78 97 148 78 98 148 77 99 149 78 100 150 77 100 151 78 100 153 78 99 155 79 97 158 80 95 159 81 94 160 80 95 160 80 95 163 82 96 165 83 96 166 84 98 167 85 100 168 84 99 168 85 100 167 86 101 169 86 102 170 86 102 170 87 103 172 89 102 173 89 100 174 88 98 174 87 96 175 87 96 175 87 97 174 87 97 173 88 95 174 89 94 176 89 93 176 89 93 176 90 93 176 91 92 176 92 92 176 93 92 176 94 93 176 96 93 177 96 111 135 75 109 136 74 107 136 74 105 134 73 103 134 74 100 135 75 101 136 76 100 138 77 100 141 77 99 143 77 99 147 78 100 148 79 101 149 79 102 149 79 101 150 79 101 151 80 100 153 81 98 155 83 97 157 84 96 158 84 96 159 82 97 161 82 98 164 83 98 165 86 100 166 87 100 167 88 100 168 87 101 169 87 102 169 87 103 169 87 104 171 88 104 172 88 104 172 90 103 173 90 101 174 88 98 175 87 96 175 88 95 175 87 96 174 88 97 174 89 96 175 90 95 175 89 93 176 90 93 176 92 94 175 93 94 176 94 94 177 94 92 176 95 93 178 96 95 179 96 114 134 75 113 135 74 111 134 74 108 133 74 108 134 75 105 135 77 103 136 77 102 139 77 102 141 77 101 144 78 102 146 78 102 148 79 103 148 80 103 149 80 103 150 81 102 151 81 101 152 82 100 154 84 98 156 86 98 157 86 99 159 84 99 161 84 100 164 85 101 165 88 101 167 89 101 168 90 101 169 89 102 170 88 104 171 88 105 171 89 105 173 89 105 173 89 104 172 90 104 174 90 102 174 89 100 175 88 97 174 87 96 175 89 95 175 89 96 175 91 96 176 90 95 176 90 94 175 91 94 175 93 96 174 94 97 176 95 96 177 96 95 177 96 95 178 96 95 180 97 119 133 74 117 133 74 115 133 74 113 134 74 112 134 75 109 134 77 107 136 78 106 137 78 105 141 79 105 143 80 104 145 80 105 148 81 105 148 82 106 149 82 105 150 82 105 151 84 105 152 85 102 152 87 101 154 87 101 156 87 101 158 86 102 160 86 103 162 87 103 165 89 104 167 90 104 169 91 104 170 90 104 171 88 106 172 90 107 172 90 107 173 90 107 173 90 106 173 90 105 174 89 103 175 89 101 175 88 98 173 89 96 174 91 96 175 91 96 174 91 96 174 91 97 174 92 97 173 92 98 173 94 98 174 96 99 175 96 97 176 96 96 177 96 96 178 96 95 180 98 122 132 76 121 132 75 120 133 76 117 134 75 115 135 75 113 136 77 111 136 77 109 138 78 110 140 80 109 143 81 108 145 82 108 147 83 109 148 85 109 149 85 109 149 85 109 150 87 108 152 88 106 152 89 105 154 89 104 155 88 105 157 88 105 160 89 107 162 89 108 164 90 108 167 91 107 169 91 106 171 91 106 172 90 106 174 91 107 174 91 108 174 90 108 174 89 106 173 88 104 174 88 103 175 89 101 175 89 99 174 90 98 175 91 98 176 93 96 175 94 96 173 92 98 173 93 99 173 94 100 173 95 100 173 96 100 174 96 99 175 95 97 176 95 96 177 96 96 179 98 125 132 78 123 133 78 122 134 79 121 135 77 118 136 77 115 136 78 114 137 78 113 139 80 114 141 81 113 143 82 113 145 82 113 146 84 113 148 86 113 150 87 113 150 88 112 150 89 111 152 90 110 152 90 110 153 91 109 155 91 108 157 92 108 158 93 110 161 93 112 163 92 111 167 92 110 170 91 109 171 90 108 173 89 108 174 91 109 175 91 109 176 90 107 174 87 105 173 88 105 173 87 104 174 89 103 175 90 102 175 91 100 176 93 99 175 94 99 174 95 99 173 95 100 172 95 102 173 95 102 174 95 102 173 96 101 174 96 99 174 95 98 175 95 97 176 96 96 178 97 128 133 80 127 133 80 125 135 78 123 135 78 122 136 78 119 138 78 117 139 78 117 141 81 118 143 82 119 144 82 119 144 83 119 146 85 118 148 87 117 148 88 117 149 90 116 150 91 114 152 91 114 153 92 114 154 94 113 156 94 112 157 95 112 158 96 113 159 96 115 163 95 114 166 93 113 168 91 113 171 90 111 174 91 110 174 91 110 176 90 110 177 88 107 175 86 106 174 87 105 174 88 105 174 89 105 175 91 103 175 92 101 174 94 102 174 94 101 174 95 102 174 96 103 173 96 103 173 96 103 173 96 103 174 95 102 173 96 101 173 96 99 174 96 98 175 98 98 178 98 131 132 80 130 133 80 129 133 78 127 136 78 125 138 78 122 139 79 121 140 80 121 142 82 121 143 82 122 144 84 123 144 84 123 147 86 122 148 88 121 148 89 120 149 92 120 150 92 117 152 92 117 154 93 117 155 96 116 157 96 116 157 97 117 157 98 117 159 98 117 163 96 118 165 95 118 167 93 117 171 92 115 174 91 113 174 92 111 175 90 109 176 88 108 176 87 106 175 88 106 175 88 106 175 90 106 175 93 105 174 94 103 173 94 103 173 95 104 173 95 104 173 96 105 173 96 105 173 96 105 173 97 105 174 96 104 173 95 103 172 96 101 173 97 100 176 99 99 177 99 133 132 81 133 132 79 132 133 79 130 136 79 128 138 79 127 140 79 126 141 81 125 143 81 125 145 83 126 144 83 127 144 84 127 147 87 126 148 90 125 149 91 124 151 92 122 152 93 121 152 94 121 154 95 120 156 97 120 157 97 120 157 98 120 158 99 121 159 99 121 161 98 121 163 97 122 166 95 120 170 94 118 172 93 115 173 92 112 174 92 109 176 89 108 177 88 106 176 89 107 175 89 108 175 91 106 175 93 105 174 95 105 174 95 105 172 96 106 171 96 107 171 96 108 171 96 108 172 96 107 173 96 106 172 96 104 171 95 103 172 97 103 172 98 102 174 99 101 175 98 135 131 81 135 132 80 135 134 79 134 137 80 132 139 81 130 139 81 130 142 82 129 144 83 128 144 84 129 145 83 130 144 84 131 147 88 130 149 90 129 151 93 128 152 94 126 153 95 125 153 95 124 153 96 124 155 97 123 156 98 124 158 98 124 158 99 124 159 98 124 161 98 124 162 98 124 166 96 121 168 95 119 169 95 116 171 95 113 174 93 111 177 90 109 177 90 108 176 90 108 175 90 109 176 91 108 176 92 106 176 95 106 175 95 107 173 96 108 170 96 108 170 95 108 169 95 108 170 96 107 170 95 107 171 95 104 170 96 103 171 97 103 172 97 103 172 98 102 173 97 139 131 83 139 132 82 138 134 83 137 136 83 136 139 84 134 140 84 133 143 84 132 145 85 132 145 85 132 145 84 134 146 86 134 148 89 135 150 93 133 152 94 132 152 95 130 153 96 128 153 96 129 153 97 128 154 97 127 155 99 127 157 100 128 158 100 128 158 99 128 160 100 127 163 100 125 166 97 122 167 97 120 168 97 117 171 95 115 174 94 114 177 94 112 178 93 111 177 91 110 176 90 109 176 92 108 176 93 106 177 94 106 177 95 106 175 96 108 171 96 109 169 96 109 168 96 109 169 95 108 169 95 105 169 95 103 169 95 103 170 96 104 170 97 104 170 97 104 172 96 141 131 86 141 133 84 141 134 85 140 136 86 139 139 85 139 142 85 138 144 86 138 146 86 137 146 86 138 147 85 138 148 88 137 150 91 138 152 95 138 154 96 137 154 96 134 155 97 132 154 97 131 154 97 132 155 98 131 156 98 131 157 99 131 160 101 131 159 101 130 160 101 128 163 101 127 164 101 124 166 100 121 168 98 119 171 97 118 174 96 117 177 95 115 178 94 113 177 92 112 177 92 111 176 92 109 176 94 107 177 95 107 177 97 107 175 97 107 172 97 109 170 97 110 169 96 110 168 97 108 168 96 105 169 96 103 169 96 103 168 96 104 169 96 105 170 95 105 172 96 144 132 87 144 133 86 144 135 87 143 137 87 143 139 86 144 142 87 144 144 88 144 146 87 144 148 87 143 148 87 143 150 91 142 151 93 142 154 96 142 155 97 141 157 97 137 157 97 136 157 98 136 157 97 136 158 97 135 157 97 134 159 99 134 161 100 134 161 101 133 162 101 132 163 102 130 164 102 128 166 100 125 168 99 123 170 99 121 174 98 120 177 97 118 178 96 116 177 94 114 177 94 113 177 94 112 177 95 110 177 95 109 177 96 108 174 97 108 172 98 108 171 98 109 170 98 109 169 98 107 169 98 105 168 97 103 168 97 103 168 96 104 169 96 104 169 96 105 170 96 145 131 89 147 132 89 148 135 90 147 137 90 147 139 88 148 142 88 148 145 88 149 148 88 148 149 89 148 150 91 147 151 93 147 153 94 146 154 96 146 156 98 144 158 98 141 159 98 140 160 98 140 160 96 141 160 96 139 160 97 138 162 98 137 163 99 138 163 100 136 163 102 136 164 102 134 166 102 131 167 101 128 169 101 126 172 100 124 174 100 123 177 100 121 177 99 119 177 97 117 177 96 116 176 96 114 176 96 113 176 96 112 174 96 112 172 97 110 172 99 109 171 99 109 170 99 108 169 99 105 168 99 104 168 98 104 168 97 103 168 96 104 169 95 105 169 96 105 169 95 147 130 92 149 133 92 150 135 92 151 137 92 152 140 91 152 143 91 152 145 90 152 148 90 152 150 90 151 152 92 150 153 93 150 155 94 150 156 96 149 157 97 147 157 98 145 159 98 143 160 97 143 161 95 144 161 96 143 162 97 141 164 97 140 165 99 139 165 100 139 165 101 138 165 102 137 167 103 136 168 103 133 170 103 131 173 102 128 174 102 126 176 101 123 176 100 122 174 99 120 175 98 118 175 97 116 174 97 115 175 96 115 173 97 114 172 98 112 170 100 110 171 100 109 170 100 107 169 100 106 167 99 104 167 99 104 167 97 104 167 97 105 168 96 105 169 96 105 169 94 150 131 95 151 133 95 154 135 94 155 138 93 157 140 93 156 144 92 155 147 92 155 149 91 155 151 91 155 153 92 153 155 93 153 157 94 153 157 96 152 157 97 151 159 98 149 160 97 148 161 95 147 161 94 147 162 95 146 163 96 145 166 97 144 166 98 142 167 100 141 167 100 140 168 102 140 169 104 139 170 105 137 170 104 135 172 103 131 173 103 129 174 103 127 174 102 125 173 101 122 173 100 120 173 99 118 174 98 116 173 97 116 171 99 115 170 99 112 168 100 111 169 101 109 169 101 108 167 101 107 166 100 106 167 99 105 168 97 105 168 97 106 168 96 106 169 94 106 168 93 152 132 96 154 134 95 157 137 94 160 139 94 160 143 94 159 146 93 158 148 93 158 149 92 158 152 91 157 153 92 156 156 93 156 158 95 157 158 96 155 159 97 154 160 97 153 160 96 152 161 94 151 162 94 149 164 95 149 166 95 147 167 96 147 167 97 146 168 100 144 169 101 142 170 103 142 171 105 142 171 106 140 170 105 138 171 105 135 172 105 132 172 105 129 172 105 127 172 103 125 172 101 123 172 100 120 172 99 118 171 100 117 170 100 116 169 100 113 168 101 112 168 102 110 168 102 108 167 102 108 166 100 107 165 100 106 166 98 107 168 97 106 167 96 105 167 94 105 168 93 155 134 97 157 136 95 160 138 94 162 141 95 163 144 95 162 147 95 161 149 94 161 151 93 160 152 92 159 155 93 160 157 94 159 160 96 159 160 96 158 161 96 156 161 96 156 161 96 156 162 95 154 163 94 152 165 95 152 167 96 151 168 97 149 169 98 147 170 100 147 171 102 144 172 104 143 173 105 143 172 106 141 171 106 141 171 106 138 171 106 135 171 106 133 171 105 129 171 104 125 172 102 123 171 101 121 170 101 119 169 101 117 168 101 116 168 102 114 167 102 111 167 103 110 167 104 110 166 103 109 164 102 108 164 100 108 165 99 108 166 97 106 167 95 105 166 94 105 167 94 157 134 98 159 138 96 162 141 95 164 144 95 165 146 96 165 148 96 165 151 94 164 153 93 164 155 92 163 157 93 164 159 94 163 160 96 162 161 96 160 161 95 159 162 95 159 163 95 159 164 95 157 165 94 156 166 95 156 168 96 154 169 99 152 170 100 150 171 101 149 172 103 147 173 104 146 173 106 144 173 107 143 172 107 144 171 106 140 170 106 137 171 105 135 170 105 132 170 104 127 170 103 124 169 102 121 169 102 119 167 102 118 166 103 117 167 104 114 166 105 113 166 106 112 166 106 111 166 105 111 164 104 110 164 101 109 165 99 108 165 96 106 166 96 105 167 95 105 165 95 160 134 99 160 140 97 162 143 96 163 146 96 165 147 96 166 151 96 167 154 95 167 155 93 166 156 93 165 158 93 165 160 94 165 162 96 164 163 95 162 163 95 161 164 95 160 165 95 161 165 95 160 166 96 159 168 97 158 170 98 157 170 100 156 170 101 154 171 103 152 172 104 150 172 104 148 173 107 147 174 108 146 173 108 145 171 108 142 170 108 139 170 107 136 169 105 132 169 105 129 169 104 125 168 104 122 167 103 119 166 103 118 166 104 117 166 106 114 165 107 113 165 106 112 165 107 113 164 107 112 163 106 111 164 102 109 165 99 108 165 97 106 165 96 106 165 96 104 164 96 164 135 100 163 141 98 164 145 97 164 147 97 164 150 96 166 153 96 166 155 95 167 157 95 166 158 94 166 160 95 166 161 94 166 164 95 166 164 95 164 165 94 163 166 95 163 167 96 163 168 97 163 169 97 162 169 98 161 171 99 159 170 101 158 172 102 156 172 103 155 171 105 153 172 106 152 174 108 150 173 108 148 173 108 146 172 109 142 170 108 139 171 108 136 170 107 132 169 106 129 168 106 125 167 105 121 167 105 120 166 105 118 165 106 116 165 107 114 166 108 112 166 109 112 164 109 112 163 108 112 163 106 112 164 103 110 165 100 108 165 99 106 165 98 105 164 98 104 163 99 165 137 101 165 141 100 164 145 99 164 149 98 164 152 97 164 154 96 166 155 95 166 156 96 167 158 96 167 160 96 167 162 97 167 164 96 166 165 95 166 166 94 165 167 95 165 168 96 165 169 96 164 170 98 164 171 99 163 171 101 161 172 102 159 172 104 158 172 105 157 172 106 156 173 108 155 174 109 152 175 109 149 175 109 145 173 110 143 173 111 139 173 109 135 171 108 132 169 107 128 167 107 124 165 107 120 165 108 119 166 108 117 165 108 115 166 109 112 166 110 112 166 111 112 165 110 112 164 109 112 163 107 112 163 105 112 164 102 108 164 100 106 165 101 103 164 101 103 163 100 164 139 103 164 143 102 164 146 100 164 150 99 164 153 98 164 153 96 165 154 96 165 156 97 165 159 98 166 162 97 168 163 97 168 165 96 167 165 96 167 166 96 168 166 95 167 168 96 168 170 97 166 171 98 165 172 101 164 171 103 163 172 105 161 172 106 160 174 106 159 174 108 157 174 109 155 175 110 153 176 111 149 177 111 145 175 111 142 174 112 138 173 112 134 171 111 131 167 109 127 165 108 123 164 108 120 165 109 118 166 109 116 166 110 112 166 111 111 166 112 110 166 112 111 165 111 111 165 110 111 164 109 112 163 106 111 163 104 109 164 103 106 164 103 104 164 102 102 164 101 164 141 104 163 145 103 164 148 102 165 151 101 164 154 100 163 154 97 164 156 97 164 158 98 165 161 98 166 163 99 168 165 99 169 165 98 169 166 96 168 166 96 169 167 96 169 169 96 167 170 97 166 171 99 166 171 102 165 172 104 164 173 106 163 174 107 162 174 108 159 176 109 157 176 109 156 177 110 154 178 111 150 178 111 147 177 113 141 174 113 137 173 114 134 171 113 130 167 112 127 165 111 122 164 111 119 165 111 117 166 112 114 166 112 113 167 113 111 168 112 111 167 112 110 165 111 111 165 111 110 164 109 112 162 107 111 163 105 109 163 104 107 164 103 104 164 102 102 164 102 165 142 105 164 147 104 164 150 104 165 152 103 164 155 102 165 155 101 165 156 99 165 159 99 167 162 100 167 165 100 169 167 100 170 167 100 170 167 100 169 167 98 169 168 97 169 170 97 167 172 98 167 172 101 167 171 103 165 173 105 163 174 107 163 175 109 161 175 111 160 177 110 158 177 110 156 177 111 154 179 114 151 179 113 146 178 113 140 175 114 135 173 115 133 171 116 130 168 115 127 165 114 122 164 114 118 165 114 115 167 114 114 168 114 112 168 114 112 168 112 113 167 111 112 166 112 112 165 111 112 164 111 111 163 109 111 162 107 110 162 106 108 164 103 104 164 101 103 165 101 165 144 105 165 146 104 166 149 103 167 151 103 167 154 103 167 156 103 167 157 102 167 160 103 166 162 103 167 165 103 169 167 102 169 168 103 170 169 102 170 170 102 168 170 101 168 171 100 167 173 101 167 173 102 167 173 104 165 173 106 164 175 109 163 176 111 161 177 111 160 178 111 158 178 112 156 179 114 154 180 115 150 180 115 144 178 114 138 176 115 135 173 116 133 170 118 130 167 116 126 166 116 122 166 116 117 167 116 115 168 116 113 168 115 112 169 115 112 168 113 113 168 112 114 167 112 113 166 112 113 163 112 112 162 110 111 162 108 109 163 106 108 164 104 107 165 102 106 166 100 167 144 105 167 146 104 169 149 103 170 151 104 169 154 105 169 157 104 168 159 105 168 161 106 166 163 106 167 165 105 169 167 105 170 168 106 170 169 105 170 171 104 168 171 104 169 172 103 168 174 103 167 175 105 166 175 106 165 176 109 163 178 111 163 178 112 162 179 112 161 180 112 158 180 114 156 181 115 153 181 116 148 180 116 143 178 115 137 176 116 132 174 116 130 171 118 128 168 117 124 167 116 121 167 116 117 166 116 114 167 116 113 167 116 112 169 116 113 169 115 114 167 113 113 167 112 112 165 112 112 164 113 111 162 112 110 162 110 109 163 107 107 164 104 108 165 102 108 166 101 168 145 106 169 146 105 170 149 105 171 152 107 170 156 107 169 159 107 169 161 108 170 162 108 169 164 108 169 165 108 169 167 107 170 170 108 170 171 107 171 171 106 171 171 107 170 172 107 169 175 108 167 177 108 167 178 109 166 179 111 163 181 113 163 181 114 161 181 115 160 182 116 157 183 115 156 183 116 152 182 117 146 181 117 141 178 117 136 175 117 130 174 117 127 172 117 125 170 117 123 168 117 119 166 117 117 165 116 115 165 116 113 166 116 112 167 117 112 168 116 112 167 115 113 166 114 112 166 114 112 164 113 112 163 112 111 163 111 110 163 109 109 165 106 109 166 105 109 166 104 170 146 108 170 149 107 172 151 106 171 155 108 170 158 109 170 160 109 170 162 110 171 163 111 171 164 109 171 165 109 170 168 110 171 171 109 171 172 109 172 172 109 173 172 109 172 173 110 170 176 110 168 178 111 167 179 112 165 180 113 164 181 113 163 182 115 160 182 118 158 184 118 155 185 118 153 184 118 150 184 118 145 183 117 140 179 117 134 176 117 129 175 118 126 173 118 125 171 116 122 168 117 118 165 117 116 164 116 114 166 116 112 166 116 111 166 116 111 166 116 113 166 117 112 166 116 113 165 114 113 164 114 113 164 112 112 164 112 111 165 110 110 166 108 110 167 107 111 166 105 172 147 109 173 151 109 174 154 108 173 156 108 172 159 110 172 162 110 172 163 111 172 164 111 173 164 111 173 167 111 174 170 112 174 172 112 173 173 111 173 173 111 174 173 111 173 175 112 172 177 111 170 179 112 168 180 113 165 180 113 165 182 115 163 184 117 160 183 119 158 185 119 154 186 120 151 187 118 147 186 118 142 183 118 138 180 117 132 178 116 129 176 116 126 175 116 124 173 116 122 169 116 118 165 116 116 165 115 114 165 115 112 165 116 112 166 117 112 166 116 113 166 117 113 166 117 114 164 115 114 163 114 114 165 113 113 165 112 112 166 110 111 166 109 111 166 108 112 166 106 173 147 112 174 151 111 175 155 110 174 157 110 174 159 111 174 162 111 174 163 111 175 164 112 176 165 111 177 168 113 177 170 115 176 172 115 175 174 114 174 174 114 174 174 113 174 177 114 171 179 114 170 180 114 169 180 113 167 181 115 165 181 116 164 183 117 160 183 118 158 184 118 154 187 120 149 188 119 145 187 118 141 184 118 137 182 117 131 179 115 128 178 115 127 176 115 123 173 115 121 170 115 118 167 116 116 166 115 114 165 116 113 166 117 112 168 118 113 167 118 115 167 118 114 165 117 114 164 116 115 164 115 114 166 114 114 166 112 115 166 111 114 166 110 113 164 109 113 165 108 173 148 113 175 151 113 176 156 113 177 159 113 177 160 112 177 162 111 176 164 112 177 165 112 177 166 113 178 168 115 178 170 118 178 172 119 177 173 118 176 175 117 174 176 116 173 178 117 171 181 116 170 181 116 169 181 115 167 181 117 165 181 118 163 183 117 160 184 118 155 184 118 151 187 120 147 187 119 143 186 119 140 184 118 136 183 117 131 181 115 128 179 115 125 176 114 122 173 115 119 172 116 117 169 115 115 168 116 114 167 116 113 167 118 112 169 119 113 169 119 114 167 118 114 166 118 114 164 116 115 164 115 115 165 113 115 165 112 115 165 112 116 163 112 115 162 110 115 164 108 173 147 115 175 150 115 177 155 115 178 158 114 179 160 113 178 162 113 178 164 114 177 166 114 176 167 116 178 170 118 179 171 119 179 172 120 179 172 120 177 175 120 175 178 120 173 180 120 172 181 118 170 182 118 168 183 118 165 183 119 163 183 119 161 184 118 158 185 119 153 185 119 149 186 120 145 186 120 142 186 119 139 185 119 136 183 119 131 181 116 128 179 115 125 176 115 121 173 116 119 171 116 116 170 116 116 170 117 114 169 117 114 169 118 113 170 119 113 170 119 114 170 118 115 167 117 115 165 116 115 165 114 116 164 113 117 164 112 117 164 112 116 162 111 116 163 110 115 163 109 173 147 118 173 151 118 175 154 116 177 158 115 178 160 115 178 162 115 177 165 115 177 166 116 177 168 117 178 170 119 179 172 120 179 172 120 179 173 121 177 176 121 175 179 121 173 180 122 172 182 121 171 183 120 167 184 120 164 184 119 161 185 119 159 185 120 157 185 121 152 185 120 147 186 120 145 185 121 142 185 121 138 185 120 136 183 119 133 181 118 129 179 116 125 178 117 122 174 117 119 172 117 117 171 118 117 172 117 116 171 118 115 171 120 114 171 120 114 171 120 115 171 118 116 169 117 116 166 116 116 165 115 117 164 115 118 164 113 118 163 112 117 164 111 116 163 111 116 164 111 172 146 118 172 150 117 173 153 117 176 157 115 178 161 116 177 161 116 178 164 117 178 166 118 179 168 118 179 170 119 179 172 120 178 173 120 179 174 120 177 176 120 177 178 121 175 181 123 173 183 123 170 184 122 166 184 122 164 185 122 161 187 121 158 188 121 155 187 121 151 187 120 146 187 121 144 185 122 142 185 122 139 183 121 137 183 119 135 182 118 130 181 117 126 178 116 123 176 116 120 173 118 118 172 119 117 173 118 116 173 119 116 172 121 116 172 121 116 171 120 117 170 118 117 169 116 117 167 115 117 166 115 118 165 115 120 164 114 120 164 113 119 164 113 116 163 112 116 163 111 171 145 119 172 148 117 173 152 117 174 156 117 177 158 117 178 159 117 178 161 118 178 164 118 178 167 118 178 169 118 178 173 120 177 174 121 177 175 120 177 176 121 176 179 122 175 182 122 173 185 122 170 185 122 166 185 123 162 186 123 160 188 123 158 189 122 155 188 122 151 188 121 147 187 122 144 185 122 142 185 123 140 183 121 138 183 119 136 183 118 132 182 116 127 179 116 124 176 116 122 174 118 119 173 119 118 174 120 118 174 120 117 174 121 117 172 121 118 171 120 118 170 118 119 170 117 119 168 116 121 167 114 122 165 114 121 165 114 121 164 113 120 164 113 118 163 112 116 163 113 172 145 118 172 148 117 174 151 118 174 154 118 176 156 118 177 157 118 177 158 118 178 161 119 177 165 119 178 168 120 177 172 120 177 173 120 176 175 120 175 177 121 176 179 123 175 182 123 172 185 123 168 186 122 165 186 123 162 187 124 159 188 123 157 188 123 153 189 123 150 188 123 146 186 122 144 186 123 143 185 123 140 185 122 138 184 120 137 184 119 134 183 117 130 180 117 126 178 116 123 176 117 122 175 120 122 175 120 121 175 119 120 174 119 120 172 120 120 171 120 120 169 119 121 169 118 121 168 117 122 167 116 123 165 116 122 164 116 121 164 114 120 164 114 119 163 114 118 162 114 173 145 117 172 148 118 173 149 118 174 151 118 175 153 118 177 155 118 177 157 118 178 160 121 177 163 121 177 167 122 177 170 122 177 172 122 175 175 122 173 177 122 174 180 123 174 182 123 170 185 123 167 187 123 164 187 124 160 187 123 157 187 125 156 187 125 152 187 124 149 188 123 146 187 123 144 187 123 143 186 123 142 185 122 141 185 120 139 185 119 136 184 118 132 181 116 128 179 116 125 177 117 124 177 119 124 176 119 123 175 117 124 174 118 123 172 119 123 171 119 123 170 118 124 169 118 124 168 117 123 167 117 124 165 118 123 165 118 123 165 117 121 164 115 120 163 115 121 162 115 174 146 116 173 147 116 173 148 117 175 150 117 176 150 119 178 153 119 179 156 120 178 159 122 177 162 124 176 166 123 175 168 123 176 170 123 175 173 124 173 176 124 173 178 124 172 181 124 169 183 125 166 185 126 163 188 126 160 188 126 157 187 126 155 186 126 153 186 125 150 187 123 148 187 123 145 187 123 144 186 122 144 186 122 143 185 121 141 186 119 137 185 117 132 183 116 128 180 116 126 179 116 127 177 117 126 176 116 127 175 117 126 174 116 126 173 116 125 172 116 126 170 116 127 169 116 127 167 116 125 166 117 124 166 119 124 166 119 123 166 119 123 165 117 123 163 116 123 162 116 173 145 114 173 147 116 174 148 117 176 148 118 177 150 121 177 153 122 179 156 122 180 160 123 177 162 125 177 164 125 176 166 125 175 169 124 174 171 125 173 175 126 171 178 126 170 181 126 166 183 127 164 186 127 163 188 127 160 188 127 157 187 127 156 186 127 153 186 125 151 187 124 150 187 124 149 187 123 147 187 122 145 188 121 144 187 120 142 187 119 138 186 117 133 184 117 130 182 117 128 180 116 128 178 116 127 177 115 128 176 115 128 174 115 128 173 114 127 172 113 128 171 114 128 169 116 127 167 116 127 167 117 125 167 119 126 166 120 126 165 120 126 166 119 125 165 118 124 164 117 175 146 114 175 146 116 176 146 118 176 148 119 177 151 122 177 153 123 178 157 124 179 160 124 178 162 125 177 164 125 176 166 124 175 168 124 174 170 125 172 174 127 170 177 127 168 180 128 165 182 129 163 185 128 162 186 129 159 187 129 158 187 129 157 186 127 155 187 126 154 188 126 154 188 125 152 187 124 150 188 122 148 188 121 146 188 120 143 188 120 140 188 118 136 186 117 134 183 117 131 182 116 129 180 115 129 179 115 129 177 114 129 175 113 129 173 112 128 172 112 128 170 114 128 169 115 127 169 115 127 170 116 126 170 118 127 168 119 128 166 119 127 167 119 127 166 118 127 165 117 177 145 115 177 145 115 177 146 118 177 148 120 176 151 122 176 154 124 177 157 125 179 160 125 179 163 125 178 164 124 177 166 124 175 168 125 173 170 126 171 174 128 169 176 128 167 178 130 166 182 129 164 185 129 163 188 130 160 188 130 160 188 130 159 187 128 157 187 127 157 188 127 157 189 125 155 189 124 154 190 123 151 189 123 148 188 122 145 188 121 142 189 118 139 188 118 136 186 118 133 184 116 130 182 115 131 180 114 131 178 113 131 176 112 130 174 111 129 173 112 128 172 113 128 171 113 129 171 113 128 171 115 128 171 117 128 169 119 129 169 120 129 169 119 130 167 118 131 166 117 178 146 116 177 147 116 176 148 118 175 151 120 175 153 122 175 156 124 177 157 125 178 160 126 177 162 125 177 165 125 175 166 125 174 168 126 172 171 127 170 175 129 167 178 129 166 180 131 166 183 131 164 187 130 162 190 130 161 190 129 161 189 128 159 188 129 158 187 129 157 188 128 158 190 126 157 191 126 155 191 125 153 190 124 149 189 123 147 189 121 144 189 120 141 189 119 137 188 118 135 186 116 133 183 114 132 181 114 134 180 113 133 178 111 132 177 111 130 175 112 128 173 112 128 172 112 129 173 113 129 172 115 129 172 117 129 171 120 129 170 120 130 169 120 131 168 119 132 168 116 177 148 117 176 148 117 175 151 119 174 154 121 174 156 123 174 157 125 175 159 126 177 161 127 177 163 127 175 164 127 173 166 127 172 168 128 170 172 129 168 176 130 166 179 131 165 182 131 165 185 130 163 188 129 164 190 130 163 192 128 161 191 128 159 188 129 158 188 129 157 189 128 158 191 127 158 192 127 156 192 127 154 192 127 151 191 125 148 190 122 146 190 121 143 191 121 140 189 118 137 188 116 135 184 115 134 182 114 134 182 113 134 180 111 133 179 112 131 177 111 129 176 111 128 174 112 129 173 113 129 173 115 130 172 118 131 172 119 130 171 120 130 169 121 131 169 119 132 169 118 176 149 119 174 150 119 173 153 120 172 154 122 172 157 123 173 159 124 174 161 126 175 163 127 176 165 128 174 166 128 172 167 130 170 169 130 169 173 130 167 176 131 164 180 130 164 183 130 163 186 130 163 189 131 163 192 130 163 193 128 162 193 129 160 190 129 158 190 128 158 191 128 158 192 127 158 193 127 157 193 128 155 193 128 152 192 126 149 192 124 147 193 122 144 193 122 142 193 120 139 190 117 137 188 116 136 185 115 135 183 113 134 181 112 133 180 113 131 179 111 130 178 111 130 176 112 131 174 112 131 174 115 131 173 117 132 173 118 131 173 118 131 171 118 131 171 118 131 170 117 175 149 120 173 151 121 171 154 121 172 156 122 172 158 123 173 160 125 173 163 126 174 164 128 175 166 129 174 166 130 171 168 131 169 170 131 168 174 130 165 177 131 164 181 130 162 185 131 161 188 131 161 191 131 162 193 130 162 194 130 162 194 129 160 193 127 159 193 127 159 193 128 160 193 128 159 194 127 157 194 128 155 194 128 152 193 127 150 193 126 148 194 125 144 194 123 142 194 120 141 192 118 139 190 117 137 188 116 136 185 115 134 182 113 133 181 113 132 181 112 131 180 112 132 179 112 133 177 112 134 176 115 134 176 116 134 177 116 134 174 118 133 173 118 132 172 117 133 171 115 176 150 122 173 152 121 171 154 121 171 157 121 171 160 122 171 161 124 172 164 124 173 165 126 173 166 129 171 167 130 170 170 130 168 173 130 167 176 130 165 179 131 164 183 130 162 187 131 161 190 130 161 192 130 161 193 131 161 194 130 161 195 129 161 194 128 161 193 128 161 193 128 161 194 128 160 195 128 158 195 129 154 194 128 153 194 127 150 194 126 148 194 125 145 194 122 143 194 120 141 194 118 140 191 117 137 189 117 136 187 116 135 184 116 133 183 115 133 182 115 132 181 112 134 180 112 135 180 113 135 179 114 136 179 116 136 179 117 136 177 117 136 176 117 135 175 114 135 174 114 175 151 124 172 153 122 171 156 121 170 159 120 170 161 121 169 162 123 170 164 123 171 166 125 170 166 128 169 168 130 168 171 131 167 174 130 166 177 130 164 180 130 162 184 131 162 188 132 162 190 132 161 192 131 160 192 131 161 193 131 162 194 131 162 194 130 162 193 129 163 194 129 161 195 129 158 194 130 156 195 130 153 195 130 151 195 128 150 194 127 148 194 125 145 193 122 143 194 120 141 194 120 140 193 118 138 191 118 137 188 118 136 186 117 135 185 116 134 184 116 134 182 114 135 181 113 136 182 114 136 183 115 138 183 116 138 182 117 138 181 118 137 179 117 136 178 114 137 177 113 176 150 123 173 153 122 172 158 119 171 161 120 170 163 120 169 163 122 169 164 123 169 166 125 168 167 127 167 169 129 166 172 131 165 174 131 165 178 131 163 181 132 161 183 132 162 188 133 162 190 133 161 192 133 161 193 133 161 193 133 162 193 131 162 193 131 162 194 131 161 195 131 161 194 130 159 195 132 156 196 132 153 195 131 151 195 129 148 196 128 147 195 127 146 196 124 143 196 122 141 195 120 140 195 119 139 194 118 138 191 117 137 189 116 137 187 116 136 185 117 136 185 115 137 184 116 137 184 116 137 185 117 138 185 116 139 185 117 139 183 116 138 183 116 138 182 114 138 181 111 