P3
50 50
255
98 125 135 100 126 133 101 127 131 101 127 130 101 125 128 100 124 126 101 124 123 103 123 120 103 123 118 102 123 115 101 123 113 101 123 110 101 123 109 102 123 107 101 125 106 100 125 105 97 125 103 94 125 103 95 124 103 95 124 103 94 122 102 95 121 101 97 120 101 99 119 100 101 118 99 102 118 98 103 117 97 105 117 96 107 116 95 109 117 92 110 118 90 111 119 88 111 120 85 112 121 82 112 122 80 112 123 77 113 123 75 113 123 74 112 122 73 113 122 71 115 121 71 116 119 71 117 118 69 117 117 67 118 117 64 119 118 61 120 118 58 122 119 57 123 119 56 125 119 55 96 127 138 98 128 136 99 128 133 99 127 131 99 127 129 99 125 127 99 126 124 101 126 120 101 126 118 100 125 115 99 124 113 98 126 111 99 127 109 99 127 108 99 127 106 98 127 106 96 127 106 94 127 105 94 126 105 94 126 105 94 125 105 95 125 104 98 123 102 99 121 100 100 120 99 101 119 99 103 119 99 106 119 98 108 118 96 110 118 94 111 119 92 112 120 90 112 120 88 112 122 84 113 123 82 113 123 79 112 123 77 113 124 75 113 124 73 114 122 71 116 122 69 118 121 68 118 118 68 118 117 66 118 116 63 118 116 60 120 117 59 122 118 56 125 119 55 126 118 55 94 128 138 95 128 137 96 128 135 97 127 132 97 127 130 97 126 127 98 127 123 98 128 120 99 127 118 100 127 116 98 127 115 98 128 112 98 129 110 97 129 109 98 128 108 97 129 108 96 129 109 95 127 109 95 127 109 94 127 108 96 127 107 97 128 105 99 127 103 99 125 103 100 123 101 101 121 99 103 121 100 106 121 100 109 121 98 110 120 95 112 121 92 112 121 91 112 122 88 113 123 86 113 123 83 113 125 81 113 126 77 114 126 75 114 125 72 116 123 70 117 122 68 118 121 67 118 119 66 118 118 65 117 116 62 117 115 61 119 115 58 122 118 56 124 119 54 126 119 53 92 129 139 92 128 138 93 128 137 93 129 134 95 128 130 95 128 127 95 128 123 96 129 120 97 129 119 98 130 117 97 131 116 97 131 113 96 130 111 97 130 111 97 131 111 97 131 111 97 130 111 97 128 111 97 128 111 97 127 109 97 129 108 99 130 106 101 129 103 101 127 104 101 125 103 101 124 102 103 123 102 107 123 100 110 122 98 111 122 95 112 122 93 112 123 91 112 122 88 112 122 85 113 123 82 113 124 80 114 126 77 114 125 75 116 125 73 117 124 70 119 123 67 119 122 66 119 121 66 118 119 65 118 117 62 117 115 60 119 114 57 121 117 56 123 118 54 126 117 53 90 130 140 90 128 138 89 128 137 90 129 135 92 129 131 92 129 126 93 129 122 93 129 119 94 130 119 95 131 118 96 132 116 96 133 114 96 132 113 97 132 112 97 132 112 98 132 112 99 130 112 98 129 113 98 129 112 98 129 109 99 130 109 100 132 107 101 131 105 103 130 105 102 128 104 103 127 103 104 126 102 107 125 101 110 123 98 111 123 96 112 122 92 112 123 90 112 123 88 113 123 85 113 123 83 115 123 80 115 125 79 116 125 76 116 125 74 117 123 71 118 123 68 119 122 65 120 122 66 120 120 64 119 117 62 118 116 60 119 115 57 120 116 55 122 116 54 125 116 53 88 131 140 87 129 139 87 128 136 88 129 133 89 129 131 91 130 126 91 131 122 91 130 119 92 130 119 94 131 118 95 132 117 96 134 116 97 135 115 96 135 114 97 133 112 99 132 112 99 131 113 100 132 114 100 132 113 100 131 110 102 132 109 102 132 106 104 133 107 105 132 106 105 130 106 105 129 104 105 128 103 107 126 102 109 125 100 110 123 97 111 124 93 111 124 90 111 125 88 112 125 86 114 124 84 116 124 81 116 124 79 117 124 76 117 124 74 117 124 72 118 122 70 120 123 67 121 121 65 121 120 64 120 117 63 119 116 60 119 115 57 121 116 56 122 115 54 124 115 53 86 131 141 86 130 138 85 130 135 86 131 132 88 131 129 89 131 126 89 132 122 90 131 120 91 131 119 92 131 118 94 131 117 96 135 116 96 137 115 97 136 114 97 134 112 99 134 113 100 134 113 100 135 114 100 134 114 101 133 111 103 133 109 104 134 107 105 134 108 106 133 107 105 132 107 105 131 106 106 129 103 107 128 102 109 126 100 109 125 97 110 125 94 111 125 90 112 126 88 112 126 86 115 125 84 116 125 82 118 124 80 118 123 77 118 123 75 117 123 73 118 122 70 120 122 68 121 120 66 120 119 64 119 117 63 120 118 61 120 117 59 120 117 57 122 115 55 123 114 54 84 132 141 84 131 139 84 132 136 86 133 133 86 134 129 88 134 125 88 134 122 90 134 121 91 133 120 92 132 119 94 133 117 95 136 116 96 137 114 97 137 113 99 136 113 100 136 113 100 136 115 101 136 115 101 135 113 102 135 111 103 134 109 104 134 108 106 134 108 105 133 108 105 133 107 105 131 105 106 131 104 108 129 102 109 127 101 111 126 98 112 126 95 113 127 91 113 128 88 114 127 87 114 127 85 115 125 83 117 123 82 118 122 79 119 122 76 118 121 73 119 121 71 118 121 69 118 120 67 118 120 65 117 118 64 117 119 62 118 118 59 118 117 57 120 116 56 122 113 55 83 133 143 82 132 139 84 134 137 85 135 135 86 135 131 87 136 127 89 136 124 90 136 122 92 136 122 93 135 120 94 135 118 94 136 116 96 139 115 98 139 113 98 138 112 100 139 112 101 138 114 101 138 115 102 137 113 103 136 111 103 135 109 104 135 109 105 134 108 104 135 107 105 134 107 107 132 106 108 131 104 108 132 102 110 129 101 112 128 99 113 128 95 113 129 92 114 129 89 114 129 88 115 127 86 115 124 84 117 122 82 118 121 79 118 120 76 118 119 74 117 119 71 117 119 69 116 119 67 116 119 66 115 119 65 115 119 62 115 117 59 117 116 58 118 114 58 119 111 57 82 134 143 82 134 139 83 135 137 85 136 136 87 136 133 88 138 130 89 138 127 91 138 124 93 137 122 94 136 121 94 137 117 95 138 117 97 139 116 98 138 114 98 139 113 99 141 113 100 140 114 101 140 114 102 139 113 102 137 112 103 136 110 104 136 109 105 135 107 105 135 106 106 135 105 107 133 105 109 132 104 109 132 102 109 130 100 112 129 98 113 129 95 114 130 92 115 129 89 115 128 88 115 126 87 116 124 84 116 123 82 116 121 79 116 120 77 116 119 74 116 118 71 115 118 69 114 119 68 113 119 67 113 119 65 113 118 62 113 116 60 114 114 60 115 111 59 116 108 58 82 136 142 82 136 139 85 137 138 86 137 136 87 137 134 89 138 131 90 139 128 91 139 126 93 138 123 94 138 120 95 138 117 96 139 116 98 139 116 99 139 115 97 141 113 98 143 114 100 143 114 101 142 114 102 141 113 101 140 112 103 138 110 104 138 108 105 137 107 105 135 106 106 136 104 107 134 105 109 133 103 110 132 100 111 131 98 111 130 97 113 131 94 114 131 92 115 130 89 115 127 89 116 126 87 116 124 84 114 122 82 114 120 79 114 120 77 116 118 74 115 117 72 114 116 70 113 118 69 112 119 67 111 118 65 111 117 63 111 114 61 111 113 60 111 110 60 113 109 60 83 137 143 83 137 140 85 138 139 87 138 137 88 137 136 90 138 133 90 139 129 92 139 126 93 140 123 94 139 120 96 140 119 97 141 117 97 141 118 98 142 117 97 144 115 98 145 116 99 145 116 100 145 115 102 144 114 102 143 113 103 141 112 104 140 110 105 138 108 105 136 106 107 135 104 108 134 103 109 135 102 110 133 99 110 132 96 111 132 95 111 131 94 113 131 92 114 129 89 115 128 88 115 126 85 115 125 83 114 122 82 114 120 79 113 119 76 114 117 74 114 116 71 114 116 70 113 117 68 112 117 66 110 117 65 109 116 64 108 113 62 109 111 61 109 111 61 111 110 60 82 138 143 83 139 140 85 139 139 86 139 138 88 138 136 91 138 133 92 139 130 93 140 127 93 142 124 94 142 122 94 141 120 95 142 119 95 143 120 95 144 118 95 145 117 96 147 117 97 147 117 99 147 116 102 146 115 103 144 113 104 142 112 105 141 110 105 139 109 107 136 107 108 136 104 107 136 101 108 135 100 108 135 97 108 133 96 108 133 94 110 131 94 111 130 92 113 129 89 115 128 86 115 127 84 114 125 83 113 123 80 113 121 78 111 119 75 111 118 73 111 116 71 112 116 70 111 116 67 110 116 66 108 115 65 108 115 64 107 113 61 106 111 62 108 112 61 111 110 61 83 139 144 85 141 142 86 140 140 86 139 139 88 139 136 90 140 134 92 141 130 93 142 128 94 143 126 94 142 124 93 143 122 93 144 121 93 145 122 92 145 120 93 146 118 94 147 117 95 147 117 98 147 117 101 145 116 104 144 114 105 142 112 105 141 110 106 140 108 107 137 107 106 136 104 106 135 101 106 136 98 106 136 97 107 135 94 107 133 94 108 132 93 110 131 90 111 131 88 113 129 85 115 128 83 114 126 81 113 124 80 112 121 77 110 119 73 110 118 72 109 116 71 109 116 69 109 116 67 108 115 65 106 114 64 105 114 62 105 113 61 106 112 62 108 112 62 110 111 61 84 141 144 86 142 143 87 141 141 89 140 140 90 140 137 90 142 135 92 142 132 93 143 129 93 144 127 93 143 125 92 144 123 91 145 124 91 146 124 91 146 122 92 146 120 93 146 119 94 146 118 98 146 117 101 146 116 103 145 116 105 142 114 107 142 111 107 141 109 107 138 107 106 135 104 106 135 101 105 135 99 105 135 97 106 134 95 108 134 94 109 132 92 109 132 89 109 131 87 111 129 85 112 128 82 112 126 81 112 124 79 110 121 77 108 119 73 109 118 72 107 116 70 106 117 69 106 116 67 106 116 66 104 114 64 103 114 62 104 114 63 106 114 63 108 113 63 110 112 62 84 142 144 86 143 143 88 143 141 89 142 140 90 141 137 89 143 135 91 143 132 92 144 130 93 143 128 93 144 126 92 145 124 90 145 125 89 145 125 90 144 124 92 144 122 93 145 120 94 145 119 97 145 118 100 145 118 103 144 116 106 143 113 108 143 111 108 142 108 107 139 107 106 137 104 105 135 102 105 134 99 105 135 97 106 135 95 107 134 94 109 132 92 109 132 90 108 130 88 108 129 85 108 128 83 108 126 81 109 123 78 108 121 76 106 118 73 106 116 72 105 115 71 103 116 69 104 116 68 103 116 67 102 115 66 102 114 65 103 115 65 105 114 65 108 114 65 110 114 64 84 142 144 87 143 141 88 143 140 89 143 139 90 143 137 91 143 135 91 144 133 92 144 131 93 144 129 92 144 127 91 143 126 91 145 126 90 144 125 91 145 123 92 143 123 93 143 121 95 144 120 98 144 119 102 144 118 104 142 115 107 143 113 109 142 111 109 141 110 107 140 108 106 138 105 105 136 102 104 135 100 104 134 98 104 134 96 105 134 94 107 132 93 108 130 92 107 128 90 106 128 86 106 128 83 105 126 80 106 123 78 105 120 74 104 117 73 104 116 72 102 115 71 102 116 70 102 115 69 102 115 68 102 115 67 101 116 66 103 116 65 105 116 66 108 115 66 110 115 64 83 141 141 86 142 141 88 143 140 90 144 139 91 143 136 91 144 134 92 144 133 93 144 132 94 143 130 92 143 129 92 143 127 92 144 126 92 144 124 92 143 124 94 142 123 94 141 123 96 141 121 100 140 120 103 142 117 106 141 114 107 141 113 109 141 113 109 140 111 107 139 109 106 138 107 105 135 103 103 134 100 104 133 99 104 133 97 104 133 95 105 132 94 106 129 93 106 128 89 104 127 86 104 127 84 103 125 80 102 123 77 102 120 74 103 118 72 103 116 73 102 115 72 101 116 70 101 115 70 102 114 69 102 114 68 102 116 67 103 117 65 106 117 66 108 115 66 109 116 65 86 141 141 87 143 140 90 144 139 91 144 137 93 144 135 94 144 134 94 143 134 94 142 133 94 142 131 94 141 130 93 142 128 93 143 126 93 143 125 93 142 124 94 140 123 95 140 121 98 139 120 102 139 118 104 139 116 107 138 114 108 138 113 109 139 112 110 138 110 108 137 108 107 137 106 106 135 104 105 133 101 104 133 100 104 132 98 103 132 96 104 131 94 104 128 93 103 127 90 103 125 86 102 125 84 102 125 81 101 123 77 100 121 74 101 117 72 101 115 73 101 115 73 102 115 71 100 114 70 100 113 69 101 113 68 102 114 68 104 116 67 105 117 66 106 116 66 107 115 67 88 141 138 89 143 138 91 143 137 92 143 135 94 142 135 95 142 135 95 141 133 96 140 132 95 141 131 95 141 130 95 142 129 95 143 126 95 142 124 95 141 123 95 138 123 97 137 121 100 137 119 103 137 118 106 137 117 108 136 115 109 136 112 109 136 111 110 136 109 109 136 109 108 135 106 108 134 103 107 132 102 106 132 100 105 131 99 102 132 97 103 131 95 103 129 93 103 127 91 104 125 88 103 124 86 103 124 82 101 122 78 101 120 75 100 117 73 99 115 73 99 113 73 100 114 72 100 114 71 100 113 70 100 113 68 101 114 69 102 115 69 104 116 69 105 117 69 106 116 69 89 142 138 91 141 136 92 141 135 93 140 134 94 140 134 94 140 134 95 139 134 95 140 133 95 141 132 96 140 131 97 141 130 96 141 126 96 140 125 97 139 124 97 139 122 99 137 119 102 136 117 105 136 116 106 135 115 108 134 114 109 134 111 110 133 109 111 134 109 111 134 108 111 133 106 111 133 103 110 132 101 109 132 99 106 131 99 104 131 97 103 131 94 102 129 92 103 126 90 103 125 90 103 124 87 102 123 84 100 121 80 101 118 77 100 116 74 99 116 73 100 114 74 100 113 73 100 112 72 100 112 70 100 113 70 100 115 71 101 116 72 103 117 72 104 117 72 105 116 72 91 141 137 91 141 136 93 140 134 92 138 134 92 137 133 92 138 133 93 137 134 94 138 134 95 139 134 97 139 132 99 140 130 98 140 127 98 140 126 98 139 124 100 138 121 101 136 119 102 135 116 105 134 113 107 133 113 108 132 111 108 131 110 109 131 109 110 132 107 111 132 106 111 130 105 111 130 102 111 129 100 110 130 99 108 130 98 105 130 96 104 130 93 103 128 90 102 127 89 102 126 89 101 125 88 101 123 85 100 119 81 100 117 78 101 116 76 100 115 74 100 115 74 100 114 74 99 112 74 100 112 72 101 113 72 102 115 74 102 116 73 103 117 73 105 117 73 106 116 73 92 141 137 91 139 136 92 138 135 92 136 134 91 136 133 92 136 132 94 137 134 94 137 134 96 138 134 98 139 131 99 140 129 100 140 128 99 139 126 99 139 123 100 136 120 102 134 117 104 133 114 106 132 110 107 130 110 109 130 108 109 130 108 108 130 106 111 131 104 111 130 104 111 130 102 110 129 100 111 128 98 110 129 97 109 128 96 107 129 94 105 127 91 102 126 89 102 127 88 102 127 88 102 126 88 102 123 85 100 121 83 101 119 81 101 118 78 100 116 76 100 115 75 99 114 75 99 113 75 101 112 74 103 113 73 104 114 74 103 115 73 104 116 72 104 115 72 104 115 72 93 139 138 93 137 137 93 137 136 93 137 135 93 135 134 93 136 133 96 137 134 97 137 134 98 138 133 99 139 132 99 139 129 100 139 127 99 138 125 99 137 122 101 136 118 103 135 115 105 133 112 106 131 109 107 129 106 108 129 105 108 129 104 109 128 103 110 129 100 111 129 100 110 129 99 109 127 97 108 126 97 108 127 95 108 126 92 107 125 91 105 125 90 102 125 89 102 125 88 102 125 88 102 124 87 101 123 86 102 121 83 101 120 81 100 119 80 100 117 78 100 116 77 99 116 77 100 114 76 102 113 75 103 114 74 104 115 73 105 115 74 105 115 72 103 113 71 102 113 72 94 138 140 95 136 139 95 137 138 95 137 137 95 137 135 95 136 134 98 137 133 99 137 132 101 137 132 101 138 131 101 139 128 101 139 126 101 138 124 100 137 121 102 136 117 104 134 114 106 132 111 107 130 108 107 129 104 107 127 102 108 127 101 109 126 99 109 126 97 109 126 96 109 126 95 108 126 95 106 125 93 105 124 93 106 123 91 105 122 88 103 123 88 101 123 88 100 123 86 101 122 87 102 122 87 102 121 86 101 121 84 101 120 82 101 119 80 101 118 78 101 118 77 101 116 78 101 114 77 103 113 76 103 113 75 104 114 74 104 114 73 104 114 72 103 113 71 101 112 72 97 137 142 98 136 141 98 136 140 98 137 139 98 136 137 98 136 136 99 136 134 101 135 132 102 135 131 101 136 129 101 137 127 101 138 125 103 137 122 103 136 120 104 134 117 105 132 114 106 130 110 107 128 106 108 128 103 108 125 100 107 124 98 107 123 96 108 124 94 108 124 93 108 125 93 107 124 93 105 124 91 104 122 91 104 121 90 103 121 88 101 120 86 99 120 86 99 120 86 101 120 84 102 121 85 102 120 85 101 119 83 101 119 82 102 118 81 102 117 79 102 117 78 102 116 78 102 114 77 103 113 77 104 112 76 104 112 75 104 114 73 104 115 72 103 114 71 102 113 72 100 136 143 99 135 142 100 135 141 101 136 140 101 136 139 101 135 137 102 135 134 102 134 133 102 134 129 102 134 127 101 134 125 101 134 124 104 134 121 104 134 118 105 132 115 105 130 112 106 128 109 107 126 105 108 126 102 108 123 98 106 122 97 105 121 95 106 123 92 106 123 91 106 123 91 105 122 91 104 120 90 104 119 89 103 119 88 102 119 87 100 118 85 99 118 83 99 118 83 101 118 82 101 118 83 101 118 84 101 117 82 102 117 81 103 115 80 102 115 79 104 115 78 105 114 78 104 113 78 105 112 77 105 110 77 104 111 77 105 113 75 104 115 73 104 115 73 104 115 73 102 136 143 102 135 142 102 135 141 103 136 140 104 136 138 104 135 136 104 134 135 104 133 132 103 133 128 103 134 125 102 133 123 102 133 122 104 132 120 106 131 116 107 130 113 107 128 111 107 127 108 109 126 104 109 124 101 108 122 98 106 120 97 106 120 94 105 120 92 105 120 91 104 119 90 104 119 91 103 118 90 103 117 88 102 118 86 101 117 84 99 116 83 99 116 83 100 116 82 100 116 81 100 116 81 101 115 82 102 115 82 103 114 81 104 114 81 104 114 81 106 113 80 107 112 80 107 113 81 108 111 81 107 109 81 105 108 78 105 110 76 105 112 74 105 114 74 105 115 74 104 135 142 104 135 141 104 135 140 105 136 139 106 136 138 106 135 136 106 134 134 104 133 130 104 134 127 104 133 125 104 133 122 104 132 120 105 131 118 106 130 115 107 128 111 108 126 109 108 125 106 108 124 103 108 123 101 107 121 99 107 120 96 106 119 94 105 118 92 105 118 91 104 117 90 104 117 90 103 117 90 102 115 88 100 114 86 101 115 83 100 114 83 99 114 82 99 115 81 100 114 81 100 114 80 101 114 81 101 114 82 103 113 82 105 112 83 106 113 83 108 112 82 108 110 83 109 110 83 109 109 83 108 107 82 107 107 81 107 108 78 106 111 75 106 113 75 106 114 75 106 135 142 106 135 141 107 136 140 108 136 138 108 136 137 109 134 135 108 133 133 106 133 130 105 133 127 105 132 125 106 131 122 105 130 119 105 129 116 106 127 112 108 126 108 109 123 107 108 122 105 109 121 102 109 120 100 109 120 98 108 118 95 106 118 94 105 116 93 103 115 91 103 114 90 102 114 89 103 114 89 101 113 88 99 112 86 99 112 84 100 113 84 99 113 83 99 113 82 100 112 82 100 113 82 100 112 82 100 113 81 102 112 82 106 110 84 107 111 85 108 110 85 109 108 85 110 107 84 110 106 84 111 105 82 109 107 80 109 109 79 108 110 77 108 111 77 107 113 77 107 136 141 108 136 140 110 137 139 111 136 138 111 136 137 111 135 134 111 134 132 108 133 131 107 131 129 106 130 124 107 130 122 105 130 118 105 128 114 105 126 110 107 123 108 108 122 106 108 120 104 109 119 103 109 118 101 109 117 97 107 117 96 107 116 95 105 114 94 102 113 93 101 112 91 100 111 89 100 111 89 100 112 89 99 111 87 98 110 85 99 111 85 99 112 85 100 112 84 100 112 85 100 112 85 100 111 84 100 111 83 101 110 83 104 109 84 107 109 85 108 107 87 109 106 87 111 105 87 113 103 85 113 105 82 112 106 80 111 108 79 111 109 78 110 111 79 108 112 78 108 137 139 110 137 139 111 137 139 112 137 138 113 136 136 113 135 134 112 136 132 110 133 131 108 132 129 107 130 125 106 128 120 105 128 117 104 126 113 105 125 110 105 123 108 106 121 106 107 119 104 107 118 104 108 117 102 108 116 100 107 115 97 106 114 96 106 113 95 103 111 95 101 111 93 100 110 92 100 109 90 99 109 88 98 109 88 98 109 86 99 109 85 99 110 86 100 111 87 100 111 88 100 110 88 101 109 86 101 109 85 102 109 85 105 108 86 108 106 87 108 104 88 109 104 88 110 103 88 113 103 86 114 103 83 113 106 82 114 107 80 113 107 80 110 109 82 108 110 82 110 136 137 111 136 137 113 136 138 114 137 137 114 135 136 114 136 135 114 136 133 113 134 131 110 132 129 108 131 125 106 129 121 105 127 117 105 125 114 106 123 111 106 121 109 105 119 107 106 118 105 106 117 104 107 116 102 107 115 99 107 113 97 105 112 97 105 111 96 105 110 95 104 109 94 102 109 92 101 107 90 101 107 89 100 106 88 98 107 88 99 108 88 99 108 88 100 108 89 100 108 89 101 108 90 101 106 89 101 107 87 103 106 86 106 105 87 107 103 88 107 102 88 109 102 89 111 101 88 113 101 87 115 102 85 116 104 83 116 106 82 113 106 82 111 107 84 108 110 84 111 135 136 113 136 136 114 136 137 116 136 138 117 136 137 116 136 135 115 136 134 114 134 131 112 132 128 109 130 125 107 127 121 107 126 117 106 124 115 106 122 112 106 119 110 105 117 108 105 117 105 106 115 103 106 114 101 106 113 99 106 113 98 105 112 98 106 111 97 105 110 96 105 109 96 104 107 95 103 106 93 103 104 91 102 105 89 100 106 89 100 105 90 100 105 89 101 105 90 101 105 91 102 105 91 102 104 91 104 104 90 106 104 89 107 104 89 107 102 89 109 101 89 110 101 90 113 100 89 115 100 88 117 101 87 117 102 85 115 104 84 114 105 84 112 107 85 109 108 86 112 134 135 114 135 136 116 135 137 117 136 138 117 136 138 117 136 136 116 135 135 114 133 132 112 130 128 111 128 125 109 126 120 108 125 118 107 123 115 105 121 113 105 119 110 105 117 108 105 115 105 105 113 103 106 113 100 105 111 99 106 111 99 107 110 98 108 109 99 107 110 98 106 108 98 106 106 97 106 104 95 106 103 92 105 102 90 103 102 91 102 101 91 103 102 92 103 101 92 104 101 93 104 101 93 105 102 92 107 103 93 108 102 92 109 102 91 109 101 91 110 101 91 112 100 92 115 99 92 118 100 90 118 100 88 117 101 86 116 102 86 114 104 85 112 105 86 110 107 87 114 135 134 115 134 135 116 134 137 117 135 138 117 136 138 116 135 136 115 133 134 113 132 131 113 130 127 113 127 123 112 126 120 111 124 118 110 122 116 107 120 113 105 118 109 105 116 106 105 114 105 105 112 102 106 110 101 106 110 100 106 110 100 107 109 100 108 108 100 107 108 99 108 107 98 108 105 98 109 104 96 108 102 94 106 101 93 107 99 93 106 99 94 105 99 95 105 100 95 106 98 96 107 98 96 108 99 96 109 100 94 111 99 94 114 99 94 113 99 94 113 99 95 115 99 95 117 99 95 119 100 92 119 101 90 119 101 89 118 103 89 116 104 88 113 105 88 111 107 88 115 135 135 115 135 135 116 134 136 116 134 137 116 135 138 115 134 135 116 133 131 114 131 128 114 129 125 115 126 122 114 124 120 112 122 117 110 121 116 108 118 113 106 117 109 105 116 106 105 113 104 105 111 103 105 110 103 106 110 102 106 109 102 106 108 103 106 106 102 107 105 102 109 103 100 110 103 100 110 102 97 109 101 96 108 99 96 108 98 96 108 98 96 107 98 97 107 96 98 109 95 99 110 95 99 112 95 98 113 97 97 115 96 96 117 97 97 117 97 96 116 97 96 116 98 97 119 99 97 119 100 95 119 100 92 121 101 90 120 103 90 118 104 90 115 105 90 112 107 89 115 135 135 115 135 135 116 133 136 117 132 136 117 132 135 117 131 132 118 130 129 117 128 126 115 127 124 116 124 121 115 123 119 113 121 118 110 120 115 108 118 112 107 117 109 106 117 106 106 114 105 105 112 105 105 111 105 105 110 105 106 108 105 106 106 105 106 104 103 108 103 103 109 102 103 111 101 102 111 100 99 112 99 98 111 99 98 111 98 98 110 98 99 110 97 100 110 95 101 112 94 102 113 94 101 115 95 100 116 94 99 118 95 99 120 95 100 119 96 98 118 98 98 119 98 98 121 98 98 120 100 97 121 101 95 122 102 92 121 103 92 119 103 92 116 104 91 113 105 90 115 135 135 117 134 135 118 133 136 118 131 135 118 131 132 118 129 129 118 128 127 119 126 124 117 125 122 116 123 119 115 122 118 114 121 117 111 119 113 109 119 110 108 119 107 107 117 106 107 114 105 107 113 105 106 110 106 105 109 107 106 108 107 105 106 106 106 103 105 108 101 104 110 100 104 112 99 103 113 99 102 114 99 100 113 99 99 113 99 99 112 97 100 112 95 102 113 94 102 115 93 102 116 93 102 119 94 102 120 93 101 121 93 102 121 94 101 120 95 100 120 97 100 121 97 100 122 99 99 122 100 98 123 101 97 123 101 95 122 102 95 119 102 94 117 103 92 114 103 91 115 133 135 118 133 134 118 133 134 118 131 132 118 128 130 119 127 127 120 127 126 119 125 123 118 123 120 117 123 117 115 124 115 114 122 114 111 121 111 109 120 109 108 119 107 107 118 105 106 115 106 107 112 107 107 110 106 106 108 107 106 106 108 105 105 107 106 103 105 109 101 105 112 99 104 113 99 104 113 98 104 114 98 102 114 97 100 114 97 99 115 96 99 115 95 101 115 95 103 116 93 103 117 91 102 120 91 102 121 91 102 121 92 102 120 93 102 121 94 102 122 95 102 123 96 101 123 97 100 123 99 99 124 100 98 123 100 96 122 100 96 118 101 95 116 102 93 115 103 92 116 131 134 117 131 133 118 132 132 118 129 130 120 127 128 120 126 126 120 125 124 119 125 122 119 123 120 117 123 117 115 124 114 113 123 112 111 122 110 109 121 110 107 119 109 106 117 107 106 114 108 106 112 108 107 108 107 108 106 108 106 104 109 106 103 109 107 101 107 110 99 106 112 98 105 114 97 105 115 97 104 115 97 103 115 97 101 115 96 100 116 95 101 117 95 102 117 95 103 118 93 102 119 91 102 121 90 103 121 89 104 121 90 103 121 91 103 123 92 103 123 93 103 123 95 102 123 96 100 124 98 98 124 100 96 124 100 96 121 101 97 118 102 96 117 103 94 116 103 92 116 130 133 115 130 132 117 130 130 119 128 129 120 127 127 120 126 125 120 125 122 119 124 120 118 123 118 116 124 115 115 124 112 112 124 110 110 123 110 109 122 110 107 120 110 105 117 110 106 114 110 106 111 110 108 107 111 108 105 111 107 104 111 107 102 109 109 101 108 111 98 106 112 96 107 114 95 106 116 95 105 116 96 104 117 96 102 117 95 102 117 93 103 119 93 103 119 93 104 120 91 103 120 89 102 121 88 104 122 88 104 122 90 105 122 90 103 123 91 103 124 92 103 123 94 102 124 96 99 124 97 98 123 98 96 123 100 97 121 102 97 119 102 97 118 102 96 117 102 94 115 130 132 115 129 131 118 128 129 119 127 127 120 126 125 120 126 124 120 125 120 119 124 117 117 123 116 116 123 114 114 122 111 112 123 111 110 123 110 109 122 112 107 121 113 106 118 112 106 115 111 108 110 111 108 107 112 109 106 113 108 104 113 109 101 111 110 99 109 112 97 108 113 95 107 115 94 107 117 94 105 117 94 105 117 94 104 117 93 102 119 92 103 119 91 104 120 91 104 120 89 104 121 87 103 122 87 103 122 88 104 123 89 104 123 90 103 122 91 103 123 92 102 124 94 100 123 95 97 123 96 96 123 98 96 123 99 97 120 101 97 120 103 97 119 103 96 119 103 96 115 131 131 116 129 129 118 128 128 119 128 127 119 127 124 119 126 122 120 125 120 118 124 116 116 122 114 115 121 112 114 122 110 111 123 111 110 123 113 109 122 113 108 120 114 107 118 113 107 114 113 108 110 112 108 107 113 108 105 114 108 103 113 108 101 112 110 100 110 112 98 109 114 95 109 116 94 108 117 93 107 118 92 107 117 92 106 117 92 105 118 91 104 120 90 106 120 89 106 121 87 105 121 86 104 121 86 104 122 87 105 123 89 105 123 90 104 122 91 103 122 93 101 122 93 99 123 93 97 123 95 95 122 98 95 121 100 97 120 101 97 119 103 98 119 104 98 119 104 98 115 131 132 116 130 130 117 129 128 118 129 126 118 128 124 117 127 121 118 126 118 118 124 116 116 122 114 115 122 112 113 123 110 111 123 112 109 122 112 109 121 114 108 119 115 106 116 114 106 112 114 107 110 114 107 107 114 107 105 115 108 103 115 109 102 114 111 101 112 114 97 111 115 95 110 116 93 110 118 92 110 119 91 109 119 90 109 119 90 109 118 90 108 119 89 108 120 87 107 121 87 106 121 87 106 121 88 106 122 88 106 124 89 106 123 90 104 123 91 104 122 92 102 122 92 99 121 92 97 122 93 96 121 95 98 120 99 99 119 100 98 118 101 98 118 102 98 117 103 98 115 132 132 116 130 130 117 130 128 117 130 126 116 129 124 116 127 121 115 125 119 115 124 117 115 122 114 114 122 112 113 123 112 110 123 112 108 123 114 109 121 115 108 119 116 107 116 116 106 113 115 106 111 115 107 107 115 108 105 116 108 102 116 109 101 115 112 100 114 114 97 112 116 94 112 117 92 112 118 91 112 120 90 112 121 90 111 119 89 111 119 89 112 120 88 111 120 88 109 120 88 107 121 87 107 121 88 107 121 89 107 123 89 106 123 89 105 122 91 105 121 91 102 120 91 101 119 91 99 119 91 99 119 93 99 117 96 100 116 99 100 116 99 100 115 100 101 116 101 100 116 132 133 115 130 129 116 130 128 115 130 127 114 128 125 115 125 123 114 124 121 113 123 118 113 122 115 112 122 114 110 123 114 110 123 115 109 122 116 108 120 115 108 118 116 108 116 117 107 113 116 107 110 116 107 106 116 108 104 116 108 102 117 109 100 117 111 100 116 113 98 115 115 95 114 117 92 115 118 90 115 120 90 115 121 90 114 120 90 114 121 89 114 121 89 113 121 89 111 121 88 110 121 88 109 121 88 109 122 88 108 122 88 107 122 88 107 121 89 105 120 90 104 119 90 102 117 90 101 116 91 101 116 93 101 115 95 100 114 97 100 114 98 101 114 99 101 114 100 103 117 131 132 116 131 130 116 129 129 115 128 128 114 126 126 115 124 124 115 122 121 114 122 118 113 121 116 111 121 116 110 122 115 110 122 116 111 121 116 109 120 115 109 117 116 108 114 117 107 112 115 107 109 116 107 106 116 108 104 117 108 102 117 109 100 117 110 99 118 113 96 117 115 93 116 115 90 117 117 90 117 119 90 117 121 90 117 122 90 117 123 89 116 122 89 115 121 89 113 120 88 113 119 87 112 120 87 112 121 88 111 122 88 109 120 88 107 119 88 106 117 88 106 117 89 104 116 90 103 115 91 102 114 92 101 113 94 100 114 96 99 113 96 101 111 98 101 112 100 104 117 131 131 116 131 129 115 128 128 117 125 127 116 123 126 115 122 125 114 122 123 113 121 120 112 121 118 113 121 117 111 121 116 111 121 116 111 120 117 110 118 116 110 115 116 109 114 117 108 111 116 109 108 116 109 106 116 108 105 116 108 102 116 110 100 118 110 98 120 111 95 119 113 92 119 115 91 120 116 91 119 118 91 118 119 91 118 121 89 118 123 88 117 123 88 115 122 87 115 121 88 114 119 88 114 119 88 114 120 88 112 121 87 110 119 87 107 118 87 106 115 88 105 115 90 105 115 91 103 114 90 102 113 91 101 112 93 102 112 95 102 111 96 102 111 98 103 112 99 106 117 129 130 115 130 129 115 126 128 116 123 126 116 121 126 116 121 125 114 122 124 113 122 121 113 122 120 113 122 118 113 121 117 112 120 117 111 119 117 111 117 117 111 115 117 110 113 117 110 110 117 110 108 118 109 105 117 108 104 117 108 102 117 109 99 119 110 97 119 111 94 120 112 92 119 114 92 120 116 91 120 118 91 119 119 90 118 121 89 118 124 88 117 123 87 115 122 87 115 121 88 114 120 88 114 119 88 114 119 88 113 120 86 111 119 87 108 117 87 106 115 88 105 116 90 105 116 91 106 114 90 104 112 90 104 112 93 103 110 94 104 110 95 105 109 97 106 111 98 109 