P3
50 50
255
99 117 170 99 119 170 101 121 171 102 122 171 104 122 173 104 123 172 106 125 170 107 126 167 107 127 165 106 128 163 106 129 163 107 131 162 108 132 162 110 132 162 112 131 163 115 131 163 117 131 162 119 131 162 120 131 161 119 131 160 120 132 159 120 134 157 120 136 156 119 138 155 118 139 153 117 141 152 116 144 151 115 147 152 115 147 153 114 148 153 114 148 152 115 148 152 117 149 152 119 150 153 120 152 154 119 153 154 118 153 153 118 152 151 118 152 151 118 152 150 118 151 148 120 151 145 122 150 142 122 149 139 121 149 137 121 149 134 122 150 132 123 150 131 123 150 131 121 150 131 101 116 172 102 118 173 103 120 174 104 122 172 104 123 173 106 123 173 107 125 171 107 126 168 107 127 165 107 128 163 106 130 162 107 131 162 108 131 162 110 130 162 112 130 162 115 129 161 117 130 160 118 130 160 120 131 159 120 131 158 121 132 158 121 134 156 121 136 154 119 139 153 118 142 153 118 144 152 117 146 151 116 149 151 116 150 152 116 150 152 116 149 152 117 150 152 119 151 152 121 153 153 121 154 154 120 156 153 119 156 152 119 154 150 119 153 150 119 153 149 119 152 147 122 151 145 123 150 142 123 151 139 123 151 137 123 151 134 123 151 132 123 152 131 123 153 131 122 152 130 103 117 174 103 118 175 104 119 173 105 120 173 107 121 173 108 123 173 108 125 171 108 126 167 107 126 165 107 128 162 106 130 161 107 132 160 109 132 161 110 131 161 112 130 161 114 129 160 115 130 159 117 131 158 118 131 157 119 133 156 121 134 156 122 134 155 121 136 153 120 139 153 119 143 153 119 145 152 117 148 152 117 150 152 117 152 152 118 152 153 118 152 153 120 152 152 122 153 152 123 155 153 124 156 153 122 158 152 121 158 151 121 156 149 121 156 149 121 154 148 121 153 146 122 153 144 123 152 140 124 152 137 125 152 136 123 152 134 123 152 132 124 152 130 123 153 129 122 153 128 104 116 174 104 117 174 105 118 173 106 119 173 108 121 173 109 122 172 109 123 169 109 124 167 107 126 164 107 128 161 108 130 159 109 133 159 109 132 161 110 132 162 111 131 162 112 131 160 112 131 157 114 132 157 116 134 156 118 135 154 120 135 154 121 137 153 120 138 152 119 141 152 119 144 154 120 146 153 119 148 152 118 150 152 118 153 152 119 154 153 119 155 153 121 154 153 124 155 153 125 157 153 125 158 152 124 158 150 124 159 150 123 158 148 123 156 147 123 155 146 123 155 146 123 155 143 123 155 140 124 154 138 125 153 135 124 153 134 124 153 133 123 153 130 123 154 128 122 154 126 104 116 173 104 116 173 106 118 173 107 119 172 109 120 171 110 121 170 110 122 168 110 123 167 109 126 164 109 129 160 109 131 160 109 132 160 110 132 162 109 133 163 110 133 162 110 134 160 112 133 157 113 134 156 114 135 154 116 137 154 119 139 154 120 140 152 120 142 153 119 143 154 119 146 156 119 148 154 119 149 152 119 152 152 118 154 152 119 156 153 120 157 153 122 157 152 124 158 152 126 159 151 126 160 150 126 160 149 126 160 148 125 159 147 124 158 147 123 157 146 123 157 145 123 156 143 123 156 141 124 156 138 125 156 136 125 155 134 124 154 132 122 155 131 122 155 128 123 155 126 104 116 172 105 116 172 107 117 172 107 118 170 107 120 169 108 119 168 110 120 166 110 121 165 110 124 164 109 127 161 109 130 160 109 131 161 109 132 162 109 133 162 110 134 162 111 134 160 112 135 158 113 137 157 113 138 156 115 140 155 117 142 154 119 144 153 120 145 155 120 147 156 120 149 156 120 151 156 119 152 154 118 154 154 118 156 154 119 158 153 121 159 152 122 160 152 126 161 151 128 162 150 127 162 150 128 161 149 127 161 148 126 161 147 125 160 148 125 160 147 125 159 144 125 159 143 125 158 140 125 158 138 127 158 136 126 157 133 123 158 130 123 156 129 122 155 127 123 155 125 104 114 171 106 116 171 107 117 170 107 118 168 108 118 166 107 119 165 108 120 163 109 121 162 110 123 162 109 126 160 108 128 159 108 131 160 109 133 161 109 135 161 109 135 161 110 134 161 112 136 159 113 139 158 114 141 158 115 143 156 117 145 156 118 147 155 120 148 157 120 150 157 121 152 159 120 153 159 119 155 157 118 156 155 118 158 155 120 159 154 122 161 153 125 162 152 128 163 151 129 163 149 129 164 148 130 162 149 130 163 148 128 164 147 128 162 148 127 162 147 128 162 145 128 162 142 128 161 138 128 161 137 128 161 134 127 160 132 125 159 130 124 158 127 123 156 125 123 156 123 104 114 169 106 115 169 108 116 168 107 117 165 107 118 165 107 118 163 105 119 161 107 121 160 107 125 161 107 128 159 108 129 159 107 132 159 107 135 160 109 136 160 109 136 161 111 136 161 113 138 160 114 140 158 116 143 158 117 146 157 117 148 157 118 149 157 119 151 158 121 152 159 120 154 161 119 155 162 118 157 159 118 159 158 119 160 156 121 161 155 124 162 154 127 163 152 129 163 150 130 164 148 131 165 148 132 165 149 131 165 149 131 165 148 129 165 147 131 164 147 132 163 144 132 163 141 132 162 137 130 163 136 130 162 134 128 160 131 128 159 129 127 158 126 125 158 125 125 158 124 105 113 168 106 115 168 108 117 166 108 117 166 107 118 163 106 117 161 105 119 160 106 122 159 106 126 159 105 130 159 105 132 159 106 133 158 107 135 159 109 136 160 109 137 161 110 139 161 112 140 160 115 142 158 116 145 159 117 148 157 118 149 158 119 151 158 119 153 160 120 154 161 119 155 162 118 157 162 119 159 160 120 161 159 122 161 157 122 163 155 125 163 153 127 164 152 129 164 150 131 164 148 132 166 148 133 166 149 133 166 149 132 167 148 132 167 148 133 166 145 133 165 141 133 164 139 133 163 136 132 163 135 131 163 133 130 163 130 129 160 128 129 158 126 127 159 124 127 159 124 105 113 168 107 115 166 108 116 166 108 118 164 107 119 162 107 120 160 105 121 160 104 123 160 105 127 160 105 131 160 104 132 159 105 133 159 107 134 158 109 135 160 108 138 161 110 140 161 112 142 160 115 143 160 115 145 159 116 148 159 116 149 160 118 151 161 119 153 162 118 155 163 117 155 163 117 158 162 119 161 161 120 162 159 122 162 158 124 163 155 125 164 154 127 164 151 130 165 150 132 165 149 133 166 150 134 167 150 134 167 149 134 167 148 134 167 146 133 166 144 132 166 141 133 165 138 133 164 137 132 164 135 131 164 133 131 164 130 130 161 128 130 159 125 130 159 124 128 160 123 105 113 167 107 114 167 108 115 165 108 117 163 107 120 161 107 121 160 105 123 160 104 125 160 105 128 160 106 131 160 106 133 159 105 134 160 107 134 159 108 135 161 108 138 161 111 141 160 112 143 160 114 145 159 114 148 159 115 148 160 117 150 161 117 152 163 118 154 164 118 156 165 118 156 164 119 159 162 119 162 161 121 162 160 123 163 159 125 163 156 126 164 154 128 164 153 130 165 151 132 167 151 132 168 152 133 170 150 135 168 149 135 168 147 134 167 146 133 166 144 133 165 141 133 165 138 132 165 136 132 165 136 132 165 133 132 163 131 132 161 128 132 160 127 132 161 124 131 161 122 105 113 166 107 114 166 109 115 164 108 117 162 108 118 161 107 120 160 105 124 159 105 127 160 106 130 160 107 133 161 107 134 160 107 134 160 108 135 160 109 136 161 110 138 161 111 141 160 112 144 159 112 146 160 113 150 160 115 150 161 117 150 163 117 152 164 117 154 165 119 157 165 120 158 164 120 160 163 122 162 162 123 163 161 125 163 160 126 165 158 128 166 155 128 167 154 130 168 152 133 169 151 133 171 152 134 171 150 136 170 149 136 168 146 135 167 145 134 167 144 134 166 142 133 165 139 134 165 136 133 165 135 132 165 133 133 164 132 134 162 130 134 161 128 134 162 124 132 162 121 104 115 165 106 116 166 107 117 165 108 118 164 107 120 163 106 121 161 106 125 160 107 129 159 106 132 160 107 133 160 108 135 161 108 135 161 110 136 161 110 138 161 111 140 162 112 142 160 111 144 159 112 147 159 112 151 161 114 152 161 116 152 162 117 153 163 119 155 165 120 157 165 121 159 165 122 161 164 123 163 163 124 165 162 125 166 161 127 166 159 128 167 157 130 168 154 132 170 152 133 171 150 133 173 150 135 174 150 135 172 148 136 170 147 136 170 144 136 169 143 136 168 141 135 166 139 135 165 136 136 165 134 135 165 133 135 164 132 136 163 131 137 162 127 135 162 124 134 162 121 103 117 165 104 118 166 105 119 165 106 121 164 106 121 163 106 123 160 105 125 159 106 129 159 106 131 160 106 134 161 110 136 161 110 137 161 111 139 161 111 141 162 112 142 160 112 143 159 113 145 158 112 148 158 112 151 159 113 153 160 114 153 162 116 155 163 118 156 164 120 157 165 121 159 165 122 162 164 123 164 163 125 166 163 127 167 161 128 167 160 129 168 156 131 169 153 133 171 152 133 172 150 134 174 149 135 176 148 135 175 148 136 173 146 138 172 145 138 172 143 137 170 141 136 168 139 137 165 136 137 165 134 136 165 133 137 164 132 138 164 130 138 163 127 137 163 124 136 163 121 101 120 163 103 121 164 103 122 162 104 122 163 105 122 161 106 124 160 105 127 159 104 129 159 105 132 159 107 134 161 109 136 161 110 138 160 112 140 161 112 142 160 113 141 158 113 144 158 114 146 156 112 149 156 112 152 157 112 154 159 114 155 161 115 156 162 117 157 163 120 159 164 121 160 163 122 162 163 123 164 162 124 167 162 126 168 161 129 168 159 131 169 155 133 170 153 133 171 151 134 173 150 135 175 149 136 177 148 136 177 147 138 176 146 140 174 144 139 173 143 138 172 141 138 170 140 139 167 138 138 167 135 138 166 133 138 165 131 139 166 128 141 165 126 139 165 123 138 165 122 98 123 160 101 123 160 102 123 160 103 123 161 104 124 161 104 126 159 103 130 158 104 131 158 105 133 157 105 135 159 106 137 159 108 139 159 110 140 159 112 141 158 112 143 157 113 145 156 112 148 155 110 150 155 109 152 157 111 154 158 113 156 160 114 156 161 116 158 163 120 160 163 122 162 161 123 164 162 125 166 162 125 168 162 127 169 162 129 169 159 132 171 157 133 171 155 134 172 152 135 175 150 135 176 149 136 176 147 137 178 146 139 177 145 141 175 143 140 174 142 139 173 141 139 171 140 139 170 138 140 169 136 139 168 134 140 167 131 141 167 129 142 166 126 141 165 124 140 165 122 96 125 159 99 125 159 101 125 160 102 125 160 103 126 160 103 129 157 102 131 156 103 133 155 103 134 155 104 136 157 106 137 157 107 139 156 109 140 156 110 141 156 111 143 156 111 145 155 109 148 154 108 150 156 108 153 157 110 156 158 113 156 160 114 156 161 116 158 162 119 160 162 122 162 161 124 165 162 126 166 162 128 168 162 129 169 162 131 170 161 132 171 159 133 171 157 134 173 154 135 175 151 136 175 149 136 177 148 137 177 146 139 177 145 140 176 144 141 174 142 140 173 140 140 172 139 141 171 137 141 171 135 142 169 133 142 168 131 143 168 129 143 167 126 143 166 124 142 165 123 95 126 159 97 126 159 99 127 160 100 128 161 101 130 160 101 132 158 103 134 155 102 134 154 102 136 154 104 137 156 106 138 155 107 139 155 109 140 154 109 141 154 109 143 154 108 145 153 107 147 154 106 150 155 107 154 157 109 157 159 113 158 159 115 158 160 117 158 160 119 160 161 122 164 162 124 165 162 126 166 162 129 166 162 131 167 161 132 169 160 134 171 160 135 171 157 135 173 155 135 175 153 135 175 150 136 176 146 137 177 144 139 177 143 139 175 143 140 174 140 140 175 139 141 174 137 143 173 136 144 172 135 144 170 133 145 169 132 146 168 130 146 168 127 145 168 126 145 167 124 95 130 159 96 130 160 98 131 161 99 133 162 99 133 161 101 133 159 102 135 156 101 136 154 102 138 153 102 139 152 105 139 152 106 140 153 108 141 152 109 141 151 107 143 151 106 146 152 106 148 153 106 151 155 107 154 157 110 155 159 114 157 159 116 158 159 118 159 159 121 161 161 124 163 162 125 164 163 127 164 162 130 165 163 132 166 162 132 168 160 133 170 159 134 171 157 135 173 155 134 175 153 134 175 149 135 175 145 136 176 143 137 177 141 138 176 140 139 176 139 140 175 137 143 174 135 144 173 134 146 172 134 146 171 133 147 170 130 147 170 129 148 168 127 148 168 126 146 168 125 95 133 160 97 134 161 97 135 162 99 137 163 101 137 161 102 136 159 101 136 158 100 137 155 101 139 152 102 141 151 104 140 150 106 141 150 106 142 150 106 142 150 106 144 151 106 146 152 107 148 153 107 151 154 109 153 156 112 155 157 115 157 157 118 158 158 121 159 159 124 161 161 126 162 162 126 163 162 128 163 162 131 164 162 132 167 161 133 169 159 132 171 158 134 172 155 134 173 153 135 175 152 135 176 148 136 176 145 136 176 143 137 177 140 139 177 139 140 176 138 141 176 137 143 175 134 145 174 133 146 173 133 147 172 132 146 171 129 147 170 128 148 169 126 149 169 126 149 168 126 97 136 161 98 136 162 99 137 163 100 138 163 102 138 162 102 139 160 101 138 158 101 138 155 102 141 153 103 142 151 103 142 150 105 142 149 105 143 149 105 144 149 107 145 151 108 147 152 109 149 152 109 151 153 111 153 153 113 154 154 116 156 155 120 158 157 123 159 159 126 161 160 128 162 161 129 162 161 130 163 161 131 164 159 132 167 159 133 170 158 132 171 155 133 172 153 134 174 151 134 173 149 135 175 147 135 176 146 136 177 143 137 177 140 139 177 138 141 176 136 143 176 134 145 175 133 147 174 131 147 174 132 147 173 130 147 170 129 147 169 126 148 169 124 150 169 125 151 167 126 98 137 162 99 137 163 100 138 165 101 139 164 103 139 164 102 140 162 102 140 160 102 140 157 104 142 154 103 143 152 103 144 151 104 143 150 104 143 150 105 144 150 107 146 150 109 147 151 109 148 151 110 151 152 112 154 153 115 155 154 119 156 155 121 157 156 125 159 158 128 161 159 129 163 160 131 163 160 132 164 160 133 165 157 132 167 157 132 170 156 133 172 153 131 172 151 132 172 150 133 172 148 135 175 146 135 176 146 136 176 144 138 177 140 139 177 138 141 177 136 143 177 133 145 176 131 146 175 130 147 174 130 148 174 129 148 171 127 147 170 124 149 169 124 150 169 124 151 167 124 98 137 163 99 138 165 100 138 165 102 140 165 103 140 165 103 140 163 104 141 161 104 142 157 104 143 154 104 143 152 104 142 150 103 142 150 103 143 150 105 144 150 107 146 151 109 147 151 110 150 150 111 151 151 113 154 152 117 156 154 120 157 154 124 158 155 128 160 157 131 161 159 131 163 159 132 164 159 133 165 157 133 166 156 133 169 154 132 171 154 132 171 151 132 171 148 132 171 148 133 172 147 135 174 146 136 175 144 137 177 142 140 178 140 142 178 137 143 177 135 143 176 133 144 176 130 146 176 130 147 175 129 146 176 128 148 174 126 148 172 125 148 169 124 150 169 123 151 169 123 100 137 166 100 137 165 101 139 166 102 141 166 103 141 167 103 141 165 103 141 161 105 143 158 105 143 154 105 142 153 106 140 151 105 140 151 104 142 151 104 144 151 106 145 152 108 147 151 111 149 150 112 151 150 115 152 150 118 154 152 122 157 154 125 158 155 128 161 156 130 162 157 132 162 158 133 162 157 134 164 156 134 166 155 133 170 153 133 170 152 133 171 150 134 170 147 133 171 146 134 172 145 137 174 144 137 175 143 139 177 140 142 179 139 144 180 137 145 179 135 146 178 133 146 177 131 146 177 130 146 176 129 146 176 127 148 175 126 149 172 126 149 170 124 150 170 123 151 169 122 100 136 169 101 137 168 102 139 167 103 140 167 104 141 168 103 141 166 105 142 163 106 143 159 106 144 156 106 143 155 107 140 154 107 140 153 106 141 152 107 144 152 108 145 152 109 146 151 112 148 150 114 150 150 116 152 151 120 154 152 122 156 154 126 159 154 128 161 155 130 162 155 131 162 155 133 161 155 134 164 155 134 165 153 133 169 151 133 170 150 134 170 148 135 171 146 134 172 145 135 173 143 137 175 142 139 176 142 141 179 140 143 179 139 145 181 138 146 180 136 146 179 133 145 179 132 146 178 131 148 178 129 147 177 128 147 175 127 149 173 127 149 171 126 150 171 124 152 171 123 101 137 171 101 138 170 102 138 171 103 140 170 104 141 168 105 143 167 106 144 164 107 144 161 107 145 158 107 143 157 108 140 157 108 139 156 108 140 155 108 142 154 109 144 152 111 146 151 114 148 150 116 149 150 118 152 152 120 154 153 123 156 153 126 159 153 129 161 153 130 162 153 130 162 153 133 161 153 133 163 153 134 165 152 134 168 150 134 169 148 134 171 147 135 172 144 136 172 143 136 175 141 137 176 141 138 177 140 141 180 138 142 180 137 145 181 138 146 180 137 146 180 134 146 180 134 147 180 133 147 178 131 148 177 130 148 175 129 149 174 128 150 172 127 151 172 126 153 172 124 103 138 174 103 139 173 104 139 172 105 140 171 106 142 168 108 144 167 108 144 165 109 144 163 109 144 161 110 142 159 109 141 158 109 140 157 109 140 155 110 141 155 110 143 153 113 146 153 116 148 152 118 150 152 119 152 154 122 154 154 124 156 153 127 158 154 128 160 155 129 162 155 131 161 154 131 162 153 132 163 152 134 166 151 134 169 148 134 170 147 134 172 146 136 173 145 137 174 142 138 175 141 138 177 141 138 178 139 140 180 138 141 181 138 143 181 137 145 181 138 148 181 136 149 180 136 149 180 135 149 179 133 149 178 131 151 175 130 152 173 129 152 173 128 152 173 126 154 174 124 104 138 174 104 139 174 105 140 172 106 142 170 108 144 169 109 144 167 110 144 166 111 144 165 111 143 164 111 143 161 111 142 159 110 141 157 110 140 156 111 141 155 113 143 154 115 146 153 116 148 154 118 150 154 121 152 154 124 154 154 127 157 153 128 159 154 129 160 156 129 162 155 131 162 154 131 163 154 132 166 152 133 168 151 134 170 149 133 171 148 134 172 146 136 174 144 137 175 143 138 176 142 140 177 141 140 178 139 141 179 138 142 181 137 144 183 137 146 183 138 149 182 137 151 182 137 151 180 136 151 179 134 151 179 132 152 176 131 153 174 129 152 175 128 152 174 126 154 176 124 105 137 174 105 140 174 105 141 173 106 142 172 108 143 172 111 143 170 112 143 169 112 143 167 113 142 165 112 142 162 112 142 160 112 141 158 112 140 157 113 142 157 115 144 156 116 147 155 118 149 156 120 152 156 123 153 155 125 154 155 127 157 155 128 160 154 129 161 155 130 161 156 131 162 156 131 164 155 132 166 153 132 168 150 133 169 149 134 171 148 136 172 146 137 174 144 137 175 142 138 176 142 140 176 141 141 177 140 142 179 140 144 180 139 145 182 138 147 184 138 150 183 138 152 182 137 153 180 137 153 179 135 152 178 133 153 177 132 153 176 130 152 175 129 153 176 127 154 177 125 105 136 175 104 138 176 105 140 175 107 141 174 109 143 174 112 144 173 114 143 171 115 143 170 115 142 167 114 142 164 115 141 162 114 141 160 115 141 159 117 144 160 117 146 159 118 149 158 119 150 157 121 152 156 124 154 156 126 156 156 128 158 155 130 160 155 132 162 156 131 162 157 132 163 158 131 164 157 133 165 153 133 168 151 133 169 150 135 171 149 137 173 147 138 175 144 138 176 142 140 177 141 141 176 140 141 177 141 143 179 140 145 180 139 145 182 137 147 184 138 150 184 138 152 182 138 154 180 137 154 179 135 153 178 133 154 177 133 154 177 131 153 176 130 154 175 128 154 177 126 104 135 177 105 137 177 106 139 176 108 141 177 109 143 176 112 144 175 113 144 173 115 143 171 115 143 169 116 142 166 116 142 164 116 142 163 116 143 163 117 145 162 117 147 161 118 150 160 120 152 159 121 154 158 125 155 157 128 157 156 130 160 155 131 162 156 133 163 157 133 162 158 132 163 159 132 164 157 133 166 153 134 167 153 135 169 151 136 171 149 138 172 146 139 174 144 140 177 142 141 179 141 141 178 140 142 178 140 143 180 140 145 182 139 146 183 138 147 184 139 150 184 139 151 183 139 154 182 138 154 181 135 155 180 133 154 177 132 154 176 130 154 176 129 155 175 128 153 176 126 105 133 179 105 136 179 107 139 178 108 141 178 109 142 178 111 145 176 113 145 174 114 144 172 116 144 171 116 144 168 117 144 168 116 144 167 116 145 166 117 147 166 117 149 165 119 152 164 121 154 161 122 155 161 126 156 160 129 158 158 129 161 157 132 162 158 133 163 159 134 163 159 134 164 158 134 165 157 134 166 156 135 168 154 136 169 153 137 171 150 138 173 148 140 176 146 141 178 143 141 180 141 142 180 140 142 180 140 143 180 140 145 181 140 146 183 139 147 184 140 150 184 141 152 183 140 154 182 138 155 181 135 154 181 133 154 179 131 154 177 130 154 177 128 155 177 128 154 178 128 103 134 182 104 136 180 106 138 179 108 140 180 109 142 178 112 146 176 114 146 175 115 147 173 117 147 171 117 146 170 117 146 171 117 146 171 118 147 170 117 149 168 117 152 167 119 154 166 121 155 165 123 156 163 126 158 162 128 158 161 130 160 159 133 162 159 134 164 159 134 165 159 134 167 159 134 166 158 136 167 156 137 170 154 137 171 152 138 172 150 139 174 148 141 177 146 142 179 144 141 180 142 142 180 140 142 180 139 143 180 140 143 181 141 144 183 141 146 184 141 148 184 142 151 184 141 153 183 139 154 182 136 154 181 133 155 180 132 154 180 131 154 180 129 154 180 129 154 180 128 102 135 183 103 137 181 105 139 180 108 140 180 110 143 177 112 146 175 115 148 173 117 148 172 119 149 171 119 147 171 119 148 172 118 149 173 118 149 172 118 151 170 118 153 169 119 155 168 121 157 167 124 157 165 127 159 164 129 159 163 132 161 162 134 163 160 134 165 159 134 167 160 134 169 160 135 168 159 136 170 157 137 172 154 138 174 152 139 175 150 139 177 148 141 178 148 142 179 145 142 180 143 142 181 141 142 182 140 142 182 141 142 183 142 142 183 142 144 184 143 146 184 144 150 184 143 153 183 140 153 182 136 154 182 134 155 181 132 155 181 132 155 182 130 154 182 130 154 183 128 102 137 183 103 138 182 105 140 181 107 142 180 109 144 176 111 146 174 115 149 173 117 149 172 120 150 171 120 150 172 120 150 174 118 151 174 117 151 173 118 153 172 118 155 171 119 155 171 122 158 169 125 159 168 127 159 166 129 159 165 131 161 163 132 163 162 133 165 161 133 168 159 135 170 159 136 171 158 135 172 156 136 173 153 138 176 150 139 177 149 140 178 148 141 179 148 142 181 146 142 182 144 141 182 143 141 182 141 140 182 142 141 182 142 141 183 144 142 184 145 145 184 144 148 183 142 150 182 139 152 181 137 153 181 135 154 182 134 154 182 132 154 182 131 154 183 130 155 184 128 102 138 182 103 139 182 104 141 181 107 143 178 109 144 175 112 147 174 115 150 173 118 151 173 120 151 173 121 152 173 121 152 174 120 152 175 118 153 175 119 155 174 118 156 172 119 158 171 122 158 170 124 160 169 127 161 168 129 161 166 131 162 165 131 164 162 132 167 160 134 170 158 134 172 158 136 173 157 136 174 154 137 176 151 138 178 148 138 178 147 139 179 147 140 180 147 141 182 146 140 182 145 138 181 144 138 181 143 138 182 142 140 183 142 142 182 143 143 183 145 146 183 144 147 182 143 149 182 140 151 181 138 153 183 136 153 182 135 153 183 132 153 183 131 154 182 130 155 184 128 102 138 181 102 140 181 104 142 178 106 143 176 109 144 174 113 147 173 116 150 173 118 153 173 120 154 174 121 154 174 121 154 174 121 154 174 120 155 174 120 157 174 120 158 173 122 159 172 123 159 172 124 161 171 126 162 171 128 162 169 130 163 166 131 165 164 132 169 161 133 172 160 135 173 158 136 174 155 136 175 152 138 177 149 138 179 147 138 180 146 138 181 146 139 182 146 139 183 145 139 184 145 138 182 143 137 181 142 138 183 141 140 183 143 142 182 144 144 182 145 146 182 146 148 182 144 149 182 143 150 183 140 151 183 139 153 183 136 153 184 133 153 184 131 154 183 129 154 184 126 103 138 179 102 140 178 104 141 177 106 142 176 108 144 174 112 147 173 116 150 172 118 153 173 121 155 174 121 155 173 122 155 174 121 156 174 120 157 174 120 159 174 121 160 174 122 160 173 124 160 172 125 161 172 126 164 172 128 165 171 130 167 169 130 169 165 131 171 163 133 174 160 135 175 158 136 176 154 137 178 151 139 179 149 140 182 148 139 183 147 139 183 146 138 184 146 138 184 144 138 184 144 138 183 143 137 183 141 137 183 141 140 184 142 142 183 145 145 182 145 146 183 146 149 183 144 151 184 143 151 185 141 152 184 140 153 184 138 153 184 135 153 185 132 153 184 128 153 185 125 103 140 177 103 140 176 105 141 175 106 143 175 109 144 173 111 147 173 115 150 173 118 154 174 120 155 175 120 156 174 121 156 175 121 158 176 121 159 175 121 161 174 121 162 174 122 161 173 123 162 172 124 164 171 126 167 171 128 168 171 130 169 170 131 172 167 133 175 164 134 175 161 135 176 157 136 178 154 137 180 152 138 181 150 139 184 149 140 186 149 140 186 148 138 186 146 137 186 145 137 185 143 137 184 142 137 184 141 137 184 141 139 183 141 142 183 144 144 182 146 146 184 146 149 185 144 151 187 143 150 187 142 152 186 141 152 185 139 153 185 136 153 186 131 153 186 128 153 184 126 104 142 176 104 142 175 105 142 174 106 144 174 110 146 174 111 148 172 114 151 173 117 154 173 120 156 175 120 156 175 121 158 175 121 159 175 122 161 175 123 161 174 123 162 173 124 162 173 125 164 173 126 167 171 127 169 171 129 170 170 131 171 170 133 174 168 134 175 166 134 176 162 135 176 158 136 180 155 137 182 152 138 184 151 139 186 149 139 188 150 139 188 148 138 188 146 138 189 144 137 188 143 137 185 142 137 185 141 137 185 141 138 183 142 140 183 143 143 184 145 146 185 146 148 188 144 149 190 144 150 190 143 152 188 141 153 187 139 152 187 135 152 187 132 152 187 130 152 185 127 105 145 173 104 145 172 104 145 172 106 147 173 108 147 173 111 150 172 113 152 171 116 155 172 119 156 173 119 157 174 121 158 174 121 160 174 122 161 174 125 163 173 125 163 173 127 164 173 128 167 172 128 169 171 128 171 169 130 173 169 132 174 169 132 176 168 133 177 166 134 177 164 135 178 161 137 181 158 138 183 155 139 186 152 139 188 151 138 189 150 137 190 149 137 190 147 137 191 145 137 190 143 136 188 143 136 186 142 137 185 143 137 186 144 139 187 144 142 187 145 144 188 145 147 191 144 148 193 145 149 193 143 151 191 142 152 190 140 152 189 137 151 188 134 150 187 132 150 186 129 106 147 171 105 147 171 105 148 171 107 149 173 108 150 173 111 151 172 113 152 171 116 155 171 119 157 172 119 158 173 120 159 174 121 161 174 123 162 174 125 164 173 127 165 172 128 166 172 129 166 170 128 170 169 129 172 169 130 174 169 132 176 168 132 177 168 132 178 167 133 179 165 135 180 163 137 182 160 136 184 157 138 187 154 138 189 152 137 190 151 136 191 149 135 191 147 135 193 145 135 192 144 136 190 145 136 188 145 136 187 144 137 188 144 137 190 144 140 191 146 143 193 145 145 195 145 146 196 145 147 195 144 148 193 142 150 191 141 149 191 140 148 189 137 148 187 134 147 185 131 106 149 170 106 149 171 107 150 171 109 152 172 111 152 172 112 152 172 114 154 171 116 156 172 118 158 173 119 159 173 120 161 174 121 164 174 123 165 174 126 165 173 128 166 171 128 167 170 128 168 169 129 171 169 130 174 169 131 176 169 131 177 168 131 178 168 131 180 167 131 181 166 133 182 164 133 183 162 134 185 159 135 187 157 136 190 154 136 192 153 134 193 151 134 193 149 133 194 147 134 194 146 134 192 147 135 190 148 135 190 146 136 190 146 138 193 146 139 194 146 141 196 146 143 197 146 143 198 145 145 197 145 146 195 143 147 193 141 146 193 140 145 192 139 145 188 136 145 185 133 108 150 169 108 150 169 110 151 170 111 153 171 112 153 171 114 153 171 116 155 171 116 157 172 117 159 173 118 161 174 119 163 174 121 166 174 124 167 173 127 167 171 128 168 169 128 169 169 128 172 169 129 173 168 130 176 168 131 177 167 131 178 168 131 180 167 130 182 167 131 182 167 132 184 166 131 185 164 131 186 161 133 188 158 133 190 156 133 193 154 134 194 153 134 195 151 134 195 151 133 194 150 135 193 150 135 192 149 135 192 149 137 193 147 137 195 147 138 197 147 139 197 146 140 198 147 141 197 147 143 196 146 142 196 145 143 194 143 143 194 142 143 192 141 142 190 138 143 187 134 110 151 168 110 152 169 111 153 169 112 153 169 114 154 168 116 154 169 115 156 172 115 158 173 117 160 173 119 164 172 120 166 172 123 168 172 126 170 170 126 169 168 127 170 167 127 171 166 127 172 166 128 174 167 129 177 167 130 178 166 129 179 166 130 181 167 130 183 168 130 185 167 131 186 167 130 186 165 130 187 161 130 189 159 130 191 157 132 193 156 133 195 155 133 196 154 133 196 154 133 196 153 134 196 151 135 195 150 135 194 149 136 195 149 136 197 149 136 199 148 137 199 148 138 198 148 139 197 148 139 196 147 139 196 146 139 195 145 140 193 143 140 193 141 139 190 138 140 188 134 112 150 168 112 152 169 112 153 168 114 153 167 116 153 166 115 154 168 115 156 169 115 158 171 117 162 172 119 165 172 121 167 171 123 169 169 125 171 168 125 171 165 125 172 165 125 173 165 125 174 165 127 176 166 128 178 167 128 180 166 128 181 167 128 182 168 129 186 169 130 187 168 129 186 166 129 186 165 129 187 162 129 189 159 129 191 157 131 193 157 132 194 156 133 195 156 133 196 156 135 196 154 135 196 153 136 197 151 135 197 150 135 196 149 135 198 149 134 200 149 134 201 149 135 200 148 135 198 148 136 198 147 136 198 147 135 196 145 135 195 144 135 194 141 135 191 137 136 189 134 112 150 168 112 152 168 113 153 167 114 154 166 115 154 166 114 156 167 114 157 169 115 159 169 118 163 171 119 167 170 121 169 169 122 171 168 123 173 166 123 173 164 124 174 164 124 176 164 124 177 165 125 178 165 127 179 165 128 181 166 128 182 167 128 185 168 129 187 168 128 189 168 128 188 166 128 188 165 128 189 163 128 190 160 129 192 158 130 193 157 131 195 157 132 195 157 134 196 156 135 196 155 135 196 155 134 198 153 134 198 152 134 198 150 133 199 150 133 202 149 133 202 148 133 202 148 132 201 148 133 199 147 133 198 146 133 198 146 133 197 144 132 195 140 132 192 136 133 190 134 112 151 168 113 153 167 113 154 166 114 155 166 115 155 165 114 157 166 115 159 167 116 161 169 118 164 170 120 167 169 121 170 168 121 173 166 121 174 165 122 175 164 123 176 163 122 178 164 123 179 164 125 180 165 127 181 165 128 183 166 127 184 166 128 186 167 127 189 168 127 190 167 127 190 164 128 190 163 128 189 161 129 190 160 128 192 158 127 194 158 128 196 158 130 195 158 133 196 157 133 197 156 133 198 156 133 199 155 133 200 153 132 200 151 132 200 150 132 203 149 131 203 149 131 202 148 130 201 148 131 200 147 131 199 146 130 199 145 130 198 143 130 194 139 130 191 134 130 190 132 111 154 166 112 154 166 112 155 166 113 156 166 114 157 166 115 157 166 115 160 166 117 162 166 119 164 168 120 167 167 121 171 167 120 173 165 120 175 164 121 177 163 121 179 162 121 179 163 123 181 164 126 182 164 127 183 165 127 185 166 127 186 166 127 189 166 127 190 165 126 191 165 127 190 163 128 191 162 129 190 161 129 190 160 128 192 159 127 194 158 127 196 157 129 197 158 130 198 158 131 200 157 131 200 157 131 201 154 131 201 153 131 202 152 130 202 151 131 203 150 130 202 150 130 202 149 130 201 148 130 199 147 129 199 146 127 198 144 126 197 141 127 195 137 128 192 134 128 192 132 112 156 165 112 157 164 112 157 164 113 157 165 113 158 165 115 159 165 116 161 164 118 162 164 119 166 165 120 168 165 120 171 166 120 173 164 120 176 164 120 178 163 121 181 162 122 182 162 124 184 164 126 184 164 126 185 164 127 187 165 128 189 166 128 191 165 127 193 165 127 192 164 128 193 162 129 193 161 130 193 161 129 192 161 127 192 160 126 195 159 125 198 157 126 199 157 127 200 157 128 202 156 130 202 156 130 202 155 130 203 153 130 204 152 128 204 152 128 203 151 127 203 149 128 203 149 127 203 148 127 200 147 127 198 146 125 197 142 124 196 140 125 194 137 126 194 133 126 194 131 