P3
50 50
255
133 111 121 131 112 124 132 112 128 132 113 132 132 115 135 131 118 140 129 120 144 129 121 147 130 123 149 131 125 149 131 127 150 133 129 152 135 131 153 136 134 153 137 138 154 139 140 153 140 143 151 141 146 151 142 148 149 143 151 148 144 155 149 144 159 151 143 162 151 143 165 153 143 169 156 143 173 155 143 174 155 142 174 156 142 175 157 141 175 157 141 176 158 142 177 157 141 178 157 140 179 156 139 180 155 137 181 154 136 183 154 135 185 152 133 186 152 133 185 153 134 183 153 135 182 153 135 181 152 134 181 153 134 182 154 135 182 155 135 182 154 137 181 153 138 180 152 141 179 149 133 111 122 132 111 125 131 111 127 132 111 131 131 113 135 130 116 139 129 119 144 129 121 147 129 123 149 131 125 149 131 127 150 132 129 152 133 131 153 135 134 152 136 137 153 139 140 153 141 142 150 142 144 149 142 147 148 144 151 147 144 155 147 144 159 149 145 162 150 145 165 151 144 168 153 145 170 152 145 172 152 144 172 153 143 172 153 142 173 154 143 174 154 143 175 154 143 177 154 142 178 154 141 178 154 140 180 154 138 181 153 137 183 152 135 185 150 135 184 151 135 183 151 136 182 149 136 181 150 136 180 151 136 181 153 136 181 153 136 180 153 137 180 152 137 180 151 140 179 148 132 110 120 133 111 124 132 109 128 131 110 130 130 112 134 128 115 139 127 118 144 128 121 148 129 122 149 131 125 149 131 128 151 130 130 150 132 131 151 135 133 151 136 136 153 137 139 151 140 142 149 141 144 148 141 148 147 143 151 147 144 156 147 143 159 149 145 162 150 147 165 150 146 167 150 147 168 150 147 169 150 145 171 150 144 171 150 143 171 151 144 173 152 144 174 153 144 175 153 143 177 153 142 178 152 142 180 152 140 180 152 139 181 151 138 183 150 136 184 149 136 183 148 138 180 148 137 179 149 136 179 150 136 180 152 136 181 152 137 181 152 137 180 151 139 180 149 141 180 145 131 109 119 132 109 123 132 109 127 130 110 130 128 113 134 126 116 139 125 119 143 127 121 146 128 124 148 129 126 149 129 128 150 130 130 149 132 132 149 133 134 150 134 136 151 136 140 151 138 142 149 140 144 147 140 148 146 142 151 147 144 155 148 144 159 149 146 161 150 148 164 149 148 167 148 148 168 148 148 169 147 146 170 147 145 171 147 144 171 149 145 173 151 144 173 152 145 175 152 145 177 153 144 178 151 144 179 150 143 180 150 142 180 150 141 181 149 140 182 148 137 182 147 138 180 147 137 178 148 136 179 150 136 180 152 137 181 152 138 181 150 139 181 148 141 180 145 142 179 143 130 109 119 130 109 122 130 109 126 129 111 129 127 113 134 124 117 139 124 120 143 125 123 145 127 125 146 128 127 148 130 129 147 130 131 148 131 132 148 131 134 150 133 137 151 135 139 151 138 141 149 139 143 146 139 147 146 141 150 147 142 153 148 145 157 149 147 161 149 150 164 147 149 166 146 149 168 146 149 168 146 148 169 146 147 170 146 146 170 147 146 172 149 146 173 151 147 174 151 148 175 152 146 178 152 146 178 152 144 178 151 143 179 150 142 180 149 141 179 148 140 179 147 138 179 147 137 179 148 137 178 150 137 179 150 139 180 149 140 181 147 141 182 144 142 181 142 144 180 141 129 108 120 128 109 124 128 110 126 127 111 129 125 114 134 123 118 138 123 121 142 125 124 143 126 125 144 127 127 145 129 129 145 130 131 146 130 133 147 131 135 149 132 137 150 135 138 149 137 140 148 140 143 146 140 146 147 141 149 147 142 152 147 145 155 148 148 160 147 150 162 146 151 163 144 149 166 144 150 167 144 149 168 144 148 169 145 148 170 146 148 171 148 149 170 149 150 171 150 149 174 151 148 175 152 148 177 151 146 178 150 144 179 150 144 179 149 141 178 148 140 178 147 139 178 147 138 178 148 138 178 147 140 179 147 142 181 146 143 183 144 143 183 141 144 182 139 144 181 138 128 108 121 127 109 125 126 111 128 125 113 131 123 115 134 122 118 137 123 121 141 125 124 141 126 125 142 127 127 144 127 130 144 129 132 145 129 134 145 130 135 147 132 137 148 135 138 148 139 140 147 140 144 147 140 146 146 141 147 147 144 149 146 146 152 146 149 157 146 150 159 144 151 162 143 150 164 141 149 165 142 150 167 141 150 168 142 150 169 142 150 169 145 151 168 147 152 170 148 151 171 149 150 173 150 150 176 150 148 176 150 146 177 149 144 177 148 143 176 148 142 175 147 141 176 147 140 176 146 140 177 144 142 179 144 143 181 143 143 183 141 144 184 139 144 184 137 143 184 136 127 109 121 126 111 125 127 113 128 125 115 131 124 116 134 122 118 135 123 120 137 125 123 137 126 125 139 127 127 142 128 129 143 129 131 143 129 134 144 130 136 146 131 139 146 136 140 146 138 141 147 140 143 146 140 145 144 142 146 145 145 148 145 147 150 145 149 154 145 151 156 144 151 160 142 150 163 139 150 163 139 150 165 139 151 166 139 151 167 140 152 167 141 152 167 143 153 168 145 152 170 147 151 172 148 150 174 149 149 174 149 147 174 148 145 174 147 143 173 148 142 173 147 142 174 146 142 175 144 143 178 142 143 180 141 143 182 140 144 184 140 145 185 138 145 185 135 145 185 134 125 109 120 125 113 124 126 114 127 126 116 129 125 118 131 125 119 133 124 121 133 125 123 135 126 125 136 126 127 139 128 130 141 130 131 142 130 134 143 131 137 145 133 139 145 135 141 146 137 142 147 140 144 145 142 145 144 143 146 143 145 147 143 147 150 143 149 153 144 150 155 144 150 159 140 151 161 138 151 162 137 150 163 137 151 164 137 152 163 137 152 164 138 151 164 140 152 166 142 152 169 145 151 171 146 150 172 148 149 171 147 148 171 146 146 171 146 144 171 146 143 172 146 143 173 144 143 175 142 144 177 140 143 180 139 144 182 139 145 185 138 146 186 136 147 187 134 147 186 133 124 109 120 124 112 124 125 115 126 126 117 128 124 119 129 124 120 131 124 122 131 125 124 132 125 125 134 126 128 136 128 130 139 130 132 140 132 135 142 132 137 144 133 139 144 136 142 145 137 143 144 141 145 144 143 145 142 144 146 141 145 149 142 147 152 142 149 153 142 150 155 142 152 158 139 153 159 137 151 161 136 151 161 136 152 161 136 151 161 135 152 163 136 151 163 138 151 165 139 151 168 142 150 169 143 151 169 144 149 169 145 148 168 145 146 169 145 145 169 144 145 170 143 145 172 141 145 174 140 145 176 138 145 178 137 145 181 137 146 184 136 148 187 135 150 188 133 150 187 132 123 110 119 123 112 122 124 115 125 125 117 126 125 118 128 124 120 129 124 121 130 124 124 131 125 126 131 127 129 134 128 131 136 131 133 138 133 136 139 134 137 141 136 139 142 138 141 142 139 143 142 142 144 141 144 144 138 146 146 139 147 149 139 148 151 140 150 154 139 151 155 138 153 157 137 154 157 135 153 159 134 151 160 135 152 160 134 153 161 135 152 161 135 151 163 136 151 164 137 151 166 139 150 167 140 151 167 141 150 167 142 149 167 144 147 168 143 146 169 141 146 170 140 146 171 139 146 173 138 146 175 135 146 177 135 146 181 135 148 184 134 150 187 132 152 187 130 152 188 128 122 109 118 123 111 122 124 113 124 125 115 126 125 118 126 124 120 128 125 122 128 126 124 128 127 127 129 128 130 131 129 131 132 133 133 134 135 135 136 136 137 137 138 139 138 139 139 138 141 142 139 143 143 138 144 144 137 146 146 136 146 149 138 148 152 138 151 153 137 152 154 136 153 156 136 155 157 134 154 157 133 153 158 132 154 159 132 154 160 132 154 161 133 153 162 134 152 163 134 151 164 136 151 165 138 150 165 139 150 165 139 149 166 140 149 167 140 148 168 139 148 170 138 146 172 136 146 174 135 147 176 134 147 178 133 147 181 132 150 184 130 152 186 128 154 187 126 155 187 126 122 108 116 123 111 120 124 113 123 125 115 125 125 118 125 125 121 126 126 123 125 128 124 125 128 127 126 130 130 128 131 131 129 134 133 131 135 136 132 137 138 134 138 138 134 140 139 135 142 141 137 143 143 136 145 144 135 146 144 134 146 148 135 149 150 135 151 152 134 153 153 134 154 155 133 154 156 132 154 156 131 154 157 131 155 158 130 155 159 131 155 160 132 154 161 132 153 162 133 152 163 134 151 164 135 150 164 137 150 164 137 149 164 138 150 165 137 150 167 137 149 169 136 148 172 136 147 174 134 147 177 133 147 178 132 148 181 130 150 184 128 153 185 125 155 186 125 156 187 124 123 108 115 123 111 118 124 113 121 125 115 123 127 118 123 127 120 123 128 124 122 129 125 122 130 128 123 131 131 124 133 133 125 135 135 126 136 137 128 138 139 129 139 139 130 140 140 131 141 142 132 143 143 132 146 144 132 147 145 132 148 146 133 149 149 133 152 151 132 154 152 131 154 153 131 155 154 130 156 155 130 155 155 129 155 156 130 155 157 130 155 159 130 154 161 131 154 162 130 152 164 131 152 164 132 151 164 133 151 165 134 150 165 135 151 166 134 151 166 135 150 168 136 149 170 136 149 172 135 149 175 133 148 177 132 150 180 130 152 182 127 154 183 124 154 185 123 156 186 122 122 107 113 122 111 116 125 113 118 125 116 120 127 118 120 128 120 120 129 123 120 130 126 120 131 129 121 132 131 121 134 133 122 136 137 123 137 139 125 139 140 127 140 140 127 141 141 128 143 142 128 145 144 129 147 144 130 148 144 131 149 145 131 150 147 132 153 149 130 154 149 129 154 151 129 154 152 129 155 153 128 155 154 128 156 155 128 156 156 128 156 158 127 156 160 128 155 162 128 154 163 130 153 163 129 152 164 130 152 165 131 152 167 131 152 166 132 152 166 132 151 167 135 151 169 135 151 170 134 152 172 131 151 175 130 153 178 130 154 180 126 155 182 124 156 184 122 158 184 120 121 106 113 122 111 113 124 113 115 126 117 117 127 120 119 129 122 118 129 124 119 130 128 119 131 132 120 133 133 120 135 135 121 137 138 121 137 140 121 140 141 123 141 142 123 142 142 124 144 142 125 146 143 126 148 144 128 148 144 128 150 144 129 152 145 130 154 146 129 155 147 128 154 149 127 154 151 127 155 153 127 156 154 126 157 154 126 157 155 125 158 156 124 159 160 125 157 161 126 156 162 126 154 163 127 154 163 127 152 164 128 152 165 129 153 165 129 152 165 130 152 166 132 153 167 133 154 169 132 155 170 130 155 172 129 154 175 128 156 176 126 158 180 123 158 181 122 159 182 120 121 106 109 123 110 111 125 115 113 126 118 115 126 121 116 128 122 116 130 126 117 130 130 118 132 133 119 134 135 118 137 136 118 138 139 119 140 141 119 141 142 118 143 142 119 145 143 121 146 144 122 147 143 123 148 143 124 151 142 125 153 143 125 154 145 127 155 146 127 156 146 127 156 148 126 155 151 125 156 153 124 157 154 123 158 153 124 159 154 123 160 156 122 159 158 123 158 159 124 158 161 124 156 162 124 156 162 124 154 163 124 153 165 126 154 164 126 153 164 126 154 165 128 155 165 128 157 166 129 157 167 128 157 168 127 156 171 126 158 173 125 160 175 123 160 177 121 162 179 120 122 107 106 125 111 108 125 115 110 125 119 111 127 121 113 129 123 114 130 126 116 131 130 117 134 133 117 137 135 116 139 137 116 141 139 116 143 142 116 144 142 115 144 143 116 146 143 118 147 144 119 148 143 120 150 142 120 152 142 121 154 142 122 155 144 123 156 146 122 157 146 123 157 148 122 157 150 121 158 152 121 158 153 121 159 154 120 160 154 120 161 155 120 161 156 121 160 157 120 160 159 121 159 161 121 157 161 121 156 162 122 154 162 122 154 162 122 154 162 123 154 163 124 156 163 124 157 164 125 159 165 126 159 166 125 158 169 125 159 170 124 161 171 122 163 173 120 164 175 118 122 108 103 124 111 105 124 115 107 125 119 110 127 122 112 128 125 114 130 127 116 131 130 116 135 133 115 139 136 114 141 138 114 142 139 113 144 141 113 145 142 113 147 143 113 147 144 114 148 144 116 150 143 117 152 144 116 153 143 117 154 142 118 155 142 119 156 144 119 157 146 119 158 147 118 159 149 118 159 150 118 160 152 118 160 154 117 161 153 116 163 155 117 163 156 118 162 156 117 163 157 117 161 158 117 160 159 118 158 159 119 156 160 120 156 160 120 156 160 121 156 160 121 156 161 122 159 161 124 159 163 125 160 163 124 161 166 123 161 167 122 163 169 120 165 170 117 165 172 115 122 107 101 123 110 103 123 113 104 125 117 107 126 121 111 128 125 113 130 128 113 133 131 113 136 132 113 139 134 112 141 137 112 142 138 110 144 140 111 146 141 111 148 142 111 148 143 111 149 145 112 152 145 113 153 145 113 154 144 113 154 144 113 155 143 115 157 144 116 158 145 116 158 145 114 159 147 115 159 148 115 160 151 114 162 152 114 163 153 113 164 153 113 165 154 114 165 155 114 165 156 114 164 156 116 162 156 116 160 156 117 159 157 118 158 157 118 158 157 119 158 159 119 159 159 119 160 160 121 160 160 121 162 161 121 163 162 120 164 165 119 165 166 117 166 168 115 167 169 113 122 107 99 122 110 102 123 112 104 124 114 107 126 118 110 129 122 111 131 126 111 134 128 111 137 130 111 139 132 111 141 134 109 143 137 108 146 137 109 147 138 110 149 140 109 150 142 108 151 144 109 153 145 109 153 145 108 155 144 109 155 143 109 155 142 112 157 143 113 159 144 113 159 143 112 160 145 111 160 146 111 161 149 110 163 149 111 164 150 111 165 150 110 165 150 111 167 152 112 167 153 112 165 153 113 163 153 114 162 154 115 162 154 116 161 154 116 161 154 116 162 155 116 162 155 116 162 157 117 163 158 119 166 159 118 165 160 116 166 162 116 167 164 114 167 165 112 166 166 110 123 107 99 123 108 101 124 110 103 125 112 105 126 115 107 129 119 108 133 123 109 135 126 108 136 128 108 138 130 108 141 131 108 144 134 107 146 135 107 148 137 107 151 138 107 153 140 105 153 141 105 155 142 104 155 144 105 156 143 105 156 141 106 156 140 109 157 141 110 160 141 110 161 143 109 161 143 108 161 144 107 162 145 107 163 146 109 164 147 109 166 147 108 167 147 109 167 149 111 168 150 111 167 150 111 166 151 112 166 151 112 165 151 111 165 152 113 165 151 114 165 152 114 166 153 114 166 154 114 166 155 115 167 157 115 167 158 114 167 159 114 168 160 113 168 162 112 167 163 110 125 104 98 125 107 100 126 108 102 127 110 103 128 112 105 131 115 106 133 119 105 136 122 106 138 125 105 139 128 106 142 130 106 145 131 105 147 132 104 149 135 103 153 137 102 155 139 101 156 139 100 155 140 100 156 140 101 156 140 102 156 139 103 157 139 105 159 139 106 162 140 106 164 141 105 164 142 106 163 142 105 162 142 105 163 143 105 165 144 106 167 144 106 168 145 106 168 146 109 169 147 108 170 147 108 169 148 108 169 149 108 168 149 107 168 149 109 168 149 109 169 149 110 168 150 111 168 150 112 168 152 112 168 154 113 170 156 112 169 156 112 168 156 112 168 158 111 167 160 110 128 103 98 128 106 99 128 108 101 129 109 102 130 109 103 131 112 103 134 115 102 136 118 103 138 122 103 141 125 104 143 127 102 147 128 102 150 129 101 152 133 99 154 136 98 156 137 96 157 136 96 156 137 97 157 138 97 156 138 98 158 138 99 159 138 101 161 138 103 164 138 102 166 138 102 165 139 104 165 140 104 164 140 103 163 141 103 165 142 104 168 142 104 168 143 104 169 145 105 171 145 106 172 145 105 172 147 105 170 148 105 170 148 104 169 149 105 169 148 105 170 147 106 171 147 108 170 147 109 170 150 110 170 152 110 171 154 111 170 154 112 169 155 112 169 154 110 168 156 109 131 102 96 131 104 97 131 106 99 131 107 101 132 108 102 134 111 101 135 114 99 137 117 99 139 121 100 142 123 101 145 125 99 148 126 98 152 127 97 154 130 96 156 133 94 156 133 93 157 133 93 156 134 94 157 135 94 157 135 95 159 136 96 161 136 97 163 136 99 165 136 99 167 137 100 166 138 100 166 138 101 167 138 101 166 139 101 166 139 102 168 141 101 169 143 101 169 144 103 171 144 103 173 144 102 172 145 101 171 147 102 172 148 101 170 148 101 170 149 102 171 148 103 171 147 104 171 147 107 172 148 107 172 150 108 171 151 110 171 152 111 170 151 111 170 151 109 171 153 108 135 102 95 134 103 96 134 105 98 134 106 99 135 108 100 136 110 98 138 113 97 139 116 96 141 119 96 144 122 97 148 123 97 151 123 95 153 124 94 155 127 93 156 130 91 157 131 91 156 132 91 156 133 93 157 132 92 159 132 92 160 133 93 161 133 94 163 134 96 165 134 98 166 135 99 167 135 99 167 136 99 167 136 99 167 137 100 167 139 100 167 142 99 169 143 99 170 144 99 171 144 100 173 144 100 173 144 99 171 146 100 171 147 99 171 148 98 170 149 100 171 148 102 171 148 103 171 147 104 171 147 105 173 148 107 172 148 108 171 148 110 171 148 110 172 149 110 171 151 109 137 102 95 135 103 97 136 105 98 136 106 99 137 108 98 140 111 96 141 113 95 141 114 95 143 117 95 145 120 94 150 121 93 153 120 91 155 122 91 156 123 91 157 126 90 158 128 89 158 129 89 158 130 90 159 130 89 161 131 90 162 132 91 163 132 91 164 133 93 165 133 95 167 133 97 168 133 97 168 134 97 167 135 99 167 138 99 167 140 99 168 142 98 169 143 98 169 144 97 171 144 96 173 144 96 173 144 96 172 145 97 172 145 97 171 147 97 171 148 97 171 148 98 172 147 100 172 146 101 172 146 104 172 145 106 171 145 107 172 144 109 172 145 109 173 146 110 172 147 109 139 103 95 139 103 97 139 105 97 139 107 97 141 109 97 143 110 96 143 113 94 144 114 93 146 116 92 148 118 90 152 119 89 155 119 87 157 121 88 158 122 88 160 124 88 160 127 88 160 126 87 161 127 86 162 129 87 163 129 88 164 130 88 164 131 89 165 131 90 166 132 92 168 133 95 169 133 96 169 134 96 168 136 97 167 140 98 168 141 97 169 142 97 170 143 97 170 143 96 170 144 95 172 144 93 173 144 93 173 145 94 172 144 95 172 143 96 171 145 96 171 145 97 172 145 97 173 145 99 172 145 102 172 144 104 173 143 105 172 142 107 173 142 106 173 143 108 174 144 108 142 103 95 141 104 96 142 106 96 143 107 95 145 108 95 146 110 94 147 113 92 147 114 90 149 115 89 152 116 88 154 117 86 156 118 85 157 120 86 158 122 86 160 123 86 162 124 87 163 123 85 163 125 85 165 127 85 165 128 86 165 130 87 166 130 88 166 129 89 167 131 90 168 132 92 169 134 94 169 135 94 169 138 94 169 141 94 170 142 95 170 142 96 171 142 96 171 143 95 172 142 93 172 143 92 171 143 91 171 142 92 171 141 93 172 141 94 172 142 95 172 143 95 171 143 96 172 144 97 171 144 99 172 143 101 173 142 103 172 140 103 173 139 103 174 140 104 174 141 106 145 103 93 145 105 93 146 106 93 147 107 92 147 108 92 148 109 91 150 111 90 151 113 88 152 114 87 154 115 86 155 117 84 156 119 85 157 120 85 159 122 85 162 123 85 163 122 85 165 122 84 166 124 83 166 125 83 166 128 84 167 130 85 168 130 85 168 129 86 168 130 87 168 132 89 170 134 91 170 136 92 170 139 92 169 140 92 170 141 93 171 141 93 171 141 93 173 141 92 173 141 91 172 140 90 171 141 90 170 140 92 170 140 92 171 141 92 172 142 93 172 141 93 172 142 94 171 144 95 171 143 97 172 141 98 172 140 100 172 139 101 173 139 101 173 140 102 172 140 103 147 104 91 147 106 90 148 106 90 149 107 89 149 108 89 149 110 88 151 111 87 153 113 86 154 115 84 154 116 84 156 117 84 157 118 84 158 120 84 161 122 83 163 123 83 165 122 82 168 122 81 169 123 81 169 125 82 169 127 82 169 130 83 170 130 82 171 130 83 170 131 86 170 133 88 170 134 89 170 136 90 170 138 90 169 139 90 169 138 89 170 139 89 171 139 89 173 138 89 173 139 88 172 139 89 171 139 89 170 140 90 170 140 90 171 140 90 171 141 91 172 141 91 172 141 92 171 142 94 171 141 95 171 140 97 171 139 99 172 139 100 173 139 101 171 139 101 171 141 101 148 103 89 149 105 89 149 106 88 150 106 87 150 107 87 150 109 86 152 111 84 153 113 83 154 114 82 156 115 82 157 116 82 159 117 82 160 120 82 163 122 81 165 122 80 167 121 79 169 121 78 170 123 79 170 124 80 169 127 81 170 129 80 171 130 80 171 130 82 170 132 84 169 133 86 169 135 87 169 135 87 170 137 87 170 137 86 169 136 86 169 137 86 170 136 87 171 137 87 171 138 86 171 138 88 170 139 88 169 140 88 169 140 89 171 140 90 171 141 90 170 140 90 170 140 90 170 140 92 169 140 94 170 139 95 171 140 98 170 140 100 172 140 100 172 140 100 171 142 101 149 103 86 150 104 87 151 105 86 152 105 85 151 106 85 152 108 83 153 111 82 153 111 80 155 112 80 156 113 81 157 114 80 160 116 79 161 119 79 164 121 79 166 121 77 168 121 76 169 121 76 169 122 77 170 123 79 171 125 79 172 127 79 171 130 78 170 130 80 170 131 81 170 133 83 170 134 84 170 134 85 170 135 85 169 134 84 169 134 84 167 135 84 167 136 85 168 136 84 169 137 85 169 138 86 168 138 87 168 139 88 169 139 89 169 139 90 169 139 90 169 139 90 169 140 90 169 140 91 169 141 94 169 140 96 170 140 98 171 141 100 172 142 100 173 142 100 172 142 102 152 103 84 152 103 84 153 103 84 154 104 83 153 104 82 154 106 81 154 108 79 154 109 79 155 109 78 156 110 78 157 112 79 160 115 78 162 118 76 165 119 75 166 120 75 167 121 75 167 122 75 168 121 76 169 122 78 170 124 79 172 125 79 172 128 77 170 129 78 169 131 80 170 132 81 170 133 83 170 132 83 169 132 83 168 133 82 167 133 82 166 134 83 166 134 84 166 135 84 167 136 84 167 137 84 167 136 87 168 137 88 167 137 89 168 137 90 168 138 90 168 138 91 168 139 91 168 140 92 169 141 93 169 141 95 170 142 97 172 141 99 173 143 100 175 144 100 174 143 100 154 102 81 155 102 82 156 103 82 157 103 80 156 103 80 156 104 79 156 106 78 155 107 78 156 108 78 156 108 78 159 111 77 161 114 76 163 117 75 163 118 74 165 120 74 167 120 75 167 120 75 167 120 75 168 121 77 170 123 77 171 125 78 172 128 77 171 129 78 169 129 78 170 130 80 169 131 81 169 130 82 169 129 82 168 131 81 166 132 81 165 133 82 165 134 83 165 134 84 166 134 83 166 134 84 165 133 87 166 133 88 167 135 88 168 136 89 168 136 89 169 137 91 168 137 92 168 137 92 168 139 93 169 141 95 172 143 96 173 144 97 175 144 98 176 145 99 176 146 99 156 101 80 157 102 80 158 102 79 159 102 78 159 103 79 157 103 78 158 104 77 157 105 77 157 107 77 159 108 77 160 110 75 162 114 73 163 116 72 164 118 73 164 118 73 165 118 74 166 119 74 167 119 75 168 120 77 170 122 77 172 124 76 172 127 76 171 128 77 170 127 76 170 128 78 169 128 80 170 128 81 170 128 81 168 129 81 166 130 81 164 131 81 164 131 82 164 132 84 165 131 84 165 129 86 164 130 87 165 130 89 167 132 88 167 134 89 168 135 89 169 134 91 169 135 92 169 136 92 170 139 93 170 140 94 172 143 93 174 145 95 176 145 96 177 146 96 177 147 97 159 100 79 159 102 78 160 102 77 160 101 77 160 102 77 159 102 76 160 103 75 160 103 74 159 105 74 161 107 74 163 110 73 164 113 72 165 114 71 165 115 71 165 116 72 165 116 73 166 117 74 167 118 75 168 119 75 169 121 76 171 124 76 171 125 75 171 126 75 171 126 76 171 126 77 170 126 78 170 125 81 170 125 80 168 126 80 167 128 81 165 128 81 163 128 82 164 129 83 164 128 84 164 127 86 163 127 87 165 128 88 167 130 88 167 133 89 167 133 89 167 133 91 168 133 92 170 134 92 171 138 94 170 140 94 172 141 93 173 143 93 175 145 95 176 146 95 177 148 95 163 98 78 164 100 78 163 101 76 162 100 76 161 100 75 161 100 74 162 101 74 162 102 72 162 104 72 163 106 72 165 110 72 166 111 71 165 112 70 164 114 71 165 115 73 166 114 73 166 115 72 167 116 73 168 117 74 169 118 75 171 121 75 171 122 74 171 122 74 171 123 74 171 123 75 170 124 77 170 123 79 171 123 79 170 124 80 168 125 80 166 126 82 164 127 82 163 127 85 164 126 86 165 125 86 165 125 87 166 126 88 167 129 88 168 130 89 168 131 89 168 131 91 168 131 91 170 133 92 171 136 93 171 138 95 172 140 94 173 142 94 173 145 94 175 147 96 176 148 95 166 97 77 167 98 77 166 99 76 164 99 74 163 100 73 164 101 73 164 102 72 163 101 72 163 103 70 163 105 69 166 108 69 166 110 69 166 112 69 166 113 71 165 113 73 166 114 73 168 114 72 168 115 71 169 116 73 170 116 74 171 118 75 171 120 74 172 120 74 171 120 74 171 120 74 171 120 75 171 120 78 171 121 79 171 121 81 168 122 82 166 123 83 165 123 83 164 123 86 163 124 87 164 123 87 165 124 88 166 125 88 167 127 89 168 128 91 168 130 91 168 131 90 168 133 91 170 133 92 171 135 94 172 138 95 174 140 96 174 142 96 174 144 95 175 146 95 177 148 95 167 96 75 168 98 75 168 100 74 167 100 73 165 100 71 166 101 71 165 103 72 165 103 71 165 104 69 165 104 67 167 107 66 167 109 67 168 111 69 168 112 70 167 112 71 169 114 71 170 113 70 169 114 70 169 114 70 170 114 72 171 115 73 173 117 75 173 117 74 172 117 73 172 117 73 171 116 75 171 116 77 171 117 79 171 118 80 169 118 81 167 118 83 166 119 84 165 121 85 164 122 86 166 121 87 167 122 86 167 123 88 167 124 90 168 125 91 169 128 91 169 129 91 169 132 92 170 134 94 170 135 95 171 137 96 174 140 97 176 142 96 176 144 95 176 145 94 177 147 94 167 96 73 169 99 73 169 100 73 169 101 73 168 101 72 166 101 71 166 104 71 166 104 70 167 105 69 167 105 68 167 106 66 167 109 65 167 111 66 169 111 68 169 113 68 171 112 68 172 112 68 171 112 68 170 112 69 170 111 70 171 112 73 173 113 73 174 114 74 174 114 73 173 114 74 172 113 75 171 113 76 171 114 77 171 114 79 170 115 82 169 116 83 167 117 84 166 119 85 165 119 85 167 119 85 167 120 86 168 121 89 168 122 91 169 123 92 170 126 91 171 127 92 171 129 92 170 132 94 171 133 95 173 135 97 175 139 97 176 140 96 178 142 96 178 144 95 177 146 95 167 97 72 169 99 71 169 101 71 170 101 72 169 101 71 168 101 71 167 102 71 168 104 70 169 105 69 168 106 67 168 107 65 167 109 64 168 110 64 169 110 66 171 112 67 171 113 66 172 113 67 171 113 67 170 111 68 170 109 70 171 110 71 173 110 72 175 111 74 176 112 74 174 111 75 173 110 76 172 110 77 171 111 78 170 112 80 169 113 82 168 115 82 167 116 83 167 117 84 166 116 85 166 119 85 167 119 86 167 120 89 167 121 91 170 121 92 172 123 92 172 125 92 171 128 94 171 130 95 172 132 95 175 134 95 176 137 96 177 139 95 178 141 95 178 143 95 177 144 94 166 97 70 168 98 71 170 100 70 169 100 69 170 100 70 171 99 69 170 102 69 170 103 69 171 105 68 170 107 66 171 108 65 170 108 64 169 109 64 170 110 65 171 112 66 171 114 66 171 114 67 170 113 68 170 109 69 170 108 71 171 108 71 173 107 72 175 107 73 175 108 75 176 107 75 174 108 76 173 107 78 171 108 80 169 109 81 168 111 82 168 113 82 168 115 83 167 115 84 166 116 85 166 117 85 166 119 87 166 119 89 167 120 91 170 121 92 172 122 92 172 124 93 172 127 94 172 129 96 173 131 96 175 133 96 176 135 96 178 137 95 178 140 94 178 142 94 178 144 95 167 98 69 169 98 69 169 99 70 169 99 70 170 99 69 170 99 68 170 101 67 171 102 67 172 104 67 172 106 66 172 107 65 171 108 63 170 109 65 170 109 66 170 110 67 172 113 67 171 113 68 170 112 70 170 110 71 170 108 72 172 106 72 174 105 73 175 105 75 175 105 76 175 105 76 175 105 77 173 105 78 172 106 80 171 107 82 169 110 82 168 113 82 167 114 82 165 114 83 165 115 85 166 115 84 166 117 86 166 119 89 168 120 89 171 121 90 172 122 92 173 123 94 173 125 94 173 127 94 175 130 95 176 133 95 176 134 96 176 135 96 177 138 95 177 140 95 177 143 96 168 97 69 168 98 69 169 98 69 169 98 69 169 99 68 169 99 66 170 100 66 170 102 65 171 104 65 173 105 65 173 108 64 173 108 64 172 109 65 172 109 65 172 110 66 172 113 68 172 112 70 170 112 72 171 111 71 172 109 73 173 106 74 174 104 74 174 103 76 175 103 77 176 103 78 174 103 78 173 103 79 171 104 81 170 105 83 170 109 83 168 112 83 166 113 84 164 113 85 164 113 86 164 115 85 165 117 87 166 118 87 168 119 89 171 121 92 172 122 93 173 124 93 174 125 93 174 127 92 175 129 92 176 131 93 177 132 93 177 134 94 178 136 95 177 138 95 176 141 96 168 97 67 168 97 67 169 98 68 169 99 68 169 100 68 170 101 67 169 101 66 169 103 64 170 105 63 172 106 63 174 107 63 175 109 63 173 108 65 173 109 65 173 111 67 173 112 69 173 112 71 171 111 72 172 110 73 173 108 75 174 106 75 174 104 75 175 102 77 175 102 78 176 101 79 175 101 79 173 102 81 171 102 82 169 104 83 169 108 83 168 110 84 166 112 85 164 113 86 164 114 86 164 115 86 165 116 86 165 117 86 168 119 89 169 121 92 170 123 93 172 125 92 173 128 91 175 129 91 175 130 90 174 131 91 176 132 92 176 134 93 177 136 94 178 137 96 176 141 96 168 97 64 169 96 65 169 98 66 169 100 68 169 101 68 169 103 68 168 103 67 169 104 64 170 106 63 171 107 62 173 108 62 174 109 64 173 110 66 174 111 67 174 112 69 172 113 71 173 111 72 173 111 72 174 108 73 173 107 75 173 105 75 175 104 77 175 102 77 175 101 79 176 101 79 175 101 80 173 101 82 171 102 82 170 104 83 169 106 84 168 108 84 166 110 84 165 112 84 165 114 85 165 115 85 166 115 86 166 117 87 167 118 88 168 120 90 170 122 92 173 125 92 173 128 91 173 129 91 173 130 91 172 132 92 172 134 92 173 136 94 174 138 95 175 138 97 176 141 97 168 96 60 168 96 63 169 97 65 168 99 67 169 100 67 169 102 68 169 104 67 170 106 66 171 106 64 170 107 63 171 109 64 173 110 65 174 111 67 174 112 68 175 112 71 173 113 72 173 111 73 174 109 73 173 107 74 172 106 75 174 106 76 176 104 76 176 103 76 176 102 78 176 100 80 175 100 81 173 100 82 172 101 83 171 103 83 169 105 83 168 107 84 167 109 83 166 112 82 166 114 83 165 114 84 165 116 85 165 117 87 166 118 88 167 120 90 169 121 92 172 125 91 172 128 91 172 130 90 170 131 92 171 133 94 171 135 94 171 137 96 172 137 97 173 138 98 174 140 98 168 95 58 168 95 61 168 97 64 168 99 66 170 100 67 170 103 67 171 105 68 172 106 68 172 107 66 172 109 65 172 110 65 173 112 66 175 112 68 175 111 68 175 111 70 175 112 72 175 110 72 175 108 72 174 107 73 173 106 74 173 106 76 175 104 76 175 102 77 175 102 78 175 100 80 175 100 82 173 100 82 172 101 84 171 103 84 170 104 83 168 106 83 168 109 83 166 110 83 164 112 83 163 113 84 163 114 86 164 115 86 165 118 88 166 119 89 168 121 90 170 124 89 172 127 90 171 129 91 170 131 93 169 133 94 170 135 94 170 136 96 170 137 98 172 139 99 173 140 98 169 95 56 168 96 59 168 98 63 169 99 65 171 101 66 172 103 67 171 104 67 173 106 67 174 108 67 174 110 65 173 110 66 174 112 67 175 113 68 176 112 69 176 112 71 176 111 72 176 110 71 175 108 72 175 107 73 173 106 74 173 105 76 174 105 77 174 102 77 174 102 78 174 102 80 173 101 81 172 101 83 172 100 85 171 101 84 169 104 83 168 106 83 166 107 83 166 108 84 163 110 84 162 111 85 162 113 86 163 115 87 164 117 88 165 119 89 166 121 88 169 123 88 169 126 90 169 128 92 167 130 94 168 132 95 169 134 96 169 135 96 169 136 97 171 138 97 171 140 97 