P3
50 50
255
147 172 157 149 169 158 152 167 157 154 166 156 157 166 155 160 165 153 162 163 152 164 161 150 164 156 147 163 153 146 166 151 145 167 148 144 170 145 143 174 143 140 178 142 139 181 141 137 185 139 135 187 139 133 189 136 131 191 132 130 191 129 129 192 127 127 194 124 126 196 121 126 197 118 124 197 117 123 197 116 122 195 116 121 195 115 120 195 115 119 196 114 118 196 113 117 196 113 117 197 112 117 198 112 117 198 111 117 198 112 116 200 110 115 200 108 114 201 106 113 201 104 113 201 102 112 201 100 110 201 96 110 201 93 110 200 91 111 199 90 110 197 90 109 195 90 110 193 89 112 146 172 155 149 170 155 152 169 155 154 167 155 157 166 153 159 165 151 161 163 150 164 160 148 166 157 146 166 154 145 167 151 143 170 149 142 172 146 142 176 144 140 179 143 139 182 140 138 184 139 136 187 139 133 189 135 132 191 132 131 193 129 129 194 126 128 195 123 127 196 120 127 197 119 126 197 118 124 198 117 123 197 116 121 197 114 119 198 114 119 198 113 118 198 112 117 198 111 116 198 110 116 198 110 116 199 111 117 200 110 117 200 109 116 201 107 116 201 107 115 202 104 113 202 102 113 202 99 111 202 96 111 202 94 110 202 92 111 200 91 110 198 91 109 196 91 110 194 90 111 143 173 153 146 172 153 149 170 153 152 168 153 155 167 152 157 166 150 161 164 148 165 161 147 168 156 144 169 154 143 170 151 141 173 150 141 174 147 140 177 146 138 179 144 137 183 142 138 185 140 137 187 138 134 190 135 134 193 132 133 194 128 131 196 125 130 197 122 129 196 119 128 196 119 127 196 118 126 197 117 124 197 115 121 198 114 119 199 113 118 199 112 116 200 110 115 200 109 116 199 108 115 200 109 115 201 109 116 201 108 117 202 108 117 202 107 117 203 105 116 203 102 115 204 102 115 203 99 113 202 96 112 202 94 110 201 94 110 200 92 109 199 91 108 197 91 109 195 91 109 142 174 155 144 173 154 147 171 153 151 169 152 154 168 151 157 167 148 160 165 147 164 161 146 168 157 145 170 154 142 172 152 141 174 149 141 177 148 139 179 147 138 181 145 138 185 143 137 187 139 138 190 137 136 192 133 136 194 130 135 196 127 133 197 125 131 198 121 130 198 120 129 198 119 128 197 117 126 198 115 124 199 114 121 199 114 119 200 111 117 201 110 116 202 108 115 202 106 116 202 105 115 202 106 115 203 106 116 203 106 117 204 107 117 205 106 117 205 104 116 206 101 116 206 100 116 206 97 114 204 95 113 203 94 111 201 93 109 200 92 109 200 91 108 199 92 108 197 92 108 143 173 155 145 173 154 147 172 154 151 171 152 154 170 151 156 168 149 160 165 148 163 161 146 168 157 144 172 155 143 175 152 142 178 148 141 181 146 139 182 146 138 183 145 137 186 141 137 188 138 138 191 136 137 193 133 137 195 129 136 197 127 134 199 125 132 200 123 131 200 120 129 200 118 128 200 115 126 200 114 124 201 112 122 201 112 120 202 110 117 203 108 116 204 106 116 205 104 116 205 102 116 204 102 115 204 103 116 205 103 117 206 103 116 207 104 116 208 103 116 208 100 116 207 99 115 207 97 113 205 95 111 204 94 109 203 94 107 201 93 108 200 92 108 198 93 108 196 93 109 143 173 156 146 173 156 148 172 155 152 172 153 155 171 150 157 169 149 161 165 148 165 161 146 169 156 144 173 154 142 178 151 142 181 148 141 183 146 140 184 145 140 186 143 139 188 140 138 191 138 138 193 136 138 196 134 137 198 131 137 199 128 135 200 126 133 203 123 132 203 119 130 203 116 129 203 114 127 203 112 125 203 111 123 203 110 123 203 107 120 205 106 118 206 105 117 207 103 116 206 101 115 205 100 115 206 100 114 208 100 115 208 101 115 209 102 116 210 101 116 209 99 114 209 98 112 207 97 110 205 96 109 204 95 107 202 94 106 200 93 106 199 93 106 197 92 108 195 92 108 145 174 157 148 173 158 151 172 157 153 171 153 155 170 151 159 168 150 163 165 149 168 160 147 171 156 144 174 153 142 180 151 141 184 148 140 185 145 141 187 144 140 190 142 139 193 139 137 195 137 138 197 135 138 198 134 138 201 132 137 201 129 135 203 126 133 205 124 133 205 120 131 206 117 130 206 113 128 205 111 126 204 109 124 205 108 124 205 107 122 207 105 120 209 103 118 209 101 117 208 100 116 207 99 116 208 98 115 209 98 115 210 98 115 210 99 116 211 98 115 211 98 113 208 97 110 207 97 108 205 97 107 204 96 106 202 95 105 200 93 106 199 92 107 198 91 107 196 90 107 146 176 158 149 174 159 153 173 157 156 172 153 157 171 153 160 169 151 164 164 149 169 160 146 173 157 144 177 154 142 181 151 141 185 148 140 187 146 140 189 144 140 192 141 139 195 138 138 198 137 139 200 136 139 202 134 139 204 133 138 204 131 135 205 128 133 207 124 132 207 120 130 208 116 129 207 113 128 208 112 126 208 109 126 208 108 124 207 106 122 209 103 121 211 102 119 211 101 117 210 99 117 210 98 117 211 96 116 211 97 116 212 96 116 211 96 115 212 96 114 211 96 112 209 96 109 207 96 107 205 96 106 203 95 106 201 95 106 200 94 107 200 92 108 199 90 108 198 89 107 148 176 159 151 174 158 154 173 157 157 171 156 159 171 154 162 169 153 167 165 150 171 161 148 175 158 146 179 156 143 183 153 141 188 149 140 190 147 140 192 144 140 195 140 140 197 137 139 200 136 140 202 136 141 204 136 140 206 133 138 207 131 135 208 127 133 209 124 131 209 119 130 208 116 128 209 113 128 211 111 128 211 109 127 210 108 124 210 105 122 211 103 121 212 101 119 212 100 117 211 98 116 211 96 117 212 96 117 213 96 116 214 94 115 213 93 114 213 93 112 213 94 108 210 94 106 208 95 105 207 94 105 205 94 105 202 94 105 202 93 107 202 91 108 201 90 109 198 88 107 150 177 159 153 175 159 155 173 158 158 172 156 160 171 154 164 168 152 169 165 150 173 162 148 176 159 146 181 157 144 184 153 142 188 150 140 192 148 139 194 144 140 196 141 141 198 137 141 201 136 141 203 135 142 205 135 141 207 133 139 207 130 136 209 127 133 210 123 132 210 120 131 210 116 129 212 112 129 212 111 128 212 110 126 213 109 124 213 107 122 213 104 120 213 102 117 212 99 115 211 99 115 212 97 116 213 97 116 215 95 115 215 93 113 215 92 111 215 92 109 214 92 106 211 93 104 208 93 103 207 92 104 206 92 104 204 91 104 203 90 105 202 89 107 200 89 108 197 87 107 151 176 160 153 174 160 155 172 159 159 171 157 161 170 154 164 167 152 168 165 150 173 162 148 177 159 148 181 157 145 185 154 143 189 150 141 192 148 140 195 145 141 197 141 142 199 138 142 202 136 143 205 135 144 206 135 143 208 134 140 209 130 136 211 126 134 210 123 132 212 119 132 213 117 130 214 114 130 214 112 128 214 110 125 216 110 122 216 108 121 215 106 118 214 104 115 213 101 114 212 99 114 213 99 114 213 97 114 215 97 113 216 95 111 216 92 111 215 89 108 214 89 106 212 90 103 209 90 102 207 90 103 205 90 103 203 90 104 202 89 105 202 89 106 199 88 108 196 87 108 153 175 159 154 172 159 156 171 158 159 170 156 161 169 153 164 167 150 169 166 149 172 163 148 177 159 148 181 157 146 185 155 144 188 152 143 191 149 141 195 146 142 198 141 142 200 138 144 202 137 145 205 136 144 208 135 142 210 133 139 211 129 137 212 125 135 213 123 134 214 120 132 216 117 131 215 114 130 215 111 128 214 110 125 216 109 121 216 108 119 215 106 117 215 104 115 212 102 114 212 100 113 213 99 112 214 99 113 215 97 111 215 94 111 216 92 109 215 89 107 215 87 105 213 88 103 211 87 103 208 87 103 204 87 102 203 88 102 200 88 104 200 87 105 198 87 108 195 86 109 153 173 158 155 170 158 156 169 157 159 167 154 162 167 151 166 165 148 170 165 147 173 164 147 178 160 147 181 157 146 184 155 145 187 153 144 190 151 143 195 146 142 198 142 142 201 139 143 203 137 145 207 136 144 209 134 143 211 132 140 212 129 138 213 126 136 214 122 135 216 119 132 217 116 131 216 112 130 215 109 128 215 107 125 215 107 121 216 108 118 216 105 116 214 104 115 212 102 115 212 101 113 213 100 111 214 99 110 215 97 110 214 93 108 214 91 107 214 90 106 214 88 105 212 87 104 211 85 104 208 84 102 205 85 102 202 85 102 201 85 104 199 85 104 196 85 107 194 84 109 155 171 160 156 168 158 158 166 155 162 164 152 165 164 149 169 163 147 172 163 146 175 163 146 179 161 146 182 159 145 185 156 145 187 153 143 192 151 142 196 147 141 199 142 143 202 139 144 205 136 145 209 135 146 211 133 144 213 132 143 214 129 140 215 126 139 216 121 136 217 117 133 218 114 131 217 111 129 215 108 126 214 106 124 214 105 121 216 105 119 216 105 117 214 104 117 214 103 115 214 101 112 213 99 110 213 98 109 212 96 107 213 91 107 213 90 106 213 89 105 213 87 105 212 86 104 210 84 104 208 82 103 205 81 103 203 82 105 202 83 105 200 82 104 197 82 106 195 81 108 155 167 160 158 164 158 160 162 154 164 162 151 168 161 149 172 161 148 174 161 147 178 162 146 181 162 146 183 160 144 186 156 144 189 154 143 192 152 141 195 148 141 199 144 142 203 141 145 207 138 145 210 135 146 213 133 144 214 132 143 215 129 141 217 125 140 218 120 138 219 117 135 218 114 132 217 110 128 216 108 125 216 105 124 216 104 122 215 103 120 215 103 119 215 103 117 214 102 115 214 101 112 212 99 110 211 96 107 211 93 105 211 91 105 211 90 104 212 87 104 213 85 103 213 83 103 211 81 103 207 80 103 205 79 103 204 79 104 203 79 103 201 80 105 198 79 106 195 79 107 156 163 161 159 161 157 162 161 154 166 160 152 169 159 150 172 159 149 175 160 149 179 161 148 182 161 146 184 160 145 186 157 143 190 154 142 193 152 141 197 149 141 200 146 141 205 142 144 210 139 146 213 135 146 216 133 144 217 132 143 218 129 142 219 124 141 220 120 139 221 116 136 219 115 131 218 112 128 216 108 126 216 107 124 216 105 122 216 102 121 215 101 120 216 100 118 216 100 115 214 99 111 212 98 110 212 95 107 211 92 105 210 89 105 210 88 104 211 85 103 212 84 103 212 81 103 210 79 102 207 78 102 206 77 103 204 76 103 203 77 103 200 77 104 198 77 105 196 76 106 157 160 162 160 159 158 163 158 155 167 156 152 169 156 151 173 157 149 176 159 150 180 160 148 184 159 146 186 158 144 188 155 143 191 153 142 195 151 141 198 150 141 202 147 142 206 144 143 211 141 145 215 137 146 217 133 144 219 131 144 220 128 143 220 123 141 221 119 139 221 115 135 219 113 132 218 111 130 217 109 127 216 107 125 216 105 122 216 102 120 216 100 120 217 98 118 217 98 114 214 97 111 213 96 110 213 94 108 211 91 105 209 89 105 210 86 103 210 84 103 211 82 103 210 80 102 209 77 102 207 77 101 206 75 102 204 74 103 202 74 103 200 74 103 198 73 104 196 74 104 160 159 164 162 157 161 164 155 158 167 154 155 170 155 152 173 156 151 178 157 150 182 156 149 186 156 147 188 154 145 190 152 143 193 150 143 196 149 142 199 149 143 203 149 144 208 145 144 212 143 145 217 138 145 219 134 144 220 131 145 220 128 143 221 122 142 220 118 140 221 114 137 220 111 134 219 110 132 218 109 129 217 107 127 217 103 124 217 101 123 218 98 120 218 96 117 218 95 114 215 94 112 213 93 110 213 92 108 211 90 105 209 88 104 209 86 103 208 83 102 208 81 101 208 79 101 207 75 102 206 75 101 205 73 102 203 72 102 201 73 103 199 73 103 197 72 103 196 74 104 163 157 165 165 156 163 167 154 160 168 154 157 171 154 154 175 155 152 179 154 151 183 154 149 187 153 147 189 151 145 191 150 144 194 148 145 198 148 145 202 149 144 205 148 144 209 145 144 214 142 146 218 140 145 219 136 145 221 131 145 221 127 144 221 121 142 220 118 141 220 115 140 220 112 137 220 109 134 220 107 131 219 105 129 218 102 126 218 100 124 220 97 121 219 95 118 218 93 115 216 92 113 214 91 111 212 90 108 210 90 106 210 89 105 209 86 104 207 83 102 207 81 101 207 78 100 207 75 100 205 74 100 205 73 101 202 72 101 201 72 101 199 73 103 197 73 103 197 72 104 164 157 166 166 156 164 170 155 162 171 155 159 173 154 157 176 154 154 179 153 153 184 152 151 187 152 149 191 150 147 193 149 146 197 148 147 199 148 148 203 147 146 206 145 146 211 143 146 215 141 146 217 140 146 219 137 146 220 132 145 222 127 145 221 121 143 219 117 141 219 113 140 221 111 139 221 107 136 220 104 133 219 103 130 219 102 127 219 100 125 220 97 122 220 94 121 219 92 119 216 91 116 215 91 112 213 90 110 211 89 107 209 88 106 209 85 104 206 83 103 206 80 102 207 78 100 206 74 100 205 73 100 203 73 100 202 72 100 202 71 100 200 71 101 198 72 103 198 72 104 167 157 167 169 156 166 171 156 164 174 155 161 175 154 158 178 153 156 181 153 154 185 152 153 188 151 151 193 150 151 196 150 150 198 149 150 201 148 149 204 147 149 207 145 147 212 143 147 214 142 147 216 139 146 219 136 147 220 133 147 220 126 146 220 120 145 218 116 143 218 113 142 220 110 141 221 107 138 220 105 134 220 103 131 220 101 128 219 99 126 219 97 124 219 94 123 218 93 121 215 91 118 215 90 115 213 90 111 211 88 109 209 86 109 207 85 106 206 83 103 205 80 102 206 76 101 206 74 100 205 73 99 205 73 100 203 72 99 204 71 99 202 70 100 200 71 102 199 71 103 168 157 167 171 155 167 173 155 165 175 155 161 177 153 159 180 152 157 183 151 156 186 151 155 189 151 154 193 151 154 196 150 153 199 150 151 203 148 150 206 147 149 208 146 149 211 144 149 214 142 148 216 140 148 218 137 148 218 132 148 218 127 147 217 121 146 216 117 145 217 114 143 219 110 141 219 107 138 220 105 134 221 103 130 220 100 128 220 99 126 219 96 124 218 94 124 217 93 123 215 92 120 213 89 116 212 87 113 210 86 111 209 85 110 207 85 109 205 82 105 204 79 104 205 76 103 206 75 101 205 74 99 205 74 101 204 72 100 204 71 100 203 70 100 202 69 102 200 70 103 170 157 168 171 156 166 174 155 165 176 154 162 178 153 159 180 151 157 183 151 157 187 152 156 191 152 156 195 152 156 197 151 154 201 150 153 204 148 151 207 147 150 210 147 149 211 145 149 214 143 149 217 140 149 218 136 148 218 132 148 217 127 147 217 122 147 216 118 145 216 114 144 217 111 141 219 109 137 221 107 134 222 104 130 222 102 127 221 99 125 220 96 125 217 95 124 216 94 124 213 93 122 212 90 117 212 88 114 209 87 112 207 85 111 205 84 110 204 82 108 203 79 105 204 77 104 205 76 103 205 74 102 205 74 103 205 73 102 205 72 101 205 70 101 204 68 102 203 68 103 170 157 168 173 157 166 174 156 165 177 154 163 178 153 160 180 151 158 184 151 157 189 151 157 193 153 157 196 152 156 199 151 155 202 150 155 206 149 153 209 148 152 211 147 150 212 144 150 214 142 149 216 139 148 216 136 148 217 131 148 217 127 147 217 123 146 217 119 146 217 115 144 217 111 140 219 109 136 221 107 134 220 105 129 221 103 127 221 100 125 220 99 126 218 97 126 216 95 125 213 94 122 211 92 120 210 89 117 208 87 113 206 85 112 204 84 110 203 82 107 202 79 106 203 76 106 204 75 105 205 73 104 205 73 103 205 73 103 205 73 103 205 70 103 205 68 104 203 66 104 171 158 167 174 158 164 176 156 163 178 154 161 180 153 160 182 152 158 184 151 158 188 152 158 193 152 158 196 153 157 200 152 156 204 150 156 206 149 155 209 149 153 212 147 151 213 144 150 214 142 149 214 138 149 215 135 148 216 131 148 216 127 147 216 123 146 217 119 145 217 115 143 218 112 139 219 110 134 220 108 132 220 105 129 221 102 127 221 101 125 220 101 126 218 99 125 216 97 125 212 95 123 210 94 121 208 91 119 206 89 115 204 86 112 203 84 109 201 82 107 201 79 107 202 77 107 203 76 106 205 74 106 205 74 105 205 74 105 204 73 105 205 72 105 205 70 106 202 67 106 171 157 165 173 156 163 175 155 162 179 153 161 182 152 160 183 152 159 186 152 158 189 152 157 192 153 158 197 153 158 201 151 157 204 150 157 206 148 154 208 147 153 210 146 152 211 143 151 211 140 150 211 138 150 214 136 149 215 132 148 217 127 147 216 123 146 216 120 144 216 117 141 218 113 137 219 111 134 219 109 132 220 106 129 220 103 127 220 102 125 219 101 126 217 100 126 215 99 125 212 97 123 210 95 121 207 94 119 204 92 116 202 88 112 201 86 109 200 83 108 199 81 107 200 80 106 202 77 106 204 76 105 205 76 106 205 74 106 205 74 105 204 74 106 203 72 106 201 69 107 171 157 164 173 155 162 175 154 161 178 154 161 182 154 161 184 154 160 188 153 159 190 152 157 194 153 157 197 152 157 201 150 156 205 149 156 206 148 155 207 147 153 208 145 152 210 143 152 209 141 151 211 138 149 213 135 149 215 130 148 216 128 147 217 124 146 217 121 142 216 118 140 217 115 137 218 113 133 218 110 131 219 107 128 217 104 127 217 102 126 217 102 125 214 101 125 213 99 125 212 98 124 210 96 122 207 94 119 203 93 115 200 89 111 198 87 109 197 85 108 197 83 106 198 81 105 200 79 104 202 78 105 204 77 105 205 76 105 205 75 105 204 74 106 202 72 107 201 70 106 172 157 162 173 155 161 176 154 161 179 153 162 182 154 161 185 155 160 189 154 159 192 153 156 194 153 155 198 151 155 201 150 154 204 149 153 206 147 154 206 146 151 207 143 151 208 142 151 208 140 151 209 137 149 212 133 149 213 129 147 215 127 146 217 124 144 217 121 141 216 117 139 217 116 137 217 113 134 217 110 131 216 106 129 214 105 128 214 103 126 213 102 126 212 101 125 211 100 124 211 99 123 208 98 120 204 95 117 201 92 113 198 90 111 195 89 109 195 86 108 195 85 107 196 84 105 198 81 105 200 80 104 202 78 104 204 76 104 204 75 106 204 74 107 203 74 106 201 72 105 173 158 161 175 157 160 177 153 161 181 153 162 182 154 161 186 154 158 189 154 157 192 153 156 196 153 155 200 150 153 201 148 151 203 147 151 204 146 151 204 144 150 205 142 150 206 140 149 207 138 149 208 135 150 211 132 149 212 129 146 213 127 145 214 124 143 214 120 141 214 117 139 214 116 138 215 113 136 215 110 132 214 107 130 211 106 129 211 105 128 210 104 127 209 102 126 209 101 126 208 100 123 205 98 119 202 95 115 199 91 113 197 90 110 193 88 108 193 87 108 193 87 107 194 86 105 196 83 105 198 82 105 201 80 104 203 77 104 204 76 105 202 76 106 201 74 106 200 72 105 174 159 161 175 156 160 178 155 160 182 153 160 183 153 159 186 153 156 190 152 154 193 152 154 196 151 154 199 148 152 200 146 150 202 145 149 203 143 149 203 143 149 204 142 148 205 139 148 206 137 148 208 134 148 210 132 147 211 129 145 211 126 143 213 123 142 213 120 140 212 117 140 211 116 140 211 113 138 211 110 134 210 109 132 209 107 131 209 107 130 208 106 129 207 104 128 205 102 125 204 100 122 203 98 118 199 94 116 197 92 113 194 89 111 192 88 109 193 88 108 193 87 106 194 85 105 196 83 105 198 83 104 200 81 104 203 79 104 203 76 104 201 75 105 200 74 105 198 74 105 175 158 161 176 156 160 180 153 159 182 153 158 184 152 157 186 151 155 189 150 154 193 150 153 196 149 152 196 147 152 199 145 149 200 143 149 201 141 149 202 141 149 204 140 148 204 138 147 205 137 147 206 134 146 207 132 144 210 128 144 211 126 143 212 123 142 211 120 142 210 119 141 208 116 140 208 114 138 208 112 135 208 110 133 207 108 132 206 107 131 205 107 130 204 106 128 202 104 124 202 101 122 199 98 119 197 95 116 194 93 114 192 90 112 191 89 109 193 88 108 193 86 107 195 85 106 196 84 105 197 83 104 199 81 104 200 79 104 201 78 104 199 76 105 197 75 105 197 76 105 177 156 161 178 155 160 180 153 159 182 153 158 185 151 156 186 149 154 189 148 155 192 148 154 195 147 152 196 145 152 198 144 152 200 142 150 200 140 149 202 140 149 204 139 149 204 137 148 205 136 146 205 132 145 206 129 144 208 126 143 210 125 143 210 123 143 210 120 143 209 119 143 207 117 141 206 115 139 205 113 136 204 112 134 204 110 133 204 109 131 204 108 128 202 106 126 199 105 124 198 102 121 196 100 119 195 97 116 193 94 113 191 91 111 190 89 108 191 87 107 192 86 108 193 86 107 196 84 105 197 83 104 196 80 103 197 80 104 198 78 103 195 77 104 194 75 105 195 75 105 179 155 160 180 154 158 182 152 157 183 151 157 185 150 156 187 149 155 189 148 155 192 147 156 194 145 154 196 143 154 199 143 152 201 142 150 202 139 149 203 138 149 206 136 149 205 135 147 207 133 146 207 129 143 207 126 143 207 124 143 208 124 143 210 122 142 209 121 144 209 119 144 207 118 142 204 116 140 203 114 137 203 112 134 202 112 133 202 110 130 201 109 127 200 106 124 198 104 122 196 103 119 195 100 117 193 97 115 192 93 113 190 90 109 188 88 108 188 86 107 189 85 107 191 85 107 193 83 106 195 81 104 194 80 103 194 80 103 194 79 103 192 77 103 193 76 104 193 75 105 181 154 159 183 152 158 184 152 157 185 151 156 186 149 157 188 147 156 189 146 157 192 145 158 193 143 157 196 142 155 199 141 152 201 139 150 202 138 150 204 135 150 206 133 150 207 132 147 207 129 145 207 126 143 207 123 142 207 122 143 207 121 143 208 120 143 209 119 144 208 118 144 206 118 143 204 115 140 202 113 137 201 112 135 199 112 132 198 111 129 197 109 126 197 107 124 195 104 122 193 102 119 191 99 115 191 96 114 190 93 112 188 90 109 186 87 108 186 85 106 187 85 105 188 84 105 190 82 105 192 80 104 192 80 103 192 79 104 191 77 104 191 77 103 191 78 103 192 76 104 183 153 159 184 152 158 185 151 157 187 149 157 189 148 158 190 146 158 191 144 158 192 143 159 194 140 159 196 139 156 198 138 154 200 136 152 201 135 151 203 134 150 205 131 149 206 128 148 207 126 145 208 123 143 207 120 143 206 120 143 207 119 144 208 118 145 207 118 145 207 118 144 205 116 142 204 114 140 202 112 137 200 111 134 198 112 131 196 110 128 194 109 125 194 107 123 193 104 121 192 100 118 191 97 115 191 94 113 190 92 110 188 90 110 186 87 107 184 85 105 184 84 104 186 82 104 188 81 103 188 80 103 188 79 102 190 78 103 190 77 103 190 77 102 191 78 102 193 77 103 184 152 159 185 152 158 186 150 157 187 148 157 188 145 159 190 144 159 192 143 160 193 140 161 193 137 160 195 136 158 196 135 156 198 133 155 200 133 153 202 130 150 204 128 149 207 126 147 207 124 145 207 121 145 207 119 144 207 118 144 207 118 144 207 117 145 205 117 146 204 116 144 204 114 141 204 111 140 203 110 137 200 110 134 198 110 131 196 109 127 194 107 125 193 105 122 192 101 119 192 98 117 192 95 114 191 92 112 190 91 111 188 89 110 186 87 108 184 86 106 183 84 103 184 82 102 185 81 101 185 79 101 185 78 102 188 77 102 189 77 102 189 77 102 190 77 102 192 76 103 185 150 160 186 149 159 188 148 159 188 146 159 189 145 160 192 143 161 192 141 161 192 139 161 192 136 160 194 134 159 196 133 158 197 132 157 199 131 155 203 127 152 205 125 149 207 123 147 207 121 145 206 120 145 207 119 144 207 117 144 208 116 144 207 116 145 205 115 146 204 114 146 204 112 143 204 109 139 202 109 136 200 110 134 197 110 130 195 108 126 194 106 125 193 102 120 192 100 118 193 97 116 192 94 114 191 92 113 189 90 111 188 89 109 186 88 108 186 87 105 185 85 102 184 82 100 183 79 99 183 78 100 184 78 100 186 78 101 188 76 102 189 77 102 191 76 102 193 75 104 186 148 161 188 147 160 189 146 160 189 146 160 191 143 161 192 141 161 193 140 162 193 138 162 193 136 161 194 133 159 196 131 159 198 130 159 199 128 157 202 125 154 204 123 150 206 122 147 207 121 146 206 119 146 207 117 144 207 115 144 205 115 145 205 114 145 205 113 146 203 113 145 202 112 143 202 108 139 202 107 136 199 108 133 197 108 129 194 106 126 193 104 125 193 102 121 192 98 119 192 97 116 191 94 114 190 91 112 188 89 109 187 88 107 186 88 106 186 86 103 186 84 102 184 82 99 183 79 98 183 78 98 184 78 99 186 76 100 189 76 101 190 76 102 191 74 101 193 74 102 189 146 162 190 144 161 190 144 161 190 143 160 192 140 160 193 139 161 193 138 161 193 136 162 193 135 161 193 132 160 196 130 159 198 129 160 199 127 159 202 124 157 203 123 153 204 121 149 205 120 148 205 118 146 205 117 144 205 115 145 204 113 145 202 112 145 202 111 144 201 111 145 201 110 142 201 107 138 201 106 136 199 106 133 197 106 129 194 104 126 194 103 123 193 100 121 191 98 119 190 96 115 189 94 113 189 92 111 188 89 108 187 88 105 186 87 104 185 84 102 185 83 101 184 82 99 184 80 97 184 78 97 184 77 98 187 77 98 189 76 99 189 75 101 191 74 101 192 73 101 190 143 163 190 143 162 190 142 161 191 140 160 193 138 161 194 137 162 193 135 161 194 135 161 194 133 161 194 131 161 196 129 160 198 128 160 199 126 159 200 124 158 202 123 156 203 122 152 204 121 150 204 118 148 203 117 147 202 114 147 202 113 145 201 112 145 200 112 144 200 110 144 201 108 142 202 107 138 201 106 136 199 106 132 197 105 129 195 103 126 194 101 123 193 99 120 191 97 117 189 96 114 188 94 112 189 91 111 188 88 107 187 86 104 187 84 103 186 82 100 186 82 99 185 81 98 185 80 97 184 78 97 185 77 98 186 77 98 188 75 98 189 75 100 190 74 100 191 72 100 190 143 163 190 142 162 190 139 161 192 137 160 193 136 162 193 135 162 195 135 162 195 134 161 196 132 161 196 130 161 197 129 160 199 128 160 200 126 160 200 124 159 201 123 157 202 122 154 203 120 152 203 118 150 202 115 150 201 114 149 201 113 148 200 111 146 199 111 145 199 109 144 200 108 142 200 106 138 200 106 135 198 106 132 196 104 128 196 102 126 194 101 122 193 99 118 192 97 115 190 95 113 189 93 112 188 90 110 188 87 108 187 85 105 186 83 102 186 82 100 186 81 99 185 81 98 185 80 97 185 78 98 185 78 99 186 77 99 187 76 100 188 75 100 190 74 100 190 73 100 191 143 163 190 140 162 191 138 162 192 137 162 193 135 161 194 134 161 196 135 162 196 134 162 197 133 161 197 131 160 198 130 160 200 128 160 200 127 160 200 125 159 201 122 158 201 120 155 201 119 152 202 116 151 200 113 150 200 113 149 199 111 148 198 111 146 198 110 145 198 108 144 198 107 142 198 106 138 197 107 134 196 105 131 195 104 128 194 102 125 194 100 121 194 98 118 193 97 115 192 95 113 190 92 113 189 89 111 188 87 109 187 85 106 186 82 103 186 82 101 186 81 100 185 81 100 183 80 99 184 79 99 185 78 99 185 78 100 186 76 101 188 75 102 188 75 102 188 75 101 190 142 165 192 140 164 193 139 164 193 138 163 194 136 162 194 135 162 195 135 162 196 134 162 197 132 161 198 130 161 199 129 161 200 128 160 200 127 160 200 125 158 200 121 157 199 118 155 200 116 152 200 114 151 199 112 150 198 111 149 198 111 147 198 111 146 197 110 145 197 108 144 197 106 142 196 105 139 195 105 136 194 105 132 193 104 128 192 102 125 193 99 121 194 97 119 193 96 116 192 93 113 190 91 112 189 88 111 188 87 109 188 85 107 187 83 104 186 82 102 186 81 100 185 80 101 183 78 101 183 78 100 185 78 100 186 78 100 186 77 101 186 76 102 187 77 102 188 77 102 192 141 166 194 140 166 196 140 166 195 139 165 196 137 164 196 135 163 195 134 164 196 133 163 197 131 162 198 129 162 199 128 162 200 127 161 199 126 160 199 123 158 198 119 156 197 116 154 197 114 153 197 112 152 197 110 151 197 110 149 197 111 147 197 111 146 196 109 144 195 107 143 194 106 142 194 105 139 194 105 137 193 104 133 191 103 128 191 101 124 192 99 121 193 96 120 192 96 116 191 93 113 190 91 112 190 88 110 188 86 109 188 85 107 187 84 105 186 82 104 185 81 102 185 79 102 184 78 102 185 78 102 185 78 102 186 77 102 187 77 102 186 78 103 186 79 102 187 79 102 192 140 166 195 142 167 196 141 167 197 139 166 197 136 166 196 135 165 196 133 166 197 132 164 197 129 163 197 128 163 198 127 162 198 126 161 198 124 159 197 121 157 196 118 156 195 114 154 195 112 154 195 111 152 195 110 150 194 109 149 194 110 147 194 110 146 194 109 145 194 106 144 194 106 141 193 104 139 191 104 137 190 104 134 190 103 129 191 100 126 191 98 123 190 96 120 189 94 117 189 91 114 189 88 112 189 87 111 188 86 109 186 84 107 185 83 106 185 82 105 185 80 105 185 79 104 185 77 103 185 77 103 187 77 103 187 77 104 187 78 104 186 79 104 187 80 103 187 80 103 191 140 168 194 140 168 195 140 169 196 138 168 197 137 168 196 135 168 195 132 167 197 130 165 197 129 164 196 128 163 196 127 163 195 125 161 195 123 159 193 120 157 193 117 155 192 113 154 191 111 153 192 110 151 192 109 150 191 108 149 191 109 148 191 109 147 191 107 145 192 105 144 192 105 142 192 104 138 190 103 136 190 103 134 190 102 130 191 99 128 190 96 125 188 93 122 188 91 119 187 89 116 188 87 112 188 86 111 187 85 110 186 84 108 185 83 107 185 82 107 185 80 106 186 79 105 186 77 105 186 76 104 186 75 104 186 77 105 187 79 105 186 79 105 186 79 105 186 79 103 191 138 169 194 137 170 195 137 169 197 137 168 196 136 168 195 135 168 195 132 168 195 130 166 194 128 165 193 127 163 193 126 163 193 124 160 192 121 158 191 118 157 190 115 154 188 112 154 188 109 152 189 108 151 189 107 151 189 106 151 189 106 150 189 107 149 189 104 147 191 103 144 192 104 141 191 102 139 191 101 136 191 101 135 191 100 132 191 98 128 191 95 126 190 92 123 188 90 121 186 88 118 187 86 114 187 85 111 186 84 110 185 84 108 185 82 108 184 81 108 185 80 107 184 79 107 185 78 106 186 76 105 186 76 105 185 77 105 185 79 105 185 79 105 184 79 105 186 79 104 190 136 169 193 135 169 195 135 169 195 135 169 194 136 169 193 135 168 193 133 168 193 130 166 192 128 165 191 127 164 190 125 162 190 122 159 189 119 158 187 117 157 186 113 154 186 111 154 186 108 154 187 107 153 188 107 153 188 106 152 189 105 151 189 104 150 190 102 149 191 102 145 191 101 142 191 101 140 192 100 137 192 100 136 193 99 133 192 97 130 191 94 126 190 90 124 189 89 121 186 87 118 186 85 114 186 83 112 185 83 110 185 83 109 185 83 108 184 81 108 182 80 108 183 80 108 185 79 107 187 77 105 186 77 104 185 78 104 184 78 103 184 78 104 184 78 105 185 78 105 188 134 168 190 134 168 193 133 170 194 133 171 193 134 170 191 134 169 191 133 168 190 130 169 189 128 167 189 126 164 188 124 162 187 120 160 186 118 159 184 116 157 183 113 156 183 110 154 183 107 153 185 106 153 187 106 154 188 105 154 189 104 153 188 103 151 188 102 149 188 102 148 190 101 144 191 101 141 192 100 138 193 99 136 193 97 135 193 94 132 193 91 128 191 89 124 189 87 121 187 85 118 186 84 115 185 83 113 184 83 111 183 83 111 183 82 110 182 81 110 181 80 109 183 79 107 185 79 107 186 78 106 186 77 105 185 78 104 185 77 103 185 76 104 185 77 104 185 78 106 184 133 167 188 133 168 191 132 169 192 131 169 192 132 170 190 132 170 189 131 170 188 129 170 187 127 169 187 125 166 185 123 163 185 120 160 184 118 159 182 116 157 181 113 155 181 110 154 181 108 153 183 107 155 185 105 156 187 104 156 188 104 155 188 102 152 187 100 150 188 101 147 188 101 145 190 101 142 191 99 139 192 97 136 193 93 134 194 91 131 193 89 129 191 87 125 190 85 121 188 83 118 187 82 116 184 82 115 183 82 114 183 81 113 181 80 111 181 79 110 181 78 110 183 78 108 184 78 107 185 77 107 185 77 106 185 76 105 184 75 104 185 76 104 186 76 105 186 77 107 