P3
50 50
255
55 103 187 55 102 186 55 101 185 55 101 184 54 102 182 54 100 181 55 100 180 57 97 180 58 95 180 60 94 179 61 93 178 62 92 175 63 93 174 64 94 171 65 93 169 66 92 167 66 91 167 67 91 166 70 92 164 73 93 162 74 93 161 75 94 161 76 96 161 75 97 158 75 98 156 74 99 155 73 101 152 72 103 150 71 104 148 71 105 146 70 107 141 70 108 138 69 109 134 70 111 132 69 112 130 70 114 129 72 118 129 74 122 128 76 125 127 78 127 125 79 127 125 82 129 124 85 131 123 88 134 122 91 134 124 95 135 124 98 136 124 100 137 126 100 137 127 101 139 128 55 103 185 56 103 184 54 102 183 55 102 182 55 101 181 55 102 180 55 101 179 56 100 178 56 98 177 58 97 177 60 95 176 60 93 175 60 94 172 62 93 170 63 91 168 64 90 167 65 92 166 66 91 164 69 91 163 73 91 162 74 92 160 75 92 159 75 93 157 75 95 155 74 96 153 74 96 150 73 99 147 72 101 145 72 103 144 72 103 142 70 105 137 69 106 135 69 107 132 69 109 129 69 110 127 69 113 126 70 117 124 72 121 124 75 124 124 77 126 123 79 128 123 82 130 122 87 131 122 90 133 122 93 135 121 96 135 122 98 136 122 100 137 125 100 138 127 102 140 127 56 103 185 55 104 183 55 103 183 54 102 182 54 102 181 54 101 179 54 101 178 55 100 177 56 99 176 57 98 175 59 96 174 60 94 174 59 94 172 60 94 170 61 93 168 63 91 167 64 92 164 66 92 163 70 92 161 73 90 161 74 90 158 74 90 156 75 91 154 75 92 152 74 93 149 73 93 146 72 95 143 73 97 141 73 99 140 72 102 138 71 103 135 69 105 132 70 106 130 69 107 128 70 110 126 70 113 125 70 117 122 72 119 120 74 122 121 78 125 121 80 127 122 84 130 120 88 131 121 91 132 120 94 135 120 97 136 121 100 137 122 102 139 123 102 139 124 104 142 125 57 103 184 55 103 183 55 103 181 54 103 180 53 102 179 53 102 178 53 101 176 54 101 176 55 99 176 57 98 175 58 97 173 58 94 172 59 93 171 59 94 169 60 94 167 62 93 165 65 92 162 66 93 161 70 92 159 72 91 158 73 90 156 74 88 154 76 88 151 76 90 149 74 91 145 73 91 142 72 92 139 72 94 139 72 96 136 73 98 133 71 101 132 71 103 129 71 106 127 71 107 126 72 110 124 71 114 122 71 117 120 72 118 119 74 121 120 78 125 120 81 128 120 85 130 120 89 133 119 92 135 119 95 137 119 98 138 120 100 140 120 102 141 121 104 140 123 107 143 124 57 105 180 56 103 181 55 103 179 53 103 178 52 103 177 53 103 177 53 102 175 55 102 176 56 100 176 56 99 174 57 96 173 58 93 172 59 93 169 59 93 168 61 94 166 63 93 164 65 93 162 67 93 160 69 93 158 72 92 156 74 91 153 75 90 151 76 89 148 76 89 146 75 90 142 74 89 139 73 90 137 72 93 134 71 94 131 72 96 129 72 99 128 72 102 126 72 105 125 72 108 124 72 112 123 72 115 120 72 117 117 73 120 117 76 122 117 79 124 117 81 127 117 85 130 118 89 134 118 92 137 118 96 139 119 99 140 119 101 140 119 103 140 120 106 141 120 108 144 120 57 105 176 57 104 177 56 104 177 54 104 178 54 104 177 54 104 176 54 104 176 56 102 176 56 101 174 56 98 172 57 96 171 58 94 170 59 94 169 60 94 167 61 93 164 63 93 163 67 93 162 68 94 159 69 93 155 72 93 153 74 91 150 75 89 147 76 89 145 77 90 142 77 90 139 76 90 137 74 89 133 72 92 129 72 93 128 73 95 127 73 99 125 72 102 124 72 105 122 73 109 122 73 113 120 73 115 118 74 117 116 75 119 116 78 121 114 80 125 115 83 127 116 86 131 117 89 134 117 94 137 118 97 139 119 100 140 118 103 139 118 105 140 118 108 142 118 110 145 118 57 106 176 58 106 176 57 105 176 55 104 177 54 104 177 56 104 177 56 103 177 57 102 175 56 101 174 56 98 171 57 96 170 58 94 169 59 94 168 61 94 165 63 94 164 66 93 162 68 92 159 70 92 157 70 92 153 72 92 151 74 92 146 75 90 144 76 90 142 78 90 139 78 90 137 76 90 134 74 91 129 73 92 126 72 92 125 73 94 124 73 98 123 73 102 121 74 105 120 75 108 118 75 112 118 75 115 117 77 117 116 79 119 116 81 123 115 82 125 114 85 127 115 88 130 116 92 134 117 95 137 117 99 139 118 102 140 118 104 139 117 107 140 118 108 143 117 111 145 117 58 107 175 59 107 175 58 106 175 56 105 176 55 103 176 56 103 176 56 101 176 56 101 175 57 100 173 57 98 170 59 97 168 60 96 166 60 95 165 63 95 163 65 95 162 67 94 159 68 91 156 70 91 153 71 91 150 72 91 146 75 91 143 75 91 140 76 91 138 78 91 135 78 90 133 77 90 131 76 92 127 75 92 124 74 92 122 74 94 121 73 97 119 74 102 118 76 105 116 77 108 115 78 111 114 78 113 114 79 117 115 82 120 115 84 123 115 85 125 115 87 127 114 90 130 115 93 132 116 97 136 117 100 137 118 103 138 118 106 140 117 108 142 117 110 144 116 112 146 114 58 107 174 58 106 173 57 106 173 57 106 174 56 105 174 56 104 174 56 102 173 55 101 173 55 100 170 57 99 167 59 98 165 61 98 163 62 97 161 64 95 159 65 95 157 67 94 155 69 92 152 70 91 149 71 91 146 74 91 142 76 93 140 76 93 137 77 92 134 78 92 131 80 92 129 80 92 126 79 94 125 77 94 122 77 94 119 76 95 118 75 98 117 76 101 116 77 104 114 78 108 113 80 111 112 80 114 112 82 118 113 84 121 115 87 123 116 89 124 115 92 126 116 94 129 116 95 133 117 98 135 117 102 136 118 105 138 118 107 140 117 108 143 116 110 144 115 113 147 112 58 108 173 58 107 172 58 107 170 57 107 171 57 106 171 56 105 171 55 103 171 54 101 170 55 100 168 56 99 166 59 99 163 61 99 160 62 97 159 64 96 156 66 95 154 67 95 151 69 93 148 70 93 145 73 93 141 75 94 138 76 93 135 77 93 133 78 92 130 80 93 127 81 94 126 80 94 125 80 95 123 80 94 120 78 95 116 78 96 115 78 98 114 78 101 113 78 104 112 78 108 112 80 111 112 82 114 111 84 118 112 87 121 114 90 123 116 93 125 117 96 126 117 96 129 117 98 133 117 101 136 116 104 137 118 106 139 118 108 140 115 110 143 115 112 146 113 114 148 111 59 109 170 59 107 169 59 107 167 58 108 167 57 106 168 55 105 167 55 103 167 55 101 167 55 101 167 56 100 165 59 100 162 61 99 158 63 99 156 64 98 154 66 96 152 67 95 147 70 94 144 72 95 140 74 94 136 76 94 134 77 95 132 78 94 130 80 93 127 81 94 125 81 94 124 82 96 123 82 96 121 82 95 118 80 96 114 79 97 113 78 98 111 78 101 110 78 104 111 79 107 111 80 110 112 82 114 112 86 118 112 89 121 113 93 123 115 95 124 115 98 126 115 98 130 117 101 134 116 104 136 116 105 137 116 108 139 116 110 140 113 111 143 112 112 146 111 114 148 109 58 109 167 58 108 166 58 107 165 58 107 165 57 107 164 56 105 164 56 103 163 55 102 164 55 102 165 56 101 163 58 100 161 61 99 157 63 100 153 64 99 151 66 98 147 69 97 143 72 96 140 75 95 135 76 96 131 78 95 129 79 95 127 80 95 126 81 95 124 81 96 123 83 96 122 83 97 120 82 98 118 81 97 115 80 97 111 78 97 109 78 99 109 78 101 109 79 104 110 80 107 111 82 110 111 85 114 111 89 119 111 92 121 111 95 123 114 98 124 114 99 128 114 100 131 115 103 133 114 105 135 113 107 136 114 109 138 113 111 141 113 112 144 111 114 146 108 115 147 106 58 109 165 58 109 163 58 108 162 57 107 162 55 107 162 56 106 161 57 105 161 57 104 160 56 102 160 57 102 159 59 100 157 61 98 154 62 99 150 64 99 147 67 98 142 70 98 138 75 97 134 76 96 131 79 96 127 80 96 124 82 96 122 81 97 121 81 96 121 82 97 119 83 97 119 83 98 117 82 99 115 80 99 112 79 99 109 79 99 108 78 101 107 79 103 107 80 105 107 82 108 108 83 111 109 86 115 109 91 119 109 94 121 109 97 122 111 99 125 113 100 128 113 101 130 113 103 133 112 106 135 110 108 137 111 110 138 112 112 142 111 113 146 110 115 147 107 116 147 105 59 110 161 58 109 159 58 108 159 57 108 158 56 108 158 56 107 158 56 106 157 57 105 156 58 103 155 59 101 154 60 101 153 62 100 150 64 99 147 65 99 143 68 98 138 72 98 133 76 98 129 78 97 126 81 96 123 83 96 119 85 97 117 83 98 117 83 97 118 83 98 116 83 98 114 83 98 113 82 101 111 81 102 108 80 102 106 80 102 106 79 102 106 80 104 105 81 106 105 83 109 106 85 112 107 89 115 106 92 119 107 95 120 106 96 123 109 98 125 110 100 127 112 102 129 111 103 131 109 105 135 108 107 136 108 109 139 109 112 142 109 114 145 108 116 147 106 117 148 104 59 111 159 58 109 157 58 109 155 59 110 155 58 108 154 58 108 154 58 107 153 60 106 152 61 104 151 61 102 150 63 102 148 63 100 145 64 100 141 66 100 138 69 100 134 74 99 128 78 99 124 81 98 120 83 96 117 85 96 115 86 97 113 86 98 113 86 98 113 85 99 112 85 99 111 84 100 110 83 102 108 83 102 107 82 103 105 81 104 104 81 105 103 81 106 103 83 108 103 84 110 102 88 113 102 91 117 103 93 119 104 95 122 104 96 124 106 97 125 109 99 127 110 102 130 109 104 132 107 106 134 106 108 137 106 110 138 105 113 142 107 114 145 105 115 148 103 116 150 104 61 110 156 60 110 155 59 110 154 60 110 153 60 109 152 60 109 151 61 108 150 61 107 149 61 104 148 62 103 145 63 102 143 64 99 139 65 100 136 67 101 133 71 101 130 76 100 124 80 99 119 82 97 115 85 97 112 85 97 110 87 98 108 87 100 108 87 100 108 87 100 107 87 101 108 86 101 106 85 102 105 85 103 105 84 104 103 84 104 102 83 105 102 83 106 102 85 108 100 88 112 99 88 115 99 90 117 100 92 119 101 94 121 103 95 124 105 96 126 107 99 128 106 101 130 107 104 133 105 106 135 104 107 136 103 109 138 103 111 141 103 111 144 101 114 147 100 116 150 102 61 109 154 60 108 153 61 109 152 60 110 151 62 110 149 61 108 147 61 108 146 61 108 145 62 105 143 64 103 140 65 102 137 65 100 135 66 100 132 69 102 128 73 102 125 77 102 120 81 100 116 84 98 112 85 98 108 87 100 106 88 101 105 89 100 105 89 101 104 88 102 103 88 102 104 88 102 103 87 102 102 86 102 102 86 103 101 86 104 99 86 104 98 86 105 99 89 107 97 89 111 96 90 115 96 91 117 97 93 119 99 94 122 100 94 124 102 96 127 104 98 129 104 100 132 105 103 134 103 104 136 102 105 137 101 108 139 100 109 141 100 110 144 98 112 147 99 116 149 100 63 108 151 63 109 150 63 109 149 63 110 149 64 109 147 63 107 144 62 107 142 62 108 140 63 106 137 64 104 134 65 103 131 66 101 129 68 101 126 72 101 122 75 102 118 78 103 115 81 101 111 84 100 107 86 99 104 88 101 102 89 101 102 89 101 102 90 103 100 89 103 100 89 103 99 89 102 99 89 102 98 88 102 98 87 103 97 87 104 96 89 105 95 90 106 95 91 107 93 91 110 93 92 114 93 93 118 94 95 120 96 94 123 98 94 124 99 96 126 101 98 129 103 100 131 103 102 135 102 102 137 100 105 138 99 107 140 98 108 141 97 109 144 96 112 147 98 116 149 98 66 109 148 65 109 147 65 109 146 65 110 145 65 108 143 65 107 142 64 107 139 65 107 136 65 106 132 66 104 129 67 104 127 68 102 123 69 101 121 72 101 118 75 102 113 79 103 110 82 103 106 85 101 103 88 101 101 88 102 99 89 103 99 89 103 98 90 103 97 89 103 97 89 104 96 88 104 95 88 104 94 88 103 93 88 103 92 88 103 92 90 104 91 91 105 91 92 108 91 93 111 90 94 114 90 95 118 91 95 121 93 95 122 96 95 124 98 97 127 99 99 128 101 101 131 101 102 134 100 102 136 99 104 139 96 106 140 96 108 142 95 110 144 95 113 147 96 116 148 97 68 109 146 67 110 144 67 109 143 67 109 142 68 108 140 67 106 138 67 106 136 68 105 133 67 106 129 68 105 126 69 104 124 69 103 120 71 101 116 74 102 113 77 103 109 80 103 105 85 103 101 87 103 99 88 104 97 89 104 97 89 104 95 90 104 95 89 104 95 90 104 94 90 103 92 89 104 91 88 105 90 89 104 89 90 102 89 90 103 88 91 104 86 93 106 86 94 107 87 95 111 87 97 114 87 97 117 88 97 120 91 95 122 93 95 124 96 97 126 98 100 128 98 102 129 98 104 132 97 104 135 95 105 138 93 106 139 93 108 140 93 110 142 94 112 146 94 116 148 95 69 109 144 69 109 142 70 109 141 70 107 139 69 106 137 68 105 135 68 105 133 68 105 129 69 105 125 70 105 123 71 103 120 71 103 118 74 102 115 77 102 110 80 103 105 83 104 102 85 104 99 88 104 95 89 104 94 90 104 94 90 103 93 91 104 93 92 104 92 91 103 91 91 104 90 89 104 88 89 105 86 89 104 85 89 104 85 91 105 84 92 105 82 93 106 82 94 109 83 95 111 83 97 113 84 98 115 84 97 117 86 95 120 91 95 123 93 96 125 95 100 127 94 103 129 95 105 131 93 105 134 92 105 135 91 106 137 91 108 139 92 110 141 93 112 145 93 115 149 93 71 107 142 72 107 140 72 108 138 71 107 137 70 106 136 69 105 133 70 105 129 71 105 126 71 105 122 72 103 120 73 102 118 73 103 116 76 102 113 79 101 108 82 102 103 84 104 101 86 105 97 87 105 94 89 103 91 91 102 90 91 102 90 92 102 89 93 103 90 93 102 89 92 103 87 91 104 85 91 104 83 90 105 83 91 105 82 92 106 81 92 107 80 93 107 80 95 109 80 96 111 80 98 113 80 98 114 81 97 116 84 95 119 88 95 122 90 97 124 91 100 127 92 102 128 92 104 130 92 105 132 90 105 133 89 108 135 89 110 137 89 111 140 91 113 144 92 115 147 92 74 105 139 74 106 137 74 107 135 73 105 134 72 105 133 72 104 131 72 105 127 73 105 122 74 104 119 74 102 117 74 102 115 75 102 113 78 101 111 81 101 107 85 102 102 87 104 99 88 105 97 90 105 94 91 104 91 93 102 88 93 101 87 93 101 87 94 101 87 94 102 86 93 103 84 92 104 81 92 106 80 92 106 80 92 107 80 94 108 79 94 108 78 94 109 77 97 110 77 98 111 78 98 112 78 98 113 80 96 115 82 96 118 85 96 120 87 97 122 89 99 126 89 101 127 90 104 128 89 107 131 88 107 132 88 110 134 88 112 136 88 112 139 90 113 143 90 114 146 90 75 105 136 76 106 134 76 106 132 75 104 130 74 104 130 73 105 127 73 104 124 74 105 119 74 104 115 75 103 114 76 102 112 77 102 111 81 101 108 84 100 105 87 102 102 88 104 99 90 105 96 92 104 93 94 103 91 97 103 88 96 102 85 96 101 84 96 101 84 95 103 83 95 105 80 94 106 78 93 108 76 92 108 77 93 108 77 94 109 77 95 110 76 96 110 76 98 111 76 98 112 76 98 112 76 98 113 78 97 115 80 98 116 82 99 119 84 100 121 85 100 124 87 102 126 86 103 128 87 105 130 87 107 131 88 111 133 86 113 137 86 114 140 86 113 143 87 115 146 87 77 105 134 78 105 132 77 105 130 76 104 127 75 105 126 76 105 123 75 105 120 76 106 115 76 105 112 77 104 110 78 102 109 79 102 108 83 102 105 86 102 102 88 102 100 89 102 96 91 103 94 94 104 91 96 104 89 97 104 87 98 103 83 99 102 81 98 103 81 97 104 79 97 105 76 96 106 74 94 108 73 93 108 74 94 109 74 95 110 75 96 110 75 98 110 75 98 111 74 98 112 73 98 112 74 100 113 76 99 114 78 100 114 80 100 117 81 101 119 82 102 122 83 102 125 83 103 127 85 105 129 86 109 130 86 113 133 84 114 137 84 114 140 84 114 143 84 116 146 85 80 103 131 79 103 129 78 103 127 78 103 125 77 104 122 78 105 120 76 105 116 77 106 112 77 105 110 79 105 108 80 103 106 81 103 105 85 103 103 88 103 100 91 102 97 91 102 94 93 103 91 95 104 88 97 104 87 98 104 84 99 104 82 99 104 80 100 104 77 100 104 75 99 104 72 98 106 70 97 108 70 96 109 70 96 110 71 96 111 72 96 111 74 98 110 73 98 110 72 98 111 71 98 113 72 100 114 74 100 115 77 101 116 78 102 118 80 103 119 80 103 121 82 103 124 83 104 127 84 106 129 84 110 131 84 113 133 83 115 136 82 115 138 82 116 142 83 118 144 83 81 101 129 80 101 126 80 101 124 80 101 123 80 103 120 79 104 116 78 105 113 78 107 110 79 106 107 80 106 105 82 105 103 84 104 102 88 105 99 90 104 98 93 103 95 94 102 91 95 104 88 96 104 86 97 105 85 99 105 82 99 106 79 101 106 77 101 105 73 101 104 71 100 104 69 100 106 69 98 107 68 97 109 68 97 109 68 98 110 70 98 111 72 98 111 72 99 110 71 99 112 70 99 113 71 100 114 73 100 116 76 101 117 79 102 118 79 103 119 79 103 121 81 105 124 82 105 127 83 108 129 84 110 131 84 113 133 82 116 136 81 116 138 81 117 140 82 120 142 82 82 99 127 82 99 124 82 100 121 82 101 120 82 102 117 80 103 114 79 104 111 80 105 107 81 106 105 82 106 103 84 106 101 87 106 99 91 105 98 93 104 96 95 104 94 95 103 91 96 104 86 96 104 84 97 104 82 98 105 78 100 106 76 102 107 73 103 106 70 103 105 69 102 105 68 101 105 67 99 107 66 97 107 66 98 109 67 99 109 69 100 110 70 99 109 71 100 109 70 99 112 70 100 113 72 101 114 74 101 115 77 101 115 78 102 117 79 102 118 79 103 121 80 105 124 82 106 126 83 107 127 83 111 130 83 114 133 82 116 136 82 117 137 82 118 140 82 120 143 82 83 98 124 84 98 121 84 99 119 84 100 116 84 101 114 82 101 110 81 102 108 81 103 104 82 105 102 85 105 101 88 106 100 91 106 97 94 106 96 97 104 94 97 103 92 98 103 89 98 104 85 98 104 81 99 104 78 101 104 76 103 105 74 105 106 72 105 105 69 105 104 68 104 104 67 103 105 65 101 106 65 100 106 65 100 107 66 102 108 69 101 108 71 100 108 71 101 109 70 101 110 70 101 112 73 101 114 74 103 114 76 104 113 78 104 115 79 103 117 78 104 121 79 106 123 81 105 125 81 107 128 81 111 130 82 113 133 82 116 136 83 118 137 81 120 140 82 120 142 81 83 96 121 85 97 120 85 98 118 85 99 115 84 99 112 83 100 109 83 101 106 83 102 102 85 104 101 87 104 100 91 105 97 93 106 96 97 105 94 99 104 93 100 103 90 100 103 88 101 103 84 101 104 80 101 104 77 103 103 75 105 105 74 105 105 71 105 105 68 106 105 67 106 105 66 104 105 65 102 106 65 102 106 65 103 105 66 104 105 69 104 105 71 102 107 71 103 108 70 102 109 71 103 111 72 104 111 73 104 112 75 105 112 76 106 113 78 106 117 78 106 120 79 106 123 81 107 125 80 108 128 80 109 129 81 112 133 82 114 136 81 117 137 80 119 139 81 119 143 80 84 94 120 85 96 117 85 97 115 86 97 113 85 99 111 84 100 108 85 100 105 86 102 101 88 103 100 90 104 98 93 104 96 95 104 95 98 105 93 100 104 90 101 102 87 102 104 85 102 105 82 102 105 79 101 105 76 103 104 74 105 105 73 105 105 70 106 105 68 107 104 66 106 105 66 106 104 65 105 104 65 105 105 65 105 105 66 106 104 69 106 105 70 104 107 70 105 107 70 105 107 71 105 108 71 105 109 72 105 110 73 107 111 75 107 113 77 106 116 79 106 120 80 106 123 79 107 126 79 107 128 79 109 131 81 111 133 81 114 135 79 116 138 78 119 140 79 119 142 80 84 92 117 84 94 114 85 95 112 85 97 112 86 99 110 86 100 107 86 102 104 88 103 101 90 103 100 91 102 97 93 103 95 96 102 93 99 102 91 102 103 89 103 102 85 105 103 83 103 105 80 103 105 77 104 106 73 106 106 72 107 104 71 106 104 70 106 104 68 107 104 66 107 103 66 108 102 66 108 102 65 108 102 65 108 103 67 107 104 70 108 104 71 108 105 71 107 105 70 108 105 71 107 107 71 107 108 72 107 108 74 108 109 75 108 112 77 107 116 78 107 120 79 107 123 79 106 127 80 107 130 80 109 132 80 111 133 80 114 135 77 117 138 78 119 140 78 120 142 78 84 92 115 83 95 113 84 96 111 85 97 111 86 98 108 87 99 106 88 101 103 89 101 100 91 102 99 94 102 97 96 101 95 98 101 93 101 101 91 104 101 88 106 100 85 107 102 83 106 102 79 105 103 76 106 104 73 107 104 71 108 103 70 108 103 69 109 103 67 108 103 66 109 102 65 108 102 66 110 101 66 110 100 66 109 100 69 109 101 70 110 102 71 110 103 71 111 104 71 110 104 71 109 106 71 110 107 72 110 107 73 110 109 75 110 112 76 110 115 76 108 119 77 108 123 79 108 127 80 109 130 80 111 131 79 111 133 79 114 135 78 117 137 78 119 139 78 120 143 77 82 92 114 82 94 112 83 95 110 85 96 109 86 97 106 89 98 104 90 99 102 92 100 100 93 101 98 96 100 96 99 99 93 100 99 91 102 99 90 105 99 87 108 98 85 109 98 82 109 99 79 109 100 76 110 102 73 110 102 71 110 102 70 110 102 69 110 102 67 110 102 66 111 101 64 111 100 65 111 100 66 111 99 67 112 98 70 112 99 71 112 100 72 113 101 72 113 103 72 112 103 72 110 104 72 112 105 72 113 107 72 112 109 74 111 112 75 111 115 76 109 117 77 109 122 78 110 127 80 111 130 81 112 131 79 112 133 79 114 136 79 117 138 78 119 141 78 121 143 77 81 91 115 81 92 113 83 93 110 86 93 107 88 94 105 90 96 103 92 98 101 94 98 100 96 99 97 98 98 95 100 99 91 102 98 90 104 97 89 106 96 86 108 96 84 110 96 82 111 97 79 111 97 76 111 98 74 111 99 71 111 100 70 112 100 69 112 100 67 112 99 66 112 99 65 112 99 64 112 98 66 113 97 69 114 96 70 115 97 72 115 98 72 115 98 72 114 100 74 113 102 74 113 103 74 114 104 74 115 105 74 114 107 75 113 110 75 114 114 77 112 117 78 112 122 78 113 126 81 113 128 82 113 130 80 115 131 80 116 135 79 119 139 78 121 141 77 122 142 76 80 88 114 81 89 112 83 90 109 86 91 107 89 92 105 92 94 103 94 96 100 97 97 99 99 97 96 101 98 93 103 98 91 105 96 90 105 95 88 107 95 84 109 95 83 111 94 80 112 94 77 112 95 75 111 95 72 112 96 71 113 97 69 114 97 69 115 98 67 114 97 66 114 97 65 114 98 65 114 97 65 116 96 68 117 96 70 117 95 72 117 96 73 117 96 73 118 98 74 117 100 74 117 101 75 117 101 75 117 103 75 117 105 76 116 109 76 116 113 78 115 116 79 115 121 80 115 125 82 116 128 82 116 129 81 117 131 79 119 133 79 120 137 77 122 140 76 123 143 74 82 86 113 82 86 111 83 86 110 86 88 108 89 89 106 93 91 103 95 93 101 97 94 98 100 95 94 102 96 93 104 96 91 106 94 89 106 93 87 108 93 84 110 93 82 112 94 79 114 93 76 114 94 75 113 94 72 113 94 71 114 94 70 116 94 68 116 96 67 115 95 67 115 94 66 115 95 65 116 95 66 118 95 68 119 96 70 119 94 72 119 95 72 118 97 73 119 98 74 119 99 74 119 100 75 118 99 74 119 102 75 120 105 76 119 109 77 118 112 77 119 116 78 118 120 79 119 124 81 120 127 81 120 129 79 120 132 77 121 134 77 121 137 76 122 142 76 124 145 76 84 84 113 84 84 111 85 83 109 87 84 107 90 86 104 94 89 102 95 91 99 98 91 96 100 93 93 102 93 91 104 94 90 105 94 88 107 92 85 109 92 83 111 93 81 113 92 78 115 91 76 115 92 74 114 92 72 114 93 71 116 93 70 117 93 68 117 93 68 117 93 67 116 93 66 117 94 66 117 95 66 119 95 68 121 94 70 121 93 71 120 94 71 120 95 71 121 96 73 121 98 74 121 98 74 121 98 75 121 100 75 121 104 76 121 108 76 121 112 77 120 115 78 120 119 79 122 123 80 123 127 79 123 129 77 123 132 76 124 136 76 123 139 76 123 142 76 124 145 76 86 83 111 86 84 109 87 82 108 88 81 104 90 83 102 92 85 99 94 88 95 98 88 94 101 89 91 102 90 91 105 92 89 105 93 87 107 92 84 109 92 83 111 93 80 113 93 76 115 92 75 115 90 73 115 91 71 116 92 71 117 93 70 117 92 68 118 92 68 118 91 67 118 91 67 119 93 67 120 95 67 120 94 69 122 93 69 122 93 69 121 93 70 122 94 70 123 95 72 124 96 73 123 95 74 123 97 75 123 100 77 122 104 78 122 107 77 122 110 78 123 112 77 123 117 78 124 122 77 125 126 77 125 129 76 126 132 76 126 136 76 126 140 77 125 142 77 126 146 77 87 82 109 87 82 107 88 81 105 88 80 102 90 81 99 92 82 96 94 84 94 98 86 93 101 86 92 103 87 90 105 89 89 106 91 86 107 91 83 109 92 81 111 91 78 113 92 75 115 91 74 116 90 72 118 89 72 118 90 72 119 91 70 118 91 69 118 91 69 118 90 69 119 90 67 120 91 67 122 92 68 123 92 69 123 91 68 122 91 68 122 91 69 122 92 70 124 93 72 124 94 73 124 94 74 124 97 76 124 99 77 123 102 78 123 106 78 123 108 78 123 111 79 125 115 77 126 119 76 126 124 75 126 129 75 127 132 77 128 136 77 128 140 78 127 143 78 127 146 77 88 81 107 89 81 104 88 80 103 89 81 101 90 81 98 91 81 95 93 83 93 96 83 93 99 84 91 102 86 90 105 89 89 107 90 86 108 90 82 109 90 79 112 90 76 113 89 75 116 88 74 118 89 73 118 88 73 118 88 73 119 89 71 118 89 70 118 90 70 118 89 70 120 88 69 121 89 69 122 90 68 123 90 68 123 90 68 123 89 68 123 89 70 123 89 71 124 91 73 124 93 74 124 94 74 125 96 76 126 98 77 125 100 78 125 104 78 124 107 78 125 110 77 125 114 76 126 117 75 128 122 75 128 127 76 128 132 76 130 136 77 129 138 77 129 141 77 128 145 77 90 79 106 90 79 103 88 79 102 89 80 101 91 80 98 91 81 96 93 81 93 95 81 92 98 82 91 101 85 89 105 88 89 107 89 85 108 89 81 110 89 78 112 88 76 114 88 75 115 87 75 118 88 75 119 88 75 119 88 73 120 88 71 119 88 70 117 89 71 118 89 71 120 88 70 121 88 70 122 87 69 123 87 69 123 88 69 122 87 70 122 87 70 123 87 72 123 89 73 123 90 73 124 92 73 126 95 74 125 97 75 125 99 76 125 101 77 125 105 76 125 109 76 125 113 75 126 115 74 127 119 75 128 123 75 129 128 75 130 132 76 131 135 76 131 139 76 130 144 76 92 76 105 91 77 103 89 77 102 89 78 100 91 79 98 92 80 96 95 80 92 96 79 91 98 81 91 100 82 88 104 85 86 109 87 83 109 87 81 111 87 79 113 87 77 116 86 76 117 87 75 118 88 75 119 88 74 120 88 74 120 87 72 120 87 70 119 87 71 118 86 72 119 86 71 120 86 70 121 85 69 122 85 70 123 85 69 124 86 69 123 85 70 123 86 71 123 87 72 124 89 74 125 90 73 125 93 74 125 94 74 125 97 74 126 100 74 126 103 75 125 107 76 125 110 76 126 112 74 128 116 74 129 120 74 129 125 74 130 129 74 131 133 74 132 138 75 132 143 75 91 74 104 91 75 103 91 76 102 91 76 101 92 77 96 95 78 93 97 79 90 97 79 89 99 80 89 102 81 86 104 83 83 108 84 80 110 84 79 113 85 78 115 86 77 117 86 76 118 87 76 118 87 74 118 87 74 119 87 73 119 87 73 119 86 71 120 85 72 119 84 72 120 84 71 121 84 71 121 84 71 122 84 70 124 84 69 124 84 69 125 84 69 125 85 70 125 86 71 125 88 72 125 89 74 126 91 74 126 93 73 127 95 73 127 98 73 126 101 74 125 105 76 125 109 76 127 111 75 129 115 75 129 119 74 129 123 72 130 126 73 131 131 73 133 136 73 133 140 73 91 73 102 91 74 101 92 74 100 93 75 98 95 75 95 96 77 92 98 77 89 99 78 88 101 79 86 103 80 85 105 80 82 107 81 79 110 82 78 113 82 77 115 84 77 116 86 76 117 86 74 117 86 73 118 87 73 117 86 73 119 85 72 120 84 72 120 82 72 119 81 72 120 83 72 121 83 72 121 82 72 122 82 70 124 82 68 124 82 68 126 83 69 126 84 70 126 85 71 126 86 73 127 88 74 126 90 74 127 91 72 128 94 71 127 98 72 125 100 74 125 104 75 126 107 75 127 110 75 128 113 74 129 117 73 129 122 71 129 125 72 130 129 71 133 134 72 134 137 73 92 72 100 93 73 100 93 73 99 95 74 97 96 74 94 98 76 91 99 78 89 100 77 87 102 76 85 104 77 83 105 78 81 107 78 79 110 78 77 113 79 77 115 81 76 116 83 76 117 85 74 117 85 75 117 84 74 117 83 73 120 81 74 120 80 74 120 80 73 120 80 74 120 80 73 121 80 73 121 80 72 121 80 70 123 80 69 124 81 69 125 82 70 126 82 71 127 83 71 128 85 72 129 87 72 128 89 72 129 91 71 128 93 71 128 97 70 127 100 71 127 102 73 127 105 73 127 109 73 128 112 73 129 116 73 129 120 71 131 123 70 132 127 70 133 132 70 133 137 72 93 70 100 93 71 98 93 72 96 95 73 94 96 73 93 98 75 91 99 77 89 101 76 86 104 75 84 105 75 82 106 73 80 108 74 78 110 75 77 112 76 76 114 79 75 115 81 75 117 82 75 117 81 75 117 81 75 117 81 74 119 79 76 120 78 75 119 79 75 120 79 76 120 79 75 119 79 74 119 78 73 121 78 71 122 80 70 123 81 71 125 81 72 126 81 72 128 83 71 128 85 71 129 87 71 130 88 70 129 90 70 128 93 69 128 96 70 129 99 69 129 101 70 129 103 71 129 107 72 129 111 71 130 114 70 130 118 70 132 121 69 134 125 69 135 131 69 134 135 71 93 69 98 93 70 97 94 71 94 95 72 94 97 74 94 98 75 91 99 76 88 101 75 85 103 74 84 105 72 82 107 72 80 108 73 78 111 74 76 113 75 75 115 77 74 115 79 74 116 80 74 117 80 75 117 79 76 117 79 76 117 78 77 119 78 77 119 77 77 119 76 76 119 77 75 119 77 74 119 76 73 121 76 72 122 78 71 123 79 72 124 80 72 125 80 73 127 82 72 127 84 70 128 86 70 128 88 69 128 90 68 129 92 67 130 95 67 130 98 66 130 99 67 130 101 68 130 104 69 129 106 68 131 109 68 131 115 68 132 120 68 133 124 68 135 129 69 135 133 69 95 67 100 95 69 98 96 70 95 96 72 94 97 74 92 99 75 90 100 75 88 103 74 87 105 73 83 105 72 82 107 71 80 109 71 78 111 72 76 113 73 75 114 75 73 115 76 73 115 77 73 116 77 75 116 77 76 116 77 77 116 77 77 117 77 77 117 77 76 117 76 75 117 76 73 117 76 73 119 76 73 121 75 73 122 77 72 123 79 72 124 80 72 125 81 72 127 82 71 127 83 70 127 86 70 127 88 70 127 90 68 128 92 67 128 94 65 129 97 64 129 99 64 131 100 65 131 101 66 131 103 66 132 105 67 133 111 67 133 116 67 134 123 67 136 127 68 137 130 67 97 68 102 97 69 99 97 70 95 97 72 92 98 74 91 100 74 90 100 74 89 104 72 87 106 72 84 107 70 82 108 70 80 110 70 78 111 70 77 111 71 75 112 73 73 113 73 72 114 74 73 114 74 75 115 75 76 115 76 77 116 77 78 116 77 77 116 76 76 116 76 74 116 76 73 117 76 73 119 76 73 122 75 73 124 76 73 124 77 73 125 78 73 125 79 71 126 80 70 127 83 69 127 85 68 126 87 68 127 89 66 128 90 64 127 92 63 128 95 61 129 98 61 131 98 63 132 99 64 133 101 63 134 104 64 135 108 65 135 115 65 136 120 65 137 125 65 138 128 65 