P3
50 50
255
118 173 90 120 174 90 125 174 90 128 176 91 130 177 92 132 176 94 134 177 94 135 177 93 135 178 94 136 177 95 136 178 97 136 179 98 136 181 99 138 182 98 138 182 99 136 181 100 135 182 103 133 183 104 131 184 104 129 184 105 129 186 104 129 186 104 129 188 105 131 189 107 133 189 108 134 189 109 134 190 110 134 190 110 135 189 111 138 187 111 140 185 110 141 183 108 142 181 107 143 179 109 145 177 110 147 178 112 148 181 114 149 183 116 150 184 119 149 183 119 148 184 121 149 186 123 150 187 126 150 187 127 152 186 129 154 185 129 154 185 129 155 185 130 154 186 130 153 186 131 119 171 90 122 171 90 126 173 89 129 175 90 133 175 91 135 176 92 136 177 93 138 177 94 138 177 95 138 177 95 138 177 96 137 177 99 139 178 99 140 179 99 139 179 99 138 179 101 136 179 102 134 181 102 132 183 103 130 183 104 128 183 104 129 185 105 129 186 106 130 187 108 132 187 109 133 187 109 132 188 110 132 189 110 133 188 111 137 186 111 140 184 109 141 182 107 142 180 108 144 178 110 146 178 112 147 178 112 148 179 114 149 181 115 150 183 117 150 183 119 150 184 122 151 187 124 151 188 127 151 187 128 152 187 129 153 186 129 154 186 129 156 186 128 156 186 129 155 186 129 120 170 90 124 170 90 127 172 88 130 175 90 135 176 91 137 176 91 138 177 92 138 176 93 140 176 94 139 176 95 139 176 95 139 175 98 141 175 99 141 176 100 139 177 99 138 177 100 137 178 100 135 179 100 133 182 101 131 183 101 129 182 102 128 184 104 128 184 106 130 183 107 131 184 108 132 185 109 130 187 109 131 186 109 132 186 110 136 184 109 139 182 108 141 180 108 143 178 109 145 176 111 146 176 111 147 178 111 147 179 113 148 181 115 148 183 117 149 184 120 151 185 122 151 187 126 152 187 128 153 187 129 153 186 129 154 185 129 156 186 129 158 186 129 158 186 128 157 185 128 122 168 90 124 170 90 128 172 88 131 174 90 136 174 90 138 175 91 139 175 91 139 174 93 141 174 94 141 174 94 140 174 94 142 172 96 143 172 98 141 174 98 140 175 98 139 176 98 138 178 98 137 179 98 136 181 98 133 182 99 131 180 100 129 182 102 129 183 104 131 182 106 130 183 107 129 184 107 129 184 109 130 184 109 132 184 109 135 183 109 140 181 109 141 179 109 143 178 110 145 176 112 146 175 113 148 176 113 148 179 113 148 181 115 147 184 118 149 186 121 150 187 123 152 186 126 152 186 127 153 185 129 154 186 130 156 184 130 158 184 129 160 185 128 161 186 127 160 185 128 124 167 88 127 169 88 130 171 89 133 172 90 137 172 91 138 173 91 139 173 91 140 173 93 142 173 93 142 172 93 142 171 93 143 169 94 143 170 96 141 172 97 139 174 97 139 175 97 138 177 97 139 178 97 138 180 98 136 180 99 133 179 100 132 180 101 131 181 104 130 182 106 129 183 107 128 183 108 128 182 108 130 182 109 133 182 109 136 182 110 140 180 111 143 178 110 144 177 111 146 176 112 147 176 113 148 176 113 148 178 114 148 183 115 147 185 118 147 187 122 149 186 124 151 185 125 153 185 127 154 184 128 155 185 130 157 185 130 160 186 128 160 185 127 161 185 127 162 186 127 126 167 88 129 168 88 132 170 89 135 170 90 135 171 91 137 172 92 140 172 92 141 172 93 143 171 93 144 169 92 143 169 93 143 169 93 143 169 95 141 171 97 139 173 96 138 175 96 137 177 96 138 178 97 138 179 98 137 178 99 135 179 100 134 179 101 132 180 103 130 182 106 130 182 109 129 182 110 129 181 109 131 181 108 133 181 109 137 181 111 139 180 112 142 178 112 144 177 112 146 176 112 148 176 113 147 177 113 146 180 114 146 184 115 146 186 118 146 187 121 148 187 124 151 186 125 153 185 128 155 184 128 156 184 129 158 185 130 160 185 128 161 184 126 162 184 127 163 184 127 128 166 89 131 167 89 133 169 90 135 168 91 136 168 92 137 168 92 140 169 93 143 169 94 145 169 94 145 167 93 143 167 94 143 168 94 143 168 95 141 170 96 139 172 96 138 173 96 138 174 96 138 176 96 138 177 98 138 177 99 137 177 99 135 179 101 133 180 103 131 181 107 131 182 110 130 181 110 129 182 109 131 181 109 133 180 110 136 179 111 139 178 112 140 178 113 143 177 112 144 177 111 145 177 113 146 179 114 145 181 115 144 184 116 145 186 118 145 185 120 148 185 123 150 186 125 152 185 127 153 183 129 155 184 129 157 183 129 160 184 127 161 183 125 163 182 126 164 181 126 129 164 89 131 165 89 135 166 90 136 166 92 137 165 92 138 165 93 140 165 94 143 167 95 144 166 95 145 165 95 144 166 96 143 167 96 142 168 96 141 169 95 139 170 96 138 172 95 138 173 96 138 175 97 139 177 98 139 177 99 139 176 99 137 178 101 135 179 104 134 179 108 132 181 110 130 182 111 130 182 110 132 181 110 134 179 110 135 177 111 137 176 112 139 176 112 141 177 112 143 177 112 144 177 112 147 180 113 146 181 114 145 183 115 146 185 117 147 185 119 148 184 121 149 185 125 151 184 126 152 183 126 154 184 126 157 183 127 158 182 125 160 181 124 163 179 125 165 178 125 129 162 89 132 162 89 135 163 90 136 164 91 137 163 92 139 163 93 140 163 94 143 163 94 144 164 94 145 164 95 145 165 96 144 166 97 143 166 97 141 166 96 139 168 95 139 170 96 138 172 97 139 173 98 139 175 99 140 175 99 140 175 100 140 175 102 140 176 105 137 177 108 135 178 111 133 179 111 133 179 110 133 179 111 135 178 111 135 176 111 136 175 111 138 175 111 140 175 112 143 176 112 144 177 111 146 178 113 144 179 114 145 182 114 147 184 116 148 184 119 149 184 122 149 184 124 149 183 125 151 183 125 153 182 126 156 181 126 158 180 125 161 178 124 164 177 124 165 175 125 129 159 88 132 158 89 134 160 90 137 162 90 138 162 91 141 162 92 142 162 93 144 162 94 144 162 94 145 163 95 146 163 96 144 163 96 144 163 97 142 164 96 140 166 96 139 168 97 138 170 98 139 171 99 140 172 99 140 172 100 141 173 101 142 174 104 141 174 106 140 174 109 139 175 111 136 176 110 136 177 111 135 178 111 136 178 111 136 176 111 136 174 112 138 174 113 140 174 112 143 174 112 144 175 112 145 176 112 145 178 113 147 180 113 147 181 116 148 181 119 149 183 121 149 183 123 149 182 126 151 180 126 154 180 125 157 178 125 159 176 125 161 175 125 163 173 125 164 172 124 129 156 88 131 157 88 133 158 89 136 159 90 140 161 91 142 162 92 143 162 93 144 162 93 144 163 94 146 163 94 145 163 95 144 162 95 143 162 96 141 162 97 140 163 97 139 166 98 139 168 98 140 168 98 140 169 99 141 170 101 142 172 102 142 173 103 143 173 106 142 174 108 141 174 110 138 174 111 137 176 110 137 177 110 136 177 110 136 178 109 137 176 111 138 175 111 140 174 112 142 173 112 142 174 113 144 175 113 146 177 114 147 178 115 147 179 117 147 180 118 149 180 120 149 181 123 150 181 125 151 180 125 153 178 125 155 177 124 157 175 124 160 173 125 163 170 125 164 169 125 129 155 89 130 155 88 133 156 89 137 156 90 140 159 91 142 161 92 144 162 93 145 163 94 146 163 93 145 162 94 144 162 94 143 161 95 143 162 95 141 162 97 139 163 97 139 165 97 139 165 98 140 166 98 141 166 98 142 168 100 143 171 102 143 172 104 143 171 106 142 172 108 141 173 110 138 173 110 137 174 109 137 175 109 136 176 109 137 176 108 137 175 109 138 174 111 140 173 112 141 173 112 141 174 113 144 175 114 146 175 115 147 177 117 147 177 118 147 178 119 148 179 120 150 180 123 150 179 124 151 179 125 153 177 125 154 176 124 156 174 123 159 170 124 161 169 125 163 168 125 130 152 89 131 153 88 134 154 88 136 155 89 139 157 91 141 159 92 143 161 93 145 162 93 145 162 94 144 161 94 143 162 94 143 163 95 143 164 96 141 163 97 140 162 97 139 163 96 139 163 97 141 164 98 141 165 98 142 167 99 143 168 102 143 169 104 143 169 106 142 170 108 141 171 109 140 171 110 138 171 109 138 173 109 137 174 109 137 174 108 138 173 109 138 174 111 139 172 113 141 173 113 141 173 114 143 174 115 146 174 117 146 175 118 146 175 120 147 174 121 148 176 122 149 177 124 149 178 125 150 178 126 151 176 126 153 175 124 154 172 123 157 170 123 159 168 124 161 167 123 130 151 87 131 151 87 134 152 89 136 154 90 137 154 91 140 156 92 142 158 92 143 160 93 143 160 93 142 161 94 142 162 95 142 162 96 142 162 96 141 161 97 141 161 97 140 162 97 140 162 98 141 164 98 142 165 99 141 165 100 141 166 101 141 167 105 142 167 107 142 167 108 142 168 108 140 168 109 138 169 108 138 170 108 138 171 108 138 170 109 138 171 110 138 172 112 139 171 113 140 171 114 141 171 116 143 171 116 145 171 118 146 171 119 145 171 121 146 171 122 147 173 124 148 175 125 148 175 126 149 176 127 151 175 127 153 174 125 154 170 124 156 168 123 158 166 123 161 165 122 131 149 88 133 149 88 135 151 90 136 152 91 136 152 92 138 154 92 140 155 92 141 156 93 142 157 94 142 159 95 142 159 97 142 161 98 142 160 99 143 160 100 142 160 99 142 161 98 142 162 99 142 163 99 141 164 99 141 163 100 140 164 102 140 165 104 141 165 106 141 165 106 142 165 106 141 165 108 139 167 108 138 167 107 138 168 109 138 168 111 138 169 112 139 170 113 139 169 115 139 168 117 141 167 118 143 167 119 145 167 120 145 167 120 145 167 122 146 169 124 146 170 124 147 172 125 147 172 127 149 173 127 151 173 127 154 172 126 154 168 125 155 165 125 158 165 124 161 163 123 133 147 89 134 147 89 135 149 89 136 149 91 136 149 92 137 150 92 138 152 93 140 153 94 142 154 95 142 155 96 142 156 99 142 157 100 143 158 100 143 157 101 143 157 101 143 157 100 144 158 100 143 160 101 141 161 101 141 161 101 141 161 102 140 162 104 139 162 106 140 162 106 140 163 106 139 164 107 139 165 108 139 165 108 138 166 110 138 167 112 137 167 113 138 167 115 138 167 117 139 165 118 141 164 120 143 163 120 143 164 120 143 164 121 144 165 123 145 166 124 146 169 125 146 170 126 147 171 127 149 171 127 151 171 127 153 170 127 155 167 127 156 165 126 158 164 124 160 163 123 133 145 89 134 147 90 135 148 91 135 149 92 135 148 93 136 147 93 138 149 94 141 150 95 142 151 97 142 151 98 142 153 101 143 154 102 142 155 102 144 153 102 144 152 102 144 153 101 143 154 101 143 156 103 141 157 104 141 157 104 140 157 105 139 158 104 138 159 105 138 159 105 139 161 105 138 162 107 138 163 108 139 163 109 138 164 110 137 165 113 137 165 115 137 165 116 138 164 118 139 163 120 140 162 121 142 160 122 142 161 122 144 163 123 144 163 124 143 165 124 143 167 125 145 169 127 146 170 127 148 169 128 149 168 128 152 167 128 154 166 129 155 164 127 157 164 125 159 163 123 133 142 92 134 145 93 134 147 94 135 147 95 135 147 96 136 146 96 139 145 97 140 146 98 141 146 100 141 148 100 143 150 102 143 151 102 143 152 103 144 150 103 144 148 103 143 148 103 143 150 103 142 151 103 142 152 105 141 152 106 140 153 106 139 154 105 137 155 105 138 156 105 138 157 106 137 158 107 138 160 109 137 161 110 137 162 113 137 163 116 137 163 117 137 164 119 138 162 120 140 161 122 141 160 124 142 157 124 143 157 123 144 159 124 144 160 125 142 162 125 143 164 126 144 166 127 145 167 128 147 167 128 147 166 128 149 165 129 151 165 129 153 163 127 154 163 126 157 162 126 133 141 95 133 142 96 134 143 96 135 143 98 135 143 99 137 143 99 139 142 99 140 141 100 142 142 101 143 144 102 144 147 103 145 149 103 145 148 104 144 147 105 145 146 104 144 145 104 143 146 103 143 147 104 142 148 104 143 148 105 141 149 106 140 151 105 138 153 105 138 154 106 138 154 107 137 155 109 137 157 110 137 159 112 137 158 114 138 159 116 137 160 118 137 161 120 139 159 122 141 158 124 142 156 123 143 155 123 143 155 123 144 157 123 144 158 125 143 159 126 143 160 126 144 162 127 145 162 128 146 163 129 146 162 129 147 163 129 149 163 129 152 162 129 154 163 128 155 162 128 133 140 98 134 141 99 134 140 100 136 139 101 136 139 101 138 138 101 140 138 100 140 138 100 142 140 102 144 142 102 146 144 104 146 145 105 145 146 105 145 145 106 146 144 105 145 143 105 144 143 104 144 144 104 144 145 104 143 145 105 142 146 106 140 149 106 139 150 106 138 150 107 136 152 107 135 152 109 135 154 111 136 154 114 136 155 114 136 156 116 136 157 119 138 157 121 139 156 123 141 155 123 142 154 123 142 154 124 143 154 124 143 154 124 143 156 124 142 156 125 143 157 126 144 158 127 144 158 128 146 160 129 146 160 129 146 159 130 148 160 130 150 161 129 152 162 128 154 161 128 133 137 101 135 137 102 135 137 102 135 135 103 137 135 102 138 134 101 140 134 101 141 135 100 144 137 100 145 139 102 146 140 103 147 142 104 146 141 104 145 141 105 146 142 105 146 141 105 146 141 105 145 141 104 144 140 104 143 142 105 142 143 105 141 146 106 139 147 106 139 147 107 137 147 108 136 148 111 134 149 112 135 150 114 136 151 115 137 153 118 138 153 119 138 152 121 140 151 122 141 152 124 142 152 125 143 152 124 144 152 124 144 152 124 143 153 123 142 153 124 142 154 125 144 154 128 145 156 128 147 157 129 147 157 130 146 157 130 147 158 130 148 159 129 150 160 129 152 160 128 133 134 101 135 134 102 136 134 103 137 132 103 138 131 102 139 130 102 139 131 102 141 133 101 143 135 101 144 136 101 144 138 102 146 137 103 146 137 103 145 138 103 145 138 103 146 139 104 146 139 105 146 138 104 144 137 104 144 138 105 143 139 106 141 142 106 141 144 106 140 144 107 138 144 108 136 144 111 135 144 112 135 146 114 135 147 115 138 148 118 139 149 119 140 149 120 141 148 121 141 149 123 142 149 124 143 149 124 144 150 124 143 150 123 143 150 124 143 150 123 143 151 124 144 152 127 146 154 128 147 155 129 147 155 129 146 155 129 148 156 129 149 157 129 150 158 129 150 158 128 135 132 102 136 131 103 136 131 103 137 129 103 138 128 104 139 130 104 139 131 104 140 132 103 141 132 102 142 134 103 144 134 103 145 134 103 145 135 103 146 135 102 146 135 102 147 134 102 146 135 103 145 136 103 144 135 105 144 136 106 144 137 108 142 139 109 141 141 108 140 142 109 138 142 110 136 143 112 136 142 112 136 142 114 137 143 115 139 145 118 140 146 118 141 145 118 141 145 120 141 144 121 142 145 123 143 146 123 144 148 124 144 148 123 144 148 123 144 148 122 144 149 122 145 150 125 146 151 126 146 152 127 147 152 128 147 153 127 148 153 128 150 155 128 150 156 128 151 157 128 138 129 102 138 130 102 138 128 102 138 127 103 137 127 105 138 128 105 138 129 105 139 130 104 141 131 104 143 132 104 145 132 104 146 132 103 146 132 103 147 132 103 146 131 102 147 130 103 146 131 104 145 132 105 144 132 106 143 133 108 143 135 109 143 136 110 140 138 109 139 138 109 138 138 112 137 140 113 137 140 114 138 140 115 140 141 116 141 142 117 142 143 117 143 142 118 141 141 119 141 141 120 142 142 122 143 144 123 144 146 124 144 146 123 144 146 122 144 147 121 145 147 121 145 147 124 145 149 125 145 149 128 148 150 128 148 150 128 149 151 128 150 153 129 150 154 128 149 156 129 139 127 101 138 128 102 139 127 102 139 126 104 138 125 106 136 126 106 136 127 105 138 127 106 141 129 106 142 130 106 144 130 105 145 131 104 146 129 104 146 129 103 147 128 103 147 127 104 147 128 104 145 128 105 144 129 107 143 129 109 143 130 111 142 132 110 140 133 111 138 135 111 138 135 114 138 137 115 138 136 115 140 136 116 142 137 115 143 138 116 144 140 117 144 140 118 143 138 120 142 138 119 142 139 120 144 141 121 146 142 122 146 145 122 145 146 121 144 146 120 145 146 121 145 146 123 145 148 127 146 148 127 147 148 127 149 149 127 150 149 127 151 151 128 149 153 129 148 155 129 139 124 101 138 125 101 140 126 101 140 125 103 139 124 104 138 125 105 137 126 106 139 126 106 140 127 107 142 128 106 142 128 106 144 128 105 144 127 104 146 126 104 147 126 103 147 125 103 146 125 104 144 124 106 143 125 109 143 126 111 142 126 112 141 127 111 140 129 113 140 132 114 140 132 116 140 133 117 139 133 117 140 134 116 141 134 116 143 135 116 145 137 118 145 137 119 145 136 119 144 135 119 144 136 120 146 138 120 147 140 121 146 143 121 145 144 121 145 145 121 145 147 122 146 146 125 146 147 127 146 147 127 148 146 127 150 147 127 151 148 127 151 150 128 151 152 128 149 155 129 139 123 99 139 123 100 140 123 101 140 123 102 139 123 104 139 124 106 138 124 107 138 124 107 139 124 108 140 125 107 141 125 107 142 126 106 143 124 104 145 123 104 146 123 104 146 123 104 145 122 105 144 122 108 144 123 110 143 124 111 142 124 112 141 124 113 141 127 115 141 129 116 141 129 116 140 129 116 140 129 117 142 129 116 143 130 117 143 131 117 145 133 118 145 133 118 145 132 119 146 132 118 147 134 119 147 135 121 147 137 121 145 140 120 145 143 121 145 144 122 146 146 124 147 146 125 148 146 127 147 146 127 149 146 126 150 146 127 151 148 126 152 150 126 151 152 126 149 154 127 141 122 99 140 121 101 140 121 102 139 121 103 139 121 105 139 121 107 138 122 107 138 122 108 138 122 108 140 122 109 141 122 107 143 122 106 143 121 104 145 121 103 146 121 104 147 122 105 146 121 107 145 120 109 146 121 111 144 121 113 142 122 113 141 122 113 142 124 115 141 126 115 141 125 117 141 125 117 142 126 117 144 125 117 143 126 117 144 127 116 145 127 117 145 127 118 145 128 117 147 129 117 148 130 117 148 132 119 148 135 120 146 138 120 146 140 120 146 142 121 148 145 123 149 145 125 150 145 126 150 146 127 150 146 126 151 147 125 151 148 124 152 149 124 151 152 125 149 154 125 142 121 100 141 121 100 141 119 101 140 119 102 140 120 105 139 120 106 138 120 107 138 120 107 138 120 108 139 121 108 139 120 107 140 120 106 142 120 105 145 120 105 146 120 105 147 121 107 145 120 108 145 119 109 146 119 111 145 119 113 143 119 113 142 120 113 142 121 114 141 122 115 140 123 117 141 123 119 142 123 119 142 124 118 142 124 117 144 124 117 144 123 117 144 124 116 145 125 116 146 125 117 147 125 117 147 127 117 147 132 119 146 136 121 146 139 121 147 141 121 149 143 123 150 145 125 152 145 126 151 145 127 151 146 127 152 148 126 152 150 124 151 151 123 150 153 123 149 155 124 143 121 99 143 119 100 143 118 101 142 119 102 141 118 103 140 118 104 139 117 106 139 117 107 140 118 108 140 118 107 139 118 106 139 119 107 141 120 106 144 120 107 145 120 106 146 120 107 146 118 107 146 117 108 146 118 110 145 118 113 144 116 113 143 117 115 142 119 115 140 120 116 140 121 117 140 120 118 141 121 120 141 121 119 141 121 120 142 121 118 143 122 117 144 122 116 145 123 116 145 122 116 146 121 116 145 124 116 145 128 118 145 132 119 145 136 121 146 139 122 149 142 123 151 143 124 152 144 124 152 145 126 152 146 127 152 148 127 153 151 124 151 153 123 149 155 123 148 156 125 145 119 100 145 117 101 144 117 102 143 117 102 143 116 102 142 116 103 141 115 105 142 114 106 141 114 106 141 115 106 139 115 106 139 117 107 141 118 107 143 119 107 145 119 107 145 117 108 145 116 108 146 115 109 145 115 110 144 115 112 143 115 114 143 115 115 143 116 116 140 117 117 139 117 118 138 118 117 138 119 118 139 119 119 140 119 119 140 118 118 141 119 117 141 120 117 143 120 116 145 119 115 146 119 115 145 121 115 144 126 116 145 130 118 146 134 119 147 137 120 149 140 120 150 142 122 151 143 124 153 144 126 152 146 127 153 148 128 152 150 125 151 153 124 149 155 124 148 157 125 146 116 100 145 115 102 145 114 102 146 114 102 147 114 102 145 114 104 145 114 106 145 113 106 143 112 106 142 112 106 141 112 106 140 114 108 141 116 108 143 117 110 144 117 110 143 115 110 142 114 110 144 113 110 144 113 110 144 113 112 143 112 114 144 113 115 142 114 116 140 114 118 139 113 119 138 114 118 137 115 117 137 116 118 138 117 119 139 116 118 138 117 116 139 118 116 140 117 115 142 117 115 144 117 114 144 119 115 144 123 116 145 127 118 147 131 119 148 134 119 149 137 119 150 140 121 151 142 124 152 145 126 153 146 128 153 147 127 151 150 127 151 152 126 150 154 125 149 156 125 149 113 101 148 112 102 148 111 103 148 110 103 149 111 103 147 110 103 147 111 106 145 110 107 144 110 107 144 109 107 143 109 108 142 111 109 142 113 110 142 114 111 142 114 111 142 114 111 142 112 110 143 111 110 144 111 110 143 111 112 143 111 114 144 110 116 142 111 118 140 112 119 139 111 118 137 111 117 136 112 116 136 114 117 136 115 119 137 115 118 137 115 117 136 116 116 139 116 115 141 115 115 143 115 115 143 116 115 144 120 116 145 125 117 147 129 118 149 133 118 149 136 119 150 139 120 151 141 122 152 143 125 151 144 126 151 145 127 151 149 127 151 151 128 149 154 126 148 155 125 151 108 100 150 108 102 149 108 103 148 108 103 148 108 103 148 107 103 147 106 106 145 107 107 144 106 109 144 105 109 144 106 110 143 108 111 142 111 111 142 112 111 140 111 113 140 110 112 141 110 112 141 110 111 141 110 111 141 110 113 141 109 114 142 108 116 142 108 118 140 109 119 139 109 117 138 110 116 136 111 117 134 113 118 134 114 118 134 113 118 136 112 118 136 114 117 138 114 116 140 114 116 140 114 116 142 115 115 143 118 115 144 122 116 145 127 117 147 132 117 147 134 119 149 137 120 149 139 122 149 142 123 149 143 125 150 145 126 150 149 127 148 152 127 147 154 127 145 155 126 151 106 100 151 106 101 150 106 103 148 106 103 148 105 103 147 105 104 147 104 106 145 103 109 144 103 111 143 103 113 142 104 113 142 107 113 142 109 113 142 110 113 140 110 115 139 109 113 139 109 112 140 109 112 140 108 113 141 108 114 141 107 114 141 106 116 141 105 118 141 106 119 139 107 118 138 109 118 136 111 118 134 112 119 133 112 119 133 111 119 134 110 118 135 110 118 138 112 117 139 113 117 139 113 117 140 115 117 141 117 115 144 121 116 144 126 116 144 130 115 146 134 118 147 136 120 148 139 121 148 142 122 148 144 124 149 146 125 149 148 126 147 151 127 146 154 128 144 154 127 151 105 100 151 105 101 150 105 101 149 105 102 148 103 103 147 102 104 146 101 107 143 100 110 143 100 113 142 102 115 140 103 115 141 106 115 140 109 116 140 109 116 138 109 116 138 108 115 139 107 114 138 107 114 139 105 114 140 105 115 140 105 115 140 104 117 139 105 119 138 107 120 137 108 120 138 110 119 136 111 119 135 111 120 134 111 120 133 110 119 133 109 118 134 110 118 136 111 117 137 113 117 138 114 118 139 116 117 140 117 116 142 120 116 143 125 117 143 130 115 143 133 117 145 136 120 146 138 122 146 142 124 146 145 124 147 146 124 148 149 126 146 150 127 144 152 129 142 152 129 150 104 99 150 104 101 149 104 101 148 104 101 147 102 102 146 99 104 144 98 107 142 97 110 142 98 113 141 100 116 139 102 117 139 105 117 139 107 117 139 107 118 138 107 117 138 106 117 137 106 117 138 106 116 138 105 115 139 105 115 139 105 117 139 104 119 138 105 120 136 106 120 137 107 120 136 109 119 136 110 120 136 109 119 135 108 119 133 109 118 133 108 119 134 109 118 135 110 118 136 111 118 136 113 118 136 115 116 138 116 115 139 119 115 141 124 115 140 129 115 142 132 117 143 135 120 144 139 123 144 142 125 144 145 125 145 148 125 146 149 126 144 150 128 142 151 129 140 152 130 149 102 99 148 102 100 148 102 102 146 102 101 143 101 103 142 98 105 142 97 107 140 96 110 140 97 113 139 99 115 139 99 118 139 102 118 138 104 119 138 105 119 139 105 120 137 105 120 137 105 118 136 106 117 138 104 117 139 104 118 139 105 120 139 105 121 138 105 122 136 105 121 137 107 121 137 108 120 137 109 119 136 109 120 135 107 119 134 106 120 134 106 120 133 107 119 134 109 118 134 110 117 133 112 118 133 114 117 135 118 116 137 121 115 138 124 115 138 128 115 139 132 115 140 135 120 139 140 123 140 144 126 141 147 126 142 149 127 141 149 129 141 150 131 140 152 130 139 153 131 148 99 98 147 101 100 146 101 100 143 100 102 141 98 104 139 97 106 140 95 109 139 95 111 138 96 113 138 97 115 138 99 118 138 100 120 138 102 120 137 104 120 138 104 121 138 104 121 137 104 120 137 104 119 138 103 118 139 105 120 139 105 121 139 105 122 137 106 123 135 106 122 136 108 121 137 108 120 138 108 119 137 107 118 137 107 119 136 105 120 135 105 119 133 107 118 133 108 117 133 109 117 132 111 117 132 113 115 132 117 116 134 122 115 134 125 115 135 127 115 135 131 115 135 135 119 136 139 123 138 144 126 138 147 128 138 149 129 139 149 131 138 150 133 138 152 133 136 153 133 150 97 99 147 98 99 145 98 99 142 97 101 140 95 104 139 94 107 139 94 110 138 94 112 136 94 114 137 96 116 137 97 118 139 98 120 140 99 122 139 100 122 138 102 122 138 102 122 138 102 122 138 102 121 138 103 120 138 105 121 139 106 121 139 106 122 137 107 121 136 107 120 137 107 120 136 107 119 137 105 118 137 106 117 136 107 118 134 105 119 133 105 118 132 107 117 131 107 117 130 108 115 129 110 115 129 113 115 129 117 116 131 120 116 131 124 116 132 128 116 133 130 116 133 134 119 133 139 124 135 144 126 133 148 128 134 149 130 135 149 132 135 151 134 134 150 134 134 151 134 150 94 100 147 93 99 144 94 100 142 94 102 142 93 105 140 92 107 139 92 110 137 92 112 137 92 114 138 93 117 139 93 119 140 94 121 141 95 123 141 98 123 140 99 124 140 100 123 140 101 123 140 101 123 139 103 121 138 104 121 138 104 120 139 106 121 138 107 121 136 106 121 136 106 121 135 106 119 135 104 117 134 104 117 133 105 118 133 105 119 131 105 118 130 106 117 129 107 115 126 109 114 125 110 115 126 113 116 126 115 116 127 119 116 128 123 116 129 127 117 129 130 118 128 134 120 130 139 125 131 143 128 130 146 130 131 148 132 132 149 134 133 150 135 133 149 135 131 149 136 147 90 101 145 89 101 143 90 102 143 91 103 142 91 105 141 90 106 139 90 110 138 89 114 138 89 115 139 89 119 140 90 120 140 91 122 141 93 123 141 95 125 142 97 125 141 98 124 141 99 123 140 100 124 141 101 123 139 103 121 138 104 120 137 105 120 137 106 122 135 105 122 134 104 122 133 104 120 133 104 118 132 103 118 132 104 118 130 104 119 129 105 118 129 106 117 127 107 116 123 109 116 121 111 115 122 113 117 123 115 117 123 119 116 124 122 116 125 126 117 126 129 119 125 134 122 127 139 126 128 143 129 128 145 133 129 146 135 130 148 136 130 147 138 130 148 138 130 148 138 146 86 102 144 86 104 142 86 105 141 86 105 141 87 106 140 87 108 139 87 112 139 87 113 139 86 116 140 86 119 141 86 121 141 88 122 141 90 124 142 92 125 143 94 126 141 96 126 140 98 126 140 100 125 141 101 124 140 102 123 138 103 121 136 104 120 135 104 121 133 104 123 131 103 122 131 103 120 131 103 119 131 102 119 130 103 119 129 104 119 128 105 118 126 106 117 123 107 117 121 109 117 119 112 117 119 114 118 120 116 117 121 120 117 122 124 118 123 126 118 122 129 120 123 134 124 124 138 127 125 142 130 126 143 135 126 144 137 126 145 138 128 145 138 128 146 140 127 147 139 146 83 105 143 83 106 142 83 107 140 85 108 140 85 109 139 85 110 138 84 113 139 83 115 141 82 117 141 82 119 142 83 120 142 85 122 141 88 125 142 90 127 143 92 127 141 94 127 140 96 127 140 99 126 140 100 125 139 101 123 137 102 122 135 102 120 133 102 121 132 102 121 130 101 121 129 101 121 129 102 120 129 101 118 127 101 118 126 103 118 125 104 118 123 106 118 121 107 118 118 109 118 117 113 119 118 114 118 118 117 118 119 121 118 120 125 119 121 128 120 120 131 122 120 134 124 121 137 128 122 141 131 123 141 136 123 142 138 123 144 139 125 144 139 125 145 141 124 145 141 145 79 106 142 80 107 141 80 108 140 82 109 139 83 109 138 83 112 138 82 115 140 81 117 141 80 118 141 78 119 141 80 120 142 81 123 141 84 126 141 87 128 141 90 129 140 93 129 140 95 129 140 96 127 138 97 126 138 98 124 136 99 123 133 100 121 132 99 120 131 99 120 129 98 120 127 99 120 126 100 118 126 101 117 124 100 117 123 101 118 122 103 118 122 105 119 120 107 119 117 109 119 116 112 119 116 114 119 117 116 119 117 121 120 117 125 121 118 128 122 118 131 124 117 134 127 118 135 130 119 137 133 121 137 137 121 139 138 120 142 139 121 143 140 122 143 142 121 144 142 146 76 106 143 77 108 140 77 109 139 79 110 137 80 111 137 81 114 138 79 116 139 79 118 140 78 119 140 77 120 140 77 121 140 78 123 139 81 125 139 84 127 139 87 129 139 91 129 139 94 128 138 95 127 136 96 126 136 96 124 134 97 123 131 97 120 131 96 119 129 97 119 129 96 119 128 97 120 125 98 118 124 99 116 123 99 115 121 102 116 121 103 118 120 105 119 119 106 119 117 109 119 115 111 118 116 113 119 115 116 120 115 120 121 114 124 123 115 127 124 117 129 126 117 131 129 117 133 132 118 133 135 118 135 135 119 136 137 119 139 140 118 141 141 119 142 143 118 143 144 148 74 107 145 75 109 141 76 110 139 77 112 137 78 114 137 79 115 138 78 117 138 77 119 139 76 120 140 75 122 140 75 123 138 75 124 137 78 125 137 82 127 137 86 128 136 89 128 137 92 127 135 93 126 134 94 125 135 94 124 132 93 122 132 94 120 130 94 118 129 95 118 129 95 119 128 95 119 125 97 117 123 97 115 122 99 115 120 101 116 118 103 118 118 104 119 118 105 119 116 108 119 114 110 119 114 112 119 113 116 120 113 120 123 112 124 124 114 126 126 115 128 128 115 129 131 116 131 133 116 131 135 117 132 136 116 134 137 116 136 140 115 139 143 115 140 145 114 142 145 148 73 108 145 74 111 141 75 113 138 76 115 137 77 117 136 77 117 135 76 118 136 75 120 138 74 122 140 74 123 139 74 124 137 75 125 135 76 125 135 80 126 135 84 126 135 86 125 134 89 125 134 90 125 134 92 124 133 92 123 131 92 121 131 92 119 131 93 118 129 93 118 128 93 118 128 93 119 126 95 117 124 96 115 120 98 115 117 101 116 116 102 117 116 103 118 116 104 119 114 107 120 114 110 120 114 112 121 112 116 122 112 119 124 112 122 126 114 125 127 114 126 129 115 128 131 116 129 135 116 130 136 115 131 137 114 131 138 113 134 140 113 136 143 112 138 144 113 139 145 147 72 110 144 73 113 141 74 115 138 75 117 136 76 118 135 77 118 134 75 119 134 74 121 137 73 123 137 72 125 137 72 125 136 74 125 134 76 125 133 77 124 134 80 124 133 84 123 133 85 124 133 87 124 132 89 124 131 91 123 131 91 121 131 91 118 131 91 118 129 92 118 128 92 118 127 92 118 126 93 117 124 95 116 120 97 116 117 100 117 115 101 117 114 102 118 114 104 119 112 106 120 112 109 122 111 112 123 111 115 124 112 118 126 112 122 126 112 124 128 112 126 129 114 126 132 115 128 135 116 128 136 115 128 137 113 129 139 111 131 140 111 132 143 111 134 144 113 136 145 147 72 111 144 73 113 141 73 115 138 74 117 135 75 118 134 76 119 133 74 121 134 73 122 135 72 124 136 70 124 136 71 125 135 73 125 133 75 124 133 77 124 133 78 123 133 81 122 133 83 123 133 85 122 133 86 122 132 88 122 130 90 121 130 90 119 129 90 118 128 92 118 126 92 118 125 94 117 124 94 117 123 94 116 120 97 115 117 99 116 115 100 117 112 102 117 112 104 119 111 105 120 111 108 123 110 111 124 109 113 125 110 116 126 111 120 127 111 123 128 111 125 129 111 125 132 113 126 134 114 125 137 114 125 138 113 126 141 111 128 142 111 129 144 113 131 144 114 132 145 