P3
50 50
255
162 118 130 163 117 131 165 117 130 169 117 129 171 119 130 173 123 129 175 127 130 177 131 131 177 134 131 178 137 134 179 140 136 182 142 138 184 145 139 186 146 141 187 147 143 188 150 147 188 152 149 189 154 150 191 156 153 193 157 156 192 157 158 190 157 160 190 157 161 190 158 161 191 159 160 192 160 160 192 161 161 192 161 162 194 163 162 192 165 162 192 164 162 192 164 163 191 164 163 190 164 160 186 164 158 184 164 156 181 165 155 179 166 153 178 166 153 177 167 153 176 167 152 175 168 152 174 168 153 174 167 154 171 166 154 171 164 154 172 163 155 173 161 155 173 159 155 174 156 155 160 116 130 162 116 130 164 115 128 167 115 128 169 116 128 173 120 128 176 125 128 177 129 129 178 133 130 178 136 132 180 139 135 183 141 137 186 143 139 187 144 141 188 145 143 188 149 147 190 151 148 192 154 150 193 155 152 193 156 154 192 155 157 191 156 159 190 156 159 190 156 160 191 157 160 191 159 160 192 160 160 192 161 162 193 163 162 191 164 163 192 164 162 192 165 162 192 164 162 189 164 160 185 164 156 183 164 155 179 163 154 177 163 152 177 164 153 176 164 153 174 164 153 172 165 152 173 166 152 172 165 152 171 164 152 170 163 153 170 162 154 172 160 154 172 158 154 172 156 155 159 114 129 162 114 127 163 114 126 166 114 127 169 115 127 172 118 126 176 122 126 178 127 128 178 132 128 180 134 129 181 137 131 184 139 134 188 142 137 189 143 140 189 145 142 190 149 145 192 152 147 194 154 150 195 155 152 195 154 153 195 154 156 193 154 158 191 154 157 191 154 157 191 154 158 192 156 158 192 158 159 192 159 160 192 160 161 191 161 163 192 163 163 193 163 161 193 164 161 189 163 158 186 163 155 183 163 154 178 162 154 176 163 153 175 163 152 174 163 152 173 163 153 171 163 152 172 164 152 170 164 152 170 163 152 168 162 153 169 161 154 170 159 154 171 157 154 172 156 154 160 110 126 162 112 126 163 113 125 165 113 125 169 115 126 173 117 125 176 121 124 179 126 126 180 130 126 182 134 127 185 136 129 187 139 133 190 142 135 191 144 137 192 146 142 192 148 144 194 151 146 195 154 149 196 154 152 196 152 153 195 152 155 195 153 156 194 152 155 192 152 155 191 152 157 191 152 157 192 154 159 192 155 160 192 157 161 191 158 164 191 160 164 192 162 162 191 162 160 189 162 157 185 163 156 182 163 155 178 162 155 175 162 154 175 162 152 173 161 153 173 161 152 172 162 152 171 161 152 170 161 152 169 161 152 168 160 152 168 159 152 169 158 153 170 156 153 170 156 152 159 110 125 161 111 125 162 113 125 165 114 125 168 116 125 174 117 124 177 120 124 179 125 125 180 130 124 183 133 127 187 136 130 189 138 132 191 142 135 193 145 137 194 146 141 193 149 144 194 150 146 196 152 148 196 152 151 196 153 153 196 152 154 196 152 154 194 152 153 192 152 153 191 151 155 191 151 157 192 151 159 193 152 161 192 154 162 191 157 163 190 159 163 190 160 162 190 161 160 189 161 159 185 162 157 181 163 156 178 162 156 176 161 155 175 161 153 173 160 152 173 160 152 172 160 152 172 158 152 170 158 151 169 158 151 168 158 152 167 158 152 168 156 151 169 155 152 169 155 151 159 109 125 161 110 125 163 111 124 165 113 124 169 115 124 174 116 124 177 119 123 179 124 123 181 129 126 184 132 128 187 135 131 189 139 133 191 142 135 193 145 138 194 148 140 194 149 143 195 150 146 197 151 147 196 152 150 196 153 152 197 154 152 196 153 151 192 152 152 191 152 152 191 150 155 191 149 157 192 150 158 192 151 160 192 152 161 191 154 163 190 157 163 189 158 163 188 159 162 187 158 162 183 159 160 180 161 159 178 160 158 176 160 157 175 160 154 173 159 153 172 158 153 172 157 152 172 155 152 171 155 152 169 154 151 168 155 152 168 156 151 169 155 151 169 155 151 169 155 151 161 107 122 162 109 122 163 110 123 165 112 123 169 114 122 173 118 122 176 121 123 178 124 124 181 128 127 185 132 130 186 135 132 189 140 133 192 144 135 193 147 137 195 149 139 196 149 144 197 150 146 196 152 147 196 153 150 196 153 151 196 154 150 194 153 151 191 151 151 190 151 152 190 149 154 190 148 157 190 149 158 190 151 159 191 151 161 190 153 161 190 156 162 189 155 163 186 155 164 184 156 163 182 157 162 179 157 162 177 158 161 176 157 159 174 157 157 174 156 154 173 155 153 172 154 153 171 154 153 170 152 153 170 152 152 169 153 151 169 153 151 168 153 151 169 152 152 169 153 153 161 107 119 163 108 120 164 109 120 166 111 119 169 113 120 173 117 121 176 122 122 178 125 124 180 127 126 183 131 129 186 135 131 189 139 133 192 144 135 193 147 137 195 149 139 195 149 143 196 150 145 196 152 146 196 153 148 196 152 149 195 153 150 193 153 150 191 150 151 191 149 153 189 148 155 189 147 156 190 147 158 191 149 159 191 150 160 190 151 160 188 153 162 187 152 164 185 152 163 183 153 163 181 153 162 179 154 162 176 154 162 174 154 160 173 154 158 173 154 156 172 154 154 171 154 153 169 153 154 169 152 153 169 150 152 169 151 151 168 151 150 168 149 149 168 150 150 168 151 151 160 107 116 163 107 118 164 108 118 166 110 118 170 113 118 172 117 118 175 120 120 177 124 123 180 128 125 183 130 128 186 134 130 188 139 134 190 144 135 192 148 137 193 149 139 193 149 142 194 151 143 195 150 145 196 151 146 195 151 147 194 153 149 193 151 151 192 149 152 191 148 154 189 147 156 189 147 156 190 147 157 191 149 158 191 150 160 190 150 161 187 150 161 186 150 162 184 150 162 183 150 163 181 150 162 180 151 162 177 152 161 174 153 161 173 153 159 172 153 158 171 152 156 170 152 155 169 152 154 168 151 152 168 150 150 167 149 149 167 148 148 167 148 148 168 149 148 167 150 149 159 106 115 161 107 116 164 109 116 167 110 117 170 113 117 172 115 118 174 119 119 177 123 121 180 127 124 183 130 127 185 134 131 187 139 133 189 143 136 191 146 138 192 148 139 193 149 140 193 150 143 194 149 144 196 149 145 196 150 146 194 151 148 194 151 151 192 149 153 190 147 155 190 146 156 189 147 157 190 148 158 190 149 159 190 150 160 189 149 161 186 148 161 184 148 161 183 147 161 182 147 162 181 147 163 179 149 162 177 151 161 175 152 160 173 152 160 172 153 159 171 151 159 169 150 157 168 150 154 168 150 152 167 149 150 167 148 148 168 147 147 168 147 146 168 148 146 167 150 148 159 106 113 161 107 114 164 109 113 167 111 114 169 113 116 172 115 118 174 119 119 176 122 122 180 126 124 183 129 127 185 134 130 188 139 132 190 143 136 190 145 138 191 146 138 192 148 140 193 147 142 194 148 143 196 148 143 196 150 146 194 151 149 194 151 150 192 149 152 190 146 155 189 146 156 188 147 157 189 148 157 190 149 159 189 149 160 187 147 161 185 146 162 184 146 162 182 146 161 180 146 162 180 146 162 178 147 161 176 149 160 174 151 159 173 151 159 172 152 158 170 152 158 169 152 156 168 151 153 167 150 151 168 149 149 168 148 146 168 147 146 169 147 145 168 148 144 168 150 145 159 106 110 161 107 111 162 109 112 166 112 112 169 114 114 172 116 117 173 120 118 176 124 121 179 126 124 181 129 127 184 134 129 187 138 131 189 142 135 190 143 137 192 144 138 192 145 139 193 145 140 195 146 141 196 147 142 196 149 146 194 150 149 193 149 150 192 148 152 190 146 153 189 147 156 188 147 157 189 147 158 189 148 158 188 147 160 186 146 161 185 144 161 183 144 160 181 144 160 179 144 160 178 145 160 176 146 160 174 148 158 174 149 158 172 150 157 172 151 156 171 152 157 169 151 155 168 150 152 169 150 150 168 149 147 169 148 146 168 147 145 168 147 144 168 148 143 169 147 143 159 106 108 161 107 110 163 109 112 166 113 112 169 114 114 171 117 117 173 121 119 175 125 120 178 128 123 181 131 126 183 134 128 185 137 130 188 141 133 189 141 134 191 142 136 191 144 136 192 144 138 195 145 140 195 145 142 195 147 146 193 148 149 191 148 150 192 147 152 190 146 152 190 146 154 190 147 156 189 146 157 189 146 158 189 146 159 186 144 160 185 143 160 183 141 159 180 142 159 179 141 159 178 142 158 176 142 159 174 145 157 174 147 155 172 148 154 171 149 154 171 150 155 170 150 153 169 150 151 169 149 149 169 148 146 170 148 145 169 147 144 168 147 144 170 146 142 169 144 141 160 105 107 161 107 108 163 109 111 167 112 113 169 114 115 171 116 117 172 121 118 174 125 120 178 128 122 180 131 124 182 134 126 185 135 127 187 137 129 189 137 131 189 139 132 191 142 134 191 143 136 193 143 139 194 144 141 194 146 145 192 146 147 192 146 149 192 147 151 192 146 152 191 144 154 191 145 156 191 145 157 190 145 157 190 145 157 187 144 158 185 142 158 183 139 158 179 139 158 179 139 157 178 139 157 177 140 157 175 141 155 174 143 153 173 145 152 171 147 152 170 148 152 171 149 150 170 149 150 171 148 148 170 147 147 171 148 145 169 147 145 169 146 144 170 144 142 169 142 141 160 105 106 162 106 107 165 109 110 169 111 112 170 113 114 171 116 115 172 120 118 174 124 118 177 127 120 180 129 122 182 131 123 186 133 124 188 133 126 189 135 128 190 136 130 191 139 132 192 141 135 192 142 138 192 143 141 192 145 144 192 145 146 193 146 147 193 147 149 194 145 151 193 144 153 192 143 155 192 143 156 191 143 154 190 144 154 189 144 156 186 140 155 183 138 155 181 137 156 179 137 156 177 137 154 176 137 153 175 138 153 174 140 150 173 142 149 172 145 149 170 146 149 171 148 148 170 147 147 171 146 147 171 146 146 169 146 146 168 146 145 168 144 143 169 142 141 169 140 141 161 104 108 164 105 108 166 108 109 169 110 111 170 112 114 172 116 114 174 120 116 176 124 117 179 126 118 181 128 119 184 129 122 186 131 124 188 131 125 190 132 127 190 134 129 191 136 131 192 139 134 192 140 138 191 142 141 192 144 143 193 144 144 194 145 145 195 144 147 196 144 149 194 142 151 193 141 153 193 142 154 192 142 152 191 142 152 190 142 153 188 139 153 185 137 153 181 136 153 179 136 152 177 136 151 177 135 150 176 136 150 174 138 149 174 139 148 172 142 149 171 143 148 170 144 146 169 145 145 171 145 145 170 145 147 168 144 147 167 143 146 167 141 143 169 140 141 170 138 140 163 103 108 165 104 108 167 107 109 170 110 110 172 112 112 174 116 114 176 119 115 179 122 116 181 125 116 182 126 118 183 128 121 186 129 122 188 130 124 189 131 126 190 131 128 190 134 131 191 136 133 191 138 136 191 139 139 193 141 141 194 142 143 195 142 144 196 142 146 196 141 148 194 138 150 193 139 151 193 139 152 192 140 151 192 139 150 191 138 150 189 137 150 186 135 151 182 134 151 180 135 150 178 134 149 178 135 147 177 135 147 175 136 146 173 137 147 173 139 147 171 141 147 170 141 146 170 142 145 169 144 144 169 143 145 168 141 147 167 140 145 167 139 144 168 138 141 170 135 140 164 102 108 167 104 109 170 106 109 173 109 111 174 112 113 177 115 114 178 118 114 180 122 115 181 124 116 183 126 117 183 126 120 184 128 122 186 128 124 187 128 126 188 129 127 189 131 129 190 132 131 191 134 133 191 136 138 193 137 140 193 138 143 195 138 144 195 139 145 195 138 147 194 137 148 193 136 149 191 138 149 192 138 148 191 137 148 190 136 147 188 136 147 186 134 148 184 133 149 182 132 148 180 132 147 179 132 145 177 133 145 175 134 144 173 134 145 172 136 145 170 138 144 170 139 144 170 139 144 170 140 143 168 140 144 167 139 144 166 138 144 166 136 143 168 135 141 170 134 139 166 102 108 169 104 109 171 105 110 174 108 112 175 111 113 177 113 112 179 116 113 180 120 114 182 123 115 183 125 117 184 125 118 185 126 121 185 125 124 186 125 126 186 126 127 188 128 128 191 129 130 191 131 133 192 132 136 193 134 139 194 134 141 193 135 143 194 137 144 194 136 145 193 135 147 192 134 147 190 135 146 191 135 145 191 134 145 189 134 146 188 133 145 187 132 146 185 131 146 183 131 146 181 130 144 179 131 143 177 132 142 176 132 141 174 133 142 171 134 143 170 135 143 170 137 143 170 137 142 170 138 142 169 137 142 167 137 143 166 136 142 166 136 142 168 134 141 170 133 139 168 101 107 171 103 109 173 105 111 174 107 113 175 109 113 176 111 112 178 115 112 179 118 113 181 121 114 183 123 115 184 123 116 185 123 119 185 122 122 185 122 125 186 123 127 188 124 127 191 125 130 191 126 131 193 128 134 194 129 137 193 130 140 193 131 142 193 132 144 193 132 145 192 132 145 192 132 144 190 133 143 191 133 143 191 132 143 189 131 143 187 131 143 186 130 144 184 130 145 183 129 144 180 130 142 178 130 141 177 130 139 175 131 138 173 130 139 171 131 141 170 132 142 170 133 142 170 134 141 169 135 141 169 134 141 168 135 140 167 136 139 167 136 141 169 135 139 170 133 138 169 99 107 173 101 110 174 102 112 174 104 112 175 106 112 177 110 113 178 113 112 180 116 111 182 118 112 183 120 113 184 120 114 185 120 117 184 120 120 184 120 123 186 121 126 188 121 127 190 122 129 191 123 130 192 125 132 193 127 134 193 127 137 192 128 140 192 128 142 191 129 143 191 130 143 191 131 143 190 131 142 190 132 142 190 130 141 187 129 143 185 129 142 183 129 142 183 128 143 182 128 142 179 128 140 176 128 138 175 127 136 173 128 136 172 128 137 172 130 138 171 129 139 170 130 139 169 131 139 168 131 140 168 132 140 168 132 138 167 135 138 169 135 137 169 134 136 170 131 137 170 98 108 173 98 110 174 100 112 175 102 111 175 105 111 177 109 111 179 113 111 180 113 110 181 115 111 182 117 112 184 119 114 184 118 116 184 119 119 185 119 122 186 120 125 187 120 127 189 121 128 191 121 129 192 121 131 193 123 133 193 123 135 192 124 137 191 125 138 190 126 140 189 128 140 189 128 141 189 129 141 188 130 140 189 129 141 187 128 141 184 127 140 183 127 140 181 127 140 180 126 139 177 126 138 175 125 136 174 124 136 173 125 135 171 126 136 171 126 136 171 127 135 169 127 136 168 128 137 167 129 138 167 129 137 167 130 137 167 132 135 169 133 135 169 132 136 169 130 137 171 96 109 174 98 110 175 100 111 175 101 111 176 103 111 178 107 110 180 109 110 181 111 111 181 113 112 182 115 114 183 116 115 183 116 116 185 117 119 186 118 121 186 119 125 186 118 126 189 118 127 190 119 128 192 119 130 191 118 131 191 119 133 191 121 135 189 122 136 188 123 137 188 124 138 188 125 139 187 125 139 187 127 139 188 127 139 186 127 138 184 126 137 181 125 137 180 124 137 178 123 136 176 124 136 174 123 135 173 122 135 172 123 135 171 124 135 170 124 134 169 124 134 168 124 133 167 124 135 166 126 136 165 126 136 165 126 136 166 128 135 168 128 134 169 129 135 169 128 136 170 94 111 173 95 111 175 98 111 175 99 112 176 101 112 179 104 111 180 106 110 181 108 111 182 110 112 182 111 114 185 113 115 185 114 117 186 116 119 186 117 121 187 117 123 186 116 124 188 116 125 190 116 126 191 116 127 190 115 128 191 116 130 190 118 132 189 119 133 188 120 134 186 120 136 186 121 137 185 122 137 185 123 137 185 122 136 184 123 135 183 122 135 181 121 135 179 121 135 178 121 134 175 120 134 173 120 133 172 120 133 172 121 132 171 120 132 170 121 131 169 121 130 167 121 131 167 122 131 165 122 133 164 122 134 164 123 134 165 124 133 167 124 134 167 125 134 168 126 134 169 92 113 171 93 112 174 95 111 176 98 111 177 99 110 178 101 111 180 103 110 181 105 110 181 107 112 182 110 113 185 112 116 187 114 118 188 116 119 188 116 121 187 115 122 187 114 123 188 114 124 190 113 125 190 113 126 190 113 127 190 113 128 189 114 129 188 116 130 187 117 132 186 116 134 184 117 133 183 118 135 184 119 135 184 119 134 182 119 133 182 118 132 181 118 132 179 118 130 177 118 132 174 117 133 173 116 131 171 117 131 171 118 130 169 117 129 169 117 129 167 117 128 166 118 129 165 119 129 165 120 131 164 120 132 164 121 131 164 121 131 165 122 131 166 124 132 167 125 134 168 92 114 170 93 113 173 94 111 176 96 111 177 98 110 179 99 111 180 101 111 181 103 111 181 104 112 183 107 114 185 111 117 187 113 119 189 113 119 189 113 120 189 113 121 188 112 123 189 112 123 190 110 124 190 111 125 189 111 127 189 111 128 189 111 129 187 112 130 186 113 131 184 113 131 182 113 131 180 113 132 182 115 133 183 116 133 182 116 133 181 114 131 180 115 129 178 115 129 176 114 131 173 114 131 171 113 129 170 113 128 169 114 128 168 114 127 168 114 126 166 116 126 165 116 127 165 117 129 165 118 130 164 118 130 164 119 129 163 119 129 164 119 131 166 121 131 167 121 133 167 91 115 170 92 114 173 93 113 175 95 113 178 96 112 179 97 112 180 99 112 179 102 112 180 104 113 183 107 116 185 110 119 187 111 119 188 111 120 189 111 120 189 111 121 189 111 122 189 109 122 189 108 124 188 109 126 187 110 128 186 109 129 187 108 130 185 109 129 183 109 129 182 108 130 181 109 130 179 109 131 180 112 132 182 113 132 182 113 131 181 112 129 179 111 127 179 111 128 177 110 129 174 111 129 171 111 129 169 110 129 167 111 127 167 112 127 166 112 126 165 113 127 165 114 127 165 115 129 164 116 129 165 116 129 165 116 128 164 116 129 164 116 130 165 117 131 168 119 133 167 89 116 169 90 115 171 91 114 175 93 113 176 95 113 178 97 113 180 99 113 180 101 114 181 103 115 182 105 116 185 107 118 187 108 119 188 109 120 189 108 120 189 108 120 189 108 121 187 108 123 187 107 125 188 107 127 186 107 129 185 107 129 185 105 129 183 105 129 182 104 129 181 105 130 179 105 130 179 106 130 180 109 131 181 110 132 182 110 130 181 109 128 180 108 128 178 107 127 177 107 127 175 109 127 171 109 128 168 108 129 166 109 127 165 111 128 165 111 127 163 111 127 164 112 128 164 112 129 165 111 129 165 113 129 165 114 128 165 114 128 165 114 129 165 114 130 167 115 132 166 88 115 167 88 115 170 90 114 173 92 113 175 95 113 178 96 113 180 98 114 181 100 116 182 102 117 183 103 117 185 105 118 186 106 118 188 105 120 189 106 120 189 105 120 188 106 121 187 106 122 186 105 125 185 104 128 185 103 129 183 102 128 183 101 128 182 100 129 182 100 130 180 101 131 179 102 130 178 103 129 179 105 129 181 106 129 181 106 130 180 105 129 179 106 128 178 105 128 176 105 127 174 105 127 172 106 126 169 106 127 166 106 128 164 109 128 162 108 127 162 108 126 164 108 127 165 108 128 166 107 128 165 109 127 165 109 127 164 110 128 165 111 128 166 112 130 168 112 130 166 86 115 167 87 115 168 90 114 171 93 114 175 94 113 177 95 114 179 98 116 181 99 118 182 101 118 183 102 118 185 103 119 185 103 119 187 102 119 188 103 120 188 103 121 187 104 122 186 102 122 183 102 125 183 101 128 183 99 128 181 98 129 180 96 128 181 96 129 179 97 131 178 97 130 178 98 130 178 99 130 179 101 129 179 103 128 179 102 128 180 102 129 179 104 128 177 104 129 174 103 128 172 103 128 171 104 127 170 104 126 167 104 127 164 105 126 163 106 126 163 105 127 164 105 128 165 105 128 166 104 128 165 105 127 163 105 128 163 106 129 166 108 130 167 109 130 169 110 131 164 83 116 166 85 116 167 89 116 170 91 116 174 93 116 175 94 117 178 96 119 180 97 119 182 99 120 182 101 119 183 102 119 185 101 119 185 99 119 185 99 120 184 100 121 185 101 123 183 99 123 181 98 124 181 97 127 181 96 128 178 94 129 178 93 130 178 93 132 178 94 132 178 94 132 178 95 131 178 96 131 179 97 129 179 99 128 178 99 127 179 100 127 178 100 128 176 101 129 173 101 128 171 101 128 170 102 126 170 101 125 169 101 124 166 103 124 163 103 125 163 102 127 164 101 127 164 102 127 165 101 127 166 101 128 164 102 128 165 103 129 165 104 130 166 107 131 169 107 131 161 82 119 164 84 119 166 87 119 170 90 118 173 92 117 174 93 118 177 95 118 179 96 119 180 98 120 181 99 120 182 100 120 183 98 120 183 97 120 182 96 121 181 96 121 181 97 122 181 97 123 179 95 124 179 94 125 178 93 127 177 91 129 177 91 131 176 91 133 177 93 133 177 92 133 177 92 133 176 93 131 176 94 129 177 96 128 178 98 127 177 99 127 177 99 127 175 99 128 172 99 128 170 100 126 170 100 126 170 99 124 170 99 124 169 99 123 166 100 124 165 100 125 164 99 125 165 100 126 166 99 126 166 98 127 166 100 128 165 102 129 165 103 130 166 104 131 169 105 131 159 83 120 163 84 121 165 86 120 169 89 120 172 91 119 174 93 119 175 95 119 177 97 119 178 98 119 179 99 119 181 98 120 182 96 121 180 95 120 179 95 121 179 95 121 178 94 122 177 93 122 177 91 124 176 91 126 175 91 128 175 90 130 176 89 132 176 89 134 175 90 135 175 89 135 175 90 133 174 91 130 174 91 128 176 93 127 177 95 126 177 97 126 175 97 127 173 97 128 171 99 128 170 99 127 170 99 125 171 98 124 171 98 124 170 97 123 167 96 123 166 96 123 166 96 124 165 97 124 165 97 125 166 97 127 167 97 129 166 98 130 167 100 130 167 101 130 168 104 131 156 82 123 160 85 123 164 87 122 167 89 121 171 92 122 172 93 121 173 95 120 174 97 120 176 97 119 177 97 119 177 97 119 178 96 120 178 94 120 178 93 120 176 92 119 176 90 121 174 89 123 174 87 124 175 88 125 173 88 128 174 88 130 175 88 132 174 87 135 174 86 135 174 87 135 173 88 131 173 88 129 173 89 128 174 90 127 174 92 126 174 95 126 173 96 126 172 96 127 171 97 128 170 98 126 170 97 124 170 97 123 170 97 123 170 96 122 169 95 121 167 93 122 167 93 123 166 94 123 166 95 124 167 96 127 167 96 128 166 97 129 166 97 129 167 99 129 168 102 129 153 83 124 157 85 123 160 87 123 163 89 123 168 91 123 170 93 123 170 95 122 172 96 122 173 96 121 174 95 120 174 95 121 175 94 121 175 92 120 176 90 119 174 89 120 174 88 121 173 86 123 173 85 125 173 86 127 173 86 129 174 86 130 174 87 132 173 85 134 174 85 135 173 85 134 173 86 131 173 87 129 173 88 128 172 89 128 172 90 128 173 92 127 173 94 128 172 94 127 172 94 126 171 94 124 171 95 123 170 96 123 169 96 121 169 95 121 168 93 121 168 92 122 167 91 123 167 92 123 167 93 124 167 94 125 167 95 126 167 95 128 166 96 128 167 97 128 169 99 129 150 83 127 154 85 127 158 87 126 161 89 125 165 90 125 167 91 125 169 93 124 170 93 123 170 93 123 171 92 123 173 92 122 173 91 122 174 90 121 174 88 120 172 87 121 172 86 122 172 84 124 172 85 126 172 85 128 172 85 130 174 85 131 174 85 133 173 84 134 174 83 134 172 83 133 172 84 132 172 85 130 172 85 129 171 86 130 171 87 129 172 89 129 172 91 130 172 92 128 172 92 127 171 92 125 171 93 124 170 93 123 169 93 122 169 92 120 169 91 121 169 90 121 168 90 122 168 92 123 168 92 123 169 92 124 168 93 125 167 93 127 167 94 128 167 95 128 168 97 129 149 82 130 151 84 130 154 86 129 159 88 129 163 88 129 165 89 127 167 91 126 169 90 125 169 90 125 170 89 125 171 89 124 172 88 123 172 87 123 171 86 122 170 84 122 171 84 123 172 84 125 172 84 127 172 84 130 172 83 131 174 83 132 174 82 133 173 81 133 172 81 132 171 82 133 170 82 133 171 83 132 171 82 131 171 83 130 171 86 131 172 88 131 173 89 130 173 90 129 173 90 128 172 90 126 172 89 125 172 89 124 171 89 123 169 89 121 168 88 121 168 89 120 168 89 120 169 90 121 170 90 122 170 90 122 169 91 124 167 91 126 167 92 129 168 94 129 167 95 129 149 82 133 151 83 133 154 84 132 157 85 132 160 87 131 162 87 128 165 89 127 166 89 126 167 88 127 168 87 126 170 87 126 171 86 125 172 84 125 171 84 124 170 82 124 171 82 124 172 82 125 173 82 127 172 82 130 173 81 131 174 80 132 174 79 132 172 78 132 171 79 132 171 80 132 171 81 133 170 80 132 170 80 131 170 82 130 171 84 130 171 86 130 172 87 130 173 87 127 173 87 126 174 86 126 173 86 125 173 86 125 172 87 123 171 87 122 169 86 121 169 88 120 170 88 120 171 88 120 171 89 121 171 90 122 170 90 124 169 90 126 169 90 127 169 92 129 169 94 130 148 80 136 151 82 134 153 83 133 156 83 133 158 84 133 160 84 131 161 86 131 162 87 130 163 86 129 164 85 127 166 85 128 169 83 129 170 82 128 171 80 126 170 80 125 170 81 125 171 80 126 171 79 126 171 79 128 173 79 130 173 77 131 172 76 132 171 76 131 170 77 132 171 79 132 171 79 133 171 79 132 170 78 130 170 80 129 169 81 128 170 83 129 173 84 129 173 85 127 174 85 126 175 84 125 174 84 124 173 84 124 173 85 123 171 84 123 171 85 122 172 86 121 173 87 120 173 88 119 172 89 119 172 90 120 172 90 122 170 90 124 170 90 127 170 91 129 170 94 131 147 78 137 150 80 136 152 81 136 154 82 136 156 82 135 157 82 134 158 84 133 159 84 131 160 84 130 161 83 129 163 82 130 166 81 130 167 79 129 169 79 128 170 78 128 170 78 128 170 79 127 170 78 126 170 76 127 172 75 129 171 75 130 170 75 132 169 75 132 169 76 132 170 78 133 170 79 134 170 79 132 170 77 130 170 78 129 169 80 128 170 81 127 171 83 126 173 83 125 174 83 125 175 82 124 174 82 124 174 83 124 173 84 123 173 84 123 173 84 122 174 84 120 175 87 120 176 88 119 174 89 119 174 90 119 173 90 121 172 91 124 172 91 127 171 92 129 172 93 131 146 77 139 148 78 137 150 79 136 152 80 138 152 80 136 154 80 135 155 81 135 156 82 132 157 82 131 159 80 132 161 80 132 164 79 131 166 78 130 167 78 130 169 78 129 171 78 129 171 77 128 171 76 128 170 75 129 169 74 128 169 74 130 169 75 132 169 75 133 169 75 133 170 77 133 170 77 133 170 78 132 169 77 130 169 78 129 169 78 128 169 80 126 171 81 125 172 82 125 175 82 123 176 81 123 176 81 124 176 82 124 175 83 124 175 84 123 175 83 122 176 84 121 176 87 120 176 88 120 177 88 119 176 89 120 175 89 121 174 91 124 175 92 127 174 92 129 173 93 131 146 75 140 148 75 139 149 76 138 149 78 138 151 78 138 152 80 137 152 80 136 153 80 134 155 79 133 158 78 133 161 79 133 163 78 132 165 77 131 166 77 131 168 77 130 170 77 130 171 75 129 171 73 128 169 72 129 168 73 128 168 73 129 169 74 131 169 74 132 170 75 133 170 77 133 170 77 133 170 76 132 171 76 130 170 77 128 169 76 126 170 78 125 171 80 124 171 81 123 174 81 122 176 81 122 177 81 123 177 81 124 177 82 124 175 84 124 176 84 123 176 86 122 176 87 121 176 89 120 177 88 121 176 89 121 175 89 122 175 91 124 176 92 127 175 92 129 175 93 131 144 74 142 145 74 141 146 76 140 148 77 139 149 78 139 150 80 139 151 79 138 152 78 136 154 77 135 158 77 135 160 77 134 162 76 133 164 75 132 165 74 132 166 74 131 169 74 130 171 73 129 172 72 129 170 71 129 169 71 129 169 72 128 169 73 128 169 74 130 169 75 131 170 75 131 171 76 130 171 76 129 171 75 128 172 75 126 172 76 124 172 77 123 172 78 122 172 81 121 174 80 121 175 80 122 177 81 123 177 81 124 178 82 123 176 83 124 175 84 123 175 86 122 175 87 121 175 88 121 176 88 122 176 89 122 177 89 122 177 91 124 177 92 127 177 92 129 176 94 131 143 73 143 144 74 142 145 74 141 147 75 141 148 76 141 149 78 140 150 78 139 152 78 138 154 76 137 157 76 136 159 75 134 162 74 133 163 74 133 165 72 132 167 72 132 170 72 131 171 72 130 172 71 130 170 70 129 170 71 128 170 73 126 169 73 126 169 72 127 169 73 128 170 74 128 171 75 128 172 75 127 172 74 126 172 74 123 173 74 121 172 75 120 173 77 119 173 79 119 174 79 119 174 80 120 176 80 122 177 82 122 178 82 123 178 85 123 176 86 122 175 86 121 174 87 121 175 88 122 176 88 121 176 89 122 177 89 123 177 91 124 177 91 126 176 92 128 176 93 130 142 71 144 143 72 142 144 72 142 146 72 142 147 74 141 148 76 139 149 77 138 152 77 137 154 76 137 157 74 137 160 73 136 161 73 134 163 72 134 165 72 133 167 70 133 169 69 132 170 69 130 171 69 128 170 69 127 169 71 125 169 73 124 168 73 125 169 72 126 169 71 126 169 73 126 170 74 126 171 75 124 172 74 122 171 74 120 172 74 118 171 74 117 171 75 116 172 78 116 173 79 117 174 81 119 175 82 120 177 83 120 177 83 121 177 86 121 177 87 122 177 87 122 175 88 122 175 88 122 176 89 122 176 91 123 177 91 123 176 90 124 176 91 125 176 92 127 176 94 130 141 71 145 143 70 143 144 71 141 145 71 140 147 72 140 149 74 139 150 75 139 153 75 140 156 74 139 158 73 138 161 71 138 162 71 136 164 72 135 166 71 135 167 69 134 169 67 132 168 66 130 169 67 128 170 69 126 168 70 125 167 71 125 167 71 125 168 70 125 169 70 125 169 70 124 170 72 123 170 73 121 170 75 119 169 74 116 169 73 115 170 73 114 170 75 113 172 77 114 173 79 115 174 80 117 175 81 118 177 83 120 178 84 119 177 85 120 178 86 121 178 87 122 177 86 121 176 88 122 175 90 122 175 91 122 175 91 122 175 91 123 174 92 124 174 94 127 174 95 129 141 70 144 142 70 144 143 70 142 144 70 141 147 70 140 149 72 140 150 73 140 153 73 141 156 73 140 159 73 140 161 72 140 162 71 139 163 71 137 166 70 136 167 69 135 168 68 132 168 66 131 168 65 129 167 66 128 167 68 125 168 68 125 168 68 126 168 68 125 170 68 124 170 69 122 170 70 120 170 73 118 169 73 116 168 74 114 168 73 113 168 74 112 170 75 111 172 76 112 174 77 113 175 79 114 176 82 116 177 83 117 178 84 118 178 85 119 178 85 120 178 85 121 177 86 120 176 89 120 174 91 121 174 92 120 174 91 120 174 92 121 173 92 123 173 94 127 172 95 129 140 72 143 141 70 142 142 70 142 143 69 141 146 70 142 149 70 140 151 72 140 153 71 140 157 71 141 159 72 141 161 71 141 162 71 140 164 71 139 165 70 138 165 69 136 166 67 134 166 65 132 166 64 130 166 64 129 167 66 127 168 67 126 168 66 125 170 67 124 171 67 122 170 68 121 170 70 118 170 71 115 168 72 114 168 74 113 168 74 112 169 75 111 171 76 110 173 77 112 175 78 112 177 80 113 177 82 115 178 82 116 178 83 116 178 84 116 177 85 118 177 85 119 176 86 119 175 89 118 172 91 119 171 92 119 172 92 119 172 92 120 171 94 122 171 95 126 171 95 130 139 71 143 140 70 142 141 69 142 142 70 141 146 70 142 149 70 142 151 70 140 153 71 140 156 70 140 159 69 141 161 70 141 163 69 141 163 69 140 164 69 140 165 68 138 165 66 136 165 65 133 165 64 131 165 64 130 166 65 129 167 66 126 168 66 124 170 67 123 171 68 122 171 69 119 171 71 117 170 71 114 168 72 114 168 73 112 168 75 111 170 75 112 172 76 112 174 78 112 176 80 112 176 81 112 177 82 113 178 82 114 177 83 115 177 84 115 176 85 116 176 85 117 175 87 117 174 89 118 171 91 117 171 92 117 171 92 117 171 93 118 170 94 121 170 96 124 170 96 128 138 69 143 139 68 142 141 68 143 143 69 142 145 69 142 149 68 141 151 69 140 153 69 139 155 70 140 158 70 140 160 69 140 162 68 140 163 67 141 163 67 140 163 67 138 164 66 136 164 65 134 164 63 132 165 65 130 165 66 129 167 67 126 168 67 124 170 68 122 171 70 120 171 71 118 172 72 114 171 72 113 169 73 113 168 75 112 168 76 111 170 76 113 172 77 113 173 78 113 174 80 112 176 82 113 176 82 114 177 82 114 176 82 113 176 83 114 176 85 115 175 84 114 174 86 115 173 89 116 172 89 115 171 90 115 170 92 116 170 94 117 170 94 120 170 94 122 169 95 126 