P3
50 50
255
99 76 156 100 76 154 103 77 152 105 79 153 108 81 154 109 81 154 109 83 157 108 85 158 107 88 158 105 89 159 106 90 162 107 88 163 107 87 164 110 87 165 112 85 166 113 85 166 113 84 166 114 83 166 114 85 168 114 88 169 113 90 173 112 93 173 110 94 172 109 95 172 108 95 172 107 96 173 106 95 174 105 96 176 103 99 178 100 102 179 99 104 181 99 106 183 97 108 185 97 111 187 97 112 189 97 114 190 97 114 191 97 114 191 99 114 192 100 114 192 102 113 194 106 113 194 108 113 194 110 114 194 113 116 193 113 118 193 113 119 192 113 121 191 113 122 188 111 123 187 97 75 157 98 76 155 102 77 153 105 78 154 106 79 156 107 81 156 108 82 157 108 85 158 107 87 159 106 89 161 106 89 163 105 89 164 105 87 165 108 86 166 109 86 168 110 86 168 110 85 169 111 85 169 112 87 170 111 88 171 110 91 173 109 94 174 108 95 174 107 97 173 106 96 175 105 96 174 103 95 175 103 96 177 102 98 179 99 102 179 97 105 180 97 107 182 95 110 183 96 111 185 95 113 187 94 115 189 95 115 190 96 116 191 99 115 192 100 115 194 102 114 195 105 114 195 107 114 196 110 115 196 113 116 195 114 118 194 114 119 193 114 120 192 115 122 191 113 123 188 96 76 158 98 77 155 102 78 153 104 79 154 105 80 156 105 81 158 106 84 158 106 86 159 105 87 160 106 89 162 105 89 164 103 89 165 102 88 166 103 87 167 105 87 168 107 87 168 108 87 170 109 89 170 110 89 171 110 90 173 109 93 175 107 95 176 106 97 175 106 98 175 104 98 176 104 97 175 102 98 176 101 99 176 101 100 177 99 103 178 97 105 179 95 107 181 95 110 181 95 112 182 95 114 186 94 115 187 95 116 188 96 117 190 98 115 192 99 115 193 102 116 195 103 115 195 106 115 196 110 116 196 113 116 196 115 117 195 116 118 194 116 120 193 116 122 191 115 123 190 96 77 159 98 77 157 101 76 156 103 78 156 103 80 158 103 82 159 104 84 159 104 85 160 103 87 162 103 89 164 102 90 165 101 91 167 100 90 169 101 89 170 102 88 169 103 89 170 106 89 172 107 91 171 107 93 172 107 94 174 106 95 175 105 97 176 105 97 177 104 99 177 102 99 177 100 99 176 101 99 176 100 99 176 98 100 177 97 103 177 97 106 178 96 108 179 96 110 181 96 112 182 96 114 183 95 114 185 96 115 187 96 116 188 98 115 191 100 117 193 101 117 194 102 116 195 105 117 195 109 117 197 112 117 196 114 118 195 115 118 195 116 119 194 117 121 191 117 123 190 95 76 160 97 76 157 100 76 157 100 77 158 101 79 161 101 81 161 102 83 161 102 86 162 101 88 163 101 89 165 101 91 167 100 91 169 100 90 171 101 89 172 101 89 173 101 88 173 104 90 173 105 93 173 105 96 173 104 96 174 103 97 174 103 98 176 103 99 177 102 99 177 101 100 176 98 101 176 98 99 176 99 99 177 97 100 177 97 102 178 96 105 178 96 108 179 95 110 181 95 111 182 96 112 183 96 113 185 97 114 186 97 115 188 98 115 190 99 117 191 100 118 193 102 118 194 105 117 196 108 116 197 111 116 196 112 117 196 114 117 195 115 118 194 117 120 192 117 122 191 94 76 161 96 75 159 98 76 160 97 78 161 98 79 163 99 81 163 99 84 163 100 87 164 100 90 167 100 91 168 100 90 169 100 91 170 100 90 173 100 89 175 101 89 174 100 90 174 100 92 174 101 95 175 101 96 174 101 97 174 102 98 175 102 99 176 101 100 177 101 100 177 100 101 176 98 101 176 97 101 176 97 100 177 96 100 177 95 102 177 95 105 178 94 107 179 94 109 180 94 109 181 95 111 183 97 112 185 96 114 187 97 114 188 99 115 190 100 116 191 101 118 193 102 117 194 104 116 196 106 115 198 109 116 198 112 117 197 113 117 195 115 118 194 116 119 193 116 122 193 94 76 162 95 76 162 96 78 163 95 78 164 96 80 164 97 81 166 98 85 167 98 88 167 98 90 169 99 91 170 99 91 172 98 91 173 99 91 175 99 90 176 97 89 176 97 91 176 98 93 175 99 95 175 99 95 174 99 97 175 100 98 175 100 99 176 99 99 178 98 100 178 96 101 178 95 102 177 94 101 178 94 101 178 94 101 177 93 104 177 93 106 178 93 108 180 93 109 181 93 108 182 95 110 184 95 111 186 97 113 187 98 114 188 99 115 190 101 117 191 101 117 193 102 116 195 103 114 196 105 114 197 108 115 198 109 117 197 112 117 196 113 118 196 115 119 196 115 122 193 94 77 163 94 78 164 94 77 165 95 79 165 96 79 166 97 81 168 97 85 170 98 88 171 98 90 172 98 91 173 97 91 175 97 92 177 96 91 177 96 91 179 96 92 179 96 93 178 96 93 177 97 95 176 98 94 176 97 96 177 97 97 176 96 98 177 96 98 178 94 100 179 92 102 179 91 102 179 91 101 178 90 101 179 91 101 178 91 104 178 90 106 178 91 108 180 92 108 181 92 108 183 94 109 184 95 110 187 95 112 188 96 114 189 97 116 190 99 116 192 100 115 194 101 114 194 101 113 196 103 112 197 105 114 198 107 116 199 109 117 199 111 117 199 112 119 198 113 122 196 93 78 165 92 79 166 93 79 166 94 79 168 96 80 169 97 82 170 97 85 172 97 88 174 97 89 175 95 90 175 94 90 178 94 90 179 94 90 180 94 91 180 94 92 180 94 94 179 94 95 179 93 95 178 94 95 179 95 97 179 94 97 178 93 97 178 93 97 180 92 99 180 91 101 181 89 101 181 87 102 180 88 102 179 90 102 178 91 104 179 90 105 180 91 106 181 91 106 182 90 106 184 92 108 185 92 109 187 94 111 188 94 114 189 96 115 191 97 115 192 98 113 193 99 112 194 100 111 194 101 111 197 104 113 199 106 115 200 107 117 201 109 118 200 110 120 200 110 121 198 91 80 167 91 79 168 93 79 169 95 80 170 95 81 172 95 83 174 96 86 175 94 87 176 92 89 177 91 90 178 90 90 180 92 90 182 93 90 183 93 91 183 92 92 183 91 93 183 90 95 181 90 94 182 91 94 182 92 96 181 92 97 181 91 97 181 89 98 182 89 99 183 87 100 183 85 100 182 86 102 181 87 103 180 88 104 180 88 105 182 88 106 181 89 105 182 91 106 184 91 106 185 91 107 186 91 109 187 91 110 189 92 112 189 95 114 190 96 113 192 97 112 192 98 110 193 99 109 195 99 110 198 102 111 200 103 113 201 104 115 202 106 117 201 107 120 199 107 121 197 90 81 169 90 80 170 92 81 172 94 80 174 94 81 175 94 84 176 93 86 178 92 87 179 90 90 180 88 89 181 88 90 184 89 90 185 91 90 185 91 91 185 89 92 186 88 94 186 87 94 185 88 93 186 88 94 185 88 95 184 88 97 184 87 98 185 86 99 185 85 98 185 85 99 185 84 100 184 86 103 182 87 104 182 87 104 183 86 105 183 86 104 183 87 104 183 89 105 185 90 107 187 90 108 188 88 109 188 88 110 190 89 110 190 91 111 190 94 111 192 95 110 192 97 108 193 97 107 196 98 109 199 100 110 201 100 112 202 102 114 202 104 116 201 105 119 199 105 119 196 90 81 171 90 81 172 90 81 174 92 81 177 93 82 178 93 84 179 92 86 180 90 88 182 88 89 183 87 90 185 87 90 185 88 90 187 89 89 189 89 90 188 87 91 188 86 92 189 84 93 188 85 94 189 85 95 189 84 95 189 84 96 187 83 99 187 84 99 187 84 99 187 83 99 187 84 101 186 85 102 185 86 102 185 85 103 184 85 104 184 85 104 186 86 105 186 87 106 187 89 108 188 89 109 189 87 109 191 87 110 190 88 110 190 89 111 190 91 111 191 92 109 193 93 107 194 95 108 196 96 110 199 97 112 201 98 112 202 100 114 202 102 115 202 103 117 200 104 119 197 90 83 173 90 82 174 91 80 176 92 81 179 92 83 180 92 86 181 91 86 182 89 87 184 88 88 186 86 89 187 86 90 188 88 90 189 88 88 191 88 90 191 86 91 191 86 91 191 84 92 191 82 93 192 82 94 193 82 95 193 82 95 192 81 98 192 81 99 190 82 100 189 82 99 189 82 100 188 84 100 188 84 100 187 84 101 186 83 101 186 84 102 189 85 104 189 87 106 189 87 107 190 87 108 191 87 109 192 86 109 191 88 109 190 89 110 190 90 109 191 91 108 192 91 108 195 93 109 196 94 111 199 94 111 201 95 111 202 97 113 203 99 115 202 101 117 200 101 120 198 90 83 176 91 82 177 91 81 179 90 82 181 89 85 182 89 87 183 88 87 184 88 87 186 87 87 188 85 89 190 85 90 191 86 90 192 86 88 192 85 90 193 85 90 192 85 91 193 84 91 194 82 93 195 80 94 196 80 94 196 80 94 195 81 96 194 81 98 193 81 98 192 82 98 191 83 98 191 83 98 191 83 98 189 83 98 189 82 99 189 82 100 190 84 102 191 85 104 191 85 106 192 85 107 193 85 107 193 85 109 193 87 109 191 87 109 191 89 109 192 89 109 194 89 109 197 89 110 198 90 112 200 91 113 201 92 113 203 95 113 203 97 115 202 98 118 201 98 121 199 90 83 178 90 83 179 90 82 181 89 84 183 89 85 183 88 87 184 88 88 185 87 87 187 85 87 189 84 88 191 84 88 191 84 88 193 84 89 193 83 90 193 83 91 194 82 91 194 81 91 196 81 93 197 79 93 198 80 93 197 80 93 198 80 94 198 81 96 197 81 97 195 82 97 194 83 97 193 83 97 193 82 97 193 82 98 194 81 99 193 81 100 194 82 101 194 83 104 194 84 106 195 85 107 195 84 108 194 84 108 194 85 109 192 86 109 192 87 110 194 86 111 196 86 110 198 86 111 198 88 112 200 88 113 202 90 113 204 93 114 203 95 115 202 95 118 200 95 122 199 91 81 180 90 82 182 90 83 183 90 84 184 89 86 185 88 87 185 87 89 186 86 88 189 84 88 190 84 88 191 83 88 192 82 88 194 82 89 195 80 90 195 80 91 195 79 92 196 79 92 197 78 93 198 77 93 199 79 92 200 79 93 200 80 93 200 81 95 199 82 97 199 83 96 197 83 96 195 83 96 195 82 97 196 81 98 196 81 99 196 80 100 197 81 101 197 81 103 197 83 106 197 84 109 197 84 110 196 83 109 195 83 108 194 83 109 195 83 111 198 83 112 198 83 112 199 84 112 199 85 112 201 87 113 202 88 113 203 89 114 204 91 115 203 93 118 200 94 121 199 92 80 180 91 83 182 91 84 184 90 86 184 90 87 185 89 87 185 87 88 187 85 89 188 83 88 189 83 88 191 82 89 193 82 89 195 80 90 195 78 91 195 78 92 196 77 92 197 77 93 197 76 94 198 76 94 199 77 93 200 79 94 200 80 94 201 82 95 201 84 96 201 84 96 199 84 96 198 83 96 197 83 96 198 83 98 199 81 99 199 80 99 200 80 101 199 80 103 198 83 107 198 84 110 198 83 110 197 83 109 196 81 109 196 81 110 197 79 111 198 79 112 198 79 113 200 81 112 201 83 111 202 84 113 202 84 114 202 86 115 204 87 116 202 89 118 201 91 120 200 93 80 181 92 82 183 91 84 184 91 86 186 91 87 187 89 87 188 86 89 189 84 89 189 82 88 190 81 89 193 82 89 193 81 89 194 80 90 195 78 92 196 76 92 197 75 93 197 75 94 197 75 95 197 76 95 200 77 95 200 77 96 200 80 96 201 83 96 202 84 95 202 86 96 201 86 95 201 85 96 201 84 97 201 83 98 201 80 99 201 80 99 201 80 101 199 80 104 198 82 108 198 83 110 197 82 111 198 81 110 198 80 110 197 80 110 198 78 111 198 77 112 197 78 112 199 79 112 200 81 112 201 82 112 202 81 113 202 82 114 203 84 115 203 86 117 202 89 119 200 92 80 183 92 81 184 91 83 185 91 85 188 91 86 189 90 87 190 87 88 191 84 89 192 81 89 192 80 89 193 79 89 194 79 89 195 78 90 196 77 91 197 75 92 197 74 93 196 74 94 196 74 94 198 75 94 200 76 95 200 77 96 200 79 97 201 83 97 202 84 96 203 87 95 203 87 96 202 86 97 202 84 98 203 82 99 203 81 99 203 82 100 202 81 102 201 80 105 198 81 108 198 82 111 198 82 111 198 81 110 198 80 111 197 79 111 197 77 111 198 76 111 198 77 111 198 78 112 200 78 112 200 79 111 202 79 113 202 80 114 203 82 114 203 86 116 202 88 119 200 92 79 185 91 80 186 90 81 187 91 84 190 92 86 191 91 87 192 88 88 194 84 89 193 81 89 194 79 89 196 78 88 195 77 89 196 77 90 197 76 90 197 77 91 196 75 92 195 76 93 196 75 94 198 76 94 199 77 95 200 79 96 200 81 96 200 83 97 201 85 96 202 88 96 203 88 97 202 87 98 202 84 99 202 82 99 203 83 100 202 82 101 202 81 104 200 80 106 198 80 109 197 81 111 197 80 110 197 79 111 198 78 111 197 77 111 197 76 111 197 76 112 198 76 113 199 77 112 200 77 112 201 76 112 200 78 112 201 78 113 202 82 113 203 85 116 202 87 119 200 91 79 187 91 80 187 91 82 189 91 83 190 91 86 192 89 87 193 87 89 195 86 89 196 83 89 197 79 89 198 77 88 197 77 88 198 76 89 198 77 90 197 77 91 197 78 92 197 77 93 197 78 93 197 78 94 198 80 94 200 82 95 199 85 95 200 86 96 201 87 97 202 89 97 202 90 98 202 88 98 202 85 98 202 84 99 201 83 101 202 82 102 201 81 103 201 81 106 199 80 108 196 79 110 196 78 111 196 77 110 196 76 110 197 76 110 197 75 109 197 75 111 198 74 111 200 74 112 201 75 112 201 76 113 201 76 113 202 78 114 203 81 115 203 83 117 201 85 118 200 91 80 187 91 82 188 91 83 190 91 84 192 91 85 193 90 88 195 89 89 196 87 89 198 84 88 199 80 89 199 78 89 199 77 88 199 76 89 198 76 90 198 77 91 198 79 92 198 80 93 198 80 94 198 81 93 198 83 94 199 85 94 199 88 95 200 88 95 202 89 97 203 90 97 201 91 97 201 89 98 202 86 98 201 84 98 200 82 100 199 82 102 199 81 104 198 81 106 198 80 108 197 78 110 195 76 110 195 76 109 194 75 109 195 73 109 196 73 108 197 74 109 199 73 111 201 73 112 200 73 112 200 75 113 201 75 114 202 78 115 203 79 117 203 81 118 202 84 119 200 90 80 187 90 82 188 91 83 191 92 85 192 91 86 193 91 87 195 89 89 197 87 89 198 84 88 199 80 89 199 78 89 199 77 88 198 77 88 198 76 89 199 78 91 199 80 92 198 81 93 198 82 93 198 83 94 197 85 94 198 87 94 199 88 95 199 90 96 200 91 97 201 92 97 201 91 96 201 88 97 200 87 98 199 84 98 198 82 99 197 80 102 197 81 104 196 81 106 196 80 108 196 78 109 194 76 110 193 74 109 193 73 109 194 71 109 195 71 108 196 71 109 198 70 111 200 71 113 200 72 113 201 74 114 201 75 115 200 77 117 201 78 118 201 81 120 202 83 121 200 90 80 187 90 82 189 90 84 192 90 86 193 92 87 195 91 88 196 89 89 197 86 89 198 83 88 199 80 89 199 78 87 198 78 87 197 78 89 197 77 90 197 79 91 197 81 92 196 82 92 198 83 93 198 85 93 197 86 94 197 88 95 198 89 96 198 90 96 199 91 97 199 91 97 199 91 97 199 89 98 198 88 98 197 84 99 195 81 100 196 81 101 196 81 105 195 82 107 195 81 108 193 79 108 193 75 109 192 72 108 192 71 108 192 70 108 193 69 109 195 68 110 197 68 112 199 70 113 200 72 114 200 74 116 200 74 116 199 75 118 200 78 119 201 79 121 200 81 122 199 90 80 187 89 82 189 90 85 193 91 88 196 91 89 196 90 89 198 88 89 198 86 89 199 83 89 199 80 88 198 78 88 197 78 88 197 78 90 197 78 91 196 80 92 195 82 92 195 83 92 196 84 93 197 85 94 197 87 95 197 88 97 198 89 98 197 89 99 198 90 100 198 90 99 198 89 98 199 89 99 197 87 99 196 84 99 194 82 100 194 81 102 195 82 104 194 82 106 193 81 106 192 79 106 191 75 108 191 72 108 190 71 107 190 69 109 192 69 111 195 67 112 197 68 113 198 71 115 198 73 117 199 74 118 199 75 119 199 75 120 198 77 120 199 79 122 198 80 124 197 90 82 187 90 85 190 90 87 194 90 90 196 89 90 198 88 90 198 87 89 199 85 90 200 82 89 199 81 89 198 79 89 197 78 89 197 78 89 196 79 91 195 81 92 194 82 92 195 84 93 196 85 94 196 86 95 196 87 96 197 87 99 198 89 100 198 89 100 197 88 101 198 88 101 198 87 100 198 86 100 196 85 101 194 84 101 193 82 101 192 81 102 192 81 104 192 81 106 191 80 106 190 79 106 189 75 107 189 72 108 188 71 108 190 69 110 190 68 112 193 68 113 195 69 115 196 71 117 197 73 118 197 75 120 197 75 120 196 75 120 196 76 121 196 78 123 196 79 124 196 91 84 187 91 87 190 91 89 193 90 90 194 89 91 196 88 90 198 86 90 199 85 90 200 83 90 199 82 90 197 80 89 197 79 90 196 79 91 195 79 92 195 81 93 196 82 93 195 84 94 195 86 95 196 87 97 196 86 98 197 87 101 198 87 102 198 87 102 197 86 102 197 86 102 197 85 101 196 83 101 195 83 103 193 83 104 190 81 104 191 80 105 191 80 104 191 79 105 189 78 105 188 77 105 188 76 107 188 73 108 189 71 109 188 69 110 190 69 113 191 68 115 193 69 116 195 71 118 196 73 120 196 75 121 194 77 122 193 76 122 193 76 123 194 77 124 194 78 124 195 89 85 185 89 87 187 89 89 191 89 90 192 89 90 194 88 91 195 86 90 196 85 91 198 84 92 198 83 92 197 81 92 197 80 93 196 79 94 195 80 95 195 81 96 195 82 96 194 84 97 194 87 98 196 87 100 197 87 100 196 87 102 196 87 102 196 86 103 196 86 103 196 84 103 195 83 103 194 82 103 194 82 103 191 81 105 190 80 106 190 79 106 189 79 105 189 78 105 188 77 105 187 76 106 186 75 107 187 72 109 188 70 110 188 69 113 189 68 116 190 68 117 192 69 119 193 71 120 194 73 122 193 76 124 193 76 124 192 76 123 191 76 124 192 76 125 193 76 125 193 87 86 183 87 87 184 87 89 188 88 90 191 88 91 192 88 92 194 86 93 195 85 92 196 84 93 196 84 95 196 83 95 196 81 96 196 81 96 195 81 98 194 82 99 194 83 99 193 84 99 194 86 100 195 88 101 195 87 102 196 87 103 195 86 103 195 86 104 194 85 105 193 83 104 192 82 104 192 81 103 192 81 104 190 81 104 189 80 105 188 78 106 188 77 105 187 76 105 187 77 106 186 76 107 186 74 109 186 71 110 186 70 112 187 68 114 188 68 116 189 68 118 191 70 120 191 72 122 192 73 124 191 75 123 191 75 123 191 75 123 190 75 123 190 75 125 191 74 126 191 84 86 181 84 88 183 84 90 186 86 91 188 86 93 190 85 94 192 85 95 194 83 95 195 82 95 195 83 97 194 84 98 194 83 99 195 82 100 195 83 101 195 81 101 194 82 101 194 84 100 194 86 100 195 88 102 195 88 102 195 87 104 194 87 105 193 86 105 191 84 106 191 83 105 190 82 105 189 82 104 189 82 104 188 81 104 186 81 105 185 78 106 186 77 106 186 76 106 186 76 107 187 75 107 187 72 109 186 71 111 187 69 114 188 68 114 187 68 116 188 69 119 189 71 121 190 73 123 190 73 123 190 73 123 189 73 124 189 73 124 189 74 124 189 73 124 189 73 125 189 82 88 179 82 90 182 82 91 185 83 93 188 83 95 189 83 96 190 82 96 193 82 97 193 81 98 193 82 99 193 83 101 193 83 102 193 83 102 194 82 103 195 82 102 194 82 101 194 84 101 193 85 100 194 88 100 194 88 102 193 88 103 192 87 104 191 85 104 190 83 105 189 83 105 187 82 105 186 82 105 187 82 104 186 82 104 183 80 105 183 79 105 183 77 106 185 76 106 186 76 107 187 74 108 188 71 111 187 70 112 188 69 114 188 68 115 188 68 118 188 69 119 187 71 121 188 72 122 189 72 124 189 72 125 188 73 124 187 72 124 188 73 124 188 72 123 188 72 124 189 81 88 179 80 91 182 80 94 183 81 95 186 82 97 189 81 98 191 80 98 192 81 100 192 80 100 193 81 100 193 83 101 193 84 102 194 83 103 194 82 103 195 82 102 194 83 102 194 83 102 192 86 101 193 88 101 192 88 101 191 88 102 190 87 103 189 86 103 188 85 103 186 84 103 185 82 104 184 81 105 184 81 104 183 81 104 181 80 105 181 79 106 182 77 106 183 76 106 184 75 107 185 74 108 185 71 111 186 69 112 188 69 114 188 69 115 189 68 118 188 70 119 187 70 120 187 71 121 188 71 123 187 72 124 186 72 124 186 72 124 187 73 123 188 73 124 188 71 123 188 79 89 178 79 92 181 79 94 183 79 97 185 79 98 188 80 99 191 80 99 191 81 100 192 80 100 193 81 101 193 83 102 193 84 103 193 83 103 194 82 103 194 82 104 193 83 104 192 83 104 192 86 103 191 89 102 190 88 103 189 89 103 188 88 103 188 87 103 186 86 102 185 84 102 184 82 102 183 80 103 182 80 103 180 80 105 180 80 106 180 80 108 179 78 109 180 77 108 181 76 109 184 73 110 185 70 112 185 68 112 187 67 114 187 68 115 188 67 118 188 68 118 187 69 118 185 71 120 186 72 121 186 72 123 185 71 123 186 72 124 187 72 123 187 73 123 188 72 122 187 78 90 176 78 92 179 77 96 181 78 98 183 78 98 186 79 98 189 80 99 190 80 99 192 81 100 192 81 101 191 83 102 192 83 102 193 84 102 193 83 103 193 82 105 192 82 105 192 83 105 192 86 104 191 88 104 189 88 104 187 89 104 186 88 103 186 86 103 185 86 103 184 84 102 184 81 103 182 80 104 181 80 105 180 80 106 179 80 108 178 80 109 177 78 110 178 77 109 180 74 109 183 71 112 183 69 113 183 67 114 185 66 115 185 66 116 186 67 117 186 68 117 185 68 118 185 69 119 185 70 120 185 70 122 186 70 123 185 71 124 187 72 123 187 72 122 188 70 121 188 78 92 174 77 94 176 78 98 178 78 98 181 78 98 184 79 98 187 81 99 189 81 99 190 82 100 190 82 101 189 82 101 190 82 102 191 83 102 191 83 104 192 83 106 191 83 106 190 83 105 190 86 106 189 87 106 187 87 106 187 86 105 186 85 104 185 85 104 183 85 103 183 83 103 184 81 104 182 80 104 181 79 105 179 79 107 178 80 109 177 79 111 176 77 110 177 76 111 179 73 111 180 70 114 179 67 115 181 66 115 182 64 116 183 65 115 184 66 116 184 67 117 183 68 118 183 69 120 184 68 119 186 68 120 186 69 121 186 71 122 187 72 122 187 71 121 188 70 120 188 77 93 172 77 95 174 77 97 177 77 97 179 78 97 182 80 97 185 81 98 186 82 97 188 82 98 188 82 100 187 82 101 187 83 101 188 83 101 188 84 103 189 83 104 190 84 105 189 84 106 188 85 106 187 87 107 187 86 106 186 84 106 185 83 105 184 83 104 184 83 104 183 81 103 183 79 103 181 78 104 180 76 106 178 77 109 178 77 111 176 77 112 176 75 111 177 74 113 178 72 114 178 70 116 178 67 117 179 66 117 181 66 116 183 66 116 184 66 116 183 67 118 183 68 119 182 68 119 182 67 119 184 67 120 185 69 120 185 71 121 185 72 121 186 73 121 188 72 121 188 76 93 171 77 95 173 77 97 175 77 96 179 79 96 181 81 95 183 81 96 185 81 96 185 82 97 184 81 98 183 82 99 184 83 100 184 84 101 184 84 102 185 83 104 186 85 106 186 84 107 185 85 107 185 85 108 185 85 107 185 83 107 185 83 106 183 83 104 183 82 104 183 81 104 182 77 104 180 76 105 179 75 108 178 76 110 177 76 111 175 75 112 175 73 113 176 72 115 176 70 116 176 68 116 177 67 116 178 67 117 180 67 116 181 67 117 182 67 117 183 68 118 183 68 118 182 67 119 182 68 118 183 69 119 184 70 121 183 71 121 184 72 120 184 73 121 186 73 122 188 77 94 170 77 95 172 78 95 174 79 95 177 81 94 179 83 95 181 83 95 180 83 96 180 82 97 180 82 98 180 82 99 181 82 101 180 84 102 180 84 103 182 84 105 181 85 107 182 85 107 183 85 108 182 84 108 183 84 109 184 83 107 183 83 106 182 83 104 181 83 103 181 82 104 181 77 105 179 75 107 178 74 109 178 74 111 176 74 113 175 73 113 175 72 113 175 70 115 174 70 115 174 68 117 175 67 117 177 67 117 178 68 117 179 68 117 180 68 116 181 68 117 181 68 118 181 68 117 181 69 117 182 70 117 183 71 119 182 72 120 182 73 120 184 73 120 186 74 121 187 76 93 169 77 94 171 78 93 173 79 93 175 80 93 176 82 94 177 83 94 177 82 95 177 83 96 177 84 99 178 83 100 178 83 100 177 84 101 177 85 102 177 85 105 177 84 106 179 84 107 179 83 107 179 83 108 180 84 108 181 83 107 181 83 106 181 84 105 180 83 105 180 81 105 179 78 107 178 75 108 177 73 109 177 72 111 176 71 113 175 71 113 174 71 113 174 69 114 173 68 115 174 67 117 174 67 119 176 68 119 177 68 118 177 68 117 178 69 117 180 68 117 180 68 116 179 70 116 179 70 117 180 71 117 181 72 117 181 73 119 182 74 121 183 74 121 185 74 121 186 76 92 168 77 93 169 78 92 170 79 92 171 80 93 172 82 93 173 83 94 174 82 95 174 82 96 174 84 98 174 84 99 175 84 100 175 84 101 174 85 102 174 85 103 174 84 104 175 83 106 176 82 107 176 82 108 177 83 107 178 83 106 178 83 107 178 83 106 179 82 107 178 80 106 176 78 107 175 76 107 175 73 108 175 71 110 175 70 113 175 69 113 174 69 115 174 67 115 173 67 116 173 68 117 173 68 118 175 68 120 176 68 119 177 67 120 178 67 118 178 67 117 177 68 116 177 70 116 178 71 116 178 71 116 178 73 116 179 73 118 180 74 119 182 74 121 183 74 122 183 75 92 165 77 92 167 78 92 168 80 92 168 81 92 168 82 94 169 81 95 170 81 96 171 82 97 172 82 98 172 83 100 173 83 101 173 84 102 173 84 102 173 83 102 173 83 103 173 83 105 174 82 106 175 82 106 176 82 106 177 82 106 176 83 107 176 83 107 175 82 107 175 81 107 174 78 108 174 76 108 174 73 109 175 71 110 175 71 112 175 69 114 174 68 115 174 68 116 172 68 117 172 68 118 172 68 117 173 67 118 175 67 119 176 67 119 178 67 118 178 68 117 177 70 117 176 70 116 177 71 115 178 72 115 177 73 115 177 72 116 179 72 118 181 73 119 182 72 120 182 76 92 162 77 92 163 77 91 165 79 91 166 80 92 166 80 93 167 80 95 168 80 97 170 81 98 172 81 99 171 82 100 172 82 102 172 83 102 172 82 102 170 82 102 171 83 104 172 82 106 172 82 106 174 81 106 175 81 106 176 81 106 175 83 108 174 82 108 174 82 110 173 81 110 173 78 110 173 76 110 173 73 110 173 71 110 172 69 112 172 68 114 172 68 115 173 68 116 171 68 118 172 69 119 173 68 118 174 67 117 175 67 118 176 68 119 177 68 118 178 68 116 177 69 116 177 71 115 176 72 115 177 72 114 177 73 115 176 71 116 177 71 118 179 72 119 180 72 119 180 74 91 161 75 91 161 76 91 162 79 91 163 80 91 164 81 91 166 80 94 167 79 97 169 79 98 170 79 100 171 81 101 171 81 102 170 81 103 169 81 103 169 82 103 170 83 103 172 82 106 172 82 107 173 80 107 174 81 107 175 81 108 174 80 109 174 80 110 173 80 111 173 80 111 172 78 111 172 75 110 171 72 110 171 69 110 171 68 112 170 68 114 171 68 116 170 68 118 170 69 119 171 70 118 172 68 117 173 67 116 173 66 117 176 67 119 176 69 118 177 69 117 177 69 116 176 70 115 176 72 115 175 73 115 176 71 115 175 71 116 177 71 117 178 72 118 179 72 118 179 74 89 159 75 90 158 77 90 159 79 90 161 80 90 162 79 91 164 79 94 166 78 96 167 77 98 169 78 99 168 79 100 167 79 102 167 79 103 167 79 103 167 81 103 168 83 103 170 82 106 172 81 107 173 81 109 172 81 109 173 80 110 174 79 111 174 79 111 173 79 111 172 79 113 172 77 112 172 74 112 171 71 111 171 70 111 171 69 113 170 69 114 171 69 116 170 68 118 169 69 119 170 69 117 170 68 116 172 66 117 174 66 118 174 67 118 175 69 118 176 69 118 175 69 117 174 70 116 173 70 116 173 71 116 174 72 115 174 71 115 176 71 116 177 71 117 176 71 117 177 76 87 156 76 88 157 77 89 157 77 89 159 78 90 161 79 91 163 78 93 164 77 95 165 77 95 166 76 98 165 77 100 165 76 101 164 77 103 165 78 103 166 80 103 167 82 104 168 82 106 170 81 109 171 81 111 170 81 113 170 80 113 172 79 113 173 78 113 173 78 113 173 78 115 173 76 113 173 74 112 172 72 112 172 71 113 171 71 114 170 70 114 170 70 116 170 70 118 170 69 119 169 69 118 170 67 118 172 67 118 173 67 119 173 68 119 174 69 119 175 69 118 174 68 118 172 68 117 171 69 117 171 70 117 171 70 117 173 70 115 175 70 116 175 70 116 176 70 115 177 76 85 154 76 86 155 76 89 156 75 90 158 76 91 160 77 92 161 78 94 164 76 95 164 76 95 164 76 98 164 75 100 163 75 101 163 75 101 165 77 102 165 80 103 165 81 104 167 82 107 167 80 110 169 81 113 170 81 115 169 80 115 169 79 115 171 79 116 172 77 116 172 76 116 172 75 115 171 73 114 172 71 114 172 70 114 171 71 115 171 70 115 171 71 117 169 70 119 169 69 120 169 68 120 170 67 119 170 67 119 172 68 120 172 69 120 173 68 119 172 68 118 172 68 118 170 69 117 169 69 117 170 69 118 170 69 117 172 70 116 175 69 116 176 68 117 176 70 115 177 75 83 153 75 86 154 73 89 155 74 89 156 75 91 158 76 92 161 75 93 162 74 95 162 74 97 161 74 98 161 73 99 162 73 101 162 74 101 163 76 101 164 79 102 165 80 104 166 80 107 167 80 110 167 79 113 168 80 116 168 79 117 168 78 117 169 76 117 170 74 118 172 73 117 171 72 117 170 72 117 170 71 116 172 71 115 172 70 115 171 69 117 169 69 119 167 69 120 167 68 120 167 67 120 168 67 119 169 68 120 170 68 119 170 68 119 171 68 118 169 68 119 169 69 118 169 70 118 168 69 118 168 69 118 170 69 116 172 70 115 174 69 115 174 69 115 175 69 115 175 75 83 151 73 86 151 73 87 152 72 89 153 72 91 156 74 93 158 74 94 158 73 96 158 72 97 158 73 98 159 72 99 159 72 100 160 74 102 161 75 101 162 77 103 163 78 105 163 79 107 164 78 110 164 77 113 165 77 115 166 76 118 166 76 118 166 74 119 168 73 119 169 73 120 170 72 120 169 72 118 169 72 117 169 70 117 170 69 118 168 68 120 167 67 121 166 67 122 166 67 121 167 66 121 169 67 120 169 68 119 169 68 120 170 68 119 170 67 120 167 68 120 166 69 119 167 70 118 167 70 117 167 71 118 169 70 117 171 70 116 172 69 115 172 70 115 173 71 115 173 75 83 150 74 85 149 73 87 150 72 90 151 73 92 154 73 94 155 72 95 155 72 96 156 71 98 156 70 98 156 71 98 156 72 100 157 74 100 158 74 102 159 75 104 159 75 106 159 77 109 160 77 111 161 75 113 162 74 115 164 75 118 165 75 120 164 74 120 165 73 120 166 73 121 168 73 121 168 72 120 167 71 119 166 69 118 167 68 120 166 66 121 165 65 122 165 66 123 166 67 122 168 66 121 168 66 120 169 67 119 169 67 118 168 67 119 167 67 120 166 67 119 165 68 118 165 70 117 166 72 117 167 72 117 168 72 115 170 70 116 170 70 115 171 71 115 172 72 115 172 77 82 148 76 85 147 74 87 148 73 89 150 73 92 152 73 93 153 71 96 154 70 97 155 71 98 155 70 99 155 70 99 155 72 99 155 74 99 155 73 101 155 74 104 157 75 107 157 76 110 158 76 112 159 75 114 160 74 116 161 74 118 163 74 120 162 74 122 162 74 122 164 74 122 165 73 122 166 72 122 165 70 121 164 69 120 165 66 121 165 66 121 164 65 122 164 66 121 166 66 120 168 66 120 168 66 119 167 65 118 167 65 117 166 65 118 165 65 119 164 66 118 163 68 117 165 70 117 166 72 115 166 73 115 167 71 115 169 70 116 168 70 116 168 71 116 168 72 116 169 