P3
50 50
255
155 150 62 157 149 63 158 149 64 159 150 64 161 151 63 162 151 63 163 150 65 163 150 65 164 151 66 167 151 67 169 153 66 171 154 66 172 154 68 173 156 68 175 157 70 176 156 71 176 155 71 176 155 70 177 155 69 177 157 69 176 158 70 176 159 73 175 160 73 174 159 73 173 159 72 172 157 72 171 156 73 170 154 74 169 153 75 169 151 76 168 150 77 167 149 77 168 149 77 167 147 78 167 146 77 166 147 76 163 146 75 162 147 75 160 146 75 160 145 75 161 145 73 162 145 72 162 145 72 165 146 72 165 147 75 166 148 76 166 151 75 167 153 74 168 155 72 169 156 72 154 147 59 156 148 60 158 148 60 159 150 61 161 151 61 162 150 62 162 149 64 163 148 64 164 148 64 167 149 66 170 152 66 171 152 65 172 153 66 174 154 66 173 154 67 175 153 69 176 153 69 177 153 68 177 153 67 177 155 67 176 158 69 176 158 71 175 158 73 174 158 73 174 157 73 173 156 73 170 156 73 169 155 74 169 154 75 169 152 77 167 152 78 167 152 77 167 151 78 167 149 77 167 148 76 166 147 74 164 148 74 163 148 74 161 148 75 161 147 75 162 147 75 163 146 75 163 147 74 164 147 73 165 150 73 166 150 75 167 152 74 168 153 73 169 155 72 169 156 71 155 145 57 156 146 57 157 147 58 159 147 59 161 148 59 163 147 61 163 147 63 164 147 64 165 146 65 167 147 66 170 149 65 172 149 65 172 149 65 172 150 65 172 150 66 175 151 68 176 151 68 176 151 67 177 153 65 177 154 66 177 155 67 177 156 69 176 156 70 175 156 71 174 155 72 174 156 74 171 156 74 170 155 75 169 153 75 169 153 75 167 153 76 167 153 75 167 152 75 166 151 75 166 149 73 168 148 72 166 148 72 165 149 71 163 149 73 162 148 75 164 147 76 164 146 76 165 147 74 165 148 74 165 150 73 165 152 74 167 153 73 168 153 71 170 154 71 170 155 70 156 141 56 157 142 56 158 145 57 160 145 59 161 145 59 163 145 61 164 146 62 165 145 64 166 145 66 169 145 67 171 147 67 171 146 66 171 146 66 171 146 64 172 146 65 174 148 65 175 149 64 177 150 63 178 151 65 178 153 66 177 153 66 176 153 67 176 153 69 176 154 70 175 153 71 176 153 73 174 154 73 172 152 73 169 153 75 169 152 75 169 152 75 169 152 75 168 152 73 167 151 72 167 151 72 168 150 71 168 150 69 167 150 70 165 149 72 163 148 75 164 147 75 165 147 75 166 147 75 166 148 74 165 149 73 166 151 73 168 152 72 170 153 71 171 153 70 173 154 69 154 139 55 157 140 56 158 141 56 161 142 58 162 142 60 162 144 61 162 144 62 164 145 64 166 145 65 170 144 66 170 143 67 171 144 66 170 144 66 171 144 64 172 143 63 174 145 64 175 146 63 177 148 63 179 149 64 180 150 65 179 151 66 178 151 66 177 151 68 177 152 68 176 152 70 176 152 71 175 152 72 172 151 71 170 152 72 170 153 72 169 152 73 169 151 72 169 152 71 169 152 70 169 152 69 170 153 68 170 152 67 168 151 69 166 150 71 164 149 72 165 147 73 166 147 74 168 147 74 168 147 74 168 149 73 168 151 71 169 152 71 171 152 70 173 152 69 173 153 70 154 138 54 156 138 55 159 140 56 161 140 58 162 141 60 162 142 61 161 143 63 164 144 64 165 144 65 169 142 66 170 142 66 170 142 66 171 142 65 172 141 64 173 142 61 175 143 63 176 144 64 179 145 63 179 146 64 181 147 65 180 148 66 179 147 66 179 148 67 178 150 67 178 150 68 177 151 69 175 151 70 173 150 69 171 151 69 171 151 70 171 151 69 170 151 69 170 151 68 171 151 67 172 151 68 172 152 67 172 151 67 170 150 69 167 149 71 166 149 71 166 147 71 168 148 73 168 147 74 169 147 74 169 148 73 168 149 73 169 150 72 172 150 71 174 151 70 174 153 71 154 135 53 156 136 55 159 137 57 161 139 58 162 140 60 162 141 61 161 141 63 163 142 64 165 142 65 168 141 66 169 140 66 171 140 65 172 139 64 172 138 62 175 140 61 176 142 63 177 142 63 180 142 64 180 143 64 181 144 66 180 144 67 180 145 68 180 146 68 180 147 68 178 149 68 177 148 68 175 148 69 174 149 68 172 149 67 172 150 67 172 150 67 171 149 66 172 149 66 172 149 65 174 149 66 175 151 66 174 151 67 171 150 68 169 150 69 167 148 70 167 147 71 169 147 72 169 147 72 169 146 73 169 146 73 170 147 74 172 148 73 174 150 73 174 152 71 174 154 70 154 133 52 156 134 54 158 135 57 160 137 58 162 138 59 161 139 61 162 139 63 163 139 64 166 139 66 169 138 66 170 137 66 172 137 65 173 137 63 174 138 62 175 140 62 177 141 62 178 140 63 180 141 63 181 140 64 181 140 66 181 142 67 181 143 69 180 143 69 180 145 68 179 147 68 178 147 68 175 147 68 173 147 67 173 147 65 173 148 66 174 149 65 174 148 65 174 147 65 175 146 65 175 148 65 176 150 66 175 150 67 173 149 68 171 149 68 169 147 68 169 147 69 170 147 69 169 147 71 169 146 71 170 144 73 172 146 73 174 148 73 174 149 72 174 152 69 174 155 68 154 132 51 157 133 54 159 133 56 160 135 58 162 136 60 162 136 60 163 136 62 166 135 63 168 135 64 170 134 64 171 134 65 172 135 64 174 135 63 175 136 62 176 138 62 177 138 63 178 138 63 179 138 63 181 138 64 183 139 65 183 141 66 182 142 68 182 142 69 180 142 68 179 144 68 179 145 68 176 145 67 174 146 67 175 145 66 174 146 65 176 147 64 175 146 63 176 145 63 177 145 64 177 146 64 176 147 64 176 147 65 173 148 66 173 148 66 172 148 66 173 147 67 172 147 69 171 146 69 170 145 71 172 144 72 173 144 73 174 146 73 173 148 71 173 151 69 172 153 68 154 128 50 157 130 53 160 131 56 161 132 58 161 132 59 162 132 59 164 132 59 166 131 60 168 131 61 169 131 62 171 131 63 172 132 62 174 134 62 175 135 62 176 136 62 176 136 63 177 135 63 179 136 63 180 136 62 182 138 63 184 139 64 183 140 66 182 139 67 180 139 67 179 142 67 178 142 67 177 142 66 176 144 65 175 144 66 176 144 64 177 144 62 177 144 61 178 143 62 178 142 63 179 144 64 178 144 63 177 144 63 175 145 64 174 147 65 175 147 66 174 147 68 173 146 68 173 144 68 174 143 69 174 143 69 174 143 71 173 144 71 172 145 70 171 148 69 170 150 69 156 126 50 158 127 52 160 128 54 162 129 56 162 129 57 163 130 58 164 130 59 165 130 59 168 130 58 169 130 60 171 130 60 173 131 61 175 133 62 176 134 62 177 134 63 176 134 63 177 133 62 179 133 63 180 135 62 182 135 61 184 137 62 184 139 63 182 138 66 180 138 66 179 140 66 178 140 65 177 141 65 177 142 65 176 141 65 175 141 64 177 142 62 177 143 60 179 142 61 179 142 62 179 143 62 179 144 62 178 143 63 177 143 63 177 144 64 177 146 66 176 147 66 176 146 66 177 144 66 177 141 67 176 141 69 176 140 70 175 141 71 172 143 69 170 146 69 169 149 71 157 124 50 160 125 52 162 125 53 163 125 55 162 126 56 163 128 57 164 128 57 166 128 58 167 128 57 169 128 57 171 129 58 172 129 60 174 130 60 177 131 62 179 131 61 178 131 61 178 130 61 180 132 61 182 133 61 183 134 62 184 136 63 184 138 63 183 137 65 182 137 65 181 137 64 180 138 64 177 140 65 176 140 64 176 140 64 175 140 63 176 139 62 177 140 61 180 141 61 182 142 61 182 143 62 181 143 62 180 142 63 180 143 63 180 142 65 179 143 66 179 145 66 180 144 66 180 143 65 180 140 67 178 139 69 177 139 71 175 141 71 174 142 71 171 144 71 171 147 72 158 123 49 161 123 50 162 123 52 163 124 53 163 124 54 164 125 56 165 126 57 166 127 56 168 127 56 169 126 55 171 126 56 173 126 57 176 126 59 178 128 59 180 129 60 180 130 60 180 130 59 180 130 59 181 131 59 183 133 61 184 135 61 184 136 62 183 135 63 182 136 63 181 136 63 181 136 63 179 138 63 177 139 64 177 139 64 177 139 62 178 139 61 179 139 62 181 140 60 184 141 61 185 142 61 185 141 62 184 141 62 182 141 63 181 140 64 182 141 66 182 142 66 183 141 65 183 140 65 181 139 68 179 138 70 178 139 71 177 140 71 176 142 71 173 144 70 172 147 71 158 120 48 160 120 49 162 121 52 164 121 53 165 122 53 167 123 54 166 124 55 167 125 55 170 126 54 171 125 53 172 124 55 174 124 56 177 125 57 179 126 57 180 126 58 180 127 59 180 128 59 180 128 58 181 129 58 183 132 59 184 134 60 184 133 61 184 133 62 183 134 62 182 136 63 181 135 63 180 136 62 180 138 63 180 138 64 180 138 63 180 138 61 181 137 61 182 137 60 185 138 61 187 140 61 187 140 62 187 140 62 184 139 63 183 139 65 183 139 66 182 139 66 183 138 65 183 138 66 183 137 68 180 136 69 179 138 71 178 139 70 177 142 69 175 144 70 174 147 72 159 119 48 161 118 49 163 119 51 165 119 53 167 119 53 169 119 53 168 120 54 170 122 54 172 123 54 174 124 54 175 122 54 177 123 55 178 122 55 179 123 53 180 124 55 181 125 55 182 127 56 182 128 57 183 129 57 183 131 58 184 131 59 184 131 60 184 132 61 183 132 62 182 134 62 182 134 62 181 135 62 181 137 63 182 137 63 182 137 63 183 137 62 183 136 61 184 135 61 186 137 62 187 139 62 189 139 62 188 139 62 186 138 64 185 137 66 185 136 66 183 136 65 183 135 65 183 136 67 183 135 68 181 135 68 179 136 70 178 139 69 177 141 69 176 144 70 174 147 72 159 118 47 161 117 48 163 116 50 165 115 52 168 116 52 170 115 53 171 116 54 172 118 54 173 120 54 176 121 53 177 121 53 178 121 52 179 121 52 181 121 52 182 122 52 182 124 53 182 125 54 182 127 55 182 129 56 183 130 57 184 130 57 184 131 59 183 131 60 182 132 61 181 134 61 181 134 61 182 135 62 182 136 61 182 136 63 183 135 64 184 135 63 184 134 62 185 134 62 186 136 62 187 137 63 189 137 63 188 136 63 187 135 65 187 136 66 186 135 66 185 133 65 185 132 65 185 132 67 183 132 66 182 134 66 179 137 68 177 138 67 176 141 68 176 144 69 174 147 70 161 115 45 162 114 47 164 113 49 167 113 51 170 113 52 172 113 54 173 114 53 174 115 53 176 117 53 178 119 52 178 119 51 179 119 50 180 119 51 182 120 51 182 121 51 181 122 51 181 123 52 182 125 53 183 127 54 182 128 56 183 129 55 183 131 57 182 131 58 182 132 59 181 133 60 183 132 60 182 133 60 183 134 61 183 135 63 182 135 64 184 134 64 185 134 64 186 134 63 186 135 63 187 134 64 188 133 64 188 133 64 187 133 66 187 133 66 187 132 66 187 131 66 186 130 65 185 130 65 184 131 65 182 134 65 179 136 65 177 139 65 177 142 66 176 144 67 174 147 68 162 113 43 163 113 45 165 113 48 169 113 49 172 113 51 173 112 53 174 112 53 175 113 53 177 114 52 179 116 52 180 117 50 181 117 50 182 117 49 183 119 48 184 120 49 182 121 51 181 123 52 183 124 53 183 125 54 182 127 54 182 129 54 182 130 55 182 131 56 182 131 58 183 131 59 183 131 59 183 131 60 184 133 61 184 132 62 183 134 63 184 133 63 185 134 64 185 134 63 186 134 63 186 133 63 188 131 64 188 130 65 188 131 67 188 131 67 188 131 66 188 131 66 188 130 66 187 129 65 186 131 66 183 133 65 180 136 64 179 139 64 178 142 63 177 144 64 175 146 66 165 112 42 167 111 44 169 111 46 171 111 47 174 111 49 175 111 51 176 111 52 178 111 51 179 113 52 182 113 52 183 114 50 183 114 48 184 115 49 184 116 47 184 117 48 183 119 51 183 121 52 183 122 53 184 124 54 183 126 53 182 128 53 183 128 55 183 128 57 184 129 57 185 129 58 184 129 58 184 130 59 184 130 60 185 131 60 184 132 61 185 132 62 185 133 62 184 132 62 185 132 61 186 130 61 187 128 63 187 128 65 188 127 66 189 128 66 188 129 66 189 129 66 188 129 66 188 129 66 187 131 66 185 132 65 183 135 65 182 138 63 179 141 63 178 142 63 176 143 64 168 111 41 169 110 42 172 109 43 175 110 46 175 109 48 176 110 50 178 111 51 180 110 50 181 111 50 184 111 51 186 112 50 186 112 49 186 113 48 186 115 47 185 115 48 184 117 50 184 118 52 184 119 54 183 122 54 183 124 53 182 124 53 184 126 54 185 127 56 187 127 56 187 126 58 186 126 58 185 127 60 185 126 60 186 129 60 186 130 60 184 130 60 183 130 61 184 129 60 185 128 60 185 127 60 186 125 61 186 125 63 187 125 65 189 126 66 189 127 67 188 127 66 188 126 66 188 128 66 187 129 66 186 132 66 185 135 66 183 137 64 180 140 63 178 141 62 177 142 63 170 109 40 171 109 42 174 109 43 175 109 45 176 109 48 176 110 49 180 110 50 182 109 49 184 108 50 186 108 51 188 109 50 188 110 49 188 111 49 189 112 49 188 114 48 185 116 49 185 117 51 185 119 54 183 120 54 183 121 54 184 121 54 185 122 54 188 124 55 190 125 57 190 125 58 188 124 59 187 123 59 187 124 59 187 127 59 187 129 59 185 128 59 183 127 58 183 127 59 184 125 59 183 124 59 185 123 62 186 123 64 187 124 65 189 125 67 190 126 67 189 125 66 188 125 66 187 127 66 187 127 65 186 131 66 185 133 66 184 135 65 182 139 64 180 141 63 180 141 64 173 109 40 174 109 41 176 108 43 177 108 46 177 109 48 178 110 49 181 109 49 183 108 48 186 107 49 188 107 49 189 107 51 190 108 50 190 110 49 191 112 50 190 114 49 188 116 50 186 117 52 185 117 54 186 117 55 187 118 56 187 119 56 188 119 57 191 121 58 193 122 58 193 122 58 191 121 58 190 120 58 189 122 58 188 125 60 187 126 59 186 127 57 185 127 57 184 125 57 184 124 58 183 123 59 186 122 60 187 123 62 188 125 65 190 125 66 189 124 66 190 124 66 189 125 66 188 126 66 187 128 65 186 130 64 186 132 65 186 133 65 184 137 65 183 139 64 182 140 64 174 108 41 176 109 42 177 109 44 178 109 46 179 108 47 180 109 47 182 107 47 184 107 48 187 106 48 189 105 48 190 105 50 191 106 50 191 108 50 193 111 50 192 112 50 190 114 50 188 113 52 187 113 55 188 115 56 190 115 57 191 116 57 193 116 58 195 118 58 196 119 59 195 119 59 193 118 58 191 119 58 191 120 58 189 122 60 187 123 59 185 124 57 185 125 57 184 124 57 184 124 58 185 123 58 186 123 61 187 122 62 188 124 62 188 124 64 188 124 65 188 124 65 189 124 66 187 125 66 187 126 65 187 128 65 187 130 65 186 132 66 185 136 65 185 138 64 183 139 65 176 107 42 177 108 43 178 109 44 180 109 44 181 107 47 182 107 47 183 106 47 185 106 48 187 105 48 190 103 48 192 104 49 193 104 49 193 106 48 194 109 49 194 110 49 192 109 50 190 109 52 190 110 55 190 112 58 193 113 58 194 113 58 196 113 58 197 114 57 198 115 58 197 117 58 195 117 58 193 118 58 193 119 59 192 120 59 188 121 59 185 121 58 184 123 58 184 123 58 186 123 59 186 122 59 186 121 60 187 121 61 187 123 61 187 123 62 187 123 63 188 123 65 188 123 65 188 124 67 188 126 66 188 126 65 188 128 66 187 131 65 186 135 65 186 137 65 185 138 66 177 105 45 178 108 44 180 109 44 182 109 45 182 107 47 184 106 47 185 105 47 186 104 47 188 103 48 190 103 48 193 103 49 194 102 47 195 104 47 195 106 47 194 106 48 193 106 49 192 105 51 192 107 55 193 109 58 195 109 60 197 109 60 197 110 58 198 111 58 197 111 58 196 113 58 196 115 58 194 116 59 194 118 59 192 119 59 190 120 59 187 120 59 186 120 59 186 121 59 188 121 59 188 120 60 187 121 60 187 122 60 186 122 61 186 122 62 186 122 62 188 123 64 188 125 65 187 126 67 188 126 67 188 127 66 188 128 66 188 131 66 187 133 66 187 135 67 187 138 67 178 105 46 179 108 45 181 108 45 183 107 46 185 106 47 186 105 47 186 104 47 187 103 47 189 102 48 191 102 48 193 103 48 195 101 46 196 102 46 196 103 46 196 102 47 196 103 49 195 103 51 194 105 55 195 106 58 197 107 60 199 108 60 199 108 60 198 108 60 197 108 59 196 109 59 196 111 59 195 113 61 193 116 61 193 117 61 190 118 61 188 118 60 187 118 59 188 118 60 189 117 60 189 119 61 188 120 61 186 120 61 185 121 61 185 122 61 186 122 62 187 123 63 186 125 64 187 126 65 188 127 67 188 128 67 189 129 68 190 132 67 188 134 68 188 135 69 189 138 71 180 104 47 181 104 45 182 105 47 186 105 47 187 104 47 186 104 47 186 103 47 187 103 48 189 102 48 191 102 49 193 101 48 194 100 47 195 100 46 196 99 46 196 100 46 196 100 48 197 102 51 197 103 54 196 104 57 198 105 59 200 106 61 201 106 62 200 106 62 198 106 61 198 106 61 198 108 61 196 110 62 195 112 62 194 114 62 191 115 61 189 115 60 189 115 60 190 115 59 189 116 59 188 117 60 188 118 60 186 119 61 185 120 61 186 121 62 186 122 61 186 123 63 186 125 64 187 126 65 189 127 67 189 129 68 190 130 68 190 133 68 190 135 69 189 137 71 189 138 72 181 101 48 182 101 47 185 101 48 187 101 47 189 101 47 188 101 47 188 102 48 189 102 48 190 101 49 192 100 49 193 100 48 195 99 47 195 99 46 196 98 46 196 98 48 196 100 49 198 100 50 198 102 52 198 103 56 199 104 59 202 104 61 202 103 63 202 102 63 201 102 63 199 103 63 198 105 62 198 108 61 197 110 61 195 112 61 192 113 61 190 113 60 190 113 60 190 114 60 190 115 58 189 116 58 189 117 60 187 118 61 185 119 62 186 120 64 186 121 63 186 124 64 186 125 64 187 127 65 189 128 68 191 130 69 190 130 70 190 132 70 190 134 71 190 137 72 190 139 73 183 100 49 184 99 49 186 98 48 189 98 48 190 98 47 190 98 47 190 99 48 189 99 49 190 99 49 192 98 50 194 99 49 196 99 49 195 98 47 196 97 47 197 98 49 198 99 51 199 99 51 200 101 53 200 102 56 200 102 58 203 100 60 203 99 62 202 99 64 201 100 64 200 100 64 199 102 62 199 104 61 198 107 60 194 109 61 191 110 61 190 110 60 190 110 60 190 112 60 190 113 60 190 114 60 189 115 62 187 117 63 186 118 64 185 119 65 186 122 66 186 124 66 187 125 66 188 127 67 189 128 68 190 130 70 190 131 70 191 133 72 190 135 72 190 138 74 191 139 75 185 99 50 186 97 49 189 97 49 190 96 48 191 95 47 190 97 47 191 97 48 190 97 49 190 96 49 192 97 49 194 97 50 196 98 50 197 99 50 198 99 50 200 98 51 200 98 51 201 99 52 201 100 54 202 101 56 202 100 57 203 98 59 202 97 61 202 97 63 201 98 64 199 100 64 199 101 62 198 103 62 197 105 61 195 106 61 192 106 61 192 107 61 192 109 61 191 110 61 190 111 61 190 114 61 191 116 63 190 118 65 188 119 65 187 120 67 186 122 67 186 123 67 187 125 67 189 127 69 190 129 70 191 130 71 192 132 71 193 133 72 193 136 74 193 139 76 193 140 77 187 96 52 189 96 51 191 95 50 193 96 49 192 95 48 193 95 49 193 96 48 193 95 48 192 95 48 192 96 48 195 97 49 198 98 50 199 98 51 200 99 52 202 98 53 202 98 52 202 99 53 203 99 53 204 99 55 204 98 57 203 98 57 203 97 58 203 97 60 203 99 62 200 100 63 198 101 62 197 104 62 196 104 61 194 104 61 194 105 61 194 107 62 193 108 62 192 109 62 192 110 62 192 113 63 192 116 64 191 118 66 190 120 68 188 120 68 186 121 66 186 123 67 187 125 68 188 128 70 190 129 71 191 131 71 193 133 73 195 135 74 195 137 76 194 139 78 193 140 78 189 96 55 191 94 52 193 94 51 194 94 51 195 94 50 195 94 50 196 94 49 195 94 48 195 95 48 195 96 49 197 96 50 199 97 51 200 99 52 202 100 53 203 99 54 203 99 54 204 98 54 204 97 54 204 97 55 204 97 57 203 97 57 204 98 57 205 98 59 203 99 61 201 100 62 198 102 63 197 103 63 196 103 63 196 105 64 195 104 64 194 105 63 193 107 63 194 109 63 194 111 64 193 113 66 192 115 67 191 116 69 190 118 69 189 120 69 188 121 68 187 123 68 187 126 70 188 129 71 190 130 72 191 132 73 193 134 75 195 135 76 195 137 77 195 138 80 194 139 80 189 94 56 192 93 53 194 92 52 194 93 52 195 93 52 196 92 51 198 93 50 198 94 50 198 94 50 198 95 50 199 95 52 200 96 52 201 98 54 203 100 55 203 100 56 203 100 57 203 98 57 204 97 57 204 96 58 205 96 59 204 97 59 204 97 59 204 97 60 204 97 61 201 98 63 198 100 63 197 101 65 197 101 66 197 102 66 195 103 67 195 105 67 195 107 66 195 109 67 195 110 69 193 112 69 192 114 69 191 116 69 190 118 70 190 120 69 190 122 69 189 124 69 189 126 71 190 129 73 191 131 74 192 132 76 194 133 77 195 134 77 195 136 79 195 137 81 194 138 82 188 94 57 191 93 54 193 93 54 194 92 54 195 91 53 197 92 52 199 94 53 200 94 53 200 93 54 201 94 55 201 94 55 202 96 55 202 95 56 203 97 56 204 98 57 203 98 59 203 97 58 203 96 59 204 96 61 205 96 62 205 97 62 205 97 62 204 96 62 204 95 62 202 96 64 199 98 65 199 100 66 198 99 66 197 100 68 196 101 69 195 103 70 195 105 70 195 107 72 194 109 72 194 112 72 192 114 72 191 115 72 191 117 72 191 118 71 191 120 69 192 123 71 191 124 73 192 128 75 193 131 76 195 132 78 196 134 79 196 134 81 196 134 81 196 134 83 195 136 85 188 94 60 190 93 57 192 92 56 194 91 56 195 90 56 196 91 56 199 92 55 201 93 56 202 92 57 203 94 57 203 95 58 203 95 58 203 94 58 203 95 59 203 96 60 203 96 61 202 97 61 202 96 62 205 97 63 206 97 63 205 98 65 205 98 65 204 96 64 202 96 64 201 96 65 200 96 67 199 97 68 199 97 69 197 99 71 197 99 71 196 102 72 196 104 73 196 105 74 194 108 75 193 111 75 192 112 74 192 114 74 191 116 74 192 117 72 192 118 72 194 121 72 195 125 73 196 127 75 197 131 77 198 132 80 198 133 81 198 133 83 197 134 83 197 134 85 197 137 86 189 92 62 191 92 60 192 89 60 194 89 60 196 89 59 197 90 58 199 90 58 202 90 58 204 92 59 204 93 60 205 94 61 204 95 61 203 95 60 202 96 61 203 95 63 202 96 63 202 97 63 203 98 64 204 98 65 204 98 65 204 98 66 203 98 67 203 97 67 202 96 68 201 96 68 200 95 70 198 96 70 197 97 72 197 97 73 197 98 73 196 100 74 196 102 75 196 105 77 196 107 77 194 109 78 193 111 77 192 113 77 192 115 76 193 117 75 195 119 73 196 120 74 198 124 74 199 127 74 199 130 77 200 131 80 201 133 82 201 133 83 201 134 84 200 136 87 199 138 89 192 92 65 193 91 63 193 89 63 195 88 62 196 89 61 199 89 60 201 89 60 204 90 61 205 91 62 206 92 63 206 94 63 207 94 63 205 95 64 203 95 65 203 95 64 202 95 65 203 96 65 203 97 66 203 98 67 204 98 67 204 99 68 203 98 69 203 98 69 203 96 70 201 95 71 200 95 71 198 95 73 198 96 74 197 96 75 196 97 75 195 100 75 194 102 75 196 104 77 196 106 78 194 108 79 194 110 79 193 112 79 192 114 77 194 117 76 196 119 74 197 121 74 200 124 75 201 127 75 201 129 77 201 131 80 202 132 82 203 134 83 203 135 84 202 137 88 202 139 91 193 91 66 194 90 65 195 88 65 196 87 64 197 88 63 201 88 61 203 88 62 206 89 63 207 90 65 207 91 66 207 93 66 207 93 67 206 94 68 205 95 68 204 96 66 204 94 68 203 94 69 203 95 69 204 96 69 205 97 70 205 97 70 205 97 71 204 97 71 202 95 71 201 94 73 199 94 73 199 94 73 198 95 75 197 95 76 196 97 76 195 99 77 194 102 77 195 103 78 195 105 78 195 107 79 194 109 80 194 111 79 194 113 78 194 116 76 196 118 75 199 120 75 202 123 76 203 126 76 202 129 78 203 130 81 204 132 82 205 135 83 204 136 85 203 138 87 203 140 90 195 91 67 195 89 66 197 88 66 199 87 65 200 86 64 202 85 64 206 86 64 207 87 66 209 88 68 208 90 68 208 92 70 207 93 71 206 94 71 205 95 70 204 94 69 205 92 69 204 92 71 204 92 72 205 94 72 204 95 73 205 95 73 205 95 74 204 95 73 201 93 73 199 93 73 198 92 74 199 93 73 198 94 75 196 95 76 195 97 77 194 99 78 194 101 78 194 102 79 194 104 80 194 106 81 193 108 81 194 110 81 195 113 79 195 115 77 197 118 77 201 120 78 203 122 79 203 125 78 203 127 80 204 129 82 205 132 84 205 134 84 204 137 87 203 139 89 203 140 91 195 89 70 196 87 69 198 86 69 200 85 68 202 85 66 204 84 66 206 84 67 208 86 69 209 87 71 208 90 72 208 91 72 207 92 73 206 92 73 205 93 73 204 91 72 204 90 71 204 91 73 205 92 75 205 92 74 205 93 75 205 94 76 205 93 76 203 92 75 201 91 76 200 91 75 199 91 74 198 92 74 197 93 75 195 95 77 195 97 78 195 100 79 194 100 78 193 102 79 193 104 81 191 106 81 191 108 82 193 110 82 195 113 81 196 116 80 197 118 81 201 121 82 204 122 82 205 124 81 205 127 82 205 129 83 205 131 85 205 134 87 204 137 89 205 139 92 203 141 94 195 88 74 197 87 73 199 87 73 202 85 72 203 84 70 205 84 69 206 84 69 207 85 71 208 87 73 208 88 74 207 89 74 207 90 74 206 90 74 205 90 76 205 90 74 206 90 75 206 91 77 206 91 78 206 92 78 206 92 77 206 92 77 205 92 78 203 90 78 202 89 77 201 89 76 200 89 75 199 90 74 198 92 76 196 94 78 194 97 79 194 99 80 194 101 80 193 102 80 192 104 81 192 107 83 192 109 84 194 111 83 194 114 84 195 116 84 197 118 85 201 119 86 204 121 85 205 123 84 206 126 84 205 129 86 204 131 88 205 134 90 205 137 92 205 139 94 203 142 97 196 89 78 198 88 78 200 88 78 202 86 76 204 85 75 205 84 73 206 84 72 207 84 73 207 86 75 207 87 76 205 87 76 206 88 75 205 89 75 205 90 76 206 89 76 206 90 77 207 91 78 207 92 79 207 91 79 206 91 79 205 90 78 204 89 79 204 88 79 203 88 79 202 88 77 201 89 76 200 89 75 198 92 76 196 94 78 195 96 79 194 99 80 194 101 80 195 103 81 194 105 82 193 108 83 193 110 84 194 111 85 194 114 87 196 116 88 198 117 89 201 118 90 204 120 89 206 123 87 207 127 87 207 129 89 206 131 91 205 134 94 205 137 96 204 140 98 203 142 101 196 90 82 199 88 81 201 87 81 202 86 80 203 85 78 204 85 78 204 84 77 206 83 76 207 85 78 207 85 77 206 86 77 206 87 78 205 87 78 205 89 79 205 89 78 205 89 78 207 90 78 207 91 78 208 90 78 206 90 79 205 89 78 205 87 79 206 88 79 205 88 79 204 88 78 203 89 77 202 90 76 200 92 77 197 94 78 196 96 80 196 99 81 195 102 81 196 103 81 196 105 82 196 108 84 195 110 87 195 112 89 196 113 91 198 115 92 200 117 92 202 117 93 204 119 94 206 122 92 207 126 92 207 129 93 208 133 94 206 136 97 206 138 100 205 140 102 204 142 103 196 91 85 198 89 85 199 87 84 201 86 82 201 85 81 201 84 82 202 83 82 204 83 80 206 84 80 206 85 80 206 85 79 205 85 79 204 85 81 204 87 80 204 88 79 205 88 79 206 88 78 208 89 78 207 90 78 206 89 79 206 88 80 205 87 80 206 88 79 205 89 79 206 88 79 206 90 79 204 93 79 201 94 79 198 95 80 197 97 81 196 99 82 196 101 83 198 104 83 198 106 83 197 108 85 197 111 88 198 113 90 200 114 93 200 115 95 201 115 96 203 116 96 205 118 97 207 120 97 208 124 97 208 128 97 207 132 97 205 135 99 204 137 102 206 139 104 205 141 105 195 92 88 196 89 87 197 87 86 198 86 85 198 85 84 198 84 85 200 83 84 202 83 85 203 83 83 204 83 81 204 83 80 203 83 80 202 84 81 202 86 82 203 87 81 205 87 80 206 88 79 207 88 78 207 88 79 207 88 80 207 87 81 207 87 81 206 88 81 206 89 81 206 90 80 207 92 79 205 94 80 202 95 80 200 96 81 198 98 81 198 101 83 198 102 85 200 103 85 199 106 85 199 109 87 199 110 89 200 112 91 201 114 94 203 114 96 203 114 98 204 115 99 205 117 100 206 119 100 207 122 101 207 126 100 205 130 100 203 134 102 204 136 104 205 139 106 205 140 106 195 91 91 196 89 89 195 87 87 195 86 87 196 85 87 196 83 87 198 82 87 199 83 86 200 83 85 201 83 84 201 82 83 200 82 82 201 83 82 201 85 82 202 86 81 204 86 80 205 87 80 207 87 81 207 87 81 206 88 82 207 88 82 206 88 82 207 89 82 207 91 82 207 92 81 207 94 80 206 95 81 203 96 81 201 98 83 201 100 84 200 101 85 200 102 86 200 103 86 199 106 86 200 109 88 200 109 91 201 111 93 203 113 95 204 114 98 204 114 99 205 114 101 206 116 102 206 118 104 206 120 105 204 124 104 202 128 104 202 132 106 202 135 107 205 138 108 205 139 109 194 91 91 194 90 90 194 88 90 195 87 90 194 85 89 196 82 89 195 82 89 196 82 88 197 83 88 198 83 86 198 83 85 199 83 84 198 84 83 199 85 83 201 85 82 203 85 81 205 86 82 205 87 83 206 88 84 206 88 84 206 89 85 206 90 84 206 91 84 206 91 83 205 92 81 206 93 80 206 94 82 204 97 84 203 99 85 202 100 86 201 101 87 201 102 87 201 103 88 200 105 90 202 108 91 202 109 92 202 111 94 203 112 96 204 112 98 205 114 101 206 113 104 206 114 105 205 116 107 204 119 107 203 122 108 201 126 107 200 130 109 201 134 111 203 137 111 205 138 111 193 89 91 193 91 92 194 90 92 193 87 92 194 85 92 195 83 92 195 82 90 195 82 90 196 82 90 197 83 89 198 84 86 197 84 84 197 85 84 198 85 83 199 86 82 202 87 81 204 87 83 205 87 85 204 88 85 205 89 85 207 90 86 206 90 84 205 91 83 205 91 82 205 92 82 206 93 82 206 94 84 205 97 85 203 99 86 203 98 87 202 100 89 201 101 90 201 102 91 200 104 91 202 106 92 201 108 93 203 110 95 203 110 97 203 111 100 205 112 103 205 113 106 205 115 108 204 116 109 202 118 110 202 121 111 202 125 111 201 128 113 202 132 114 203 136 114 203 138 115 191 91 90 192 91 92 193 90 92 194 88 92 195 86 93 196 84 93 195 82 92 195 81 91 196 81 92 197 83 90 197 84 87 198 84 85 197 84 83 198 86 82 199 87 83 201 87 82 203 88 84 204 89 86 203 90 87 203 91 86 204 91 86 204 91 85 204 91 84 203 92 83 203 93 83 204 93 84 204 95 85 204 96 87 203 98 87 203 99 88 202 100 90 201 101 92 201 102 93 201 104 93 201 106 94 201 107 96 203 109 98 204 110 99 205 110 101 206 112 104 206 113 107 204 116 109 203 118 111 203 119 111 203 122 113 202 125 116 201 128 116 201 131 117 201 135 117 202 137 117 190 92 91 192 91 92 194 89 92 195 87 93 195 85 94 195 83 94 195 82 94 195 80 94 195 81 94 196 84 92 197 84 89 197 83 86 196 85 84 197 86 84 199 87 85 200 88 84 200 88 86 200 89 88 200 91 88 201 91 87 202 93 86 202 92 85 200 92 85 199 93 85 200 93 85 202 94 85 202 96 86 202 97 88 203 98 89 202 99 89 202 100 92 200 101 94 200 103 95 199 104 95 200 104 96 202 106 98 205 108 100 205 110 101 205 110 104 206 111 106 205 113 108 203 115 111 203 119 112 203 120 113 203 123 115 201 125 116 200 128 117 199 131 119 200 134 121 200 136 121 