P3
50 50
255
186 176 97 187 177 98 188 177 97 189 178 96 191 177 96 193 176 96 194 176 97 193 175 99 192 174 99 192 173 98 194 172 98 194 170 97 195 170 99 197 169 100 198 167 103 199 167 108 198 168 112 197 168 116 198 167 120 197 166 124 196 166 127 198 166 128 198 166 130 199 167 134 199 166 136 201 166 137 201 167 138 202 168 139 203 167 138 204 166 138 205 167 139 206 168 140 206 169 140 207 169 142 205 171 145 204 171 147 204 172 148 203 171 150 201 173 151 200 174 153 201 172 156 200 171 159 198 170 160 197 170 159 197 169 159 196 167 160 197 165 162 198 163 164 198 161 166 197 160 167 189 174 95 189 176 95 190 176 95 191 177 94 192 178 95 193 176 96 193 176 96 193 176 97 193 175 98 194 173 97 196 172 96 197 172 96 197 171 95 199 170 98 199 168 101 201 168 104 201 169 109 200 169 114 199 168 117 198 167 122 198 166 125 199 167 126 200 167 130 201 167 133 201 167 135 202 168 137 203 168 138 203 168 139 204 168 139 206 167 139 209 169 139 209 169 140 209 170 141 208 170 144 206 172 147 205 173 149 204 173 150 203 174 152 202 173 154 201 173 155 201 172 159 199 171 161 197 170 163 196 170 161 196 169 161 197 167 161 197 164 163 198 162 164 198 160 165 198 159 167 191 172 93 191 172 92 192 173 93 193 174 94 193 175 95 193 176 95 193 175 95 193 175 95 194 174 96 196 173 95 198 173 94 199 173 94 199 172 94 201 170 95 201 170 98 202 169 102 202 171 107 203 171 111 201 170 115 200 169 120 199 168 123 199 168 127 200 168 130 202 168 132 203 168 135 204 168 137 205 169 138 205 169 138 207 170 139 208 171 140 209 170 140 211 171 140 209 171 142 207 171 144 206 172 147 205 173 151 205 174 153 204 174 154 202 173 156 202 172 159 201 171 162 199 170 164 197 170 163 196 170 162 196 169 163 197 167 162 198 164 163 199 161 165 199 160 166 199 158 168 192 171 92 193 171 90 193 171 91 193 172 92 194 173 93 193 174 93 193 175 94 194 174 95 196 173 95 198 172 94 200 173 93 200 173 92 201 173 92 202 172 94 203 171 97 203 171 100 204 173 106 204 173 109 204 172 114 202 171 119 200 171 122 200 170 126 202 169 129 205 169 131 205 168 133 206 168 137 207 170 137 208 171 138 208 172 138 208 173 141 210 173 142 210 173 143 210 172 144 208 172 146 207 172 148 206 173 151 207 173 155 206 174 156 203 173 157 203 172 160 201 171 163 199 170 164 197 170 164 196 169 164 195 168 164 196 166 164 197 164 165 199 161 166 200 159 166 201 158 168 192 169 91 193 170 90 193 170 90 193 170 90 194 172 91 193 173 92 194 173 93 195 172 93 197 172 93 198 172 93 200 172 92 201 172 92 201 172 91 202 171 93 203 171 96 205 171 99 206 174 104 205 174 107 205 174 112 203 173 117 203 173 120 202 171 125 204 170 128 206 169 129 207 170 133 207 171 136 209 171 137 209 172 138 209 173 139 210 173 140 212 174 142 212 173 144 211 173 145 210 171 147 208 172 148 206 173 151 207 173 154 207 174 157 204 173 158 203 172 160 201 170 163 199 169 166 198 169 166 197 168 166 196 166 167 196 165 167 198 163 167 199 161 166 201 160 167 201 158 168 191 168 90 191 169 89 192 169 88 194 169 89 195 171 89 195 171 91 195 171 92 195 170 91 197 170 92 198 170 91 199 170 90 201 170 91 202 169 92 202 170 93 202 171 95 204 172 99 205 174 103 205 174 106 205 176 110 205 176 114 205 176 118 205 174 122 206 172 126 208 172 129 208 172 132 209 171 135 209 172 137 209 173 137 210 174 138 211 174 140 213 172 142 213 172 145 212 172 147 211 171 147 210 171 149 208 173 152 208 174 155 208 174 157 206 173 160 204 172 162 201 169 164 200 168 166 199 166 167 197 166 168 196 166 168 196 165 169 198 163 169 200 161 168 201 158 168 201 157 169 191 167 89 191 167 89 192 166 88 194 166 87 196 167 89 196 167 91 197 167 90 197 167 90 196 167 90 198 168 90 199 169 89 200 168 89 201 168 90 202 169 90 202 170 93 205 173 98 205 175 101 205 175 105 206 177 109 206 177 113 207 177 116 207 175 120 208 173 124 209 172 127 210 172 130 212 172 134 211 172 136 211 174 136 211 174 138 212 172 141 214 171 144 214 170 145 213 171 147 212 170 148 211 171 149 211 171 152 211 172 155 210 172 157 208 171 160 206 170 162 204 167 163 202 165 166 200 163 168 198 164 170 196 164 170 197 163 170 198 162 170 201 160 170 203 158 169 202 156 170 190 165 87 191 165 88 192 165 88 195 165 88 196 164 88 197 164 90 198 163 90 197 164 90 197 164 89 198 167 89 198 168 88 200 167 88 201 168 87 202 168 88 205 169 91 206 173 96 206 175 100 205 176 104 205 177 107 205 177 111 207 177 116 208 177 119 208 175 123 209 174 126 211 174 130 212 173 132 212 171 134 212 172 136 212 172 138 212 172 142 213 171 144 213 170 144 214 170 146 213 170 148 213 170 149 213 171 152 213 170 155 211 170 157 209 169 159 207 168 162 205 166 164 203 164 166 202 163 168 199 163 170 198 163 171 197 162 170 199 159 170 202 158 170 203 156 170 203 155 170 190 163 87 190 163 87 192 163 88 195 162 87 196 161 87 196 161 89 197 160 90 198 161 90 197 163 88 197 166 88 198 168 87 199 168 87 202 169 87 203 169 88 205 169 90 207 172 94 207 175 97 205 176 102 204 176 106 205 176 110 207 177 115 208 177 118 208 176 123 209 175 127 211 175 130 212 174 132 212 173 134 214 173 137 213 174 139 213 172 141 212 170 143 213 171 144 213 170 146 214 170 147 215 170 148 216 170 151 215 170 155 213 169 157 211 168 160 210 168 162 207 166 165 205 163 167 203 161 168 202 159 169 200 160 169 199 160 169 200 158 168 202 156 169 202 155 169 203 156 170 189 162 87 190 161 87 191 160 86 192 159 85 194 159 85 196 159 87 196 158 89 197 159 88 197 162 87 197 166 86 198 167 87 198 167 87 201 167 87 203 167 88 204 168 90 207 170 92 208 173 96 206 174 100 205 175 105 205 176 110 206 176 114 207 176 118 208 176 123 210 176 126 212 174 128 213 174 131 213 174 135 213 174 136 213 174 139 212 172 141 212 172 143 211 171 145 212 170 146 213 169 147 214 169 148 216 169 153 216 168 156 215 168 158 213 167 161 211 166 163 209 165 166 207 162 168 205 160 169 202 158 168 201 157 167 201 158 168 201 157 168 201 155 169 203 154 169 203 154 169 189 161 87 189 160 87 189 158 86 189 156 84 192 157 84 194 157 85 195 158 87 195 159 88 197 161 87 196 163 88 197 164 87 199 165 87 200 165 87 203 167 87 204 167 89 206 170 92 207 172 95 207 173 99 206 174 104 205 175 109 206 175 113 207 176 118 208 175 123 209 174 125 211 174 128 213 173 130 213 173 133 213 174 137 212 174 138 211 174 140 210 173 143 209 173 145 210 172 146 212 169 148 214 169 150 216 169 154 218 168 157 216 167 160 214 166 163 212 165 165 210 163 167 208 161 169 206 158 169 204 157 168 203 155 167 202 156 167 202 155 168 202 154 168 203 153 168 203 153 168 188 160 86 188 158 86 187 157 85 187 155 84 189 155 83 192 156 83 192 157 85 193 158 86 195 160 87 196 161 87 198 161 87 199 161 87 200 162 87 201 164 88 203 167 89 204 169 93 205 170 96 205 172 99 205 174 104 205 175 109 206 175 113 207 175 118 207 175 121 209 174 124 211 174 127 212 172 130 212 172 133 212 173 136 210 174 139 210 175 141 209 173 144 209 172 146 209 171 147 210 169 150 213 169 153 215 168 155 216 166 157 216 165 160 215 164 163 213 163 165 211 161 169 210 159 169 209 157 169 206 155 168 205 154 167 203 153 167 203 153 168 203 153 168 204 152 167 204 152 167 187 158 85 186 157 84 185 155 84 185 153 84 187 155 83 189 156 82 190 157 82 191 158 83 193 159 85 195 159 86 196 159 87 198 159 87 198 160 88 198 163 89 200 166 91 203 168 94 203 170 96 203 172 99 203 175 104 204 176 108 204 176 113 205 175 118 205 175 121 208 174 126 209 173 129 210 173 131 210 171 133 210 172 136 208 172 139 207 173 142 208 172 145 208 171 147 209 170 150 210 170 153 212 168 153 214 166 155 215 164 158 216 163 161 215 162 164 214 162 166 213 159 169 211 157 170 211 155 169 209 153 168 207 153 167 206 152 166 205 153 166 204 153 167 204 151 167 205 150 167 185 157 85 184 156 84 183 154 83 183 153 83 185 154 83 187 156 82 187 157 83 188 158 83 190 157 85 192 157 86 194 158 88 195 158 89 195 159 90 196 162 92 196 165 93 199 168 95 201 170 96 201 172 99 202 175 104 202 176 109 203 176 114 203 176 118 203 175 122 205 174 126 206 173 130 207 171 131 208 171 134 208 170 136 207 171 138 207 171 142 207 171 146 207 170 149 209 169 153 210 167 155 211 165 154 212 164 157 215 163 160 216 161 163 215 160 165 214 160 166 213 158 168 212 156 169 212 153 170 210 151 170 208 151 169 207 151 168 207 151 167 205 152 167 205 150 167 206 148 167 184 156 85 183 154 85 182 153 84 181 153 82 182 154 83 183 155 82 185 157 83 184 156 85 188 157 85 189 157 87 189 157 89 191 159 91 192 159 92 192 162 94 193 164 95 196 166 97 198 169 97 199 173 100 199 175 104 199 176 110 201 176 114 203 176 119 203 175 123 203 175 126 203 174 130 204 172 132 205 170 135 205 169 137 204 170 140 206 170 143 206 169 147 207 169 150 209 167 154 210 164 156 210 161 156 212 160 158 214 160 161 215 159 164 215 158 165 214 158 167 213 157 167 212 155 168 211 152 169 211 150 169 209 150 170 208 150 170 208 150 168 208 150 168 207 149 167 207 147 168 183 156 84 183 153 84 182 154 83 181 153 83 180 154 82 181 155 82 182 155 83 183 155 85 185 155 86 186 156 88 187 158 90 188 158 91 188 158 92 188 160 94 190 163 96 192 166 97 195 169 98 196 171 100 197 173 104 197 175 109 199 177 113 200 176 118 201 176 123 201 176 126 200 174 130 201 172 133 202 171 135 201 170 139 202 169 142 204 170 145 205 170 149 207 168 152 207 165 155 208 162 157 210 159 159 212 158 160 213 157 162 215 156 164 215 155 166 214 154 167 214 154 168 212 153 168 211 152 169 210 150 170 211 149 171 210 149 172 209 149 171 207 148 170 207 147 169 207 145 169 183 156 83 183 153 84 182 153 83 180 153 82 179 154 81 178 154 83 180 154 84 180 154 85 181 154 86 183 155 88 185 156 89 185 158 91 185 159 93 185 160 94 186 163 96 189 167 97 191 169 99 192 170 102 193 172 105 194 174 109 196 176 113 196 177 118 198 176 123 200 175 127 199 173 130 199 172 134 198 172 137 198 171 140 200 169 143 203 169 146 205 168 150 206 167 153 207 164 156 206 161 160 208 158 161 211 156 162 212 155 163 214 154 165 215 153 166 215 153 168 214 153 168 212 153 169 211 152 170 210 149 170 210 149 172 210 148 174 208 147 174 206 146 174 205 145 172 206 142 171 182 156 82 183 154 82 181 154 82 179 154 81 178 154 82 177 154 83 178 154 84 178 154 85 178 154 87 180 154 87 181 155 88 181 157 91 182 159 92 183 160 94 184 163 97 186 166 99 186 169 102 188 169 105 191 170 106 191 171 110 193 173 115 193 174 120 195 175 124 197 173 127 198 172 131 197 172 134 197 170 138 196 169 142 198 168 146 200 168 149 202 167 152 204 166 156 204 163 160 204 160 163 206 157 164 208 156 164 210 154 164 212 153 166 214 153 167 215 152 168 213 152 170 211 151 171 210 150 172 210 150 172 210 149 174 209 148 175 207 147 175 206 144 174 206 143 174 206 141 173 182 155 82 180 154 81 180 154 81 179 155 81 177 155 81 176 154 81 177 153 83 176 153 84 176 154 86 177 154 87 178 155 88 179 156 90 180 157 92 180 160 94 180 163 97 182 165 101 183 166 104 185 168 108 188 169 110 190 170 112 190 171 117 191 172 122 192 171 124 195 172 129 197 171 132 198 171 134 196 169 138 195 166 143 196 166 147 197 166 152 199 165 155 202 164 159 202 162 162 204 159 164 205 156 166 205 154 165 207 153 166 209 152 167 212 152 168 212 152 170 211 151 172 210 150 174 209 150 175 209 149 174 209 147 175 208 146 175 207 145 176 206 142 175 205 142 174 206 141 173 181 156 83 179 155 82 178 154 80 177 155 81 177 154 80 175 154 81 174 154 83 174 153 84 175 154 86 175 154 86 175 155 88 176 156 89 177 157 92 177 159 93 177 162 97 179 164 101 182 165 105 184 166 109 186 167 112 187 169 114 188 171 118 189 171 121 190 171 125 193 171 128 195 171 133 197 170 135 196 167 139 195 165 143 195 164 148 195 164 153 197 164 157 199 162 161 201 159 164 202 157 166 203 156 167 203 153 166 205 153 166 207 152 168 210 152 169 210 152 171 209 152 173 208 150 174 208 149 175 208 147 176 209 146 174 207 144 175 207 144 176 206 142 176 205 141 175 206 140 173 180 158 83 179 156 82 177 155 81 176 155 80 175 155 80 174 154 82 174 154 84 172 153 86 174 154 86 174 154 86 174 154 88 175 155 90 174 156 92 175 160 94 175 162 97 177 164 101 180 165 105 183 164 110 184 166 114 185 167 116 187 169 120 187 171 122 189 170 125 191 169 128 193 168 133 194 166 136 194 165 141 193 164 143 193 163 148 193 161 155 195 161 159 196 160 162 198 157 165 198 155 166 199 154 168 200 152 167 201 151 168 203 151 170 206 152 171 208 151 172 207 150 173 206 150 176 206 148 176 206 146 176 207 144 174 207 142 175 206 142 176 205 140 176 205 139 176 206 139 173 180 159 84 179 157 84 176 156 82 175 156 80 174 157 81 173 156 84 172 156 85 172 155 85 172 154 85 173 155 86 172 155 88 173 155 89 173 156 93 173 159 95 175 161 97 176 163 101 177 165 105 180 165 110 182 165 113 183 166 117 185 168 121 187 169 123 188 168 126 188 167 129 189 165 133 190 163 137 191 163 141 191 162 144 191 161 150 191 159 156 192 158 160 194 157 163 195 154 166 195 152 167 196 152 169 197 151 170 199 149 170 201 150 171 204 152 172 206 151 173 206 149 173 205 148 175 204 146 174 204 144 175 204 142 175 205 140 175 206 140 176 205 139 177 204 138 176 204 137 173 178 159 86 178 160 85 175 159 83 174 158 82 173 158 83 172 159 85 171 158 85 172 156 86 172 154 87 171 154 87 172 155 89 173 156 90 173 156 93 174 157 96 175 159 99 175 162 102 176 164 106 179 164 110 181 165 113 183 166 116 184 167 120 186 168 124 186 167 127 187 165 129 187 162 133 187 161 136 187 161 141 188 160 145 188 159 151 188 158 156 189 157 160 191 154 164 192 152 168 192 151 168 193 150 170 194 150 171 196 149 171 199 149 172 201 151 173 203 149 174 204 148 173 204 146 173 204 144 174 203 142 175 204 140 175 205 139 175 206 139 178 205 139 177 205 136 175 204 136 173 176 161 85 175 161 85 174 161 84 173 160 83 172 161 84 171 161 85 170 159 86 171 157 87 173 155 88 172 154 89 172 154 91 172 154 92 172 156 93 172 157 96 173 159 100 174 161 104 176 162 106 179 162 109 180 165 113 183 166 117 184 167 121 185 167 125 185 166 128 185 164 131 185 162 135 185 160 138 185 158 141 185 158 146 186 158 151 186 156 156 188 156 160 190 153 165 190 150 168 190 149 170 190 148 171 192 149 172 193 148 172 195 149 173 198 148 175 200 148 174 202 146 173 203 145 173 204 144 173 204 141 175 204 139 176 206 138 176 207 138 177 207 137 176 206 134 175 206 132 173 174 161 84 172 162 84 171 160 84 172 159 84 172 160 85 171 161 86 171 161 86 171 158 87 172 156 89 172 156 90 171 156 92 170 156 94 171 157 95 171 159 97 173 160 100 174 161 104 176 162 105 177 162 108 181 164 113 182 166 118 183 167 121 184 166 124 184 165 128 185 163 132 184 160 135 184 159 139 183 158 142 182 157 148 183 155 153 185 155 157 186 155 160 188 152 165 189 150 167 188 148 169 188 147 171 190 147 173 191 147 173 192 148 173 195 148 175 196 148 174 199 146 173 201 144 173 203 142 173 204 140 175 204 137 176 207 136 176 208 136 177 208 136 177 207 134 176 207 131 175 174 160 84 172 160 84 171 160 84 172 159 85 172 159 86 171 161 88 171 161 88 171 159 88 172 157 89 170 157 91 170 158 94 170 159 96 172 159 97 172 160 99 173 161 101 173 162 103 175 162 105 176 162 109 178 163 113 180 164 117 182 165 121 183 165 125 183 165 128 183 163 132 183 161 136 183 160 139 182 157 144 181 155 149 183 154 154 184 153 157 185 152 161 186 151 164 187 148 167 187 147 169 188 146 170 189 144 172 191 144 173 192 146 173 194 146 173 195 145 173 197 144 173 199 141 172 201 139 173 202 137 174 203 136 176 205 134 177 207 134 177 207 134 178 208 133 178 208 130 176 172 159 84 171 158 84 170 159 84 169 158 86 169 159 87 169 161 88 169 160 88 170 158 89 170 158 90 169 158 92 168 160 94 169 161 96 171 161 98 172 161 101 172 162 103 173 162 105 174 161 107 174 162 111 177 163 114 179 163 117 180 164 121 182 163 125 182 162 128 181 162 132 182 160 136 181 159 140 181 155 145 181 153 150 184 152 155 185 152 159 185 150 162 185 148 165 187 147 167 187 145 168 188 144 170 188 144 170 190 144 172 193 143 171 193 143 171 194 143 172 194 142 173 196 139 173 198 137 173 200 135 174 202 133 176 205 132 178 207 132 179 208 132 179 209 131 178 208 129 176 169 160 84 169 159 84 170 158 85 170 159 86 169 160 89 168 160 89 168 159 90 168 158 90 168 159 91 168 160 93 168 161 95 169 162 97 170 161 100 172 162 102 172 161 105 173 161 106 173 161 109 173 162 112 174 163 117 176 163 120 178 162 123 180 162 126 180 161 129 181 160 133 180 158 136 180 156 140 181 154 146 182 153 150 184 151 155 185 149 160 185 147 163 187 146 165 187 144 166 186 142 167 188 142 168 190 142 169 191 143 170 193 142 170 194 142 170 193 142 171 194 140 172 195 137 172 196 136 173 199 133 174 202 131 176 204 131 178 206 130 179 207 129 179 208 130 177 209 128 176 168 161 84 168 160 85 170 161 86 170 161 88 170 161 89 168 161 90 167 160 91 167 160 92 167 161 93 168 160 95 169 160 97 170 161 100 171 161 103 172 160 104 172 161 107 172 160 108 173 160 111 173 161 114 173 162 119 175 161 123 177 160 127 180 160 128 180 159 131 181 157 135 180 155 138 180 152 142 180 151 146 182 149 151 182 147 155 184 146 160 185 145 163 187 144 165 187 142 166 187 139 167 189 140 167 192 140 169 193 140 170 194 141 169 194 139 169 194 139 170 195 137 171 195 136 171 196 134 172 197 131 173 199 130 176 201 129 179 204 128 179 206 127 178 208 127 177 210 126 176 168 162 84 167 162 86 169 163 88 170 163 89 171 162 90 169 162 90 167 162 92 167 162 93 168 161 94 169 160 96 169 160 99 170 160 102 171 160 105 172 159 107 172 160 108 173 160 109 174 161 113 174 161 117 175 161 121 174 160 126 176 158 129 178 158 130 179 156 133 180 154 137 180 152 141 180 150 144 179 148 147 179 146 151 181 143 155 182 142 159 184 142 163 186 141 165 186 140 165 188 138 165 190 137 167 192 138 168 194 139 169 195 139 169 194 137 169 195 134 170 195 133 171 194 132 170 195 132 172 196 130 173 198 129 176 200 128 178 202 127 178 204 125 178 207 125 177 208 124 176 167 164 83 168 163 84 168 164 86 170 165 89 171 165 89 170 163 90 168 164 92 169 163 93 169 162 95 169 161 97 170 160 100 170 160 103 172 161 106 173 160 108 174 161 109 175 162 110 176 161 114 176 159 119 175 159 123 176 158 127 176 157 131 176 156 134 177 153 137 178 152 140 179 149 144 179 146 147 178 144 149 178 143 151 179 140 155 181 139 159 183 138 162 185 137 164 187 137 164 189 136 164 191 135 166 193 136 167 194 136 169 195 136 169 195 133 169 195 131 169 195 131 171 195 130 171 195 129 172 196 128 174 197 128 175 200 127 176 202 125 177 203 124 177 205 124 177 207 123 175 167 165 83 168 164 84 169 164 85 171 166 87 171 166 89 171 165 90 169 165 93 170 165 94 169 163 96 169 162 98 169 161 100 170 161 104 171 161 107 173 161 109 174 162 110 175 162 112 175 162 115 176 159 119 175 157 124 175 156 128 175 156 131 175 155 135 175 152 138 176 150 141 177 147 145 178 144 148 178 141 151 178 139 152 178 137 154 180 136 158 183 134 160 184 133 162 187 133 161 189 133 162 191 133 163 193 134 166 195 133 168 196 133 169 195 130 169 195 129 170 194 130 170 195 130 170 196 129 172 195 128 173 197 127 174 200 127 175 202 125 175 203 124 176 205 122 175 206 122 175 168 167 83 168 166 84 169 166 86 170 167 88 170 166 89 170 166 91 169 165 93 167 165 95 167 163 97 168 163 99 169 162 101 170 162 104 171 162 106 172 161 108 174 161 110 175 160 112 175 159 116 175 158 120 175 156 125 174 154 129 174 154 133 174 153 136 173 150 139 174 147 142 175 144 144 176 142 147 177 140 151 179 137 152 180 134 154 180 132 156 182 130 157 184 129 158 186 130 158 189 131 159 191 131 161 193 132 164 194 132 166 196 130 168 195 129 169 195 128 170 194 128 169 194 128 169 194 127 171 195 127 173 196 126 175 198 124 174 200 123 174 202 123 175 203 122 175 204 121 176 168 168 84 168 167 85 168 168 87 168 168 89 168 168 90 168 166 93 167 165 94 166 164 95 166 163 97 167 162 100 168 162 102 170 162 105 170 161 107 172 160 108 173 159 111 173 159 114 173 157 117 174 156 121 173 154 125 174 152 130 174 151 133 173 150 136 173 148 138 174 144 141 175 142 144 175 139 147 177 137 150 179 134 151 181 131 153 182 129 154 183 129 154 184 128 155 186 127 156 188 127 157 189 129 159 191 130 161 193 131 163 195 129 167 195 128 169 194 126 169 194 126 169 194 126 169 193 126 170 194 124 173 195 122 175 196 120 175 198 121 174 200 121 175 201 120 176 201 119 177 169 169 84 168 169 86 168 169 89 168 169 90 167 167 91 166 165 92 165 163 95 166 163 97 166 162 98 166 161 100 169 161 102 170 159 106 171 159 107 172 159 110 173 157 112 173 157 115 174 155 118 174 153 121 174 152 126 175 151 130 175 149 133 175 146 138 174 143 140 174 141 141 174 139 143 175 136 146 176 134 148 178 131 149 180 130 151 181 126 151 182 126 151 182 126 153 184 126 155 186 126 156 188 128 158 190 129 160 191 129 163 194 128 165 194 126 168 194 125 168 193 125 168 194 124 170 194 123 171 194 120 174 194 119 176 196 118 176 197 119 175 198 118 176 199 117 177 199 117 178 167 170 85 166 169 87 166 169 89 166 167 91 165 164 92 164 162 93 163 161 95 164 160 96 165 161 98 166 158 100 169 157 102 169 156 106 169 157 108 171 155 110 172 155 112 172 155 115 174 153 119 174 151 123 175 149 126 176 148 130 176 146 134 176 142 138 174 138 140 174 136 142 173 135 143 173 134 144 174 131 146 176 129 147 179 127 149 181 125 149 181 123 151 180 123 152 183 123 153 185 124 155 187 126 155 189 127 158 191 126 161 192 124 164 194 123 167 193 122 168 193 123 168 194 121 170 194 119 174 194 117 175 195 116 176 194 116 177 195 116 175 197 114 175 197 114 177 198 115 178 166 170 84 164 168 87 164 166 89 164 165 91 163 162 94 163 159 95 162 158 96 163 157 96 164 157 98 165 156 102 167 155 104 168 155 106 169 154 108 170 154 111 171 153 112 172 151 116 173 150 120 174 148 124 177 147 127 177 146 131 176 144 135 175 140 139 174 135 140 173 132 142 172 131 143 172 131 144 173 128 146 175 126 148 177 124 149 179 122 149 180 121 150 181 121 151 183 121 152 185 123 153 187 124 155 188 124 156 191 123 160 191 120 164 193 120 166 193 119 166 193 119 167 195 118 170 195 116 172 195 114 174 194 114 175 194 114 176 194 114 176 195 113 175 196 113 176 198 111 177 166 168 85 164 166 88 162 163 90 163 162 92 161 159 94 161 156 95 161 155 95 163 155 96 163 156 98 165 155 101 166 153 104 168 153 107 170 153 109 171 152 112 172 150 114 171 149 116 172 147 120 174 147 123 176 146 128 176 143 132 174 142 134 173 137 137 172 132 140 171 128 141 170 127 143 171 126 144 173 125 146 175 123 148 176 122 148 178 120 149 181 119 149 181 119 150 183 119 151 184 121 152 187 121 153 189 121 155 190 120 158 191 117 161 191 117 163 192 116 164 192 116 167 193 115 169 194 114 170 195 113 172 194 112 173 193 112 175 194 112 175 195 110 175 196 110 175 197 109 174 164 165 86 163 162 89 162 161 91 161 159 93 160 156 94 160 154 95 160 153 96 161 152 97 163 153 98 165 153 101 167 152 104 167 152 108 169 152 111 171 150 112 172 148 114 171 146 118 171 145 121 172 144 124 174 142 128 174 140 132 172 138 134 171 134 136 170 130 139 170 127 141 170 124 142 172 123 143 174 122 145 176 121 148 177 120 148 178 119 149 180 118 149 181 118 149 183 117 151 185 118 152 187 118 152 190 118 153 191 116 157 190 115 160 191 114 161 192 114 162 192 114 165 191 114 167 193 113 168 194 112 170 194 111 172 193 110 172 194 110 174 194 108 174 196 107 174 198 106 173 163 161 86 162 159 88 160 157 91 160 155 93 160 152 94 160 152 95 160 151 96 162 150 97 164 150 98 165 151 101 166 150 105 168 150 109 169 150 111 171 148 113 171 146 115 171 145 118 171 144 122 172 141 125 173 139 128 173 136 132 172 133 135 171 131 136 171 128 139 171 124 141 170 121 143 171 119 143 172 119 144 175 119 147 177 119 148 178 117 148 179 116 148 182 116 149 183 116 150 185 116 151 187 116 150 189 115 152 191 113 155 190 113 157 192 113 159 192 113 159 191 112 162 191 112 164 191 110 166 191 111 168 193 109 170 193 108 171 194 107 171 194 105 171 197 104 171 198 103 172 160 158 85 160 157 88 160 154 91 160 151 92 161 149 94 161 149 96 161 149 96 163 148 97 164 147 99 166 148 101 167 148 105 169 148 107 170 147 110 171 146 113 171 144 115 171 142 119 170 140 122 171 137 126 173 134 128 172 132 133 171 129 135 170 127 137 171 124 141 171 121 142 171 118 144 172 118 144 173 118 145 175 117 146 176 117 147 177 117 147 179 115 147 182 114 147 184 114 148 185 114 149 187 114 149 188 111 151 189 110 153 191 110 154 191 110 156 191 110 158 190 109 159 190 109 161 190 108 163 190 108 164 192 107 166 193 105 167 193 104 167 194 102 167 195 102 168 196 101 169 158 156 86 159 154 89 160 151 92 160 148 93 161 147 94 162 147 96 162 147 97 163 145 98 165 145 100 166 146 102 167 146 104 169 146 107 169 144 109 169 142 112 171 141 115 172 139 118 171 137 121 172 134 124 173 131 127 172 128 132 171 126 135 170 124 137 170 120 141 170 118 143 171 116 145 172 117 145 173 117 145 174 116 146 177 115 147 178 114 146 179 114 146 181 112 145 183 112 145 185 112 146 187 111 148 188 109 150 189 108 151 190 106 152 190 106 154 190 106 155 189 106 158 189 105 159 189 105 161 190 105 162 191 104 163 192 103 164 191 101 164 192 100 165 193 100 165 194 100 166 157 154 87 158 153 90 159 150 92 161 147 93 162 145 95 163 143 96 164 143 98 165 143 99 165 144 101 168 144 102 168 144 104 169 143 106 168 140 109 168 138 111 170 137 115 170 135 117 172 133 120 173 131 123 173 128 127 172 125 131 171 122 134 169 120 137 169 118 141 170 116 142 170 114 143 171 114 145 171 114 144 172 114 145 175 113 145 177 112 146 178 111 145 180 111 144 182 111 143 184 110 144 186 109 146 188 105 147 188 104 149 188 103 150 189 102 151 188 101 153 187 101 155 188 101 157 188 101 158 191 101 160 192 103 161 192 103 161 190 101 162 190 99 163 190 99 163 191 100 165 156 152 88 158 151 89 158 148 91 160 145 93 163 143 95 164 142 96 165 142 98 166 141 99 166 141 101 168 141 103 169 140 105 169 138 108 169 135 110 169 135 112 168 133 114 170 131 116 171 129 119 172 129 123 172 125 127 171 122 131 170 120 133 169 117 136 169 115 139 169 114 141 170 112 143 170 112 143 171 112 143 171 113 144 174 112 144 176 110 143 178 108 143 180 108 142 181 108 142 184 107 141 185 105 143 186 102 145 186 101 147 187 99 148 187 98 148 187 97 149 186 97 152 186 97 153 186 97 155 189 99 157 190 100 158 190 100 159 189 99 160 189 99 160 190 97 161 190 98 162 156 150 89 156 148 90 157 146 91 159 144 94 162 143 95 163 141 96 165 140 98 165 138 100 166 138 102 168 138 103 169 136 105 169 134 107 169 133 109 168 131 111 168 129 113 168 127 115 170 126 119 171 125 122 171 122 126 170 120 129 168 118 132 168 114 135 168 113 138 168 112 139 168 110 141 169 110 142 169 111 142 169 111 143 172 109 141 175 107 140 177 106 140 179 104 140 180 104 140 181 103 140 182 103 141 183 101 143 184 100 145 185 97 145 186 96 146 186 96 146 185 95 149 186 94 151 187 94 152 188 96 153 188 96 155 189 96 155 188 96 156 188 96 156 188 96 158 188 97 160 154 148 89 155 146 91 156 143 92 159 143 94 160 142 95 161 141 96 164 139 97 166 136 99 167 135 101 168 134 102 168 134 104 168 132 105 167 131 107 168 129 109 167 127 111 166 124 114 168 123 117 169 122 121 170 120 125 169 117 128 168 114 131 168 111 135 167 110 136 167 109 138 166 108 139 167 108 139 167 108 140 167 107 140 169 107 139 171 105 139 174 103 138 177 101 138 177 101 139 179 100 138 180 100 141 180 99 142 181 98 142 182 95 143 183 94 143 183 94 144 184 93 146 184 93 147 186 93 149 186 93 151 186 93 153 186 94 153 187 94 153 186 95 154 186 96 155 186 96 157 153 145 91 154 144 91 156 141 92 158 141 94 159 141 95 160 139 95 163 137 96 165 135 97 167 132 99 167 131 101 167 130 102 167 130 104 166 129 105 166 127 106 166 125 110 165 123 114 166 121 118 167 119 122 168 117 125 168 114 127 168 111 130 168 108 133 167 107 133 166 106 135 164 105 137 164 106 138 165 106 139 165 104 138 166 104 137 167 102 137 170 100 137 174 97 137 175 96 137 177 96 139 177 96 141 177 97 141 177 96 141 178 95 141 179 92 141 179 92 142 180 92 144 180 91 145 182 91 147 184 90 150 183 91 151 183 92 151 183 93 151 184 94 153 184 94 153 185 95 153 153 143 91 154 141 92 157 139 93 158 139 94 158 139 94 159 138 95 161 136 96 162 133 97 165 130 98 166 128 99 166 128 101 165 127 103 164 126 105 164 125 106 165 123 110 164 121 114 164 118 118 165 117 122 166 115 126 166 111 127 166 108 128 166 106 130 166 104 131 164 103 133 162 102 135 162 103 136 162 103 138 162 102 138 162 100 136 164 99 137 166 98 137 168 95 137 171 94 137 172 93 138 174 94 139 174 95 140 174 94 140 175 93 140 177 91 141 177 91 142 177 91 144 178 90 144 179 89 146 180 89 147 180 90 148 179 91 149 181 90 149 182 91 149 182 93 150 182 94 150 154 142 90 155 140 91 157 139 92 157 138 93 157 138 94 158 137 94 159 135 96 161 132 96 163 129 96 164 127 98 165 126 100 165 124 103 164 124 105 163 123 107 163 121 111 163 118 114 163 115 118 162 114 122 163 112 125 164 110 125 164 107 127 163 104 128 162 102 129 162 100 132 161 101 134 160 101 136 159 100 137 159 99 136 160 97 136 162 96 136 163 95 137 165 92 137 167 91 138 170 91 138 171 92 139 171 93 140 171 92 140 171 91 141 173 90 142 175 90 143 175 90 143 176 89 142 176 88 142 177 89 144 177 90 145 176 90 146 178 90 146 178 90 146 179 93 147 179 93 147 154 141 90 156 140 90 158 138 90 158 137 92 158 137 93 158 135 95 159 133 96 161 130 95 162 128 96 164 126 99 164 125 101 164 123 103 164 121 106 162 121 108 161 118 110 161 116 115 161 114 118 161 111 121 161 110 123 162 108 124 163 105 126 162 102 127 161 100 129 160 99 131 159 99 133 157 99 135 157 99 136 157 96 135 159 94 134 161 93 135 162 93 137 164 91 137 165 91 138 167 91 138 168 91 140 167 92 141 167 91 140 167 90 140 169 90 140 171 90 141 173 90 141 173 90 141 173 89 140 174 89 141 175 89 141 174 89 141 174 90 142 175 91 143 176 92 145 176 92 146 