P3
50 50
255
95 111 91 95 110 92 95 111 94 95 110 93 96 110 92 94 109 91 94 108 90 95 106 89 97 104 88 98 103 88 98 103 88 98 103 87 97 103 86 97 104 86 96 106 86 97 109 85 98 110 84 100 112 85 100 115 84 101 115 83 102 115 82 104 115 82 107 116 82 109 118 81 109 118 84 110 119 84 111 119 83 111 120 82 112 122 82 113 123 81 112 122 78 110 122 77 109 122 76 109 122 76 108 123 74 110 122 72 112 121 72 114 120 72 115 122 73 115 124 73 117 125 75 118 127 78 119 129 80 120 130 82 124 130 82 126 131 82 129 131 83 132 130 85 135 131 87 139 134 88 97 111 90 97 111 91 97 111 92 97 110 92 97 109 90 97 108 89 97 106 88 97 105 88 98 103 86 99 102 86 100 103 86 100 103 85 100 104 84 100 105 83 99 106 83 100 109 83 101 111 83 102 112 83 103 114 82 104 115 82 105 114 81 107 115 81 108 116 81 109 117 81 109 118 83 110 118 83 109 119 82 110 120 81 111 121 80 111 122 79 111 123 77 110 122 75 109 121 74 109 121 74 109 123 73 110 122 71 111 122 71 113 122 71 115 123 71 116 124 72 118 126 75 119 128 78 121 128 80 123 128 82 125 129 82 127 130 82 130 132 84 134 131 86 138 133 87 142 135 87 99 112 87 99 112 89 98 111 90 100 110 88 100 109 87 100 108 86 100 106 86 100 103 85 100 103 84 101 103 83 102 104 83 103 104 83 103 105 83 102 107 82 103 109 82 104 111 81 104 111 82 104 113 82 105 114 81 107 115 81 108 115 80 108 114 79 108 115 79 109 116 80 110 116 81 109 118 82 108 118 80 108 119 79 111 121 78 111 122 77 110 122 75 110 121 74 110 121 73 111 121 73 111 122 71 112 122 70 112 123 70 113 123 71 115 123 71 117 123 72 120 125 75 121 127 79 123 127 81 125 128 81 127 129 83 129 131 84 131 132 85 136 133 85 140 134 86 144 134 88 102 112 86 102 111 87 102 109 86 102 109 84 102 108 84 102 107 83 101 106 84 102 104 84 103 104 83 104 105 81 104 105 81 105 105 81 106 106 81 106 109 81 106 111 81 107 113 81 106 113 81 107 115 81 107 116 80 109 117 79 110 116 79 109 115 78 109 114 78 110 115 79 110 116 79 109 117 79 109 118 79 109 119 78 111 120 77 111 121 77 112 122 75 112 121 73 112 121 72 112 121 72 113 122 71 113 122 70 114 123 69 114 123 69 116 124 71 119 125 73 121 124 76 124 126 79 125 126 81 127 127 82 129 128 83 132 131 84 135 133 85 138 133 85 142 133 87 145 135 88 102 111 85 104 109 84 104 107 83 103 105 82 104 105 81 104 104 81 105 105 82 105 105 83 107 104 81 108 105 80 108 105 80 109 106 79 109 108 79 109 111 79 110 113 81 109 114 80 109 116 80 110 117 81 110 118 80 111 119 79 111 118 78 112 116 77 112 115 77 111 115 77 110 116 77 109 116 76 110 118 76 110 119 76 111 121 77 110 122 76 112 123 75 112 123 73 113 122 72 115 122 72 115 122 71 115 121 70 115 122 69 115 123 69 118 124 71 121 125 73 123 125 77 125 125 80 127 126 81 129 126 83 131 128 84 135 130 84 137 133 86 139 134 86 143 134 88 146 135 88 102 109 84 104 107 83 105 106 82 106 105 83 107 104 81 107 104 82 108 104 82 109 105 82 111 106 80 111 105 80 111 105 79 112 107 78 112 110 77 112 112 78 113 115 79 113 116 79 114 117 78 114 118 79 113 120 79 113 120 77 112 119 77 113 118 77 112 117 76 112 117 75 112 116 75 112 117 74 112 117 74 110 119 75 110 121 75 111 122 74 112 124 74 113 125 73 114 125 72 116 124 71 117 123 71 117 122 71 117 122 70 118 123 71 119 123 73 122 125 74 125 125 77 128 125 80 130 126 83 132 127 84 135 129 85 137 131 86 139 133 87 142 135 88 144 136 90 147 137 90 104 109 84 106 107 83 107 105 84 109 105 83 111 105 81 112 105 82 114 106 81 114 106 81 115 107 81 114 106 80 114 107 79 116 109 78 116 111 77 116 113 77 116 115 78 116 116 78 117 118 77 117 119 77 115 121 77 115 121 77 114 121 76 113 120 76 114 118 75 114 117 74 113 117 73 114 117 74 113 119 74 110 121 74 111 122 75 113 124 75 115 125 75 115 125 72 116 125 71 117 124 70 118 124 71 119 122 71 121 123 72 122 124 73 123 125 74 124 126 76 127 126 79 130 127 81 133 126 84 136 128 85 139 129 86 141 131 87 142 133 88 145 135 89 147 137 91 149 138 91 108 108 84 109 107 84 111 106 84 112 107 83 114 107 82 116 107 81 118 108 81 119 109 81 119 109 81 118 108 80 117 108 79 117 110 78 119 111 77 119 113 77 119 114 77 119 116 76 119 118 76 119 120 76 117 122 75 116 121 74 115 122 75 114 122 75 114 121 73 114 119 72 114 119 72 115 120 72 114 121 73 112 122 74 112 124 75 114 126 75 115 127 75 116 126 74 117 124 72 117 124 71 119 124 71 120 123 72 123 123 73 125 125 73 127 127 74 128 127 76 130 128 80 132 128 82 136 128 83 140 129 85 142 129 87 144 131 88 146 134 90 148 137 91 150 139 92 150 140 92 111 106 84 112 107 84 114 107 84 116 108 82 117 108 81 119 107 81 120 108 82 122 109 82 121 109 81 119 109 82 119 109 81 119 111 79 120 112 78 120 113 77 120 114 76 121 116 75 120 118 75 119 121 74 118 122 72 116 122 72 117 123 73 116 123 72 115 123 72 115 122 71 115 121 71 115 121 72 115 123 72 115 124 72 115 125 74 116 128 74 116 128 75 118 126 74 119 124 73 120 123 71 121 124 71 123 123 72 125 124 73 128 125 73 132 127 74 133 128 76 135 128 79 137 130 82 140 129 84 143 129 85 145 130 88 148 132 91 150 136 92 151 138 94 152 140 94 152 141 94 114 106 82 115 107 82 115 108 83 117 109 81 119 109 81 121 110 81 123 109 82 124 110 82 123 109 82 122 110 82 122 110 81 122 113 80 122 114 78 121 114 78 122 116 76 122 117 74 121 118 74 120 121 73 119 123 73 118 124 72 117 124 72 117 123 72 116 124 71 116 124 71 116 123 72 117 124 72 118 126 72 118 127 71 117 126 73 117 128 74 118 127 73 120 126 74 121 125 75 122 124 73 123 124 72 126 124 72 128 126 72 131 127 74 136 128 75 138 130 77 141 130 79 143 131 81 145 131 83 147 131 86 150 132 87 152 135 91 153 138 94 154 140 96 155 141 96 155 143 96 116 107 81 118 108 80 117 109 80 118 110 80 121 111 81 123 111 81 124 111 82 125 111 82 126 110 82 127 111 80 127 113 80 124 116 80 124 117 79 124 118 78 124 119 77 123 119 74 122 120 74 121 122 74 119 124 72 119 124 71 118 124 72 118 123 72 118 124 71 118 126 71 119 126 71 120 128 72 121 129 72 121 130 71 119 129 72 119 129 73 120 130 74 121 127 73 123 125 75 125 126 74 128 125 73 130 126 73 132 127 74 135 129 75 139 131 76 142 132 77 144 133 79 147 134 81 149 135 84 150 135 86 152 135 87 154 136 91 155 139 94 155 142 96 157 142 97 158 143 97 117 109 81 119 108 80 119 109 80 120 110 80 122 110 80 124 110 81 125 111 81 127 112 81 130 112 82 130 112 81 130 115 79 129 118 80 127 119 79 127 119 79 126 119 78 124 119 76 123 120 74 122 121 74 119 124 72 119 124 71 119 124 70 120 124 70 120 125 70 121 126 69 121 128 70 123 130 70 123 131 70 123 131 70 122 131 70 122 132 73 123 131 74 124 129 74 126 127 74 130 127 74 132 127 74 134 127 74 136 129 76 138 131 76 141 132 76 145 135 76 147 136 79 149 138 81 151 139 83 152 138 86 154 139 88 156 139 91 157 141 93 158 144 95 158 145 98 158 146 98 119 109 80 121 110 79 121 110 80 122 111 80 124 110 80 126 110 79 126 111 81 128 112 81 130 113 81 132 114 81 132 116 80 132 118 80 129 119 80 128 119 79 126 119 79 125 121 77 123 121 76 122 122 74 119 123 73 119 123 72 119 124 70 120 124 68 121 125 68 123 127 67 124 129 67 125 130 68 125 131 68 124 132 69 123 132 70 123 132 71 125 131 73 127 131 74 129 130 75 132 129 76 135 129 76 137 129 76 139 130 77 140 134 76 144 136 76 147 138 77 150 140 80 152 141 81 153 142 84 153 142 87 155 142 90 158 143 92 160 143 93 160 146 95 160 146 97 159 147 98 122 110 78 122 110 78 122 111 79 124 111 79 126 110 80 128 110 80 129 111 81 129 113 82 131 114 82 133 115 81 134 116 81 134 118 81 132 118 81 130 117 81 128 117 80 125 119 78 123 121 75 122 122 75 121 122 74 120 123 73 119 124 72 120 125 69 123 126 68 124 127 67 125 129 66 126 131 66 126 132 68 126 132 70 125 131 72 126 132 72 128 132 73 130 132 75 132 131 77 134 130 78 138 130 76 140 131 77 141 133 78 142 136 78 145 138 78 149 140 79 153 142 81 155 144 83 155 144 85 155 145 89 156 145 92 159 145 94 162 146 96 162 147 97 163 148 97 163 150 99 123 111 79 123 111 79 124 111 79 126 111 78 127 110 80 130 109 80 130 111 81 131 113 82 132 114 82 133 116 82 134 116 82 133 117 83 133 117 82 131 116 81 129 117 80 127 119 79 124 121 77 123 122 76 121 122 75 120 123 73 120 125 72 122 126 71 124 127 69 126 128 68 127 129 67 128 131 66 128 132 68 129 132 70 129 131 72 129 131 73 131 131 74 133 131 75 134 131 77 136 131 77 139 132 77 140 134 78 142 136 79 145 138 79 147 139 80 151 141 81 155 144 83 157 147 85 157 147 88 157 148 90 158 148 93 160 148 96 162 149 98 163 150 99 164 152 99 165 153 100 125 112 80 126 112 79 127 112 79 128 111 79 129 110 79 131 109 81 132 110 82 133 112 82 134 114 83 135 115 84 135 115 84 134 115 84 132 116 83 131 116 83 130 116 81 128 118 80 124 120 79 123 122 77 121 123 76 121 123 74 121 125 73 123 126 73 124 127 71 126 128 70 129 130 69 130 131 68 130 131 69 131 130 71 131 130 73 132 129 75 133 130 75 136 130 75 137 131 78 137 131 78 139 132 79 141 134 80 144 136 81 147 139 81 150 142 81 155 144 82 157 146 84 158 149 87 158 150 91 158 150 93 159 149 95 161 150 98 164 151 99 164 153 101 164 154 102 167 156 103 127 113 81 128 114 79 130 112 79 131 111 79 132 110 79 132 109 81 133 110 82 134 111 83 136 113 85 135 113 86 134 114 85 134 114 85 133 116 85 132 117 84 131 117 82 129 118 82 126 119 80 124 120 80 123 121 78 121 123 77 122 125 76 124 126 75 126 126 74 127 128 73 130 130 72 132 132 71 132 132 71 134 131 72 134 130 74 135 129 76 136 130 76 138 131 77 138 131 79 138 133 78 140 134 80 143 134 81 146 136 80 149 139 82 151 143 83 156 145 85 157 148 87 159 150 90 160 152 93 160 152 95 161 152 98 162 152 100 164 153 101 164 155 102 165 156 103 168 158 105 129 114 81 131 115 80 132 114 80 134 111 80 135 111 80 134 110 83 135 111 84 136 112 84 135 112 87 134 111 87 133 112 87 134 114 87 134 116 87 132 117 86 130 116 85 128 117 84 128 118 82 125 119 81 124 121 80 123 122 79 125 123 78 127 124 77 128 126 76 128 128 75 131 130 75 132 133 74 133 132 73 135 132 74 136 131 76 137 131 77 137 131 78 140 132 78 140 134 79 140 135 80 142 135 82 144 137 82 147 138 82 150 141 84 153 144 85 157 146 87 159 148 90 162 150 92 163 153 94 163 154 96 163 155 99 163 154 101 164 155 102 165 157 103 168 158 103 170 158 105 131 115 81 132 115 81 134 115 81 136 112 81 137 111 82 137 110 84 137 111 84 137 110 86 136 110 88 134 110 89 134 111 89 133 112 89 133 114 89 132 116 89 131 116 88 129 116 86 128 118 84 126 119 84 125 120 83 125 121 81 127 122 80 129 123 80 129 126 79 130 129 78 132 131 78 133 132 77 134 132 76 135 133 77 137 133 79 138 134 79 139 133 79 140 134 80 141 135 81 142 137 81 143 139 83 145 140 84 148 142 85 152 143 86 155 146 88 158 148 90 161 149 91 164 152 93 165 154 95 165 156 98 165 157 100 164 157 102 165 158 102 166 159 103 169 160 104 172 160 104 134 117 82 134 116 81 136 115 81 137 113 82 138 112 84 139 112 85 139 111 86 138 111 89 137 111 90 136 110 90 136 111 90 135 112 90 133 113 91 133 114 90 131 116 90 129 116 88 128 117 86 127 118 86 126 120 86 127 119 84 129 120 83 130 121 83 132 124 82 133 127 81 134 130 80 134 131 79 135 132 78 136 133 78 137 134 80 139 134 81 138 135 81 139 137 82 141 138 84 143 140 84 144 142 84 147 144 85 150 145 86 154 147 88 157 149 91 161 151 92 163 152 93 165 154 96 165 156 98 166 158 100 165 159 101 166 160 102 167 161 103 169 162 104 171 162 104 173 161 103 136 117 83 136 116 83 138 115 83 139 114 85 139 113 86 140 113 88 140 112 89 141 111 91 138 109 91 138 109 91 138 110 91 137 111 93 137 112 93 135 114 91 133 114 91 131 116 91 129 117 90 128 118 88 128 118 89 130 119 88 131 120 87 133 121 87 134 123 85 135 126 84 136 128 83 136 131 81 136 133 80 137 135 81 137 135 83 139 134 83 139 136 83 140 139 84 142 141 85 143 143 85 145 145 85 147 147 87 150 148 89 155 150 91 159 152 92 163 153 94 164 155 95 165 156 97 166 158 99 165 159 100 165 161 100 166 162 102 168 163 103 170 163 103 172 164 102 174 162 102 139 117 84 139 116 83 140 116 85 141 114 87 142 113 89 143 113 90 143 112 90 142 111 92 140 110 92 140 109 92 139 111 93 140 111 94 140 113 94 138 113 93 134 114 93 134 115 93 132 116 92 131 117 91 131 118 91 132 118 91 133 119 89 134 121 88 137 125 87 137 128 86 138 129 86 138 132 84 137 135 84 138 136 84 139 136 83 140 136 84 140 138 85 141 140 85 142 143 85 144 146 85 146 148 86 148 149 88 151 151 90 156 152 92 161 154 94 163 155 96 165 157 97 166 159 99 167 160 100 167 161 101 167 162 101 168 163 102 170 163 102 172 164 102 175 165 102 176 165 101 140 117 86 141 117 86 142 116 87 143 115 88 145 113 89 146 113 91 145 112 92 143 111 93 142 111 93 142 110 94 142 110 94 142 111 96 143 112 96 141 112 95 138 113 96 137 115 94 136 117 94 136 117 93 135 118 94 134 117 94 135 119 92 137 122 90 138 126 89 140 130 90 140 132 90 139 133 88 138 135 88 140 136 87 141 137 86 143 139 85 143 140 86 143 142 87 144 145 87 146 148 87 147 149 88 149 151 90 153 153 91 156 154 93 161 155 95 163 157 97 166 159 99 167 161 100 168 161 100 168 163 102 168 163 102 169 164 102 171 164 101 173 164 102 176 166 103 177 166 103 142 116 87 142 117 89 143 117 89 145 115 90 146 114 91 147 114 93 147 114 94 145 113 95 143 113 94 143 111 95 145 111 96 145 112 97 145 112 97 144 112 98 143 113 99 141 115 98 141 116 97 141 118 96 140 119 95 139 120 96 138 121 96 139 123 94 141 127 93 142 131 93 141 132 93 141 133 92 140 134 90 142 135 90 143 138 89 144 140 87 145 142 87 145 143 89 146 145 89 148 148 89 149 149 90 151 151 91 155 153 92 158 155 94 161 155 95 164 158 97 166 161 100 167 162 101 168 162 102 169 163 103 171 164 103 172 164 102 172 165 103 174 165 105 176 166 106 178 167 105 144 115 88 144 116 89 145 116 90 146 117 92 147 116 92 148 116 94 147 115 96 146 115 96 144 115 96 145 113 97 145 112 98 146 112 98 147 112 99 146 113 100 145 113 101 145 114 102 144 115 101 144 117 100 143 120 99 142 121 99 141 123 99 141 125 99 142 128 97 142 131 96 142 133 96 140 134 95 141 134 94 142 135 93 144 138 92 146 141 91 147 143 90 148 145 91 149 148 91 149 148 92 150 150 93 153 152 93 156 154 94 159 156 95 161 156 97 163 159 98 166 162 100 167 162 103 169 163 104 171 163 104 173 164 104 173 164 104 173 165 106 174 167 107 176 168 107 178 170 106 145 115 89 145 116 89 147 117 90 147 118 92 148 117 93 148 116 95 147 117 97 146 117 98 146 116 99 146 115 100 147 113 99 148 112 100 149 112 101 149 112 102 148 113 103 147 114 104 146 115 104 145 117 103 145 118 102 145 120 102 144 124 101 143 127 101 143 130 100 143 133 99 141 134 98 141 134 97 141 135 95 143 136 95 145 138 94 147 141 93 149 144 93 150 146 94 151 150 94 151 150 95 152 150 95 154 152 96 158 154 97 161 157 98 163 158 98 164 160 100 167 162 102 169 163 104 171 163 105 173 165 106 175 166 106 173 167 108 174 168 109 174 169 109 177 171 109 178 171 108 146 115 91 147 116 91 148 117 92 149 117 94 149 117 96 149 115 97 148 117 99 148 118 101 148 118 101 148 116 101 148 115 100 149 114 102 150 114 103 150 114 105 150 115 106 148 116 106 148 117 106 147 118 106 147 120 105 147 121 106 146 125 106 145 129 104 144 132 103 143 133 101 142 135 100 143 135 99 143 136 98 144 138 97 146 140 96 147 142 94 151 144 96 152 147 97 152 151 98 153 152 98 153 152 99 156 153 99 160 155 99 163 157 101 165 159 102 166 161 104 168 163 105 171 165 106 173 166 108 175 166 109 175 167 110 175 168 111 175 170 111 176 171 111 178 173 111 180 174 111 148 113 94 148 114 94 148 114 95 150 115 97 151 115 97 149 115 99 150 115 100 149 118 102 149 119 102 149 118 102 150 116 103 151 116 105 152 117 106 152 118 107 153 117 108 151 118 109 150 119 108 149 121 108 149 121 107 148 123 107 146 125 108 147 129 107 145 131 106 144 134 104 144 136 102 145 137 100 145 139 100 146 141 99 148 142 98 150 143 98 152 145 99 155 148 100 155 151 102 155 153 101 157 153 102 159 155 103 163 156 103 166 157 104 168 159 105 169 162 106 171 164 108 173 166 109 175 167 110 177 167 111 178 168 113 178 169 114 179 171 114 179 172 114 180 174 114 181 176 114 148 113 96 149 113 96 149 113 96 150 113 97 151 113 98 151 113 100 151 115 102 150 117 103 150 119 103 151 118 103 152 118 104 152 119 106 153 120 107 154 121 108 155 120 110 154 121 111 152 122 110 151 122 109 150 122 108 149 124 108 148 127 108 148 129 108 147 132 107 146 134 106 147 136 104 147 138 102 147 140 101 148 142 101 150 141 100 153 144 100 156 146 102 157 149 103 158 152 105 158 154 104 160 155 105 164 156 106 166 157 107 169 159 108 171 160 109 171 162 109 172 164 111 175 167 112 177 168 113 178 168 114 179 169 115 180 170 116 182 171 117 182 173 117 183 175 116 183 177 116 148 112 99 150 112 99 152 112 98 152 112 99 152 112 100 152 113 102 152 116 104 151 117 104 152 118 105 153 118 105 155 120 105 154 122 107 156 123 107 156 124 109 157 123 111 156 123 112 155 123 112 153 123 110 151 124 111 152 126 110 151 130 110 151 131 110 149 133 108 149 135 108 149 137 107 149 139 105 150 140 104 151 141 104 152 143 102 156 145 103 159 148 105 160 150 106 160 152 108 161 154 109 163 156 110 165 156 111 168 158 112 170 160 113 173 162 114 174 164 114 175 166 114 177 168 116 178 169 116 179 169 117 180 171 117 182 171 119 183 172 119 183 175 119 184 176 119 185 176 119 149 112 103 150 113 102 152 113 101 153 112 101 153 113 103 154 114 105 154 116 107 153 117 107 153 118 107 155 120 107 155 123 109 157 124 109 158 124 109 157 125 109 157 125 112 157 125 112 156 125 114 155 125 114 154 126 114 153 129 113 154 131 112 153 133 112 152 134 111 152 136 110 151 137 110 153 139 108 153 140 107 154 141 106 155 143 105 159 145 106 162 148 107 163 150 108 163 153 111 165 156 113 166 156 114 167 156 116 169 158 117 171 160 118 174 162 118 176 165 119 177 166 119 179 168 119 179 169 119 180 170 120 182 171 121 184 171 122 184 173 122 183 175 122 185 175 121 187 177 121 150 113 106 151 114 105 152 112 104 154 113 104 156 114 106 156 116 107 155 117 107 155 119 108 156 121 109 157 123 110 157 125 111 159 125 111 160 126 112 159 126 112 158 126 113 158 126 114 157 127 116 156 128 116 155 130 116 155 132 115 156 134 115 156 134 114 155 136 114 154 137 113 155 138 111 156 139 110 157 140 109 157 141 108 159 143 109 162 145 109 165 147 110 165 150 111 165 154 113 167 157 115 168 158 117 169 158 118 171 158 121 174 160 122 175 164 121 178 165 122 180 166 122 180 166 122 181 167 123 183 169 123 184 171 123 184 171 124 184 173 125 184 175 124 186 175 123 187 176 123 151 115 110 151 114 109 153 113 108 155 112 108 157 114 109 157 117 110 157 118 110 157 119 110 158 122 111 159 125 113 160 126 112 160 127 113 161 128 113 161 129 114 160 130 115 160 130 116 159 131 118 158 133 118 156 133 118 156 133 118 157 135 118 158 136 117 157 138 115 157 139 115 158 139 114 159 140 112 160 141 111 160 141 111 163 143 111 166 146 111 167 148 112 169 151 114 168 154 114 169 155 117 170 157 118 171 158 121 173 159 123 176 161 125 177 163 124 179 164 124 180 164 124 182 165 125 184 166 125 185 168 125 186 170 126 186 171 126 186 173 127 187 175 126 187 175 124 188 175 124 151 115 114 152 115 113 153 113 112 156 113 112 157 113 113 157 116 114 158 119 113 159 121 113 160 123 114 161 127 114 162 128 114 162 129 115 163 130 115 163 132 116 162 133 117 163 134 117 162 135 118 161 137 118 159 137 120 159 136 121 159 136 120 160 137 118 159 139 117 159 141 117 159 140 115 161 141 115 162 142 114 164 142 113 167 144 114 169 146 114 170 148 116 171 151 116 172 153 117 173 155 119 173 157 121 174 158 123 174 159 125 177 161 128 179 162 129 180 163 128 182 163 127 183 164 128 186 167 129 187 169 128 188 171 128 188 172 128 189 173 128 189 175 128 190 176 127 189 176 127 153 115 118 154 114 116 156 114 115 156 113 116 157 115 117 158 117 118 159 119 117 161 122 116 161 124 116 162 128 116 162 129 115 162 131 116 164 133 117 164 134 119 163 136 120 165 136 119 164 137 118 163 138 119 162 138 122 161 139 122 162 138 121 162 138 120 162 141 119 162 142 119 161 142 117 162 142 118 164 143 117 167 144 117 170 145 117 172 147 118 173 149 119 174 151 119 175 153 120 176 154 121 177 156 124 177 158 126 178 159 128 179 161 130 180 162 131 182 162 131 184 163 131 185 164 131 188 167 132 191 170 131 190 171 130 190 172 130 191 174 129 191 173 130 191 175 130 191 176 130 154 115 121 155 115 121 156 114 120 157 114 122 158 117 122 159 119 121 160 121 120 162 123 119 162 125 118 162 128 117 162 130 117 164 133 118 165 135 120 165 136 122 165 137 121 166 137 121 165 138 120 164 139 121 164 139 122 162 140 123 163 140 123 164 140 123 165 142 122 165 143 122 164 144 121 165 143 121 166 143 120 169 144 120 172 146 122 174 147 121 176 148 122 177 151 122 178 154 121 179 155 122 180 156 126 180 157 128 181 159 130 182 161 132 183 163 133 185 163 134 187 164 134 188 165 135 191 167 134 193 170 134 192 172 134 192 172 133 192 172 131 192 172 132 191 175 132 192 176 132 155 115 124 156 116 124 158 115 125 159 116 125 161 118 124 162 120 123 162 122 122 163 124 122 162 125 120 163 129 119 164 131 119 165 132 121 166 135 123 166 136 124 166 137 123 166 138 123 165 138 122 166 140 123 165 140 124 165 140 124 166 141 125 166 142 126 166 143 126 166 143 125 167 142 124 167 142 122 168 143 122 170 144 123 173 146 124 176 147 124 178 150 124 178 151 125 179 154 125 181 156 125 181 157 128 182 158 130 183 160 133 184 161 135 186 163 136 187 164 137 188 165 137 190 166 138 193 169 137 194 171 137 193 171 137 192 171 136 192 171 135 193 172 134 193 174 135 193 175 135 156 117 127 158 117 127 158 117 127 160 118 126 161 119 125 161 121 124 162 121 124 162 122 123 162 125 123 163 128 122 165 131 122 166 132 122 166 133 124 166 134 125 167 137 124 166 137 124 166 139 125 167 141 126 167 141 126 167 141 127 168 141 127 167 143 128 167 143 128 169 142 128 169 140 127 169 140 126 170 142 125 172 144 125 175 145 125 177 147 125 178 149 126 179 151 127 180 152 128 182 154 128 183 157 129 184 158 132 184 161 136 186 162 137 187 162 138 188 162 139 189 164 141 191 166 142 193 170 141 194 170 140 193 171 140 192 170 138 192 171 137 194 172 137 194 174 138 195 175 138 155 117 130 157 118 130 158 118 129 159 118 129 159 119 126 160 121 125 160 121 124 161 122 123 161 125 123 163 127 123 165 130 124 166 131 123 166 133 124 167 135 126 168 136 125 167 137 126 167 139 128 167 140 128 167 141 129 168 141 129 169 142 129 169 143 129 170 144 129 170 143 130 171 140 129 172 140 129 172 141 128 174 144 128 176 145 128 177 146 128 179 148 129 179 150 129 181 152 130 183 154 132 184 156 133 185 159 136 187 161 138 189 162 139 189 162 140 190 161 142 191 164 144 192 165 145 193 169 144 193 170 144 193 170 144 193 171 142 194 172 141 196 173 140 197 175 140 197 176 142 153 116 131 155 118 132 157 119 131 157 118 129 158 118 127 158 121 126 158 122 124 160 122 124 161 125 125 164 127 124 165 130 124 166 132 123 166 133 125 167 135 126 167 137 127 166 138 128 166 138 129 168 140 129 168 141 130 170 143 130 170 144 131 171 144 130 172 145 130 173 143 131 173 140 131 173 139 131 175 140 131 177 142 132 177 144 132 178 146 132 179 148 133 179 149 133 182 152 133 184 154 135 185 156 137 187 159 139 190 161 140 191 162 141 191 162 143 192 161 145 193 163 146 193 165 147 193 168 148 193 169 148 193 171 147 194 172 146 196 172 145 198 175 143 199 176 143 199 177 144 153 117 131 153 118 132 155 118 131 156 118 129 157 119 128 158 120 128 158 121 126 160 122 125 162 124 126 163 127 126 166 130 125 167 133 125 167 133 126 166 135 127 166 138 127 166 139 129 167 139 130 168 140 131 170 142 130 173 144 131 173 144 132 173 144 132 175 144 133 175 142 133 175 141 133 176 140 134 176 140 135 177 141 137 178 143 136 179 146 137 180 148 137 182 150 137 184 152 138 186 154 140 187 156 141 189 158 143 190 160 144 192 162 143 193 161 145 193 162 148 193 163 149 194 166 150 193 169 150 193 170 151 194 172 151 196 173 149 198 174 147 200 175 146 200 177 145 201 178 146 152 116 131 152 116 132 154 117 132 156 118 131 157 118 131 158 119 131 158 120 129 160 122 129 162 124 128 164 127 128 167 129 127 167 132 127 166 134 129 165 136 128 165 138 129 166 139 130 169 140 131 171 142 131 172 144 133 174 144 134 174 144 135 175 144 135 176 143 135 178 143 136 177 142 137 178 141 138 178 140 139 179 141 141 179 143 142 180 146 143 182 148 142 184 150 142 186 152 143 187 154 145 187 157 145 188 159 148 190 160 148 192 162 147 193 162 148 193 163 150 193 166 151 194 168 152 193 170 154 194 171 154 195 172 153 197 174 151 198 175 149 200 176 148 201 177 148 201 178 148 151 115 131 152 116 132 154 117 132 156 118 132 157 117 132 159 117 132 159 119 132 159 122 131 163 125 130 164 126 129 166 128 130 166 131 129 166 133 130 167 135 130 167 137 130 168 140 132 170 141 133 172 142 133 174 143 134 175 143 137 175 143 138 175 143 137 177 142 137 179 142 139 180 142 140 180 141 141 179 140 143 181 142 144 182 144 146 182 147 148 182 149 148 184 152 147 186 153 149 187 154 149 188 157 150 189 160 152 190 161 152 191 161 152 191 162 152 192 164 153 194 166 154 195 168 156 195 169 157 195 171 158 195 172 156 197 174 153 198 175 151 199 176 151 201 176 150 202 177 152 151 116 133 152 116 133 155 117 132 156 117 133 157 117 132 157 117 133 157 118 132 158 121 131 161 124 132 163 125 132 163 127 131 164 131 132 164 133 131 166 135 130 168 136 130 169 138 132 171 140 134 173 141 134 174 143 136 175 144 139 177 143 140 177 143 140 178 142 140 180 142 141 181 141 142 181 141 144 182 141 146 183 144 147 182 146 149 182 149 152 183 150 153 185 152 153 186 154 153 188 156 153 189 158 155 190 160 155 191 162 156 191 162 156 191 163 157 192 164 157 194 165 157 196 168 159 196 169 160 197 171 160 197 173 158 196 175 156 198 176 154 199 177 154 200 176 154 201 177 155 149 116 134 151 116 133 154 117 133 156 118 134 156 118 133 155 117 133 156 118 133 158 119 133 160 122 134 161 124 133 162 127 133 162 130 133 164 133 133 165 135 131 168 135 131 170 137 131 171 139 132 172 141 135 174 143 138 175 144 141 177 144 142 178 143 142 179 143 143 181 142 143 182 142 145 184 142 147 183 143 148 183 145 150 182 147 152 182 150 155 183 152 155 185 154 156 186 155 156 188 157 156 190 160 157 191 162 157 191 163 157 190 162 158 191 163 159 192 164 161 195 166 161 196 167 161 197 169 163 198 171 162 197 172 161 197 174 157 198 177 156 198 179 156 200 178 157 201 178 158 147 115 134 149 116 133 152 117 134 154 118 134 155 119 134 154 118 133 155 119 134 157 120 135 158 122 135 161 124 134 161 127 134 162 130 135 163 132 134 166 133 133 168 133 132 170 136 133 171 139 133 173 141 135 176 142 140 177 145 142 178 145 143 180 144 144 181 144 145 182 144 147 183 144 149 185 144 150 185 145 151 184 147 153 183 149 155 183 152 156 185 154 157 187 155 159 187 156 159 189 158 160 190 161 159 191 162 159 190 163 159 190 163 160 190 164 162 192 165 164 195 166 164 196 168 165 196 169 165 197 171 164 198 173 161 197 176 160 197 178 159 198 180 159 199 180 159 202 180 160 146 115 134 149 116 133 150 117 134 151 118 135 153 119 135 155 119 134 156 120 136 157 122 136 158 123 136 159 124 134 160 127 134 162 129 135 164 131 135 166 132 134 168 134 134 170 136 134 172 138 135 175 140 137 177 142 141 178 146 144 181 146 145 183 147 147 183 147 149 185 146 151 186 146 154 186 146 154 187 147 155 185 149 156 185 152 158 186 154 158 187 155 159 188 156 161 189 158 161 188 158 162 189 160 162 189 162 161 189 164 161 189 165 162 190 167 165 191 166 167 192 167 167 194 170 168 196 171 167 196 172 165 197 174 164 197 177 163 197 179 162 198 180 162 198 180 161 201 180 162 146 114 133 147 115 133 148 117 133 150 118 134 153 118 134 155 120 135 156 122 137 157 124 137 158 125 135 160 126 134 160 127 133 162 129 135 164 132 137 165 134 136 167 135 136 170 137 136 172 139 137 175 140 138 178 143 142 180 146 145 183 148 148 185 148 150 186 149 152 188 147 155 188 148 157 188 149 158 188 149 159 187 151 159 186 153 160 187 155 160 189 157 161 190 157 163 190 159 164 189 159 165 190 161 166 189 163 164 188 165 164 189 167 165 189 169 167 189 168 168 189 170 168 192 172 169 194 174 168 195 175 167 195 177 167 197 178 166 196 179 166 197 180 165 199 181 165 200 182 165 147 115 135 148 116 134 149 117 134 151 119 134 154 119 134 155 122 135 156 124 136 157 126 137 158 127 135 159 127 134 161 128 133 163 129 135 164 132 137 165 135 136 167 137 136 169 138 137 171 140 138 175 142 140 179 144 143 182 146 147 184 149 150 186 149 153 187 150 155 188 150 158 187 150 160 187 151 161 188 151 161 188 153 161 188 155 162 189 155 163 189 158 164 190 159 164 191 159 166 190 159 167 190 161 168 190 163 167 189 165 166 188 168 166 188 170 167 187 171 169 187 172 171 189 173 172 192 176 171 192 177 170 193 178 170 195 179 169 196 181 169 198 182 168 199 182 168 200 182 168 149 117 135 150 117 135 150 118 135 151 119 135 153 120 136 154 122 136 157 125 136 159 128 136 159 130 135 161 129 134 162 129 133 163 131 135 164 133 136 166 136 136 167 138 137 169 139 138 172 141 139 175 143 142 179 144 145 183 147 149 185 150 152 187 151 156 187 151 160 187 152 162 187 152 162 187 152 163 188 153 163 189 155 163 189 156 164 190 158 166 191 158 166 190 160 167 190 161 168 189 161 169 189 162 169 189 164 168 189 167 168 187 170 168 186 172 169 185 173 172 185 174 174 187 176 175 189 178 173 190 178 173 191 179 172 193 180 172 195 182 172 196 182 172 198 181 171 198 181 172 