P3
50 50
255
141 152 135 141 151 135 141 151 135 141 151 135 141 151 136 140 150 137 141 151 136 140 150 135 140 149 136 141 148 136 142 148 137 141 149 137 142 149 137 144 149 138 143 149 137 141 149 136 140 148 134 139 147 132 139 146 132 140 146 132 140 146 132 140 146 131 142 147 129 145 148 128 147 146 126 149 145 125 150 144 125 153 145 126 153 144 126 154 144 127 155 144 128 154 143 128 152 142 130 152 142 133 149 139 135 149 139 136 147 139 136 146 139 136 146 139 136 148 139 138 150 138 139 152 138 140 152 138 140 152 140 142 152 142 141 153 143 143 152 144 144 149 144 144 146 143 145 145 143 147 138 151 133 139 151 133 139 150 132 138 150 132 139 150 133 139 150 134 139 150 134 140 150 133 140 149 132 140 148 132 141 146 134 141 147 135 141 147 135 142 147 135 141 147 135 140 147 135 139 146 133 139 145 132 139 144 132 139 145 131 141 145 130 141 145 129 142 145 128 144 146 127 146 144 126 148 143 124 149 144 124 151 144 125 151 143 125 152 143 127 152 143 127 151 142 127 150 140 129 148 140 131 147 139 135 146 138 136 144 138 136 144 137 136 145 137 137 146 137 138 148 136 139 149 135 139 150 136 139 151 138 139 151 140 140 152 141 141 151 141 143 148 142 143 146 142 144 145 142 146 136 152 130 137 151 130 136 149 130 137 149 130 138 148 130 138 148 131 139 148 131 140 148 131 140 148 130 140 147 130 141 145 133 140 145 133 140 145 133 140 145 132 140 145 133 139 145 133 140 145 132 140 144 131 140 144 131 140 143 130 142 144 129 142 144 128 143 145 127 145 143 126 147 142 125 147 142 124 149 143 124 149 144 124 149 143 125 148 143 126 149 142 126 149 141 127 147 140 129 146 139 131 145 139 134 145 137 135 143 136 135 143 135 136 143 135 137 143 134 137 146 134 137 148 134 138 149 134 138 150 136 138 150 139 138 151 140 140 150 140 142 149 141 143 147 141 144 146 141 147 134 152 127 135 150 126 136 149 127 136 149 128 137 148 128 138 146 128 138 147 128 139 147 128 139 147 128 139 146 128 139 144 130 139 145 130 140 145 131 140 145 131 141 145 130 140 144 130 140 143 130 141 143 129 142 143 129 142 143 129 142 144 128 142 144 126 143 144 125 145 143 124 146 142 125 147 142 125 147 143 124 148 143 126 147 143 126 147 143 126 146 142 127 146 142 127 145 141 129 144 141 131 142 140 134 142 138 135 142 136 135 141 135 136 141 134 137 141 134 137 143 132 137 145 132 138 146 133 138 148 135 138 148 138 138 150 139 141 149 139 143 148 140 144 147 139 145 146 139 148 133 151 125 134 149 124 134 148 125 135 148 126 136 146 126 137 146 127 136 147 126 137 146 125 137 146 125 137 145 126 138 144 127 138 144 126 139 145 128 140 144 129 141 142 127 141 142 128 142 142 128 141 144 127 143 144 128 144 143 128 143 144 127 144 144 124 144 144 122 145 143 122 146 143 124 148 142 125 147 141 125 147 142 127 146 143 127 145 143 126 144 143 128 144 143 128 143 143 130 142 142 132 141 141 133 140 140 134 140 139 133 140 135 135 139 134 137 139 134 137 141 133 137 143 131 137 144 132 138 146 134 138 147 137 140 148 137 142 148 138 143 147 137 145 146 137 146 145 137 149 132 150 124 133 148 123 134 147 122 134 147 123 134 147 124 134 146 125 133 146 124 133 146 124 135 145 123 136 145 124 136 144 125 137 143 124 137 143 125 137 143 125 139 141 124 141 141 124 143 142 125 144 143 125 144 144 124 145 144 125 146 145 125 146 145 122 145 144 121 147 143 120 148 143 122 149 142 123 148 141 125 147 142 126 147 143 127 145 143 127 143 143 128 142 143 129 141 143 129 140 142 131 140 142 133 140 142 132 139 140 133 139 138 135 139 136 136 138 135 136 140 133 137 142 133 137 143 133 138 145 133 139 146 134 142 146 136 143 147 136 143 147 137 146 145 136 148 144 137 150 130 148 120 131 147 120 131 147 120 132 146 120 131 146 122 129 145 122 130 144 121 130 144 121 132 144 121 134 144 122 135 143 121 134 141 121 135 143 122 136 142 121 139 141 121 140 141 121 143 142 121 145 144 122 145 146 123 146 146 123 147 146 121 147 147 120 147 145 119 150 144 119 150 143 121 149 142 123 147 142 125 146 141 126 146 143 127 145 144 129 143 143 130 142 143 130 139 143 131 138 143 131 139 143 132 140 143 131 140 143 132 139 141 134 139 138 135 138 136 136 139 134 137 141 134 137 142 134 139 144 133 141 145 134 143 146 134 143 147 135 145 146 135 147 145 135 149 144 134 151 128 147 116 128 146 117 128 146 118 129 144 118 128 144 119 127 144 118 127 143 118 128 143 118 130 142 118 133 142 118 133 142 118 133 141 119 133 141 119 134 141 119 138 142 119 140 142 118 141 144 117 143 146 119 145 148 119 146 147 118 148 147 119 148 147 119 149 147 118 152 146 118 151 144 119 149 143 122 147 142 125 146 142 126 145 143 127 145 143 129 144 144 129 141 143 130 139 143 130 138 143 131 137 144 133 140 144 132 139 143 133 139 141 133 139 140 134 138 138 136 138 136 137 140 136 138 141 135 140 143 133 141 146 134 143 147 134 144 147 133 146 147 133 148 146 133 150 144 132 152 125 146 113 126 145 114 127 146 115 127 145 116 126 144 116 125 143 115 125 141 114 126 141 115 129 142 115 130 141 115 131 140 116 131 141 116 131 142 116 133 141 116 136 143 115 138 145 115 140 147 114 142 148 115 145 149 115 147 149 115 148 149 117 149 149 117 151 148 117 152 147 117 150 145 118 148 143 121 147 143 124 146 144 126 145 144 128 145 144 127 144 143 128 142 143 129 140 142 129 139 143 131 139 144 133 139 144 133 139 144 133 138 142 133 138 141 134 138 139 136 139 138 137 140 136 138 142 136 140 144 134 141 147 134 143 148 133 145 148 132 147 147 130 149 147 130 150 145 129 153 122 146 111 123 147 113 123 146 113 123 145 113 124 144 114 123 143 112 124 142 111 125 141 112 127 141 113 128 140 113 130 140 113 131 141 114 133 144 114 133 144 113 135 146 113 138 146 111 140 148 112 142 149 112 144 149 113 146 150 112 148 150 115 149 149 115 150 148 115 151 148 115 150 147 116 149 144 119 146 144 123 145 144 125 145 144 126 144 144 127 143 142 128 142 142 129 141 142 129 140 143 132 141 144 133 141 144 134 140 144 135 139 143 135 138 140 135 138 139 136 139 137 138 140 136 139 142 136 142 145 134 143 148 132 145 148 131 146 148 129 148 147 128 149 147 126 151 146 126 154 118 147 109 118 147 111 119 145 111 121 144 111 122 143 112 121 144 111 122 142 110 123 141 109 124 141 110 125 141 111 128 140 112 129 142 113 132 145 113 134 146 111 135 149 110 137 148 110 140 149 110 142 150 110 144 149 111 145 149 112 147 150 114 150 150 115 150 149 114 150 149 113 149 147 114 148 146 117 146 146 120 145 145 122 145 145 125 144 145 127 143 143 128 142 141 129 141 141 129 140 142 131 141 143 132 142 142 134 141 143 136 139 142 136 138 140 136 138 138 137 139 136 139 140 134 140 144 134 142 147 134 144 148 132 145 148 131 146 148 128 149 148 127 151 147 125 152 146 124 154 115 146 108 116 145 109 117 146 109 119 144 110 119 143 110 119 145 110 120 144 109 121 143 109 122 143 109 123 142 110 126 143 111 127 144 113 129 147 112 132 150 110 133 151 109 135 150 109 139 149 109 140 150 110 142 150 111 144 150 112 146 149 112 147 149 114 149 149 113 149 149 113 148 147 114 147 147 116 147 147 119 145 146 121 145 146 124 144 145 127 145 143 128 144 141 128 142 139 129 142 139 131 141 140 132 141 140 134 141 140 136 139 139 136 138 139 137 139 137 138 140 136 139 142 134 140 145 134 141 148 134 143 149 133 145 149 131 147 148 129 149 148 127 152 146 125 153 145 123 154 113 145 107 115 144 107 116 144 108 117 144 108 116 144 108 119 145 108 119 145 108 120 146 109 121 146 109 121 145 110 123 145 112 125 147 112 128 150 112 130 153 110 132 153 108 134 153 108 137 151 109 139 151 110 141 150 111 143 150 112 144 150 113 146 149 114 147 150 113 148 148 113 148 146 114 148 147 115 147 147 117 146 147 120 145 145 123 145 143 125 145 141 126 145 140 127 143 138 129 142 137 131 141 138 132 140 138 133 139 138 135 138 138 137 139 137 137 140 136 138 141 135 139 143 135 141 145 135 141 147 134 143 148 132 145 149 130 147 148 129 150 146 127 153 144 125 154 143 123 157 111 145 106 113 143 107 115 143 106 115 144 107 116 143 107 117 144 107 119 147 107 119 147 109 120 147 110 121 147 110 122 148 111 124 151 112 127 153 111 129 154 108 131 154 108 133 155 107 135 153 109 137 152 110 140 150 111 142 151 112 144 151 113 145 150 113 146 148 113 148 147 113 149 146 114 149 147 115 147 147 117 147 146 119 146 144 122 146 141 123 147 138 124 146 138 126 145 137 128 143 136 129 142 136 131 140 136 133 139 137 134 138 137 136 138 136 137 140 135 138 142 136 140 143 135 142 143 135 142 145 133 144 146 132 146 147 130 148 146 128 150 144 126 153 142 124 156 140 122 158 110 145 106 113 143 106 114 143 106 114 144 106 115 143 105 115 145 106 117 147 107 119 148 109 120 148 110 121 149 111 122 151 112 123 153 111 125 155 110 127 154 109 130 155 108 133 155 108 134 154 108 135 152 108 138 151 110 140 150 112 143 151 112 146 149 113 147 148 113 148 145 112 148 145 113 148 145 115 147 144 116 148 144 118 147 142 120 146 139 122 147 138 123 147 137 125 146 136 126 144 136 128 143 135 130 142 137 132 140 136 134 139 136 137 140 134 138 142 135 139 142 136 141 142 136 142 143 135 142 144 133 144 145 131 147 145 129 149 145 127 150 142 126 153 138 123 157 137 120 159 109 147 106 112 145 107 113 145 108 113 145 107 113 145 105 115 146 106 117 147 108 118 148 109 119 150 110 121 151 111 122 152 111 124 154 110 125 155 110 127 155 110 129 154 110 131 154 109 132 154 108 134 153 109 136 151 109 138 150 111 141 149 111 145 149 112 147 148 112 147 146 112 147 144 112 148 144 114 149 143 116 150 143 117 148 141 119 147 140 121 148 138 122 148 137 124 147 136 126 145 137 129 144 137 131 143 137 132 141 136 135 141 135 137 142 134 140 142 134 141 142 136 142 141 136 143 141 135 143 142 133 145 144 131 148 144 129 150 142 127 151 139 125 155 137 122 159 135 120 160 108 148 106 110 147 108 112 147 109 113 146 108 114 147 107 115 148 106 116 148 107 117 149 108 119 150 109 121 151 110 123 152 111 125 153 110 128 156 111 129 155 111 130 154 111 131 153 110 132 152 109 134 151 109 136 150 110 137 149 110 141 148 111 144 148 112 145 147 112 146 145 113 147 144 113 148 143 114 149 142 115 150 142 117 149 141 118 148 141 120 148 139 122 147 139 124 146 138 125 145 137 128 144 138 131 144 138 134 143 137 136 142 135 139 141 134 141 141 134 143 140 135 144 140 136 144 140 135 144 141 133 145 143 131 148 142 128 150 140 126 153 137 124 156 135 123 159 134 121 161 106 149 107 108 148 109 110 150 110 112 149 109 114 149 107 115 151 107 115 151 106 117 150 108 118 151 110 120 152 111 122 153 112 125 154 111 128 156 111 129 154 111 130 153 111 132 151 111 134 150 111 136 150 110 138 149 111 138 148 111 141 146 110 143 145 110 145 146 111 146 145 112 147 144 112 148 143 114 149 142 116 149 142 118 149 142 119 149 142 122 148 140 123 147 140 124 145 139 126 145 139 128 144 138 132 143 138 135 144 138 138 142 136 141 140 134 142 139 134 145 140 135 147 139 135 146 139 134 146 139 132 147 140 130 149 138 127 152 137 126 155 135 125 157 132 124 159 132 123 161 105 150 109 107 150 109 109 151 110 112 151 108 114 152 107 114 152 108 116 151 107 117 152 108 118 152 110 120 153 112 121 154 112 125 156 112 128 155 110 130 153 111 131 151 111 133 150 112 135 149 111 137 149 112 137 148 113 138 147 112 140 145 110 143 145 111 145 145 112 145 145 111 147 145 112 147 143 113 148 142 116 148 142 118 149 143 120 149 142 123 147 142 125 145 141 125 145 140 126 144 140 130 143 140 134 142 140 136 143 139 140 141 137 143 139 136 145 138 134 147 138 134 148 137 134 149 137 133 148 137 131 149 137 129 151 137 127 153 135 126 155 133 126 156 132 126 159 131 125 161 104 151 109 106 151 109 109 152 108 110 152 107 112 154 108 113 153 108 114 153 108 115 154 108 118 153 111 119 153 112 121 154 112 124 154 111 127 154 110 129 151 112 131 150 112 133 148 112 135 148 112 136 148 113 137 147 113 139 145 112 140 145 111 143 144 111 144 144 113 145 144 112 147 144 113 146 144 115 146 142 115 147 143 119 148 143 122 149 143 125 148 141 126 146 141 127 143 141 128 143 140 131 143 140 135 141 140 137 140 139 141 139 137 144 137 136 146 136 134 147 137 134 149 135 133 150 134 132 150 134 131 151 134 130 153 134 128 154 134 127 155 133 128 157 132 127 159 130 128 160 104 153 108 106 152 109 107 152 108 108 152 108 110 153 109 111 155 109 113 154 109 115 155 109 117 154 111 119 153 112 121 153 112 123 154 112 126 152 111 128 151 112 130 149 113 132 148 112 134 147 113 135 146 114 136 146 114 138 146 114 140 146 112 143 145 112 145 145 113 147 144 114 148 144 115 146 143 116 147 143 117 147 143 119 148 143 121 149 143 124 148 141 128 145 141 129 143 141 130 142 140 133 141 140 135 140 140 139 139 137 143 137 136 144 136 135 145 135 135 148 136 134 151 134 134 152 132 134 152 131 133 153 131 132 154 131 131 156 131 130 158 131 128 159 130 128 160 128 129 160 103 153 109 104 153 110 106 152 110 107 152 110 109 154 110 110 155 111 112 155 111 114 155 111 115 154 111 117 153 112 120 152 112 123 152 111 125 151 111 127 149 112 128 148 113 130 147 113 132 147 115 134 146 116 136 146 115 137 146 115 139 146 114 142 145 115 144 146 115 147 144 117 149 143 117 148 144 117 147 144 117 148 143 118 148 143 121 147 142 124 147 141 127 145 141 130 142 141 132 141 139 134 141 139 138 140 138 140 139 136 143 136 136 144 136 136 146 135 136 149 134 135 152 132 135 154 130 135 155 129 134 154 129 134 155 129 132 157 128 132 160 128 131 161 127 131 163 125 131 162 103 153 111 103 153 110 104 152 110 105 153 111 107 154 112 109 155 113 111 155 113 113 155 112 115 154 112 116 153 113 118 151 112 121 151 112 123 150 112 126 148 112 127 147 113 129 147 115 130 147 116 133 146 117 134 147 117 136 146 117 138 146 117 141 146 118 143 145 118 146 145 119 148 144 119 147 145 119 146 144 119 146 142 120 146 141 122 145 141 125 144 141 127 144 140 132 142 139 133 141 138 134 141 138 138 139 138 140 138 136 142 136 136 144 135 136 146 134 136 150 133 135 154 132 135 156 129 136 156 127 135 156 127 136 156 127 135 158 126 134 161 125 134 162 124 133 163 123 132 163 104 152 112 105 153 112 105 153 111 106 154 112 108 155 112 110 155 112 112 155 113 113 154 112 115 153 112 116 150 113 117 149 113 119 148 112 121 149 113 123 148 113 127 147 114 127 147 115 128 147 117 130 146 119 133 146 119 134 145 119 137 145 120 140 145 121 143 145 122 144 145 122 146 145 123 146 145 123 145 144 122 144 141 123 143 141 124 141 141 125 141 140 129 141 139 132 141 137 133 140 137 135 140 137 137 138 137 139 137 136 142 135 136 144 134 136 146 132 136 150 132 137 154 131 136 156 128 136 157 126 136 157 125 137 158 124 136 159 124 136 161 122 137 162 121 135 163 119 134 163 106 154 113 107 154 111 107 154 110 108 153 111 109 154 110 111 154 111 113 155 112 115 154 112 115 152 112 115 149 112 116 147 112 118 146 112 120 146 113 122 147 113 126 146 114 127 146 115 127 146 117 129 146 119 132 146 121 135 146 121 138 145 122 139 145 123 142 145 123 143 145 124 145 145 124 144 143 125 143 142 125 141 140 126 140 140 126 139 139 127 139 138 130 139 139 132 139 138 134 137 137 135 138 137 137 136 136 139 135 136 141 134 137 143 133 136 146 131 136 150 130 136 154 129 135 156 126 135 156 124 136 158 123 136 158 122 137 158 121 139 160 120 138 161 118 138 161 116 136 162 108 155 112 109 155 110 108 154 110 109 152 110 109 152 109 112 153 111 114 154 112 115 153 113 116 150 113 117 147 112 117 145 110 118 144 111 120 145 112 121 145 113 124 145 114 125 145 116 127 144 118 128 145 120 131 146 122 134 145 123 137 145 124 139 144 125 141 143 126 143 143 125 144 142 125 144 140 126 142 139 126 140 137 127 137 136 127 137 135 128 137 136 131 136 138 133 136 137 134 136 137 135 135 136 136 135 135 139 135 136 141 133 136 143 132 134 147 131 134 150 129 133 153 126 134 155 124 134 155 123 135 156 121 136 157 120 138 158 119 140 159 117 141 160 116 140 160 114 140 161 109 154 111 108 155 111 108 153 111 109 151 111 109 151 110 111 151 111 113 151 111 116 151 112 117 149 112 118 146 111 117 144 111 118 143 111 119 144 111 121 144 113 123 146 114 126 145 116 127 143 119 129 144 120 132 144 121 134 144 123 136 144 125 138 144 127 141 142 127 143 139 125 143 138 126 142 136 126 140 134 126 138 134 126 135 133 126 135 133 127 135 135 130 133 136 132 133 136 134 134 136 134 133 136 136 133 136 138 133 135 141 132 134 143 131 133 146 130 133 149 127 133 152 124 133 153 122 134 153 121 135 154 120 137 155 119 138 156 117 141 158 117 143 158 115 142 159 113 142 159 109 154 111 109 154 112 108 152 112 109 151 111 110 151 110 111 150 111 114 150 110 117 149 111 118 147 112 118 145 111 119 144 111 119 143 111 119 143 112 121 144 113 124 144 114 126 144 117 128 144 119 130 143 119 131 142 120 133 142 122 136 142 124 138 141 126 140 140 126 141 138 126 142 135 126 141 133 126 139 132 125 137 132 125 134 131 126 133 131 128 133 132 129 132 134 131 131 134 132 132 135 134 132 136 137 132 135 139 132 134 140 131 133 142 130 132 144 128 132 146 125 131 149 123 133 151 122 135 152 121 136 153 121 137 153 119 138 155 117 141 156 116 142 156 114 144 157 112 144 158 110 153 112 109 153 113 109 152 112 109 150 112 111 150 112 112 149 111 114 148 110 118 147 111 119 145 111 118 143 110 120 142 111 120 142 112 121 142 113 122 143 114 125 143 115 127 143 116 128 142 117 131 142 118 132 140 119 135 140 121 137 140 124 139 139 126 139 137 127 139 136 127 140 133 127 139 131 125 138 130 125 136 130 124 134 129 126 133 129 128 132 130 129 131 132 130 130 134 133 130 135 135 131 136 137 130 134 139 130 133 141 129 131 141 128 131 143 127 131 145 125 131 147 123 133 149 121 135 151 120 137 152 120 139 154 119 139 153 117 140 154 114 141 154 112 142 156 109 144 158 109 150 111 109 151 111 110 151 112 111 149 112 111 148 113 113 147 112 115 147 111 118 145 111 119 144 110 120 142 109 120 140 111 120 140 113 121 140 114 123 140 116 127 141 116 128 141 117 130 141 118 133 140 119 134 139 119 135 138 120 138 138 123 138 138 125 138 135 125 138 133 125 138 131 125 139 129 125 138 129 125 136 128 125 135 127 125 134 129 127 132 130 129 130 131 130 129 133 133 129 134 134 129 135 136 128 134 139 128 132 140 127 131 141 126 130 142 125 129 143 124 130 145 122 131 147 121 133 149 120 136 150 120 138 152 118 139 152 115 139 153 112 140 153 110 142 156 108 143 157 109 149 110 109 148 111 111 148 111 111 147 112 112 147 113 114 145 113 115 144 113 117 144 112 120 143 110 121 141 109 121 140 111 122 138 114 122 137 115 124 137 116 128 138 116 130 139 118 131 139 119 133 139 119 133 138 120 136 137 120 137 137 121 137 136 122 137 134 123 138 132 123 138 131 125 138 129 125 138 128 125 136 128 125 135 127 126 133 128 127 131 129 128 130 131 129 128 133 131 127 132 133 126 133 135 127 132 137 126 131 139 125 129 140 125 129 141 124 128 141 121 129 143 120 131 145 119 133 146 119 135 149 118 137 150 116 138 151 112 139 151 110 140 152 107 141 154 106 142 156 110 147 109 110 146 110 112 145 112 113 145 113 114 145 113 114 144 114 115 142 113 117 142 112 120 141 111 122 139 110 123 139 110 123 137 114 124 137 117 126 137 117 129 137 117 130 138 119 129 138 119 131 138 119 132 138 119 134 137 119 136 136 120 136 135 122 137 133 122 137 131 123 136 129 124 137 128 125 137 128 125 136 126 126 135 126 126 133 127 127 131 130 128 130 130 129 128 131 131 126 132 132 126 132 133 126 132 136 125 130 137 125 129 139 124 130 139 122 129 139 119 129 142 118 131 145 118 132 146 118 134 147 117 136 149 114 137 150 110 139 151 108 140 152 105 142 154 103 142 155 110 146 109 112 145 110 113 143 111 113 142 113 114 143 115 115 141 114 116 140 113 117 140 112 119 138 112 122 137 111 123 137 111 124 136 114 126 136 116 127 136 118 129 135 119 131 136 119 130 137 118 130 136 117 131 136 117 133 135 118 134 135 119 134 133 120 133 132 121 133 130 122 135 129 123 137 127 124 137 126 125 135 125 125 134 125 127 134 127 127 132 129 127 130 129 129 129 130 130 128 130 130 127 131 132 126 131 135 125 130 136 125 130 138 123 131 138 121 131 139 118 132 143 118 131 144 117 131 145 116 134 146 115 136 147 114 138 149 111 141 151 108 143 152 105 144 154 101 143 156 112 145 110 114 143 112 115 143 113 114 141 114 114 140 115 115 138 114 115 137 114 116 136 113 120 136 113 123 136 112 123 135 112 125 135 113 127 134 116 128 134 118 129 134 119 130 134 118 130 133 117 130 133 116 131 133 117 133 132 117 134 132 119 133 130 119 132 130 120 132 130 120 134 128 121 136 127 122 137 126 123 135 125 125 134 126 126 133 126 126 132 127 126 130 128 127 129 129 129 128 129 130 128 129 131 127 130 133 125 131 135 124 131 137 122 133 138 121 133 138 120 134 141 119 133 143 117 133 143 115 134 143 113 136 145 111 138 148 109 141 151 107 142 152 104 144 154 101 144 156 114 142 113 115 141 115 116 140 116 116 139 116 116 138 115 116 136 115 116 135 115 117 134 113 120 134 112 122 133 113 124 133 112 125 133 113 127 132 116 128 132 117 128 131 119 130 131 117 130 130 116 130 128 116 131 128 117 133 128 117 134 128 118 134 129 118 132 129 118 132 130 118 134 128 118 134 125 120 135 125 121 135 124 123 135 125 123 133 125 124 131 126 125 130 127 126 129 127 128 129 126 130 129 127 131 128 128 132 126 130 133 124 131 135 122 132 137 122 134 137 120 135 138 119 135 141 117 135 142 116 135 142 113 136 145 110 138 148 108 140 151 105 142 153 102 143 156 101 144 157 113 140 114 114 139 116 117 138 116 116 137 117 116 135 117 117 134 117 119 133 116 119 131 114 121 129 112 123 129 113 124 129 112 125 129 114 125 129 116 126 128 117 126 128 119 128 127 118 129 126 116 130 125 116 131 125 118 133 126 118 132 126 118 132 127 117 133 127 117 133 127 117 133 127 117 134 124 119 135 123 121 135 123 121 134 123 121 133 124 122 132 125 124 131 125 125 130 126 126 130 125 128 128 126 128 127 129 129 126 130 131 124 129 133 123 131 135 123 133 135 121 135 137 119 136 140 118 136 141 116 136 142 113 136 145 109 138 149 106 141 152 103 142 155 100 144 156 99 145 158 115 136 115 115 136 116 117 135 117 116 135 118 116 134 118 118 132 117 119 130 115 120 129 113 121 127 112 123 126 112 124 126 112 124 126 113 125 126 114 125 125 115 126 125 117 127 125 117 128 124 115 129 124 116 130 123 116 131 125 117 132 125 117 132 126 117 133 126 116 133 125 117 134 124 118 135 122 118 135 121 119 135 122 120 134 123 120 133 123 120 132 124 122 131 123 124 130 124 124 129 123 126 127 125 127 126 127 127 124 128 130 124 129 131 124 130 133 123 131 134 121 133 136 120 135 138 118 136 140 115 136 143 112 137 146 110 138 150 106 140 154 102 142 156 99 144 158 97 145 159 115 134 115 116 133 116 116 133 117 115 133 119 117 132 119 118 130 118 119 127 116 121 127 114 121 126 112 123 125 112 123 123 112 123 124 111 124 123 112 124 122 113 125 123 115 126 123 116 127 123 116 128 122 115 131 122 115 131 124 116 133 125 116 133 126 115 134 125 115 134 124 116 135 123 117 135 122 117 137 120 118 136 121 119 135 122 119 134 122 120 132 123 122 131 122 123 130 122 124 128 123 125 127 124 125 126 125 126 125 126 128 124 128 129 124 129 131 123 129 133 122 131 136 120 133 139 119 134 141 115 135 144 112 135 148 110 137 152 106 140 154 102 142 156 100 144 159 98 144 160 116 131 115 117 131 116 117 132 117 116 132 119 117 130 120 118 127 119 120 126 117 122 125 115 122 123 113 123 121 113 123 121 112 123 122 111 124 121 111 124 121 113 125 122 115 125 122 116 127 122 116 128 122 115 129 122 114 131 123 114 132 123 114 134 124 115 135 123 115 135 121 114 135 121 115 136 122 115 136 121 117 136 121 119 136 121 119 135 121 121 134 121 123 132 122 123 129 121 123 128 120 124 127 122 126 127 123 126 125 125 127 124 127 129 124 127 130 124 128 131 122 130 136 121 132 140 118 133 143 115 133 146 113 134 149 111 136 151 107 140 154 103 142 155 101 142 159 100 143 161 116 129 117 118 129 117 118 129 119 118 129 120 118 128 121 119 126 120 121 125 119 123 123 117 123 121 115 123 120 115 122 119 114 124 120 113 125 120 113 124 120 114 125 119 115 126 120 116 127 121 116 127 122 115 128 122 113 130 122 112 133 122 112 135 122 114 135 121 115 135 120 115 135 120 114 136 122 114 137 121 116 137 121 118 136 121 119 135 121 119 134 121 121 132 122 121 129 121 122 127 119 123 126 120 125 126 121 126 126 123 126 125 125 129 123 126 130 123 128 132 122 131 136 120 132 141 118 133 145 116 133 147 114 135 149 113 136 151 109 139 154 105 140 156 103 142 158 101 143 160 117 128 119 118 127 119 119 127 121 119 126 121 119 124 121 120 122 121 122 122 119 124 121 118 123 120 116 123 119 116 124 118 116 125 118 116 126 118 116 126 119 116 125 118 116 127 119 116 128 120 116 129 121 113 130 122 111 131 122 112 134 121 113 135 121 114 136 121 115 136 120 115 136 120 114 137 121 114 138 122 116 138 123 117 137 121 118 135 122 118 133 122 119 131 122 121 129 121 121 128 120 123 127 120 126 126 121 127 126 123 129 125 124 130 123 126 131 121 128 134 120 131 138 119 131 143 118 132 147 116 133 149 114 135 150 113 137 151 111 138 154 108 139 155 105 141 157 102 142 158 116 125 121 118 124 121 120 123 121 121 123 122 122 121 121 123 121 121 123 121 120 123 119 119 124 118 117 124 116 117 125 117 117 126 116 118 128 115 118 128 117 117 127 117 116 129 118 115 129 119 114 130 120 112 132 121 110 133 121 111 134 120 113 135 120 114 136 120 115 137 120 115 137 120 114 138 121 115 140 121 117 139 123 117 138 122 117 136 122 117 133 122 117 130 121 119 129 121 120 128 121 122 128 121 125 127 122 128 126 123 130 124 125 131 121 127 133 119 129 136 118 130 141 117 130 145 116 133 148 115 134 151 114 135 151 111 136 153 111 137 153 108 138 155 105 140 158 102 140 159 116 124 122 118 121 121 121 121 121 122 122 122 123 121 121 124 120 120 124 119 120 125 117 119 125 116 118 124 115 119 126 115 120 128 114 119 129 114 120 128 115 119 128 117 117 130 118 115 132 120 113 132 121 111 133 121 109 134 122 110 134 120 111 135 120 113 136 120 114 137 121 115 138 120 115 138 120 116 139 120 118 138 122 117 136 123 117 135 122 116 132 123 116 131 123 118 129 123 120 129 122 120 130 122 125 128 121 128 126 122 130 124 124 132 122 126 135 120 129 138 117 129 143 115 130 146 115 132 148 114 134 151 112 135 153 111 136 153 111 138 153 109 138 154 106 138 157 104 139 159 115 123 122 119 121 121 121 120 122 122 119 122 123 119 122 124 118 122 125 117 122 125 116 121 126 114 121 126 114 121 128 113 121 129 114 121 130 113 121 129 114 121 130 116 119 130 118 115 132 120 114 133 121 112 133 122 110 132 122 111 133 121 112 134 120 112 136 120 112 137 120 114 139 119 116 138 119 117 137 119 118 135 121 117 134 123 117 132 123 117 131 123 116 130 123 118 130 124 120 130 123 121 129 123 124 128 123 127 126 122 130 124 123 133 123 124 136 120 127 139 117 128 143 115 129 146 113 131 147 112 134 150 112 135 151 111 136 153 109 137 153 108 137 154 107 138 155 104 138 157 115 121 122 119 119 123 122 118 123 122 117 124 124 116 124 124 116 126 125 116 124 126 114 124 127 112 124 128 112 123 129 112 123 129 112 123 129 111 123 131 113 122 130 115 120 130 118 117 131 119 116 133 121 113 134 121 112 134 122 112 135 121 112 136 119 112 136 119 112 137 119 114 138 118 117 136 119 118 134 120 119 133 120 118 132 121 118 131 121 118 130 122 118 130 123 119 131 123 120 131 123 122 130 124 125 128 125 127 127 124 130 124 124 134 122 125 136 119 127 139 117 128 143 115 129 145 112 131 147 110 133 148 109 134 150 110 136 152 109 136 152 107 137 152 105 137 153 104 137 155 117 120 125 120 119 125 121 117 125 123 116 126 123 115 128 124 115 127 125 114 125 127 113 125 129 112 125 130 111 125 129 111 124 130 111 124 130 111 125 131 111 124 132 114 123 131 117 119 132 119 116 135 120 115 135 121 114 136 122 113 136 122 113 137 120 114 137 119 113 138 118 116 136 118 118 134 119 118 132 121 119 131 121 120 130 121 119 131 121 119 130 122 119 130 123 122 131 124 122 130 124 124 130 124 127 129 125 128 127 126 130 124 127 133 122 127 136 120 129 139 118 130 142 115 131 145 111 131 146 108 133 147 108 134 147 108 136 149 107 136 150 105 136 150 104 136 152 102 138 153 117 121 126 121 118 127 122 117 127 122 115 127 123 114 128 125 114 127 126 113 126 128 112 125 130 111 126 130 111 126 131 110 125 132 110 126 132 110 126 133 112 125 134 114 124 134 117 120 134 119 117 135 121 116 136 122 114 137 121 114 138 121 115 138 120 116 138 119 116 136 119 116 136 119 117 133 120 119 132 120 121 131 121 120 131 121 120 131 121 119 131 123 122 131 123 124 131 124 124 131 125 126 130 125 129 128 127 129 126 128 131 124 130 133 123 130 136 120 131 139 118 132 142 114 133 143 109 133 144 108 133 144 107 135 145 107 136 146 105 136 148 104 137 149 102 138 150 102 139 150 117 120 126 120 118 126 123 117 128 124 115 128 124 114 127 125 113 127 127 113 127 129 111 127 130 110 127 131 110 127 132 109 127 133 109 127 135 109 127 136 111 126 137 114 125 136 116 121 136 118 117 137 119 115 138 120 114 138 121 115 138 120 116 138 120 116 137 121 117 136 120 117 135 121 118 133 121 120 133 120 122 133 121 121 133 122 121 132 122 121 133 122 123 133 124 124 132 124 126 132 126 128 131 128 129 130 130 130 128 130 132 126 131 134 125 132 136 122 135 140 117 136 142 114 135 142 111 135 142 109 136 143 108 137 143 107 138 144 105 138 147 104 138 148 102 139 148 101 141 149 118 121 126 121 118 126 123 116 127 125 115 128 125 114 127 125 113 126 127 113 127 129 111 127 131 110 127 132 110 128 134 109 128 135 108 129 137 110 128 138 112 126 139 113 124 139 115 122 139 117 118 139 117 116 138 118 115 139 119 116 138 118 116 137 120 116 137 122 116 135 123 118 134 123 119 133 122 120 134 122 122 135 120 123 135 122 122 134 123 122 133 124 123 134 124 124 134 125 127 133 126 129 133 128 131 132 130 132 129 130 134 127 133 134 125 134 136 122 136 138 118 136 140 115 137 140 112 138 140 109 139 140 108 138 142 106 139 142 105 139 145 105 141 146 103 142 147 101 142 149 117 122 124 119 119 125 121 117 127 124 116 127 126 115 126 126 114 125 127 113 127 128 111 127 131 111 128 133 109 128 134 110 129 136 110 130 138 111 129 138 112 127 139 113 124 140 114 121 141 115 120 140 116 118 139 117 117 139 118 117 137 118 116 136 121 116 134 123 116 134 123 118 133 123 119 133 123 119 135 122 121 135 122 122 136 122 123 134 124 124 134 124 124 135 124 125 135 126 126 134 126 130 134 127 131 133 128 133 131 131 134 129 133 134 126 136 135 123 136 137 121 137 138 118 138 138 115 138 139 111 139 139 109 139 141 107 140 142 106 141 143 106 142 145 105 144 147 103 145 149 