P3
50 50
255
84 149 134 88 152 132 91 155 131 92 157 130 94 161 129 95 165 127 97 168 125 98 169 124 100 170 124 101 173 124 102 174 125 103 177 125 104 179 125 107 183 124 109 185 123 110 187 123 110 190 121 110 193 118 111 194 119 114 196 121 118 197 122 120 196 124 121 196 127 122 196 127 122 197 129 125 197 131 127 198 132 128 199 133 131 199 135 132 200 138 133 200 140 134 199 141 135 200 143 137 201 145 139 201 148 141 202 150 144 202 151 144 203 152 146 203 154 147 204 157 151 203 160 152 202 164 154 202 167 155 201 168 156 200 169 157 199 170 159 197 172 160 195 173 161 193 174 163 189 176 84 147 133 88 151 131 91 154 129 93 157 129 94 160 128 96 164 126 98 168 124 100 170 123 101 172 122 103 174 122 104 177 123 105 179 123 107 181 124 109 185 123 111 187 122 111 190 121 111 192 118 112 194 117 113 196 118 115 197 119 118 198 121 119 198 124 122 198 127 122 197 128 123 198 131 126 199 132 126 199 133 128 200 134 129 201 134 130 202 137 132 202 139 133 202 141 135 202 143 138 203 146 141 203 147 143 204 150 144 205 151 145 205 152 147 206 154 149 206 157 151 206 160 153 204 163 154 203 166 155 201 168 155 200 169 158 200 171 160 199 173 162 197 173 164 194 174 165 191 176 85 147 131 88 151 130 90 154 128 92 156 127 95 160 126 97 163 124 99 168 123 101 172 121 103 175 120 105 178 120 106 181 120 107 182 121 109 183 123 110 186 121 111 188 120 112 191 119 113 193 117 114 195 118 115 197 118 116 199 120 118 200 121 119 200 123 121 200 126 121 200 129 123 200 132 125 201 134 126 201 135 126 202 135 126 203 136 128 204 137 130 205 139 133 205 142 134 204 143 137 204 146 140 205 148 144 206 150 145 207 151 146 208 153 147 208 155 150 207 157 152 207 159 154 205 162 154 204 166 155 203 168 157 201 169 159 200 172 161 198 174 163 196 174 164 194 176 165 192 177 88 148 128 90 152 127 91 155 126 93 157 125 96 161 126 97 165 124 99 169 123 101 173 121 104 178 118 105 181 118 108 183 118 109 184 119 111 186 119 111 188 119 113 191 119 114 193 118 115 196 118 117 198 119 119 199 121 118 200 122 119 203 123 119 203 124 119 203 127 119 203 130 121 203 133 124 203 135 124 203 136 124 203 137 124 205 137 126 206 138 129 207 140 132 206 141 135 205 144 138 206 146 141 208 148 144 208 149 146 209 152 148 210 153 149 209 155 151 209 156 152 207 158 154 205 161 155 204 164 155 202 167 157 200 170 160 199 173 162 197 174 163 195 175 165 195 175 167 193 176 89 151 127 90 153 126 92 155 126 94 159 126 97 163 126 98 168 124 99 171 122 101 174 120 105 180 118 106 184 116 108 185 117 111 187 118 111 190 117 112 193 116 114 195 118 116 197 120 117 198 119 119 201 120 120 201 122 120 203 124 120 205 125 119 205 127 118 206 129 119 206 130 121 205 134 123 204 136 122 205 138 122 205 138 123 207 138 126 209 140 128 209 141 132 208 143 136 207 144 139 208 147 141 209 148 143 210 150 146 210 152 148 211 153 149 211 155 152 208 155 152 207 159 154 205 161 155 204 163 157 202 166 159 200 168 162 199 172 162 198 173 164 196 174 166 195 175 166 192 176 88 153 127 90 156 126 93 157 127 94 160 126 97 164 125 99 169 124 100 173 122 102 177 120 105 181 119 107 185 118 109 187 117 111 189 116 112 192 115 113 195 115 115 198 117 117 200 119 118 202 120 119 204 122 121 204 124 121 205 126 120 207 127 120 207 129 119 208 131 120 207 132 121 208 135 122 208 138 121 208 140 122 207 140 123 209 140 125 211 141 128 211 143 132 210 144 136 210 145 139 211 148 141 211 148 143 212 150 145 211 151 148 212 154 150 211 154 151 209 156 153 207 158 154 205 159 156 203 161 158 201 164 162 200 167 163 200 170 164 199 173 165 198 174 166 195 176 166 192 176 89 154 125 91 157 125 93 159 125 95 162 124 97 167 123 99 171 122 100 175 120 102 179 119 106 183 119 109 188 119 110 190 117 111 192 116 113 195 115 114 197 116 115 200 117 117 202 121 118 204 123 119 206 124 120 207 126 121 208 128 120 209 130 121 209 131 120 208 132 121 209 134 121 211 137 123 211 139 122 210 140 122 210 140 124 211 141 125 212 143 128 212 144 132 211 144 135 211 145 138 212 146 141 213 147 144 214 150 145 213 152 146 213 153 149 213 153 151 210 155 153 208 157 155 207 159 156 205 162 159 202 164 161 202 168 163 202 170 165 201 173 166 198 175 166 195 176 167 192 177 91 155 125 93 158 123 95 160 122 97 164 121 98 169 121 99 173 120 100 176 119 103 181 118 106 184 117 110 188 117 111 192 117 112 194 116 114 196 116 115 198 116 115 201 119 116 203 123 118 205 123 119 207 125 119 207 127 120 209 129 121 210 131 122 210 132 120 210 135 122 212 137 123 212 139 123 212 139 123 213 139 123 213 139 124 213 141 125 213 143 128 212 143 131 211 144 134 212 145 138 213 146 140 215 147 144 215 150 145 215 152 146 215 152 149 214 154 150 211 155 151 208 157 154 207 159 157 206 162 159 204 165 162 203 168 163 202 171 164 200 174 166 197 176 167 196 176 166 193 177 94 155 124 95 159 122 96 161 119 98 164 119 99 168 119 100 173 119 101 177 118 104 181 118 108 185 117 112 189 117 112 192 117 113 195 117 114 197 117 115 199 118 115 202 120 116 205 122 118 206 123 120 208 125 120 209 128 120 211 129 122 210 132 123 212 134 121 213 137 122 214 139 123 214 140 123 214 140 124 216 139 125 216 138 125 215 141 126 214 143 128 213 144 131 212 145 135 213 145 138 213 145 141 215 147 143 216 149 146 216 151 147 215 152 149 214 153 151 212 154 153 209 156 155 207 158 157 205 161 159 203 164 162 202 169 163 202 171 165 199 174 166 196 175 166 195 175 166 193 177 95 156 122 96 159 120 97 161 118 99 164 117 100 169 117 100 172 117 101 177 116 105 181 116 109 185 116 112 188 116 113 191 116 114 195 117 114 198 116 115 200 117 115 202 119 115 205 121 116 208 123 119 210 126 120 211 128 121 212 129 123 213 132 124 214 134 124 216 137 124 215 139 124 215 140 124 214 139 125 216 137 125 216 138 125 215 138 126 215 142 128 212 144 131 212 145 134 213 146 137 214 147 141 215 148 143 215 148 146 216 150 148 215 151 149 215 152 152 213 153 154 211 154 155 208 157 157 204 161 159 203 166 161 200 169 162 200 171 165 198 173 166 195 174 168 193 175 168 191 176 96 156 120 97 159 119 99 162 118 100 166 117 100 170 116 102 173 116 105 178 115 107 181 114 110 184 114 112 187 115 113 190 115 114 195 114 115 198 115 115 201 117 114 203 119 114 207 120 115 209 122 118 211 125 119 212 125 120 213 129 122 214 132 123 216 134 124 217 136 124 216 138 124 215 138 125 215 137 127 215 136 127 216 137 127 216 138 128 214 141 129 212 144 132 212 144 135 213 145 137 214 146 140 215 147 143 214 149 146 214 150 149 214 151 151 214 152 153 212 152 155 211 153 156 208 156 158 205 161 159 202 165 161 201 169 163 199 172 166 196 173 167 194 173 168 192 175 168 189 175 98 158 117 98 162 118 100 165 117 101 169 115 102 172 114 103 175 114 106 179 114 108 182 113 110 185 114 112 187 114 114 192 114 114 196 114 114 199 114 114 202 116 113 205 119 113 209 121 114 211 122 116 213 123 118 214 125 120 215 129 122 216 132 123 217 133 124 218 134 124 217 136 126 215 135 126 214 135 128 214 135 129 216 137 130 216 139 130 214 141 131 214 142 133 214 143 135 213 144 137 213 147 140 212 146 143 213 148 147 213 149 149 213 150 151 213 152 154 212 153 156 210 153 157 208 156 158 205 159 160 203 163 162 202 168 164 200 172 164 197 172 166 195 173 168 192 174 169 189 175 100 160 114 100 164 114 100 168 113 102 172 113 103 174 112 104 178 112 107 181 112 108 183 112 109 186 112 112 189 112 113 192 113 114 195 113 114 199 115 112 203 117 111 207 119 113 210 120 113 213 121 115 214 122 116 215 124 119 217 128 120 218 131 122 219 133 125 218 134 126 217 134 126 216 135 127 216 135 128 216 136 130 215 137 131 215 140 132 215 141 133 214 141 134 214 142 135 212 145 137 211 147 140 211 147 144 211 149 147 211 149 150 212 149 153 213 152 155 213 152 157 211 153 157 207 156 159 205 159 161 204 163 162 203 168 163 201 170 164 198 170 165 195 171 167 191 173 169 189 173 101 162 110 101 166 109 102 169 109 103 172 110 103 175 110 104 179 109 105 182 110 108 184 109 110 186 109 111 190 111 112 193 112 112 197 114 112 200 115 110 205 117 110 210 119 112 213 120 113 216 120 113 217 122 115 218 123 118 219 126 119 220 128 122 221 130 126 219 133 127 218 133 128 216 135 128 216 135 129 216 136 132 216 138 133 215 141 133 216 142 134 216 143 134 214 143 135 212 144 139 212 146 142 211 147 145 210 148 148 210 148 151 211 149 153 212 151 155 212 152 157 210 153 158 207 157 158 206 159 160 204 163 161 203 165 161 200 168 163 198 170 165 196 170 167 192 171 170 192 172 101 163 106 102 167 105 103 169 105 103 173 106 104 176 107 104 180 107 106 184 107 108 186 107 110 188 108 111 191 110 111 195 112 111 198 113 111 202 114 109 206 116 110 211 118 111 215 120 112 217 120 113 219 121 115 220 122 118 220 124 120 221 126 123 221 128 125 219 131 127 218 133 128 217 134 129 216 134 131 216 135 133 216 138 134 216 142 134 217 143 134 217 143 135 214 144 137 213 145 140 213 146 143 211 147 145 209 147 149 210 148 152 210 149 155 211 151 155 210 152 157 209 154 158 207 157 159 206 159 160 204 162 161 202 164 161 200 167 164 198 168 167 196 168 170 194 169 171 194 170 101 164 104 103 167 103 103 170 102 103 173 102 103 178 104 103 182 104 106 186 105 107 188 105 109 190 106 110 193 108 110 196 109 109 199 111 110 203 114 110 208 116 110 212 116 110 217 117 112 219 118 113 220 119 115 220 121 118 221 123 121 220 126 123 221 128 125 220 130 127 219 132 128 218 132 129 217 133 130 217 136 132 217 140 133 218 142 134 218 144 134 218 144 136 215 146 138 213 147 140 213 147 143 211 147 147 209 148 150 209 148 153 208 149 156 208 149 158 208 151 158 207 154 159 206 157 159 205 159 160 203 161 161 201 164 162 199 166 164 197 168 167 196 168 170 196 169 171 195 168 100 167 103 103 168 102 103 171 100 102 175 100 102 179 101 103 183 102 105 187 103 107 189 104 109 191 105 108 194 105 108 198 107 108 202 110 109 205 113 109 209 115 110 214 115 111 218 115 113 219 116 115 221 117 117 221 120 119 221 122 121 220 125 123 220 127 126 220 129 128 220 130 128 220 131 130 219 133 131 218 136 132 218 139 133 220 142 134 219 144 135 218 145 137 216 146 138 214 147 141 212 147 145 210 148 149 210 149 152 209 149 154 207 150 157 207 150 159 207 151 159 207 154 159 205 157 158 205 159 159 202 162 161 201 164 163 199 166 165 197 168 167 197 169 170 197 169 171 197 168 100 170 102 101 171 100 102 173 99 103 176 99 102 179 98 103 184 99 104 187 100 106 191 101 107 193 102 107 197 102 108 199 105 108 203 109 109 206 112 110 211 114 111 215 114 112 217 114 114 219 116 116 220 117 117 222 119 119 221 121 121 219 123 123 219 125 127 221 127 128 221 129 129 220 131 130 219 133 132 219 136 132 219 138 133 220 141 134 220 143 136 219 145 137 216 145 139 215 146 141 213 147 146 211 148 149 209 150 153 209 150 155 206 151 158 206 151 160 207 151 160 206 152 159 205 155 159 203 157 160 202 160 161 202 163 164 200 165 167 198 166 169 198 167 170 197 167 172 197 167 100 171 101 100 174 99 101 175 98 102 178 98 103 181 97 104 185 97 105 188 98 106 193 98 107 196 99 107 198 101 107 201 104 107 204 108 109 207 110 111 212 112 111 214 113 112 216 114 115 219 115 116 220 118 118 220 119 120 220 121 122 218 122 124 218 123 127 220 126 127 221 129 129 220 131 131 220 133 133 220 136 134 219 139 134 219 141 135 219 143 137 218 144 139 215 146 142 215 146 144 213 148 147 211 149 150 209 151 154 207 151 156 206 151 159 205 150 160 206 151 160 206 152 160 205 153 159 205 156 161 203 159 163 204 161 166 202 163 168 200 165 168 199 165 171 198 166 173 199 165 100 173 98 100 175 98 101 177 99 102 180 98 103 183 96 105 186 95 106 189 96 107 193 96 107 196 98 106 199 99 106 203 102 108 206 104 109 208 107 110 211 109 111 214 111 114 216 112 117 218 113 118 218 116 120 218 119 121 217 120 124 216 120 126 217 121 128 219 124 128 219 128 130 220 130 132 221 133 134 220 135 135 220 139 135 219 141 135 218 142 137 217 145 140 215 146 143 213 147 145 212 148 148 210 150 152 209 151 155 207 152 158 205 152 159 204 151 160 205 152 160 206 152 160 205 153 160 205 155 162 204 157 165 204 158 167 203 161 168 202 163 169 200 165 171 200 164 172 198 165 100 174 98 100 176 97 100 178 97 101 180 98 103 183 97 105 187 95 106 191 95 106 195 95 106 197 97 105 201 98 106 204 100 107 207 102 108 210 104 109 211 107 112 214 108 115 217 110 117 218 112 119 218 114 121 217 116 123 217 117 124 216 117 126 216 119 128 217 124 129 219 127 131 221 130 134 222 133 136 222 136 137 221 138 137 220 140 137 217 141 139 216 144 140 213 145 143 212 147 146 212 149 150 209 151 153 207 152 155 205 153 158 204 153 159 203 153 161 204 154 160 205 153 161 205 153 161 205 154 164 205 155 165 205 156 166 205 159 168 204 162 169 203 164 171 201 165 171 200 165 101 174 96 101 177 96 100 178 97 101 180 98 103 184 97 105 189 96 107 193 95 107 196 96 107 199 97 107 202 98 106 206 99 106 209 101 107 211 103 109 212 105 113 214 108 115 216 108 117 216 110 120 217 112 123 217 114 124 217 115 125 217 116 126 217 120 128 217 124 130 219 128 132 221 130 134 220 133 136 221 135 138 221 137 139 220 139 140 218 140 141 216 142 143 213 145 145 211 147 148 210 150 150 208 151 153 206 153 154 204 154 156 203 155 158 202 155 160 203 155 161 204 155 161 205 154 162 205 154 164 205 154 164 205 156 165 205 158 167 205 161 168 203 164 170 201 165 170 199 165 100 176 94 102 178 95 102 180 96 103 182 97 104 184 98 106 188 97 107 193 96 107 196 96 109 200 96 108 204 97 108 206 99 108 209 101 109 212 103 110 213 106 113 214 107 115 214 108 118 215 109 121 216 111 124 216 112 125 216 115 125 217 117 127 217 120 130 218 124 132 219 129 132 220 131 134 220 133 137 221 134 139 221 135 141 220 137 142 218 139 143 216 141 146 212 144 147 210 147 149 208 149 151 206 150 152 204 152 153 203 154 155 201 155 158 201 156 160 202 155 162 203 154 162 205 155 163 205 154 163 205 154 163 204 156 164 205 159 166 205 161 167 202 163 168 200 164 169 199 165 100 175 91 102 179 92 103 182 94 104 183 96 106 186 98 108 189 97 108 192 97 110 197 96 110 201 96 110 204 97 111 206 98 110 208 101 111 210 103 112 211 105 114 211 106 116 211 108 120 214 109 123 215 110 124 217 111 125 216 114 126 216 117 128 216 121 131 218 125 133 219 129 134 219 131 135 220 133 137 220 133 139 220 135 142 219 136 142 217 139 143 215 142 145 212 145 148 210 146 149 207 147 151 204 149 153 202 151 153 201 153 155 200 155 157 199 155 159 200 154 162 202 153 162 204 154 162 205 155 163 205 155 162 205 156 163 204 158 165 203 160 166 201 163 166 200 163 167 199 163 100 175 89 102 178 91 104 182 93 106 184 94 108 188 96 109 190 97 110 194 96 110 197 95 111 201 95 111 205 97 112 206 98 112 207 101 112 208 103 114 210 104 115 209 106 118 211 108 122 213 109 124 215 111 125 216 112 126 217 114 128 217 118 129 216 121 131 217 125 133 218 128 134 218 130 134 219 132 137 217 133 138 217 134 141 217 136 142 214 138 143 213 141 145 212 144 147 210 145 149 207 147 151 203 149 153 200 150 154 198 153 155 197 154 156 197 153 159 198 152 161 200 152 162 202 153 163 204 154 162 205 154 162 205 155 163 204 158 164 202 160 165 201 161 165 200 162 167 199 163 100 176 88 102 179 91 105 182 93 107 185 93 109 189 95 109 192 95 110 194 94 111 198 95 112 201 94 113 204 96 113 206 98 114 206 101 116 207 103 117 208 105 118 208 107 120 209 109 122 212 110 124 213 110 126 215 112 128 217 115 129 217 118 131 216 121 132 217 125 133 217 126 134 217 128 135 216 130 137 214 132 139 214 134 140 213 136 140 212 138 143 211 140 144 211 143 146 208 147 148 204 148 150 201 149 152 198 150 154 195 152 155 195 153 157 195 153 159 196 152 160 198 153 161 200 154 163 202 153 163 204 154 163 204 155 165 204 157 165 203 158 165 201 159 166 199 160 168 197 161 100 177 86 103 181 88 106 182 90 108 186 92 108 189 94 109 192 94 111 196 94 112 200 95 113 201 95 114 203 96 114 204 98 115 204 101 116 205 102 117 206 104 119 207 107 121 208 110 123 211 111 125 212 112 128 213 114 130 214 115 131 214 118 132 214 122 133 214 124 133 215 126 134 215 127 135 214 129 136 211 131 138 211 134 139 210 136 140 209 138 142 209 140 143 208 143 144 205 146 146 202 148 149 199 150 150 197 150 153 193 151 156 193 152 157 193 152 158 194 153 159 196 153 161 198 154 162 201 154 162 203 155 163 204 155 165 202 156 164 201 156 165 200 158 167 199 159 168 197 159 99 178 83 102 182 85 104 183 86 106 186 89 108 190 92 109 193 93 112 196 93 114 199 93 114 200 94 115 202 96 115 203 98 116 203 100 118 204 101 118 205 104 119 206 106 121 208 109 123 210 111 126 211 112 128 211 113 129 213 115 131 213 118 132 212 122 132 211 125 133 211 126 134 211 127 133 210 129 133 209 131 135 209 134 136 208 135 138 207 137 140 205 139 141 204 142 142 203 145 145 199 147 148 197 148 151 194 150 152 192 150 155 193 151 157 193 151 157 194 152 159 196 153 160 198 154 160 200 155 161 203 155 163 203 155 164 201 155 165 200 155 166 198 157 167 198 158 168 197 157 100 180 81 102 182 82 103 184 83 105 186 86 107 189 90 109 193 92 112 196 92 115 196 92 116 199 94 116 200 95 117 201 96 117 202 98 119 204 99 119 204 102 120 205 106 120 206 109 123 207 111 125 210 112 126 211 112 128 212 114 130 211 117 132 210 121 131 208 124 132 208 125 133 208 127 132 208 129 132 207 131 133 206 133 134 205 135 137 204 136 139 202 137 141 202 139 142 199 143 145 197 146 149 194 148 152 192 149 153 191 149 154 193 150 156 193 150 157 195 151 159 196 152 159 197 153 160 199 154 161 200 154 163 201 154 165 199 154 165 197 155 166 197 156 168 197 157 170 198 157 100 180 80 101 182 81 102 185 83 105 186 85 106 189 89 110 192 91 113 195 91 116 196 92 118 198 93 118 200 94 119 200 95 119 202 96 120 204 98 120 204 101 121 205 105 122 205 108 124 206 111 125 208 111 126 210 112 127 210 113 129 210 116 131 209 120 131 207 122 132 206 124 133 205 126 132 204 128 131 204 130 132 204 131 134 204 133 136 202 133 138 199 135 139 198 138 143 196 141 145 195 144 147 193 145 150 191 147 152 190 149 154 191 149 155 192 150 156 193 150 157 196 150 157 197 151 159 196 152 161 197 152 163 198 153 163 195 153 164 194 155 166 195 155 168 196 156 169 196 156 99 182 80 101 183 82 103 185 83 105 187 85 107 189 88 111 192 89 114 194 90 115 196 92 117 199 93 119 201 94 120 202 95 121 203 96 121 206 97 121 205 99 122 207 103 122 207 108 124 207 110 125 207 111 126 208 111 127 210 113 128 209 116 130 209 118 131 207 120 131 204 123 132 203 125 132 203 128 131 202 129 132 202 130 134 201 131 136 200 131 138 198 134 139 196 137 142 195 140 144 193 143 147 192 145 150 190 146 151 188 147 152 188 147 153 189 148 154 191 149 156 193 149 157 195 149 158 194 151 159 194 151 161 194 151 163 192 152 165 193 152 166 193 154 168 193 155 170 195 155 99 184 79 102 185 81 103 186 85 105 188 87 107 189 88 109 192 89 112 193 91 114 196 93 115 199 93 117 201 94 118 202 95 120 204 96 122 206 96 122 207 99 122 207 102 123 207 106 124 207 108 125 207 110 127 207 112 128 208 113 128 209 115 130 208 118 132 206 120 132 204 122 132 202 125 132 201 126 132 199 128 132 198 128 134 197 129 135 197 130 138 195 132 140 193 135 141 191 139 145 191 141 148 190 143 149 188 144 150 186 145 151 186 146 152 187 146 153 188 147 156 190 146 157 192 147 158 192 147 159 192 148 162 191 147 163 191 149 165 191 150 167 192 151 169 193 153 171 194 155 99 185 79 101 187 81 102 189 85 105 190 89 106 191 90 107 192 90 110 194 92 112 196 94 114 198 95 115 200 95 117 201 95 119 203 96 121 205 96 122 206 98 123 207 101 124 208 104 125 207 107 125 206 108 126 207 112 127 208 114 127 207 115 129 207 117 131 205 119 132 204 121 132 202 123 131 200 125 131 198 126 131 196 126 133 194 127 134 194 129 138 193 130 140 192 133 142 191 136 144 191 139 147 190 141 148 188 141 149 186 142 150 184 143 150 184 144 151 186 144 153 188 144 156 188 144 157 188 144 159 190 144 161 190 146 163 190 147 165 191 146 167 193 147 170 193 149 173 193 152 98 186 79 100 187 82 102 188 87 103 190 90 105 192 92 106 193 92 109 193 92 111 195 94 112 196 94 113 198 94 116 200 95 118 202 96 119 204 97 120 207 99 121 207 101 123 207 103 125 207 105 125 207 107 126 207 111 126 207 113 128 205 114 129 204 117 131 204 118 132 204 118 130 203 120 130 200 122 130 198 123 130 196 125 131 194 125 133 193 127 136 192 129 139 192 131 142 192 133 144 191 135 146 190 137 147 188 137 149 186 138 149 184 139 150 183 140 152 184 141 153 185 141 155 185 142 157 185 141 159 188 142 161 189 143 163 189 143 166 190 143 168 192 143 171 193 145 174 194 148 97 188 80 100 188 84 101 189 87 103 192 90 105 192 92 106 192 94 109 192 93 110 194 94 111 196 94 112 197 95 115 199 96 117 203 97 118 205 97 119 207 99 120 207 101 121 206 102 124 207 105 125 207 108 125 208 110 126 207 111 127 205 112 129 204 114 130 204 115 131 204 117 130 202 117 130 200 119 130 197 121 130 195 123 131 194 125 132 193 126 135 192 127 139 193 128 139 192 129 140 191 130 143 189 131 145 188 132 148 186 134 148 186 135 151 185 136 152 184 138 153 183 139 157 183 140 158 184 139 160 186 140 162 188 140 164 189 140 167 191 140 170 193 140 173 194 142 174 194 144 96 189 81 98 189 84 99 191 87 102 192 90 105 193 92 107 193 94 108 193 95 109 194 95 111 196 95 112 198 95 114 199 96 115 202 95 116 204 97 119 206 98 120 207 99 121 206 101 123 207 104 125 207 106 126 205 107 126 205 108 126 205 110 127 203 113 129 202 114 129 202 114 129 202 116 129 199 118 129 197 117 129 194 120 129 193 123 131 193 124 133 192 124 137 192 125 138 191 126 139 190 127 141 188 128 144 187 129 145 186 130 147 186 131 149 186 132 151 184 135 154 183 136 157 183 137 160 184 137 162 186 138 163 189 138 165 190 138 168 191 138 171 193 139 173 194 140 175 195 142 95 190 82 99 190 84 100 192 86 102 193 89 105 193 91 107 193 93 108 193 94 109 193 94 110 196 94 112 198 94 114 199 95 115 202 94 117 203 95 120 204 97 121 205 99 122 205 101 123 205 103 124 205 104 125 204 105 125 202 107 125 202 110 126 201 111 127 201 113 127 201 114 127 201 116 129 199 117 128 197 116 128 194 117 129 194 119 130 193 121 132 191 122 134 190 122 135 189 123 137 189 124 138 188 124 140 187 125 142 186 127 145 185 128 147 185 129 150 184 130 154 184 132 158 184 133 161 184 134 163 187 135 163 189 136 165 189 135 168 191 136 170 192 138 172 193 140 174 195 141 96 190 83 99 191 84 101 193 86 103 194 88 105 193 89 107 194 90 108 194 91 109 194 92 110 196 92 112 198 92 114 199 92 116 200 92 118 202 94 119 203 96 120 204 96 122 204 99 123 203 101 124 202 102 124 202 104 124 201 106 125 200 107 126 200 109 126 201 111 126 202 113 127 201 114 127 199 115 127 197 115 127 195 115 129 194 116 130 193 117 131 191 119 132 189 118 133 188 118 135 189 119 135 188 120 137 187 122 139 187 123 143 186 124 147 186 125 149 185 126 153 185 128 157 184 129 160 185 130 163 186 132 165 188 132 166 189 132 169 190 134 171 191 137 173 192 139 174 194 141 96 190 82 99 192 83 101 193 85 103 193 86 104 195 87 106 195 88 106 196 89 107 196 89 109 197 89 111 199 90 114 200 90 116 200 91 117 201 91 119 202 92 120 203 94 122 203 98 123 202 100 124 201 101 124 201 104 124 200 105 125 199 105 126 199 106 125 200 108 125 200 109 126 200 110 127 198 111 127 196 111 127 196 111 128 194 111 129 193 112 130 192 113 131 190 114 132 189 115 133 188 115 134 188 116 135 187 118 138 186 120 142 186 120 144 186 121 148 185 123 152 185 124 156 185 125 160 185 125 162 186 127 164 187 129 166 188 130 169 190 131 172 190 135 174 191 138 175 193 140 95 191 81 99 192 82 101 193 82 103 194 83 104 196 85 104 196 85 105 197 85 106 197 87 108 198 88 110 200 89 113 200 90 115 200 90 118 201 90 119 201 91 119 201 94 122 202 97 122 200 98 123 200 100 124 199 101 124 198 102 124 198 103 124 198 104 125 198 105 126 198 105 127 197 106 128 196 107 127 195 108 127 194 108 128 194 109 129 194 108 129 193 110 129 192 111 131 190 112 132 189 113 132 188 113 135 187 115 138 186 116 140 186 116 142 186 118 146 185 120 152 183 121 156 184 121 161 185 122 163 185 124 165 186 126 166 188 127 168 188 128 171 188 132 173 191 136 175 193 138 96 193 81 98 193 81 101 194 80 103 194 82 104 195 82 104 196 83 105 197 84 107 198 84 109 199 86 111 200 89 113 200 89 115 200 90 117 200 89 117 199 91 118 200 92 119 200 94 119 199 96 121 198 98 123 198 99 124 198 100 124 197 100 124 197 100 126 197 101 127 196 101 127 195 102 127 194 103 127 193 104 128 192 105 129 193 106 129 194 106 128 193 106 129 192 107 131 190 108 131 189 110 132 188 111 135 188 112 137 187 113 139 186 115 142 186 116 146 185 119 151 183 120 156 183 119 161 185 120 164 186 123 166 186 125 167 186 126 169 187 127 171 188 130 173 191 134 173 192 136 97 196 79 99 195 78 101 196 80 103 196 81 104 195 81 105 196 82 105 197 83 107 198 84 109 199 86 111 200 88 113 199 88 113 199 88 115 198 88 115 197 89 117 197 90 118 197 91 118 197 92 121 197 94 121 197 95 122 197 97 123 196 97 124 195 98 126 194 98 128 194 98 129 194 99 129 193 100 127 191 100 129 191 102 129 192 103 128 193 104 128 192 105 129 191 105 130 190 106 131 190 107 132 188 109 135 188 111 136 187 111 139 186 113 142 185 116 146 185 117 151 184 118 156 185 118 160 185 119 163 186 121 166 187 123 168 186 124 169 186 126 171 187 128 173 190 131 173 191 134 97 196 77 99 197 79 101 197 80 102 196 81 104 196 81 105 197 81 107 197 82 108 197 83 109 198 86 111 198 86 112 198 86 112 197 86 114 196 86 115 195 87 117 195 87 117 195 89 117 195 90 118 194 91 119 194 93 121 194 93 122 194 94 123 194 96 125 194 96 127 193 95 128 191 97 129 190 98 128 190 99 129 191 99 129 191 101 129 190 102 129 189 104 130 189 105 131 189 105 131 189 106 133 188 108 135 186 111 136 185 111 139 185 112 142 185 114 146 185 116 151 185 117 155 185 118 159 187 118 163 187 120 165 187 122 168 186 123 168 187 124 170 187 127 173 187 129 173 188 132 97 195 76 98 196 78 100 197 79 101 196 80 104 195 80 106 197 79 107 197 79 108 196 81 109 196 84 110 195 84 111 195 84 111 193 84 112 193 85 114 192 86 115 191 87 116 192 88 117 192 88 117 191 89 117 191 90 119 191 91 121 191 93 123 192 93 124 192 94 127 192 94 128 190 96 128 190 97 130 190 98 130 191 98 129 190 100 129 188 102 129 188 103 130 187 104 132 188 104 133 188 106 134 187 108 136 186 110 138 185 110 140 185 111 143 185 114 147 186 115 151 186 116 155 186 117 158 186 118 163 186 120 165 187 120 166 186 122 168 186 123 169 186 126 171 187 129 172 187 133 96 195 75 98 197 77 99 196 78 99 195 79 103 195 79 106 195 78 107 194 78 107 193 79 108 193 82 109 193 82 110 192 82 111 191 82 112 190 84 113 188 85 114 188 87 116 189 87 116 189 87 117 189 88 118 189 88 119 189 89 121 189 90 122 191 91 125 192 92 127 191 94 129 191 95 128 191 96 129 191 97 129 191 98 129 191 100 128 190 101 129 188 103 131 186 103 133 187 104 135 187 105 137 186 107 139 185 108 140 185 110 141 184 111 143 185 113 147 184 114 151 185 115 155 186 117 159 186 118 163 185 120 164 185 120 165 185 121 167 184 123 169 186 125 171 186 129 171 188 133 96 195 74 97 195 75 99 194 76 99 193 77 102 193 76 105 193 77 106 192 77 107 191 78 108 190 79 108 190 80 109 189 81 111 187 82 113 186 83 114 186 85 114 186 85 116 187 85 117 188 85 117 188 85 118 189 86 120 189 86 121 190 87 122 191 88 126 191 90 128 191 93 129 192 93 128 192 95 129 193 96 130 192 97 129 191 99 130 190 100 131 189 102 132 186 103 134 186 105 135 186 106 137 185 107 140 185 108 142 185 110 142 184 112 146 182 112 149 183 114 153 185 114 155 187 116 160 186 119 163 185 120 165 184 121 166 184 123 167 184 124 169 185 126 171 186 128 172 187 132 96 193 73 97 194 74 99 193 75 100 191 75 102 191 76 104 190 76 106 189 76 108 189 77 108 188 77 109 187 78 110 186 80 112 184 81 114 183 82 114 183 84 116 183 84 117 185 83 117 187 83 117 188 83 119 189 83 121 188 83 122 188 84 124 188 87 126 190 89 128 191 90 130 192 92 130 193 94 132 193 94 131 193 96 131 193 97 131 191 98 132 189 101 133 187 103 134 186 105 136 185 107 137 184 108 141 183 107 142 183 108 145 182 110 148 181 111 151 183 112 154 185 114 157 186 115 160 186 118 163 185 121 165 185 123 166 185 124 167 185 126 169 185 128 170 186 129 171 185 132 98 191 71 99 192 72 99 192 72 101 190 73 103 189 73 104 188 75 105 187 76 107 187 75 109 185 76 110 185 77 111 184 78 113 182 79 114 181 81 115 181 82 115 181 82 116 183 81 117 185 80 118 187 80 119 188 80 121 188 81 123 187 83 125 188 85 127 188 87 129 190 89 131 191 91 132 192 92 132 193 95 133 194 96 132 193 97 132 191 97 132 190 98 134 188 101 136 187 102 138 184 105 140 183 105 143 183 106 145 181 107 147 181 109 149 181 110 151 183 111 154 184 112 158 185 114 160 185 118 163 185 120 164 184 123 164 185 125 166 186 125 167 186 127 169 186 128 171 185 131 99 187 68 101 188 69 101 189 69 101 187 70 103 187 72 105 186 73 106 186 74 107 186 74 110 184 75 110 183 76 112 182 77 112 181 78 114 179 78 114 179 78 114 180 79 114 182 79 116 184 77 118 186 78 119 187 79 121 188 81 123 188 82 126 187 84 127 188 86 127 189 87 129 190 90 132 192 91 133 192 94 134 193 95 135 192 95 136 191 95 136 191 96 137 190 98 139 188 101 140 185 103 143 183 105 145 182 106 147 180 107 149 181 107 151 180 109 153 181 110 157 181 112 159 183 114 160 184 116 162 183 118 163 183 121 163 183 124 164 185 125 165 185 125 167 185 127 170 182 129 102 185 66 103 186 67 102 185 69 103 185 70 104 185 72 106 185 73 108 185 74 109 184 74 111 183 75 112 181 77 113 179 77 113 177 76 114 177 76 114 178 76 114 179 76 114 180 76 116 182 76 118 184 77 119 186 80 121 187 81 122 187 81 124 186 83 126 188 84 127 188 87 128 189 88 131 191 91 134 192 91 136 193 93 137 192 95 137 191 95 138 190 95 140 190 97 141 189 98 142 187 101 145 184 103 147 182 105 149 181 107 151 180 107 153 180 107 155 180 109 157 180 112 159 181 113 160 182 116 162 182 117 163 182 119 163 182 121 163 183 123 164 183 124 166 181 126 169 180 128 