P3
50 50
255
76 118 153 80 117 154 82 115 154 85 115 153 85 116 152 87 117 153 87 117 154 87 118 153 87 118 152 87 118 151 86 119 152 85 121 153 85 123 153 84 125 153 84 127 151 83 128 150 83 129 149 85 130 147 88 131 147 88 132 147 90 131 146 92 131 146 94 131 147 95 130 148 96 129 148 99 127 148 101 124 147 104 123 148 106 122 148 107 122 147 109 120 148 111 119 149 111 120 150 114 121 152 116 119 154 118 118 153 121 117 153 123 115 152 123 113 153 122 112 153 122 111 153 122 108 155 122 106 156 123 104 159 124 104 161 126 104 161 129 104 162 130 102 164 132 100 167 134 98 171 77 117 151 81 116 152 84 116 151 85 115 150 87 115 148 88 117 150 89 117 152 89 118 151 88 117 150 88 118 150 88 118 151 87 119 150 86 122 152 86 124 151 86 127 149 86 128 149 86 127 148 89 128 146 89 130 145 90 130 145 91 130 143 93 129 143 94 130 145 94 130 146 96 129 147 98 126 146 100 125 146 103 124 148 104 124 148 105 122 147 108 120 147 109 121 148 110 121 150 112 122 151 116 120 153 119 120 153 122 117 152 122 115 153 122 114 153 122 113 153 123 110 154 123 108 155 122 106 156 123 104 157 125 103 159 126 102 161 130 101 162 131 101 163 133 99 167 134 96 171 78 117 148 81 116 147 84 116 147 86 116 146 88 116 146 89 116 148 89 117 148 90 117 149 89 117 150 89 118 149 89 117 149 89 118 149 88 120 148 87 123 147 87 125 146 89 126 146 90 125 145 91 126 144 91 127 143 92 129 142 93 128 140 95 128 140 94 130 142 94 129 143 96 128 145 98 128 146 100 127 146 102 126 147 102 125 147 105 124 147 107 122 147 108 122 148 109 122 149 112 122 150 116 121 151 120 121 152 122 119 152 122 117 152 122 115 152 123 112 152 123 109 153 123 107 153 123 104 154 123 101 157 124 100 158 126 99 159 128 99 160 131 99 163 132 98 166 133 95 171 79 117 145 82 117 145 85 116 143 88 116 144 88 117 142 89 116 143 89 116 145 90 115 147 89 115 148 89 116 148 88 117 148 88 118 148 88 118 146 88 121 145 88 122 143 90 124 142 91 124 142 92 125 142 93 126 139 94 127 138 95 126 138 95 127 138 95 128 140 95 128 141 97 128 143 99 129 144 101 128 145 102 126 146 102 124 147 104 123 148 106 124 148 108 123 149 110 122 149 113 122 148 116 122 149 119 122 150 120 120 150 121 117 150 122 114 152 123 111 151 123 108 150 124 105 151 125 104 151 125 102 154 125 99 156 127 98 158 129 98 160 131 97 163 132 95 165 133 94 168 80 117 142 85 116 143 87 116 142 88 116 141 89 117 141 89 116 142 90 115 143 89 114 145 90 114 147 90 114 146 89 115 147 88 116 146 89 118 144 90 120 143 90 121 141 91 122 139 93 122 139 94 124 139 95 125 136 97 126 136 97 125 135 97 125 135 95 127 136 95 127 139 97 128 141 100 127 142 102 127 143 104 125 144 104 124 146 105 123 147 106 124 148 108 124 148 110 123 147 112 123 148 116 122 148 118 121 148 120 119 148 120 116 148 122 112 149 123 110 150 124 106 149 126 104 150 127 103 151 127 102 153 128 99 156 130 97 158 131 95 160 133 94 164 133 93 165 133 91 167 83 117 140 85 116 140 88 117 140 89 117 140 90 116 140 90 114 140 91 114 141 92 114 143 91 113 143 91 113 144 89 114 145 89 115 144 89 116 142 89 118 142 91 119 138 92 120 136 93 122 135 94 122 134 95 123 133 97 125 133 98 125 132 97 125 132 95 125 134 95 126 136 96 127 139 100 126 141 103 125 142 105 124 143 105 123 145 105 122 147 106 122 146 108 123 145 110 123 145 112 123 146 115 121 146 117 120 146 119 118 146 120 113 146 121 110 146 124 108 147 126 105 148 128 103 149 128 102 150 128 100 152 130 98 154 132 96 157 133 94 159 134 92 163 135 91 164 133 91 166 84 117 137 86 117 138 87 118 138 89 117 138 91 115 138 91 114 139 92 114 139 93 114 140 93 114 141 92 112 142 91 113 142 91 114 142 90 113 141 91 114 139 92 116 136 92 118 134 93 119 133 95 121 131 96 123 130 98 123 129 98 123 129 97 125 129 95 125 131 95 125 133 97 125 136 100 124 139 102 122 140 104 122 141 105 122 143 105 122 144 108 122 143 110 123 143 111 123 143 113 124 143 115 121 144 116 119 144 118 116 143 119 112 145 122 109 145 125 107 145 127 105 147 129 102 149 129 100 149 130 99 151 131 97 153 133 95 155 135 93 158 135 91 159 134 91 162 133 90 163 87 118 134 88 118 136 90 117 137 91 116 136 93 114 135 93 114 136 93 114 137 94 114 137 94 114 138 93 112 138 92 113 138 92 113 138 92 113 137 92 114 135 94 116 134 94 117 133 94 118 131 97 120 128 98 122 126 98 122 125 98 123 125 96 124 125 96 125 127 96 125 130 97 124 133 99 122 136 101 121 139 104 121 140 107 121 141 107 122 141 110 122 141 112 123 141 112 123 142 113 123 142 114 121 141 115 117 142 118 115 143 120 112 144 123 108 145 125 107 145 129 105 146 131 102 147 130 99 149 131 97 150 133 95 152 134 94 154 136 92 156 135 90 157 134 90 158 132 88 160 88 118 132 90 117 133 92 117 134 94 117 135 97 116 134 96 115 134 96 115 135 96 114 135 95 114 135 95 113 134 94 113 133 93 113 133 92 114 132 93 116 131 94 117 131 95 118 131 96 119 128 98 120 125 98 122 123 98 123 121 98 122 121 97 124 121 98 125 123 99 124 126 100 123 129 100 121 133 102 120 136 103 120 138 105 121 139 107 122 140 111 122 140 113 123 140 114 122 140 113 122 140 115 120 140 116 118 140 119 116 142 121 113 142 123 109 144 126 107 144 129 105 144 131 102 147 132 98 149 133 96 149 134 94 151 135 92 153 135 91 153 135 89 154 134 88 155 133 87 157 89 117 129 91 116 130 94 115 130 96 116 131 97 116 131 98 116 130 99 116 132 98 115 132 97 114 131 97 114 129 96 113 129 94 115 128 93 116 127 94 118 127 95 118 127 96 119 126 98 119 123 98 120 121 98 122 119 98 123 117 100 123 117 99 124 118 100 125 120 100 123 123 101 121 126 102 120 129 102 119 134 103 119 136 105 120 137 109 121 137 113 121 138 114 121 138 114 121 138 114 120 138 116 119 139 117 118 140 120 117 141 122 114 141 124 111 143 127 109 143 128 106 144 130 102 147 132 98 149 133 96 149 134 94 150 135 92 151 134 91 151 135 89 152 134 88 153 134 87 154 91 116 127 93 115 127 95 116 127 97 116 128 98 116 127 99 116 125 99 115 126 100 115 127 100 114 126 99 114 125 98 114 125 97 116 124 96 117 124 96 118 123 96 118 123 96 119 122 98 120 120 98 120 117 98 122 116 98 123 114 100 123 114 100 124 115 101 124 117 102 123 120 103 122 124 103 121 127 103 120 132 104 120 135 106 121 135 110 121 135 113 121 136 115 121 135 115 120 136 116 120 138 118 119 139 118 119 139 121 117 140 124 113 141 125 111 143 126 109 144 127 106 145 129 103 147 130 99 148 132 95 148 133 93 149 134 92 150 135 90 151 134 89 150 135 87 152 136 86 154 94 117 123 95 116 124 96 115 125 97 115 126 99 115 124 99 115 122 101 114 122 101 114 122 101 113 122 100 113 121 100 115 121 98 116 120 97 117 120 97 118 119 98 120 118 98 120 117 98 120 114 99 120 113 99 122 111 99 123 110 100 123 112 100 123 114 101 122 117 102 122 120 103 122 122 103 122 126 105 122 129 105 123 131 108 122 132 110 122 131 113 121 132 116 120 133 116 119 135 117 119 137 120 119 139 120 117 140 122 115 141 124 113 141 126 111 143 125 109 142 127 106 144 128 103 146 129 100 147 130 96 147 132 93 148 133 92 150 134 90 151 133 88 152 135 86 152 137 84 154 95 117 120 96 116 121 96 116 122 97 115 122 98 116 121 100 115 119 102 114 118 103 114 117 103 113 117 102 112 117 101 114 116 99 116 116 97 117 115 98 118 114 99 120 113 100 121 112 99 122 111 100 121 110 99 122 109 100 123 108 101 123 110 101 122 112 101 121 115 102 122 118 102 123 120 103 123 122 105 124 124 106 124 127 107 123 127 111 122 127 114 122 129 116 121 131 117 120 133 118 119 136 120 117 138 120 115 139 122 114 140 123 113 141 124 111 141 124 107 142 125 105 143 127 103 145 126 100 146 128 98 146 130 95 147 131 93 149 132 89 151 133 87 153 135 84 153 136 82 153 98 117 118 98 118 119 98 116 120 99 115 120 101 115 119 103 115 117 105 114 115 105 113 113 105 114 113 104 114 113 103 115 113 101 116 113 100 116 112 100 120 110 102 120 108 101 122 108 100 123 107 101 123 107 101 122 106 101 123 105 101 123 106 103 122 108 104 122 111 104 123 113 103 123 118 104 124 119 106 124 120 105 125 123 107 124 123 111 123 123 113 122 125 116 122 127 118 121 131 120 119 134 120 118 137 120 115 138 121 114 140 122 112 141 123 110 142 124 107 142 125 104 141 125 102 143 126 99 145 127 98 146 128 96 147 129 92 149 130 89 150 132 87 152 134 83 152 136 82 152 100 118 116 101 118 116 101 116 116 101 114 117 103 114 117 105 114 115 105 113 112 105 113 111 106 114 110 106 114 109 104 115 108 102 117 108 102 118 107 103 120 107 104 121 104 104 122 104 102 123 104 103 123 103 102 123 102 103 123 102 104 123 103 104 121 104 105 122 107 106 124 110 106 125 114 106 125 116 106 125 117 107 125 118 108 125 118 109 124 121 112 123 123 114 122 126 117 122 128 119 120 130 119 118 134 120 115 137 121 113 139 122 110 141 123 108 142 124 106 142 125 103 142 125 101 142 126 97 143 127 96 146 128 95 147 130 91 149 131 88 150 132 86 151 134 83 152 135 82 153 102 117 115 102 118 114 102 116 115 101 115 115 103 114 115 105 114 113 105 113 111 106 113 109 107 115 107 106 115 105 106 115 104 105 117 103 105 118 102 105 120 102 106 121 101 106 122 101 104 123 101 105 123 101 105 122 101 105 122 100 105 122 100 105 122 101 107 124 103 107 126 106 106 126 109 106 126 111 106 125 113 107 125 115 107 125 116 109 125 119 111 123 122 114 123 124 116 122 127 119 120 129 119 117 132 120 115 135 121 112 138 123 110 141 123 108 141 123 105 141 125 102 142 125 99 142 126 96 144 127 96 145 129 95 146 130 91 148 131 89 150 133 86 151 135 84 152 136 83 152 105 117 113 103 117 113 103 116 113 104 115 112 106 114 111 107 115 110 106 114 109 106 115 109 107 117 107 107 117 104 108 116 102 108 117 101 108 118 100 108 119 99 107 120 99 108 120 100 108 120 101 107 121 100 108 121 99 107 120 99 107 122 97 107 122 97 108 124 100 108 126 103 107 126 105 107 126 106 107 126 110 106 125 113 107 127 114 109 126 117 111 124 121 114 123 124 117 122 125 119 120 128 120 117 131 120 115 133 122 112 136 123 109 140 122 107 141 123 105 142 124 101 141 126 97 143 127 95 144 128 95 145 130 93 147 132 91 149 133 88 150 134 86 150 135 86 152 137 85 152 107 117 112 106 117 113 105 115 112 106 115 110 107 114 108 108 115 108 108 115 108 109 116 107 108 116 105 109 116 102 108 116 100 110 117 98 110 118 98 109 118 98 109 118 99 110 118 100 110 118 99 111 118 99 110 119 98 109 120 98 110 122 98 110 123 98 110 125 99 110 125 100 110 126 101 108 127 103 108 127 106 108 127 110 109 127 113 111 127 116 111 125 119 114 122 122 117 121 125 119 120 128 120 116 130 121 115 132 122 113 135 123 109 138 123 106 141 123 104 141 125 100 142 127 96 142 128 94 144 130 94 145 131 92 146 133 91 148 134 90 150 135 89 150 136 88 151 139 88 152 109 118 111 109 118 111 109 117 109 110 116 109 110 116 107 110 116 106 110 116 105 110 117 105 110 117 103 111 116 101 111 116 98 111 116 97 111 116 97 112 116 96 112 117 97 112 117 97 113 118 97 113 119 96 112 119 96 110 119 96 112 122 97 113 124 98 112 126 98 111 126 98 111 126 99 109 126 101 109 127 104 110 127 109 111 127 112 112 127 115 112 125 119 114 121 122 117 120 124 119 119 128 121 116 129 122 115 131 123 113 135 123 109 137 123 106 139 124 104 140 126 100 140 128 97 142 129 96 145 130 95 145 132 93 146 134 90 147 135 90 148 136 91 150 138 92 151 140 92 151 110 121 109 111 119 107 111 119 105 111 119 105 111 118 104 111 117 102 112 116 102 112 117 103 112 116 101 112 116 100 112 116 97 112 116 96 113 115 96 114 116 95 115 117 94 115 118 94 115 118 94 114 119 94 113 120 94 113 121 95 114 122 95 115 124 96 114 126 97 113 126 97 114 125 99 112 126 100 112 127 104 113 127 109 113 127 111 113 128 114 115 126 117 116 122 121 119 120 124 121 118 126 122 117 128 123 116 132 123 113 134 123 110 135 125 106 136 126 104 137 127 101 139 128 99 142 130 98 143 131 97 144 133 95 145 134 93 146 136 92 147 137 93 150 139 95 151 140 96 151 111 122 106 112 121 104 112 121 102 111 120 101 112 119 101 113 118 101 114 117 101 115 117 102 114 117 101 114 117 98 114 116 96 114 115 95 116 116 95 117 116 94 117 117 92 117 117 92 117 119 93 118 119 94 117 120 94 117 120 94 117 122 94 117 123 95 117 125 96 116 126 97 116 127 98 115 127 100 115 127 103 115 128 107 116 128 109 116 127 112 117 125 116 119 122 118 120 120 122 122 118 125 123 118 129 123 117 132 123 115 134 124 112 134 125 108 134 126 105 134 128 103 137 129 101 140 131 100 142 134 99 144 135 97 145 136 96 145 137 95 147 138 95 149 139 98 151 141 98 151 112 122 103 114 122 102 114 122 101 113 121 99 113 121 99 114 119 99 116 119 100 116 119 100 115 118 98 115 117 96 115 116 95 116 116 95 118 116 94 119 117 93 119 117 92 119 119 91 118 120 91 119 120 92 119 119 93 119 120 93 118 121 94 119 124 94 120 125 96 119 126 97 118 127 97 119 127 99 118 126 102 119 127 105 120 128 108 120 127 111 120 124 114 121 123 116 121 122 120 122 120 123 124 119 127 124 119 130 125 117 132 126 114 132 126 111 131 128 107 132 130 104 134 131 103 137 133 103 141 135 101 143 137 100 144 138 99 146 139 98 147 139 98 148 139 99 149 142 100 150 113 123 101 115 123 100 115 124 99 114 122 98 114 122 97 116 121 97 117 121 98 117 121 97 117 119 96 116 116 94 117 116 94 117 116 94 119 116 94 121 116 93 121 117 92 120 119 92 120 121 91 121 122 91 121 120 91 121 121 91 121 122 92 121 123 93 121 125 95 121 126 94 121 127 96 120 128 98 120 128 101 122 128 103 123 128 106 123 126 109 123 124 110 124 122 114 123 122 119 123 121 121 124 120 125 125 119 127 126 119 128 126 116 129 127 113 128 129 109 129 132 106 132 133 104 136 134 104 139 136 104 141 139 103 143 140 102 145 140 101 146 140 101 148 141 101 149 142 101 150 113 125 98 115 125 98 115 125 96 115 123 96 116 122 95 117 123 95 117 123 95 118 121 94 118 120 93 118 118 92 119 116 90 120 115 91 120 115 92 122 114 93 122 116 92 121 117 91 122 119 91 123 121 90 124 121 91 123 122 91 123 122 91 123 122 93 122 123 93 122 125 93 122 126 94 123 128 97 123 129 100 124 129 103 125 127 104 125 126 106 126 125 108 126 123 113 126 123 117 125 123 119 126 122 121 127 122 124 127 120 125 128 118 125 129 115 126 131 112 127 132 108 131 135 107 135 137 108 137 138 107 139 140 106 142 141 105 145 141 104 146 141 105 147 143 104 149 145 103 149 113 127 96 115 126 96 116 125 96 118 124 95 118 124 94 119 124 93 118 123 92 118 121 91 118 119 91 119 118 89 120 115 88 122 114 89 123 115 90 123 115 91 122 115 91 122 117 91 122 119 90 124 121 90 124 122 90 124 122 91 124 122 91 124 122 91 123 123 92 123 124 93 123 125 94 123 126 97 125 127 99 126 127 102 126 126 103 126 126 105 127 126 108 128 125 112 128 126 115 127 125 118 127 123 121 127 123 121 128 122 122 131 120 123 132 117 125 133 114 127 135 113 131 137 111 134 139 110 135 140 109 137 142 108 141 142 107 144 143 108 146 143 107 148 144 105 149 148 104 148 113 130 94 116 129 93 118 126 93 118 125 92 118 124 92 119 124 91 118 123 90 118 121 89 118 119 88 120 118 87 121 116 88 122 116 88 123 116 88 123 116 88 123 117 88 123 117 89 123 119 89 124 121 89 124 123 89 124 122 89 125 122 89 126 122 90 125 123 91 125 123 93 124 124 94 125 124 97 125 124 100 126 125 101 128 126 102 128 126 104 128 126 106 130 126 110 129 125 112 129 124 115 128 124 119 128 124 120 129 123 121 132 121 123 133 119 125 135 118 127 137 116 132 139 115 133 141 114 135 142 111 137 143 110 140 144 109 143 144 110 145 145 109 147 148 108 148 151 107 148 114 132 90 115 132 90 118 130 90 119 127 89 119 126 89 120 124 89 119 123 88 117 122 87 118 120 86 120 118 86 121 117 87 122 117 87 123 117 86 123 118 85 122 118 85 122 119 86 123 120 87 123 122 87 123 122 87 124 122 87 126 121 88 125 121 89 125 121 91 125 121 93 125 122 94 125 123 97 125 122 99 126 123 101 127 124 102 128 125 104 129 125 105 130 124 107 131 124 110 131 124 113 130 124 116 130 124 119 131 123 120 133 123 121 136 122 123 137 120 126 139 119 131 139 117 133 141 116 135 142 113 136 144 111 139 145 111 141 146 110 144 147 111 144 150 110 146 152 109 148 116 135 88 117 134 87 118 132 87 119 130 86 120 128 87 120 125 88 120 124 88 119 122 86 118 120 87 119 119 86 120 117 87 121 117 87 122 118 86 123 119 85 124 120 84 123 121 84 123 122 86 123 122 86 124 122 86 125 121 86 125 121 86 125 120 88 125 119 90 126 119 91 126 119 94 125 119 96 125 120 97 126 122 99 128 122 101 129 123 102 129 124 104 130 124 107 131 123 110 132 123 113 132 124 115 133 124 117 134 123 119 136 123 119 137 123 122 139 122 127 140 121 130 140 119 133 140 117 135 142 114 137 143 113 140 146 112 142 147 111 143 148 112 144 151 112 145 152 110 147 117 137 87 118 135 87 118 134 87 118 132 86 119 129 87 119 126 87 119 123 87 120 121 87 119 121 87 120 119 87 121 118 88 121 119 87 122 118 86 124 120 86 124 122 83 125 123 84 125 123 85 125 122 85 125 122 85 125 122 86 126 120 87 126 119 87 127 119 88 127 119 91 126 118 94 125 118 96 125 119 96 127 120 97 129 119 99 129 120 100 129 122 103 130 123 106 131 123 109 133 123 112 133 122 114 134 121 116 135 122 116 137 125 119 139 124 122 139 122 125 140 121 129 141 119 132 141 117 134 142 116 136 144 115 138 146 114 141 148 114 142 149 114 144 150 112 145 152 110 147 116 137 87 117 136 87 117 133 86 118 131 86 117 130 86 119 126 86 120 125 87 120 123 88 119 122 88 120 120 88 121 119 88 121 120 88 122 121 87 124 123 86 124 124 84 126 123 84 126 123 83 126 123 83 126 122 83 127 121 84 126 121 85 127 120 84 128 120 87 127 120 90 125 119 93 125 119 95 126 118 96 127 118 96 128 118 99 129 119 100 129 120 103 129 121 106 130 122 108 133 121 110 134 121 113 134 121 115 135 123 116 137 125 119 138 125 121 139 123 124 141 122 128 141 120 130 141 118 133 142 118 134 143 117 136 145 117 138 148 117 140 149 115 143 150 113 145 151 112 146 116 137 86 117 135 87 117 133 86 117 131 86 117 130 85 120 128 85 120 125 86 120 124 87 120 123 88 120 123 89 121 122 89 121 122 89 121 123 88 123 125 86 124 125 85 125 125 84 126 125 83 127 124 82 128 123 82 129 121 82 128 122 82 129 121 83 128 122 86 128 121 90 127 120 92 127 118 94 127 117 96 127 117 97 128 117 98 129 118 102 129 119 103 131 121 106 132 121 107 133 120 109 133 119 111 135 121 114 136 123 116 137 123 118 138 124 121 139 125 123 141 124 126 142 123 128 141 122 130 142 121 133 143 120 135 145 120 137 146 119 139 149 117 142 151 116 143 152 114 145 115 136 86 117 134 87 117 132 87 117 131 86 117 130 85 119 128 85 120 125 86 119 125 87 120 124 87 120 124 89 119 124 89 119 125 90 121 125 87 122 125 87 123 125 87 125 126 86 126 125 84 128 123 82 128 123 82 129 122 80 130 122 82 129 123 83 128 122 85 128 121 87 129 119 90 129 117 92 129 117 94 129 117 95 129 117 98 130 116 101 130 117 104 132 119 106 134 120 106 135 120 107 134 120 110 135 122 113 137 122 115 137 122 117 137 123 120 139 124 123 139 125 125 141 125 127 142 124 129 143 123 132 143 121 133 144 121 135 145 120 137 148 119 141 150 117 142 152 115 144 115 135 84 116 134 86 117 130 87 117 129 87 117 129 85 117 128 86 119 126 86 119 125 86 119 123 88 119 125 89 119 126 90 119 128 89 121 127 88 122 127 88 123 127 87 124 126 87 125 125 86 127 124 83 127 124 82 128 123 81 128 122 82 128 123 83 129 123 84 130 121 85 130 119 88 130 117 91 130 116 93 130 117 94 129 116 96 131 115 99 131 116 102 132 116 103 133 117 103 135 120 105 135 120 109 136 122 111 136 122 114 136 123 117 137 123 120 138 124 122 140 125 122 140 126 124 142 124 126 143 123 128 143 123 131 143 123 134 145 121 136 147 120 139 149 117 141 152 117 142 115 134 85 115 132 86 116 131 86 116 130 86 116 129 86 116 128 86 117 127 86 117 126 86 117 126 88 117 128 89 117 129 89 119 129 88 121 129 88 122 128 88 123 127 88 124 127 88 125 126 88 127 126 85 127 125 83 127 124 83 127 123 83 127 123 83 128 122 84 128 120 86 129 119 87 129 118 90 131 118 92 131 117 93 131 116 95 132 116 98 133 115 100 133 115 101 134 115 102 136 117 105 137 118 109 137 121 112 137 122 114 137 123 117 137 124 118 139 123 119 141 124 120 141 123 121 142 124 123 142 124 125 143 124 128 144 123 131 145 122 134 147 121 137 149 119 140 152 119 141 113 133 85 114 132 86 114 131 87 115 131 87 115 130 86 116 129 86 116 129 86 116 128 87 116 128 87 116 130 87 117 130 88 119 131 88 122 131 88 124 130 88 124 129 88 125 128 90 125 128 89 126 127 88 127 126 86 127 125 84 126 123 84 127 122 83 128 121 85 127 120 86 128 120 88 129 120 91 131 119 93 132 118 94 133 117 95 134 116 97 135 115 98 135 114 101 136 113 103 137 115 105 138 117 110 139 119 113 139 121 115 139 123 117 138 122 117 140 122 117 141 122 117 142 122 119 143 123 120 143 124 122 143 124 125 144 123 129 144 122 131 146 122 133 149 121 137 152 120 139 113 133 85 113 132 86 113 132 86 114 132 86 115 132 85 114 132 86 114 131 86 114 129 86 115 129 85 116 130 86 118 130 86 120 130 87 122 130 87 123 130 88 124 130 89 125 130 90 126 129 90 127 128 89 126 126 88 126 125 85 126 124 84 127 122 84 127 121 85 127 121 87 128 121 89 130 120 91 131 120 93 133 119 94 134 118 96 136 115 97 138 113 98 138 112 100 138 112 103 139 113 106 141 115 110 141 118 114 140 120 115 140 121 116 140 121 115 141 121 115 141 122 115 142 122 117 143 122 119 143 122 121 143 122 123 144 123 125 145 122 127 147 122 130 148 122 133 151 122 137 112 135 84 112 134 85 113 134 85 114 134 85 114 134 85 113 133 85 114 132 86 115 132 85 115 132 85 116 132 86 117 131 86 119 130 86 120 130 86 121 130 87 123 131 90 124 130 90 125 130 90 127 128 90 126 126 88 125 126 85 126 125 84 126 123 85 127 121 86 128 121 88 130 121 89 131 121 91 132 121 93 135 119 94 137 117 96 138 114 98 140 111 99 141 111 100 141 111 104 143 111 107 143 114 110 143 116 112 143 119 114 141 121 114 141 120 114 143 120 114 144 120 114 144 120 115 144 120 117 144 121 119 145 122 120 146 121 123 147 121 124 147 121 127 149 123 131 150 123 134 111 137 83 112 136 84 112 136 85 112 136 84 112 135 84 112 134 84 113 133 84 114 134 84 114 135 85 116 134 86 115 133 86 117 132 85 119 131 87 120 131 89 121 131 90 122 131 89 123 129 90 125 127 89 126 126 87 126 126 86 127 126 84 127 125 85 127 123 86 129 122 88 131 121 90 131 121 91 133 121 94 137 119 96 139 115 97 140 112 98 141 110 98 142 110 101 143 110 104 143 111 107 143 113 109 145 115 110 145 117 111 143 117 112 143 117 112 144 118 112 145 118 113 145 119 113 145 119 115 145 120 117 145 120 120 146 120 121 148 120 123 148 121 126 149 122 129 151 121 131 111 140 82 112 140 84 112 139 84 110 138 83 111 137 84 111 136 83 112 136 83 112 135 84 114 136 84 114 135 84 114 135 84 115 135 85 118 134 87 120 133 87 120 133 89 122 132 89 124 130 90 124 128 88 125 128 86 125 127 86 126 126 84 128 126 85 129 125 86 130 123 87 132 122 89 132 121 90 135 120 94 137 118 96 140 115 97 141 112 98 142 110 100 143 110 102 143 112 104 144 112 107 144 114 109 146 116 110 146 116 110 145 116 110 146 116 111 146 118 112 146 117 112 147 117 113 147 118 114 147 119 116 147 120 119 147 120 122 148 120 122 148 120 124 149 120 127 150 120 129 109 145 82 110 143 83 110 143 83 110 141 83 111 141 84 111 140 83 111 139 83 112 139 84 112 138 83 114 138 83 114 136 84 116 136 85 117 136 86 119 135 86 119 135 86 122 133 87 124 132 88 124 131 87 124 129 86 124 128 85 126 128 84 128 128 84 130 127 85 132 125 86 133 124 88 135 121 90 137 120 92 140 118 95 142 116 97 143 114 98 143 112 99 144 112 100 144 113 103 145 114 107 145 115 108 146 116 110 147 116 109 147 117 110 145 117 110 146 117 111 147 118 112 149 118 112 149 117 113 150 118 115 151 118 118 150 119 120 150 119 121 150 118 123 150 119 125 150 119 127 108 148 81 110 147 82 109 146 83 111 145 84 112 144 85 111 144 85 111 143 84 111 142 84 111 141 84 114 139 84 115 138 83 117 138 84 118 138 84 120 137 84 121 137 83 122 136 84 124 134 85 124 132 87 125 132 85 126 130 83 127 129 83 128 129 83 131 128 83 133 127 84 135 124 85 136 122 87 138 119 90 141 117 94 143 116 96 144 115 97 145 113 98 145 113 99 145 113 102 145 114 105 145 115 108 146 115 108 147 115 109 147 116 109 146 116 110 146 118 111 148 118 111 150 118 111 151 118 111 152 117 113 152 117 116 152 117 119 153 117 121 152 117 123 152 118 125 150 118 127 107 152 82 109 152 82 109 150 84 110 149 86 111 147 86 110 146 85 111 145 86 111 145 85 112 143 84 114 141 84 117 141 83 118 140 83 119 140 83 121 138 83 123 139 83 124 138 83 125 137 84 125 135 85 127 133 83 128 131 82 129 129 81 131 129 81 133 129 81 135 128 82 137 125 82 137 121 85 139 119 88 142 117 92 143 117 95 144 116 95 145 114 96 146 112 97 146 112 101 145 113 103 146 115 105 147 115 107 147 114 108 147 115 108 147 116 109 147 117 110 148 118 111 150 118 109 150 118 110 152 117 112 152 117 115 152 116 118 154 116 121 154 117 122 153 117 125 151 117 128 106 156 81 107 155 83 107 153 85 110 151 85 111 148 85 111 148 85 113 147 85 113 147 85 114 146 84 115 145 83 118 144 83 120 143 83 122 142 83 123 140 83 125 142 83 127 141 82 127 139 83 127 137 83 129 135 81 129 134 81 130 131 81 132 129 80 134 128 80 136 127 80 137 125 80 138 123 82 140 121 86 142 120 90 142 118 93 143 118 94 145 116 94 146 113 97 146 112 99 147 112 101 148 113 104 148 113 105 148 113 107 147 115 108 148 115 109 148 117 109 148 117 109 148 118 109 150 118 110 153 118 113 153 117 116 152 116 119 153 115 121 153 114 124 152 114 126 151 116 128 106 159 81 107 158 83 107 156 84 110 153 84 111 151 86 111 150 86 114 150 85 115 150 84 116 148 84 117 147 83 119 146 82 121 143 82 122 144 82 124 143 83 126 143 84 128 142 83 129 140 83 130 139 82 130 137 81 130 135 82 131 133 80 134 131 80 136 128 79 137 127 79 137 127 79 140 126 80 142 124 83 143 123 87 143 121 90 144 120 92 145 117 93 147 115 95 147 114 98 148 113 100 150 113 103 149 112 105 149 113 106 149 114 108 149 115 109 148 117 109 148 118 109 149 119 109 151 119 111 152 118 113 151 118 117 151 116 120 152 116 123 152 115 125 151 114 127 150 116 129 108 160 82 108 159 83 108 158 85 109 156 85 111 153 87 113 152 87 114 151 85 116 151 83 117 149 83 118 149 82 120 148 81 121 145 81 123 145 82 125 145 82 127 144 84 129 143 85 130 141 85 131 141 82 130 138 82 130 136 82 132 134 81 134 132 80 136 130 78 137 129 78 138 128 78 140 128 78 141 126 81 142 125 84 143 124 88 145 122 89 146 120 93 147 118 96 147 116 98 149 114 99 151 114 102 150 113 103 150 113 106 149 114 108 150 115 108 148 117 108 148 119 109 150 120 110 151 120 111 150 119 114 149 118 118 150 118 121 150 117 124 151 117 125 150 116 127 149 116 129 110 162 82 109 161 83 109 160 85 110 157 86 112 156 85 113 154 86 115 153 85 117 153 82 118 152 81 120 152 81 120 149 80 123 148 81 124 147 81 126 146 82 128 145 85 130 144 86 130 143 86 132 141 83 131 140 81 130 137 81 132 136 80 132 134 79 134 132 78 136 130 77 139 128 77 140 128 78 140 128 80 142 127 83 143 125 85 145 124 87 146 122 91 147 119 94 148 117 96 149 115 99 150 114 101 150 114 102 150 113 104 150 114 106 150 116 107 148 118 108 149 120 109 150 120 111 150 121 113 149 120 115 149 119 118 149 119 121 149 119 124 151 118 125 150 118 127 148 117 130 110 165 81 110 164 83 110 162 85 110 161 85 112 158 85 114 158 85 116 156 84 117 155 82 120 155 81 121 153 80 122 151 79 124 150 81 126 149 81 128 147 83 130 146 85 131 144 86 131 143 86 131 142 85 129 140 83 129 138 80 130 137 79 130 135 79 132 134 78 134 131 78 136 128 77 138 128 78 139 127 81 141 127 81 143 126 83 145 125 87 146 122 90 146 120 92 147 117 94 150 116 97 150 114 98 149 113 101 149 114 103 150 115 104 150 117 106 148 119 109 149 120 111 149 121 113 148 121 115 148 121 116 148 121 118 148 121 120 149 120 123 149 120 125 149 119 127 149 118 129 111 168 81 111 167 81 111 165 83 112 164 84 113 160 84 115 159 85 116 158 84 118 158 82 120 156 80 122 154 79 124 152 81 126 151 81 128 150 82 129 148 83 130 146 84 131 144 85 129 144 86 129 143 85 129 141 84 129 140 83 130 137 80 129 136 79 131 133 78 133 130 78 134 129 77 135 128 78 137 127 78 139 128 80 141 127 83 144 125 85 145 123 87 145 120 90 146 118 92 148 116 96 149 114 98 148 114 100 149 115 102 149 116 104 148 118 106 148 120 109 149 120 113 148 122 114 147 122 116 147 123 118 147 122 119 148 122 121 148 121 123 148 121 125 147 121 127 147 120 130 111 169 79 112 168 80 113 167 81 114 166 82 114 163 83 116 160 83 117 159 83 119 157 82 121 155 80 123 154 80 125 153 81 127 152 83 128 151 83 129 150 83 129 148 84 130 146 84 129 145 84 129 144 85 129 142 85 129 141 83 129 137 80 129 135 79 130 133 77 130 131 76 131 131 76 134 130 77 135 129 78 136 128 80 139 128 82 141 126 84 142 123 86 144 120 88 145 118 92 146 116 95 146 114 98 146 114 100 147 115 103 148 116 106 148 118 107 147 120 109 147 121 112 147 122 115 147 123 117 146 124 119 146 124 120 148 124 122 148 124 124 146 123 125 147 122 128 147 121 130 112 170 75 114 169 76 115 167 77 115 167 79 115 165 81 116 162 81 117 160 81 120 158 80 120 156 79 123 156 80 126 156 82 127 155 83 127 153 83 127 152 83 128 151 83 128 149 84 128 147 83 128 146 83 128 143 82 128 140 81 129 138 79 129 136 77 129 133 77 129 133 75 130 133 76 132 132 76 133 131 77 135 130 79 137 128 81 138 126 82 139 123 85 141 120 88 142 117 91 142 116 94 142 115 98 143 115 101 144 116 104 146 117 107 146 119 108 147 121 110 147 121 112 147 122 115 146 124 117 145 125 118 146 125 120 146 125 121 148 125 124 147 124 126 147 122 129 147 121 131 