P3
50 50
255
54 80 114 54 80 114 54 79 113 53 76 114 53 77 115 53 77 115 52 77 115 51 77 114 49 76 112 50 75 111 50 75 110 51 74 108 52 74 107 51 73 106 52 73 106 54 72 106 55 72 103 56 71 102 58 71 102 59 71 102 60 73 101 60 75 101 60 77 101 61 79 100 62 81 101 62 82 100 62 83 100 62 83 99 61 83 101 59 85 102 57 88 102 57 90 102 57 92 102 56 96 102 55 100 102 55 102 103 56 103 104 57 105 104 58 105 106 59 105 108 60 107 108 59 108 109 59 108 108 59 109 107 61 110 108 61 113 109 62 118 111 61 122 112 62 124 113 62 125 115 52 77 114 52 76 113 52 76 113 50 74 115 49 73 115 49 73 115 49 74 116 48 73 115 48 74 114 49 73 112 49 73 111 49 72 109 50 72 108 49 72 107 50 72 106 51 71 104 53 70 102 54 70 102 55 71 101 57 72 101 58 73 101 58 74 101 59 75 101 60 78 101 61 79 99 61 81 99 61 81 100 61 81 100 60 83 100 58 84 101 56 86 101 56 88 101 56 90 101 55 94 101 54 98 102 54 100 102 56 102 103 57 104 103 58 104 104 59 105 106 60 106 107 59 106 107 58 106 107 58 107 106 60 109 107 61 112 109 61 116 110 61 119 111 62 121 111 62 122 114 51 75 114 51 74 114 50 73 114 50 73 114 48 71 115 47 71 115 47 71 116 47 71 116 48 72 115 48 71 114 47 72 112 48 70 110 48 69 109 48 70 108 49 70 105 50 71 104 50 70 102 51 68 102 52 69 101 54 71 100 55 72 100 56 73 100 58 74 101 59 77 100 60 79 99 61 81 98 61 81 98 61 81 98 60 83 98 58 84 99 57 85 99 56 86 100 55 89 100 54 92 100 53 97 100 55 98 100 56 101 101 56 102 103 58 102 104 58 103 105 59 105 105 60 104 106 60 105 105 60 106 105 60 107 106 60 110 108 61 112 110 62 115 111 62 119 111 62 120 112 50 74 114 49 72 114 48 72 115 47 71 115 46 70 115 46 69 115 47 69 115 47 70 116 48 70 117 47 70 115 46 70 112 46 69 110 47 69 109 47 69 107 47 69 105 47 69 104 47 69 103 48 67 102 49 68 100 51 70 100 53 72 99 54 72 100 56 74 100 57 78 99 58 79 99 59 81 97 59 82 97 60 83 97 60 83 97 59 84 97 58 85 97 57 86 98 55 88 98 53 91 99 54 94 99 55 96 99 55 100 101 56 101 103 57 102 104 58 103 104 59 103 104 60 103 104 60 103 104 60 104 104 61 104 106 61 107 109 62 110 110 63 113 110 63 117 111 63 118 113 48 73 113 48 71 113 46 70 115 45 69 116 44 68 116 45 68 116 46 68 116 48 67 116 49 67 117 48 67 115 46 68 112 45 69 110 46 68 108 47 67 107 45 68 105 44 68 105 44 68 104 46 67 101 46 68 99 47 70 98 50 72 98 52 72 99 54 74 99 57 77 97 57 79 97 57 82 96 57 84 96 58 84 95 58 84 96 57 83 95 58 84 95 56 86 95 55 87 96 54 89 97 54 92 99 55 96 100 55 99 102 57 101 102 57 101 103 58 101 102 59 101 102 59 101 102 59 102 103 59 104 103 60 105 105 61 106 108 62 109 109 63 111 110 64 114 110 64 115 114 47 72 112 46 69 114 45 68 115 44 67 116 44 67 116 45 67 117 47 65 117 48 65 117 50 66 115 48 66 113 47 67 111 46 67 108 45 67 106 45 67 105 44 68 104 43 67 104 43 67 104 43 67 101 44 68 98 46 71 96 49 72 97 50 72 98 53 74 99 54 78 97 55 79 97 56 82 96 56 83 95 56 84 94 56 84 95 56 84 95 57 84 94 56 86 94 56 88 95 55 90 96 56 93 96 56 95 99 57 97 100 58 99 101 59 98 101 59 98 101 59 99 101 59 99 102 60 101 103 59 103 103 60 105 105 61 106 107 63 108 108 64 109 110 65 111 111 66 112 114 47 70 112 45 68 114 45 67 114 46 67 115 46 66 116 48 64 116 50 62 116 50 63 117 51 65 114 48 65 111 46 66 109 46 67 107 45 67 105 43 66 103 42 66 103 42 67 103 41 67 103 42 68 101 43 69 97 45 70 96 47 72 96 48 74 96 51 76 98 52 77 97 53 80 96 54 82 96 54 83 95 55 84 94 55 84 95 56 84 95 57 85 94 56 87 94 57 88 95 56 91 95 57 93 96 57 94 98 58 96 99 58 97 100 60 96 100 60 96 100 60 97 102 60 99 103 59 100 103 60 102 103 61 104 104 64 106 105 65 107 107 66 108 109 67 108 110 69 110 113 47 69 112 46 67 112 45 67 113 47 66 114 48 64 115 49 63 115 50 62 116 51 63 115 51 65 112 49 66 109 46 65 108 46 66 105 45 66 103 42 65 103 40 64 104 39 65 103 39 66 102 41 66 100 42 68 98 44 71 97 46 72 95 48 74 95 48 77 96 49 78 94 50 80 95 52 82 96 53 82 96 54 83 95 55 84 95 56 86 95 56 87 94 57 89 95 57 91 95 57 93 95 57 95 96 57 95 98 59 95 99 60 95 99 61 95 99 61 95 100 60 97 101 60 98 102 60 99 102 60 101 103 63 103 104 65 105 105 66 107 106 67 107 108 69 108 110 71 109 112 48 68 112 46 67 113 46 66 113 47 65 114 48 63 114 49 62 115 50 62 115 49 63 113 49 65 110 48 66 107 46 66 106 45 67 104 45 66 103 42 65 102 40 65 102 39 65 102 39 65 101 41 66 100 42 68 99 43 71 98 44 72 95 45 74 94 46 77 94 46 79 94 49 80 95 50 82 95 52 82 95 53 83 95 54 85 95 55 87 95 56 90 96 56 92 96 56 93 97 57 95 97 58 97 97 59 96 98 61 95 98 63 95 99 63 96 99 62 96 100 62 98 101 60 100 102 60 100 103 63 100 104 65 102 104 66 104 104 67 106 105 69 106 106 71 107 109 72 108 111 48 68 114 47 66 115 46 65 115 47 64 115 49 64 115 49 63 114 49 64 113 48 64 110 47 65 108 46 66 106 45 66 105 44 66 103 43 66 102 42 66 101 39 66 102 39 66 102 39 66 101 41 67 100 43 68 99 42 71 98 43 73 96 43 74 94 43 77 93 45 79 94 47 80 93 49 81 93 49 82 93 52 84 94 53 86 95 55 89 95 56 92 95 56 93 97 57 96 98 58 96 98 60 97 98 61 97 99 62 98 100 63 98 100 64 98 101 64 97 100 62 99 100 62 100 101 62 100 102 64 100 102 66 102 104 67 103 104 67 104 105 69 106 106 71 106 109 71 107 111 48 67 117 48 66 116 48 64 116 47 63 115 49 64 115 50 64 114 49 64 111 47 66 109 46 66 107 46 66 105 45 67 103 43 67 102 43 68 101 41 69 101 39 69 101 39 68 101 40 67 101 41 68 101 41 69 100 41 71 98 41 74 96 41 75 94 42 77 93 44 79 93 45 79 92 46 80 91 48 81 91 51 83 92 53 86 92 54 89 94 56 93 95 57 94 97 57 96 98 58 97 97 60 97 97 62 98 99 63 99 101 63 100 102 64 100 102 64 100 102 63 102 101 62 102 101 63 101 102 66 102 102 68 102 104 69 104 104 69 105 105 70 106 107 71 107 109 71 107 111 48 67 119 49 66 118 47 65 117 47 65 115 49 65 114 49 65 113 49 65 110 47 66 109 46 66 108 45 67 105 45 67 103 43 67 102 42 69 101 40 69 101 39 69 102 39 68 101 39 68 101 40 69 101 41 69 99 41 72 97 40 74 95 40 74 95 41 76 94 43 78 94 44 79 93 45 80 91 47 81 91 50 83 91 53 86 91 55 90 93 55 92 95 57 93 97 57 96 97 58 97 96 60 98 97 62 99 98 64 101 100 64 101 101 65 101 102 65 102 101 66 103 101 65 103 101 65 104 102 67 103 103 69 103 103 70 104 104 69 106 105 70 107 107 71 107 108 70 107 110 47 68 120 48 68 120 48 66 119 47 65 116 49 65 114 50 65 112 49 65 110 48 65 109 46 66 109 45 66 107 45 67 104 44 68 103 41 69 102 39 69 102 38 69 102 38 70 103 38 70 103 40 69 101 40 70 98 41 72 97 40 73 96 39 74 95 40 75 94 41 76 94 43 78 93 44 80 91 47 82 91 49 85 92 52 88 91 54 90 92 55 92 95 56 93 96 57 94 97 58 96 97 60 97 97 62 99 98 63 100 99 65 100 99 65 102 100 66 102 101 67 104 101 67 105 100 67 104 101 67 105 102 68 105 102 69 105 103 69 107 104 69 107 105 69 107 106 70 107 107 48 69 122 48 69 121 48 68 119 48 67 116 48 65 114 48 66 113 47 66 111 47 66 110 44 66 111 43 66 109 43 66 105 42 68 105 41 69 105 38 69 105 37 70 104 37 71 104 38 72 103 38 72 101 39 71 99 40 72 98 41 73 97 40 74 97 40 75 96 41 75 95 42 77 93 44 80 91 47 83 91 49 85 91 52 88 91 54 89 92 56 91 94 58 92 96 58 94 96 60 96 96 61 97 96 62 98 96 62 99 97 64 100 98 66 102 100 66 104 101 67 103 100 67 105 100 67 106 102 66 106 102 66 107 102 67 108 104 68 108 104 68 107 104 69 107 104 68 106 106 48 71 124 48 70 122 48 70 119 49 68 118 48 66 116 48 66 114 47 66 114 47 65 113 43 66 112 42 68 110 41 68 107 40 69 106 39 70 107 38 70 106 38 72 106 38 72 105 38 74 103 39 74 103 40 74 101 41 73 100 42 75 100 42 75 99 41 75 97 40 76 96 42 78 95 43 80 93 46 82 91 49 84 91 52 87 91 54 89 92 57 90 94 59 91 95 60 94 96 61 96 96 61 97 96 62 99 95 61 99 96 63 101 98 65 103 99 66 103 99 67 104 100 68 104 101 67 105 102 66 106 102 65 108 102 65 109 103 66 107 104 67 107 104 68 107 104 68 105 105 49 72 125 48 71 122 49 71 121 48 68 119 46 66 118 47 66 118 47 65 117 46 65 117 44 65 114 41 67 112 39 68 109 39 70 108 38 72 108 38 72 107 38 74 105 38 74 105 38 75 104 40 76 103 41 76 103 41 76 102 41 75 101 41 76 100 41 75 97 41 77 96 42 80 97 43 81 95 45 82 93 49 84 92 51 86 91 54 88 93 58 89 93 59 91 95 60 93 96 61 96 96 62 97 96 61 99 96 61 99 95 62 100 97 63 101 98 64 102 98 66 103 100 67 103 100 66 104 101 64 104 101 65 107 101 66 108 102 66 107 102 66 107 103 67 106 104 69 105 104 47 72 126 47 71 123 47 71 122 47 69 122 47 67 120 46 66 119 46 66 119 46 65 118 44 66 116 41 69 113 39 70 111 39 71 109 39 73 109 38 74 107 38 75 105 38 75 105 39 76 105 40 77 103 41 77 103 40 76 103 41 76 102 41 77 100 42 77 99 43 79 97 43 82 97 44 83 96 45 83 95 49 84 93 51 85 92 54 87 93 58 90 93 59 90 94 61 93 95 61 96 95 62 97 96 61 97 95 61 99 95 62 100 96 62 101 96 63 103 97 63 103 98 65 102 98 65 103 99 64 103 100 65 106 101 65 107 102 65 107 102 66 106 102 67 106 102 69 105 102 46 72 126 46 72 124 46 71 122 47 69 122 46 67 121 46 67 120 45 67 121 45 67 119 43 68 117 40 71 114 39 72 112 39 72 111 39 74 109 38 75 107 38 76 107 39 76 106 39 76 107 40 76 105 40 76 103 40 76 104 40 76 103 41 78 102 42 78 101 43 81 99 45 82 98 46 83 97 48 84 95 50 85 94 53 85 93 56 89 94 58 90 95 60 91 93 61 93 93 62 95 93 63 97 94 63 97 95 62 99 96 62 99 96 62 100 94 62 102 94 62 102 95 64 102 96 64 102 97 64 102 99 65 105 100 66 105 101 64 105 102 64 105 102 65 105 102 68 105 102 45 72 126 44 72 124 44 71 123 47 69 123 46 67 123 46 66 122 45 67 121 44 68 118 42 70 116 40 71 114 40 72 112 40 73 111 39 75 110 38 76 109 38 76 108 39 76 108 39 75 108 39 75 107 39 76 105 39 76 105 40 77 104 40 79 104 42 80 102 43 82 100 47 83 98 49 83 97 51 85 96 54 85 95 56 87 94 59 89 95 60 91 94 61 91 93 61 91 92 63 94 92 64 96 93 65 97 94 65 99 94 65 100 93 64 100 91 63 100 92 62 102 93 62 101 93 62 100 95 63 101 97 64 103 98 66 103 98 65 104 100 64 105 101 65 106 101 67 105 101 43 73 126 43 73 125 44 73 124 45 70 123 45 70 122 44 68 121 43 69 121 42 69 118 41 71 115 41 72 114 39 73 112 38 74 112 38 75 110 38 75 109 38 76 110 38 76 109 39 76 108 40 76 108 40 77 107 40 77 107 40 78 106 41 80 106 43 82 105 46 84 103 48 84 100 51 84 98 54 84 97 57 86 96 59 87 96 61 89 95 62 92 94 64 92 93 64 92 92 65 94 91 66 96 92 67 96 93 67 99 93 66 99 92 64 99 92 62 100 92 62 101 91 63 101 92 63 100 94 64 102 95 65 103 97 66 103 97 65 102 98 64 104 99 66 105 101 67 106 101 42 75 124 43 75 124 43 74 123 44 73 122 44 72 120 43 71 120 43 70 120 42 70 119 42 71 116 40 72 114 38 73 112 37 75 112 38 75 110 38 75 110 37 77 111 37 78 109 39 78 110 41 78 110 40 78 108 40 80 108 41 80 108 41 82 107 44 83 106 47 84 104 49 84 102 53 84 99 57 85 98 58 87 98 61 88 97 63 90 96 65 93 95 67 94 94 68 93 93 68 95 92 69 95 92 69 97 92 69 99 92 66 99 92 64 99 92 63 99 93 63 100 92 63 100 92 63 101 94 65 103 95 65 103 96 65 103 97 65 102 97 65 103 98 66 103 100 67 105 102 43 75 124 43 76 123 43 75 120 44 75 119 45 74 119 43 73 118 43 72 118 43 72 118 41 73 115 40 74 114 39 75 113 39 75 112 38 75 111 37 77 111 36 77 112 37 78 111 38 79 111 40 80 110 41 80 110 41 80 109 42 81 108 43 81 107 44 83 106 47 84 104 51 85 104 55 86 101 59 86 99 60 87 99 62 90 98 64 92 97 67 94 96 69 94 95 69 94 93 70 95 91 71 95 92 71 97 92 69 99 92 66 100 93 64 100 93 64 100 93 64 100 93 64 101 92 64 102 94 64 103 96 64 103 97 65 103 97 65 103 97 65 102 97 66 103 99 66 104 102 43 75 123 43 74 121 43 75 118 44 76 118 44 75 117 45 75 117 43 74 116 42 75 116 39 75 114 38 76 113 38 75 113 38 76 113 37 77 111 37 78 111 36 79 112 37 80 112 37 81 112 39 82 111 41 82 109 41 81 109 42 81 108 44 82 106 45 84 105 48 85 104 53 85 103 58 86 102 60 87 100 61 88 99 63 90 99 66 93 97 68 94 96 68 94 96 69 95 94 70 97 92 72 97 92 71 98 92 70 100 93 67 101 93 66 100 93 65 101 91 65 101 91 66 101 91 66 102 93 65 103 96 65 103 97 65 103 97 65 102 97 65 102 98 65 102 99 67 102 101 43 74 124 43 74 121 44 75 120 44 76 119 44 75 116 44 76 115 44 76 115 41 77 115 39 78 114 39 77 112 38 76 113 38 76 112 37 77 112 36 79 112 37 78 112 37 80 112 36 81 111 37 83 110 39 84 109 39 82 109 41 82 107 44 83 105 47 83 104 49 85 103 54 86 103 59 88 102 61 89 101 63 90 101 65 92 100 67 93 99 68 94 97 69 94 97 70 95 94 71 97 93 71 97 92 71 98 92 70 100 93 69 102 93 68 101 93 67 101 92 66 101 90 68 100 90 68 101 93 68 103 94 66 104 96 66 104 96 65 103 97 65 102 97 67 101 98 69 101 100 44 73 124 44 75 122 45 75 121 44 76 119 45 76 117 45 76 115 43 78 115 42 79 114 41 78 114 40 78 112 39 78 112 39 77 112 38 77 112 37 78 112 37 77 111 38 78 110 37 80 109 37 82 109 37 84 110 39 83 109 42 84 108 44 84 105 47 84 104 49 85 103 54 86 103 59 88 102 62 90 101 65 92 101 67 94 102 67 94 100 68 95 100 70 96 97 72 96 95 72 98 94 71 99 93 70 99 92 71 101 93 70 102 94 69 102 93 68 102 92 68 101 91 68 100 91 69 102 92 69 104 93 68 104 93 68 103 94 68 103 96 68 102 97 70 102 98 71 100 99 46 73 122 45 74 120 47 75 120 46 75 118 45 76 117 45 77 115 44 78 115 44 79 115 42 78 114 42 78 113 42 78 112 40 77 112 39 77 111 38 78 111 37 77 110 38 78 110 39 80 109 39 82 110 39 84 110 40 85 110 43 85 108 45 85 107 47 85 104 50 86 103 55 87 103 60 89 103 63 91 102 66 93 102 68 94 101 68 95 102 69 97 101 70 97 100 72 98 98 71 100 97 72 100 95 71 100 93 71 102 94 70 103 93 70 103 91 69 102 90 69 102 92 69 103 91 70 103 91 71 103 91 71 103 92 71 102 92 70 102 93 71 102 95 72 101 96 71 99 96 46 74 120 47 75 119 48 75 118 47 75 116 45 76 115 45 76 114 45 78 115 46 79 114 44 79 114 44 79 113 43 79 113 42 79 112 40 79 111 39 79 110 39 79 110 39 79 110 41 79 110 42 81 109 42 83 110 43 86 110 45 86 109 46 86 107 49 86 105 53 87 103 56 88 103 60 90 104 64 91 103 67 92 102 69 95 102 71 97 101 71 99 101 72 99 100 73 100 99 73 100 98 73 100 96 72 101 94 72 102 94 71 102 94 70 103 93 70 103 91 69 104 92 70 104 92 71 104 92 72 104 90 73 102 90 72 101 90 71 101 91 72 101 92 73 101 93 71 100 93 46 74 119 47 76 118 48 77 117 47 77 115 46 77 114 46 77 113 47 78 113 47 79 114 47 80 114 47 80 113 46 80 112 45 80 112 42 80 109 41 80 110 41 80 109 41 80 111 43 81 110 45 82 109 46 83 109 46 84 109 47 85 108 50 86 107 53 86 106 55 88 104 58 89 103 62 91 103 66 92 103 68 93 103 71 96 102 72 97 102 72 98 101 72 99 101 74 99 99 75 100 98 75 100 97 75 101 94 74 102 93 72 102 94 71 103 94 70 104 93 70 104 92 71 104 93 72 104 92 74 103 91 73 101 90 72 100 88 72 99 88 73 100 90 73 101 91 71 101 91 47 75 117 48 76 116 48 78 114 47 78 113 48 78 112 48 78 112 48 78 112 48 80 113 49 81 112 50 81 112 49 81 112 46 80 111 44 81 110 43 81 110 43 82 110 44 82 110 46 83 110 47 83 110 48 84 109 48 84 109 51 85 107 53 86 106 55 86 105 58 87 105 60 89 105 63 90 103 66 91 103 69 93 103 71 96 103 71 97 103 71 98 102 71 99 102 74 100 100 77 99 99 76 99 96 76 100 93 76 101 93 75 101 93 74 103 94 73 104 93 72 104 93 72 104 93 73 103 93 74 102 92 73 100 91 74 99 90 73 99 89 72 99 89 72 101 90 71 101 89 46 77 114 48 78 113 49 78 112 49 79 111 49 80 111 50 79 111 50 79 111 50 79 112 51 80 111 51 81 109 51 81 110 49 81 109 47 82 109 46 81 110 46 83 111 47 84 111 48 83 111 49 83 110 49 83 109 51 83 108 53 85 108 56 85 106 59 86 106 60 87 105 62 90 105 65 90 104 67 92 104 69 94 104 70 95 104 69 95 104 70 96 104 71 98 102 74 99 101 77 99 98 78 99 96 78 99 94 77 98 94 77 100 94 76 104 93 75 104 93 74 103 93 74 103 94 74 101 93 75 100 93 74 99 91 74 99 89 74 100 89 73 101 90 72 101 90 73 101 90 47 76 112 48 77 111 49 78 111 49 78 112 50 79 111 50 80 112 50 80 111 51 81 110 51 81 108 52 82 108 52 82 108 51 82 109 50 83 109 49 84 109 49 85 110 50 85 111 51 84 112 50 83 111 52 83 109 54 83 108 56 84 107 58 85 107 61 86 106 63 89 106 65 91 106 67 92 106 68 93 105 69 93 104 69 94 104 69 95 104 69 95 103 71 96 102 74 97 101 77 99 98 78 97 96 78 97 94 78 98 94 77 101 94 77 103 94 76 104 93 76 103 92 74 103 92 74 101 92 76 100 92 76 100 92 75 99 90 74 101 90 74 102 90 74 101 90 74 101 90 47 77 112 48 77 111 49 78 111 50 79 111 51 80 110 52 81 110 51 81 110 51 82 108 51 83 107 53 84 107 53 85 107 53 85 109 52 85 109 51 86 110 51 86 109 52 85 111 52 85 111 52 84 110 54 83 109 56 83 108 57 83 107 59 85 107 61 87 106 63 89 107 65 91 107 67 91 107 68 91 106 69 92 105 68 92 103 70 93 103 70 94 101 72 95 101 75 97 100 77 97 98 78 96 97 78 96 96 79 98 95 79 100 95 79 101 95 77 103 94 76 104 91 75 104 91 74 103 91 75 102 91 76 102 91 75 101 91 75 103 91 74 103 91 74 103 90 74 104 90 48 76 110 50 77 110 50 78 111 50 78 111 51 80 110 51 82 109 52 81 109 52 82 109 52 83 107 53 84 107 53 85 106 54 86 107 53 87 109 54 86 109 54 86 110 53 85 109 53 85 109 54 84 109 55 82 108 57 82 108 59 83 108 61 84 109 63 87 108 65 88 108 67 89 107 68 89 106 68 88 106 69 90 106 70 91 105 71 92 104 71 91 102 73 93 101 75 94 100 77 96 99 78 96 98 79 97 98 80 98 97 81 99 95 80 100 95 78 101 94 77 103 92 76 103 91 75 104 91 75 103 91 76 103 93 77 102 93 76 104 92 75 104 92 75 104 92 75 104 92 48 75 110 49 76 111 49 77 111 49 77 111 50 78 110 51 80 108 51 82 108 50 82 106 51 83 107 52 83 106 53 85 105 54 87 106 55 88 107 55 87 108 55 87 109 54 86 108 55 85 107 55 84 108 56 83 109 58 83 109 61 83 110 64 83 110 65 85 109 67 86 108 69 86 108 69 86 107 69 86 107 70 87 107 72 90 106 72 89 105 72 89 103 73 91 101 74 91 100 76 92 99 77 95 99 79 96 99 80 98 97 81 99 96 81 100 95 79 101 95 78 102 93 76 103 93 76 104 93 77 103 94 77 103 93 77 104 93 77 105 92 77 105 93 76 105 94 76 105 94 46 75 111 46 76 111 47 77 112 49 78 111 51 79 109 51 80 107 50 81 106 49 82 105 49 83 105 51 84 105 51 87 104 53 89 104 54 88 106 55 88 107 55 87 107 54 86 107 54 85 107 55 84 107 56 84 109 60 84 111 64 83 111 67 83 111 68 84 109 69 84 109 70 83 109 70 84 107 71 85 107 72 87 108 73 88 106 73 88 105 72 88 103 73 89 101 74 89 101 76 89 100 77 92 100 79 94 99 80 97 99 80 98 98 80 100 96 80 101 95 79 101 94 77 102 95 78 101 94 79 103 94 78 104 95 78 105 94 79 106 93 78 107 94 78 106 94 78 108 96 45 75 112 47 75 111 47 76 111 48 78 110 51 80 107 52 81 106 50 82 106 49 83 105 48 84 104 49 84 103 50 87 103 52 87 104 54 88 106 55 88 108 54 87 107 55 86 107 55 85 108 56 85 108 58 84 109 61 84 111 65 83 112 68 82 111 70 82 110 71 82 110 71 82 109 72 82 108 72 84 107 73 85 107 75 86 107 74 87 105 73 87 103 73 88 102 74 88 102 75 87 101 77 90 100 79 92 99 80 95 100 79 97 99 79 99 98 79 99 97 80 100 96 79 100 95 80 100 96 81 102 95 81 104 95 80 105 95 80 106 95 81 106 96 80 108 96 80 109 97 45 75 110 47 75 110 47 76 109 48 78 107 50 80 104 51 82 104 51 83 104 50 83 104 49 83 104 48 84 103 50 85 102 52 85 103 54 85 105 55 85 108 54 85 108 55 86 109 56 85 108 57 85 108 58 84 110 60 83 112 64 82 112 67 82 112 70 81 111 73 81 110 73 81 109 73 82 109 73 83 108 75 85 107 75 86 107 75 87 106 74 86 105 74 85 104 75 85 102 75 86 102 76 88 100 77 90 98 77 93 99 78 95 99 78 97 98 79 98 98 80 98 97 80 100 96 80 101 96 81 102 96 81 103 96 80 104 97 82 106 96 83 107 97 83 109 97 83 112 98 46 76 107 48 76 107 48 77 106 49 79 105 51 81 103 51 83 103 51 83 102 51 83 102 51 83 103 50 83 102 50 84 102 52 83 103 53 83 105 55 83 107 55 83 109 55 84 107 56 84 107 56 85 108 58 83 110 60 83 111 63 83 112 66 83 111 69 81 111 72 80 110 74 81 110 74 81 109 76 83 108 76 85 108 76 85 108 76 85 107 74 83 106 74 82 105 74 83 103 74 84 101 76 85 101 77 88 100 77 91 99 78 94 99 79 96 98 81 96 98 82 97 98 82 98 97 81 100 96 82 101 96 81 103 97 81 105 98 82 106 97 83 108 98 85 110 98 85 114 98 47 76 105 49 77 106 49 78 105 51 80 103 52 82 102 53 82 103 53 82 101 53 81 102 53 83 102 52 84 102 52 83 101 53 82 103 55 82 105 56 81 107 56 82 108 56 83 106 57 83 107 57 82 109 59 82 110 60 82 111 62 83 112 65 82 111 68 82 111 71 81 111 73 81 111 74 81 109 75 83 109 76 84 110 77 84 108 76 82 108 75 81 107 74 81 106 74 82 104 75 83 102 76 85 102 78 87 100 78 90 100 80 92 100 81 93 100 83 94 99 84 96 99 84 97 98 83 99 96 82 102 96 83 104 97 83 106 98 83 108 98 84 109 99 85 111 99 85 114 100 50 77 104 51 79 104 52 80 103 53 81 101 55 81 100 56 82 101 56 82 100 56 82 100 54 82 100 53 82 100 53 82 100 55 81 103 57 81 105 57 81 106 58 81 105 58 82 104 58 82 106 59 81 108 60 81 110 61 82 110 63 82 111 65 83 111 68 83 110 70 83 110 72 82 110 73 82 110 74 83 110 75 83 110 76 83 109 76 82 109 76 80 108 75 80 107 75 82 104 75 84 103 76 85 102 77 88 99 80 90 100 82 91 101 83 92 101 85 93 100 86 96 99 86 97 97 84 99 97 84 101 97 84 105 98 85 108 100 86 110 100 87 111 100 86 113 101 86 114 101 52 80 103 53 80 102 54 81 101 56 82 100 57 82 99 58 83 99 58 82 100 58 82 100 58 82 99 57 82 99 56 81 100 57 81 102 59 80 104 60 81 104 60 81 104 60 81 105 60 81 107 61 82 108 62 82 110 63 82 111 64 82 111 66 83 111 67 85 110 69 85 110 70 84 109 73 83 108 75 82 109 76 82 110 76 82 110 76 82 108 76 82 108 76 82 108 76 83 105 77 84 103 76 87 102 78 89 100 80 90 100 83 91 102 84 92 102 85 93 102 86 96 100 87 98 98 86 100 98 86 102 100 86 105 101 86 108 100 87 110 101 88 113 102 88 114 102 87 116 102 53 81 101 54 80 100 55 81 100 57 82 99 60 82 97 60 83 97 62 83 97 62 83 98 61 83 98 61 82 99 59 80 101 60 80 102 61 80 103 62 81 104 61 80 104 61 81 106 62 81 108 62 82 110 64 82 111 65 83 112 67 83 111 68 84 110 68 85 110 70 85 109 71 85 108 73 83 109 76 82 109 77 81 110 77 81 109 76 82 107 76 82 107 77 82 108 77 83 106 76 84 104 77 87 103 80 88 101 82 89 101 84 90 101 85 91 102 86 93 103 86 96 101 87 99 100 88 101 99 88 103 101 88 105 101 87 108 101 88 110 103 89 113 103 89 115 103 88 118 102 53 81 98 55 81 98 56 82 97 58 82 97 61 82 96 63 83 96 64 82 96 65 83 96 64 83 98 63 82 99 61 80 100 62 80 102 62 80 103 63 80 105 62 79 106 64 81 107 64 82 109 64 82 110 66 82 111 68 81 110 70 82 110 70 82 109 70 84 109 71 84 109 71 85 109 74 83 109 76 82 109 76 81 110 76 81 108 76 82 107 76 83 107 77 82 107 77 81 106 77 83 104 78 85 104 81 87 102 82 88 101 84 89 101 86 91 102 87 93 103 86 95 103 87 98 101 88 101 101 89 104 102 88 106 103 89 109 103 89 111 103 90 113 103 90 116 104 90 118 104 54 81 94 56 81 95 57 81 95 59 82 96 62 81 96 65 81 95 66 82 94 67 82 96 67 83 98 65 82 99 65 82 100 65 82 102 65 80 103 65 79 105 66 79 105 67 81 106 67 82 108 67 81 109 68 81 108 69 82 109 71 83 108 72 82 107 73 82 107 73 83 108 73 83 109 75 83 110 76 83 109 76 82 109 77 82 108 76 83 106 75 84 106 77 83 105 78 82 106 78 82 105 80 83 104 82 85 103 83 86 101 86 87 102 87 90 103 88 92 103 88 95 103 88 97 103 88 100 104 88 103 104 89 106 104 90 108 104 90 111 104 91 112 104 91 114 103 91 116 104 55 80 91 57 81 92 58 81 93 59 81 93 62 80 92 66 79 92 67 80 93 69 82 95 69 83 98 69 82 99 68 82 101 68 81 101 69 79 102 68 79 104 69 79 105 71 80 105 70 80 106 69 81 108 70 82 107 71 83 107 72 83 106 73 83 106 74 83 107 75 82 107 75 82 109 76 83 109 77 84 109 78 84 107 78 85 106 78 85 105 76 85 105 77 83 105 77 83 105 78 83 105 80 83 103 81 84 103 83 85 102 86 87 102 88 88 103 89 91 104 89 94 104 88 97 104 88 99 104 88 103 104 90 105 103 90 108 104 91 110 104 92 113 103 92 114 104 92 116 104 58 80 89 58 79 91 59 79 92 61 79 91 63 79 90 66 79 90 68 80 91 69 81 93 70 81 96 71 81 98 71 81 99 71 80 100 72 79 101 72 79 102 73 79 103 73 80 103 73 80 105 73 81 105 73 83 106 73 83 105 74 83 106 75 83 106 75 83 106 76 83 106 77 83 107 78 84 107 79 85 108 80 85 107 80 85 106 79 86 105 79 85 105 78 85 105 78 84 105 79 84 103 81 84 102 82 84 103 83 86 102 85 86 101 88 88 102 89 90 104 90 93 105 89 97 105 89 99 103 90 102 102 92 104 102 92 107 102 92 110 103 93 112 102 93 115 103 94 117 104 59 80 88 59 79 89 60 78 89 61 78 89 64 78 88 66 79 89 69 79 91 70 80 92 71 81 94 72 81 96 73 81 96 74 80 98 75 79 100 76 79 101 76 79 102 76 79 103 76 80 104 75 81 104 75 82 104 75 83 104 77 83 105 77 84 105 78 84 106 78 84 105 79 83 105 79 82 106 81 83 107 82 85 105 83 85 105 83 85 104 82 85 105 81 85 105 81 84 104 82 83 102 82 83 102 82 84 102 83 85 101 86 86 101 89 88 102 89 91 104 91 94 105 91 97 105 91 99 104 91 102 102 94 104 101 95 107 101 95 109 101 95 113 102 95 116 103 95 118 104 61 80 86 60 79 87 61 78 88 63 78 88 65 79 87 67 79 89 69 81 91 71 80 92 73 81 93 73 82 94 75 81 95 76 80 97 78 79 99 79 79 100 79 78 100 78 79 102 77 79 103 76 80 102 76 81 102 76 83 102 77 84 104 78 85 104 79 85 104 79 85 104 79 83 105 80 81 106 82 82 106 83 82 104 85 84 104 86 84 105 86 85 104 84 84 105 83 83 104 85 82 103 84 83 102 84 83 102 85 84 101 87 86 100 89 89 102 90 92 104 91 94 105 93 96 104 92 99 103 93 101 103 95 104 102 97 106 101 97 110 101 97 113 103 97 115 105 97 118 106 61 80 84 61 80 84 62 79 86 64 79 87 66 80 87 68 79 89 70 80 90 73 81 91 74 83 92 74 82 93 76 80 94 77 79 95 78 78 97 80 78 98 80 77 100 81 77 100 80 78 102 79 80 102 79 82 101 78 83 101 78 84 101 80 84 102 81 85 102 82 83 103 82 81 105 82 81 105 83 81 105 84 82 104 86 83 105 87 83 105 87 84 105 87 83 106 86 82 105 86 82 104 86 82 102 87 83 102 86 84 102 88 87 102 90 89 102 91 92 102 92 95 103 92 96 104 92 99 104 94 101 104 96 104 103 99 106 102 99 110 103 99 112 104 98 116 105 100 119 106 62 80 82 62 80 82 64 79 83 65 80 84 67 81 86 69 81 88 71 80 88 73 81 89 75 81 90 77 80 91 78 79 92 78 79 94 80 79 95 81 78 97 82 78 98 82 78 99 81 78 100 81 80 100 80 82 99 80 83 98 80 84 98 81 83 99 82 83 101 83 82 102 83 82 103 84 82 103 85 82 103 86 82 103 88 83 104 88 83 105 88 83 105 88 82 106 88 81 105 89 80 105 87 81 103 87 82 103 88 84 103 90 86 103 90 89 102 92 92 102 93 95 103 93 97 104 93 99 104 94 102 104 97 105 104 100 108 104 102 111 104 102 114 104 102 116 104 102 118 106 