P3
50 50
255
200 75 178 201 75 177 201 76 177 201 77 178 200 78 178 199 78 178 198 78 179 197 79 180 197 80 182 196 81 183 196 83 183 196 85 183 194 87 184 193 89 185 193 90 186 194 92 186 195 95 187 196 98 190 198 100 190 200 102 190 200 104 190 201 107 192 201 110 191 200 113 191 201 116 192 201 120 193 202 122 194 200 124 194 198 127 193 196 130 191 195 133 190 193 134 189 191 135 189 189 136 188 187 137 187 186 139 186 187 142 184 188 144 185 190 145 186 191 147 185 190 149 188 190 151 189 188 151 190 189 152 190 189 154 191 189 154 191 189 156 191 191 157 190 192 157 190 193 156 190 199 75 178 199 76 177 199 77 176 199 77 177 198 79 178 197 78 177 195 78 177 196 78 179 196 79 181 195 80 182 195 84 182 193 86 182 193 88 182 192 89 183 192 91 183 192 94 185 193 96 186 195 99 189 197 102 189 199 104 188 200 106 188 200 109 188 200 113 189 199 115 190 200 118 191 201 121 192 200 124 192 199 127 194 196 130 193 195 132 192 193 135 190 191 136 189 189 137 188 188 138 187 187 141 187 187 143 186 188 145 184 189 147 184 189 148 184 190 150 185 190 152 186 188 153 188 188 155 188 189 156 189 189 157 188 189 157 189 189 160 189 190 162 188 191 163 187 192 162 188 198 75 178 198 76 177 198 77 177 199 78 176 197 79 177 196 79 177 194 79 176 194 79 177 195 80 179 194 81 180 193 84 180 192 85 179 191 88 180 191 89 181 190 92 182 190 95 183 192 99 185 195 101 187 197 104 187 198 106 186 198 108 186 199 110 185 199 113 186 199 117 187 198 120 189 199 123 190 198 126 191 197 129 192 195 132 193 193 135 191 192 137 191 192 137 190 190 138 188 189 141 187 189 143 188 188 146 186 189 147 183 189 149 182 189 151 182 189 153 183 189 156 184 188 156 185 188 158 185 189 158 187 189 158 187 189 160 186 190 163 187 191 166 187 192 167 186 192 167 186 197 75 177 198 77 177 198 78 176 198 79 176 196 80 175 194 79 176 193 79 175 192 79 177 192 80 178 192 81 179 191 83 179 190 85 178 189 87 178 189 90 179 188 93 180 190 98 181 190 100 183 193 103 185 195 105 185 196 106 183 197 108 183 197 110 183 197 113 184 196 117 186 196 122 187 196 125 188 196 128 190 196 132 191 194 134 190 192 136 191 191 139 190 190 139 190 191 140 189 191 142 188 190 144 187 190 148 184 190 150 183 190 151 181 189 153 179 189 155 180 189 158 183 189 159 184 189 159 184 190 160 185 191 161 185 191 163 186 191 166 186 191 168 186 191 169 185 191 170 185 197 76 176 197 77 175 197 78 174 196 79 173 195 80 173 193 79 174 190 79 174 191 79 176 191 80 177 191 82 176 189 83 177 188 86 177 188 88 178 188 90 177 189 93 178 188 98 179 190 100 181 191 103 182 193 105 182 195 107 181 196 109 182 196 111 183 194 114 184 193 120 184 193 124 186 194 127 186 194 130 188 195 133 189 194 136 189 191 138 189 190 140 190 190 141 190 191 142 189 192 143 187 191 145 185 191 149 183 191 151 181 190 151 179 189 153 177 190 155 178 190 158 181 190 160 183 190 161 184 191 162 183 191 163 184 192 165 186 191 168 187 190 171 187 190 171 186 190 171 185 196 78 175 196 79 174 195 80 172 194 80 171 194 79 171 191 79 171 190 80 173 190 80 175 189 81 175 189 81 176 188 84 177 187 87 177 186 89 177 187 91 177 188 94 177 188 97 177 189 100 178 190 103 179 192 106 179 193 108 179 194 110 179 193 113 181 193 116 183 192 122 183 191 126 183 192 129 185 193 132 186 193 135 187 192 137 187 190 140 187 190 140 188 191 141 189 191 143 188 191 144 186 191 146 184 191 148 182 192 149 180 191 151 178 191 154 178 190 156 178 191 158 179 191 160 181 191 162 183 190 164 183 191 165 184 191 168 187 191 170 188 189 172 187 189 173 187 190 173 186 194 81 172 193 82 172 192 82 170 192 82 169 192 82 170 190 81 170 189 81 172 188 82 175 188 82 176 187 82 176 187 85 177 186 86 176 186 89 176 186 91 176 186 94 176 187 97 175 188 100 175 189 105 176 191 107 177 191 109 177 192 112 178 191 116 179 191 120 182 191 125 183 190 129 182 190 132 184 191 135 184 191 138 183 191 140 184 190 142 185 190 142 187 190 142 186 190 144 186 192 145 184 192 147 182 192 149 180 191 150 178 191 153 176 191 156 176 191 157 178 191 159 179 192 162 181 191 164 183 190 167 184 190 168 185 189 171 187 188 172 187 189 173 187 188 174 186 189 174 185 191 83 169 191 83 169 190 82 169 189 83 168 189 83 168 188 82 170 186 83 172 185 84 174 186 84 174 186 84 175 186 85 175 187 87 174 187 88 174 186 91 174 187 94 174 188 97 172 187 101 172 188 105 174 189 109 175 190 112 176 190 114 178 190 117 179 189 121 181 189 126 182 189 130 180 189 134 182 189 138 183 189 141 182 190 142 183 190 143 184 189 144 184 189 144 184 190 144 184 191 146 183 192 147 181 192 149 179 192 152 178 191 154 176 191 155 175 191 157 176 192 160 179 192 164 181 192 166 184 191 170 186 190 172 187 189 174 186 189 174 186 189 174 185 188 176 186 189 176 184 190 81 167 189 83 166 187 83 167 186 82 167 187 82 167 186 83 169 183 84 171 183 85 172 183 85 172 185 86 173 186 86 173 187 87 173 188 89 173 187 91 172 188 94 171 188 98 169 188 101 170 188 105 172 187 110 174 188 113 175 189 116 177 189 120 178 188 123 180 187 127 180 188 132 179 188 135 180 188 140 181 189 143 182 189 144 183 189 145 183 189 145 182 189 145 182 189 146 182 191 147 182 193 149 180 194 151 178 192 154 177 191 156 176 191 157 176 191 159 176 192 161 178 192 165 183 192 169 185 191 172 187 191 173 186 189 174 185 190 175 185 190 176 184 188 177 185 189 177 185 188 80 166 186 81 165 185 81 165 184 81 166 184 83 167 183 83 168 181 85 170 181 86 170 182 86 171 183 87 172 184 88 172 185 88 172 185 90 171 186 92 169 188 93 169 188 96 169 189 101 169 188 106 171 187 110 173 187 115 175 188 118 177 187 122 178 186 125 179 186 129 178 187 133 179 188 138 179 188 141 180 188 144 182 189 145 182 190 147 182 189 148 181 189 147 181 191 148 181 193 149 181 194 151 180 194 153 178 193 156 177 192 158 176 192 159 176 192 160 177 193 164 180 193 168 184 193 171 186 192 173 187 193 173 187 192 175 186 191 177 185 190 177 184 189 177 184 188 177 185 186 80 164 185 80 163 184 80 165 183 81 166 182 82 166 180 83 167 180 85 169 180 86 168 179 87 168 180 89 168 181 89 169 184 90 169 185 91 169 185 93 167 187 95 167 187 97 168 188 101 168 188 106 170 187 111 172 185 116 173 186 120 174 186 124 176 185 127 177 186 131 177 187 136 177 187 141 179 188 144 180 187 146 181 188 148 182 189 149 181 189 149 182 191 148 181 192 149 180 194 150 179 194 152 178 193 155 178 192 158 177 194 160 177 193 160 177 193 162 179 193 167 181 194 170 184 193 172 186 194 174 185 194 174 185 192 176 186 191 177 185 190 177 183 189 177 184 188 177 183 185 80 162 184 80 162 184 81 163 182 81 165 181 81 164 180 83 165 179 85 166 178 88 166 177 89 165 178 90 165 180 91 165 183 92 167 183 93 166 183 95 165 185 97 166 185 99 167 186 103 168 186 108 169 185 112 170 185 117 172 185 122 173 185 125 175 186 129 177 185 135 177 187 139 176 187 143 178 188 146 179 188 149 179 188 150 181 190 150 182 190 149 182 191 149 181 192 150 179 193 151 177 193 153 176 193 155 176 193 159 177 194 161 177 194 162 177 194 165 180 194 168 181 195 171 183 194 173 185 194 175 185 193 176 184 191 176 185 190 175 184 189 175 183 189 176 184 187 178 183 183 78 160 183 78 160 184 79 162 182 79 162 181 81 162 179 83 162 178 85 163 177 88 164 176 90 163 177 92 163 179 92 163 180 93 163 179 95 164 181 96 164 182 99 165 183 101 166 184 104 166 184 109 166 183 114 168 183 118 170 184 122 172 186 127 173 186 132 175 186 136 175 187 141 175 187 145 175 188 148 176 188 149 177 188 150 178 189 150 179 191 149 179 190 150 179 191 152 178 192 153 176 192 155 175 192 157 175 192 160 175 193 162 176 193 164 177 194 166 178 195 169 179 195 172 182 194 174 184 193 176 184 191 176 184 190 175 184 189 175 183 189 175 183 189 175 182 188 178 181 184 77 157 183 77 157 183 77 159 181 79 159 180 81 159 178 84 158 178 86 160 176 88 162 176 90 162 177 92 162 178 93 162 178 94 162 178 97 162 179 99 163 181 101 163 183 102 163 184 105 163 183 110 164 183 115 166 182 119 168 182 123 170 184 129 171 185 133 172 185 138 172 185 142 173 186 145 174 188 147 174 188 148 174 188 148 175 189 149 176 191 150 177 190 151 178 189 153 178 190 155 176 190 157 174 191 159 174 192 160 174 193 162 174 194 165 175 194 167 176 194 170 178 195 172 180 194 174 181 192 176 181 190 177 183 190 176 183 190 175 182 189 174 180 190 174 180 189 177 178 183 74 155 183 75 155 182 76 157 180 77 156 179 80 156 178 83 157 177 86 158 175 88 159 175 90 161 176 92 162 176 94 162 176 95 162 177 97 163 178 99 163 180 102 163 181 105 162 182 107 162 183 110 162 183 114 163 182 119 166 182 124 168 183 128 168 184 134 169 183 139 170 184 142 172 184 145 173 186 147 173 188 150 174 188 150 174 189 150 174 189 152 176 189 153 177 189 155 177 189 156 178 190 158 176 190 160 175 192 161 174 193 162 173 194 165 174 194 168 175 195 171 177 194 174 178 193 175 179 192 176 180 191 177 180 191 177 181 190 175 181 190 175 180 191 175 178 190 175 177 181 71 153 181 72 153 181 74 153 179 76 154 178 79 155 178 82 155 176 85 156 175 87 156 175 89 159 175 92 161 174 95 162 174 97 163 175 98 163 177 101 162 178 103 162 179 105 161 180 108 162 181 112 162 181 115 163 181 119 165 181 124 165 182 129 166 183 134 166 182 139 168 182 143 171 184 145 172 186 149 171 187 151 172 188 151 173 188 152 173 188 153 174 189 154 175 189 156 176 190 158 176 190 160 175 191 162 174 192 163 173 193 164 173 194 166 174 195 169 175 195 172 175 194 175 177 194 176 177 194 177 178 193 177 179 192 177 180 191 176 179 190 176 179 190 175 177 190 176 176 180 69 151 180 70 151 179 71 151 178 74 151 177 78 152 177 81 153 176 85 154 175 87 155 174 89 157 174 92 159 173 95 161 174 97 162 174 99 162 176 102 161 177 103 162 177 105 163 178 108 164 180 111 163 180 116 162 179 121 163 179 125 163 180 130 164 181 134 165 181 139 167 182 144 168 183 148 169 185 150 170 186 152 170 186 153 171 186 154 171 187 155 172 188 157 173 188 158 174 189 162 174 190 164 173 190 164 174 191 164 172 192 165 173 193 166 173 193 168 174 192 171 174 193 174 175 194 175 175 195 176 174 194 176 176 192 177 177 191 176 178 191 176 178 189 176 176 190 177 175 179 68 149 178 69 150 176 71 150 175 74 151 175 76 151 175 80 151 175 83 152 175 85 154 174 88 154 174 91 156 173 95 158 173 96 160 173 98 160 175 101 161 176 103 162 177 105 162 178 107 162 178 110 161 177 116 161 177 121 162 178 126 162 178 131 164 178 136 165 179 141 165 180 145 166 182 149 167 183 152 167 183 153 167 183 155 168 184 158 168 185 158 169 186 158 170 186 160 171 187 163 170 190 166 171 190 166 172 190 166 171 190 166 171 192 167 171 191 170 171 191 172 171 192 173 171 193 174 171 194 174 171 194 176 173 193 176 175 191 177 175 190 177 176 189 177 175 189 178 174 175 67 148 175 70 148 174 73 148 174 75 148 174 76 149 175 80 149 175 83 151 175 85 152 174 88 152 174 90 154 172 93 155 172 96 156 172 98 157 173 100 159 175 102 159 176 105 161 178 107 160 178 111 160 177 116 160 176 122 161 177 128 162 178 134 163 177 138 164 177 142 163 179 146 164 181 149 165 182 153 165 182 154 165 182 156 165 182 159 165 183 159 167 183 160 167 185 162 168 186 164 168 189 167 169 189 168 170 188 169 169 188 169 168 188 169 167 189 170 167 190 172 167 191 173 167 192 173 167 192 173 169 194 175 170 193 177 172 192 178 172 190 178 173 189 178 173 188 180 172 174 68 145 173 71 145 173 74 146 173 76 146 173 77 147 173 80 147 172 83 149 172 85 149 172 87 149 173 90 150 171 92 152 172 95 153 173 98 154 174 101 155 175 102 156 176 104 157 177 106 158 178 110 157 177 115 157 177 120 157 176 127 158 177 133 160 177 138 161 176 142 161 177 146 161 179 149 162 180 152 162 180 154 162 179 157 163 180 159 164 181 161 165 182 162 165 183 164 166 185 166 167 187 168 167 187 169 167 186 172 167 186 171 165 185 171 164 186 171 163 187 171 164 189 171 164 190 172 165 191 172 166 192 175 169 193 177 170 191 178 171 191 178 171 190 179 171 188 181 170 173 70 142 173 74 142 172 76 143 172 77 144 171 79 145 171 83 147 171 84 148 170 85 149 171 87 148 170 90 147 170 92 149 171 94 150 172 97 151 173 99 151 173 101 153 176 103 154 176 106 155 177 111 153 177 115 152 176 119 153 176 126 154 175 133 156 176 138 157 175 142 157 177 146 157 178 149 158 179 151 159 179 154 159 178 157 161 178 160 162 179 161 163 180 164 163 181 166 164 183 168 165 185 169 165 185 171 165 183 173 164 183 172 163 183 172 162 184 171 160 186 170 161 187 170 163 188 171 163 190 172 165 191 175 167 190 178 169 191 178 170 190 179 169 190 180 168 189 182 167 173 72 139 172 74 140 172 77 140 172 80 141 171 82 142 171 84 145 171 85 147 170 86 147 171 88 147 170 91 146 169 92 145 170 94 146 170 96 146 172 99 148 174 102 150 174 104 151 175 106 152 176 110 150 175 114 148 174 119 148 173 125 150 173 132 151 174 138 152 174 142 152 176 146 153 177 150 154 176 151 155 177 154 156 177 158 157 178 160 158 177 161 160 178 165 161 179 167 162 181 169 163 182 171 163 182 172 164 181 173 162 182 173 161 183 172 160 184 171 157 184 171 157 186 172 159 186 172 160 188 173 162 189 175 164 189 177 166 189 178 167 190 178 167 190 180 166 189 183 165 173 72 137 173 74 139 173 78 139 173 81 141 172 83 141 172 83 142 171 84 143 170 86 143 170 88 143 170 90 143 170 92 142 169 94 141 170 97 142 172 99 144 173 101 147 173 104 149 174 106 148 175 109 147 174 114 146 172 118 145 171 124 146 171 131 147 171 137 148 173 142 148 175 146 149 175 150 151 176 152 153 177 154 154 177 158 154 177 161 155 177 163 157 177 166 159 177 168 158 178 170 159 179 172 160 179 172 161 179 172 159 179 171 158 181 171 156 183 171 155 183 172 155 183 172 157 185 173 158 186 175 159 187 176 160 187 177 162 187 178 162 188 178 163 189 179 162 188 182 163 172 73 135 172 74 136 172 78 138 171 82 139 172 83 140 172 85 141 171 85 140 171 87 139 171 88 139 169 90 138 169 92 138 169 94 138 170 96 140 170 99 142 172 101 144 172 104 145 173 108 146 172 112 145 172 115 144 170 120 143 169 126 143 170 131 144 170 136 145 172 142 145 175 147 146 176 150 149 176 152 150 177 154 150 176 157 152 176 161 152 176 163 154 176 166 154 175 169 155 175 170 156 176 172 157 177 172 157 177 173 156 178 172 155 179 171 154 182 172 154 183 173 154 182 175 154 184 175 156 184 176 156 183 177 157 184 178 158 185 178 158 187 178 160 186 180 160 186 182 159 170 74 131 172 77 133 171 80 135 170 82 136 170 84 137 172 86 137 172 87 137 171 88 135 169 89 135 167 90 134 167 92 134 167 95 135 168 97 137 169 100 139 170 102 140 170 105 142 171 110 141 169 115 141 169 118 142 169 123 141 168 128 141 168 133 141 170 137 140 172 142 142 174 147 143 174 150 146 175 152 147 175 154 147 174 158 147 174 162 148 174 164 149 174 166 150 172 169 151 172 172 153 174 173 153 175 174 152 176 174 151 178 174 152 179 174 152 181 174 152 182 175 152 180 176 152 182 177 153 183 177 153 182 178 154 183 179 154 184 180 156 184 180 157 184 181 157 184 183 157 168 75 128 169 78 130 170 81 131 169 83 133 169 85 134 169 87 134 170 88 134 168 90 132 167 91 131 166 92 130 166 92 131 167 94 133 169 98 135 169 101 136 169 104 138 170 107 137 170 111 137 167 116 138 166 120 138 167 124 139 167 128 139 167 132 138 169 138 137 171 142 138 172 147 139 172 149 142 173 151 144 173 155 144 173 159 144 173 163 144 172 166 144 171 168 146 169 170 147 170 172 148 172 173 149 174 175 149 175 176 148 177 176 149 178 176 149 180 177 149 180 177 150 179 178 150 180 179 150 181 180 150 182 181 151 183 181 152 183 182 154 182 182 155 182 185 155 182 186 155 165 77 125 166 79 127 168 82 129 168 84 130 167 86 132 166 88 131 167 90 131 166 91 129 165 91 128 165 93 130 166 94 131 168 95 132 168 100 132 169 103 134 169 106 134 168 111 134 167 114 135 166 117 135 165 121 135 165 125 134 166 129 135 167 132 136 168 139 135 170 143 136 170 147 137 171 149 139 172 152 141 172 155 142 172 160 142 171 164 143 169 166 142 169 168 142 169 170 143 169 172 145 171 174 146 173 176 145 175 178 145 177 179 144 178 179 145 179 179 146 178 179 148 179 181 148 179 181 148 180 182 148 182 182 149 182 182 150 182 183 151 181 184 152 181 186 152 181 187 153 162 80 122 164 82 124 165 84 126 166 86 128 165 87 129 164 89 130 165 91 128 165 91 127 164 92 127 164 94 128 166 95 129 168 97 130 168 101 131 167 106 132 167 110 132 166 113 132 165 116 132 164 118 132 163 122 131 165 127 130 166 130 131 166 133 132 167 138 132 169 144 133 168 147 135 168 150 136 168 153 138 169 157 138 169 160 138 169 163 140 167 167 140 167 168 140 168 171 141 168 172 142 170 174 143 172 176 142 173 179 141 174 181 141 176 182 142 177 182 144 177 181 146 177 182 146 179 183 146 180 183 147 181 183 147 182 184 147 181 185 149 182 185 149 181 186 150 180 188 150 160 83 121 162 85 122 163 86 124 163 88 125 163 90 127 162 91 128 164 93 127 164 93 126 164 94 125 164 96 126 165 98 127 166 100 127 165 104 129 165 109 130 164 113 130 165 116 131 163 118 129 162 121 129 162 124 128 163 128 127 165 130 128 164 134 128 165 139 129 166 145 129 166 148 130 165 151 132 165 155 133 165 159 135 167 161 135 166 164 137 165 167 136 166 169 136 167 171 137 168 174 138 169 175 140 170 176 140 172 179 138 173 182 138 175 183 139 177 184 141 177 184 142 176 184 145 178 184 146 179 184 146 179 185 146 181 186 146 182 185 148 182 186 148 181 188 148 179 188 149 157 86 120 158 87 121 158 88 123 160 90 123 160 92 124 160 93 125 161 94 126 162 96 125 164 97 124 165 99 125 163 101 126 164 103 126 165 108 127 164 112 128 163 116 128 162 119 128 161 121 127 160 124 126 160 126 126 162 129 125 162 133 125 162 137 124 162 141 125 163 145 126 164 148 126 163 151 127 163 156 129 163 160 132 163 162 132 164 165 133 164 168 133 165 170 134 166 172 134 166 174 135 166 176 137 168 177 137 170 179 136 172 181 135 173 184 136 175 186 138 175 186 140 175 186 143 175 187 144 176 186 145 177 185 147 178 185 146 179 185 147 179 186 147 179 187 146 178 188 147 153 89 118 153 90 120 155 91 122 157 92 122 157 94 123 158 95 123 159 97 123 160 99 123 162 101 123 163 102 124 162 105 124 162 107 124 162 110 124 162 115 125 161 118 125 160 122 126 159 124 124 157 127 123 157 129 123 159 132 123 159 136 122 159 140 122 158 143 123 160 146 124 162 149 124 162 152 124 162 157 127 162 161 129 162 163 129 162 166 129 163 170 129 163 172 129 163 173 130 163 175 131 164 177 133 166 178 133 168 180 132 170 182 132 171 184 134 172 187 135 172 187 137 173 188 140 174 188 143 174 187 144 174 186 146 175 185 146 176 185 146 177 186 146 178 187 146 178 189 146 150 91 118 150 91 121 153 93 122 154 93 121 154 96 122 156 98 121 158 100 121 159 101 121 160 104 121 161 107 121 160 109 122 160 111 122 159 114 121 159 117 122 158 120 122 157 124 122 157 127 121 155 130 121 155 133 121 157 134 122 156 137 121 156 141 120 157 145 121 158 148 121 159 149 122 161 153 122 162 157 124 162 162 126 162 165 125 163 168 125 163 171 126 163 173 125 162 176 126 162 177 127 162 179 127 163 180 127 166 181 128 168 183 129 168 186 130 169 188 132 170 188 135 172 188 138 173 188 140 173 187 142 174 187 145 174 186 145 174 185 145 176 186 146 177 187 146 177 189 147 147 93 120 148 93 120 150 94 121 151 96 121 152 98 121 154 101 121 156 103 119 157 105 119 158 108 120 157 111 120 157 114 120 157 117 120 157 118 120 156 120 121 156 122 120 155 125 120 154 127 120 153 130 120 153 133 120 153 135 121 154 139 120 155 142 119 155 146 119 156 149 119 156 151 119 159 154 120 161 159 121 162 162 122 163 166 123 163 169 123 162 171 123 162 174 124 161 176 124 162 178 124 162 180 123 163 182 124 165 184 125 165 185 125 166 186 125 166 187 127 168 187 132 171 187 136 172 187 139 171 185 141 172 185 143 173 184 145 173 184 145 174 186 145 175 186 146 176 188 148 145 94 119 146 95 119 148 97 120 149 99 121 150 101 121 151 104 119 152 106 118 153 109 119 153 113 118 152 115 118 152 117 117 153 120 117 154 121 118 154 122 118 154 124 118 152 126 119 152 128 120 151 131 120 151 135 120 151 137 120 151 140 118 152 144 117 153 147 118 154 149 118 155 153 116 157 157 117 159 160 119 161 164 120 162 167 121 162 171 120 161 172 121 162 175 121 163 176 121 164 179 121 163 182 122 162 184 122 163 186 123 163 186 122 164 186 121 165 186 124 167 187 128 168 186 132 169 185 136 169 185 139 170 184 142 171 183 143 171 183 144 171 184 145 173 185 146 174 185 148 143 96 118 145 96 118 146 99 120 146 102 120 147 104 119 148 106 117 148 109 117 148 113 117 148 115 116 148 118 116 148 121 115 149 121 114 149 123 114 151 125 115 151 127 115 149 128 117 149 129 118 149 132 119 150 135 119 150 137 117 151 141 116 151 145 115 151 148 115 152 150 115 154 154 115 154 158 115 156 161 116 158 165 117 160 168 117 160 171 118 161 173 119 162 175 119 162 177 119 162 180 118 161 181 119 161 183 120 162 185 120 162 186 119 164 185 119 165 186 121 165 185 126 166 185 130 167 184 134 167 183 137 167 183 140 168 181 142 168 182 143 169 182 144 170 183 146 171 183 148 141 99 116 142 99 117 142 102 117 142 104 117 144 107 116 145 109 115 146 112 114 146 115 114 145 118 114 145 120 114 146 123 114 145 123 113 145 124 112 146 127 112 147 129 112 147 130 114 147 131 116 148 134 117 148 136 117 148 139 115 148 142 114 149 146 113 149 150 113 151 152 113 152 155 112 152 159 113 154 162 114 155 164 114 156 167 113 157 171 114 159 173 115 159 175 116 161 178 117 160 180 116 160 181 117 160 183 118 161 185 117 162 186 117 163 186 117 164 186 119 163 183 123 164 182 127 165 183 131 165 182 134 165 182 137 165 181 140 165 180 142 167 181 145 167 181 146 168 183 147 138 100 113 139 101 114 140 105 114 141 107 114 142 109 113 143 112 112 144 114 111 144 118 110 143 120 111 142 122 110 141 124 111 142 125 110 142 126 110 143 129 109 144 131 109 144 133 111 144 134 113 145 136 114 145 138 114 146 142 114 146 144 112 147 148 111 147 151 111 149 154 111 149 156 111 149 159 110 150 162 111 152 163 112 153 167 111 154 170 111 155 172 112 156 174 114 157 177 115 158 179 115 157 181 115 157 183 116 157 184 116 158 186 115 160 186 115 161 184 116 161 181 120 161 180 125 162 182 129 162 182 133 162 181 136 163 179 139 164 178 141 165 179 143 165 180 144 166 182 145 136 103 110 137 105 111 138 108 110 140 109 110 141 111 108 142 114 108 143 117 108 142 119 108 141 122 108 140 124 107 139 126 106 139 128 107 139 129 106 139 133 105 140 136 106 141 137 108 142 138 111 142 139 112 142 141 111 143 142 110 144 145 110 145 149 110 147 151 110 148 154 110 149 156 109 148 158 108 147 161 108 149 163 109 150 167 109 151 169 110 151 172 111 153 174 113 154 177 114 155 178 113 153 181 112 152 182 114 153 183 114 154 185 114 156 183 114 157 182 115 157 179 118 157 179 122 158 180 127 159 180 132 159 179 134 161 178 137 162 176 139 163 178 142 163 179 143 164 181 145 134 105 107 137 107 108 138 109 107 139 111 107 140 113 106 141 116 106 140 119 106 139 121 106 139 124 105 137 126 105 137 129 104 136 131 103 135 133 103 136 137 103 137 139 104 138 140 107 139 141 109 139 142 110 140 143 110 140 143 109 141 146 109 142 149 109 145 152 108 147 155 108 147 157 107 147 159 106 146 162 105 145 164 106 146 166 107 146 169 109 148 171 111 150 172 112 151 176 112 152 179 111 150 180 110 148 181 110 148 183 112 150 183 113 151 181 113 152 179 115 152 178 117 153 176 121 154 177 126 155 178 130 156 177 134 157 176 136 158 176 139 160 177 142 161 179 144 162 181 146 133 107 103 136 108 104 136 111 104 137 113 105 137 115 105 137 119 105 136 122 105 136 124 105 136 126 103 134 128 102 132 131 101 131 134 100 132 135 100 132 139 102 134 141 103 135 142 106 137 142 109 137 144 109 139 146 109 139 146 108 141 148 107 141 150 107 142 153 105 143 155 105 143 159 105 143 161 104 143 163 105 142 164 107 141 166 108 142 169 110 144 171 111 147 173 111 149 175 111 148 177 110 147 179 109 146 180 110 145 182 111 146 181 113 147 179 114 148 178 116 148 175 117 149 174 120 151 174 125 153 175 130 154 175 133 154 174 136 155 176 138 157 177 142 159 177 145 158 179 146 131 109 100 132 110 101 133 113 102 135 115 104 135 118 104 134 121 104 134 124 104 134 127 104 133 129 102 131 131 99 129 134 98 129 136 97 129 138 98 130 141 100 131 142 102 131 142 105 133 143 107 135 145 107 136 147 107 138 148 106 139 150 106 140 151 106 141 154 105 140 157 105 139 160 105 139 163 104 138 164 105 138 166 106 138 167 107 140 169 109 142 170 110 144 173 109 145 175 108 146 176 109 145 177 108 144 177 109 143 179 110 143 179 111 144 177 113 145 175 115 145 173 116 146 172 119 149 172 124 150 174 129 150 174 132 152 173 135 152 174 139 154 175 142 154 176 145 155 178 148 128 112 97 128 113 98 129 115 99 132 117 101 132 119 102 132 122 102 132 126 102 131 128 102 130 131 101 128 134 98 126 136 97 126 138 96 126 141 97 129 143 99 129 144 99 128 144 102 129 146 104 131 147 105 133 149 105 135 151 105 136 153 105 137 156 106 137 157 104 137 159 104 135 161 105 135 164 105 134 166 105 134 167 105 135 169 107 137 170 108 139 171 109 140 173 109 142 175 107 141 176 106 141 176 106 142 176 107 141 176 109 141 175 110 141 174 112 140 173 114 142 171 118 143 171 121 146 172 124 147 173 128 147 173 132 147 172 135 148 173 140 149 174 144 150 175 147 151 177 149 125 116 93 125 117 94 127 118 97 129 120 98 131 121 99 130 123 101 129 127 101 129 130 100 128 132 98 127 135 97 125 137 95 124 140 95 125 142 96 126 145 97 126 146 99 125 147 100 126 148 102 128 149 104 130 151 104 131 153 104 133 156 104 134 158 104 134 159 103 134 160 105 132 162 105 131 164 105 130 166 106 131 167 106 133 169 108 135 172 108 136 172 108 138 174 107 137 175 107 137 175 105 138 176 105 138 175 107 139 173 108 139 172 109 138 173 111 137 172 113 138 170 117 139 170 122 142 171 125 144 171 127 144 171 131 144 172 135 144 172 139 144 173 144 146 175 147 147 177 149 122 118 91 123 120 92 125 121 93 127 123 95 129 124 97 128 126 98 128 128 98 127 131 97 125 134 95 124 137 94 123 138 94 122 141 94 122 143 94 124 146 96 125 148 97 124 150 98 124 151 99 125 151 100 127 152 102 129 154 102 130 157 102 132 159 102 131 161 103 131 162 105 129 163 106 128 164 106 130 165 107 131 167 107 132 169 107 132 171 107 134 172 105 134 173 106 134 174 107 135 175 105 135 173 105 135 172 107 134 172 107 135 171 108 136 171 110 135 170 113 136 169 117 137 169 120 139 169 124 141 169 128 142 169 130 142 169 134 143 171 139 142 173 144 142 174 148 143 177 149 122 121 89 123 123 88 124 124 90 125 125 92 127 127 94 126 127 93 125 129 94 124 131 94 123 134 93 123 137 92 122 139 92 122 141 92 122 143 92 122 146 93 123 149 93 123 151 94 121 152 95 122 152 98 124 153 99 126 154 100 128 157 101 129 160 101 130 162 103 128 164 104 127 164 104 127 165 106 128 166 107 129 169 106 130 169 106 131 170 106 132 171 104 132 171 104 132 173 105 132 172 105 132 170 105 131 170 106 130 170 107 131 170 109 132 170 110 132 170 113 133 169 115 135 168 119 136 168 123 138 167 127 138 167 130 138 169 134 140 171 139 140 172 143 140 174 146 141 175 148 121 122 87 122 124 86 123 126 87 124 127 89 125 128 90 124 128 89 122 130 89 122 131 91 122 133 91 122 136 90 121 138 90 121 140 89 122 142 89 121 144 89 120 149 90 119 151 91 119 152 93 121 152 95 122 153 97 124 155 98 125 157 99 127 160 100 128 163 101 127 165 103 126 165 104 125 166 105 126 168 106 127 169 105 127 170 104 129 170 104 130 170 104 130 170 103 131 171 104 129 171 104 129 169 105 128 168 106 127 169 107 128 169 109 128 169 111 129 170 113 129 169 115 130 168 119 132 168 122 133 167 126 135 167 129 135 169 134 137 170 139 136 172 143 136 174 145 137 176 146 119 124 85 121 124 84 122 126 85 121 128 85 123 129 86 123 129 86 122 131 86 121 133 86 121 134 87 121 136 87 121 139 87 120 139 87 119 141 86 119 143 86 118 147 86 116 150 88 118 151 90 120 152 92 121 154 94 123 157 96 123 159 98 124 160 100 125 162 101 126 165 102 125 166 103 124 169 104 125 169 104 126 170 104 126 170 103 127 169 103 128 169 103 128 170 102 128 170 103 127 170 104 126 168 105 126 167 106 125 168 107 125 169 109 124 169 112 125 170 114 126 171 116 126 168 120 127 168 124 129 167 126 132 167 129 132 168 134 133 170 138 133 172 142 134 174 143 134 177 144 116 124 84 118 125 82 119 126 81 119 127 81 120 130 83 121 132 83 120 133 83 119 135 85 120 135 85 121 137 85 120 138 84 118 139 83 117 141 82 117 143 82 116 146 83 116 149 85 117 152 88 118 153 90 120 155 92 122 156 94 122 158 96 123 160 99 123 162 100 123 164 101 123 166 102 123 169 102 124 170 102 124 171 102 124 170 101 124 169 101 125 169 102 125 169 101 126 169 101 124 169 103 123 168 104 123 167 106 123 168 107 122 168 109 122 169 113 123 170 114 124 171 117 124 170 121 124 168 125 127 168 128 129 168 131 129 169 134 129 171 137 129 172 141 129 174 141 130 177 142 113 125 82 115 125 79 116 125 78 117 126 77 117 129 79 118 132 80 119 134 80 118 135 82 120 137 83 120 138 83 119 140 82 117 140 81 116 141 80 116 144 78 115 146 80 116 149 81 117 151 84 118 153 87 121 155 90 122 156 93 121 159 95 122 161 96 121 163 97 121 163 98 121 165 99 121 169 100 121 170 99 122 169 99 122 168 98 122 168 99 122 168 100 122 168 101 122 168 100 121 167 101 121 166 103 121 166 105 122 166 107 121 168 109 120 169 112 121 170 114 121 171 116 122 171 121 122 169 125 124 168 128 126 169 131 125 171 134 125 173 135 126 175 137 125 177 137 126 179 139 111 126 80 113 125 77 113 125 76 115 126 76 117 128 76 118 132 77 118 135 77 118 137 79 118 137 80 118 139 81 117 141 79 115 141 79 116 142 78 115 144 77 115 146 77 116 149 78 119 152 81 120 155 84 120 156 87 121 157 91 121 158 94 121 161 95 121 163 96 119 164 96 119 165 97 120 168 97 120 169 96 120 168 97 120 167 96 120 167 97 121 166 98 120 166 99 120 167 99 120 166 102 120 165 103 120 165 105 121 166 106 120 167 109 119 170 111 119 171 113 119 172 116 119 172 120 120 170 124 121 169 127 122 169 129 123 172 131 123 174 133 123 176 133 124 179 135 124 180 136 