P3
50 50
255
162 92 142 164 90 142 167 90 142 169 88 142 173 88 142 176 88 142 177 87 144 178 88 146 178 88 150 180 89 153 183 90 153 186 91 154 187 92 155 188 91 155 188 90 155 190 89 154 192 89 154 193 89 154 193 92 154 192 94 153 191 97 151 190 101 151 190 104 151 191 106 151 191 109 150 192 113 150 192 115 151 193 117 151 191 119 150 192 122 149 192 124 148 192 124 146 189 125 146 185 126 145 183 128 144 179 128 143 177 129 144 177 129 145 176 128 145 174 128 144 172 129 144 173 130 143 172 132 142 171 134 140 170 135 141 170 137 141 172 138 140 172 140 139 172 143 139 173 144 138 162 91 142 163 89 141 166 89 141 169 88 140 172 87 141 176 87 141 178 87 142 178 87 145 180 87 148 181 88 150 184 91 152 188 90 153 189 90 154 189 90 154 190 90 154 192 89 154 194 88 155 195 89 156 195 91 155 195 93 153 193 96 153 191 99 152 191 103 151 191 105 150 192 109 150 192 113 150 192 115 150 192 117 149 191 120 149 192 122 148 193 125 147 193 125 146 189 125 145 186 127 145 183 128 144 178 128 145 176 128 145 175 129 145 174 128 145 173 128 144 171 129 143 172 130 143 170 132 143 170 133 142 168 135 141 169 136 141 170 139 139 171 141 138 172 143 138 172 145 137 162 89 140 163 89 138 165 88 138 169 88 138 173 86 140 176 85 142 179 86 143 180 86 146 182 86 147 185 87 149 187 89 151 190 89 153 191 89 153 192 88 153 192 88 153 194 87 154 195 88 155 196 89 155 196 91 154 195 93 154 195 96 153 194 98 151 192 101 151 191 104 150 191 108 150 192 113 149 192 115 149 192 117 148 191 119 149 191 122 149 192 124 147 191 126 146 189 126 146 185 127 146 182 127 145 178 128 146 175 129 146 175 129 145 173 128 145 173 129 144 172 130 144 171 131 143 170 132 143 169 134 143 168 135 142 168 136 140 169 139 138 170 141 137 170 143 137 170 144 136 161 89 139 162 88 138 165 87 137 168 86 138 174 85 140 177 83 142 179 84 144 180 84 146 183 85 148 187 86 149 189 87 150 191 88 151 193 87 153 194 87 153 193 88 153 194 87 154 196 87 154 196 89 154 196 91 153 196 93 153 196 96 153 194 99 151 192 102 150 191 105 150 191 108 150 192 112 148 193 116 148 192 117 148 191 119 150 190 122 149 190 125 149 190 127 147 189 128 146 185 127 146 181 127 145 178 128 145 176 130 146 175 130 145 173 129 145 173 129 145 172 130 144 172 132 143 170 133 143 169 135 142 168 137 141 167 137 140 168 139 139 169 141 138 169 142 137 169 144 135 161 88 138 163 87 138 165 86 137 169 85 137 174 83 140 177 83 142 179 83 145 181 83 146 184 83 149 187 83 151 189 84 151 191 84 152 193 83 153 194 84 153 194 85 153 195 86 153 197 87 153 196 88 153 196 90 152 197 92 152 196 94 151 192 96 151 191 101 151 191 106 149 191 109 148 192 111 147 192 115 147 192 117 148 191 119 149 190 123 149 189 126 147 188 128 146 187 128 144 183 127 145 180 127 144 178 129 144 176 130 143 175 130 143 173 129 144 172 130 145 172 131 144 172 133 143 171 135 142 169 135 142 168 136 142 168 137 142 169 140 141 169 142 140 169 144 139 170 145 138 162 87 137 163 87 137 165 87 137 169 85 137 173 83 139 176 84 142 178 83 144 181 84 146 185 84 149 186 83 151 189 81 150 192 81 152 193 81 152 195 82 153 196 83 153 197 83 153 196 85 153 196 85 153 196 87 152 196 89 152 194 91 151 191 93 150 190 99 150 190 104 148 190 109 147 190 112 146 190 114 147 191 116 147 190 119 146 190 123 145 189 127 143 186 128 143 184 128 142 182 127 143 179 129 142 177 129 142 176 131 141 174 130 141 174 130 142 173 131 142 172 132 143 171 135 143 170 137 143 170 138 142 169 137 142 169 139 143 168 141 141 169 144 141 169 146 140 170 146 138 163 87 137 164 86 137 166 86 137 169 85 137 173 85 138 176 84 140 178 84 143 180 84 146 183 83 148 186 82 149 189 80 150 192 81 152 193 81 153 195 82 152 195 82 152 196 82 152 196 83 152 196 82 152 196 84 151 195 85 150 193 89 150 191 92 149 191 98 148 189 102 148 189 107 146 190 111 146 191 115 146 191 117 144 190 119 144 188 123 144 187 126 142 185 127 141 183 129 139 181 130 140 179 130 140 176 130 140 174 131 140 173 132 140 173 132 140 172 133 140 171 134 142 169 137 144 169 138 143 169 140 143 169 140 142 168 142 142 168 144 141 168 147 141 168 149 140 168 148 139 163 88 137 164 87 136 166 85 136 170 85 137 172 85 137 175 85 139 177 84 142 180 84 144 183 83 147 186 81 148 188 80 149 190 81 151 192 81 152 193 82 152 193 83 151 194 82 150 195 82 150 196 82 150 195 82 150 194 84 149 193 87 149 192 91 148 191 96 147 189 100 147 189 105 145 190 110 145 191 114 144 191 116 142 190 119 141 187 123 140 186 126 140 184 128 138 183 129 138 181 131 139 180 130 139 177 130 139 174 132 138 173 132 138 172 133 138 171 135 138 170 138 140 169 139 141 168 140 143 168 142 143 167 144 141 167 145 140 167 147 139 168 150 139 167 151 139 167 151 138 161 88 135 164 86 136 167 85 136 170 85 136 172 85 137 174 84 137 177 83 140 180 81 143 183 81 145 185 82 146 187 82 147 189 82 148 191 82 150 192 81 149 193 83 148 193 82 148 194 82 147 196 81 147 196 81 147 194 82 147 194 86 147 192 89 147 190 94 146 190 99 145 189 103 143 190 108 143 190 113 142 190 116 141 189 120 139 186 123 138 184 125 137 183 128 137 182 130 138 181 131 139 179 131 138 177 132 136 175 133 135 173 132 135 172 133 135 171 136 135 169 138 136 168 141 138 168 143 140 167 144 141 167 146 139 168 148 138 168 151 138 168 153 137 167 154 138 168 152 137 161 87 134 164 86 134 167 86 135 169 85 135 172 85 136 174 84 138 176 83 139 180 81 141 183 80 143 185 81 143 188 82 145 190 82 146 190 82 147 191 83 146 192 83 145 193 82 145 194 82 145 196 81 145 196 80 146 194 82 145 194 85 145 192 89 145 190 93 144 189 98 143 188 102 142 189 108 141 190 113 140 189 116 139 187 120 137 185 123 136 184 125 136 182 128 137 180 130 138 180 130 138 178 131 135 176 132 134 174 134 132 173 134 131 172 135 132 170 137 132 169 139 134 168 142 135 167 145 137 168 147 138 168 148 137 168 150 137 169 153 136 168 154 136 168 155 137 168 153 137 161 86 133 162 85 135 166 85 135 169 85 135 172 84 137 173 83 137 176 82 138 179 81 139 181 81 140 184 81 141 187 81 143 189 82 142 190 82 143 192 83 143 192 83 143 193 82 142 195 82 143 196 82 144 196 81 143 194 81 143 193 85 142 192 88 142 190 93 142 189 98 140 188 102 140 189 107 140 189 112 140 188 116 138 186 121 135 185 121 135 183 124 135 181 128 135 179 130 136 178 131 135 176 132 133 174 133 132 174 134 130 172 136 129 172 137 130 171 139 129 169 140 130 168 142 132 169 146 135 168 148 135 169 149 135 168 151 136 168 153 136 168 155 135 169 156 137 169 156 137 161 83 133 163 83 134 166 83 135 169 83 135 171 84 136 173 83 136 175 83 136 178 81 137 181 80 138 183 80 139 185 80 139 188 81 139 189 82 139 191 82 140 191 82 140 192 82 139 195 81 140 195 81 141 195 82 140 193 83 139 191 85 140 192 89 139 190 94 139 190 98 139 190 101 139 189 106 139 189 110 138 189 115 137 186 119 135 185 121 134 183 125 134 180 128 133 179 130 133 178 132 133 176 131 131 174 133 129 174 134 127 172 137 127 171 139 127 171 140 127 170 141 127 169 143 128 169 146 131 169 149 131 170 151 132 169 152 134 168 154 135 170 156 136 169 158 136 169 158 137 161 80 135 163 80 135 167 81 136 169 81 135 171 82 135 172 82 135 174 83 134 178 82 134 180 81 135 182 80 135 185 80 136 187 82 136 189 82 135 189 81 135 191 82 135 191 81 135 193 81 136 194 81 137 194 81 136 192 83 135 192 84 136 192 89 136 192 93 137 191 97 137 191 101 137 191 105 138 190 109 137 190 112 136 187 117 134 185 121 132 183 123 132 179 127 132 179 130 132 178 131 131 177 132 129 175 134 128 174 137 126 173 139 125 171 140 125 170 141 126 171 142 126 170 145 127 171 147 128 170 149 128 171 152 130 169 154 133 169 155 135 170 157 136 169 159 136 169 160 136 162 79 135 165 79 135 169 79 134 170 78 134 171 79 134 172 81 133 174 82 133 177 81 133 180 82 133 182 81 132 186 80 133 188 81 133 189 83 133 190 82 133 191 81 132 192 81 132 192 81 133 192 80 134 192 80 134 192 81 133 193 83 132 193 88 132 194 93 134 193 97 135 192 101 135 192 105 135 191 109 135 190 112 135 189 116 133 186 120 132 183 124 132 181 127 131 179 129 130 177 130 129 176 132 128 175 135 127 174 138 126 173 139 124 172 139 124 170 141 125 171 142 125 170 145 127 171 147 127 171 150 127 169 151 129 168 153 131 168 156 135 169 158 136 169 159 136 169 162 136 164 78 133 166 78 133 169 77 133 170 77 133 172 79 132 174 81 132 176 81 132 179 81 131 181 82 131 184 82 130 186 81 131 188 82 131 190 83 130 190 83 130 191 82 130 192 82 130 192 80 130 191 81 131 192 80 131 193 81 131 194 83 130 195 87 130 196 91 133 194 96 133 193 100 133 193 104 132 192 109 133 191 113 133 190 117 132 188 120 131 185 125 131 181 127 130 179 129 129 177 131 128 177 133 127 176 136 126 174 138 125 174 139 124 172 140 124 171 141 124 170 141 125 169 144 126 171 147 126 170 150 127 168 152 129 167 154 131 167 157 134 169 158 135 170 160 135 170 162 136 165 76 131 167 77 131 170 77 131 172 78 131 174 79 131 176 81 130 179 82 131 181 81 130 182 81 130 183 80 130 186 80 130 188 81 129 189 83 127 190 83 126 190 82 127 191 81 128 191 81 128 191 81 128 193 81 128 194 82 128 195 84 128 196 87 128 196 90 130 194 95 130 193 100 131 193 104 131 192 109 130 192 113 130 191 117 130 189 121 129 186 124 129 182 126 129 180 130 128 178 132 126 178 133 125 177 136 124 175 138 125 173 139 125 173 140 124 171 141 126 170 142 126 170 145 126 169 148 127 169 151 127 168 153 129 167 156 131 167 159 134 168 160 135 170 162 135 170 162 136 167 76 128 170 76 130 173 77 130 174 79 130 177 80 130 178 81 128 180 82 128 181 82 127 183 81 128 183 79 127 184 78 127 186 79 127 187 82 125 188 83 124 189 83 125 190 82 126 191 82 126 191 82 127 193 82 126 193 83 125 195 84 125 195 87 126 195 90 127 194 94 126 193 99 128 191 104 129 192 109 127 191 114 128 190 118 128 188 121 127 186 123 128 184 126 128 182 130 127 180 132 124 179 134 122 177 135 122 175 138 124 173 141 125 172 141 125 170 142 127 170 144 127 170 147 126 170 150 128 168 153 128 167 156 130 166 158 132 166 161 133 168 163 134 170 164 133 170 164 135 169 75 125 171 76 127 174 77 127 175 79 128 177 81 128 179 82 126 180 82 124 182 82 124 183 81 124 184 79 123 185 78 122 185 78 123 186 80 124 186 82 123 188 83 122 191 83 123 191 82 124 192 82 125 193 83 124 194 84 124 193 85 123 194 88 124 194 91 125 193 95 124 192 99 125 190 104 125 191 109 124 191 114 124 189 118 125 188 120 125 187 124 124 185 126 125 183 129 125 181 132 122 179 135 121 177 137 120 176 139 122 174 142 123 171 142 125 170 144 126 170 146 127 170 150 127 170 152 128 169 154 129 167 158 129 166 159 131 166 162 133 168 164 132 170 165 133 171 164 135 171 76 123 173 77 123 174 79 123 175 80 124 176 81 125 178 82 123 179 82 122 181 81 120 183 80 120 184 79 119 185 79 119 185 78 120 185 78 120 186 79 120 188 81 120 191 83 120 191 82 122 193 83 122 194 84 121 193 85 121 193 86 121 193 90 122 193 93 121 192 95 121 192 100 122 190 104 121 191 109 121 191 114 121 189 118 121 187 122 122 186 125 123 184 128 123 183 130 121 180 133 120 178 135 119 177 138 119 175 140 121 173 143 123 171 144 125 170 147 126 170 149 127 170 150 129 169 152 130 169 155 130 168 158 131 167 161 131 167 164 132 169 165 131 170 166 132 170 165 134 173 78 120 174 80 119 174 82 119 175 82 119 177 82 120 178 82 120 180 81 119 182 80 118 183 80 117 184 79 116 185 79 117 184 78 117 184 78 116 186 79 117 188 80 118 190 82 118 191 84 119 192 85 118 193 86 118 193 87 118 192 89 118 192 91 118 191 93 118 191 96 119 191 101 119 190 105 119 190 110 119 190 115 118 187 119 117 185 123 119 183 127 119 183 129 118 182 131 119 179 133 119 176 135 118 175 138 118 173 142 119 172 145 122 172 148 125 171 150 126 170 150 127 169 152 129 168 155 129 168 158 130 168 161 130 167 162 131 169 164 133 169 166 132 170 167 133 170 167 133 173 79 116 174 81 116 175 82 115 175 82 115 177 82 115 179 82 115 180 82 116 181 82 116 182 81 115 184 80 114 184 79 114 184 79 114 185 80 113 186 81 114 187 81 115 189 83 116 191 85 116 192 87 115 193 89 114 193 91 115 192 92 115 191 93 115 190 95 116 189 97 116 189 101 116 189 107 116 188 112 115 189 116 115 187 120 114 184 124 115 183 128 115 181 130 115 180 132 117 177 135 117 175 137 117 174 140 117 173 144 118 171 147 121 171 150 124 171 153 126 169 153 128 168 154 127 167 156 128 167 160 129 167 161 129 167 163 131 169 165 133 169 165 133 169 167 133 169 168 133 174 79 114 175 81 114 175 81 113 176 82 113 178 82 113 180 82 113 181 81 113 181 81 114 182 80 114 183 79 113 183 79 112 185 79 111 186 80 111 186 81 113 186 83 113 189 84 113 190 87 114 192 89 112 191 90 111 191 92 112 191 94 113 189 96 113 188 96 113 188 98 114 188 101 114 187 107 113 187 111 113 188 116 111 186 121 112 184 125 112 181 127 113 180 131 112 178 133 115 176 135 115 174 139 115 173 142 115 172 145 116 171 148 119 170 152 123 169 154 125 168 156 126 167 157 127 166 159 128 165 161 129 165 162 129 166 164 132 168 165 133 169 166 134 169 167 135 169 168 135 173 79 113 175 80 112 175 81 111 176 81 111 179 81 111 180 80 111 181 80 111 182 81 111 182 80 111 185 80 112 185 79 111 186 80 109 186 81 109 187 82 111 186 84 111 188 85 111 190 86 112 191 89 111 190 91 110 191 92 109 190 95 110 189 96 111 188 96 112 186 99 113 186 102 113 185 107 111 185 111 110 185 116 110 184 121 110 183 125 110 181 128 111 179 132 112 178 134 114 175 138 115 173 141 114 172 144 113 172 147 114 171 150 117 170 153 120 169 156 122 167 158 125 167 159 127 165 160 128 164 162 129 164 164 129 165 166 131 167 167 132 167 167 134 168 168 136 169 169 136 171 80 112 174 81 111 176 82 109 177 81 109 178 81 108 180 80 109 181 78 109 181 80 109 182 79 109 185 79 110 187 79 110 188 80 108 188 81 108 187 83 109 187 85 109 188 86 110 190 86 110 190 89 110 190 91 109 190 92 109 189 95 109 188 97 110 187 99 111 186 103 113 184 104 112 183 108 110 184 113 109 184 117 109 182 122 109 182 125 110 181 129 111 179 132 112 177 136 112 174 139 114 173 143 113 171 146 113 171 149 114 169 152 116 169 156 119 167 160 121 166 161 124 165 161 127 165 162 128 164 163 128 164 165 129 164 167 131 165 168 132 166 170 134 167 171 136 167 172 136 170 80 111 173 82 109 176 82 108 177 82 107 179 82 107 180 81 107 181 79 106 181 79 107 183 78 106 185 78 107 187 79 108 189 79 107 189 81 107 189 82 107 188 84 108 189 85 108 190 85 108 190 88 108 189 90 108 189 92 109 189 95 109 187 98 110 186 102 112 184 105 112 182 107 112 180 110 110 182 115 108 183 120 108 182 124 109 181 126 110 180 131 111 178 133 112 176 136 113 173 141 114 171 145 113 170 149 113 169 153 114 168 156 115 168 159 117 166 162 120 165 164 123 165 164 125 165 164 126 164 165 127 164 166 129 163 168 131 164 170 132 166 173 133 167 174 135 168 175 137 170 80 109 173 81 108 175 83 106 178 83 106 179 82 106 180 81 105 179 80 105 180 79 104 183 77 104 185 78 105 187 79 105 188 79 105 189 80 106 189 83 107 189 84 106 189 85 107 189 86 107 188 88 107 187 90 107 186 92 109 187 95 110 185 99 110 183 104 111 182 107 112 181 110 111 179 113 108 180 116 108 182 120 107 182 123 109 181 127 110 179 131 111 179 134 112 177 137 113 174 142 113 171 146 113 169 151 113 167 155 114 167 158 115 166 163 117 165 165 119 165 166 122 165 165 123 164 164 124 165 166 126 165 168 128 164 170 129 164 172 131 165 175 133 168 176 134 168 177 136 169 81 107 171 82 105 175 83 105 176 83 106 178 82 107 180 81 106 180 81 104 181 80 104 182 79 104 185 78 104 187 78 104 188 80 105 189 82 106 189 84 106 189 85 106 187 85 106 187 86 105 188 89 106 186 91 107 185 93 109 185 96 110 183 99 111 182 103 112 181 108 111 179 112 110 179 114 109 180 118 108 181 121 108 182 124 108 181 127 108 180 131 110 178 135 112 177 138 112 175 142 113 171 146 113 168 152 112 166 157 113 165 160 115 165 163 116 163 165 118 164 167 120 164 166 122 165 166 123 165 168 125 165 169 126 165 171 128 165 173 130 165 176 132 167 177 134 169 178 137 167 82 107 170 82 106 173 82 105 175 81 105 178 82 107 180 82 106 181 82 105 182 82 105 183 80 104 185 79 104 186 79 103 188 81 104 189 84 106 189 85 107 188 85 108 187 85 107 186 87 105 185 89 106 185 91 108 183 94 109 183 96 110 182 99 111 182 103 111 180 108 110 179 112 110 178 115 110 179 119 110 181 122 109 181 125 108 180 127 109 179 131 109 178 135 111 176 139 111 174 143 112 172 147 112 169 153 112 166 159 112 164 161 114 162 164 116 162 166 117 164 168 119 165 168 121 166 169 122 165 170 124 165 172 126 164 173 129 165 174 131 166 176 132 168 177 135 171 177 137 167 82 105 168 82 105 171 81 104 175 80 105 177 80 107 179 82 106 181 83 106 182 83 104 183 82 104 185 80 103 185 81 104 187 83 104 188 85 106 188 85 108 187 86 109 186 86 108 183 87 107 183 89 106 183 91 107 181 95 108 180 97 109 181 100 110 179 104 111 178 108 110 178 112 111 178 115 111 179 118 111 179 123 110 179 126 109 180 128 109 179 132 110 177 135 110 174 139 111 172 143 112 171 148 112 170 154 113 167 159 113 164 163 114 163 166 115 163 168 117 164 169 118 165 171 120 166 171 122 165 172 124 163 173 125 163 174 128 166 175 131 167 175 134 169 176 136 171 177 139 166 83 104 167 83 105 170 80 106 174 80 107 175 80 106 178 82 106 180 83 105 182 84 104 182 83 104 183 82 104 185 82 105 185 84 105 185 85 107 184 86 109 185 87 110 183 88 109 181 89 107 181 91 107 181 93 106 178 95 108 178 98 110 178 102 111 178 105 112 178 108 111 178 112 111 178 115 111 179 119 111 179 124 111 178 127 111 179 129 110 178 133 111 176 136 111 173 139 110 171 144 110 170 149 111 170 155 112 169 158 112 166 163 114 163 167 116 163 168 118 164 170 119 164 172 122 165 172 123 166 173 124 164 175 126 165 176 128 165 175 132 166 175 135 169 176 138 171 178 141 164 84 104 166 84 106 170 81 107 173 79 107 174 80 107 177 81 106 179 83 106 180 83 105 181 84 104 182 83 105 183 85 106 183 85 107 182 86 109 181 86 109 181 88 110 181 90 108 179 92 107 179 94 108 178 94 107 177 96 108 177 99 110 176 103 112 177 105 112 177 107 112 177 111 110 176 116 111 176 120 111 177 124 112 178 127 111 177 131 112 177 135 113 175 137 112 172 141 110 170 145 111 170 151 112 170 156 111 170 159 112 169 163 113 166 168 116 165 169 118 164 171 120 165 173 123 166 173 125 166 174 125 166 175 126 165 176 130 165 175 134 166 175 136 169 176 140 171 178 143 163 84 105 165 84 106 169 82 107 172 80 107 174 80 107 175 81 107 177 83 106 178 83 105 179 83 105 181 85 106 182 86 106 180 87 107 179 88 109 179 88 109 178 89 108 177 91 107 177 93 108 176 96 108 175 96 108 175 98 108 176 100 111 176 103 112 175 104 112 175 107 111 175 111 110 174 115 112 174 120 112 176 123 112 177 127 112 177 131 113 175 135 113 173 138 112 171 142 111 170 147 111 170 153 113 171 157 112 171 160 113 170 164 115 167 166 115 166 169 119 166 170 122 165 172 125 165 174 126 166 174 127 167 175 128 166 175 131 167 175 135 167 175 137 168 177 141 171 178 144 160 83 107 164 83 107 167 83 107 171 82 108 172 81 108 173 81 108 174 83 106 176 84 106 177 84 106 177 85 107 178 87 106 178 88 107 178 89 108 176 90 109 176 91 108 174 91 108 174 94 109 175 96 109 173 98 109 174 101 109 175 102 111 174 104 112 174 105 112 174 109 112 173 113 111 173 116 112 173 120 113 174 124 112 174 126 113 174 131 114 173 134 114 172 138 114 171 143 112 170 148 112 170 153 113 170 157 114 170 161 115 170 164 116 169 166 117 167 169 119 167 170 121 166 171 124 166 173 128 167 174 129 167 174 130 166 175 133 166 176 135 167 176 139 168 177 143 170 178 144 157 82 107 160 83 107 163 83 107 168 83 108 170 82 109 170 82 108 172 84 108 173 84 107 174 85 108 174 86 108 175 88 109 175 90 108 176 90 109 174 91 110 174 92 110 173 93 110 173 95 110 173 97 111 173 99 111 174 102 111 174 104 111 173 106 112 174 107 112 173 111 111 173 115 111 173 118 112 173 121 113 172 124 113 172 128 115 173 131 116 173 134 115 172 138 115 172 144 114 171 149 115 171 154 115 170 159 117 169 162 117 169 165 117 168 167 117 168 168 118 167 170 121 167 170 124 167 172 127 167 173 130 167 172 132 167 174 134 166 175 138 167 176 140 169 177 143 170 179 144 154 82 107 158 83 107 161 84 107 165 84 108 167 83 109 169 84 109 170 85 109 170 85 109 171 86 110 173 88 110 173 90 110 174 92 109 174 92 111 172 93 110 172 94 110 172 96 111 172 97 112 172 99 113 172 102 113 174 104 112 174 107 112 173 108 113 174 110 112 172 113 112 172 117 112 172 122 112 172 125 113 171 127 115 171 129 116 172 133 117 172 136 117 172 139 117 172 145 117 171 150 118 171 154 118 170 159 119 169 163 119 169 166 119 169 167 119 169 168 120 168 169 122 168 170 125 168 172 127 169 172 132 168 171 133 167 173 134 167 175 138 167 176 140 168 177 142 170 178 144 151 84 106 154 85 106 159 84 107 163 84 107 165 83 108 167 84 109 169 85 110 169 86 110 170 88 111 171 90 112 172 91 111 172 93 111 171 94 112 170 95 112 171 96 111 172 97 112 172 99 112 172 103 112 172 105 113 174 107 112 174 108 112 173 109 113 172 112 113 171 116 112 170 119 113 171 124 113 171 128 114 171 129 115 171 132 117 172 135 119 173 139 119 173 142 119 173 146 120 172 150 121 172 154 122 172 159 122 171 163 123 169 166 123 168 167 122 168 168 123 168 169 124 169 171 125 170 172 129 170 173 132 169 173 133 167 174 135 167 175 137 168 176 139 167 177 142 169 179 144 151 83 105 154 85 105 157 85 105 160 85 106 162 84 108 165 85 109 166 85 110 167 86 111 168 88 112 170 91 112 171 93 113 172 92 113 171 94 113 170 96 111 171 97 110 172 98 111 173 100 110 172 104 111 173 107 112 174 109 112 174 110 112 172 111 112 171 113 112 171 118 112 171 122 113 170 127 113 170 130 114 170 133 115 171 135 117 171 139 119 172 143 121 173 146 121 173 148 122 174 151 123 173 155 123 173 159 124 172 163 124 171 166 125 169 167 125 169 167 126 170 168 126 171 170 127 171 172 130 171 173 132 170 174 134 169 174 135 169 176 137 169 177 139 169 178 141 169 181 143 151 82 106 153 84 105 156 86 105 158 85 105 160 85 106 161 85 108 162 85 110 163 86 110 164 87 111 166 90 112 169 92 113 170 93 113 171 94 112 170 97 110 170 98 110 171 100 110 171 102 109 171 105 111 173 109 112 173 110 113 172 112 113 171 112 112 170 115 110 171 119 111 171 124 112 171 128 113 170 132 114 170 135 116 169 138 118 170 141 120 173 145 122 173 148 123 174 151 124 175 153 125 174 155 126 173 159 125 173 162 125 171 164 126 171 165 126 172 165 127 173 167 127 173 169 128 172 172 131 172 174 133 172 174 134 170 175 135 170 177 136 170 177 139 170 179 141 170 181 143 150 82 106 152 84 105 154 85 104 156 86 104 157 86 105 158 87 106 159 86 108 160 87 109 161 88 109 163 90 111 166 92 112 167 94 112 169 96 111 170 98 111 170 100 111 170 101 111 170 104 110 170 106 111 172 109 111 171 111 112 170 112 112 169 114 111 169 116 111 170 120 111 170 125 111 170 129 113 170 133 114 170 136 116 169 140 119 170 143 120 171 146 121 173 148 123 174 152 125 175 154 127 174 155 127 174 158 125 173 161 126 173 162 126 173 162 126 174 163 126 175 165 126 176 169 127 174 171 130 174 173 132 173 175 134 172 177 134 172 177 136 171 178 138 172 179 141 172 182 143 148 83 105 150 84 105 152 85 104 152 86 104 154 87 103 155 87 105 156 87 105 157 88 107 159 90 109 161 92 110 164 94 111 166 96 112 167 98 111 169 99 112 171 101 112 171 103 111 171 106 110 170 108 111 169 110 110 169 111 111 169 113 112 169 115 111 169 118 111 170 122 111 170 126 112 170 130 113 169 134 114 169 137 117 169 140 119 169 142 119 171 145 120 172 148 122 175 152 124 176 154 126 176 156 126 176 158 126 175 158 126 175 159 126 175 160 125 176 162 125 176 164 126 176 167 128 177 169 129 176 173 131 175 176 132 174 177 134 175 178 137 174 178 139 173 180 140 173 183 142 148 82 106 149 83 105 149 84 104 151 86 103 152 86 103 152 88 104 153 89 104 155 89 106 158 92 108 161 94 109 163 96 111 165 97 112 166 99 112 168 101 113 170 103 112 171 104 112 171 106 112 169 110 111 168 111 110 168 112 111 169 115 111 169 117 110 170 120 111 170 123 112 170 127 113 170 131 114 171 135 115 170 139 116 169 141 117 170 143 118 171 145 119 171 148 121 174 151 124 176 153 126 177 154 127 177 156 127 177 156 127 175 158 125 176 159 125 176 162 124 176 163 126 176 166 128 177 169 129 176 172 130 175 176 133 175 178 135 176 178 137 175 180 139 175 181 141 173 184 141 145 81 106 146 83 104 148 85 103 149 86 102 150 87 103 151 88 103 152 90 103 154 91 105 158 94 106 160 96 107 162 97 110 164 98 112 165 100 111 166 102 111 169 103 112 171 104 112 172 107 113 170 110 112 169 112 111 169 114 111 169 115 110 169 118 109 169 121 111 170 125 113 171 128 114 171 132 116 171 136 116 172 141 117 172 143 118 172 145 119 172 146 119 172 148 120 174 151 123 175 151 125 177 153 125 177 154 125 178 155 125 176 157 125 175 160 125 175 162 125 175 163 125 175 165 127 176 169 129 176 173 130 177 176 133 177 179 134 177 180 136 177 182 139 176 185 140 174 187 141 144 81 106 145 83 105 147 84 104 148 86 104 149 87 103 150 89 104 152 90 104 154 92 104 157 95 105 159 97 107 162 99 109 163 101 110 165 102 110 167 102 111 170 104 111 171 106 112 172 109 113 170 111 113 170 113 113 170 115 112 169 117 110 169 119 109 169 122 111 170 127 114 171 130 115 172 133 116 172 137 116 172 141 118 173 144 119 172 145 119 173 147 120 173 147 120 174 150 121 174 152 122 176 154 123 177 155 123 178 155 125 178 157 125 176 159 125 175 161 125 174 162 126 175 165 127 176 168 128 176 174 129 177 177 131 177 179 133 177 180 135 176 183 137 176 187 139 173 189 140 143 82 107 144 84 106 146 85 105 147 86 104 148 87 104 149 89 103 152 91 103 154 94 102 157 96 104 160 99 107 161 101 107 163 102 108 165 103 109 167 103 110 169 105 112 170 108 113 171 110 113 170 113 114 169 114 113 169 117 112 168 118 111 169 120 110 169 124 110 169 127 114 170 131 117 171 135 117 172 138 117 171 142 119 172 144 119 171 146 119 171 148 119 172 149 119 173 151 120 174 153 122 175 155 122 177 155 123 177 156 124 177 157 125 177 159 125 177 161 126 175 163 126 175 165 127 176 169 128 176 174 129 177 177 131 176 179 132 176 181 133 176 184 136 176 187 137 174 189 139 143 83 105 144 84 106 145 85 105 147 86 105 149 88 104 150 89 102 153 92 101 156 95 103 158 98 104 161 100 106 162 102 107 164 103 107 166 103 109 167 104 110 169 106 111 168 108 113 169 111 115 170 113 114 168 116 113 167 118 112 167 120 112 168 122 111 169 126 111 169 128 114 170 132 116 170 136 118 170 139 119 169 141 119 169 143 118 170 146 117 170 148 117 172 150 118 173 151 119 174 154 120 175 155 121 177 157 122 178 157 123 177 158 124 178 161 125 178 162 125 177 163 127 176 165 127 175 169 127 175 173 129 175 176 130 175 178 130 174 181 132 174 185 135 174 186 136 173 189 138 142 83 104 143 83 104 144 84 105 147 86 105 149 88 104 150 90 102 153 93 102 156 96 103 159 99 105 161 101 107 162 103 108 163 104 109 166 105 110 167 106 112 168 106 113 168 108 114 168 112 115 167 115 114 167 118 114 168 119 113 168 121 113 168 124 112 170 127 112 170 130 113 170 134 116 170 137 118 169 140 119 168 142 118 168 145 117 168 147 116 170 149 117 172 150 117 174 151 119 175 154 119 176 156 120 177 157 120 178 158 121 178 159 122 178 161 123 178 163 125 177 164 126 176 166 126 174 169 126 174 173 127 174 176 129 174 178 130 173 180 131 173 183 133 172 186 135 171 189 137 141 83 102 142 84 104 143 85 105 146 87 104 149 89 103 151 91 103 153 94 104 157 97 105 159 100 107 161 102 108 162 103 109 164 105 111 165 106 113 165 106 115 166 107 116 166 109 116 166 112 115 166 116 115 167 118 115 168 120 113 168 123 112 170 125 113 171 129 112 170 132 113 170 135 116 170 138 117 168 142 119 168 144 117 168 146 116 169 149 116 171 151 117 173 152 117 175 153 118 177 154 118 177 156 118 178 157 118 178 158 118 178 159 120 177 160 121 177 163 123 176 164 123 175 166 124 172 170 125 171 172 126 172 175 128 172 177 130 171 180 131 171 183 132 171 186 133 171 188 135 140 86 102 141 87 104 142 88 105 146 90 104 149 92 104 151 93 105 153 95 105 156 98 107 159 102 108 161 103 110 163 105 110 163 106 112 164 107 114 165 108 116 165 109 116 165 111 117 165 113 117 165 115 117 166 117 116 167 120 114 168 123 112 170 126 113 171 129 112 171 132 114 171 135 116 170 139 117 168 142 119 168 144 118 168 148 116 170 151 116 172 153 118 174 154 118 176 154 118 176 156 117 177 158 117 178 158 117 177 158 117 177 159 119 176 159 121 176 161 121 175 164 121 174 167 122 171 170 124 171 172 125 171 174 126 171 177 128 170 180 128 170 183 129 170 185 131 170 187 133 139 89 103 141 91 105 143 91 106 145 93 105 149 94 106 151 94 106 153 97 107 155 100 108 158 103 110 160 104 111 162 106 112 163 107 113 163 108 115 163 110 116 164 111 117 164 113 118 164 114 118 165 115 117 165 118 115 167 120 113 168 123 112 170 126 112 171 128 112 171 131 113 172 134 114 171 139 115 169 142 117 168 145 117 168 149 115 170 152 116 172 153 116 173 155 117 174 155 117 176 156 117 176 158 116 177 159 117 176 159 118 176 159 118 176 159 119 175 161 120 174 164 120 173 167 120 172 169 122 171 172 124 170 174 124 170 176 126 170 180 127 170 183 127 169 185 130 168 188 131 138 93 104 140 93 106 144 93 107 146 94 107 148 95 108 150 96 108 152 99 109 154 101 111 155 103 112 158 105 113 160 107 114 161 108 114 163 109 115 162 110 116 163 112 117 162 114 119 162 115 119 163 117 118 165 119 116 167 121 114 169 123 112 171 126 112 172 128 112 173 131 111 173 135 112 172 139 113 170 142 115 168 144 116 168 149 116 170 151 115 173 153 115 172 155 116 173 155 116 174 157 115 175 158 115 176 158 116 177 159 117 177 159 117 177 159 118 175 161 119 173 162 119 172 166 120 172 169 122 171 172 123 170 173 124 171 176 125 170 179 125 170 181 126 169 184 128 167 187 129 