P3
50 50
255
124 152 78 125 153 77 126 155 78 128 156 79 128 158 79 129 158 80 130 159 81 129 159 84 128 159 85 127 159 86 127 160 87 127 161 89 126 163 90 126 164 89 125 164 89 124 164 88 125 165 87 126 166 86 126 167 84 127 168 84 127 168 82 128 168 83 129 168 83 129 170 83 130 169 83 132 167 82 133 166 85 132 164 87 130 164 91 129 163 93 128 163 95 126 163 96 123 163 97 122 162 99 120 162 101 120 162 101 120 161 104 118 161 106 119 162 107 120 162 109 118 164 111 116 165 113 115 167 116 116 168 116 115 170 116 115 172 116 114 174 115 114 176 115 115 177 118 116 178 119 121 151 77 122 152 77 123 153 76 124 155 77 125 156 78 125 157 79 127 157 80 127 157 82 127 158 85 126 158 86 125 160 87 124 161 89 123 162 91 124 163 90 123 163 89 122 164 87 123 164 86 124 165 85 124 166 84 124 168 83 124 168 81 124 168 82 126 168 82 126 167 82 126 166 83 128 165 83 128 165 84 129 164 87 128 162 89 127 161 92 126 161 95 125 162 97 123 162 98 121 161 101 120 161 102 119 161 102 119 161 103 117 161 105 117 161 106 117 162 108 117 164 109 116 164 112 114 166 115 114 167 117 114 170 116 114 172 116 113 174 117 114 177 117 115 179 119 115 179 120 118 150 76 119 151 75 120 153 76 120 152 77 121 153 78 122 153 78 123 155 80 122 154 83 123 157 85 122 158 86 121 160 87 121 161 89 121 161 91 120 161 90 120 162 89 120 162 87 121 163 87 120 164 85 121 165 83 121 166 82 121 168 81 122 168 80 122 168 81 122 167 81 123 165 81 124 165 83 124 164 85 125 163 85 126 161 88 125 160 90 125 160 94 124 160 96 122 160 99 120 161 101 118 160 102 117 160 103 117 162 104 116 161 104 115 161 105 116 163 108 116 163 109 114 163 111 113 165 115 112 166 116 113 168 117 113 171 116 113 174 117 113 176 118 114 178 120 113 179 121 114 149 75 116 150 74 117 151 74 116 150 76 117 150 78 118 151 78 119 151 80 119 153 82 119 154 83 118 157 85 118 158 86 118 158 88 118 159 88 117 159 89 116 159 88 117 160 87 118 161 86 117 162 84 117 163 83 117 165 82 118 166 82 119 168 81 120 167 79 120 167 80 121 166 81 121 164 82 122 163 84 124 161 85 125 160 87 124 159 89 123 160 93 122 159 95 120 159 98 117 160 100 115 159 101 115 161 103 115 162 103 115 162 103 113 162 105 114 163 108 114 163 109 113 163 112 112 164 113 112 164 114 112 167 117 112 170 117 112 173 119 112 176 120 113 178 121 112 179 123 111 147 75 112 148 74 113 149 74 113 149 76 113 148 77 113 150 79 115 150 80 116 151 81 116 153 82 114 155 85 115 155 86 115 155 87 114 156 87 114 157 88 113 157 87 113 159 86 114 160 85 114 161 83 114 163 82 116 164 81 116 166 80 117 168 80 118 167 79 118 166 78 119 165 80 119 164 81 119 163 83 121 162 85 121 161 87 121 159 89 120 160 92 119 159 95 117 160 98 115 160 100 113 161 101 112 162 103 113 164 104 113 163 105 112 163 106 111 163 107 111 163 109 111 163 111 111 163 113 111 166 114 111 169 117 111 171 118 111 173 120 112 175 122 112 178 123 111 178 125 108 144 74 109 145 74 109 147 74 108 147 76 109 148 77 109 148 79 112 149 81 113 150 82 113 150 83 112 152 85 111 152 85 111 152 85 110 153 86 111 153 87 111 156 86 110 159 85 111 159 84 112 161 83 112 163 81 113 164 80 114 166 79 115 167 80 116 167 80 116 166 79 116 165 80 116 164 81 116 162 82 117 163 85 119 162 87 118 161 90 116 160 92 116 160 94 114 161 97 112 161 99 110 161 101 110 163 102 110 164 103 111 164 105 111 164 107 110 164 107 110 166 109 111 165 110 111 166 113 110 167 114 109 169 116 109 172 118 111 174 121 111 176 123 111 178 124 110 179 126 105 142 72 105 144 74 104 145 74 105 146 76 105 147 78 106 147 80 109 148 81 110 148 81 110 149 84 109 149 84 108 149 84 107 150 85 107 150 85 109 152 87 109 155 86 108 158 85 109 159 84 111 162 82 111 163 80 111 164 80 112 164 80 112 166 81 111 166 81 113 164 79 114 163 80 114 164 82 114 164 83 114 163 85 115 164 88 115 162 89 114 161 91 114 160 93 113 161 96 112 160 98 110 162 101 109 164 102 109 165 104 110 165 104 110 165 106 110 166 108 110 167 109 110 169 112 110 169 114 109 170 115 109 171 116 109 173 118 110 175 121 111 176 124 111 179 125 110 179 127 101 141 71 100 141 72 100 142 74 101 144 75 102 146 77 103 147 80 105 148 81 106 147 81 106 146 83 105 146 84 106 147 84 105 148 85 105 149 85 105 150 86 106 151 85 106 155 85 106 157 84 109 159 82 108 161 80 108 162 81 108 161 81 108 163 82 107 164 82 109 162 80 109 161 81 110 163 82 111 163 84 112 163 86 112 163 87 113 162 88 112 161 90 112 161 93 112 162 96 111 162 98 110 161 99 109 163 102 108 165 104 109 166 106 110 167 107 109 168 109 109 169 112 109 170 114 110 172 115 109 171 115 108 171 116 108 173 118 109 175 121 109 176 124 111 178 127 110 180 128 96 141 71 96 139 71 97 141 74 97 143 76 98 144 77 99 145 80 101 146 80 103 146 82 102 145 83 102 144 83 104 145 84 104 145 83 103 146 84 103 147 85 104 148 86 104 151 85 104 153 84 105 156 82 106 159 82 105 161 83 105 161 83 105 161 84 104 161 83 105 161 83 105 162 83 106 161 84 108 162 85 109 161 86 110 161 86 110 161 87 111 161 90 112 162 93 112 162 96 110 163 98 109 163 100 108 164 103 109 166 105 108 168 107 108 169 110 109 170 112 109 171 114 109 171 115 110 173 116 109 173 117 108 174 118 108 175 120 109 177 122 109 178 125 110 179 126 110 181 128 93 139 70 93 139 72 94 140 74 94 140 76 95 140 78 96 142 80 97 142 80 99 143 80 99 142 81 100 141 82 100 142 82 101 142 83 101 143 82 101 144 84 102 145 85 101 147 84 101 150 84 103 153 83 103 156 82 102 158 83 101 158 84 102 159 85 101 159 85 101 160 85 102 161 86 103 162 88 104 162 88 107 161 87 107 159 86 108 160 88 110 160 91 111 162 94 111 163 96 109 163 98 108 165 102 107 166 103 108 167 106 108 170 109 107 171 112 108 172 115 109 173 116 108 174 117 109 174 117 109 175 118 109 176 120 108 177 122 109 177 122 109 179 125 107 180 125 108 182 127 91 137 71 91 138 73 93 139 75 92 139 75 92 139 77 93 139 79 94 139 79 96 139 78 98 139 80 99 139 80 99 141 82 99 142 82 99 142 81 100 143 82 100 144 84 99 144 85 99 147 84 99 150 84 100 154 84 100 154 85 99 156 87 100 159 89 99 159 88 98 160 88 100 161 90 102 163 91 103 161 90 104 160 90 105 159 90 107 159 90 108 160 92 110 162 94 110 163 96 110 164 99 109 166 101 108 168 104 107 169 107 107 171 110 107 172 114 107 173 115 108 174 117 108 174 118 108 176 119 109 177 119 109 178 122 109 178 123 110 178 124 109 180 126 107 181 127 106 182 128 89 136 72 89 138 73 90 138 74 89 138 75 90 137 75 91 138 77 91 138 79 93 137 79 95 138 79 97 139 80 97 139 79 97 140 80 99 141 81 99 141 81 99 143 83 98 144 83 98 147 84 97 149 85 96 151 86 96 152 87 96 154 88 97 157 90 97 159 91 97 160 91 97 161 91 98 162 92 100 161 92 101 160 91 104 159 91 106 158 92 107 158 93 109 161 95 109 163 97 110 165 99 109 167 102 107 169 105 107 171 108 106 172 110 107 174 113 107 175 114 108 177 116 108 176 118 107 177 119 107 178 120 108 179 123 109 178 124 109 180 126 109 181 128 108 181 129 106 181 130 88 134 72 87 135 73 86 136 73 87 136 74 88 135 74 88 135 75 89 136 78 90 136 77 92 136 78 95 137 78 96 137 78 96 138 78 97 138 78 98 140 79 97 143 80 97 145 81 97 148 83 96 149 84 95 150 86 93 151 87 93 153 88 94 156 90 95 159 91 96 160 92 96 161 94 97 161 94 97 161 94 99 160 93 102 159 93 104 157 93 105 159 95 107 161 97 106 164 98 108 166 99 108 168 102 108 170 105 107 173 107 107 174 109 108 175 111 108 176 113 108 176 115 107 177 117 106 178 118 106 180 121 106 180 123 108 180 125 109 180 127 108 181 129 107 181 130 107 181 131 87 131 72 85 133 73 85 134 72 85 133 73 86 134 74 87 133 76 88 134 76 89 134 76 90 133 77 92 134 77 94 134 77 94 135 76 94 136 76 94 138 77 95 142 78 96 145 81 96 148 83 95 149 84 93 151 86 92 152 87 91 153 87 92 157 89 93 159 91 94 160 93 95 160 95 95 161 96 96 161 97 97 160 96 99 159 95 101 159 96 103 159 97 103 162 98 103 163 100 104 165 101 106 167 103 107 171 105 108 173 108 108 174 109 107 174 111 106 175 114 107 176 116 106 177 117 105 179 119 104 179 121 105 180 123 107 180 126 107 181 129 107 182 129 106 182 131 107 183 133 85 129 71 84 131 71 83 132 71 83 133 73 84 132 74 85 132 75 85 133 74 86 133 75 87 132 77 89 131 77 91 131 76 92 134 75 92 135 74 92 138 75 93 141 77 93 144 81 93 148 83 92 151 84 91 152 86 90 153 86 90 154 86 92 156 88 92 158 91 92 158 94 93 159 95 93 159 96 94 159 97 95 159 98 97 159 98 98 160 98 100 161 99 101 163 100 101 163 100 102 164 101 103 167 102 105 170 105 106 172 108 107 174 111 106 174 113 105 174 115 105 175 117 105 177 118 104 179 120 105 180 122 105 180 124 106 180 126 107 181 129 107 182 130 106 182 132 107 183 133 82 129 70 81 131 70 81 132 70 82 131 72 82 132 73 83 132 73 82 133 73 83 132 73 86 131 75 88 129 75 89 130 75 90 133 75 90 135 73 90 138 75 89 141 79 89 144 82 89 148 84 89 150 84 88 152 84 89 153 84 89 153 86 90 155 88 90 156 91 90 156 92 91 157 94 91 156 96 92 157 98 94 158 99 95 159 99 97 161 100 99 162 101 100 163 101 101 163 100 101 163 101 101 166 104 104 169 106 106 172 110 106 174 112 107 174 115 106 174 116 104 175 118 104 176 120 104 177 120 104 179 123 105 179 125 106 179 128 106 179 129 105 179 130 105 180 131 107 182 132 79 127 71 78 129 70 79 130 70 80 130 71 81 130 72 80 132 73 80 133 73 82 132 72 84 131 73 86 130 74 87 131 74 87 132 73 87 134 73 86 137 75 86 141 78 86 144 80 87 148 82 87 150 83 86 151 84 88 152 84 88 152 86 88 153 88 89 153 88 90 154 90 90 155 93 90 154 95 90 156 97 92 157 99 94 158 100 95 161 101 98 162 102 100 163 102 100 162 101 100 163 102 101 165 104 103 167 106 105 171 110 105 172 113 105 172 114 105 173 117 104 174 119 104 175 121 105 176 122 105 177 124 104 178 126 105 178 127 105 177 128 105 178 130 105 180 131 107 183 132 76 126 70 76 126 70 77 126 70 79 127 70 79 128 71 79 130 72 78 132 72 80 132 71 81 133 72 83 131 72 84 131 72 85 132 72 85 135 73 84 137 74 84 140 78 84 143 79 85 147 81 84 148 82 85 148 83 86 150 83 87 151 85 88 151 86 89 152 87 90 152 88 90 151 90 90 152 93 90 155 96 91 156 98 94 157 99 96 158 101 98 160 102 100 161 102 100 162 102 100 163 103 102 165 105 103 167 107 103 169 109 104 169 112 105 170 114 105 171 117 105 171 118 105 172 120 105 175 123 105 176 124 104 177 126 105 177 126 106 176 127 107 176 128 107 178 131 109 181 132 75 123 70 75 123 70 76 124 70 78 125 70 79 125 70 79 127 71 77 130 71 78 132 70 80 132 69 81 132 70 83 132 71 83 133 71 83 135 72 82 138 74 82 141 77 83 144 78 84 146 79 84 147 81 84 147 81 84 148 82 87 149 83 88 150 85 89 149 85 90 149 86 90 149 88 91 151 91 91 154 94 92 155 97 93 156 98 95 157 99 97 158 100 99 160 102 100 161 102 100 163 102 100 165 103 102 168 106 102 167 108 104 167 111 105 167 114 105 169 118 105 170 119 105 172 121 106 174 123 106 174 124 104 175 125 104 177 126 106 175 127 108 175 129 108 177 131 109 179 132 75 121 69 75 121 70 75 122 70 77 122 70 77 123 71 78 126 72 77 128 71 78 129 70 78 130 69 80 131 70 81 132 70 82 134 71 82 135 72 81 138 73 81 140 75 82 143 77 83 144 77 84 146 79 83 147 80 84 148 82 87 148 83 88 148 85 88 147 85 89 146 85 89 148 86 91 150 89 92 152 92 92 154 96 93 156 97 95 158 97 96 158 98 97 160 99 98 162 101 99 164 101 99 166 102 101 168 105 102 166 108 103 166 113 104 166 115 104 168 118 105 169 120 105 170 121 104 172 122 103 172 123 103 174 124 104 176 126 105 175 127 107 175 128 110 177 130 112 178 131 74 119 68 74 119 68 75 119 69 77 119 68 77 122 69 76 125 70 76 125 70 77 126 70 76 127 70 78 129 69 80 131 69 81 133 69 81 136 70 81 137 72 81 139 73 81 142 75 82 144 76 84 146 78 84 147 80 86 147 81 87 147 83 89 147 84 88 146 84 89 146 85 89 147 86 91 148 88 92 149 91 92 151 93 93 154 95 94 156 96 93 158 97 95 159 97 96 161 99 96 163 100 97 166 103 99 167 104 100 166 108 102 166 113 102 165 115 102 165 116 103 167 119 103 168 120 102 169 121 102 171 122 103 172 123 105 174 126 105 175 128 108 175 128 110 176 129 111 178 131 73 119 68 74 119 68 75 119 69 75 120 68 76 121 68 76 123 68 75 124 68 75 124 69 76 125 70 77 126 69 78 130 67 81 134 67 80 135 67 80 138 70 81 139 71 81 141 72 82 144 75 83 145 77 84 145 79 86 146 81 87 146 82 88 145 83 88 146 83 89 146 85 89 146 87 91 147 90 92 149 92 92 150 93 94 152 95 94 155 97 93 157 97 93 158 96 95 159 98 95 161 100 95 165 103 96 166 104 97 166 108 99 165 112 100 165 115 100 166 117 101 167 119 101 166 119 101 167 120 102 169 121 103 171 123 105 172 125 105 173 128 106 174 128 108 175 129 109 177 131 73 119 68 72 119 68 73 119 68 74 120 68 75 122 69 75 123 68 74 123 68 74 124 70 74 124 70 75 125 69 77 130 67 79 133 66 79 135 66 80 138 68 80 140 70 82 142 72 82 143 73 85 143 75 86 144 77 86 145 79 87 145 82 88 143 83 88 144 83 89 144 85 89 145 88 91 147 90 91 148 92 92 151 95 93 152 96 95 154 98 94 155 96 94 156 96 94 158 98 96 161 100 95 164 102 95 166 105 96 166 108 97 165 112 98 166 115 99 166 116 100 166 117 101 166 120 102 167 120 103 168 121 104 169 124 104 170 125 104 171 128 106 174 129 107 175 129 109 176 130 73 120 69 72 121 68 71 120 67 73 121 68 74 122 69 75 123 69 74 123 70 74 124 71 74 124 70 74 125 68 75 128 67 78 131 66 79 134 66 81 137 67 82 140 69 83 141 70 83 140 71 86 143 74 87 144 76 87 145 78 88 144 79 88 143 81 89 143 83 91 144 85 91 145 89 90 146 90 91 148 92 92 150 93 94 151 96 95 152 97 96 153 97 96 154 97 95 157 99 95 159 101 95 162 103 94 164 104 96 165 109 97 165 112 98 164 114 99 164 115 100 164 116 102 165 118 104 167 120 105 168 121 104 168 123 104 169 126 105 169 129 106 171 129 106 173 129 108 175 131 71 121 70 70 121 68 70 121 68 70 122 69 72 122 70 73 123 71 75 123 71 74 123 71 73 123 70 73 125 68 75 127 67 77 129 66 79 132 67 80 135 67 81 137 68 83 138 70 84 140 71 85 142 73 86 144 75 87 145 77 86 144 79 88 143 80 90 144 82 91 145 84 91 147 89 91 147 91 92 148 92 94 148 93 95 150 95 96 151 96 97 153 97 96 154 98 95 156 99 94 158 102 94 161 105 94 162 107 95 163 110 96 163 111 97 163 112 99 163 114 100 164 115 102 165 117 104 166 119 105 166 121 105 166 123 104 166 126 105 167 128 107 168 130 107 170 129 108 173 132 68 121 72 68 121 70 68 122 70 69 123 71 70 123 71 73 123 72 73 122 71 74 122 71 73 123 71 74 125 70 75 127 68 76 128 67 77 130 68 79 134 68 82 135 69 83 137 71 84 139 73 85 141 74 85 142 75 85 143 77 86 143 80 89 143 82 91 144 83 92 146 86 91 148 89 92 149 92 92 149 93 94 148 94 95 148 96 97 149 96 97 151 97 96 152 98 96 154 100 95 157 104 95 159 105 95 160 107 94 161 109 95 163 110 96 162 111 98 163 113 100 163 115 102 163 117 103 164 118 106 164 121 106 164 123 105 164 125 105 165 127 105 166 128 107 168 131 106 171 132 66 123 72 67 123 71 67 123 71 68 123 71 70 123 71 71 123 70 72 121 70 74 121 70 74 123 71 75 126 70 76 127 68 77 128 69 78 130 70 80 131 70 82 134 71 82 136 72 83 137 74 84 138 75 85 139 76 85 141 78 86 142 81 89 142 82 91 143 85 92 145 87 92 146 89 92 147 91 94 147 91 95 145 92 95 146 96 95 147 97 96 149 99 95 151 100 95 154 101 95 156 103 94 158 105 95 159 107 95 160 108 97 162 110 97 161 112 98 161 113 100 161 114 102 162 116 103 163 118 105 163 119 105 163 121 104 164 124 104 165 127 104 166 129 104 167 131 106 168 133 66 126 73 67 124 72 68 124 71 69 124 71 71 124 71 71 123 71 72 121 71 73 121 70 75 123 71 75 125 70 76 127 69 78 128 71 80 129 71 81 131 71 82 133 72 82 135 73 83 136 74 84 137 76 85 138 77 85 139 79 87 140 81 89 141 83 91 141 85 92 143 87 92 145 89 93 145 90 94 144 90 96 143 92 96 145 95 96 146 97 96 148 100 95 150 101 94 153 101 94 155 103 95 157 105 95 157 106 96 158 108 97 159 110 99 159 112 100 160 112 102 161 115 102 161 116 104 162 117 104 161 118 105 162 120 104 164 124 103 165 127 103 166 130 103 166 132 103 167 134 67 126 73 68 125 73 70 124 71 71 123 71 72 123 72 72 122 73 73 122 73 75 122 72 76 123 73 76 124 73 77 128 72 78 129 73 80 130 73 82 131 73 82 132 73 82 134 73 82 135 74 83 136 76 85 137 78 84 138 79 86 139 80 89 139 83 89 140 86 90 141 88 92 142 89 94 142 89 94 143 91 94 142 92 95 144 95 95 146 98 96 148 100 96 149 101 95 152 102 95 153 104 96 154 106 97 156 107 97 156 108 98 158 109 100 158 111 102 159 112 104 158 113 104 158 115 105 159 116 106 161 117 106 162 119 104 163 123 103 164 127 102 165 129 101 166 131 101 166 134 68 127 74 70 126 74 72 124 72 71 123 73 73 122 73 74 122 74 74 121 74 76 121 75 77 122 75 78 125 74 78 127 74 79 129 73 81 130 74 83 131 73 83 132 74 83 132 72 84 133 72 85 135 74 86 136 76 85 137 77 87 138 79 87 138 82 89 138 86 92 138 88 93 138 89 93 140 90 93 141 91 92 141 91 92 143 94 93 146 97 93 148 99 94 149 101 95 149 102 95 151 105 96 152 106 96 154 108 97 156 109 99 157 110 102 157 111 104 156 111 105 156 112 105 155 113 106 156 113 107 158 115 106 159 117 105 161 120 102 163 125 101 164 128 100 166 131 100 166 133 69 127 74 71 126 75 72 123 73 73 123 74 75 122 75 75 121 75 75 121 75 77 121 75 78 122 75 79 124 75 79 127 75 81 129 74 82 130 75 83 130 74 83 130 74 84 131 73 85 132 72 86 133 73 86 135 75 86 135 76 86 135 78 86 135 80 89 135 84 92 136 87 93 136 89 92 137 90 91 138 91 91 139 91 90 141 92 91 143 96 92 144 98 93 147 101 94 147 103 96 149 104 96 151 106 96 153 108 97 156 110 100 157 111 103 156 111 105 155 112 106 153 112 106 153 112 106 153 112 107 156 115 107 158 115 105 158 118 103 160 123 101 161 126 100 164 129 99 165 131 71 127 73 72 126 74 72 124 74 73 124 75 75 124 75 75 122 75 77 121 76 77 122 76 79 125 77 79 125 77 80 126 76 82 128 75 82 129 77 83 128 76 84 129 77 84 130 76 84 131 74 84 132 74 85 133 76 85 133 77 86 133 78 87 133 79 88 133 82 90 134 85 92 133 88 92 134 89 91 136 91 91 137 91 91 139 92 92 140 95 92 141 99 94 143 102 95 145 104 97 147 104 97 150 106 98 152 108 99 153 109 101 154 109 103 155 110 105 154 111 106 152 112 106 152 113 106 152 112 107 154 114 107 155 115 105 156 117 103 158 121 101 160 124 99 161 128 97 162 131 72 126 71 73 125 72 73 125 73 74 125 73 75 124 73 76 123 74 76 124 76 76 125 77 78 126 77 80 126 76 81 127 76 82 127 76 83 128 77 83 128 78 83 128 79 84 129 78 83 131 77 82 131 76 83 132 78 84 131 78 85 131 79 87 132 81 88 131 83 90 131 84 92 131 86 91 132 89 91 133 90 90 135 92 92 137 93 94 137 95 94 138 99 96 139 101 97 141 103 98 144 105 98 147 106 98 150 108 99 152 108 100 153 108 102 154 109 102 154 110 103 152 111 105 151 112 105 151 113 106 152 114 105 153 115 104 154 117 103 157 120 101 158 123 99 160 128 97 160 131 72 126 71 72 126 72 72 126 72 73 125 72 74 125 72 76 126 74 76 127 76 77 126 76 78 126 77 80 127 77 82 127 76 82 128 77 84 127 78 84 128 78 83 128 80 83 128 80 83 130 79 83 131 79 83 130 79 84 130 80 86 129 81 86 129 82 88 129 85 89 129 86 90 129 88 89 129 89 90 131 91 91 132 92 93 135 93 94 136 96 94 136 99 96 137 101 98 139 102 99 142 104 98 146 105 98 148 107 99 150 108 100 151 109 101 152 110 101 152 111 102 151 111 103 149 112 105 150 113 105 149 113 104 150 115 103 153 117 103 155 120 101 157 124 99 158 127 97 159 130 72 128 72 71 128 72 72 128 72 73 127 72 74 128 73 76 128 74 77 128 75 77 128 76 78 126 77 80 126 78 81 126 78 83 128 78 85 127 78 84 127 78 83 127 80 83 129 81 83 129 81 84 129 82 84 129 83 85 128 84 86 127 84 87 128 85 88 127 87 89 127 88 88 126 90 88 126 91 90 128 92 92 130 92 94 132 94 95 134 96 96 134 98 96 135 101 97 138 102 97 140 103 97 143 105 98 145 107 99 146 108 101 147 109 100 148 110 101 149 111 101 148 111 102 147 111 104 147 112 104 147 113 103 149 116 102 150 117 101 152 121 99 154 124 98 155 126 97 155 129 71 131 72 71 131 72 72 130 72 74 130 73 75 130 74 76 131 75 77 130 75 77 129 76 79 127 76 80 126 78 81 126 79 83 128 79 84 127 79 84 126 79 84 127 80 84 128 82 83 129 83 85 128 84 86 127 86 86 127 87 87 126 86 88 127 87 88 127 89 88 126 90 89 124 91 89 124 94 90 126 96 92 128 96 94 130 96 96 131 97 97 132 99 97 133 101 97 135 103 97 138 104 97 141 107 99 142 107 101 142 108 102 142 109 102 144 110 102 145 111 101 145 112 101 145 112 102 145 113 102 146 115 102 147 116 100 148 119 98 149 121 97 150 123 98 151 124 97 150 126 70 133 73 73 133 72 74 132 73 75 132 73 76 132 74 77 133 75 78 132 76 78 130 76 79 129 77 82 127 78 83 126 80 83 126 80 85 125 79 86 125 80 85 127 81 83 127 83 84 128 85 86 128 85 88 127 88 89 126 89 89 125 89 89 126 90 89 126 91 88 125 93 89 123 95 89 123 97 90 124 98 92 126 99 94 128 99 95 129 99 95 130 100 97 131 102 97 133 103 97 135 104 98 137 107 99 138 109 102 138 109 103 140 109 102 141 110 102 142 111 101 142 112 100 142 112 100 143 114 100 143 115 100 144 118 98 145 120 96 145 122 96 146 123 96 146 124 96 147 126 70 134 73 73 134 73 74 135 73 76 134 74 77 134 75 78 134 76 78 133 77 79 132 77 80 130 79 82 128 80 83 126 80 84 125 81 86 124 82 86 125 82 86 127 84 85 127 85 85 128 87 87 128 88 89 126 90 90 125 92 89 125 92 90 125 92 89 125 93 89 124 95 89 123 97 90 122 98 91 123 100 93 124 101 93 126 102 94 127 102 93 128 101 95 130 102 97 132 104 97 134 105 98 134 107 99 134 109 101 135 110 101 137 110 101 139 111 99 140 112 99 140 113 98 140 114 98 140 116 98 141 118 97 141 120 95 142 122 94 142 123 93 142 124 94 143 124 94 143 125 70 136 73 72 135 74 74 135 74 75 135 75 75 135 75 76 133 76 77 132 77 78 131 78 79 130 79 82 129 80 83 127 81 85 124 82 87 123 84 87 125 84 87 126 87 86 127 89 85 128 90 87 127 91 89 126 92 91 124 93 90 124 94 90 123 94 90 124 95 90 122 98 90 122 101 90 123 102 91 123 104 92 124 104 93 125 104 93 126 104 93 127 104 94 129 105 95 130 106 96 131 108 97 132 109 98 132 110 98 133 112 98 134 113 97 135 114 96 136 113 96 137 114 97 138 116 96 138 118 95 138 120 93 139 122 93 140 123 92 140 125 91 140 126 91 139 125 92 138 126 70 137 73 72 135 74 72 134 76 72 134 76 73 133 76 74 132 76 75 131 78 76 129 79 79 129 79 82 128 80 84 127 82 85 124 84 88 122 86 88 123 87 87 125 90 86 126 91 86 127 92 87 127 92 89 125 93 92 124 95 92 123 97 91 122 98 91 122 100 91 120 103 90 121 104 90 122 106 91 122 105 92 123 105 92 124 106 91 124 106 91 125 106 92 126 107 94 127 110 95 128 110 96 129 112 96 130 113 96 130 113 95 131 115 94 132 116 93 133 115 93 134 115 95 134 117 94 134 120 92 135 122 91 136 123 91 137 125 90 137 126 90 137 127 89 136 128 90 135 128 71 136 74 72 135 75 71 134 77 71 132 77 72 131 77 74 131 78 75 130 79 76 128 80 79 128 81 82 127 81 84 126 83 86 125 85 87 122 87 87 122 87 87 123 90 87 124 92 88 125 92 88 125 93 90 124 94 92 123 97 91 123 100 91 121 101 91 119 103 91 119 106 90 120 107 91 120 107 91 120 106 91 121 107 91 121 108 90 121 110 89 122 110 89 122 111 91 123 112 93 126 113 94 127 113 94 128 114 92 129 114 92 129 115 91 129 117 90 130 119 90 130 119 91 131 120 91 132 122 90 133 124 89 134 125 89 135 128 88 135 130 88 135 131 87 135 131 87 134 130 73 136 74 73 135 76 72 132 76 71 131 77 70 130 78 72 131 79 74 129 80 76 128 81 79 127 82 81 125 83 82 124 84 85 124 85 85 122 86 86 122 88 88 122 90 88 123 92 89 124 93 89 124 94 90 122 96 91 121 99 92 120 101 91 118 102 91 117 105 91 117 107 91 117 107 91 117 107 92 117 107 91 118 108 89 118 110 88 119 112 88 119 113 88 120 113 89 121 114 90 123 113 90 126 115 90 128 115 89 128 116 89 128 117 89 127 118 88 127 120 88 128 123 88 128 123 86 129 124 86 130 126 86 131 128 86 132 129 86 134 133 84 134 134 84 134 134 84 133 132 73 135 75 73 134 75 72 131 76 70 130 78 70 129 79 72 129 80 73 129 80 76 126 80 78 125 82 79 123 84 81 123 84 84 123 85 84 123 87 84 123 88 86 122 89 87 121 91 89 121 92 90 120 95 91 118 97 91 117 99 91 116 102 91 115 104 91 115 107 90 115 108 91 114 108 91 113 108 93 114 108 91 116 110 89 116 111 88 116 112 87 116 113 87 118 115 88 119 115 87 120 115 86 123 116 86 125 116 86 125 117 87 125 119 86 126 121 85 126 123 84 126 125 84 126 126 83 128 127 83 129 128 83 129 130 82 130 132 82 132 136 81 132 137 81 132 137 82 132 136 74 132 75 73 132 76 72 130 78 72 129 79 72 129 79 72 129 80 73 128 80 75 125 81 78 123 82 80 122 84 82 121 85 84 121 85 84 121 86 84 121 87 84 120 88 86 119 90 89 118 92 90 117 95 90 115 98 90 114 101 90 112 103 90 112 106 90 112 107 90 111 108 92 111 109 92 111 110 92 112 110 91 113 111 89 115 114 87 115 113 86 116 113 86 118 115 85 118 115 83 118 116 83 119 117 83 121 118 83 123 120 83 123 121 84 123 123 82 124 124 81 124 126 81 125 128 81 126 130 80 128 131 79 128 133 78 129 136 78 129 138 79 130 139 80 129 139 81 129 139 74 131 77 73 129 77 73 128 79 74 128 81 73 128 80 72 128 80 73 126 81 76 125 82 78 122 82 80 121 84 82 121 86 84 119 86 84 119 87 83 119 87 83 118 88 84 117 91 87 115 93 88 113 96 89 111 99 89 109 101 89 107 104 89 107 106 89 108 108 91 108 109 91 108 111 92 110 113 92 110 113 91 110 114 88 111 115 87 113 115 85 113 114 84 115 115 83 115 116 82 115 117 81 116 119 80 117 120 80 119 122 80 120 124 80 120 126 80 120 127 78 122 129 78 123 130 78 124 132 77 125 133 75 126 136 74 126 138 74 126 140 74 126 141 76 125 140 78 125 140 76 128 80 75 126 80 75 127 81 75 127 82 74 127 82 74 126 81 75 124 81 77 122 81 78 121 82 81 120 84 82 119 86 83 119 88 83 118 89 82 118 89 82 117 90 83 115 92 85 112 94 87 110 96 89 106 99 90 104 102 90 103 105 89 104 108 89 105 109 90 105 111 91 106 113 92 108 115 91 108 116 89 108 117 88 108 117 86 109 117 85 110 116 84 111 117 82 112 118 80 112 120 78 112 121 77 113 122 77 115 124 77 116 127 77 118 129 76 119 130 76 119 132 76 121 134 74 122 135 73 123 136 72 123 138 72 123 141 71 123 142 71 122 142 72 121 141 74 120 141 76 126 81 78 125 82 77 125 82 76 125 84 75 125 85 76 123 84 78 122 84 78 121 83 80 119 83 80 117 84 81 118 86 82 118 87 83 117 87 82 116 88 82 115 90 83 114 93 85 112 95 86 108 97 88 105 100 89 102 103 89 101 106 90 101 108 90 101 110 91 103 113 91 104 115 91 104 116 90 104 117 89 105 117 87 105 118 85 105 119 84 106 118 82 106 118 80 108 120 78 109 121 76 110 123 76 111 124 75 112 126 75 113 130 74 115 130 73 117 132 73 117 135 72 118 138 71 120 139 70 121 140 70 120 141 69 121 142 69 121 143 70 119 142 72 117 142 72 117 143 77 124 81 79 125 82 79 124 82 78 123 84 78 121 85 79 121 85 79 120 86 80 119 86 81 117 85 81 117 86 80 117 86 81 117 87 82 116 86 82 115 87 82 113 88 84 113 91 85 111 94 86 107 97 87 103 101 88 100 104 88 98 106 89 96 108 89 96 110 90 98 113 91 99 115 91 100 116 90 101 117 89 101 117 87 101 119 84 102 120 83 102 120 81 103 120 78 103 121 77 105 122 75 108 124 74 108 126 73 109 128 72 110 130 71 111 131 70 113 133 70 114 136 71 116 139 69 117 141 68 118 141 66 119 143 66 119 142 67 119 142 69 116 141 72 114 141 73 114 143 78 124 81 79 123 82 80 122 82 81 120 83 80 120 84 79 119 85 80 118 86 81 116 87 83 117 87 82 117 86 81 117 87 80 116 87 80 116 87 81 114 87 82 113 87 84 112 90 85 109 94 85 105 97 86 101 102 86 97 105 87 95 107 87 93 109 88 93 110 87 93 112 88 95 114 89 96 115 89 97 117 88 98 118 86 99 119 83 99 120 82 99 121 80 101 121 79 101 123 77 102 124 74 104 126 72 105 127 71 106 129 70 108 130 69 109 132 67 109 134 68 111 136 68 113 139 68 115 141 68 115 141 66 117 142 65 116 142 66 115 141 68 113 141 71 112 141 72 111 143 79 124 80 80 122 81 81 120 81 81 118 82 81 118 83 81 118 85 81 116 86 82 116 87 82 117 88 81 117 87 81 117 87 79 115 87 79 114 87 80 112 86 81 112 87 82 110 90 84 107 95 84 102 99 84 98 103 85 95 107 85 92 109 86 90 110 86 90 110 85 90 111 86 91 113 87 92 115 87 93 117 87 95 118 86 96 119 84 96 120 82 96 121 81 98 123 79 99 125 77 99 126 74 101 127 71 102 128 70 104 130 68 105 131 67 105 132 65 106 134 65 108 136 65 111 139 64 113 141 66 112 141 66 112 141 65 113 141 67 112 140 69 111 141 70 110 142 70 109 144 