P3
#HOLA
50 50
255
213 169 217 238 128 108 159 203 126 204 110 125 172 75 253 104 47 112 36 62 239 172 223 213 20 26 28 164 158 0 100 68 172 32 231 90 130 20 104 166 103 118 162 116 211 75 40 141 252 121 78 180 86 164 200 164 137 255 42 189 231 11 208 43 58 228 169 120 143 191 114 242 217 186 189 154 232 63 238 185 154 92 141 56 207 137 108 23 23 47 156 127 243 173 58 27 196 141 78 178 210 248 131 239 82 173 246 74 236 165 23 212 19 64 47 43 204 40 192 154 118 80 126 23 159 106 145 208 180 109 31 245 228 86 198 163 214 239 12 117 151 205 89 33 153 190 227 57 47 30 244 172 169 18 215 120 185 206 164 242 104 142 160 47 84 22 59 253 91 40 80 158 46 41 139 188 75 29 210 92 14 88 245 144 187 57 170 216 207 113 188 18 202 82 52 115 229 175 149 240 173 139 119 58 139 63 131 71 217 183 159 131 46 91 107 119 174 114 218 171 215 129 3 6 92 40 220 207 87 59 249 150 170 113 54 96 181 136 149 6 192 43 139 223 188 244 93 219 22 119 3 173 41 207 200 154 209 226 116 158 219 122 175 41 132 142 187 107 145 118 163 152 102 183 249 126 224 16 9 104 3 206 71 180 181 101 218 106 125 252 174 168 26 155 87 238 63 239 9 204 136 181 39 67 59 191 42 123 166 69 62 124 185 149 246 65 48 56 223 203 21 32 80 43 125 202 10 185 136 142 27 129 254 50 166 132 25 142 235 66 228 176 177 184 11 173 64 124 11 144 152 158 147 198 196 246 67 180 44 18 123 17 120 120 212 161 106 205 159 120 17 255 242 126 242 189 69 65 81 219 205 205 178 108 226 48 107 255 225 75 140 60 83 50 144 245 62 101 164 218 214 232 183 147 73 14 199 255 209 2 24 98 19 22 125 118 113 21 103 151 181 130 198 72 84 29 128 195 65 61 32 39 240 48 122 10 191 149 193 56 254 163 22 83 106 38 220 247 103 202 141 45 52 254 116 60 82 216 98 81 28 61 92 252 47 251 207 117 13 253 89 103 137 144 43 48 254 44 165 99 134 37 73 150 41 124 137 18 167 53 34 141 105 78 157 91 98 140 177 172 180 196 191 27 67 99 93 155 229 147 29 84 19 253 92 230 12 155 236 90 143 67 11 127 24 151 89 39 115 164 133 170 68 190 253 103 159 249 155 228 177 216 180 32 29 78 206 104 186 119 121 62 149 138 217 73 85 110 144 44 42 121 28 202 66 190 5 12 181 62 100 152 169 233 178 121 37 177 82 155 12 219 41 235 4 228 249 171 44 224 229 76 89 113 164 120 2 113 255 168 51 54 73 157 42 205 94 131 35 247 24 154 102 13 223 199 28 21 78 67 23 3 231 208 105 57 209 233 245 173 66 199 126 83 61 163 230 42 202 127 28 76 46 148 126 76 218 188 152 142 65 101 124 149 73 135 56 37 10 102 116 48 116 168 123 140 30 134 150 154 160 105 58 96 242 96 223 161 94 255 134 171 214 220 109 76 251 239 218 111 122 170 169 8 252 19 48 205 14 37 128 132 67 237 186 3 118 244 88 29 96 177 22 8 212 23 80 174 198 172 158 74 126 30 45 121 167 148 174 205 202 133 37 241 184 168 8 239 251 38 141 71 1 162 190 200 117 191 125 51 101 221 89 36 224 195 196 31 243 141 18 156 99 70 196 4 63 149 51 145 208 188 209 36 124 108 114 142 204 219 188 180 96 253 239 39 2 132 112 224 141 69 76 219 66 242 58 44 61 134 93 246 149 96 59 25 86 168 29 15 60 241 63 173 88 72 56 104 101 185 61 104 188 11 193 195 38 141 41 31 47 46 100 146 16 172 198 205 26 205 147 237 67 168 23 208 217 75 218 121 140 231 143 160 77 121 138 64 51 159 43 68 22 141 99 6 3 62 162 187 91 176 120 172 147 213 75 195 71 22 146 249 215 118 148 98 113 205 103 121 50 172 125 125 177 201 243 106 93 193 118 171 7 54 192 96 8 173 7 71 199 167 207 89 35 227 229 89 10 160 19 116 62 178 12 185 33 208 170 134 168 91 241 32 124 206 36 66 5 214 161 181 25 12 84 141 112 98 62 47 97 87 89 162 17 98 137 149 25 90 135 130 177 213 33 21 249 16 243 234 106 234 183 237 205 121 81 112 173 87 71 16 101 20 204 158 59 32 103 113 115 152 85 106 166 171 90 14 175 192 254 55 82 223 225 134 103 194 10 122 239 190 94 96 187 227 165 77 173 112 11 78 177 17 151 58 216 68 151 65 129 89 196 245 173 119 59 171 239 171 210 42 203 223 95 26 158 100 67 25 28 10 38 150 48 250 233 10 142 184 235 187 85 56 205 149 216 170 58 246 201 19 148 203 231 50 57 112 155 138 224 135 121 243 245 144 167 76 98 45 6 13 140 44 7 233 115 156 157 33 101 214 179 248 58 33 202 194 12 245 125 230 111 162 115 192 76 84 76 136 122 128 239 233 93 187 54 50 226 72 113 247 20 10 164 15 130 5 68 25 23 119 185 231 245 152 76 254 243 190 38 199 35 224 56 192 75 21 101 231 254 42 249 20 226 91 73 180 26 188 132 112 43 90 134 102 192 201 107 66 81 164 157 213 63 78 20 14 123 154 240 165 118 147 198 208 107 67 45 197 55 19 216 215 30 170 42 197 28 36 137 239 143 179 215 175 157 32 121 51 215 23 20 11 22 94 9 33 234 93 146 215 70 243 168 3 193 196 123 227 192 119 65 247 255 220 206 113 147 179 245 135 55 31 241 80 124 64 162 140 83 231 132 154 74 34 58 67 0 176 223 116 232 188 69 218 69 177 105 232 123 208 162 158 239 239 241 200 242 112 165 86 83 240 53 55 255 71 142 103 245 56 164 194 207 156 8 236 186 179 33 125 59 87 109 216 251 49 102 133 69 181 46 211 99 237 99 144 112 133 194 38 72 17 119 154 67 57 175 210 76 79 231 255 137 156 232 85 84 57 57 161 218 232 156 220 107 132 144 178 171 85 114 1 24 93 235 176 156 108 66 36 251 239 8 202 114 247 116 103 118 30 62 68 79 73 2 191 88 29 222 241 101 105 200 53 194 137 98 14 147 63 105 51 42 223 157 34 245 224 200 100 75 126 53 245 182 221 245 214 230 33 155 229 122 225 153 76 237 39 89 213 210 203 121 242 101 193 5 160 130 234 231 55 85 92 137 63 28 17 151 30 233 43 223 163 229 142 129 181 172 214 139 22 220 63 217 167 88 53 10 45 157 234 15 52 195 115 57 205 38 113 142 159 70 236 53 114 122 131 1 34 4 227 98 9 138 220 31 230 29 164 196 0 177 52 186 142 30 3 22 39 115 216 13 123 125 31 197 163 145 142 48 99 130 215 168 44 9 129 120 123 34 72 151 154 55 45 139 56 195 233 213 27 164 231 48 4 8 182 113 203 236 208 225 198 59 33 4 83 255 86 80 76 218 161 71 185 170 214 114 76 229 161 66 45 66 86 225 196 133 175 42 3 126 74 219 240 16 241 248 188 5 70 116 23 204 183 70 198 78 109 119 65 241 151 108 208 125 60 26 41 171 121 75 248 73 99 209 190 39 189 172 207 91 180 91 87 83 158 43 237 161 71 117 227 68 65 66 105 48 179 254 38 225 40 253 47 159 8 244 0 20 188 181 244 217 1 126 58 235 214 18 144 32 214 154 171 161 175 61 79 202 149 122 227 5 238 13 40 70 238 49 216 127 211 24 230 59 100 152 104 143 54 114 42 4 102 43 180 184 63 135 136 226 161 106 208 68 236 118 172 186 69 223 108 43 184 159 189 12 159 1 158 41 233 181 185 202 92 139 216 55 69 255 140 32 195 225 73 39 244 159 35 218 193 251 124 52 140 23 98 223 196 132 77 200 93 77 67 119 143 199 106 120 146 185 75 57 81 116 161 34 104 26 194 236 220 0 105 150 200 244 144 15 32 195 13 131 72 9 252 18 105 40 56 148 2 17 101 204 100 77 12 110 250 205 140 34 5 3 24 252 138 152 222 19 64 2 103 10 146 190 227 172 68 4 254 200 159 76 98 241 192 186 174 228 59 76 53 55 24 100 239 181 152 145 143 213 242 84 78 214 75 28 22 18 190 86 51 172 200 27 154 100 192 100 217 54 156 113 186 56 156 145 251 35 75 204 248 51 245 197 191 231 202 204 4 169 128 137 53 233 129 170 150 57 155 170 166 154 156 213 122 137 24 182 167 167 253 236 77 46 239 218 124 48 226 28 84 145 206 48 63 39 96 41 149 133 129 117 53 107 132 221 60 73 4 103 232 176 237 99 45 137 36 142 198 116 163 2 225 33 80 49 80 205 214 91 22 44 125 142 5 183 107 85 162 111 143 226 72 179 252 228 138 1 222 222 127 176 103 59 185 120 227 206 245 235 121 145 142 237 20 99 116 22 223 124 40 179 84 247 237 40 212 60 91 196 134 107 185 208 97 120 126 131 99 221 66 70 239 87 33 166 252 208 145 141 103 17 24 177 78 208 95 194 3 140 197 151 49 29 13 93 248 101 195 92 30 66 28 224 47 192 78 227 94 175 97 133 192 31 15 83 230 163 229 129 50 19 75 247 3 43 239 23 197 16 233 165 171 245 195 73 112 44 158 249 79 11 94 44 183 224 58 213 100 18 135 208 138 168 73 112 35 192 179 215 186 243 28 226 122 6 160 145 25 153 41 242 63 21 48 158 47 108 79 34 233 39 202 28 115 40 181 27 211 224 210 29 58 175 210 145 206 250 76 41 254 3 214 48 36 152 191 223 24 167 251 113 183 173 14 248 100 255 43 100 68 104 123 104 243 45 104 93 185 30 160 97 8 51 27 195 38 241 98 164 223 104 52 160 231 253 15 83 74 180 76 84 180 114 146 133 194 71 69 215 160 242 192 172 124 190 33 26 229 221 2 253 97 80 200 234 3 81 146 169 67 137 41 86 172 166 101 253 31 93 187 12 159 82 138 200 47 115 53 40 119 40 249 107 180 225 255 42 101 121 247 2 113 17 186 75 77 178 45 142 16 219 101 150 111 141 0 234 153 148 55 154 23 254 115 124 3 241 122 190 102 231 59 197 236 82 70 153 231 111 4 15 126 151 114 49 18 193 100 207 171 93 8 119 225 49 127 100 83 223 104 101 86 23 173 235 229 177 197 74 195 217 189 46 255 123 104 250 114 148 53 152 166 51 15 200 82 138 151 160 150 41 155 176 109 192 69 243 128 207 15 197 136 247 174 37 80 104 250 153 37 59 139 88 50 21 79 83 250 192 41 119 130 191 42 177 205 221 170 201 126 202 91 57 140 11 7 221 108 195 114 243 21 170 167 88 31 155 112 52 151 6 189 204 88 244 246 158 247 0 69 219 84 47 236 111 226 174 249 248 33 232 81 104 56 185 55 194 80 147 122 215 110 162 92 143 149 42 36 18 217 137 81 238 204 245 172 131 155 42 184 37 166 13 123 136 19 161 125 75 165 49 236 134 161 34 146 205 115 209 53 210 182 225 140 135 52 121 64 76 227 231 222 255 35 232 100 17 36 112 119 197 185 184 48 12 128 119 78 135 164 125 15 199 199 158 163 5 82 231 118 164 75 5 1 205 212 71 205 36 147 39 6 86 54 95 134 156 10 41 147 213 19 111 164 147 233 48 201 113 109 151 140 168 197 45 157 214 91 125 126 28 175 61 50 234 216 15 26 51 62 116 11 53 54 38 67 149 228 125 222 68 12 211 39 91 250 126 25 162 207 90 70 219 72 180 240 107 59 225 231 40 59 174 188 129 178 207 255 195 58 227 210 91 60 124 219 155 76 160 141 215 100 156 137 86 6 238 51 48 63 12 82 55 149 89 30 24 169 176 248 208 225 239 50 241 79 120 35 148 187 130 54 255 179 97 226 119 104 106 229 217 91 191 135 161 205 237 134 131 255 215 205 29 196 77 43 23 135 37 191 221 253 143 217 179 26 119 4 174 224 112 142 43 229 187 74 207 165 89 253 175 227 78 163 124 167 124 73 206 27 112 107 146 135 37 0 12 181 173 145 225 251 52 163 131 202 130 176 176 226 109 199 114 220 87 40 189 47 239 145 226 60 79 39 3 144 227 252 2 109 215 59 31 169 226 30 212 213 180 159 27 79 41 244 134 150 177 202 255 73 127 209 91 233 227 116 149 230 76 241 107 27 61 177 216 248 0 245 172 167 88 29 165 0 206 15 16 255 91 96 92 17 120 35 192 17 56 63 11 154 53 33 224 236 16 93 161 229 86 1 22 151 61 221 111 200 74 56 57 228 84 218 121 110 196 36 1 24 44 215 57 96 31 245 115 128 95 251 211 26 230 52 163 34 229 34 39 157 22 8 252 100 59 97 195 59 45 147 210 254 61 106 100 28 139 162 216 37 73 45 56 51 142 94 224 145 79 34 156 36 38 150 76 202 20 134 186 141 212 226 14 94 60 93 133 240 119 45 41 23 236 207 220 1 228 90 235 108 194 47 77 141 239 98 125 147 206 132 7 225 210 39 243 23 212 25 178 78 9 17 26 205 57 94 142 119 38 136 185 1 152 0 19 27 225 13 236 136 199 91 183 205 61 100 142 159 166 99 16 202 74 181 24 79 73 83 156 118 211 190 158 208 249 20 199 127 198 211 46 71 11 29 143 84 202 213 137 97 231 255 78 140 150 197 24 190 30 123 62 12 36 42 146 220 206 78 84 151 101 2 229 45 17 201 119 162 210 238 232 219 5 95 168 47 208 88 110 214 250 173 69 160 105 245 245 219 112 34 194 204 148 141 91 65 60 108 112 149 233 30 145 25 242 36 6 123 232 82 27 101 122 46 8 106 67 184 196 233 221 231 86 71 12 189 133 88 26 72 47 25 200 234 220 225 218 180 214 80 172 181 78 145 237 138 136 100 82 20 32 119 20 78 105 249 85 57 61 75 64 48 41 52 159 36 68 234 0 205 239 118 143 24 125 33 108 189 67 173 28 8 239 128 146 54 223 136 246 84 237 106 252 119 112 117 146 189 216 69 176 240 182 119 137 59 151 113 43 77 134 239 28 195 19 2 204 159 30 35 5 199 35 158 47 24 140 240 194 187 246 170 55 250 180 47 143 60 52 71 252 109 73 150 7 92 190 16 198 182 4 170 186 48 65 142 236 30 158 40 38 187 11 50 64 213 216 238 2 63 90 5 34 247 125 185 90 40 248 216 236 20 33 40 89 192 181 160 222 27 104 246 221 38 51 156 174 224 62 149 210 37 27 140 242 158 191 182 32 94 130 67 75 25 202 184 77 27 4 4 81 127 159 100 234 47 236 150 97 122 4 38 163 51 12 10 0 13 15 130 158 198 56 196 52 24 78 229 69 19 126 86 49 5 219 131 218 39 20 249 68 220 191 190 81 160 233 123 207 24 253 98 217 53 114 187 133 140 17 190 211 49 18 165 183 88 146 155 88 229 224 2 122 104 51 135 57 200 234 117 234 200 83 151 51 4 121 198 108 71 118 117 168 120 104 141 224 181 25 37 245 124 187 165 136 5 166 50 201 84 217 137 15 182 148 117 45 155 163 209 42 136 113 215 3 181 247 250 184 69 9 50 207 177 62 34 66 142 184 67 146 139 61 60 178 233 83 125 51 250 251 223 248 231 21 206 23 151 220 234 55 54 109 9 196 185 219 75 180 150 60 63 167 47 159 242 112 19 75 0 100 246 139 225 157 153 98 197 114 35 210 110 24 176 237 161 27 130 232 75 29 224 193 31 235 154 63 146 157 182 58 110 171 121 74 174 4 13 60 41 165 161 112 86 151 181 195 160 74 150 120 59 198 47 175 52 250 71 224 161 140 129 221 117 65 222 146 147 53 60 122 201 105 149 140 118 209 95 206 156 163 222 157 117 73 251 250 153 3 191 41 114 177 191 253 239 249 208 226 153 163 64 21 198 14 100 107 22 191 64 62 125 179 201 145 247 77 160 89 6 71 93 88 145 129 84 167 222 70 37 78 46 173 27 160 184 119 24 209 158 154 236 65 66 134 62 222 41 255 101 255 75 110 172 163 242 166 36 147 222 54 88 184 22 46 68 200 136 131 34 85 207 51 213 75 201 234 242 122 242 58 150 55 211 200 156 113 222 4 186 170 137 248 44 96 189 229 153 167 3 21 3 9 102 93 45 102 197 122 160 182 63 90 5 177 197 155 106 230 100 173 83 236 162 167 141 9 21 58 245 98 205 235 128 186 22 128 44 5 247 63 116 35 20 51 6 206 19 235 236 44 82 44 184 54 133 100 34 188 154 187 98 11 83 88 161 48 29 121 137 75 113 105 98 18 104 137 149 200 98 94 25 242 127 76 235 94 209 113 106 31 14 90 222 63 67 1 67 203 156 125 83 31 219 120 237 9 67 48 230 32 166 109 232 207 205 7 69 101 254 205 250 152 214 37 32 150 241 68 118 143 250 203 123 66 251 201 116 160 100 124 52 203 148 63 55 115 38 8 240 72 26 120 126 251 97 13 3 124 55 111 68 106 125 228 9 156 56 190 29 108 36 177 211 57 104 8 73 202 109 205 218 141 12 80 217 189 38 81 36 231 110 129 186 190 67 115 237 79 176 236 31 181 107 2 231 22 32 180 101 38 158 1 222 134 43 13 6 172 23 214 189 12 80 10 212 42 30 26 42 32 120 165 145 143 214 5 198 226 72 102 78 171 23 49 144 95 131 142 209 36 173 184 185 227 103 174 40 76 109 219 85 217 234 223 225 196 117 54 25 199 80 253 103 155 1 37 171 107 42 51 125 180 49 131 150 233 86 181 76 139 133 229 229 77 24 98 161 174 35 5 168 233 99 253 71 17 195 241 109 207 85 16 170 195 223 162 216 199 43 127 159 154 201 88 147 103 239 151 64 92 161 254 38 237 44 232 134 195 1 101 102 111 87 156 124 163 167 98 103 157 225 66 107 124 185 93 229 113 211 119 31 131 194 124 78 252 137 45 53 78 162 67 118 169 195 162 192 220 31 216 247 34 240 8 67 115 21 72 79 134 184 149 248 107 235 13 152 9 60 38 119 76 92 244 173 112 198 68 104 145 171 89 112 211 175 12 10 3 96 119 64 93 126 201 149 118 12 46 61 120 199 200 48 95 155 20 78 10 18 112 157 79 36 250 145 80 80 174 94 109 27 184 250 23 58 66 146 32 254 119 123 168 121 220 175 17 164 17 123 217 76 234 206 170 209 59 166 112 39 239 220 18 171 250 15 189 177 27 147 69 177 243 92 217 126 34 4 167 125 107 205 220 114 79 185 142 122 237 152 57 25 91 236 44 151 166 7 98 74 118 72 237 93 59 188 60 122 178 2 184 54 153 129 244 36 83 134 138 214 42 79 13 45 82 112 79 112 213 253 197 21 82 62 45 169 82 159 163 165 79 67 74 16 159 186 189 235 48 93 206 97 11 83 236 112 238 130 63 176 81 109 217 243 211 5 10 168 117 142 158 11 141 243 161 148 99 3 38 144 65 207 10 131 3 168 106 132 159 245 52 143 93 98 209 152 234 171 214 85 103 35 147 200 235 11 48 189 94 145 111 184 52 140 5 118 94 22 78 131 255 232 120 2 87 188 229 253 1 40 79 97 87 123 119 95 22 41 59 54 33 65 89 138 49 144 127 132 154 52 250 71 221 159 9 147 97 105 195 88 220 168 82 67 93 217 11 170 90 250 208 58 16 31 100 233 57 45 189 98 16 248 126 9 201 191 169 97 154 179 207 222 246 19 214 212 194 29 123 65 126 66 38 10 199 54 31 104 130 112 39 10 150 89 92 39 165 125 22 1 207 59 99 103 0 80 210 211 97 86 225 233 92 10 54 246 98 219 253 209 22 23 98 202 244 36 61 170 200 96 79 5 189 233 163 7 45 141 136 92 203 208 197 153 53 133 14 37 137 103 216 42 105 74 72 211 68 67 45 142 41 43 135 250 173 68 64 40 33 243 207 196 119 148 157 220 32 142 204 116 115 2 196 239 54 199 114 170 236 59 230 187 186 253 126 94 250 2 32 101 181 166 168 147 18 206 27 64 200 237 167 27 108 82 18 224 203 205 171 111 159 138 3 1 249 40 204 250 193 75 141 12 6 20 64 29 188 204 207 143 28 153 14 106 43 52 58 1 41 168 109 95 184 21 172 20 51 93 121 59 142 171 27 13 87 28 97 166 50 192 179 194 243 69 242 126 184 117 224 158 167 26 253 24 243 123 177 190 158 193 58 38 93 79 182 254 83 73 121 129 11 175 54 158 12 128 135 189 126 168 61 212 104 199 209 28 90 185 157 247 235 70 121 183 47 196 129 201 159 103 47 190 206 154 203 12 73 130 144 90 251 66 93 179 236 243 150 28 252 128 186 63 73 170 138 104 159 15 152 224 60 101 153 173 44 174 75 88 199 231 188 155 19 5 243 195 102 97 224 241 220 188 50 186 187 138 154 239 230 77 77 35 169 86 55 82 64 118 16 6 220 148 203 126 146 31 253 208 130 24 182 219 241 189 125 250 239 51 232 217 75 112 207 54 67 153 233 130 207 198 113 242 251 241 62 174 172 97 160 228 49 143 42 104 34 168 13 9 232 233 32 37 75 129 232 15 36 122 0 20 20 219 104 105 144 37 13 197 37 85 11 145 171 24 77 255 230 47 163 247 1 73 162 158 214 86 174 34 150 44 59 64 105 218 52 144 70 28 93 190 157 13 220 170 173 20 92 115 19 91 243 55 155 133 52 93 39 74 57 64 238 202 66 247 150 12 167 210 106 219 151 41 117 138 30 112 122 157 161 46 136 63 135 97 47 77 68 217 10 144 197 208 9 44 160 181 77 16 51 182 83 202 231 141 183 176 131 167 237 5 159 253 35 221 40 226 30 0 64 244 26 91 196 149 84 28 54 7 195 9 99 90 77 148 61 19 55 34 114 149 207 137 15 220 150 192 241 168 12 162 155 218 131 102 253 47 189 199 143 222 20 105 17 72 95 50 247 49 137 208 226 107 132 23 246 196 138 244 116 194 80 35 251 199 211 241 133 132 250 123 232 49 45 219 231 52 159 222 121 54 250 31 4 218 39 132 3 108 222 185 75 85 205 57 19 195 66 235 251 25 147 40 49 130 92 76 47 104 63 200 211 254 198 146 93 26 199 204 59 128 143 2 252 80 117 68 151 190 56 139 193 114 166 146 67 167 184 98 56 1 85 176 134 251 245 241 106 45 243 128 17 255 217 61 42 37 166 201 71 137 73 133 14 142 223 177 222 169 55 107 101 72 44 69 179 105 92 250 98 71 40 149 181 81 55 159 24 188 35 91 78 89 199 15 72 61 194 204 85 26 224 97 239 65 46 125 207 205 207 171 63 157 204 14 79 223 46 132 148 38 253 139 213 186 200 71 189 74 220 243 218 252 206 157 55 239 133 201 14 200 200 105 8 174 129 247 115 31 60 196 210 18 21 97 44 5 11 84 70 46 149 208 95 41 78 97 158 112 183 255 4 42 152 26 115 192 216 93 49 147 116 177 255 9 184 83 173 93 122 49 83 80 189 180 226 10 201 192 150 86 98 97 69 115 236 180 172 193 233 167 59 34 146 126 117 14 136 252 76 187 137 21 57 142 153 172 160 47 59 57 84 47 64 212 154 49 159 179 211 131 3 253 35 140 246 235 205 177 114 39 74 85 69 122 159 39 3 4 132 171 96 166 25 159 148 7 83 110 171 154 76 95 217 183 230 240 164 166 111 3 129 20 69 9 88 16 236 72 211 186 224 127 10 65 54 50 199 89 122 4 22 62 215 238 1 99 63 165 222 115 97 89 134 22 218 228 19 220 46 244 61 89 128 97 168 49 204 128 2 66 43 239 116 149 147 162 200 214 201 109 161 64 135 138 38 77 77 187 204 158 26 58 102 23 81 136 203 105 198 26 114 240 132 40 151 162 57 101 131 67 245 79 222 161 49 62 44 14 102 69 179 89 13 170 108 2 78 187 69 179 232 166 233 135 192 1 196 242 8 225 134 56 49 212 172 164 126 46 94 99 0 209 202 0 127 95 215 99 177 9 161 158 154 76 148 226 158 255 19 178 252 182 76 161 54 106 254 75 218 47 185 244 34 41 248 148 212 168 169 226 206 146 78 22 68 30 235 10 18 105 81 233 227 85 156 187 59 91 10 131 208 174 113 120 252 200 48 104 116 211 49 184 83 202 14 183 91 128 197 70 30 127 186 238 194 155 157 176 96 200 220 27 206 92 91 133 83 58 83 106 201 245 254 206 140 208 30 117 237 161 195 31 67 16 46 229 210 243 49 140 161 219 109 100 27 53 93 58 247 199 107 26 234 192 131 94 104 216 177 239 217 8 109 110 214 239 177 2 93 168 144 143 248 44 218 220 130 203 28 110 148 143 129 236 160 40 238 44 101 14 186 249 148 250 103 40 247 192 248 86 218 249 253 11 140 254 6 126 83 79 0 22 25 57 213 69 15 25 23 155 171 136 100 137 229 143 36 55 4 26 191 247 76 184 95 226 80 61 44 178 194 28 34 79 223 19 106 231 17 228 56 167 194 205 19 186 178 74 3 191 34 174 163 54 31 112 11 111 184 45 181 230 95 95 127 42 117 241 25 162 151 7 114 243 19 67 58 211 13 187 86 177 39 88 232 166 70 218 67 127 100 224 97 84 113 90 89 65 120 177 182 57 183 183 16 197 231 220 163 174 48 4 254 19 22 240 182 44 76 218 156 208 252 8 197 183 142 115 201 182 224 219 242 54 208 196 96 82 218 91 134 107 209 94 149 184 195 211 82 118 192 146 94 107 140 188 48 197 104 104 129 219 173 119 32 146 72 64 226 113 178 168 78 18 140 9 164 92 237 109 167 239 86 54 252 150 150 9 209 159 237 88 242 150 124 63 163 94 51 231 73 248 212 170 185 237 114 50 30 44 155 189 57 5 75 96 235 168 34 162 11 161 76 108 15 100 152 127 98 197 114 156 56 190 58 146 231 103 252 203 177 241 80 152 197 6 46 225 134 219 35 34 144 148 121 100 226 67 254 126 142 222 214 130 140 2 42 94 109 204 102 58 176 107 202 86 11 49 222 113 174 156 111 251 215 130 200 70 182 229 112 130 239 167 164 200 56 108 132 244 35 209 250 37 252 115 252 9 22 225 226 180 231 118 210 85 110 97 36 39 191 123 152 43 36 183 139 81 102 11 249 202 152 105 231 115 148 23 70 49 238 205 174 8 15 139 40 147 199 19 132 214 171 223 26 153 190 122 113 68 193 120 228 132 169 127 238 166 146 100 41 220 48 183 249 142 193 208 132 2 157 17 125 185 102 173 145 15 202 71 113 176 77 37 46 142 110 159 30 135 35 200 61 206 219 219 127 58 62 173 105 32 234 105 144 225 156 27 222 246 19 215 184 174 219 239 0 35 142 52 187 11 111 85 113 101 179 1 111 224 115 71 206 96 197 128 207 108 17 146 73 231 52 161 47 76 43 162 76 254 204 207 71 91 0 189 102 243 190 163 249 198 142 2 190 8 148 113 26 188 224 0 58 205 105 28 2 199 219 139 33 239 18 228 35 130 221 9 66 46 124 221 194 247 129 221 19 65 147 158 151 14 202 229 123 115 154 221 200 114 146 114 161 157 181 213 129 90 61 11 109 97 127 244 103 183 133 57 119 143 108 50 96 233 1 89 172 100 219 102 128 227 23 35 192 156 137 242 59 233 151 4 221 236 56 239 22 163 216 203 253 100 114 188 132 131 161 215 184 76 174 223 14 173 120 86 46 53 128 59 215 220 114 20 242 98 75 14 199 184 37 50 69 47 19 30 163 163 132 183 235 211 111 131 88 255 198 172 176 49 252 137 33 227 6 118 152 142 75 191 141 184 2 89 124 205 74 236 6 102 218 246 20 147 113 94 134 29 52 64 105 67 176 143 87 94 147 36 84 171 136 15 250 250 97 217 152 22 224 197 93 163 131 198 168 82 251 88 168 149 128 99 221 57 134 59 70 1 43 96 223 96 88 109 40 126 34 79 241 77 105 157 236 1 202 159 195 103 207 197 0 142 80 104 85 99 120 92 133 142 7 179 88 127 94 41 112 199 223 249 237 114 150 84 122 8 166 118 167 227 91 72 239 73 68 201 123 71 153 112 225 213 205 247 145 216 46 241 99 80 200 141 195 28 189 144 206 69 116 184 0 170 39 247 14 126 188 187 210 104 182 154 53 73 204 94 28 169 176 101 118 182 168 152 76 159 137 94 132 190 149 245 38 45 15 88 59 46 167 119 152 233 0 42 167 241 222 207 122 57 129 209 23 243 67 35 154 184 185 90 193 177 206 175 95 241 26 53 207 42 119 116 224 192 20 125 79 121 164 24 57 25 186 88 187 149 22 244 118 148 98 50 224 57 154 17 193 36 72 146 140 232 45 229 88 52 104 139 246 68 244 113 103 31 40 201 237 245 30 216 235 91 20 252 171 115 33 20 212 201 33 99 199 151 1 212 162 146 161 234 240 22 112 122 63 199 61 15 227 57 22 45 17 18 70 231 232 215 236 89 13 122 208 59 42 45 123 223 144 189 103 194 216 189 249 91 195 21 164 102 232 227 129 136 218 91 24 177 156 234 56 161 161 246 128 163 187 174 246 103 39 214 12 204 254 130 170 31 144 138 23 96 43 238 252 112 16 140 4 121 68 124 79 126 244 208 47 32 75 146 244 213 245 43 140 190 249 52 10 151 229 98 102 58 74 194 148 64 105 134 111 65 72 227 171 251 165 244 208 171 24 218 19 14 123 198 111 254 20 183 73 223 154 255 249 51 49 136 124 207 48 73 81 190 249 9 190 128 102 246 165 18 228 243 104 75 253 60 57 162 89 39 46 20 13 8 235 214 34 139 30 107 13 177 34 153 157 35 171 184 253 237 22 133 63 192 82 155 197 29 214 41 174 239 60 108 29 128 197 129 17 225 254 59 245 140 92 197 212 176 7 102 129 136 184 254 64 80 127 2 226 195 224 15 68 235 109 92 253 179 1 158 66 53 127 122 205 3 220 100 29 22 228 201 51 119 32 63 144 193 144 96 209 123 54 34 108 125 184 250 40 86 247 30 205 191 144 84 100 201 89 71 131 104 252 60 170 171 75 118 176 38 160 31 12 59 97 193 209 249 23 30 26 117 38 160 175 222 42 44 41 45 103 50 134 133 74 165 200 84 46 134 63 139 185 195 225 61 254 196 57 106 195 140 237 3 148 174 31 37 135 202 51 1 187 222 27 204 236 69 214 216 28 166 172 239 221 154 31 188 105 214 15 71 227 180 205 103 89 141 88 160 161 86 53 8 107 49 146 153 141 114 236 224 94 45 205 194 127 112 190 142 138 18 156 152 3 97 100 174 252 47 230 60 8 147 119 248 71 211 26 60 171 186 78 236 92 225 146 245 159 41 39 114 121 100 190 59 223 173 202 2 126 11 147 87 101 174 153 218 20 86 253 167 100 3 188 170 76 88 170 174 68 136 7 62 41 151 166 133 251 106 194 56 203 250 111 228 167 249 152 156 143 215 166 162 107 34 201 64 206 161 7 207 195 25 227 35 105 85 161 155 148 31 61 155 50 232 13 78 5 162 119 83 147 75 235 118 111 124 2 99 7 51 174 1 239 30 95 244 55 226 243 95 62 195 234 7 176 21 118 124 129 55 11 144 46 251 116 82 254 196 13 143 152 213 160 155 155 230 200 220 130 10 95 85 142 250 81 22 53 195 146 222 45 238 244 80 59 238 41 205 175 197 38 2 134 38 6 89 224 213 233 74 57 187 185 250 16 194 177 147 243 251 148 209 203 219 245 114 42 84 138 8 7 39 151 48 58 247 213 135 121 29 229 129 88 207 137 251 9 23 20 218 49 44 74 229 91 141 63 217 119 92 162 85 73 107 44 30 193 252 149 252 198 108 104 139 199 23 174 214 24 165 122 158 92 220 191 48 245 15 91 116 112 252 87 10 253 230 232 88 173 170 153 10 2 115 141 220 114 103 108 98 253 93 209 69 63 118 230 128 186 101 22 215 250 215 60 45 56 186 189 160 239 85 7 214 98 222 159 74 56 20 203 170 234 71 234 36 53 25 168 85 114 43 38 62 135 250 25 241 241 175 79 81 218 40 243 19 218 221 169 201 165 199 34 70 74 241 179 11 113 195 7 106 147 84 82 212 85 104 151 25 38 199 62 214 0 191 251 230 247 78 94 57 234 255 13 127 231 65 45 194 251 209 95 194 75 172 199 244 65 229 151 140 117 197 60 65 197 69 160 250 153 93 141 228 222 91 179 253 191 229 187 25 0 163 133 213 217 233 45 40 174 185 99 117 134 148 213 216 180 61 119 85 2 188 0 169 107 109 95 36 221 118 232 242 132 205 226 145 221 77 63 156 191 13 43 75 39 246 88 81 85 91 154 222 47 85 113 97 169 94 63 237 204 132 49 224 148 92 214 78 154 63 145 174 153 150 185 91 249 190 184 227 74 138 87 192 228 111 115 92 202 220 181 236 63 182 64 47 174 2 236 13 93 106 102 165 37 116 121 118 62 117 10 75 128 57 212 32 41 194 185 117 8 85 44 116 98 230 141 16 145 221 17 152 162 89 16 49 246 102 204 126 207 130 3 157 98 44 89 167 245 71 164 183 22 136 8 77 54 82 66 217 138 220 186 73 29 228 157 252 5 241 133 46 219 40 153 11 168 162 19 150 174 125 176 179 250 23 150 124 13 5 94 252 70 176 21 36 169 88 198 92 174 219 94 163 181 14 