P3
#HOLA
50 50
255
250 219 75 85 50 166 99 88 174 161 68 153 49 216 185 39 8 12 145 184 233 201 24 101 5 196 164 254 121 41 219 183 220 227 233 122 199 180 12 207 180 238 50 242 108 103 8 255 9 106 180 212 242 191 97 221 105 130 44 146 34 199 140 153 241 92 201 13 239 205 177 37 64 199 252 106 13 200 142 249 72 68 166 113 82 198 120 123 84 184 167 126 96 167 100 112 150 9 56 104 53 1 135 64 227 195 113 141 230 209 139 208 213 229 109 20 98 8 179 166 16 117 172 0 242 6 74 161 127 157 250 100 117 34 131 50 67 148 103 202 243 100 215 191 221 178 140 45 3 100 7 209 209 54 239 148 117 68 213 176 188 40 243 233 186 74 168 217 94 11 167 253 95 110 204 72 219 78 26 172 193 146 250 216 56 74 145 46 251 124 167 180 97 119 49 61 108 168 80 207 219 43 1 232 83 177 116 238 106 140 17 117 246 202 143 35 67 8 245 54 147 26 87 179 106 47 226 113 186 172 131 57 69 110 238 42 58 108 40 68 202 225 225 186 120 255 72 179 100 54 44 134 204 107 44 8 213 207 98 1 83 120 161 219 230 126 182 235 45 235 48 141 31 212 59 111 185 239 37 136 7 143 161 82 193 174 183 16 67 226 39 14 69 45 156 101 172 151 161 216 209 157 124 252 183 16 182 205 219 142 184 91 38 120 1 119 64 178 78 220 105 101 122 220 128 240 96 169 23 43 135 241 109 150 156 31 122 188 225 200 45 87 167 239 190 21 217 238 88 170 245 98 222 155 243 109 74 120 123 206 181 233 62 166 251 30 223 145 227 246 93 219 168 180 243 138 115 103 104 60 147 214 159 177 41 39 213 28 46 97 117 182 3 130 35 38 233 197 66 58 203 28 173 180 62 190 88 89 72 59 64 53 128 115 45 169 40 146 57 116 192 83 221 22 228 191 130 146 190 225 168 57 112 70 139 201 58 238 122 50 11 0 137 22 243 180 152 165 193 255 7 105 65 104 242 174 14 253 0 239 5 106 42 87 154 243 31 85 235 33 219 3 123 212 135 183 99 246 43 138 26 14 168 65 132 243 187 79 95 201 89 2 111 179 134 72 214 49 109 187 179 208 89 165 237 36 249 239 140 253 29 228 198 64 7 142 25 167 128 151 29 133 137 184 233 242 241 225 202 97 43 197 207 74 119 173 49 163 252 28 164 135 0 98 217 149 153 62 146 177 58 234 92 16 79 113 219 144 9 130 255 149 120 200 226 15 196 244 221 15 99 32 221 100 15 135 6 217 209 91 189 162 37 250 33 137 97 252 151 13 155 68 235 253 217 92 221 226 157 78 89 79 199 92 220 149 8 213 128 2 154 29 239 111 233 223 255 28 79 243 185 59 2 4 195 46 62 106 201 66 139 140 211 8 231 19 228 91 190 72 152 255 232 56 133 22 166 131 97 214 234 117 30 224 4 111 91 242 15 121 100 133 88 115 34 239 184 225 198 201 123 74 69 206 76 185 165 112 134 147 246 236 157 73 213 252 72 254 99 101 112 125 91 102 205 115 98 67 4 38 73 68 17 226 81 141 220 186 41 211 216 13 66 166 178 202 148 97 19 168 47 215 206 91 227 197 2 194 43 32 183 253 186 48 208 45 143 210 38 163 55 200 202 128 83 175 224 68 116 107 251 201 239 1 205 209 26 242 18 244 254 25 158 202 34 110 196 117 224 66 143 28 137 62 17 81 250 244 56 186 150 0 20 11 79 155 145 103 165 250 55 11 87 51 104 154 233 135 18 22 22 178 155 161 74 145 220 156 234 133 88 37 247 160 123 20 249 129 40 131 85 3 5 247 87 198 198 221 102 253 9 33 117 176 114 33 201 247 158 108 234 156 141 191 161 250 95 246 15 107 20 65 119 206 53 209 11 194 102 209 190 178 53 171 183 67 248 222 14 144 23 107 238 15 228 112 102 195 31 231 247 44 176 200 129 12 70 102 216 128 216 44 112 167 164 187 139 211 176 98 159 88 170 235 226 74 218 65 170 150 186 198 9 222 200 222 43 96 212 161 27 242 151 69 188 19 152 21 30 161 242 169 230 81 36 241 205 179 11 58 93 144 97 203 140 163 38 211 247 85 15 149 174 140 140 123 217 217 24 80 251 121 7 37 194 211 183 218 17 180 114 184 193 35 233 54 22 164 140 57 3 112 127 215 218 27 204 81 80 162 19 32 182 35 18 255 133 111 34 144 129 3 251 67 114 188 15 94 255 73 203 184 101 32 8 229 58 221 35 14 74 30 75 61 99 14 212 98 21 122 84 154 71 221 57 207 37 33 97 49 88 18 69 129 34 24 148 133 60 73 144 108 234 211 86 248 94 185 97 64 173 61 92 87 182 71 130 137 70 89 41 59 228 75 238 201 192 69 36 212 177 80 56 140 137 88 122 91 231 137 211 72 59 243 170 212 158 70 163 87 119 194 157 43 58 208 48 83 8 36 59 64 67 235 139 25 93 222 173 198 145 181 233 148 91 159 224 166 32 84 11 183 53 173 102 51 168 232 245 146 163 119 112 82 21 123 237 189 78 196 18 169 238 251 165 141 103 214 191 130 26 48 37 102 209 157 136 9 80 211 240 83 252 197 251 231 64 128 182 118 239 152 34 7 59 125 173 26 154 52 189 159 0 113 99 35 112 55 65 239 163 250 21 172 155 88 250 194 168 194 247 21 170 198 164 235 214 148 99 3 51 35 190 178 46 178 59 184 148 128 222 95 166 52 18 90 31 191 141 16 244 126 185 83 29 36 45 20 180 200 91 173 81 187 107 248 180 157 141 122 31 222 188 216 206 42 100 52 236 87 123 66 151 208 20 122 254 92 160 248 156 218 199 94 112 67 16 243 55 69 109 43 162 222 30 189 211 128 244 5 156 245 187 233 225 0 207 101 150 211 206 31 49 4 251 245 243 111 60 43 108 185 169 53 53 210 109 5 27 227 1 177 96 175 131 26 43 195 158 162 23 137 155 249 241 51 178 59 243 171 156 59 243 77 45 158 41 0 176 56 50 224 165 181 61 89 210 146 106 181 148 200 51 162 15 46 138 165 140 184 127 7 198 174 147 92 101 14 90 89 71 25 211 140 147 11 29 3 30 126 2 212 70 2 158 59 163 81 206 248 116 22 70 255 121 122 223 254 70 53 138 47 238 230 29 206 87 189 222 75 145 5 51 80 186 1 229 98 236 7 237 191 109 13 36 230 55 17 192 168 137 90 15 236 50 242 135 223 136 170 51 19 179 155 150 8 238 27 232 79 47 41 192 91 115 134 192 120 123 238 119 57 172 193 63 10 220 240 117 64 86 152 244 166 78 53 156 31 36 150 133 200 49 157 148 69 237 229 216 88 26 136 82 168 114 121 91 7 186 228 152 191 229 109 71 210 173 24 89 153 248 127 227 81 10 223 239 157 125 187 152 88 94 226 218 34 6 168 234 2 197 228 155 214 246 91 143 209 143 86 179 34 71 144 181 142 118 192 38 228 124 142 236 171 78 233 186 229 103 82 18 231 209 7 204 146 193 238 48 20 115 238 255 87 40 15 98 147 100 232 31 74 105 11 117 0 69 216 243 179 174 58 46 173 94 111 114 194 130 141 93 196 209 119 12 54 96 239 171 51 166 126 61 154 226 194 78 95 189 111 218 13 86 162 26 73 85 71 104 64 47 16 152 190 203 46 113 104 95 0 147 231 2 47 193 64 168 156 202 192 119 224 174 1 204 63 94 61 182 66 43 180 81 72 252 34 176 22 189 95 49 74 61 245 236 236 224 15 67 183 193 21 147 31 221 238 176 45 188 175 181 159 83 223 190 238 167 156 157 12 12 42 6 42 215 152 192 31 35 213 255 71 151 144 13 132 196 206 50 247 228 235 120 174 6 151 120 186 145 247 44 220 139 170 11 77 156 212 53 164 173 187 216 211 39 175 42 195 55 72 171 12 78 101 242 243 233 99 36 25 103 29 95 66 85 208 116 124 230 181 39 115 168 216 164 175 129 185 39 113 233 183 156 53 118 217 93 76 22 74 98 89 61 25 110 255 63 29 242 92 100 212 95 86 179 198 157 191 71 237 161 194 158 70 16 37 209 38 127 12 247 40 59 114 81 88 96 36 81 143 68 242 133 251 69 233 77 106 24 55 38 173 234 37 3 91 107 32 109 48 96 173 103 193 242 81 84 55 2 169 64 252 8 221 3 32 64 154 213 20 44 12 222 90 195 47 214 250 247 138 12 250 22 105 49 26 8 139 220 188 232 173 0 52 83 71 91 4 72 132 113 252 6 220 16 109 7 27 47 207 226 87 170 219 3 65 7 251 69 161 174 81 128 166 104 89 49 216 154 255 37 176 144 42 199 164 9 130 104 207 130 203 39 111 129 128 198 225 255 14 229 185 128 80 180 15 173 118 245 148 163 16 96 202 52 210 98 220 251 228 245 30 148 1 75 242 84 113 164 191 36 155 37 65 209 146 129 57 15 206 39 91 243 75 255 130 238 95 178 77 213 116 174 231 208 212 113 114 180 164 101 201 226 27 103 108 214 36 193 132 208 59 126 102 100 7 31 1 71 198 213 48 109 148 237 161 228 189 125 245 190 18 149 200 144 75 186 9 191 142 200 104 99 92 100 40 34 98 52 80 76 209 38 26 63 106 94 215 50 172 160 191 81 178 58 233 17 68 231 218 182 110 196 123 167 147 133 30 165 146 4 179 204 99 81 161 142 90 162 13 159 57 40 157 83 32 95 148 114 1 167 224 163 194 32 242 94 239 128 50 17 5 116 180 167 79 246 124 106 217 17 162 10 227 79 248 13 66 233 77 148 193 157 23 147 49 5 14 62 79 184 230 231 200 129 100 144 139 11 8 10 104 90 38 102 245 234 145 7 131 104 225 123 216 54 148 134 204 50 21 46 10 237 105 102 125 222 180 196 65 235 40 114 154 178 24 22 172 133 87 216 42 173 168 38 139 116 155 183 205 154 64 83 14 54 45 52 204 5 25 64 56 240 111 22 157 208 167 118 61 213 148 188 167 45 185 112 76 254 124 158 8 90 11 248 107 227 82 21 23 99 230 197 140 214 91 218 8 117 89 242 196 207 169 140 57 56 125 70 26 147 189 254 93 205 236 115 58 23 161 249 163 162 80 251 172 197 173 189 133 0 118 80 167 124 117 46 53 162 86 122 143 34 143 34 175 48 156 63 254 193 166 66 249 233 85 164 4 115 182 185 32 110 177 127 20 57 34 32 154 30 201 84 147 115 240 131 182 238 155 207 128 112 32 136 210 26 219 216 246 163 234 195 2 229 141 147 48 134 160 85 15 193 70 144 152 17 3 79 192 28 92 19 125 254 77 125 252 232 30 222 247 37 230 2 251 154 58 220 71 166 188 225 42 71 31 47 204 179 81 148 172 117 195 10 138 64 215 21 250 160 248 217 27 131 219 190 206 150 133 231 79 61 140 51 159 134 64 40 240 202 178 149 170 147 249 51 132 240 250 189 167 123 255 67 121 81 233 140 253 165 74 66 112 235 198 5 200 86 89 85 176 206 167 82 255 151 34 238 92 152 248 1 11 19 187 159 239 124 101 150 81 205 249 225 109 28 79 84 158 102 45 25 97 115 44 52 183 97 162 6 209 199 68 64 191 230 241 201 35 237 43 65 192 169 62 209 153 54 195 237 184 45 108 151 5 52 191 158 135 12 237 215 80 159 174 170 236 193 154 77 81 250 14 165 244 178 113 130 190 127 161 117 119 26 125 123 138 105 76 27 134 55 191 196 223 246 57 104 183 143 231 223 238 45 175 122 210 199 101 211 100 152 69 159 29 17 172 189 187 36 119 206 216 55 74 161 2 32 153 208 118 197 2 103 153 215 230 173 92 6 33 175 253 213 152 226 19 151 179 71 88 40 196 83 158 74 222 154 75 113 176 21 11 191 229 152 134 63 204 147 104 70 105 11 97 80 54 191 3 41 142 200 133 55 42 204 151 168 14 148 170 27 236 20 232 127 59 197 66 99 38 64 18 170 214 9 15 79 246 52 253 221 13 202 48 15 28 16 104 91 158 185 43 164 173 193 204 38 133 21 80 73 227 184 192 242 227 125 196 92 63 246 23 183 250 55 93 167 21 53 189 253 103 137 42 172 69 96 66 120 183 0 104 217 155 206 208 119 66 145 83 138 164 129 192 226 248 118 172 14 202 104 168 237 79 241 79 197 107 110 201 85 254 113 197 100 31 178 54 117 168 53 2 247 57 119 32 59 233 0 74 129 106 23 18 152 199 48 125 162 155 165 49 165 149 51 171 230 224 98 171 119 157 91 29 92 174 67 217 190 86 54 84 140 172 118 94 161 63 216 240 46 99 108 159 105 0 69 152 198 37 68 226 139 238 242 129 110 37 15 47 19 65 118 209 45 241 125 93 228 5 75 14 178 38 184 45 149 77 90 136 172 24 48 155 15 87 159 143 237 52 89 246 143 76 110 138 42 201 195 104 187 64 112 131 1 48 227 254 138 61 24 174 130 13 22 66 240 176 16 175 249 157 66 57 66 121 213 32 178 103 190 23 101 123 32 126 69 27 25 120 45 237 182 68 36 165 48 253 216 130 4 233 158 65 86 160 174 69 102 243 57 189 217 44 148 127 250 198 68 112 128 109 129 114 215 175 61 175 116 11 92 104 12 48 228 4 124 89 106 181 157 179 36 40 145 197 115 119 57 88 82 36 39 2 166 53 192 89 13 48 112 127 146 190 90 249 167 231 149 10 247 207 164 15 32 182 84 106 96 197 183 230 125 24 13 28 11 119 134 191 160 206 247 222 231 56 192 218 164 80 119 60 102 238 116 102 33 117 121 182 238 158 140 13 232 198 12 151 138 206 168 158 202 26 233 110 132 251 50 4 70 145 52 94 155 213 42 109 58 58 217 221 42 120 205 91 85 21 136 48 142 91 209 134 183 90 83 36 46 31 59 128 226 68 128 11 113 31 114 41 78 206 86 123 73 45 211 89 173 204 113 151 171 33 251 5 33 207 27 15 64 61 66 218 227 47 244 108 122 1 73 189 24 232 15 94 60 167 166 239 132 250 16 210 196 233 123 216 123 56 221 71 216 57 244 176 157 0 138 106 217 29 197 37 91 79 134 89 203 123 201 241 187 54 14 18 195 142 108 10 33 239 113 129 231 135 245 61 29 254 141 161 125 5 255 193 128 214 211 50 168 184 97 142 247 158 104 175 36 228 209 91 74 166 142 206 76 92 72 139 3 217 47 107 250 182 173 115 182 255 46 198 157 220 167 202 165 82 65 222 209 101 38 243 94 163 223 229 6 115 243 53 56 204 156 182 84 49 91 222 200 208 62 126 47 128 93 82 96 96 160 202 55 201 215 252 81 228 95 56 33 45 172 110 241 245 10 216 51 50 70 210 28 161 59 45 169 8 75 33 118 36 35 255 36 242 234 255 108 176 118 229 234 228 189 148 246 109 148 65 240 105 21 225 225 90 254 132 210 41 196 139 123 174 66 133 105 178 210 9 212 173 141 139 53 11 111 34 161 32 229 225 108 148 45 33 78 97 174 238 70 148 180 128 165 177 240 131 11 230 203 191 84 45 70 37 97 75 202 163 254 187 201 42 119 90 200 195 77 157 225 167 176 184 167 179 147 132 226 128 231 66 57 72 138 103 188 211 71 255 192 167 113 32 129 3 178 51 32 76 227 34 131 233 19 123 123 161 160 185 24 217 156 82 171 252 7 53 175 163 182 67 216 180 250 169 232 168 2 253 12 223 149 55 50 157 251 53 120 242 42 13 206 22 131 228 32 113 71 24 108 21 80 94 35 184 169 177 87 13 13 28 104 80 116 37 48 113 210 196 64 251 177 22 60 36 27 68 147 212 206 92 113 251 185 102 106 230 230 33 192 109 124 220 48 196 210 48 214 122 56 10 164 86 72 27 201 76 24 49 167 154 35 35 83 186 11 146 128 125 16 225 142 101 205 229 80 145 249 47 129 225 243 244 151 179 177 189 196 102 237 78 18 31 4 233 232 54 141 176 14 90 227 93 139 153 82 172 69 187 184 145 94 104 29 2 93 108 72 245 211 217 24 17 249 136 38 29 114 245 252 215 128 233 248 255 181 255 115 0 144 82 103 19 205 11 189 14 115 25 69 84 165 235 53 206 21 86 72 173 195 9 152 125 112 209 227 201 19 1 60 101 125 107 26 26 194 155 63 19 108 25 86 128 247 98 13 56 173 183 242 133 163 209 111 241 255 11 82 154 114 54 80 216 4 222 119 83 197 39 163 89 83 89 133 83 15 57 123 117 225 191 149 134 186 248 156 61 85 1 5 185 55 126 108 76 62 247 159 185 145 245 188 174 116 114 39 152 248 117 223 67 36 60 200 183 183 116 11 61 84 163 20 209 182 129 69 79 193 171 114 50 190 148 82 76 87 28 90 245 12 127 175 152 104 73 95 80 130 124 31 224 109 103 138 41 139 156 229 168 85 144 47 107 37 191 188 16 210 15 191 131 212 46 21 154 4 238 185 250 70 114 25 138 254 157 194 173 147 44 62 56 161 44 27 151 179 169 221 41 221 228 97 130 59 250 57 167 129 144 126 103 129 234 177 67 106 98 148 153 181 238 77 177 47 188 146 150 168 53 157 124 103 20 73 0 21 123 241 199 119 61 42 98 138 226 242 208 3 244 159 7 48 12 2 210 154 46 88 23 22 168 230 100 106 84 71 71 80 103 236 214 157 211 253 162 57 153 211 207 18 224 54 18 216 116 7 141 177 49 205 72 199 213 188 12 4 15 117 214 153 216 229 30 245 226 74 83 213 203 143 222 76 55 245 120 210 21 190 65 188 95 151 70 93 128 57 231 209 216 219 233 53 44 40 52 62 22 97 173 219 217 146 8 186 243 52 100 106 84 1 13 191 85 126 84 197 109 201 215 184 9 236 82 118 26 96 132 118 116 234 6 131 97 77 185 101 81 111 50 248 115 74 245 88 30 91 68 180 205 78 217 101 74 110 157 43 241 122 31 185 21 112 72 158 212 235 133 144 77 62 154 49 178 115 19 197 19 182 243 108 113 156 25 201 32 218 6 35 52 153 204 63 217 145 166 115 95 63 177 171 137 153 247 243 63 56 105 109 176 21 81 248 6 97 137 249 116 237 211 21 114 78 207 123 210 24 40 234 252 93 57 239 192 49 112 109 94 79 1 149 73 169 174 192 133 235 83 3 190 49 153 102 197 205 211 210 66 142 42 206 70 149 125 198 158 33 221 229 178 173 124 211 125 50 37 252 235 233 161 29 75 106 205 214 90 141 207 17 124 230 13 226 246 249 176 42 4 135 220 36 207 45 240 99 241 49 137 247 159 224 183 239 24 104 112 235 240 117 110 233 174 34 245 97 53 19 96 99 80 6 237 10 51 167 116 79 94 248 51 49 219 158 16 73 24 164 137 247 68 90 84 94 213 35 166 26 35 4 98 19 54 122 112 111 80 100 20 97 141 127 191 93 209 52 124 45 111 248 14 225 33 88 10 156 189 182 106 12 235 237 34 40 248 169 60 113 187 156 218 143 64 134 143 91 122 29 92 40 117 32 199 39 76 130 186 83 86 216 135 1 205 104 151 200 128 76 73 51 11 109 146 216 217 57 107 161 97 81 220 121 15 196 57 224 243 49 166 14 52 9 89 109 132 100 59 153 79 201 36 250 191 174 29 171 2 176 222 61 39 40 178 59 240 156 41 158 102 63 233 241 245 159 84 182 64 84 252 221 24 122 26 59 31 161 42 86 146 31 239 39 126 231 54 251 129 223 169 142 90 130 186 248 69 81 225 203 77 214 130 233 23 148 45 122 75 217 22 155 130 41 18 18 0 246 220 81 123 203 11 116 128 93 87 10 173 78 157 173 63 42 199 169 129 74 73 68 161 17 254 169 118 56 52 19 27 153 102 187 198 181 107 145 96 140 32 110 125 239 38 249 215 1 37 129 232 70 58 146 57 218 157 72 15 105 166 224 137 242 19 198 103 184 250 253 138 99 222 12 127 233 55 38 225 176 205 12 161 240 112 254 177 67 252 38 54 110 122 14 18 150 72 205 241 62 177 54 243 201 34 4 178 232 10 122 0 34 148 9 247 165 120 24 210 99 200 63 63 33 197 4 115 244 109 193 98 227 9 122 141 225 231 181 84 251 186 239 107 62 254 123 82 152 64 225 187 174 125 9 45 8 65 83 171 7 242 39 246 247 119 95 43 15 74 118 83 198 50 179 136 199 43 42 53 59 109 109 145 255 219 207 129 115 64 208 83 74 202 41 57 219 118 155 220 220 30 225 9 217 45 80 198 79 127 15 98 233 225 124 103 73 153 70 212 132 172 218 248 252 79 66 138 151 35 150 55 157 16 213 16 153 170 157 196 231 140 104 150 109 133 102 75 43 8 250 157 172 80 213 42 189 81 203 73 117 162 124 99 63 126 81 63 50 117 24 221 52 95 224 160 83 174 91 84 254 69 40 239 108 24 164 38 193 59 172 95 154 95 79 178 132 177 232 112 28 219 113 206 54 119 244 140 190 166 49 39 138 90 205 71 6 245 185 167 162 105 145 214 127 206 188 133 77 99 237 226 231 20 72 245 110 63 192 180 177 216 186 186 102 134 124 245 142 13 144 1 218 44 128 128 100 203 70 166 3 133 138 168 212 0 70 211 230 120 195 67 45 170 177 34 110 141 116 82 164 30 46 188 245 204 114 45 107 121 41 29 9 107 90 216 139 233 38 235 174 196 74 84 46 57 120 226 204 215 63 79 6 168 3 33 169 157 241 228 232 21 124 58 157 238 214 232 237 196 187 151 179 114 248 90 21 20 162 229 195 1 13 65 247 3 63 106 90 41 112 191 179 183 157 26 51 238 13 183 86 232 147 77 225 210 178 146 163 116 44 34 239 219 35 71 170 113 255 205 49 105 253 214 147 143 47 112 175 4 103 232 68 122 35 91 233 34 160 172 62 201 66 161 202 40 23 26 107 207 36 40 222 53 177 45 59 53 24 25 55 212 101 15 81 189 93 127 33 50 239 165 153 199 132 131 244 28 249 21 37 57 245 177 41 206 41 45 159 53 233 195 12 47 193 120 13 102 15 148 217 144 75 142 23 66 5 48 46 228 60 74 184 111 185 251 113 126 183 49 214 152 147 255 77 252 47 33 77 243 231 179 110 85 106 105 57 228 80 204 238 238 180 189 236 167 133 11 79 209 177 189 211 42 183 64 66 213 192 26 174 114 226 119 80 232 223 181 14 119 125 149 16 167 64 109 151 160 226 5 252 157 141 156 89 152 61 3 140 15 131 3 12 42 106 11 5 208 146 199 1 123 185 208 191 242 160 135 116 104 192 5 15 144 219 91 47 109 203 98 24 218 127 83 169 12 51 95 11 70 22 127 11 244 149 186 243 9 43 60 167 148 148 250 184 142 154 94 94 160 190 91 196 140 21 106 79 236 5 41 145 146 123 173 165 206 203 206 25 143 250 18 212 9 25 164 101 22 10 121 125 125 88 44 113 37 129 155 122 171 10 111 192 88 40 205 46 44 100 179 104 25 231 5 14 142 52 121 61 100 34 241 129 14 167 33 198 36 1 215 229 51 40 75 31 178 88 62 210 255 167 188 255 163 229 145 15 77 176 110 210 76 202 146 248 119 155 246 161 181 117 211 253 236 201 24 69 5 14 240 228 224 207 74 184 13 65 17 69 137 36 177 201 31 240 229 11 185 91 186 141 238 93 153 0 25 213 174 162 178 15 105 22 198 80 110 9 92 129 1 75 217 136 180 47 115 2 6 37 126 38 92 137 3 7 65 136 61 118 9 113 245 54 89 84 231 239 187 175 120 208 208 120 105 154 175 66 79 246 251 70 252 246 193 84 149 173 167 132 228 38 86 12 49 193 247 71 231 22 70 61 253 231 118 123 107 119 196 164 83 215 167 79 7 223 86 248 168 3 80 159 177 105 94 240 157 105 94 143 179 101 28 101 154 118 233 85 13 151 225 231 94 91 254 62 11 56 156 118 128 145 93 65 62 220 15 71 163 249 142 184 26 73 40 141 146 33 91 0 206 48 147 49 6 18 171 254 7 167 130 88 57 190 178 134 139 179 109 238 84 147 47 45 190 183 24 165 108 87 11 156 214 215 247 232 32 173 189 140 118 206 102 69 202 57 71 20 13 199 48 35 162 91 241 218 166 19 242 74 164 187 170 173 46 156 35 5 196 94 150 10 217 93 91 74 197 186 59 67 77 177 227 56 56 95 160 205 133 6 205 42 208 22 184 154 113 9 228 115 232 54 153 231 185 187 111 255 164 235 224 52 228 173 158 72 127 3 8 120 131 39 170 245 203 98 69 206 172 42 184 154 131 129 18 111 35 158 70 141 43 24 138 14 2 0 217 10 57 249 220 84 125 183 74 236 221 91 76 150 102 72 167 5 208 241 216 70 119 198 42 35 214 44 162 155 114 86 133 134 222 34 54 75 230 0 34 179 147 63 232 117 160 177 213 181 105 126 185 156 175 217 200 225 32 167 170 163 113 182 235 243 25 177 111 101 235 24 215 157 62 121 206 152 115 139 120 127 199 95 101 106 115 4 47 187 57 41 9 216 162 36 97 238 4 61 71 198 93 172 197 233 129 193 156 238 136 45 23 181 212 206 50 49 31 174 152 25 118 246 146 80 41 131 75 115 236 33 51 1 255 43 176 231 252 140 221 100 136 58 148 3 219 216 98 22 58 109 178 236 216 49 172 227 145 209 26 143 119 203 240 171 0 13 238 151 216 129 24 88 213 164 66 153 182 94 120 185 82 225 117 249 0 161 94 98 79 73 99 226 108 85 205 75 173 104 79 44 217 90 9 253 63 9 67 238 114 55 151 20 148 198 44 245 85 137 27 42 183 0 170 26 180 102 41 147 249 252 114 237 20 31 39 13 7 222 127 91 23 135 35 38 126 64 233 107 192 113 102 137 7 32 66 25 204 215 82 39 221 167 128 104 22 127 63 112 219 172 67 249 93 71 142 188 33 14 165 22 77 88 120 124 153 28 224 76 144 197 6 122 116 221 131 32 52 163 52 107 87 66 80 155 189 3 241 96 115 98 82 217 121 194 208 192 4 247 92 90 215 111 142 253 17 225 231 48 105 45 222 164 131 190 60 219 127 151 121 144 27 97 81 214 251 28 142 232 91 134 145 134 233 154 78 99 137 194 250 202 68 75 94 192 205 92 0 238 254 61 187 191 58 209 209 160 145 27 65 66 218 248 181 140 85 207 224 250 16 243 11 10 58 199 47 139 62 32 249 169 200 96 168 160 129 84 237 57 244 69 76 42 6 22 31 124 92 131 3 61 240 202 141 116 29 123 72 21 172 172 199 78 20 103 96 78 215 104 146 93 162 46 154 20 205 226 196 89 174 156 110 221 12 84 73 114 223 126 6 64 10 10 80 136 184 93 66 176 121 196 229 135 229 112 179 165 181 136 140 39 200 115 193 70 20 64 109 8 250 11 8 147 64 35 131 86 156 145 150 153 254 21 198 109 181 29 191 36 155 42 201 176 227 80 251 145 235 139 140 210 185 23 108 221 210 9 53 136 85 171 226 30 74 53 35 109 213 217 196 14 208 11 252 161 237 17 255 198 238 193 168 193 18 14 144 126 193 162 221 214 29 224 48 175 139 0 42 193 62 135 48 129 101 181 66 147 137 111 115 34 18 20 6 48 65 163 27 239 194 49 79 173 58 191 220 154 150 255 17 50 132 242 91 26 101 65 223 193 140 253 165 118 143 5 197 116 223 214 29 5 7 44 148 37 94 8 177 51 5 133 11 33 43 104 15 176 172 214 36 72 102 174 29 100 23 234 47 108 146 51 66 163 59 236 198 38 159 232 212 33 248 152 194 47 108 40 16 227 167 132 147 58 83 92 56 118 144 47 101 69 68 148 78 177 234 122 37 54 197 54 95 148 145 87 40 173 199 155 203 164 204 106 190 147 149 138 166 150 12 158 13 243 103 167 216 176 200 22 234 137 151 212 34 90 3 201 250 11 176 107 102 92 121 172 118 72 164 10 91 87 32 58 81 123 97 15 49 95 24 245 0 8 29 82 191 48 232 79 162 210 26 84 14 117 254 107 104 166 159 180 189 157 231 76 156 189 159 107 51 245 194 232 154 184 238 114 4 103 144 31 147 28 64 198 238 131 101 117 12 177 147 87 117 113 234 223 247 116 39 106 72 189 3 176 182 33 88 112 235 183 179 228 27 123 101 20 164 205 124 240 0 142 106 248 216 125 11 238 228 224 146 17 81 156 63 212 78 216 60 186 127 73 200 216 110 90 33 248 20 211 247 56 32 68 239 175 251 81 187 147 134 200 185 201 35 116 221 17 163 203 31 7 77 50 116 72 12 17 191 128 132 173 62 154 150 246 113 137 78 230 102 52 79 170 242 12 54 69 36 158 223 167 21 239 170 110 66 15 72 44 90 137 129 101 224 217 10 137 147 85 3 63 122 197 139 70 51 49 123 21 76 241 108 45 1 63 38 42 217 212 143 130 28 202 169 144 77 153 241 163 83 192 28 21 108 30 207 43 70 43 240 49 14 213 148 55 90 186 163 126 240 57 51 211 243 173 9 237 234 181 21 200 148 153 7 114 68 75 239 84 97 147 248 236 95 218 107 151 70 138 95 22 52 6 192 10 54 130 79 157 65 69 184 206 10 114 1 84 238 33 139 16 197 63 151 9 236 129 87 245 59 96 155 204 139 225 242 220 97 101 239 179 27 140 223 129 42 18 60 199 209 88 227 67 154 116 241 192 219 71 226 91 50 52 217 116 37 65 78 107 65 92 151 145 61 128 58 142 110 22 231 133 203 18 253 39 138 16 151 173 98 227 222 21 127 105 249 242 89 223 250 177 201 209 157 13 106 56 85 132 151 84 237 47 63 127 220 174 73 109 210 57 61 141 146 43 178 250 34 140 252 181 154 200 30 238 179 232 109 231 144 70 213 234 240 33 89 128 7 230 253 18 244 229 41 227 22 50 3 253 241 179 211 53 107 73 114 217 177 80 145 129 221 22 223 124 67 136 90 77 198 82 115 54 199 1 13 83 32 237 16 218 245 243 146 63 28 246 201 125 173 240 176 85 29 76 242 161 244 35 58 229 128 142 2 23 211 34 98 4 136 113 199 250 81 101 183 161 194 27 133 205 0 111 119 196 166 10 185 187 32 63 200 110 235 147 208 217 237 102 221 229 63 189 108 132 220 56 80 197 161 192 146 74 108 54 230 225 39 97 123 42 231 125 137 253 36 234 214 107 46 211 10 47 46 188 231 8 5 93 165 112 35 240 18 178 6 223 116 41 102 96 102 40 154 225 182 223 152 86 112 177 200 255 35 227 187 241 96 120 71 139 105 77 41 232 189 234 158 253 182 99 25 38 217 38 80 234 125 149 19 85 87 185 242 193 234 86 70 130 209 100 131 205 227 36 19 86 136 62 76 254 164 98 112 232 186 205 101 104 183 39 202 198 240 28 236 16 181 165 193 215 41 102 58 94 120 100 50 51 47 95 141 56 78 0 22 114 163 158 221 238 221 97 44 62 114 149 249 73 151 80 72 36 102 33 190 179 247 150 160 67 28 184 193 181 194 139 176 247 138 155 218 104 205 215 35 22 250 167 192 228 96 82 238 72 99 54 47 29 16 81 252 99 174 64 64 134 102 186 72 135 233 136 199 53 92 20 65 89 253 19 148 219 44 254 225 47 22 123 213 100 19 161 11 213 220 105 98 17 57 127 189 7 182 97 4 150 158 248 185 157 73 226 146 110 203 201 100 11 237 95 37 22 212 24 201 176 62 68 25 126 29 2 108 194 203 110 55 75 10 221 10 137 121 122 170 95 117 224 216 165 245 27 255 176 1 82 66 62 123 238 18 70 55 93 202 87 72 36 112 34 98 253 118 143 11 241 90 100 114 21 174 183 72 102 82 103 166 150 240 94 139 47 33 235 209 254 150 141 246 72 112 170 149 222 30 81 23 180 188 182 231 165 186 204 231 231 24 84 92 220 59 27 254 69 251 173 141 52 43 112 223 216 11 57 94 34 228 255 2 210 72 98 1 192 113 178 243 232 224 16 37 27 72 130 137 227 124 190 230 217 200 52 131 123 147 80 205 142 179 159 241 70 45 183 188 61 0 138 132 121 98 225 101 139 78 10 60 191 147 167 201 66 10 49 117 81 243 44 153 171 71 224 103 161 200 13 176 0 158 152 40 174 28 217 230 112 210 223 80 190 129 197 212 202 11 201 92 154 179 235 221 130 141 29 254 65 91 33 149 107 63 230 57 106 14 16 246 119 189 103 214 123 58 88 101 71 214 208 102 40 184 143 30 200 157 212 168 232 208 63 220 232 97 71 189 201 17 65 248 74 200 94 203 16 37 75 93 64 255 159 102 203 156 212 181 199 200 34 42 178 238 227 188 62 132 117 60 81 198 11 12 198 127 125 95 37 236 208 208 115 153 223 163 38 98 143 136 63 108 87 11 239 157 163 132 123 31 0 107 196 71 147 211 164 152 13 155 112 176 174 42 118 26 115 105 105 96 146 2 222 68 211 86 104 126 175 37 191 174 2 154 36 9 255 97 154 80 121 76 197 233 75 173 227 226 134 113 163 111 148 217 89 47 79 107 4 4 23 214 203 89 205 241 202 34 22 18 226 174 50 154 185 100 168 222 76 255 180 101 82 150 102 52 54 102 205 49 145 253 194 32 239 23 79 217 150 193 55 82 185 151 28 144 139 179 157 110 232 112 68 203 250 130 176 131 