P3
#HOLA
50 50
255
9 249 119 128 245 62 121 28 25 248 159 180 160 191 72 209 4 78 170 249 141 144 188 174 168 12 154 58 65 89 25 75 151 224 1 64 109 24 90 30 3 230 21 116 4 213 105 189 61 116 213 254 78 207 154 109 138 155 126 21 140 105 74 114 206 108 220 153 209 46 85 98 121 163 97 3 19 14 170 159 165 168 173 117 175 129 23 253 165 242 28 4 10 116 36 66 227 248 64 51 123 46 1 27 94 30 67 174 206 15 102 101 75 9 52 146 197 176 2 173 207 73 76 142 148 3 121 180 6 52 141 162 231 28 248 214 167 249 58 72 61 231 251 0 219 75 167 235 99 41 109 70 161 221 193 255 164 32 81 13 130 72 252 107 20 194 159 94 215 57 16 58 231 234 38 179 1 133 244 166 238 249 39 254 13 64 99 234 174 137 208 118 239 136 148 235 154 138 105 182 191 97 117 156 105 220 55 161 78 206 200 102 236 241 234 44 134 26 255 169 81 158 220 184 10 246 144 43 16 222 131 15 9 152 131 188 199 43 60 41 238 120 195 249 28 83 178 248 24 133 129 61 205 172 175 165 135 189 185 46 9 161 133 138 204 58 116 249 149 110 185 97 63 206 123 79 116 175 55 243 90 230 133 25 77 51 168 215 23 83 6 37 223 192 98 43 250 29 63 116 175 203 144 71 226 43 228 74 252 202 160 154 22 62 5 221 142 50 250 225 229 133 182 164 95 168 84 11 2 72 217 121 153 90 91 22 153 7 217 4 160 123 70 188 44 162 53 220 233 183 131 230 46 41 197 141 128 55 255 114 251 114 58 67 227 84 104 171 217 136 164 243 44 201 63 6 160 249 128 62 85 195 24 16 55 110 8 33 216 128 6 180 163 230 46 162 232 144 199 143 169 113 126 231 211 67 81 228 216 87 95 12 9 215 215 167 189 12 240 114 247 28 142 138 218 180 183 18 213 16 237 91 19 80 15 237 35 249 56 71 152 180 165 18 110 4 136 186 105 142 223 127 103 90 233 131 202 207 27 23 40 130 60 92 179 119 65 252 79 80 50 125 187 129 152 80 57 62 50 160 212 31 202 249 155 6 1 25 213 237 182 161 55 101 64 17 100 98 102 107 178 235 85 3 253 74 223 62 68 240 26 208 237 255 122 193 186 255 229 17 25 155 205 114 136 61 5 90 144 109 47 212 228 100 118 20 207 44 214 179 226 31 54 26 104 91 153 33 138 90 125 202 236 69 67 181 253 127 78 50 155 115 75 90 177 139 190 214 155 38 158 24 87 177 230 38 109 16 174 202 50 187 31 32 77 54 59 207 200 174 217 140 68 106 8 75 123 144 159 43 25 15 7 158 37 130 142 216 147 145 64 50 103 143 26 18 190 53 236 115 214 172 34 135 65 87 188 91 44 100 63 157 84 175 43 88 159 6 105 210 76 1 51 252 218 209 130 120 114 184 203 143 160 70 77 63 144 236 183 35 160 104 188 119 57 58 14 79 9 111 199 58 15 69 12 126 12 206 211 208 16 91 76 241 54 56 187 95 86 206 28 216 121 141 248 78 176 99 66 123 78 159 217 124 254 95 87 35 135 138 226 78 214 212 36 186 154 145 90 90 224 255 184 224 238 66 96 214 165 142 94 208 243 253 166 132 142 195 243 254 155 161 233 233 243 183 83 120 23 87 77 92 250 109 146 76 146 44 147 160 131 35 239 196 9 174 199 221 150 80 229 41 15 159 105 74 180 238 85 210 245 114 111 49 214 235 217 254 160 94 194 59 114 202 155 92 1 16 32 119 99 68 56 185 182 64 222 228 198 209 178 221 233 110 72 220 200 183 120 7 22 62 150 170 10 161 234 195 168 192 70 18 221 148 57 226 252 158 231 152 76 208 233 73 114 181 153 135 177 58 166 80 26 112 67 99 110 177 58 63 14 54 16 177 233 120 24 146 20 139 142 88 225 158 250 226 89 176 228 255 73 80 20 12 252 165 214 203 78 100 76 247 33 242 89 77 177 149 80 236 1 44 118 76 231 215 66 78 55 182 208 83 249 87 157 132 243 113 165 151 223 237 78 162 41 246 168 235 24 138 235 62 141 47 172 244 142 187 12 90 48 203 163 205 100 24 37 69 212 22 55 118 96 16 157 12 62 243 92 220 120 26 98 79 190 80 228 172 28 54 26 173 216 1 74 159 237 20 79 188 217 79 124 102 87 147 29 114 27 6 220 214 97 12 95 244 52 52 169 129 14 189 36 56 39 155 187 36 120 225 3 153 11 196 200 115 73 130 67 235 131 115 37 86 222 74 232 120 48 106 219 215 15 44 40 154 161 13 163 164 194 250 58 80 82 200 186 146 107 215 112 148 17 117 146 148 72 47 0 1 234 235 189 248 4 114 103 136 121 35 67 97 141 192 156 6 60 196 235 198 255 230 23 249 141 30 249 167 151 1 79 201 45 224 9 16 22 228 21 23 226 44 201 78 52 158 53 48 82 169 186 194 41 128 18 148 131 93 166 36 81 215 35 82 96 175 251 90 172 26 133 142 53 210 73 238 181 113 172 104 79 177 33 153 220 39 23 146 228 41 100 242 21 14 90 194 243 17 162 249 54 219 142 71 234 125 1 228 212 168 206 142 196 1 15 235 83 129 195 11 88 41 229 216 162 64 21 12 62 190 196 219 167 12 202 86 62 190 56 155 160 249 201 92 37 85 219 212 177 224 39 71 163 138 247 222 116 202 159 188 120 172 53 23 249 55 150 50 253 167 52 22 192 174 49 192 243 237 63 146 248 96 156 104 147 179 147 11 22 72 208 92 176 232 63 99 9 246 174 73 250 156 252 132 41 249 168 241 221 245 104 158 21 113 62 168 57 76 41 116 221 178 157 192 202 158 136 203 25 61 112 203 26 255 100 94 99 155 163 195 26 187 70 105 59 158 33 75 129 83 89 3 226 179 207 205 74 82 19 54 110 96 110 228 218 218 50 90 225 194 223 230 121 33 250 244 180 79 95 3 234 166 18 209 108 42 89 225 145 253 22 93 107 202 2 9 137 55 72 229 89 121 60 69 192 29 137 236 248 150 240 174 92 97 123 229 21 77 125 176 220 88 89 78 51 77 58 0 133 207 61 66 213 130 12 33 196 198 222 80 29 210 195 239 10 154 94 140 241 192 213 211 170 192 240 228 204 1 87 75 25 234 116 204 69 59 140 26 149 218 0 17 231 170 6 51 66 139 130 198 4 35 239 48 148 78 68 224 239 52 243 237 143 134 57 149 20 169 111 228 16 114 49 45 21 177 216 227 154 21 31 32 46 114 218 188 190 171 224 115 239 17 7 84 127 199 88 37 243 93 108 202 6 246 180 117 143 194 123 218 224 97 143 72 114 216 115 101 240 245 147 118 55 175 16 13 77 128 123 226 39 57 242 110 250 87 218 160 231 108 233 148 66 126 107 107 233 255 233 227 46 192 128 170 30 26 179 67 108 229 209 243 111 32 76 205 163 64 215 34 80 142 26 19 159 147 50 152 3 87 168 243 240 221 31 61 226 84 198 30 139 199 105 85 107 222 113 56 24 75 87 134 63 146 202 220 97 6 233 83 91 187 191 42 198 170 53 143 180 236 71 224 24 145 193 106 139 221 59 48 191 109 236 110 107 193 105 166 241 99 199 147 252 247 232 175 130 35 118 173 82 207 203 186 212 204 157 206 194 142 181 143 128 64 217 206 203 106 162 163 38 244 248 2 201 171 69 206 97 209 74 41 8 188 183 211 24 55 237 196 89 21 109 137 91 203 97 18 119 218 216 208 16 186 14 164 92 9 20 85 76 46 130 207 58 255 62 228 82 27 58 178 199 134 156 159 23 89 189 201 246 118 9 253 19 25 15 247 213 250 178 80 209 98 237 242 3 132 221 225 89 231 214 125 68 91 113 33 64 46 128 106 150 222 131 222 5 71 131 165 70 119 81 72 209 16 131 240 177 101 33 186 109 92 184 214 113 207 181 80 243 197 47 185 57 16 158 58 168 25 13 163 17 166 32 130 170 206 114 149 133 68 49 109 99 119 112 248 162 45 109 66 87 110 12 66 246 145 44 125 229 105 115 245 140 81 220 135 168 167 106 84 126 10 193 130 57 183 24 44 139 190 2 247 233 222 126 53 70 117 219 28 186 133 248 194 23 108 189 216 211 49 33 245 64 15 174 242 32 145 159 184 168 40 69 130 151 58 157 51 76 167 12 65 35 245 197 19 148 189 201 89 227 61 112 111 233 230 27 173 29 252 63 51 224 205 174 198 113 213 238 86 59 154 39 74 135 148 201 201 195 3 253 45 33 40 179 158 107 21 147 64 137 6 82 44 51 127 115 110 240 131 21 224 59 131 244 201 166 31 176 87 158 99 176 0 43 80 87 250 193 151 10 32 5 211 54 5 19 179 185 238 178 15 142 136 194 55 255 191 217 20 251 33 255 32 25 72 10 75 173 245 222 110 169 76 93 160 169 239 136 16 0 96 82 234 158 21 7 251 141 110 250 82 187 237 199 11 127 162 62 40 238 90 109 13 153 223 210 116 100 167 185 226 147 96 104 160 168 189 51 152 228 50 150 46 112 167 33 6 54 36 113 57 73 235 237 113 67 162 176 203 250 136 107 33 134 192 67 146 240 122 82 77 13 75 77 219 14 87 210 218 231 122 160 240 128 197 71 26 204 99 133 77 27 109 123 215 210 148 178 221 14 34 107 254 158 18 240 156 223 11 152 134 103 71 77 98 84 59 221 175 37 188 27 71 99 217 183 248 30 157 45 240 92 50 233 234 50 20 10 64 71 85 21 250 39 230 249 155 136 204 158 61 72 128 157 189 75 77 169 199 69 151 119 12 244 229 74 42 147 54 10 56 164 233 217 124 27 202 95 246 75 57 188 205 98 48 187 179 119 142 71 223 201 244 3 67 142 107 54 86 126 198 218 64 22 192 61 29 139 160 184 95 126 56 124 172 192 154 43 31 115 13 171 208 78 51 165 56 132 109 115 146 64 224 204 239 237 56 84 129 212 35 35 184 66 146 104 40 65 224 158 100 203 18 62 54 57 42 67 211 44 148 159 21 82 226 220 21 55 154 131 93 49 152 112 201 199 206 35 224 223 39 84 82 228 234 199 104 84 35 69 112 164 236 24 118 122 169 196 208 58 247 213 50 215 146 17 198 71 203 193 250 11 193 156 105 157 232 56 60 114 221 71 233 144 243 176 94 222 161 43 179 155 218 207 192 63 229 247 142 77 174 244 40 13 196 56 157 197 129 154 128 221 17 235 200 131 153 134 73 194 103 214 217 165 92 146 92 45 143 9 19 78 195 190 28 125 136 27 53 112 57 175 22 200 172 84 100 78 108 7 14 155 157 213 153 60 191 70 214 240 77 45 174 159 143 165 137 255 21 148 33 145 190 27 225 124 218 95 147 203 161 209 117 158 140 237 108 101 103 53 208 117 130 195 98 65 181 116 243 180 76 157 177 60 53 95 250 17 248 15 44 188 240 63 206 47 159 51 195 28 229 20 250 15 179 58 171 33 94 104 119 97 148 54 157 136 216 38 181 2 252 185 165 216 152 114 116 122 154 135 234 210 192 55 39 221 138 19 184 139 66 174 111 74 99 181 86 167 222 118 150 10 84 82 194 19 225 126 104 22 99 25 52 200 12 77 14 2 6 189 186 162 81 253 168 164 128 185 162 175 133 169 69 95 55 76 151 164 59 48 84 132 6 57 143 135 132 111 83 70 220 175 191 14 239 35 188 232 129 5 193 126 115 156 178 85 118 46 117 37 158 136 157 178 70 148 1 175 181 129 221 28 210 48 212 60 9 8 19 56 101 58 212 39 239 194 157 90 37 17 72 22 113 202 39 70 125 200 179 78 170 175 232 16 228 34 82 191 19 242 251 45 18 211 207 103 233 239 29 233 177 29 60 41 199 41 131 140 229 214 60 47 41 169 66 45 23 216 86 15 96 194 160 72 82 186 249 119 135 212 2 231 122 85 74 103 98 131 174 31 155 10 31 165 71 210 222 231 5 90 54 95 188 184 18 148 122 26 129 113 182 137 150 102 14 123 19 199 88 152 145 48 124 48 38 43 166 177 246 218 66 105 92 243 11 60 87 15 196 214 180 215 207 141 35 69 250 110 129 25 78 152 153 36 135 247 158 196 3 241 187 89 66 253 91 125 191 97 94 47 135 35 25 209 167 55 155 247 193 200 61 0 218 71 155 140 255 133 4 164 94 199 36 124 223 39 147 245 35 24 171 243 232 223 98 95 55 22 81 88 160 185 120 51 221 105 241 32 224 142 230 93 11 95 225 211 255 70 150 137 154 229 184 201 13 244 241 46 51 208 137 88 94 45 120 55 11 125 172 186 117 175 108 52 35 9 222 197 215 99 246 161 220 52 222 202 236 231 252 231 14 142 69 164 94 224 46 213 213 100 78 238 196 67 122 231 164 160 174 11 232 89 49 195 178 200 188 250 170 15 93 87 72 228 208 61 11 53 183 243 194 203 47 191 53 51 17 177 201 159 174 206 20 241 190 253 220 183 190 122 213 195 255 159 148 164 100 222 97 44 66 238 49 252 110 209 35 38 219 227 67 125 129 139 45 191 231 91 129 110 120 31 156 89 166 93 139 176 133 65 218 159 113 156 95 173 145 233 83 233 47 187 185 242 33 75 140 10 174 106 123 117 174 36 16 73 215 139 202 196 136 183 199 105 73 75 180 99 122 110 74 158 187 183 218 78 30 162 84 90 239 250 254 45 135 45 32 76 198 41 230 176 193 135 202 101 228 200 52 121 96 44 239 11 124 136 28 80 205 135 123 153 227 156 203 87 87 112 109 204 65 113 21 100 100 107 12 217 123 123 178 187 93 84 64 157 250 244 221 164 152 224 97 145 128 32 96 253 146 208 119 104 137 177 33 0 137 175 198 219 160 210 133 130 155 203 220 48 228 29 144 100 118 78 111 127 121 215 153 74 215 177 120 114 152 225 162 23 191 184 88 5 178 252 34 147 39 237 130 48 2 200 56 164 129 44 144 192 241 17 189 52 146 198 116 146 59 154 54 212 231 128 217 205 30 2 45 241 151 98 160 61 76 194 87 100 10 83 92 26 231 42 10 12 252 47 29 26 101 2 5 150 126 37 127 149 138 38 229 175 186 90 182 47 190 121 132 153 239 150 22 115 39 119 127 109 190 112 29 63 62 112 66 175 173 121 197 37 221 84 165 235 217 8 244 206 254 225 109 183 158 114 53 222 221 68 227 42 88 219 30 247 133 60 90 27 109 54 204 45 129 215 76 34 181 65 95 58 182 21 149 214 60 43 171 149 87 130 40 12 60 171 155 18 23 54 128 109 231 20 4 81 245 11 236 202 91 222 123 116 145 222 34 209 191 246 248 1 194 196 229 93 9 142 215 50 22 134 13 53 48 67 11 149 134 236 69 204 232 7 154 101 138 3 176 34 52 78 119 239 188 241 243 216 164 165 186 117 172 153 124 231 148 251 218 28 120 50 42 132 143 104 226 217 130 98 156 21 37 16 240 202 191 153 62 49 237 90 235 223 152 86 109 62 70 61 140 8 82 115 78 110 104 77 58 123 104 134 33 59 202 114 235 240 114 192 63 195 34 37 100 165 53 158 88 147 147 87 188 19 213 114 214 60 205 237 195 32 50 152 190 16 54 104 97 204 93 91 204 98 252 9 120 200 153 29 90 154 91 197 245 141 101 80 145 135 189 145 192 209 88 62 33 179 198 176 149 60 242 166 58 155 101 24 123 163 113 150 213 82 60 225 34 160 144 222 213 225 98 200 81 80 119 237 173 201 97 144 7 4 253 22 151 202 82 203 80 194 69 237 179 173 198 65 9 189 23 44 32 121 63 142 78 20 11 71 166 29 48 117 62 210 147 26 137 139 236 219 13 57 142 222 216 244 112 104 167 237 11 4 40 253 10 243 48 134 76 109 96 198 96 197 189 176 24 12 125 233 42 173 119 245 104 224 168 96 175 224 120 78 112 144 78 94 76 127 199 97 191 135 110 119 34 128 185 252 94 227 45 203 75 50 210 52 32 118 232 100 0 57 192 21 79 38 110 199 252 157 246 199 249 238 18 247 84 153 207 140 236 62 105 55 60 201 111 147 201 113 16 125 45 84 14 210 68 199 149 27 209 164 163 213 225 177 28 50 16 218 75 41 87 247 149 163 126 35 34 210 250 37 20 154 70 55 1 175 40 64 22 90 12 248 26 227 26 117 122 170 152 139 208 255 106 71 78 83 227 210 32 164 183 132 51 3 42 224 14 230 22 167 205 185 108 212 73 118 209 20 178 44 80 161 125 174 191 67 6 8 145 157 110 235 4 254 253 190 143 21 135 81 159 98 31 4 181 82 55 168 211 44 171 129 151 231 255 215 246 38 0 235 234 164 253 16 10 62 32 192 224 131 57 151 156 74 224 20 109 102 25 247 236 93 34 119 234 203 38 165 95 20 222 57 204 183 22 74 58 145 86 140 240 80 81 99 251 32 243 203 29 181 71 61 191 51 176 70 77 65 200 16 46 248 136 119 227 110 134 66 109 57 88 217 57 82 179 41 116 206 122 116 177 48 58 37 242 182 82 149 55 219 37 252 30 145 233 229 20 36 119 185 139 185 43 133 78 234 82 130 145 248 60 214 239 7 51 43 7 139 169 249 166 142 198 157 130 216 189 222 138 141 128 149 146 139 51 230 199 151 221 139 187 212 2 27 48 26 3 82 158 8 152 39 43 123 253 9 205 207 39 59 79 40 145 15 61 181 203 226 76 136 227 255 118 119 117 54 215 18 8 233 165 56 187 144 78 17 154 20 215 34 178 101 247 210 219 73 28 93 23 159 78 205 238 71 88 228 152 34 213 121 106 207 126 73 108 39 219 167 101 100 119 30 73 11 198 98 48 143 0 188 142 5 115 163 123 230 213 144 47 190 193 27 45 239 109 5 40 191 218 203 244 148 150 217 223 15 255 118 209 157 90 5 242 96 216 221 120 182 197 220 220 131 201 115 150 10 136 238 54 115 137 172 199 139 163 247 71 251 243 115 24 161 244 105 184 175 234 60 36 221 50 181 140 137 189 132 138 31 181 50 15 153 210 30 6 139 131 188 134 84 23 171 224 97 26 93 184 247 217 228 116 89 56 108 196 174 17 169 70 30 95 201 213 9 197 90 214 0 16 29 87 248 234 10 2 51 109 38 120 15 35 207 196 236 34 116 228 82 137 15 215 38 172 4 56 231 243 166 252 120 211 191 202 101 18 113 135 230 13 116 226 227 122 228 40 56 214 149 130 173 185 230 180 112 116 77 173 174 205 120 34 173 84 251 18 189 174 110 115 140 108 239 132 203 181 130 198 189 101 142 111 108 106 11 172 220 251 216 129 151 104 109 51 180 253 111 132 111 30 201 205 247 37 23 83 31 230 239 82 221 18 187 2 0 12 6 165 201 6 68 68 191 79 225 15 135 77 89 116 162 146 16 134 133 64 56 222 117 234 208 182 223 103 212 164 242 83 52 219 168 55 249 188 187 212 196 6 5 83 120 175 66 215 75 250 232 113 39 5 121 184 106 44 24 3 121 242 87 213 90 217 247 120 92 36 129 232 111 198 244 195 17 115 44 30 251 103 105 16 119 146 72 130 169 90 250 163 27 184 168 217 217 14 22 75 134 134 191 178 20 246 144 38 12 5 118 14 19 44 170 209 147 254 34 243 186 130 127 144 93 133 83 155 131 250 241 220 202 182 19 223 84 135 45 0 158 170 93 36 27 200 34 24 179 12 250 15 215 77 162 196 126 16 152 185 24 230 86 199 65 4 67 54 57 152 237 152 113 88 0 161 63 42 240 114 205 140 211 32 222 193 170 163 141 0 66 14 12 209 225 124 125 128 30 156 34 70 124 146 184 36 139 116 54 159 144 156 151 193 224 229 203 236 109 68 60 14 44 111 108 37 242 213 61 161 134 17 97 100 167 141 196 145 122 241 73 39 8 15 80 71 212 67 93 196 183 118 234 16 91 71 12 35 48 154 242 77 65 116 24 255 110 153 114 158 243 18 237 96 52 153 112 130 62 27 116 36 42 253 1 171 178 34 50 138 219 231 109 192 164 246 251 243 199 47 193 132 219 86 135 220 39 245 206 179 162 207 243 184 90 55 171 113 44 183 166 203 214 51 167 119 202 119 237 13 156 216 174 74 248 111 152 181 201 201 73 39 144 21 150 169 32 54 11 13 46 177 193 2 227 200 63 64 14 38 195 233 9 13 48 24 130 223 211 193 103 184 41 66 193 1 57 77 76 204 46 127 192 40 119 26 54 83 45 8 114 130 229 148 102 171 132 217 204 157 203 36 0 124 133 8 118 204 5 252 17 175 95 134 7 191 227 163 194 57 91 16 94 117 32 183 234 252 160 194 6 74 95 168 19 26 75 42 18 1 196 82 11 170 29 160 208 28 23 235 239 208 111 255 215 167 199 193 190 150 145 134 35 55 55 185 129 9 47 41 28 45 143 21 17 98 227 153 167 141 236 210 70 93 205 124 223 48 6 173 117 41 119 133 9 164 155 96 13 128 121 10 234 132 156 126 25 89 241 219 92 141 101 28 149 69 68 72 174 11 177 39 1 33 93 142 248 166 14 175 184 227 71 236 52 245 98 34 166 46 196 32 130 91 64 225 255 221 135 220 6 107 252 127 177 114 171 180 146 35 164 69 110 157 251 37 197 141 235 150 202 213 139 15 64 128 130 50 208 15 67 231 149 217 209 46 79 89 26 92 108 53 254 47 68 232 31 147 71 60 188 19 224 88 22 148 123 51 137 55 14 151 177 35 132 133 76 153 118 75 105 80 154 80 153 244 115 243 55 73 131 210 141 213 84 242 157 98 114 58 72 115 33 36 52 215 8 220 54 167 197 13 162 35 35 169 239 22 176 120 239 221 144 131 242 6 176 90 83 138 218 143 114 163 161 247 147 228 44 251 204 140 237 61 112 112 8 240 235 54 252 149 98 232 2 221 143 43 225 38 129 147 20 30 99 94 115 135 164 159 142 106 56 57 49 230 243 120 57 52 131 246 240 69 250 246 71 25 13 95 82 230 22 164 98 147 61 195 74 211 76 101 171 12 153 93 223 27 120 193 191 197 194 104 186 2 141 169 201 141 199 16 131 3 181 24 60 177 227 76 252 178 76 247 122 78 94 62 215 35 63 125 97 28 171 129 181 111 88 163 20 106 29 7 5 70 70 202 244 173 132 125 5 30 145 209 50 67 4 255 193 43 145 174 203 52 165 174 46 104 69 40 214 102 42 15 8 95 26 70 0 24 230 14 241 55 232 96 161 181 69 5 158 91 210 247 244 180 171 41 123 205 201 139 177 193 240 85 35 209 39 34 153 35 129 27 49 154 229 74 182 6 194 28 57 191 166 58 143 62 231 177 53 182 35 67 249 205 190 143 221 55 157 22 100 37 192 138 140 27 38 12 64 70 247 160 138 230 66 230 31 201 64 103 223 127 156 158 37 43 169 103 116 202 177 11 27 118 82 3 148 107 132 91 158 164 7 167 0 175 236 142 181 244 16 37 21 38 58 133 191 140 81 85 178 66 136 68 127 44 35 180 35 74 241 172 226 137 114 191 205 12 123 167 224 110 142 136 179 214 195 80 73 73 61 120 50 103 207 24 194 54 16 83 228 252 94 84 242 160 108 196 230 28 26 117 27 164 60 189 150 94 228 165 95 45 36 231 98 32 252 214 47 66 131 4 177 250 245 74 254 0 114 161 74 82 105 13 200 90 26 35 165 138 81 143 144 225 140 131 149 221 243 136 33 199 118 31 243 182 128 62 20 122 141 3 139 72 121 29 219 197 6 162 171 149 197 156 40 25 244 193 130 160 99 118 38 72 27 146 20 155 70 203 113 103 131 231 28 29 238 177 41 246 204 89 200 115 80 160 238 240 233 31 61 150 87 68 127 172 254 200 25 145 102 158 49 187 152 152 75 158 206 179 242 33 181 115 52 106 100 196 77 205 12 163 144 60 27 180 151 230 211 193 182 32 66 122 183 12 89 133 178 164 45 74 114 205 12 138 117 128 150 68 237 17 76 83 157 176 76 207 222 132 101 135 114 126 205 155 85 207 235 41 255 195 150 123 116 120 168 39 106 252 222 203 238 124 36 247 119 148 119 134 37 118 66 102 164 231 77 170 187 208 145 187 138 234 195 77 220 217 20 21 89 253 178 25 106 231 20 241 162 172 205 202 138 56 8 154 101 232 102 201 182 122 224 53 146 223 124 176 253 227 250 62 215 239 201 193 12 66 59 96 50 13 83 147 196 176 194 187 211 103 133 115 46 35 132 218 245 136 30 58 176 89 192 244 8 200 160 227 63 113 219 235 237 110 118 112 143 142 170 249 194 59 14 179 30 90 181 209 152 112 186 192 125 61 253 136 247 118 238 249 137 69 4 241 46 205 238 79 187 113 228 11 185 157 140 227 93 208 42 205 208 33 106 198 130 182 52 8 121 136 106 48 54 80 55 229 93 128 205 148 152 99 161 132 77 82 236 127 166 99 197 46 53 199 249 88 3 82 204 35 81 245 50 219 253 139 68 116 114 223 227 51 166 45 75 219 56 75 194 97 67 212 42 102 58 161 184 228 68 206 94 143 229 60 206 253 246 160 87 7 88 20 147 62 112 228 5 116 12 18 59 144 78 225 231 118 107 159 223 6 209 190 175 112 232 157 189 125 3 156 121 132 199 183 178 14 75 47 228 11 246 76 137 127 108 55 244 191 118 173 14 99 74 252 118 220 255 49 144 194 95 84 147 83 68 138 227 96 33 46 187 153 93 168 82 75 66 114 186 14 95 86 182 12 105 125 120 3 145 171 36 140 36 8 59 36 5 103 137 113 22 47 84 42 210 240 241 198 226 204 56 137 118 83 167 54 166 110 253 225 196 5 133 187 209 121 161 201 2 215 22 0 185 178 48 111 46 10 254 135 57 50 144 3 100 2 129 123 43 82 38 102 48 140 18 159 252 23 142 247 53 238 88 244 101 114 79 176 26 173 159 44 17 205 58 126 241 196 212 88 113 21 105 41 155 163 15 180 40 20 216 46 108 78 166 243 62 173 68 85 144 238 184 127 249 33 50 111 164 244 179 115 172 107 195 96 225 237 70 177 137 189 71 63 227 136 231 161 100 87 249 135 230 178 202 43 139 107 208 39 136 158 167 83 163 54 142 70 88 201 23 117 27 122 102 249 126 241 190 210 234 206 141 107 255 36 227 99 187 197 164 163 230 245 68 24 176 171 137 219 234 63 17 95 182 227 146 196 161 175 52 82 131 105 208 61 110 31 128 115 33 167 234 69 170 199 37 66 207 68 207 125 160 90 90 237 158 116 155 67 219 107 186 91 18 241 79 56 28 173 149 137 180 92 23 120 33 216 141 93 83 220 151 235 2 212 241 29 234 38 241 20 204 118 152 10 63 111 100 206 1 123 190 140 160 16 120 41 246 218 31 218 42 156 135 171 178 47 115 141 160 49 16 246 141 205 235 61 68 112 137 233 139 136 129 197 117 178 204 245 226 39 249 108 137 35 150 214 41 63 33 223 58 176 26 106 201 106 161 110 26 143 203 4 22 228 113 162 44 0 197 212 125 122 99 242 143 134 59 188 193 72 27 202 212 243 203 26 175 110 227 54 174 77 136 239 210 32 114 237 90 118 177 152 249 83 238 148 187 171 223 249 242 151 106 51 89 53 193 141 141 51 107 52 172 78 235 202 33 68 189 225 137 111 79 214 166 197 136 193 163 221 163 108 41 253 186 112 41 7 231 34 119 223 165 204 21 108 209 174 129 17 222 235 116 62 143 232 252 208 185 117 118 197 48 88 239 178 181 80 84 34 94 190 121 194 219 166 47 213 91 124 172 135 157 221 205 245 115 175 181 88 45 89 197 32 227 71 135 236 92 111 131 125 216 229 112 62 19 219 34 102 12 62 100 134 126 171 181 19 84 71 107 164 167 194 102 176 41 199 49 199 73 198 39 7 51 158 243 170 202 58 102 76 193 206 162 79 64 193 6 95 99 115 133 212 5 245 145 40 137 196 139 147 128 11 43 115 188 17 44 171 133 230 5 7 79 254 79 8 71 99 102 218 186 31 192 214 206 193 228 21 118 72 86 232 39 30 123 20 15 110 117 90 205 62 75 7 165 160 225 111 108 53 196 23 78 186 225 217 16 84 2 191 53 184 158 60 29 28 144 192 77 179 237 235 81 172 117 222 75 110 164 107 72 143 49 147 252 182 207 75 125 196 1 78 6 250 83 255 245 42 91 230 195 62 151 241 30 117 208 216 197 195 10 35 42 132 37 11 55 23 45 173 181 96 152 140 75 24 70 106 242 63 7 84 248 12 222 31 237 120 166 67 115 35 181 83 40 57 147 83 148 97 136 222 143 181 127 138 64 172 183 250 249 133 3 56 159 136 201 164 57 133 140 106 117 85 110 191 24 56 181 18 10 76 37 139 22 104 49 103 203 26 89 225 210 179 225 145 111 254 242 147 167 13 214 63 141 27 115 162 113 141 40 92 213 101 184 4 50 88 210 50 207 207 68 164 216 45 127 89 165 83 187 192 124 76 42 131 64 170 62 206 155 110 80 167 243 42 86 206 102 37 94 66 68 88 125 13 151 173 103 179 109 19 58 236 209 206 63 65 26 159 184 176 225 109 2 71 6 147 26 19 161 231 4 142 208 213 81 118 60 212 175 218 217 162 172 62 148 80 91 44 133 16 167 123 81 49 203 22 123 85 111 111 138 33 170 247 15 227 177 121 160 94 65 51 32 173 161 179 232 119 21 126 243 207 128 89 85 209 74 138 245 237 248 28 215 150 0 25 227 115 10 63 143 154 143 205 144 142 165 33 105 69 220 213 122 183 98 46 23 77 21 157 190 143 88 183 207 197 246 5 240 106 6 28 133 215 186 199 233 79 66 44 97 173 208 56 97 63 174 191 131 195 58 184 91 211 9 181 153 14 199 106 190 29 10 243 72 67 210 63 158 143 16 165 83 212 38 214 90 191 219 98 217 88 219 6 145 92 73 6 25 189 67 192 59 151 14 219 34 78 168 156 10 70 237 182 15 191 126 73 225 118 158 83 120 30 165 71 169 6 115 61 96 62 251 143 91 94 72 84 4 79 179 28 211 219 113 181 250 173 230 61 24 34 241 94 10 83 79 244 124 166 31 106 49 71 103 57 117 137 50 52 37 245 92 181 120 63 84 129 30 22 41 237 27 114 112 139 176 152 60 196 134 148 71 98 40 105 169 45 139 227 186 31 210 247 55 19 67 146 202 15 176 85 248 99 91 226 243 36 107 226 43 170 171 104 132 102 217 102 188 57 81 206 141 99 74 237 235 197 228 63 162 218 230 51 0 143 99 45 178 155 116 231 184 80 243 33 247 94 92 172 227 110 233 232 156 229 147 228 243 106 126 249 184 195 16 121 71 54 123 71 201 201 136 121 99 64 170 233 15 213 47 78 60 182 200 134 65 170 206 241 185 194 100 50 91 65 120 33 108 215 18 131 171 170 250 251 226 110 228 28 106 229 227 56 24 253 213 174 180 163 249 128 21 127 182 153 104 172 78 170 22 115 125 206 97 226 56 229 194 117 2 41 58 60 56 240 122 239 241 58 78 204 9 8 150 222 145 198 165 64 211 181 104 69 157 152 111 45 58 173 4 34 17 113 187 2 201 7 79 44 139 244 57 104 164 80 236 231 249 178 89 229 243 78 44 146 82 115 219 227 253 156 75 111 184 208 19 128 102 118 225 216 168 200 8 132 25 174 164 188 36 228 84 68 81 38 169 79 160 135 162 219 9 182 188 159 52 109 225 54 22 220 73 53 206 197 192 98 130 137 136 155 251 154 218 135 168 222 240 10 82 239 199 95 246 10 238 185 141 122 192 96 54 114 246 40 185 250 99 144 55 18 82 105 233 88 52 102 98 49 210 187 103 38 157 188 8 115 37 29 11 118 38 23 191 19 185 230 228 171 154 222 24 238 54 51 147 213 100 203 72 253 22 190 140 21 75 154 55 90 61 249 7 194 184 209 3 109 231 255 158 85 27 105 154 134 162 85 222 50 9 156 133 156 102 107 163 175 237 3 130 126 173 29 184 103 88 41 240 222 158 9 184 170 152 56 60 135 213 129 131 120 3 114 128 77 89 63 82 219 9 40 0 183 232 60 175 33 239 240 30 110 69 116 250 111 0 158 0 33 105 53 246 71 183 159 147 226 189 33 11 145 125 72 157 135 250 211 255 185 105 135 177 215 91 255 27 159 147 8 169 72 36 125 140 218 252 136 50 163 33 197 244 71 103 92 137 246 101 159 69 10 188 245 175 34 34 120 43 253 210 241 228 181 179 215 233 67 192 248 39 142 155 150 110 166 197 79 207 92 250 179 60 212 119 190 152 60 22 164 194 198 200 250 130 236 196 154 218 224 136 73 146 236 122 228 1 62 111 46 119 71 7 122 80 136 28 216 105 184 72 59 179 24 251 244 146 154 163 211 12 70 64 96 231 3 34 218 35 78 145 231 131 103 230 133 25 114 89 222 81 230 49 241 102 190 214 9 57 184 51 35 9 126 182 143 112 241 244 9 234 97 59 228 117 10 106 252 153 213 213 230 122 93 4 109 245 61 247 146 250 11 67 131 200 143 90 189 107 249 43 111 53 210 96 160 4 130 73 231 235 194 58 219 238 81 164 68 16 24 129 242 251 12 236 133 80 157 200 70 177 29 18 247 204 18 103 200 63 230 173 113 108 91 246 203 207 116 255 46 205 18 