P3
#HOLA
50 50
255
182 105 90 100 192 88 198 47 38 112 67 28 111 253 160 1 67 73 199 65 104 239 195 212 48 82 147 172 212 217 71 221 22 126 162 147 59 164 12 32 210 107 137 60 11 64 182 114 111 214 170 48 54 121 50 64 158 18 3 118 218 150 185 185 149 123 60 236 220 57 187 193 180 110 121 28 139 83 139 211 19 203 24 90 102 32 143 159 198 218 98 139 36 132 248 211 240 19 219 36 72 177 78 87 108 138 156 210 67 121 51 89 154 18 240 129 12 33 79 128 27 12 145 234 29 69 106 32 41 189 18 106 34 171 160 47 51 223 116 33 77 241 131 117 68 225 254 94 232 66 113 95 4 148 150 183 12 39 83 222 31 131 122 181 6 236 234 208 88 231 223 200 53 85 23 57 247 8 173 215 47 139 125 222 128 13 147 227 214 173 86 220 211 63 111 127 26 73 231 226 110 72 105 223 4 63 228 144 98 240 62 178 189 39 170 212 27 72 207 88 119 14 0 126 195 252 23 41 94 171 46 61 202 67 66 28 46 222 14 81 215 14 117 67 208 162 40 77 185 32 253 126 86 54 18 54 6 141 207 94 75 200 48 102 170 62 249 81 81 192 194 227 90 229 169 56 91 54 5 96 200 8 127 14 26 53 196 120 0 180 14 80 3 136 79 174 62 208 49 76 215 176 227 237 206 43 61 255 246 138 13 139 54 88 216 110 40 112 82 225 174 4 42 114 166 246 90 39 78 250 10 115 250 32 5 43 187 129 253 207 227 239 17 133 139 207 88 80 93 227 144 221 7 251 198 120 90 200 202 177 197 246 24 71 64 160 204 124 9 127 50 97 90 71 22 113 122 163 167 149 191 176 186 25 118 81 202 59 157 198 217 226 128 14 23 181 171 213 54 96 64 17 57 173 218 199 53 120 14 25 143 147 79 61 84 197 29 163 107 92 61 74 171 43 4 171 0 111 10 127 188 110 114 75 14 164 154 105 146 31 230 127 92 104 147 203 50 191 61 231 36 100 26 20 107 84 7 164 159 44 168 142 36 207 84 77 191 181 132 253 135 158 183 115 57 249 63 13 201 2 22 85 62 96 128 141 174 84 80 146 93 125 86 100 253 101 210 4 134 209 204 131 9 164 16 172 56 183 90 239 38 91 168 19 3 83 104 131 218 75 122 25 209 199 52 120 24 244 202 9 127 53 3 122 118 139 29 52 195 159 11 21 213 134 210 195 253 4 76 0 0 40 108 95 255 47 131 154 55 47 168 71 24 144 178 7 14 17 114 200 162 32 224 171 48 33 57 234 89 96 241 150 80 171 38 217 178 49 167 16 72 34 2 208 35 218 249 79 167 127 69 70 46 92 221 95 85 160 10 196 44 150 88 147 164 23 44 242 212 37 3 6 238 109 79 87 181 81 134 92 185 173 188 226 9 244 228 104 196 206 15 153 3 31 23 164 25 192 131 183 104 63 244 202 203 107 100 127 226 165 53 24 216 55 202 191 229 109 238 49 137 20 54 70 231 38 53 80 141 91 196 96 183 27 142 94 62 33 85 79 67 123 74 21 44 222 56 87 104 0 88 86 77 105 77 24 232 57 57 254 29 54 200 156 73 94 130 151 31 249 29 52 49 247 140 240 35 10 41 246 142 176 65 102 111 199 89 82 168 35 205 72 140 15 164 108 21 101 117 105 242 41 113 206 139 91 185 136 219 15 79 223 57 200 33 65 156 144 92 217 212 246 155 124 22 229 186 174 178 99 127 5 203 210 30 168 170 42 73 104 227 247 251 122 92 189 61 153 60 225 212 81 28 145 158 99 18 126 127 122 168 125 173 11 191 137 55 229 184 225 98 16 150 178 85 9 154 1 200 60 132 217 82 152 220 47 4 124 184 87 87 104 61 210 115 18 194 11 5 113 100 92 158 188 52 212 0 227 44 112 224 187 207 146 39 233 194 75 46 131 65 66 167 213 114 150 10 232 213 209 3 141 136 5 188 71 191 220 216 21 108 58 37 12 144 99 165 226 145 98 137 33 119 30 154 19 85 30 134 95 243 111 43 166 225 138 181 62 28 15 23 94 155 16 235 184 39 80 68 176 25 54 158 90 118 246 85 108 221 191 215 116 109 174 151 10 130 238 113 51 176 48 119 172 45 134 52 124 103 49 186 150 3 246 57 128 170 170 42 85 102 155 21 161 12 171 119 235 30 189 70 73 203 244 30 125 174 245 176 123 146 12 158 9 240 30 194 64 225 43 87 209 21 180 1 33 121 196 92 172 213 2 175 203 11 244 35 210 106 218 130 109 195 168 70 169 213 253 126 46 173 49 56 93 50 53 81 230 178 108 240 72 18 177 26 162 36 37 218 177 27 226 233 93 235 195 174 62 123 166 221 168 163 250 177 239 234 223 196 139 144 255 239 90 117 59 97 202 85 162 248 168 204 42 34 75 180 53 66 111 139 92 4 119 41 0 93 41 28 166 243 77 192 60 155 183 88 243 23 183 202 174 115 159 125 73 110 198 5 255 8 189 50 65 183 110 171 97 247 101 48 41 150 18 150 67 214 244 53 76 88 146 174 249 87 8 182 177 202 220 249 68 26 97 224 32 17 243 17 240 211 47 208 22 119 184 221 79 31 214 84 127 178 114 181 229 24 56 147 200 157 121 7 140 167 91 34 149 145 114 99 110 246 39 116 71 19 243 77 211 161 7 208 162 152 63 235 129 133 14 106 145 96 155 172 112 118 156 43 82 120 36 56 80 204 141 117 67 130 45 239 88 145 232 233 191 51 194 153 96 113 33 134 18 213 112 158 5 32 199 47 219 52 182 239 50 232 226 89 124 73 170 226 150 227 8 145 41 234 200 121 196 59 74 44 11 121 232 109 186 7 15 25 3 47 83 64 124 227 66 239 6 56 126 27 79 35 216 241 170 150 189 127 131 240 186 133 243 117 165 59 137 45 64 61 149 230 22 107 3 158 128 56 125 211 71 66 175 223 223 253 87 212 164 127 51 182 241 109 31 176 215 209 222 53 208 218 85 210 33 241 195 169 32 70 28 103 80 137 87 251 66 19 18 152 87 225 21 127 46 241 217 143 246 162 182 185 236 64 248 58 100 224 92 28 128 6 85 12 92 160 158 189 106 174 162 253 46 119 226 164 107 84 141 189 9 162 25 35 162 50 207 205 237 43 110 42 200 50 121 198 48 165 243 217 27 191 32 198 41 210 162 160 113 38 60 19 68 27 74 150 186 120 170 192 154 254 134 197 64 153 24 160 210 57 226 96 62 220 51 199 94 198 229 160 251 236 95 49 147 163 222 140 27 147 188 255 199 254 84 182 111 122 144 198 191 59 123 226 112 88 57 43 149 164 166 193 149 183 167 193 61 62 82 54 122 114 86 173 211 206 131 241 54 22 220 191 237 66 15 59 114 246 29 152 127 5 135 39 14 238 238 142 122 82 245 137 107 64 2 84 238 186 70 18 67 231 10 149 120 213 86 63 17 239 163 224 66 138 252 252 250 24 120 24 204 239 251 69 88 172 162 32 106 225 50 35 110 245 186 124 102 144 244 8 10 140 167 78 43 24 122 25 208 213 52 65 74 67 41 227 93 241 105 203 160 160 243 190 172 247 38 146 104 245 67 79 39 188 109 164 175 180 19 58 39 251 134 172 55 95 186 120 161 206 118 75 89 175 182 253 217 98 86 71 245 182 32 147 9 255 33 11 169 181 99 220 167 13 180 97 117 124 27 120 40 139 161 50 176 101 12 31 43 78 108 143 64 64 154 230 15 18 199 25 78 209 138 82 255 245 203 157 28 221 55 148 132 111 124 243 128 242 208 99 90 137 17 249 145 175 229 26 114 178 163 210 108 199 108 227 208 218 205 224 145 161 111 184 45 185 157 118 29 221 179 144 97 214 131 87 168 115 183 138 108 49 91 12 90 127 139 137 44 155 141 140 102 75 141 210 86 39 159 242 78 104 230 224 144 6 186 26 43 160 234 141 67 91 19 224 125 50 18 103 249 63 10 23 204 109 64 46 254 141 70 85 252 213 150 52 25 52 177 72 156 198 28 174 58 31 75 20 47 106 208 46 60 101 35 187 14 251 204 161 250 49 128 110 16 231 71 215 211 109 12 129 136 237 92 61 230 213 103 121 37 205 50 17 220 101 212 206 0 164 92 23 21 150 233 206 220 71 162 153 51 80 51 196 163 197 117 205 222 143 3 161 27 254 165 56 237 196 165 70 113 32 72 163 209 6 242 217 112 171 165 30 11 172 159 152 160 85 221 100 196 74 53 66 63 190 126 59 216 17 39 111 250 23 89 126 73 47 69 113 30 180 0 226 114 230 146 22 222 233 51 90 149 233 76 98 34 191 173 2 16 132 111 109 126 227 153 5 218 65 72 10 253 229 254 242 24 135 204 49 58 13 241 3 232 200 113 168 3 115 64 5 97 236 253 2 68 63 167 152 93 110 32 111 212 41 123 14 5 119 118 46 242 90 108 131 67 230 126 61 193 60 254 43 191 211 184 47 225 69 170 188 205 170 180 84 194 53 164 23 87 114 100 100 97 127 140 91 229 73 29 32 230 194 192 222 39 93 168 44 145 150 96 168 133 56 230 235 140 1 181 116 110 236 210 225 157 73 196 227 189 181 42 153 249 80 83 239 190 128 22 177 88 26 4 40 29 6 36 33 202 245 208 146 78 70 100 186 198 124 105 188 15 249 45 225 125 125 132 114 245 34 166 89 60 97 36 94 51 76 122 52 77 251 93 14 230 201 54 0 142 250 0 40 191 61 153 79 124 7 168 134 231 140 81 162 99 139 102 75 40 2 184 72 153 188 135 207 240 157 217 155 114 24 93 22 35 186 207 102 68 211 210 113 231 173 57 3 120 129 155 8 152 16 193 22 74 168 175 35 159 216 4 85 162 193 122 67 161 55 244 39 12 6 80 209 154 75 65 93 231 68 31 170 225 27 184 121 230 160 139 226 75 168 136 125 137 91 179 199 236 207 51 149 221 36 130 190 249 1 242 189 165 224 113 182 158 88 19 42 170 195 153 47 45 204 103 52 204 21 1 223 130 159 65 189 128 14 34 48 21 174 37 137 252 39 29 22 110 116 13 242 186 76 130 231 241 51 183 114 100 158 114 170 68 27 39 81 56 208 148 219 74 136 30 116 232 119 219 2 118 44 179 123 98 188 175 88 158 132 27 199 93 247 75 32 228 106 196 20 231 96 11 218 196 65 198 217 128 254 214 167 179 253 155 18 174 254 117 32 97 165 51 232 218 176 184 75 212 234 74 122 191 11 8 32 82 201 20 203 216 239 59 177 83 74 48 48 1 38 68 162 214 66 239 8 14 48 174 170 230 136 159 84 117 104 226 82 185 148 151 221 71 184 92 176 253 98 134 175 184 218 129 139 0 139 212 5 192 192 141 119 14 44 192 201 18 26 200 3 4 203 119 211 40 1 9 34 34 23 58 76 107 177 95 46 84 144 112 9 24 248 255 74 107 216 233 198 183 223 8 55 207 193 2 98 115 57 122 41 190 174 150 28 129 163 32 185 61 170 93 18 208 230 37 152 83 125 28 171 229 55 59 172 201 30 227 50 101 85 240 142 6 215 220 223 173 221 225 28 44 10 86 150 140 206 93 143 116 47 41 221 168 249 75 128 113 210 241 123 250 24 218 162 5 14 185 252 149 227 29 144 82 110 180 109 129 103 179 61 209 137 9 119 123 191 154 140 192 139 23 83 145 125 193 49 175 179 73 179 162 68 240 185 168 201 13 225 255 103 69 234 100 42 245 133 87 203 89 144 45 209 20 112 196 227 72 225 39 22 119 146 50 172 186 10 229 6 122 227 168 54 166 195 206 218 241 236 97 193 13 32 147 231 169 236 98 95 230 216 152 63 13 255 58 123 56 15 157 200 42 187 93 170 219 224 47 119 68 50 25 206 137 193 184 47 41 234 241 124 111 198 185 85 127 34 155 42 23 211 16 115 53 206 223 77 204 38 167 107 231 82 222 155 87 47 231 56 15 221 130 68 130 179 228 63 28 249 236 8 210 196 143 92 247 140 200 240 14 181 233 214 252 189 31 238 196 73 226 59 135 29 104 147 219 190 76 35 0 228 52 10 31 20 51 21 55 1 112 45 116 26 184 62 92 95 234 237 106 189 168 8 196 6 246 126 147 195 114 212 147 131 19 112 116 56 204 114 46 223 46 118 38 240 184 11 166 212 113 43 98 146 149 49 44 78 120 27 44 224 14 244 98 244 75 6 206 35 23 131 138 63 39 186 29 127 77 69 233 234 137 4 158 6 85 25 112 247 90 71 232 72 132 67 15 128 213 21 163 116 173 230 78 229 195 54 70 10 100 117 245 219 37 27 71 252 38 175 218 162 210 40 68 151 102 234 92 103 206 197 79 215 39 193 194 185 66 108 135 38 234 205 22 236 4 244 135 183 251 140 170 2 49 129 165 237 6 225 135 118 14 151 172 97 77 33 170 65 254 204 209 143 191 189 127 30 226 15 11 139 164 103 123 41 154 105 157 125 188 169 5 247 67 21 16 124 21 62 254 243 90 48 212 115 190 234 128 53 195 196 11 224 70 227 167 185 170 82 226 237 19 89 177 227 217 52 199 127 203 43 48 93 16 147 140 127 149 56 20 52 69 230 209 109 228 218 75 100 194 97 35 13 175 193 84 232 89 38 144 31 55 176 161 141 173 133 244 190 186 118 21 77 113 43 185 82 44 244 137 17 244 19 96 217 214 120 76 239 34 82 51 215 53 189 185 26 110 123 18 11 214 191 60 158 44 101 117 163 162 237 89 85 164 54 121 53 118 106 215 127 191 176 96 71 250 13 144 247 163 165 244 15 7 108 131 195 137 2 119 45 209 52 46 156 90 201 163 59 253 133 37 160 251 128 228 144 89 204 195 141 183 48 63 217 89 71 30 34 50 203 187 190 223 58 96 185 154 50 124 71 201 140 177 8 177 212 15 242 96 186 105 32 20 146 204 36 101 102 187 176 99 113 100 70 91 22 242 235 69 172 97 66 60 235 15 71 33 145 165 242 217 36 66 17 245 159 85 145 253 80 132 55 31 106 79 221 218 20 209 182 151 17 30 205 61 2 142 98 136 195 164 122 54 67 44 70 203 172 120 136 45 18 46 237 139 131 238 148 160 247 85 222 191 246 151 236 182 61 138 254 39 174 249 33 121 205 70 39 181 115 156 43 217 7 93 85 174 11 192 145 255 146 183 153 157 6 242 234 224 53 19 85 116 133 131 87 61 195 68 50 231 35 65 57 165 40 48 133 178 64 81 47 220 225 85 225 37 132 54 255 108 133 38 254 156 54 196 70 188 241 194 185 194 247 186 88 210 69 42 182 154 22 246 25 192 82 22 99 41 34 146 78 228 238 197 239 77 135 248 215 153 102 162 242 88 23 95 19 142 21 100 104 237 76 134 224 189 78 74 203 110 14 16 129 134 4 103 95 187 197 185 1 206 122 101 167 89 248 77 43 26 219 175 143 15 156 118 110 195 68 72 154 239 54 48 133 244 51 85 148 5 238 162 111 41 51 89 119 75 91 231 126 244 254 191 9 248 20 234 70 28 183 59 54 131 63 105 221 238 183 170 62 218 128 15 61 148 234 176 221 44 9 80 151 189 226 182 134 90 0 198 206 248 200 194 6 56 252 173 177 241 146 236 86 213 60 252 135 17 216 27 136 91 111 32 53 169 4 99 132 192 211 121 50 159 211 131 199 9 78 187 248 210 195 247 176 24 187 34 123 10 174 237 27 155 48 9 183 60 97 67 187 53 23 6 102 25 125 115 46 83 248 111 225 175 60 244 193 27 34 248 79 151 230 152 79 11 156 71 31 251 86 241 91 174 144 149 249 194 214 97 66 171 186 249 116 5 213 105 231 90 245 236 228 108 138 56 128 67 151 44 209 57 208 229 94 47 231 94 139 227 137 193 119 188 30 18 159 122 243 99 192 168 110 2 93 26 142 61 150 247 137 187 152 69 122 237 49 82 54 214 221 139 224 177 73 210 133 19 166 125 50 37 76 123 81 174 183 1 198 66 55 77 212 92 180 78 215 39 183 239 222 105 78 32 23 38 126 120 37 136 250 107 146 253 1 135 67 242 36 31 206 137 201 146 171 229 145 96 136 241 141 89 174 21 170 229 29 115 24 60 244 153 173 44 148 79 47 126 14 68 91 246 20 40 47 99 3 212 74 34 64 234 102 126 200 175 248 157 21 113 203 14 223 250 104 185 29 99 245 176 197 177 50 224 246 187 201 221 180 59 52 85 55 202 98 208 223 252 206 152 183 157 66 44 178 203 57 131 19 217 200 188 133 63 254 202 254 164 14 36 165 81 34 220 87 92 14 49 93 7 126 191 101 235 161 3 175 95 229 19 238 221 64 124 15 136 73 167 229 31 172 229 5 138 170 251 97 163 58 110 224 17 80 15 220 165 203 22 32 58 37 209 164 96 95 5 207 75 162 166 72 191 107 31 161 94 214 206 46 78 96 12 236 118 170 97 158 101 13 71 226 229 132 69 65 202 240 159 19 51 168 208 161 67 211 141 205 111 129 69 136 251 147 212 76 232 130 11 12 189 30 177 89 75 178 136 129 120 167 81 141 208 49 93 95 252 94 168 69 215 19 190 13 126 70 243 13 0 138 51 252 28 8 218 35 247 159 200 213 163 46 126 130 141 232 232 198 113 71 76 247 186 66 135 245 214 236 106 207 58 41 201 12 178 219 91 10 200 5 46 96 158 115 40 9 100 81 117 14 88 169 50 51 63 10 247 102 193 250 33 67 188 80 141 55 189 227 228 29 88 145 68 19 7 240 31 141 60 149 70 8 210 135 219 117 196 206 50 47 82 39 206 66 10 0 89 153 189 196 158 244 252 57 44 231 221 208 79 55 76 145 214 179 201 195 101 182 170 117 19 135 230 121 191 46 160 209 149 242 138 178 65 129 203 108 145 45 150 100 56 128 21 90 221 110 94 240 105 179 209 197 206 156 18 181 149 171 14 206 11 8 178 8 45 39 60 85 254 71 1 162 186 199 60 65 186 127 159 101 85 233 49 99 150 202 235 30 251 218 56 200 233 70 69 163 111 152 181 6 173 115 7 117 44 202 168 153 65 105 72 38 30 172 244 245 203 60 207 100 111 222 213 137 39 128 121 210 80 205 254 217 149 250 90 80 26 146 116 86 246 127 173 252 151 172 113 71 238 23 27 212 249 60 231 237 188 32 236 147 180 110 118 118 249 129 125 37 4 223 114 155 111 48 35 202 161 215 166 61 225 239 144 7 110 88 242 141 224 123 225 94 105 37 130 197 68 164 125 27 249 22 30 45 176 20 226 164 187 189 190 23 53 41 144 230 15 42 225 242 215 42 109 73 135 204 241 85 145 72 10 67 20 136 84 145 195 240 86 19 160 210 62 169 59 231 36 72 163 76 51 103 0 221 91 183 244 176 83 159 81 57 55 133 89 197 90 187 14 212 189 39 81 45 129 201 182 26 75 120 216 95 190 68 145 181 184 135 1 41 82 143 105 27 111 23 93 218 160 40 37 157 47 125 105 185 154 246 226 201 60 25 143 169 229 161 3 150 169 53 128 95 99 235 117 230 127 120 186 33 193 176 250 156 189 48 55 26 9 239 226 141 206 215 116 74 87 102 207 46 107 215 212 7 218 207 94 246 62 94 113 54 199 63 78 186 6 143 89 20 92 122 105 200 170 194 126 86 170 199 67 117 243 201 161 218 11 137 193 30 136 221 147 193 110 103 85 235 213 219 212 39 91 212 178 241 219 196 244 149 114 29 181 103 149 81 71 240 48 206 71 140 219 100 184 100 54 199 142 242 161 4 67 144 1 251 46 18 22 238 121 143 58 32 47 233 168 102 243 21 166 34 119 208 175 65 102 147 96 167 59 9 75 77 184 79 177 147 201 62 57 133 135 143 0 124 250 250 235 161 84 128 197 127 229 13 67 89 230 91 75 247 184 113 116 100 77 206 113 136 229 176 52 110 187 0 1 2 102 8 183 5 91 252 184 57 131 253 240 134 188 70 28 77 140 10 66 185 219 157 229 160 54 110 236 175 11 253 182 153 170 192 130 221 56 232 134 166 113 34 154 253 45 137 147 169 55 19 222 130 189 204 185 137 56 154 160 195 97 19 238 158 159 242 105 158 43 44 132 47 98 235 59 93 206 29 12 171 23 174 185 100 74 134 6 226 33 104 88 22 211 210 140 249 90 26 19 211 188 53 97 177 244 118 148 107 150 131 208 47 226 244 90 98 34 116 34 22 75 253 130 77 244 181 28 96 178 50 200 112 25 48 249 43 12 30 170 13 214 144 233 176 251 152 79 233 44 66 4 177 132 178 12 190 200 195 37 139 71 235 165 89 108 225 182 117 61 81 51 27 208 112 191 117 187 32 71 68 120 90 56 237 50 106 48 148 12 158 5 146 35 73 194 52 138 9 114 247 57 215 122 197 231 143 179 18 87 132 160 248 3 0 26 98 233 179 116 108 246 18 83 61 5 123 172 237 253 230 171 110 209 126 130 157 211 223 220 177 187 239 69 222 158 131 0 85 61 130 158 72 56 93 92 72 10 230 155 36 74 177 1 104 192 169 227 185 214 128 79 121 29 208 17 228 117 139 89 41 148 234 82 230 2 123 91 163 205 198 95 180 232 250 67 198 79 46 42 55 72 51 93 238 187 146 81 56 139 254 216 31 219 48 248 22 21 76 231 42 83 29 157 125 122 237 255 215 245 27 99 170 74 82 11 198 189 157 135 145 144 43 191 174 238 83 13 10 191 128 163 100 174 37 134 255 111 206 197 59 209 254 184 7 255 221 250 59 224 32 200 76 94 191 227 88 141 115 0 148 65 123 49 210 62 2 61 60 100 136 103 251 135 155 59 37 160 34 147 123 146 92 146 254 210 70 145 156 124 43 91 165 243 144 93 118 136 119 238 191 121 63 87 111 86 66 75 197 182 34 249 59 24 144 197 234 181 164 73 209 180 16 75 212 239 188 168 254 234 230 34 202 232 166 243 175 171 223 91 16 197 140 126 183 182 170 199 206 206 148 245 46 203 119 243 184 237 105 4 34 165 192 103 134 19 241 150 56 144 96 144 83 29 220 41 167 72 244 69 156 72 108 81 77 130 17 145 224 142 121 179 27 109 35 247 254 85 110 15 28 158 146 182 195 243 205 175 52 3 235 7 123 221 151 37 233 237 180 228 49 91 111 151 248 208 47 57 247 8 146 243 246 219 144 61 209 78 4 88 92 111 162 208 158 88 117 183 63 69 151 218 9 207 167 149 35 201 5 141 15 108 118 46 78 120 105 53 204 40 202 177 52 83 130 146 185 184 84 98 66 87 103 174 170 83 194 239 49 199 98 225 173 84 31 140 111 148 149 203 70 115 216 61 128 213 67 238 51 79 195 129 246 221 72 31 127 217 71 152 172 126 168 62 28 130 237 116 103 191 197 36 162 249 145 254 193 204 137 235 176 42 43 82 237 55 170 194 197 91 24 238 4 115 189 162 5 90 32 111 39 190 227 119 248 62 34 233 131 57 104 10 177 107 36 20 57 174 215 200 212 192 70 43 97 201 45 218 78 125 6 214 193 118 106 51 229 128 128 195 207 86 120 71 99 25 129 13 230 71 96 33 179 49 210 88 175 250 85 51 89 68 76 134 89 134 231 136 49 152 15 160 36 1 87 227 89 166 39 206 206 15 206 218 140 3 190 229 74 185 59 71 138 45 112 190 140 28 33 97 77 49 62 155 110 205 96 78 150 49 4 250 147 196 179 57 180 48 123 76 48 197 234 171 76 101 149 81 53 113 32 130 84 192 56 2 34 234 62 88 123 119 222 162 39 186 84 95 171 73 23 159 167 97 242 29 224 100 38 189 55 31 195 116 79 174 187 116 124 57 163 139 198 68 162 208 233 169 55 165 92 31 162 209 87 63 156 240 251 158 91 61 251 3 159 83 18 244 125 139 66 182 58 148 127 187 253 201 230 162 88 173 46 100 168 115 142 186 142 237 188 242 253 92 122 95 247 13 115 112 193 43 138 148 62 181 211 181 35 224 231 147 160 189 60 132 106 116 79 100 210 31 229 80 104 184 130 35 133 30 166 11 209 195 212 175 98 147 183 60 190 152 212 82 40 144 129 158 4 161 76 12 54 183 208 246 58 137 115 81 7 21 196 173 192 115 135 91 227 73 21 169 139 64 79 34 182 72 117 142 194 188 193 53 218 229 207 124 101 15 108 222 87 33 124 251 181 148 236 214 184 231 110 42 143 69 191 46 214 228 35 132 41 25 114 191 169 217 165 162 67 212 28 208 126 197 44 89 56 158 134 151 116 247 21 10 17 115 249 246 229 90 144 61 76 218 227 173 212 215 203 157 151 110 223 42 151 165 123 204 52 235 30 149 110 54 63 30 126 30 53 1 137 197 136 96 140 102 72 0 173 204 207 121 190 247 198 38 130 16 45 240 130 73 93 135 36 24 194 44 190 130 233 37 254 248 59 178 202 205 153 193 82 194 254 250 227 60 251 180 147 165 88 68 175 110 52 135 41 30 112 184 64 61 76 37 125 46 64 96 79 71 225 237 179 36 32 122 90 122 95 138 152 20 164 72 191 6 213 8 72 68 124 94 64 32 213 112 102 153 68 2 146 91 221 15 89 7 5 150 33 102 21 130 131 77 19 197 243 183 239 238 226 145 223 114 34 105 43 130 74 165 43 145 192 115 143 156 80 110 39 180 219 99 187 191 127 116 250 249 27 142 84 114 27 80 220 73 60 167 42 1 146 107 41 235 73 64 135 85 115 218 137 155 99 131 95 118 123 127 156 109 165 170 17 65 1 69 129 211 71 77 48 126 98 245 35 119 110 116 58 11 229 255 240 56 87 193 91 24 26 142 189 131 149 152 165 246 155 6 95 2 96 116 180 223 216 48 165 45 143 107 32 209 160 67 107 224 86 106 87 155 214 77 122 43 251 161 86 185 253 191 164 192 156 242 189 35 39 233 136 78 138 253 80 211 40 140 105 120 47 232 70 216 252 242 195 5 210 232 193 11 213 106 160 114 16 158 146 70 215 115 242 107 166 22 66 141 161 21 54 121 15 255 92 188 191 128 51 234 0 163 117 76 218 133 202 136 6 136 152 60 181 192 12 253 203 232 159 29 59 249 170 8 182 130 143 153 23 240 143 81 255 210 112 62 159 76 140 23 185 35 196 37 1 241 184 174 193 3 98 24 2 173 11 94 6 225 102 195 53 30 131 185 52 33 158 105 117 83 56 196 236 131 143 117 88 95 103 14 85 7 78 179 52 224 226 7 105 178 72 223 166 100 51 124 209 119 50 241 24 152 173 196 16 7 62 158 253 41 92 62 64 218 245 116 58 111 213 239 122 138 208 70 82 10 157 84 7 214 226 20 71 21 61 111 137 10 253 217 247 227 200 231 25 159 235 157 61 1 174 75 231 136 68 114 239 110 102 107 129 132 106 200 60 180 12 153 176 155 201 224 222 22 23 128 186 231 176 176 20 83 28 7 101 123 228 253 116 78 101 114 109 104 102 190 93 215 238 155 247 157 51 248 10 23 137 213 30 33 36 252 230 136 65 208 98 77 172 52 132 248 198 84 103 188 88 89 119 105 137 84 86 152 140 122 80 89 71 204 131 226 30 244 183 239 127 181 53 191 138 231 175 171 7 112 126 168 181 28 186 50 212 0 228 208 144 238 50 154 139 116 164 131 212 222 221 103 174 190 187 139 239 141 11 211 128 51 111 6 227 138 58 146 151 189 74 167 173 82 54 217 91 242 210 69 13 165 48 193 241 178 45 15 1 155 55 158 250 106 184 87 249 45 82 35 120 233 22 115 48 30 94 97 87 197 49 38 63 190 88 183 127 231 99 107 108 184 248 88 126 193 209 129 235 145 70 187 180 93 166 164 164 187 199 37 253 188 181 172 221 251 233 240 238 104 4 192 185 53 35 102 224 91 137 1 168 91 98 73 181 203 30 146 142 217 232 207 178 119 145 0 53 116 81 198 241 34 246 162 201 124 199 137 127 153 29 194 247 141 106 90 15 143 39 215 131 195 58 176 113 103 108 56 112 145 127 250 42 252 122 212 158 74 135 194 144 8 179 211 243 71 192 70 217 56 13 77 113 238 194 42 8 252 13 163 13 59 237 18 237 143 117 244 221 246 25 19 35 149 123 162 234 35 206 159 205 192 204 111 190 125 211 2 148 238 239 232 45 67 12 238 197 23 208 39 67 61 195 55 85 91 241 48 206 154 136 112 205 23 9 85 39 132 239 191 113 167 192 145 106 37 195 185 20 187 82 1 1 221 222 164 78 82 167 141 67 9 224 237 214 37 182 178 223 200 215 93 34 223 70 132 236 74 135 169 201 46 77 103 11 194 75 145 49 154 189 217 164 93 240 191 129 95 53 62 140 26 244 118 178 240 11 40 112 117 173 107 21 226 81 221 154 129 232 235 144 229 207 148 151 43 36 233 224 201 192 57 92 175 85 239 205 70 235 35 114 106 187 168 12 188 158 88 191 119 88 214 166 250 87 65 91 41 80 182 155 7 25 115 59 249 135 255 192 242 134 236 232 117 207 18 21 27 110 68 38 210 201 235 19 140 189 102 88 237 241 214 181 68 11 105 91 128 214 217 196 239 189 230 26 113 201 26 70 122 163 141 210 37 178 51 129 104 141 108 48 20 88 38 29 190 47 254 192 10 194 95 10 113 58 127 18 219 67 185 106 14 64 214 8 152 3 124 175 195 54 144 161 73 58 25 174 76 149 163 51 177 209 62 136 8 129 216 255 111 203 228 19 20 75 247 123 24 244 212 255 217 40 38 6 167 110 174 254 204 17 100 222 177 229 118 111 90 47 71 93 95 162 180 91 252 76 70 56 138 231 246 3 139 11 44 163 107 170 214 254 243 176 91 112 146 221 1 25 65 188 83 55 226 233 68 139 52 149 95 108 131 72 48 115 15 194 53 102 51 244 31 222 136 10 47 121 227 84 2 139 15 128 53 162 169 170 147 208 222 18 18 180 35 9 255 79 96 51 14 152 197 235 248 78 11 20 251 77 98 10 58 137 116 48 167 115 133 244 154 9 68 150 104 187 8 127 74 243 206 158 224 177 211 243 29 25 8 120 25 145 180 193 150 215 148 76 234 34 66 74 80 205 203 132 223 116 245 75 30 103 71 11 211 30 188 240 227 232 153 140 181 160 212 38 16 200 134 125 74 21 69 166 158 181 144 251 125 127 7 136 167 70 170 137 94 160 79 245 129 97 24 4 10 16 26 163 162 184 66 67 218 108 34 223 60 86 19 221 39 68 233 204 210 182 6 121 70 163 75 24 241 146 57 74 109 69 75 100 207 55 177 92 14 118 248 190 60 229 198 200 123 90 85 178 216 108 35 77 2 0 129 219 11 170 206 50 37 147 85 146 135 128 19 180 181 249 247 129 50 151 65 200 211 215 81 22 209 97 235 224 101 76 66 100 154 158 47 185 5 14 153 164 161 153 74 183 85 155 235 34 65 206 136 7 210 187 219 0 1 118 190 149 127 234 71 104 24 132 174 195 107 60 224 2 18 189 221 122 165 37 23 239 199 194 178 239 166 173 230 47 128 51 33 82 213 67 26 129 247 196 133 44 158 246 138 224 240 209 247 49 211 216 27 224 81 182 143 251 30 31 236 65 144 15 130 136 107 99 129 161 107 163 132 211 185 2 133 235 251 20 45 72 106 114 45 189 123 102 183 76 244 252 104 139 248 226 76 64 126 59 42 193 78 22 7 98 206 104 212 128 124 232 136 142 225 185 216 206 26 209 120 161 38 3 203 172 6 91 22 175 20 150 151 245 59 223 208 122 232 60 233 193 208 247 109 233 38 40 138 118 54 149 223 46 81 25 92 94 72 216 5 248 244 57 86 98 144 184 236 185 193 133 150 122 45 241 58 210 94 12 120 57 249 207 36 59 83 237 222 195 122 171 19 140 50 186 242 86 27 137 90 183 42 119 234 233 93 220 193 33 83 99 21 2 104 159 43 35 56 149 37 123 71 64 42 149 163 226 49 177 85 66 54 62 196 129 202 253 201 31 101 96 222 202 163 227 158 117 61 252 32 225 37 152 255 222 186 188 249 206 85 217 173 209 123 109 5 120 43 21 212 56 221 159 42 100 166 87 207 143 69 53 31 252 144 92 70 201 114 154 9 140 252 180 79 5 18 233 178 9 77 119 112 6 106 145 205 115 180 85 141 36 195 212 207 192 176 19 99 189 63 117 57 145 151 202 208 13 189 157 175 46 209 141 250 109 250 67 71 204 180 102 62 233 6 225 242 57 36 76 145 30 182 250 211 254 220 196 164 76 35 250 243 85 31 170 67 97 74 52 193 115 60 110 212 70 60 202 38 67 231 194 56 207 253 218 77 189 182 196 169 145 249 178 229 187 192 72 101 92 249 141 46 71 175 202 186 70 230 50 122 169 82 148 78 239 237 155 234 207 151 167 124 194 77 186 111 177 125 6 184 210 73 51 164 56 47 72 115 216 93 92 9 58 167 126 181 222 240 237 89 238 204 63 231 83 44 0 160 34 62 24 147 230 189 26 255 249 109 32 31 73 20 66 175 48 189 116 98 240 226 131 2 4 40 190 36 216 171 235 235 189 137 34 30 116 70 232 45 201 152 25 178 120 180 131 126 53 102 80 99 113 161 163 245 163 6 178 175 74 19 224 172 132 100 177 102 155 138 215 235 133 3 27 102 133 245 154 72 136 170 115 166 130 2 39 41 99 108 253 25 