P3
#HOLA
50 50
255
111 185 103 53 45 165 254 248 245 247 29 180 43 3 150 235 128 166 23 222 239 96 154 223 76 248 74 236 235 159 102 98 106 189 164 142 60 169 81 85 207 39 143 119 245 60 57 125 144 214 151 240 239 175 52 181 202 227 108 64 228 232 140 146 40 83 246 148 203 220 18 242 171 120 61 109 58 192 11 32 169 21 136 137 102 203 245 86 160 162 234 238 134 65 70 205 211 68 241 141 202 45 180 92 203 92 28 70 236 9 150 142 85 195 245 123 184 151 245 164 54 35 0 186 95 237 21 214 22 157 198 59 93 130 181 6 2 232 245 105 211 30 77 135 45 194 134 33 64 124 181 224 33 33 247 116 157 153 112 13 154 31 126 93 224 95 116 130 231 213 188 18 49 206 166 194 143 134 183 2 76 251 41 95 146 251 124 77 16 169 14 192 60 132 223 13 69 12 23 208 5 117 159 200 190 109 20 245 108 12 187 59 24 43 181 111 188 51 54 188 45 85 116 228 114 190 43 176 213 88 207 106 93 29 158 13 109 50 196 14 116 71 221 223 98 4 102 218 26 119 162 157 60 35 101 181 183 58 86 12 216 229 44 242 201 231 106 21 122 11 60 17 80 122 6 158 139 212 83 221 7 249 34 32 162 94 164 237 67 219 83 1 161 130 173 47 89 155 132 229 183 140 203 167 197 75 77 63 251 193 56 129 14 72 54 158 73 172 51 251 202 141 155 192 242 192 115 100 43 101 63 208 132 46 169 249 216 193 13 91 61 231 137 229 197 206 103 87 88 183 215 8 79 201 151 167 212 101 81 217 243 132 70 138 215 182 230 52 184 66 171 165 178 36 158 115 61 197 94 113 71 158 154 97 122 9 118 249 130 254 107 127 49 119 142 112 1 59 142 29 61 35 48 90 190 8 98 89 232 225 221 156 12 121 196 31 192 198 184 36 80 25 67 126 73 29 143 6 92 131 10 233 97 170 116 141 118 127 161 64 205 145 153 72 208 36 225 157 60 237 84 29 6 58 236 148 52 45 175 131 236 242 166 0 184 84 225 165 100 248 207 21 130 174 111 91 174 70 60 60 113 180 22 44 110 202 228 108 222 255 84 164 104 30 198 229 214 14 97 26 177 22 113 85 154 185 143 141 201 217 138 240 176 12 226 80 26 206 8 39 52 223 57 65 214 132 98 88 29 144 169 194 255 252 157 239 79 64 43 119 187 155 48 240 54 173 185 91 227 224 149 205 106 58 254 33 220 232 180 91 7 96 27 19 4 124 120 174 97 110 72 216 250 19 11 119 206 246 122 247 247 200 88 227 197 147 103 200 135 51 127 103 111 226 156 106 162 156 39 52 130 106 139 43 194 100 29 65 103 58 54 132 131 83 49 243 33 18 195 57 221 90 28 125 191 221 125 190 237 24 109 103 242 65 72 156 213 13 252 123 246 79 105 172 188 148 4 138 35 89 149 176 211 173 97 155 176 192 162 233 229 61 28 220 22 231 45 144 70 223 120 163 232 197 199 153 64 233 146 140 149 70 208 113 14 167 46 3 102 84 107 139 247 187 179 147 205 87 103 153 77 69 7 156 215 193 2 95 196 79 82 18 24 226 226 57 21 135 227 168 80 65 35 145 93 9 192 114 200 51 21 211 139 94 174 87 240 169 53 124 106 8 88 219 110 241 254 144 15 239 234 96 11 70 76 224 166 103 52 240 133 80 234 185 95 118 73 244 234 182 240 191 98 37 191 32 237 52 5 78 57 173 229 88 22 54 60 145 191 252 221 145 97 63 192 9 149 63 162 32 129 116 45 238 247 162 7 241 48 128 244 186 204 6 114 139 228 188 76 13 235 151 153 18 110 39 223 169 13 135 79 55 148 190 245 62 240 251 236 78 186 203 195 61 116 197 104 253 206 92 82 36 217 203 186 11 184 225 105 191 81 187 179 110 156 46 157 89 95 220 66 58 98 44 3 178 4 149 209 71 181 201 119 33 65 135 223 109 109 188 160 240 248 46 207 42 214 151 108 59 178 224 125 36 47 237 131 53 219 99 221 182 156 58 39 178 54 119 33 146 72 32 134 114 78 201 191 183 177 149 87 37 226 31 14 1 226 12 253 112 147 138 84 123 16 235 109 249 216 31 34 174 214 215 190 63 254 145 83 221 229 175 132 33 199 18 125 203 156 238 45 216 11 39 36 202 222 229 115 109 244 28 7 213 202 251 127 70 232 236 2 206 60 90 62 51 12 11 19 180 121 232 186 172 243 221 107 10 228 185 97 218 138 88 164 110 243 133 170 156 220 85 181 146 37 200 239 13 139 22 205 151 253 121 205 68 205 231 34 233 50 241 171 31 175 254 29 136 146 12 154 62 135 17 196 78 1 204 37 150 120 187 136 83 59 133 49 66 90 121 65 243 254 243 76 176 96 107 207 250 143 218 25 174 246 45 187 21 55 20 19 83 238 248 6 121 136 197 236 126 31 239 98 165 135 111 229 48 45 189 64 152 141 52 110 67 70 215 148 175 160 239 206 120 72 80 224 174 223 19 173 126 121 80 6 43 105 28 121 225 81 245 158 69 233 147 128 130 229 64 109 120 211 187 112 70 195 218 173 251 121 197 219 128 126 102 37 128 94 212 137 54 92 126 40 227 195 27 110 46 37 41 83 240 166 210 222 106 119 166 5 98 235 100 0 67 237 36 63 167 153 211 144 249 211 98 228 61 217 86 255 193 94 51 200 176 236 123 171 99 161 223 9 73 29 29 89 163 12 25 100 27 227 134 223 239 134 46 216 172 136 209 201 250 160 171 40 15 51 183 133 209 194 178 128 86 50 104 220 199 250 162 144 178 136 173 28 29 185 226 124 22 226 18 88 117 138 87 92 203 206 115 113 100 148 22 25 250 182 165 27 168 4 3 41 17 173 82 180 14 22 197 202 104 185 139 140 72 47 6 89 230 39 24 144 224 54 138 48 186 119 144 31 75 101 214 63 182 11 236 80 164 47 73 12 222 102 1 58 127 141 49 168 94 187 213 83 148 236 24 197 198 163 172 242 125 168 92 30 18 69 67 196 6 232 42 201 223 139 220 120 98 73 47 101 190 166 209 207 25 105 38 184 181 185 63 190 198 215 161 19 30 23 5 96 7 255 149 145 157 93 166 18 165 79 181 254 209 66 135 4 79 205 100 57 134 240 147 60 252 128 100 222 5 167 189 90 205 142 108 159 13 166 225 190 209 221 161 26 194 106 90 108 96 144 223 5 83 82 112 217 91 205 36 99 232 1 211 51 64 197 143 202 104 168 158 7 54 148 14 9 91 4 221 137 49 219 30 254 207 11 240 227 121 233 175 120 226 241 9 166 181 139 44 187 148 212 36 9 65 125 196 93 38 137 109 54 231 77 1 200 164 184 123 31 136 51 193 82 121 8 80 76 77 176 188 51 137 167 204 112 187 144 102 132 182 25 240 130 93 238 16 2 127 203 195 30 139 166 90 99 216 148 222 69 243 90 65 253 129 171 229 145 227 135 237 194 209 171 184 236 81 100 185 91 17 228 124 133 10 2 213 156 95 5 252 4 174 163 96 216 255 100 16 232 111 208 173 58 202 124 114 85 129 171 124 13 188 251 207 197 101 167 37 96 248 20 66 180 178 124 180 203 111 219 118 158 47 125 45 88 70 10 32 124 217 96 150 145 27 197 95 254 76 197 157 251 145 64 64 180 136 182 24 90 130 82 246 74 83 42 88 51 185 123 168 49 114 46 134 69 223 10 54 69 217 107 238 79 50 82 76 138 63 5 95 26 21 25 106 102 207 164 222 197 209 104 195 5 216 162 81 72 30 101 22 165 223 14 74 48 130 112 38 144 8 36 239 152 180 124 42 224 52 217 155 31 202 185 100 136 149 45 5 27 191 103 226 157 3 160 35 127 180 51 63 217 185 94 106 83 94 185 218 244 64 26 144 58 112 214 129 68 159 247 39 231 132 3 12 224 135 141 143 230 72 86 91 36 207 107 73 50 164 196 30 151 219 223 12 153 136 184 16 227 204 112 38 136 1 168 3 193 208 60 35 93 101 74 167 253 231 159 89 16 187 205 183 191 82 151 183 90 215 38 166 142 8 199 50 234 185 209 10 181 195 139 64 24 60 173 57 154 219 60 126 221 202 242 190 58 60 67 151 144 92 225 123 200 88 0 63 157 246 131 144 159 57 224 46 213 64 190 17 182 192 160 14 255 156 114 86 148 1 213 119 64 41 235 223 184 221 90 225 26 105 55 96 32 193 171 35 220 237 122 248 121 180 30 232 37 20 103 181 244 2 14 198 91 13 73 228 159 81 49 229 127 212 74 215 148 216 213 97 115 112 64 95 163 92 2 88 155 42 23 29 134 135 242 216 61 157 63 188 115 17 27 43 254 139 29 174 204 208 62 106 234 224 132 158 33 178 250 218 121 211 144 90 243 5 197 252 189 84 148 206 231 160 245 76 6 78 251 216 1 177 40 126 244 77 179 255 126 46 132 60 34 211 180 166 210 9 131 21 29 170 89 241 245 40 70 87 247 119 41 9 213 208 146 203 55 38 138 167 239 21 134 247 38 113 31 147 6 144 112 147 43 193 11 171 112 246 217 255 183 149 235 111 168 23 122 12 215 202 196 76 125 152 58 57 146 235 125 80 194 208 149 248 61 220 180 224 58 72 185 92 57 149 9 85 114 89 171 117 14 196 75 213 121 104 204 28 93 183 55 212 56 14 245 219 7 249 64 216 54 29 213 149 173 209 80 15 248 182 162 97 88 144 195 155 213 70 87 208 162 170 205 112 210 230 205 109 168 220 205 242 177 41 233 100 61 158 176 166 228 64 208 36 64 254 157 250 83 144 50 69 85 32 88 229 247 32 241 182 70 114 111 10 56 110 52 203 152 250 225 10 1 177 5 19 115 96 199 124 215 134 168 98 52 3 74 100 213 120 215 135 180 203 96 85 226 82 48 68 213 129 18 146 110 154 241 75 52 164 96 48 199 45 2 116 58 126 70 241 165 210 193 204 138 28 204 173 243 88 42 51 146 25 3 5 44 100 85 60 135 13 175 200 129 125 69 58 184 235 199 88 62 113 79 58 70 187 214 151 0 109 12 23 32 30 49 218 244 4 117 202 149 119 251 82 171 47 235 80 172 236 219 80 63 173 188 103 117 35 206 119 8 235 67 28 26 144 5 223 240 180 19 87 134 34 11 132 214 106 110 57 89 57 126 94 245 78 125 56 52 223 94 145 83 4 196 200 112 41 8 170 3 102 26 95 96 68 82 236 113 127 171 206 84 196 184 49 81 15 178 88 117 212 143 167 228 86 112 64 226 170 115 168 40 215 179 116 90 168 115 28 228 222 18 32 238 140 46 181 229 105 142 154 184 107 149 237 245 137 7 196 131 143 22 168 155 20 79 229 181 23 225 22 232 39 59 70 104 245 86 75 238 222 40 36 140 176 234 238 37 35 120 0 177 92 18 195 133 36 19 178 163 212 166 53 155 164 124 95 231 248 212 39 122 165 209 226 65 213 227 186 2 157 53 242 55 137 175 190 122 23 111 1 47 17 232 125 140 116 175 183 200 35 137 30 241 127 212 122 114 176 112 172 126 158 229 104 70 63 76 237 91 191 40 123 181 134 178 121 74 194 49 97 49 46 221 11 78 32 251 17 205 44 143 176 99 89 247 182 121 185 87 154 243 158 129 178 91 72 87 119 0 228 196 211 122 103 167 151 106 81 234 85 41 20 198 55 172 231 168 242 249 127 65 140 187 113 234 48 45 242 105 89 158 120 28 16 219 91 117 121 105 72 150 107 78 67 123 20 135 44 52 54 151 222 21 7 180 51 207 75 231 201 240 112 200 248 228 237 23 197 201 221 70 97 150 45 209 255 209 254 143 95 110 254 145 229 17 99 214 195 186 136 225 5 13 68 140 192 234 60 160 255 68 30 85 155 42 209 73 190 29 214 97 156 10 100 225 247 109 98 18 79 79 41 46 119 160 141 155 175 193 157 30 226 220 153 172 254 22 162 177 84 146 227 81 51 179 179 213 92 124 124 240 77 43 35 225 245 208 62 123 241 164 166 167 176 22 23 241 41 46 169 182 2 138 13 78 183 135 118 54 185 11 6 184 155 239 222 13 104 138 82 174 250 234 124 66 1 54 70 21 129 217 172 192 147 78 169 192 255 194 188 180 143 14 183 151 64 32 33 69 95 43 5 130 128 227 138 7 153 36 174 164 117 33 82 118 47 27 221 165 216 10 222 208 105 26 62 126 167 84 75 59 86 25 90 118 200 44 32 187 30 175 15 53 178 248 228 194 120 82 240 189 195 91 177 249 59 155 141 217 254 156 0 209 248 57 64 117 207 56 127 41 248 206 212 81 94 178 212 237 223 95 130 38 169 17 251 144 120 47 119 163 128 119 253 130 227 226 252 149 26 51 190 88 101 146 0 49 79 35 204 204 193 194 184 19 121 180 71 72 186 87 67 76 72 46 247 153 210 96 166 37 39 198 183 244 74 249 36 118 136 207 85 78 9 14 125 68 29 87 8 140 131 230 160 226 192 178 203 22 13 176 215 116 52 249 9 114 114 209 71 200 62 61 92 128 10 168 124 249 2 22 237 134 83 209 177 154 141 60 226 140 9 166 63 238 86 65 186 143 196 254 151 213 49 76 197 33 233 108 193 17 201 78 91 66 2 14 249 124 158 78 225 150 196 117 189 250 19 42 240 54 32 24 15 54 18 152 228 248 253 172 49 192 183 100 70 49 29 249 58 201 160 164 246 102 113 44 115 216 170 216 107 217 145 204 180 19 6 40 49 254 249 152 41 207 85 57 157 110 180 152 83 128 203 75 158 72 221 166 193 53 154 183 76 174 164 184 200 213 63 81 37 152 179 73 115 34 136 55 10 87 125 90 9 141 47 142 113 171 15 100 74 4 249 175 20 58 183 167 151 218 27 172 187 135 120 24 26 65 20 234 49 56 210 2 186 130 135 133 14 49 98 239 6 135 111 23 250 39 0 106 12 146 113 210 167 36 171 218 113 71 143 112 36 222 123 188 38 124 43 31 31 180 239 233 124 181 174 249 109 213 5 44 177 231 114 52 176 144 135 12 6 199 202 210 17 243 243 210 94 99 240 103 16 171 121 227 67 114 193 241 222 29 37 13 196 23 144 215 157 104 219 163 35 92 59 10 24 219 12 123 175 29 172 100 96 252 122 158 121 121 143 71 195 42 233 64 138 177 190 55 83 178 12 0 216 144 146 104 19 204 136 11 250 17 31 127 218 214 232 160 99 43 3 82 40 125 2 40 79 253 214 140 248 196 49 146 215 165 48 110 105 189 123 160 221 124 36 117 21 64 37 11 71 241 125 159 157 182 167 246 42 3 99 54 65 144 57 54 71 84 95 1 145 120 165 234 94 124 143 241 70 223 120 136 41 147 82 143 166 95 190 176 13 192 3 21 36 4 103 95 135 179 174 176 27 179 165 151 41 5 50 35 94 101 75 1 10 164 43 155 159 63 115 234 143 58 107 137 175 37 24 216 147 174 142 14 138 158 241 0 184 215 180 169 146 99 7 106 205 17 99 99 233 84 164 180 116 179 123 202 99 80 117 25 63 36 18 115 232 167 254 83 46 85 54 62 235 163 101 195 232 61 169 247 41 231 207 40 65 182 255 59 200 122 195 105 34 24 175 244 31 189 174 211 99 77 194 21 198 103 16 148 1 181 6 132 184 55 138 149 14 129 217 232 61 113 97 101 176 157 153 52 166 71 192 95 132 137 189 41 75 133 195 194 178 103 226 61 116 48 88 232 24 229 230 90 213 135 70 236 246 134 153 78 125 127 151 66 2 225 31 184 178 20 20 5 173 242 185 112 177 115 61 20 28 57 72 61 159 237 51 230 148 153 231 227 8 182 39 203 16 195 84 112 28 165 64 117 210 11 76 180 217 97 205 47 155 57 95 90 116 42 174 201 45 240 36 165 17 92 76 92 254 246 42 192 159 18 82 13 208 78 35 245 16 182 146 63 137 84 36 190 42 106 182 160 0 121 86 72 190 79 32 135 125 121 112 82 143 49 17 122 139 189 219 37 220 5 38 37 202 182 40 133 70 242 34 22 97 82 89 237 17 254 48 65 28 234 193 235 253 236 228 0 121 188 82 211 106 107 12 35 191 170 211 77 236 253 97 36 16 145 223 68 73 177 214 28 236 126 5 177 129 120 7 139 209 15 87 250 28 215 48 27 222 191 195 146 74 172 213 200 236 180 240 104 72 232 16 93 253 201 10 247 201 145 95 206 72 94 57 220 82 2 192 62 89 67 97 231 8 104 5 114 254 6 31 41 239 219 69 52 177 72 4 160 133 88 83 173 98 151 39 184 232 9 58 110 53 20 203 127 254 195 24 213 3 25 112 161 32 169 73 102 184 95 29 44 15 52 91 180 139 50 35 230 46 131 51 209 117 147 221 28 159 61 186 65 145 0 238 87 220 86 48 92 153 182 134 54 88 224 75 49 48 140 149 79 105 29 170 58 154 130 102 9 117 6 139 223 146 135 81 111 113 85 32 188 192 169 65 95 202 61 145 51 6 0 133 195 254 200 245 128 38 255 162 50 171 91 165 129 69 81 50 97 15 122 47 76 195 201 49 128 30 2 247 113 71 32 148 60 20 110 216 76 26 49 16 123 204 219 76 55 226 220 188 25 184 14 235 102 28 173 45 108 249 15 214 153 193 44 143 140 15 94 43 238 41 164 65 223 230 42 8 139 231 155 144 116 65 41 204 14 150 97 90 137 228 3 242 91 232 38 74 92 194 139 44 159 82 212 203 57 32 205 238 158 77 61 192 191 59 106 250 69 30 170 166 10 246 129 111 182 152 225 36 163 180 184 110 193 237 103 233 23 163 177 111 194 119 89 127 77 218 138 194 149 205 236 174 210 36 132 80 217 252 156 11 30 195 128 41 77 142 190 66 76 243 182 77 146 199 140 164 22 240 145 165 143 42 172 129 81 49 73 125 115 215 127 6 115 53 65 104 24 19 53 12 22 239 185 146 121 157 96 69 100 149 39 118 195 40 92 247 9 123 253 56 137 151 203 165 36 146 27 61 82 168 113 250 6 83 247 87 205 202 183 10 251 127 41 121 1 49 203 10 177 247 4 73 211 106 91 86 144 248 255 168 124 201 81 60 70 87 184 155 206 216 200 150 96 47 152 54 98 207 0 214 67 109 240 247 123 19 36 159 34 20 113 83 153 184 208 216 188 133 198 44 74 55 222 51 126 21 196 190 81 219 207 10 174 216 255 55 108 23 138 70 69 246 148 197 49 167 234 208 133 140 146 52 39 237 74 118 154 65 37 206 2 127 167 2 221 139 114 0 202 44 147 66 105 75 229 30 87 15 184 185 39 18 203 53 227 49 65 102 53 94 236 218 79 109 157 163 91 9 161 121 127 227 137 87 227 232 1 199 203 66 24 195 155 196 69 176 89 250 197 89 159 122 24 250 8 251 182 156 188 52 55 66 11 106 39 49 209 18 137 64 125 248 177 171 87 202 39 201 212 170 169 56 94 250 88 69 14 114 226 219 63 133 72 184 186 244 115 127 63 163 240 49 15 85 18 117 30 113 93 143 226 94 6 235 217 55 199 140 115 158 217 250 80 238 50 185 201 56 76 54 196 103 242 53 144 149 211 85 174 144 37 191 43 15 14 215 118 89 247 107 183 103 84 138 222 140 232 246 201 176 93 203 254 18 149 55 198 226 107 53 205 196 57 4 119 198 23 18 137 29 169 83 117 52 253 156 42 61 207 228 229 94 177 213 104 237 106 188 50 60 184 47 23 123 180 164 182 185 92 197 158 126 118 144 118 60 217 163 235 83 231 238 142 128 91 108 41 33 6 223 123 128 214 131 214 48 122 32 145 220 152 9 198 128 141 77 104 211 157 142 13 65 47 48 182 183 195 123 215 202 48 35 218 201 206 124 190 101 84 145 209 197 138 245 5 97 0 247 64 87 67 131 248 68 168 84 88 60 209 228 118 151 96 5 207 118 103 64 209 245 139 231 7 250 131 46 241 98 208 185 17 222 55 79 65 3 41 165 153 114 183 110 199 141 150 150 177 82 10 172 224 80 148 70 90 45 171 147 142 141 0 137 69 240 190 93 59 179 57 219 239 154 38 3 12 251 115 252 87 59 115 1 3 221 25 165 7 224 148 35 88 23 166 34 184 189 236 100 152 188 27 89 168 117 12 221 174 188 247 67 27 236 188 49 56 228 60 117 152 124 189 12 7 223 234 127 227 233 19 22 246 149 139 54 162 189 77 13 34 192 153 191 53 90 181 67 35 79 127 1 153 139 123 155 82 90 12 165 55 13 64 122 215 163 7 129 199 208 119 38 218 138 163 22 71 72 10 32 221 5 106 75 86 217 12 128 160 79 43 30 118 48 61 81 153 64 14 244 88 138 120 50 107 125 114 159 124 190 207 125 29 84 119 34 219 38 15 237 22 5 210 148 115 160 146 248 165 88 45 7 23 25 15 19 186 131 126 182 207 209 185 48 87 38 113 212 231 153 202 173 212 70 217 143 206 124 121 34 164 177 230 152 56 62 178 122 43 249 168 182 167 174 177 217 126 16 209 128 51 13 38 184 153 5 122 203 182 141 102 15 188 68 85 102 79 52 20 140 230 233 248 64 59 19 232 14 119 18 165 56 67 14 82 180 194 34 246 197 108 246 189 219 176 128 140 90 88 90 44 23 198 182 8 252 49 67 57 117 159 226 241 106 188 188 153 98 116 30 2 136 196 163 117 246 28 222 171 213 61 17 251 39 239 229 83 126 109 201 68 37 15 177 120 178 162 23 161 181 122 102 34 105 157 150 248 62 102 244 57 104 170 212 61 175 105 160 150 57 20 66 171 156 164 137 211 112 80 40 6 182 225 172 24 248 250 210 111 201 71 250 234 254 154 202 0 108 241 219 73 189 95 9 95 67 46 35 66 208 61 91 117 105 199 105 77 136 178 212 113 124 25 161 226 246 53 48 141 184 163 182 21 145 63 18 191 138 13 165 133 0 191 186 167 246 32 190 63 25 11 244 236 188 54 195 65 172 155 104 205 251 11 232 12 156 17 177 35 184 164 224 230 90 197 88 105 41 111 236 126 249 43 38 213 91 22 100 8 242 82 104 128 12 144 186 127 112 253 95 218 239 117 140 160 194 161 23 149 191 255 72 47 249 229 168 36 102 203 31 140 118 84 239 219 38 171 166 64 116 51 171 95 215 244 37 234 119 114 106 214 8 129 224 122 186 174 41 106 164 92 43 39 231 105 181 122 101 190 107 76 142 240 244 97 124 123 153 234 243 202 150 11 201 167 69 31 218 174 111 95 152 228 70 194 231 198 73 170 200 13 81 212 182 210 61 29 97 102 199 68 21 63 147 132 51 47 165 189 4 204 133 155 41 105 19 200 60 208 171 112 203 232 193 63 202 23 198 185 167 76 111 248 213 170 22 201 41 68 21 0 116 174 98 26 112 144 98 176 144 132 245 53 255 194 68 40 12 224 207 33 211 169 228 78 34 69 5 206 191 124 20 175 116 237 237 15 170 158 26 160 247 5 189 180 154 253 175 131 197 38 243 213 82 137 29 250 55 182 47 66 221 3 231 74 141 128 56 237 40 77 17 28 138 146 152 93 84 22 253 28 232 238 84 121 122 119 202 164 197 87 169 116 184 49 20 103 225 158 142 169 139 233 40 173 178 173 40 92 223 93 75 40 187 107 48 153 197 66 9 227 189 227 0 141 150 23 3 135 241 144 150 247 15 248 57 145 149 205 97 48 214 41 114 150 37 115 200 17 35 11 186 229 237 25 134 173 239 204 134 166 32 207 15 38 203 210 184 3 145 214 196 224 80 245 149 201 245 111 137 12 54 179 105 107 94 5 140 2 175 30 248 234 27 100 184 50 56 49 116 116 197 239 16 75 42 13 87 54 133 214 187 26 192 41 211 184 229 62 22 213 114 58 46 170 156 61 48 35 14 2 250 188 35 40 18 166 192 143 51 247 145 216 126 182 174 255 32 67 159 121 81 20 255 6 140 75 99 229 205 30 68 42 123 14 127 108 158 143 229 194 244 46 121 164 48 122 195 51 41 123 132 201 63 79 242 0 133 154 43 244 193 165 177 92 55 64 77 152 248 14 92 175 69 185 197 234 220 231 92 145 190 116 144 244 15 125 174 242 111 214 235 172 58 218 101 232 8 127 236 138 62 208 215 39 218 98 220 199 86 212 123 136 47 143 207 147 136 164 255 128 44 222 20 6 60 104 120 64 200 229 110 42 70 57 47 10 154 130 147 111 222 215 245 228 217 170 94 141 144 136 52 133 167 77 42 159 35 175 48 148 224 72 152 81 47 8 31 23 62 74 95 170 58 242 30 51 221 42 88 52 244 54 30 65 209 130 208 37 5 196 196 195 75 234 195 84 236 197 62 77 130 91 5 243 179 168 159 254 245 178 199 151 31 223 212 14 18 59 56 182 176 137 99 229 41 126 223 241 59 235 246 196 104 122 223 67 255 235 135 74 105 98 197 44 170 72 126 189 228 175 28 13 208 170 38 179 109 140 108 129 184 78 57 197 106 227 190 61 11 52 125 117 3 209 63 34 44 108 20 246 215 81 38 133 86 201 133 19 94 194 197 193 20 238 249 85 58 138 2 4 205 163 158 235 207 143 59 9 196 202 68 152 168 87 74 191 207 190 111 99 100 12 250 96 228 30 93 102 38 179 219 188 76 163 254 27 66 169 57 62 182 104 111 216 148 226 49 159 18 47 48 31 45 49 57 130 45 75 237 94 99 229 88 108 37 75 60 116 10 190 110 199 155 94 101 65 221 11 49 73 99 135 159 164 50 64 242 7 233 243 135 55 100 145 22 60 216 219 165 78 149 96 129 73 179 183 25 71 98 217 238 202 193 157 239 255 218 254 108 170 126 46 208 189 45 89 170 184 252 18 255 183 81 148 147 241 58 9 218 218 196 164 152 120 207 130 193 210 236 25 129 76 142 67 19 38 43 18 29 60 41 108 121 39 246 118 132 53 23 196 108 137 208 11 53 24 152 14 230 86 152 58 119 13 68 233 170 61 124 210 31 171 72 224 134 163 150 115 216 107 119 120 63 115 231 22 93 34 224 53 216 119 170 106 188 13 136 159 24 175 164 125 71 114 23 94 102 72 230 15 150 106 254 99 63 136 82 40 221 31 163 87 161 109 86 46 177 56 5 244 163 47 229 250 42 91 13 96 142 10 45 79 28 24 167 225 177 243 113 226 182 152 80 170 155 181 235 176 67 55 240 175 104 251 6 118 96 236 126 3 176 222 12 141 91 115 127 33 16 231 221 89 13 213 10 82 24 124 213 181 89 242 233 70 106 220 100 245 143 224 3 228 62 197 45 69 93 245 150 100 222 2 160 54 194 174 124 153 132 65 97 252 74 121 61 3 111 163 162 8 205 218 254 20 166 56 63 131 75 228 8 166 230 223 130 217 6 147 92 63 223 140 174 82 162 204 52 33 144 234 68 182 20 39 42 152 51 33 29 46 148 117 102 21 118 31 72 82 93 125 30 73 198 194 192 227 229 212 251 168 120 149 194 147 21 63 147 140 252 54 84 19 76 237 239 173 22 222 173 52 25 84 155 1 62 151 184 147 62 18 97 73 216 225 155 199 57 183 30 62 115 44 253 136 239 85 65 14 38 40 232 149 100 232 138 206 36 86 239 184 220 32 208 16 60 188 134 21 29 81 253 6 188 170 85 120 13 185 248 37 101 63 141 154 13 95 84 169 39 60 184 75 5 36 46 220 142 162 145 136 106 166 177 54 193 212 0 116 87 38 60 18 96 253 150 243 249 42 120 242 76 27 3 55 229 150 149 184 37 127 4 202 0 139 60 232 227 134 218 180 31 170 40 182 177 114 152 144 47 232 68 159 58 185 136 84 231 92 230 206 239 1 60 5 51 12 55 9 24 122 205 145 145 232 26 141 11 53 187 176 146 137 186 90 80 41 124 5 196 143 43 121 57 36 196 102 178 86 204 75 19 211 145 247 74 109 32 12 139 74 63 3 175 172 47 234 122 39 2 232 187 143 254 182 93 83 187 81 157 38 163 39 78 55 177 118 223 158 60 92 248 45 133 41 201 124 74 218 177 168 18 79 42 138 10 202 224 2 10 190 241 150 89 253 212 74 42 69 241 29 211 252 112 169 213 164 79 9 197 169 82 222 138 67 179 146 59 149 70 67 14 59 156 46 78 163 247 174 6 124 83 174 193 110 225 242 141 87 1 227 231 100 191 156 82 89 71 133 7 26 56 54 136 96 190 176 45 152 240 90 192 254 79 206 81 235 128 104 71 228 36 238 254 134 222 12 130 162 216 205 77 82 228 33 73 44 204 13 27 214 118 62 224 168 154 56 56 43 237 52 146 163 56 129 115 132 184 173 217 59 199 5 81 134 248 54 6 53 239 90 187 156 185 66 253 31 77 207 161 68 183 110 116 172 234 104 84 144 85 68 233 97 120 17 253 115 56 91 21 34 68 100 35 64 17 25 25 247 138 119 31 70 63 106 136 144 242 35 25 68 10 222 142 26 48 1 180 40 35 75 237 30 67 199 142 194 248 55 27 217 76 130 216 20 111 113 30 7 94 165 160 79 78 82 192 55 169 131 221 48 101 38 124 69 241 6 162 43 111 84 223 99 135 173 38 24 23 123 222 205 229 69 113 234 198 73 136 88 73 215 181 88 175 226 236 207 134 146 255 149 219 242 124 136 206 195 249 128 119 34 71 39 56 128 136 239 144 198 82 143 237 203 21 220 8 212 91 133 60 80 168 255 241 71 166 32 71 254 47 165 213 202 56 63 136 177 228 65 73 140 229 111 242 233 138 77 79 246 58 144 88 158 47 48 198 132 66 211 19 163 101 94 235 182 97 62 199 89 56 188 143 249 41 32 195 21 95 218 236 66 194 34 236 16 64 92 113 236 23 218 3 212 128 231 53 150 196 54 31 231 198 81 175 55 119 51 111 178 203 111 166 43 34 14 120 189 29 68 238 196 64 139 118 178 55 70 135 14 46 242 152 9 150 149 45 93 106 146 67 168 13 124 57 11 160 227 148 175 203 211 48 158 72 82 148 72 89 254 69 220 195 15 122 43 19 167 48 226 168 170 28 162 224 165 171 0 248 159 249 11 146 62 70 240 142 172 152 241 46 101 107 89 65 231 60 180 177 71 64 230 78 216 159 229 20 90 201 150 64 46 22 113 83 73 17 61 12 126 250 184 13 134 167 192 1 25 60 52 87 151 93 124 13 100 121 51 216 131 211 64 106 78 142 170 156 160 76 153 196 132 171 74 115 141 227 140 191 233 183 68 150 35 124 57 45 150 173 77 2 3 225 79 63 56 55 94 65 49 65 109 13 1 18 91 89 58 158 174 111 70 149 82 140 36 136 36 68 21 111 165 38 222 3 153 69 173 119 142 92 153 75 33 98 42 183 11 41 2 45 187 130 80 163 17 236 41 90 36 69 211 215 134 168 95 97 51 15 218 20 141 64 146 210 215 167 249 202 194 8 44 238 205 166 229 242 60 206 89 222 68 109 0 30 126 224 247 49 138 187 73 48 194 250 227 168 168 7 67 130 5 64 82 181 22 9 105 253 61 203 142 103 228 105 22 116 31 49 227 101 133 202 170 104 199 60 29 226 131 169 194 67 103 5 207 32 46 56 182 28 32 151 186 31 192 119 1 47 137 94 246 204 83 160 104 191 100 76 176 78 192 187 222 203 209 10 247 122 96 228 166 194 71 181 253 59 35 90 121 3 8 244 57 44 223 29 90 22 176 234 77 173 25 12 148 22 180 120 208 47 181 199 43 46 109 119 145 25 211 251 40 124 77 237 146 41 167 9 225 76 136 143 201 170 159 182 139 2 150 71 245 231 66 110 125 120 93 90 18 43 174 40 166 5 55 123 237 185 93 56 47 171 132 60 172 48 208 29 85 112 230 48 201 141 147 150 181 218 200 120 163 198 133 84 128 231 26 52 84 228 48 125 220 33 187 24 226 14 178 248 99 152 134 252 38 59 60 36 59 255 164 98 35 189 231 82 33 162 103 159 194 200 34 144 48 201 84 148 28 204 216 110 16 187 233 5 7 35 223 197 12 148 15 38 14 217 247 204 68 199 45 126 33 131 168 157 35 105 243 28 113 8 225 169 19 128 133 96 3 58 90 80 228 127 119 193 116 17 155 111 192 135 182 17 246 166 74 167 185 53 118 22 162 139 203 109 138 107 229 8 78 186 18 159 135 230 249 208 193 167 116 53 85 215 89 108 7 173 209 65 120 141 91 64 58 130 85 99 9 69 72 174 132 20 22 120 144 120 248 158 150 105 201 73 170 79 32 67 66 192 202 78 243 87 116 70 197 247 1 160 200 28 60 93 175 133 192 74 163 204 154 202 73 178 212 211 110 162 82 132 43 37 37 184 54 208 208 74 28 162 253 7 252 249 124 120 205 88 170 88 106 121 82 59 160 129 147 142 27 24 138 228 254 8 235 65 105 106 52 41 216 241 222 79 109 37 67 33 47 187 220 198 232 35 44 66 232 135 76 158 97 203 105 64 19 105 184 94 245 175 217 139 91 111 58 128 170 209 113 119 61 233 228 99 194 144 58 127 31 51 163 182 114 135 98 182 73 177 43 170 255 71 255 119 200 208 173 84 153 106 38 34 255 22 57 105 76 208 33 167 180 68 51 213 139 203 40 231 88 183 50 219 90 203 188 31 92 137 16 171 119 105 189 85 184 112 94 237 179 99 229 181 131 213 