P3
#HOLA
50 50
255
110 31 47 158 59 81 122 176 249 141 12 187 114 108 41 183 202 13 128 174 175 19 159 125 29 242 133 252 231 92 177 4 172 98 203 6 94 145 239 237 48 193 30 59 88 32 251 145 130 211 94 172 215 148 53 57 148 114 27 239 26 47 192 255 176 92 110 17 227 76 143 184 17 176 74 196 44 2 217 137 130 181 79 89 132 69 83 127 38 204 176 181 181 197 180 119 206 46 188 79 17 246 166 51 112 51 126 116 96 242 108 179 237 49 23 224 2 80 181 83 137 76 208 217 162 100 216 17 59 122 212 122 172 40 107 148 133 187 8 121 84 48 173 219 9 138 26 41 139 95 115 119 148 15 20 3 157 108 152 19 52 122 173 20 189 253 226 56 250 29 168 7 81 165 173 77 51 103 130 20 139 227 29 112 255 162 219 214 106 6 150 229 80 59 47 192 20 224 189 150 186 171 128 25 136 150 40 249 133 236 30 9 132 242 13 167 84 188 205 85 162 154 233 95 115 132 13 134 65 51 207 119 51 241 76 66 178 25 175 44 45 243 115 27 54 16 80 220 207 147 54 224 70 173 27 207 20 61 8 169 235 114 167 162 230 194 13 86 200 92 171 42 21 1 161 199 209 106 72 128 142 228 22 146 167 80 134 226 219 75 177 166 155 9 106 183 253 0 5 100 137 177 122 115 166 70 58 139 56 89 158 25 111 217 5 22 19 119 23 112 73 89 246 36 249 100 215 251 140 252 20 89 235 150 26 196 68 166 214 163 191 245 80 47 71 201 233 119 223 121 154 72 218 205 239 164 207 88 39 9 183 42 159 134 118 221 161 100 80 5 77 86 55 162 220 195 55 128 76 147 78 152 232 214 109 11 163 217 107 226 255 141 48 202 175 180 190 113 32 1 75 174 86 123 29 171 198 242 88 29 100 121 0 22 231 28 170 32 95 46 186 14 8 80 58 45 147 132 242 196 147 123 151 92 111 71 92 248 11 135 241 48 144 206 16 84 195 9 89 197 175 4 72 33 254 45 199 98 183 215 247 193 172 242 37 117 22 126 42 89 16 254 149 60 6 21 20 134 66 170 70 220 217 75 46 98 15 179 59 70 103 234 236 42 87 131 189 181 132 28 175 29 213 243 60 255 94 146 192 237 223 61 72 167 129 240 250 65 222 108 131 202 22 79 119 18 246 18 172 91 48 242 166 179 86 207 191 43 122 250 204 189 199 218 156 219 65 73 79 21 101 101 74 125 231 174 175 213 118 205 10 67 156 130 58 21 233 53 205 136 45 76 125 104 5 233 107 214 25 223 47 8 242 159 81 100 47 207 13 214 19 42 99 212 174 21 116 109 119 66 94 212 190 23 164 176 188 177 136 221 224 253 27 165 141 230 68 25 133 62 46 179 49 190 203 4 220 63 233 154 253 67 6 208 22 30 36 132 75 173 252 235 201 178 215 197 48 63 211 143 41 66 73 41 65 60 148 94 58 214 148 233 41 224 90 131 27 234 86 82 216 188 26 117 167 183 18 203 22 144 208 116 143 127 218 151 149 87 89 41 250 147 82 15 101 114 25 100 3 255 179 118 138 5 241 128 145 69 101 143 42 134 103 196 198 83 218 137 9 214 14 160 107 197 226 157 138 154 36 244 64 106 148 28 167 131 43 99 132 75 9 67 217 164 189 173 54 28 158 15 235 62 160 179 100 230 107 25 247 243 37 19 28 217 219 44 232 44 103 117 179 113 39 36 168 253 182 38 18 45 131 103 248 160 12 183 103 148 127 53 219 15 114 34 113 203 11 22 177 78 249 27 255 82 199 137 254 237 253 120 178 49 25 52 146 39 149 34 147 124 240 143 218 65 161 194 40 54 87 94 128 167 116 97 33 178 7 26 27 102 158 27 254 83 118 254 159 71 127 192 205 85 251 41 105 236 124 234 183 239 195 5 13 198 157 213 28 10 211 153 214 85 222 107 140 176 244 81 246 25 161 105 191 217 244 28 93 14 56 205 171 33 170 140 15 224 154 171 127 225 113 123 132 64 176 178 124 180 210 145 244 250 16 237 218 131 47 192 43 168 167 3 153 246 145 36 135 42 107 119 32 169 142 101 141 250 51 199 193 199 139 24 103 178 219 75 247 156 102 9 52 232 237 69 3 78 58 199 72 16 61 213 159 143 72 130 182 58 164 217 85 88 80 182 42 250 92 217 250 136 46 35 243 57 178 24 53 23 221 73 76 159 135 233 79 234 35 21 101 0 30 155 48 127 7 133 171 112 191 196 218 96 2 219 36 92 247 11 146 83 248 81 253 49 157 173 154 51 158 117 86 84 247 65 184 169 204 85 117 238 61 15 223 109 182 143 205 231 244 175 24 124 196 39 233 8 115 24 252 56 107 227 131 211 67 255 58 110 204 79 165 164 117 74 122 24 145 201 222 69 81 15 18 133 0 135 81 173 79 155 60 109 16 43 168 56 165 200 248 221 188 108 143 27 109 148 106 60 9 144 128 84 116 106 247 212 207 139 216 195 227 19 26 83 75 155 170 189 15 136 209 202 15 90 147 83 154 74 126 52 215 183 252 209 50 166 244 24 23 218 69 20 11 204 57 219 94 241 133 20 91 102 153 28 70 131 32 135 246 140 251 99 32 225 101 124 101 38 40 225 128 174 173 219 239 119 175 20 31 235 27 58 182 39 250 196 203 69 6 52 25 155 76 136 192 19 7 0 243 153 252 100 43 47 197 202 218 64 72 176 160 58 209 32 158 226 194 37 222 84 101 151 193 91 117 74 71 100 63 60 175 174 71 250 190 204 212 46 203 203 4 105 201 118 57 68 170 91 88 38 91 175 220 103 138 202 0 221 209 12 38 248 157 154 224 122 23 250 101 48 170 29 223 142 178 76 148 244 222 92 209 160 73 16 235 91 99 54 35 70 32 46 3 134 87 16 90 185 176 99 29 149 59 241 34 223 199 66 3 45 43 63 242 254 49 168 33 230 167 23 168 30 229 246 174 37 208 118 236 149 176 135 58 10 212 225 169 80 212 215 4 218 30 25 89 149 104 185 226 9 96 192 66 205 98 255 159 231 233 42 16 172 241 244 63 241 247 15 131 226 136 82 101 123 30 30 246 172 25 118 134 46 145 184 69 2 147 73 71 59 32 63 191 117 130 65 10 199 204 240 162 106 242 157 143 65 78 46 83 119 54 26 22 172 97 84 217 118 222 18 50 81 106 7 124 204 101 117 214 179 88 49 203 65 241 27 162 43 63 25 202 13 48 168 9 124 175 76 126 223 148 88 211 205 145 17 206 94 130 140 66 38 39 189 104 117 9 60 201 241 150 67 188 170 44 207 148 198 107 219 106 151 34 119 41 48 8 210 168 211 105 192 150 140 224 106 33 17 159 173 147 182 65 130 184 207 25 197 102 114 166 162 108 184 245 236 28 12 190 144 105 55 165 210 65 167 162 40 47 248 80 76 155 105 39 179 155 225 253 180 107 148 223 43 146 45 207 76 12 222 160 41 94 211 96 26 224 228 40 21 0 111 244 32 68 94 154 204 80 21 106 208 141 166 146 104 217 23 56 239 1 74 237 90 64 178 38 240 14 19 128 169 146 72 158 4 30 237 30 39 89 118 140 227 226 197 203 1 125 61 104 175 107 198 177 225 208 94 28 130 54 209 21 39 97 8 76 108 105 254 21 15 203 226 100 54 85 184 22 208 19 30 202 110 177 194 146 207 122 63 15 3 41 215 246 168 1 54 45 190 62 103 130 245 35 88 179 180 231 226 129 18 59 140 209 98 32 60 122 72 169 33 8 15 48 11 4 209 134 54 191 75 66 191 247 149 44 4 232 129 254 173 201 170 201 64 104 73 122 180 128 51 97 215 150 1 238 127 126 182 215 189 52 230 130 244 231 68 106 145 92 218 29 214 230 199 179 134 176 180 227 72 253 85 171 5 16 37 244 17 152 126 164 137 193 158 137 206 71 80 202 75 143 249 18 131 123 144 137 130 56 45 82 195 63 75 95 51 125 131 243 151 33 52 154 211 207 209 68 142 204 22 18 242 244 46 236 143 147 210 121 182 200 203 225 6 148 71 204 75 85 212 86 192 99 111 100 107 62 228 181 97 46 144 118 229 221 127 18 110 76 110 39 50 138 56 143 72 40 166 215 108 22 133 201 243 209 58 139 27 107 137 1 230 150 73 191 195 132 98 26 156 33 3 177 110 205 172 39 29 210 234 130 194 11 67 61 161 178 52 210 98 16 35 227 186 36 109 211 140 235 192 21 65 20 90 188 217 171 211 42 222 76 27 148 125 98 73 75 64 101 92 13 12 192 194 85 92 232 186 226 110 106 160 75 119 16 130 127 108 48 92 147 24 15 248 24 25 215 41 87 88 40 111 217 178 44 24 214 238 32 9 27 101 173 132 187 77 198 168 127 103 232 92 2 205 84 141 83 100 66 48 175 128 234 143 25 56 155 63 96 217 76 149 151 182 126 182 13 138 32 239 18 67 43 50 109 49 197 155 113 50 72 32 118 75 129 12 39 185 171 68 83 217 254 25 111 38 201 158 75 214 31 22 231 73 21 203 184 231 37 240 21 158 75 173 166 59 213 55 35 6 243 212 252 120 166 154 235 178 136 119 224 56 190 186 242 172 140 158 81 207 225 227 135 147 144 202 95 246 215 108 227 187 9 25 225 56 89 65 147 227 148 86 58 64 149 142 226 136 10 227 157 118 208 156 73 248 81 190 238 14 122 224 250 76 47 100 173 55 62 93 111 203 171 105 92 247 130 82 129 117 75 215 94 60 161 199 247 192 246 82 209 159 202 121 143 53 209 53 193 148 214 197 189 151 243 0 138 93 36 195 97 12 158 189 229 187 31 25 208 34 47 223 176 61 104 197 53 178 9 3 6 150 190 155 174 158 116 199 74 1 73 195 149 198 55 104 18 107 215 102 3 96 159 136 155 9 105 82 0 103 209 139 52 7 99 87 230 178 211 165 192 116 74 70 169 140 42 185 78 12 54 129 136 8 249 190 252 26 33 237 102 197 131 23 45 120 50 79 34 232 206 157 17 201 44 151 103 229 201 144 202 22 59 0 116 248 215 220 11 92 197 46 75 179 205 170 88 207 38 120 138 124 170 107 208 201 176 244 96 180 171 70 120 31 113 114 239 220 144 227 106 217 64 252 140 174 67 5 140 202 101 183 87 97 70 125 34 127 127 34 156 171 96 80 156 124 149 182 34 118 167 33 183 13 111 131 56 104 192 132 96 235 207 8 206 254 130 122 20 243 88 230 55 203 62 248 171 213 157 8 191 59 45 199 248 80 76 172 67 224 242 54 203 198 119 116 56 252 237 134 179 9 240 23 87 59 115 104 162 135 145 69 71 254 86 250 199 21 180 149 26 93 93 4 194 145 237 18 21 247 171 47 184 162 215 152 195 115 201 129 42 96 11 235 169 150 218 186 176 119 57 119 241 183 24 180 4 47 175 17 74 20 247 234 21 189 153 48 85 9 179 102 181 135 87 127 39 223 21 39 22 249 229 116 65 136 191 136 32 7 209 62 232 75 87 151 185 120 147 175 144 13 13 99 2 198 229 201 125 46 103 137 134 182 45 207 254 160 80 21 58 135 183 108 246 197 60 59 200 140 207 71 71 154 82 158 43 58 53 44 212 201 132 231 76 177 179 28 158 86 177 121 189 52 94 6 177 161 16 196 117 39 49 217 68 186 44 69 88 58 149 157 78 239 131 134 193 19 4 43 0 123 209 84 220 237 29 255 184 158 231 35 33 9 76 103 9 206 104 22 55 22 218 52 9 111 104 107 56 207 61 14 197 179 137 35 38 168 255 187 171 81 115 136 118 160 40 208 131 3 171 250 224 99 37 112 211 139 218 192 40 138 250 40 103 110 70 98 3 8 116 215 144 202 136 0 92 165 127 17 20 126 139 188 161 107 105 134 5 171 168 33 229 155 61 4 111 83 161 27 235 209 140 148 147 49 241 99 174 178 178 97 224 195 187 70 177 117 94 131 28 123 130 63 23 7 54 183 13 38 8 55 9 129 152 39 207 164 93 131 115 211 247 68 106 22 64 4 63 249 33 18 78 147 146 212 5 225 198 136 126 204 123 5 30 216 163 29 222 246 117 156 168 181 5 16 221 120 30 27 223 97 95 83 175 160 223 37 228 232 82 190 245 222 15 90 82 254 195 88 215 126 194 148 148 93 194 27 2 172 41 208 253 58 109 203 81 98 139 127 251 28 122 174 21 108 43 19 126 199 187 50 59 41 226 93 51 205 123 27 168 199 233 175 147 249 68 82 71 176 94 255 82 138 158 23 116 116 35 198 94 107 234 57 232 180 178 224 243 66 224 14 227 9 128 145 27 19 199 59 161 90 155 57 27 94 77 229 4 148 144 106 221 121 22 36 58 115 246 149 13 65 44 187 38 232 55 167 129 147 220 39 94 93 197 14 0 33 23 145 48 51 250 60 84 197 198 17 78 98 65 194 203 207 94 80 171 51 121 32 175 242 75 201 245 172 194 161 91 217 222 224 218 18 123 1 149 6 226 64 37 33 199 13 134 35 50 127 0 242 22 70 147 234 254 101 122 52 68 30 139 83 164 154 117 124 222 199 156 58 234 102 23 156 34 252 0 64 204 132 114 33 247 160 97 16 160 2 9 174 133 219 164 54 71 153 81 84 219 56 222 183 159 18 27 2 27 172 196 16 1 247 199 22 79 121 203 173 196 144 28 103 85 212 181 133 2 254 98 201 252 114 221 2 218 185 70 7 84 181 138 153 112 130 81 18 219 113 176 96 249 180 204 81 168 246 223 6 2 21 230 129 253 187 168 126 238 215 76 27 110 47 169 133 71 181 190 29 57 35 86 224 179 253 34 71 100 49 198 228 127 248 58 220 247 49 136 88 248 164 96 106 225 145 242 146 89 3 66 182 75 83 166 65 98 100 232 144 161 223 50 50 63 165 193 227 158 169 26 76 135 225 35 58 20 66 187 64 104 25 89 7 143 89 188 157 156 89 240 63 60 87 231 100 174 91 77 13 148 44 50 18 115 137 85 114 41 226 167 196 65 35 167 231 140 110 189 6 203 101 76 85 146 237 108 205 64 5 150 200 251 165 150 78 48 249 200 84 7 146 130 45 22 216 122 100 109 113 232 253 144 127 53 3 117 2 14 5 36 236 220 211 35 48 230 0 195 77 132 224 212 165 90 61 224 160 151 210 91 213 227 136 55 140 3 88 168 151 137 195 232 244 166 175 42 160 46 16 78 191 52 125 192 115 164 121 149 137 141 142 189 72 175 235 34 40 204 210 53 155 104 143 19 235 115 57 232 88 66 125 176 178 56 55 173 124 153 110 214 10 72 6 185 62 217 144 241 219 252 198 139 135 121 100 100 127 27 202 222 135 107 168 237 250 74 103 247 156 112 213 21 42 246 106 249 39 84 138 65 173 233 89 178 210 93 79 179 65 190 12 210 182 240 26 50 110 20 93 168 33 38 180 36 122 178 73 32 2 174 206 32 250 77 215 141 247 179 92 21 12 22 67 217 157 196 139 244 189 184 199 227 31 234 99 220 100 117 244 165 43 113 49 239 115 235 42 12 22 185 142 176 131 243 170 138 14 187 33 237 123 12 239 168 171 140 20 234 18 165 93 250 213 212 28 115 206 209 252 183 130 142 62 52 239 87 53 226 143 200 121 209 9 74 82 217 185 28 177 57 19 45 212 182 117 167 37 214 142 251 166 130 135 253 57 74 174 82 35 86 118 106 49 186 75 172 221 209 90 207 15 161 114 19 65 90 188 206 76 97 54 102 82 222 160 39 34 234 217 9 23 233 7 51 128 156 42 29 145 119 209 119 6 105 199 218 17 241 125 149 68 18 173 199 164 153 202 12 58 4 25 181 249 36 226 150 144 245 149 126 51 24 8 239 157 251 172 255 220 201 22 134 138 102 43 66 175 208 171 247 119 251 42 183 65 171 156 231 170 74 134 117 45 188 37 131 203 120 21 140 1 108 86 89 157 63 5 210 53 213 2 238 208 178 220 74 52 31 159 227 96 1 206 108 48 59 50 36 240 64 20 221 250 191 93 81 80 13 177 35 192 237 161 95 60 214 247 166 167 226 214 172 170 57 115 195 115 25 236 218 188 105 91 15 223 198 176 65 41 0 20 8 94 99 54 104 222 107 107 61 233 2 165 228 55 11 22 244 250 56 176 29 43 27 140 144 97 136 191 30 68 92 1 189 29 207 8 200 38 121 107 169 51 188 8 166 209 217 156 159 138 134 4 240 107 196 60 198 28 152 65 215 226 95 130 129 72 52 19 49 69 106 48 39 245 178 120 240 182 66 27 216 58 199 238 64 190 12 226 163 74 160 189 126 250 235 108 76 209 225 54 170 129 114 135 29 44 47 43 185 7 145 67 192 39 46 145 216 122 67 22 160 164 185 255 197 137 146 114 99 47 82 1 231 4 138 185 28 187 45 33 170 57 20 87 154 239 69 36 1 163 15 129 248 139 90 146 178 122 237 200 235 249 241 23 173 151 211 24 169 30 56 12 222 31 130 162 134 191 162 210 251 102 0 60 244 223 170 227 245 67 114 24 50 85 252 12 174 102 13 158 161 118 87 147 168 136 191 200 139 68 91 132 220 253 90 178 132 222 224 200 69 65 60 131 231 184 188 200 216 243 191 38 254 49 165 183 201 198 154 84 66 23 29 24 39 15 115 116 23 123 93 34 127 143 242 116 29 62 61 11 51 129 206 170 119 16 172 45 189 221 121 101 238 85 104 47 149 75 13 13 78 96 91 87 13 95 7 187 166 117 37 148 4 98 206 49 198 120 62 204 50 16 2 101 220 42 199 45 241 1 131 146 60 179 237 19 143 188 1 42 228 249 164 39 148 214 151 19 36 63 30 192 238 83 196 228 36 191 81 252 244 193 211 157 74 235 136 40 247 181 88 134 119 245 34 137 206 101 252 134 170 2 228 50 96 198 212 144 128 20 84 243 85 135 171 48 7 191 227 121 146 253 10 48 69 109 226 124 208 68 161 16 227 12 61 13 233 219 160 204 136 100 154 152 165 201 113 158 39 139 112 209 126 19 107 218 214 214 72 150 224 187 36 232 113 13 77 32 165 171 224 78 218 88 112 140 176 88 44 237 7 250 164 252 227 190 7 142 35 240 91 31 60 59 192 212 160 44 165 33 149 223 103 85 28 36 148 75 15 116 49 199 212 132 90 137 180 212 143 200 9 54 94 43 103 228 230 50 10 184 246 43 164 54 157 24 11 206 134 106 136 149 108 73 26 5 134 1 191 220 82 37 128 153 87 134 205 69 207 26 72 122 100 129 255 57 130 202 68 91 130 7 144 102 28 241 242 81 58 100 134 157 85 132 240 248 10 14 101 243 116 226 249 11 177 155 168 208 255 70 90 135 107 76 188 116 86 139 200 10 126 9 62 121 79 102 97 58 89 148 5 6 199 43 66 200 33 0 207 4 203 7 247 64 250 105 118 68 98 53 143 169 188 48 149 4 141 166 148 203 68 25 200 93 119 54 113 100 68 171 95 234 60 203 204 91 161 151 106 125 42 38 108 129 17 56 228 106 254 209 99 128 107 108 130 255 214 128 95 199 219 188 4 131 43 124 93 240 110 69 74 255 226 54 36 48 75 17 195 17 128 173 42 203 249 171 51 191 100 7 142 211 162 221 60 105 11 86 252 28 239 75 50 31 21 102 193 64 237 80 111 76 115 190 10 239 237 64 101 37 252 175 22 99 6 97 116 210 255 127 132 153 184 144 3 15 105 5 166 190 68 70 240 113 30 90 0 214 179 60 43 50 37 98 108 89 178 213 234 171 13 32 124 38 75 67 122 63 146 148 113 105 45 215 15 111 22 19 152 136 184 177 242 93 84 246 163 80 10 155 56 180 60 136 169 186 177 238 43 209 54 125 213 133 46 100 11 244 121 65 249 88 180 22 182 195 49 1 228 175 177 23 133 238 180 85 24 118 99 56 207 217 5 161 217 218 39 52 145 59 211 157 77 7 6 25 109 248 62 77 117 233 146 244 227 193 152 80 38 200 65 148 70 181 110 178 4 247 152 95 8 123 66 173 23 207 134 157 199 166 146 178 214 234 212 45 209 195 227 104 124 104 239 178 24 143 213 79 175 24 29 97 235 234 137 217 175 75 79 44 148 221 78 75 81 55 255 15 36 110 225 247 181 80 47 67 76 34 153 72 104 116 130 72 50 210 105 96 165 98 174 106 141 249 114 231 12 229 198 14 31 74 25 116 82 199 238 211 177 3 182 127 205 170 48 123 48 22 209 98 209 147 174 44 85 25 168 103 215 167 217 63 172 65 169 222 241 67 91 154 59 176 107 217 70 235 13 124 87 243 177 167 132 58 205 173 26 120 195 240 116 59 232 113 129 134 37 33 207 12 184 230 227 109 54 194 17 165 73 107 99 20 103 131 205 232 137 49 22 131 248 37 178 20 97 214 247 229 138 211 198 124 29 149 39 100 26 72 199 230 67 95 166 34 185 106 164 109 138 45 251 178 228 246 64 245 101 216 169 246 76 62 250 234 198 167 48 20 131 75 95 5 60 63 158 2 60 5 79 6 218 151 59 87 104 41 187 199 91 129 239 165 37 115 119 120 245 206 13 82 38 52 108 51 40 145 242 61 16 189 110 172 63 216 216 113 141 199 95 68 191 158 107 71 148 184 129 84 187 172 17 154 45 138 199 180 8 10 222 42 148 191 121 149 122 115 46 173 14 221 116 227 78 172 203 41 75 189 126 116 169 125 230 240 143 223 243 142 211 186 62 185 211 221 17 134 187 169 163 125 250 78 76 74 140 170 193 89 35 215 126 61 138 200 36 107 231 158 98 126 91 87 237 32 71 38 15 237 178 220 21 50 178 215 151 202 54 107 8 36 119 27 106 216 213 90 18 19 252 82 210 96 230 113 71 236 81 215 47 201 249 12 132 18 200 116 144 143 173 29 236 86 133 43 252 213 150 136 118 60 94 46 118 227 0 219 244 22 99 182 186 220 244 254 183 164 182 84 34 119 167 129 233 160 30 170 11 136 235 236 82 68 179 241 155 206 252 154 179 154 230 174 113 198 7 214 75 11 69 87 119 65 13 107 214 177 155 202 85 63 150 177 158 190 92 151 100 69 44 168 152 65 117 216 245 61 155 132 30 219 193 241 43 141 214 141 159 87 16 3 141 69 222 58 199 228 204 51 16 108 120 252 77 190 78 114 167 83 112 153 67 144 106 147 176 101 208 167 68 34 37 117 215 151 115 11 112 74 189 91 98 114 246 66 48 242 35 65 134 205 114 44 198 233 18 190 197 86 50 96 212 173 182 131 76 115 223 88 172 57 193 19 27 64 146 185 84 71 170 143 33 110 8 170 49 156 204 214 254 113 121 203 9 188 253 80 41 30 242 12 156 181 60 181 239 226 88 51 191 97 149 59 243 186 159 160 119 52 244 183 245 72 170 146 97 19 229 255 253 77 85 71 21 106 124 17 189 215 66 119 57 143 143 253 73 101 173 250 164 86 205 183 97 250 32 115 65 252 143 27 41 124 147 53 108 149 24 149 47 247 13 72 220 29 1 99 226 63 190 84 91 57 132 145 128 84 111 30 141 202 123 196 163 3 59 21 240 86 138 178 211 154 202 66 31 214 98 112 112 30 102 20 41 163 116 133 119 138 62 202 49 254 53 12 140 227 12 92 112 2 16 199 60 185 80 9 247 23 111 172 207 188 162 158 48 180 32 57 12 127 9 158 120 92 115 87 191 34 241 214 167 94 79 153 197 194 165 120 78 109 172 190 135 162 155 66 45 167 151 247 86 166 56 61 61 107 124 114 88 255 204 101 160 110 108 234 166 234 51 24 14 144 188 8 156 17 38 131 221 113 223 53 245 127 45 177 233 195 54 42 140 23 90 204 28 145 76 244 197 1 131 58 140 165 77 108 71 96 145 142 250 4 127 178 94 119 17 51 17 192 202 118 42 68 58 147 244 121 151 141 128 240 0 110 46 75 189 228 189 203 226 167 124 120 47 18 178 80 159 21 252 30 21 75 172 197 238 18 79 28 112 103 21 225 24 164 104 183 110 209 187 16 21 178 57 135 238 186 204 189 163 101 101 132 136 6 142 10 48 205 124 210 28 201 70 166 231 120 106 113 87 100 121 252 244 253 15 184 150 233 155 214 70 171 225 132 59 87 128 170 58 150 78 51 86 23 38 220 11 180 3 35 127 58 212 182 218 24 135 226 252 66 202 117 12 29 212 147 127 104 103 116 100 18 9 95 47 177 113 23 255 229 65 4 131 8 170 114 85 232 12 203 238 100 236 89 138 167 104 66 113 218 49 162 77 205 107 194 26 205 209 79 86 29 98 109 150 205 86 48 25 58 15 22 17 90 214 97 157 149 29 25 75 178 155 69 24 197 51 204 73 129 250 137 60 106 244 217 225 71 246 141 178 222 26 204 170 10 38 16 130 216 120 146 180 102 31 146 74 21 235 69 42 201 145 76 208 187 31 145 199 144 112 4 38 208 144 82 183 129 239 153 69 124 71 110 40 203 112 120 1 216 4 137 129 175 219 154 24 59 126 248 126 161 139 40 108 247 96 135 45 184 54 124 95 18 229 200 169 202 178 105 146 179 139 204 100 250 56 100 125 102 76 68 196 82 232 178 53 224 220 205 137 138 21 0 77 210 87 232 242 41 225 23 26 100 8 26 73 179 55 185 99 45 240 53 73 101 255 22 195 194 72 12 39 211 81 248 201 101 1 225 137 243 169 246 188 236 152 204 82 163 166 225 202 219 25 129 211 163 186 62 85 196 194 64 42 152 64 200 200 215 137 168 208 17 89 204 175 252 180 144 50 89 76 131 127 66 129 128 51 11 233 223 20 42 138 144 234 250 21 209 178 115 84 192 91 123 37 47 87 146 237 95 18 193 218 69 97 62 182 132 162 25 186 10 120 125 117 184 185 42 82 91 189 79 149 201 108 32 109 217 66 103 253 1 182 138 123 80 251 150 14 190 168 107 241 195 191 37 169 3 125 91 139 222 57 248 9 63 178 146 81 225 102 150 42 252 9 255 1 250 38 248 89 80 138 199 237 83 143 252 11 84 236 54 129 143 95 0 59 92 94 225 101 1 222 75 139 36 104 191 162 251 0 21 122 135 98 109 176 225 206 132 30 129 246 44 141 100 35 162 77 237 84 214 67 6 4 54 162 100 57 160 1 15 251 211 129 56 31 42 29 193 210 88 144 65 245 145 84 243 249 88 237 172 17 151 35 27 208 188 137 30 133 135 107 231 150 144 185 222 2 222 48 177 141 194 246 195 19 39 155 124 193 235 62 27 129 141 191 17 31 135 102 82 208 242 85 177 31 99 85 221 152 113 170 169 205 72 14 148 107 153 90 240 212 109 196 121 210 41 107 57 216 175 20 139 48 156 145 184 158 89 61 64 100 133 250 6 120 155 2 16 238 229 204 181 33 210 33 169 213 170 250 27 62 45 237 105 56 188 229 185 168 182 193 254 18 16 223 139 162 43 101 189 246 146 159 163 237 144 33 155 239 132 208 168 100 224 86 250 66 30 0 19 156 133 83 170 237 184 102 128 122 26 98 179 123 227 18 217 80 141 18 145 163 52 249 151 33 220 35 58 249 73 136 152 208 233 167 53 18 145 0 196 204 23 209 248 11 220 150 223 215 178 109 105 119 123 224 205 205 147 153 183 84 210 50 162 69 87 236 231 110 114 114 185 81 69 68 14 249 119 131 145 220 224 93 115 211 211 165 95 230 118 105 252 6 78 43 161 40 45 192 37 11 155 60 81 84 164 101 51 178 207 222 189 150 44 14 101 26 28 83 117 88 157 116 85 121 3 73 45 3 86 206 213 85 42 221 203 190 213 247 218 213 12 119 43 226 242 254 243 0 31 224 71 253 106 51 204 134 81 34 171 12 77 134 226 101 216 92 184 249 168 98 53 211 0 112 154 138 132 106 115 119 88 23 31 150 223 124 47 98 230 214 219 28 154 182 38 84 164 208 229 246 212 205 12 41 205 52 199 152 90 236 72 63 125 126 68 14 107 231 94 124 168 100 153 44 14 105 171 234 197 205 131 155 178 23 18 229 156 200 0 92 110 234 143 52 40 186 211 102 133 26 232 133 157 61 180 192 188 219 103 144 229 59 213 19 131 134 62 201 205 65 133 24 70 137 83 147 75 185 135 138 205 145 55 203 49 106 144 55 82 181 254 209 57 150 5 188 195 184 89 5 203 253 238 133 135 157 114 86 127 5 209 164 87 148 161 46 139 99 183 238 98 80 66 207 66 48 191 234 217 219 162 230 90 186 164 40 128 73 88 162 46 154 175 1 109 254 65 126 218 51 201 158 54 220 189 110 117 110 211 121 185 137 157 103 60 216 89 195 135 246 145 108 137 54 136 137 137 214 203 117 176 92 41 11 106 231 67 153 30 178 216 215 84 93 56 123 164 145 118 181 167 76 177 218 234 3 9 112 38 92 192 90 229 136 130 168 184 43 213 38 123 221 202 105 11 157 105 173 105 159 200 215 27 173 167 59 253 78 150 237 223 215 201 209 47 141 73 102 0 177 220 19 26 137 36 0 203 99 52 50 227 110 83 18 179 88 190 106 220 225 74 235 214 60 76 180 216 243 207 7 89 95 178 189 208 97 216 80 107 32 206 160 170 40 39 171 16 169 77 203 147 210 114 40 143 48 83 180 1 107 57 141 16 42 248 198 117 45 211 153 15 162 197 199 151 167 85 1 185 210 130 248 208 55 205 163 119 73 13 101 198 5 135 216 138 130 37 158 216 164 143 234 162 116 69 93 33 66 145 251 140 85 58 115 176 45 55 182 228 168 147 245 6 58 226 224 146 204 208 154 173 241 135 65 250 205 222 114 236 74 232 223 31 191 67 182 121 179 76 207 213 44 113 15 85 185 169 235 244 146 151 106 52 46 62 81 212 169 239 190 178 8 161 49 97 195 55 193 14 30 106 123 228 8 155 197 224 77 92 123 91 56 2 104 42 243 241 5 178 113 158 118 127 61 138 0 99 178 90 255 111 50 64 5 199 111 117 255 7 48 181 210 198 42 237 162 40 218 186 106 46 76 78 94 245 146 122 98 229 192 204 244 170 82 31 180 123 220 93 207 54 30 172 11 39 71 191 66 22 47 110 83 194 43 148 47 17 214 31 228 146 134 34 184 238 32 112 36 89 118 32 20 78 159 82 215 209 147 238 23 77 192 227 71 237 48 27 225 232 62 118 71 255 71 5 112 166 98 209 159 69 221 14 149 221 106 97 22 98 239 143 81 97 126 229 9 73 149 143 255 204 92 168 189 232 133 116 184 107 172 52 214 48 98 96 41 205 225 83 15 27 54 142 53 204 199 241 71 79 74 157 125 167 164 104 229 75 179 214 120 241 125 193 42 182 93 45 10 128 171 252 123 34 43 200 215 23 60 25 43 100 106 123 212 189 186 212 204 14 243 118 40 25 82 174 53 33 178 129 175 161 125 208 90 50 44 154 146 36 24 8 211 189 171 24 174 174 38 132 179 36 254 149 204 154 58 154 208 16 227 43 146 47 213 105 26 93 238 150 174 127 55 248 228 144 168 75 168 20 158 181 151 113 181 154 149 53 18 35 76 119 140 218 175 214 106 62 174 199 87 249 215 84 82 199 153 60 88 176 216 180 212 14 172 15 244 35 30 203 213 16 26 134 107 171 19 69 236 236 224 125 80 122 164 44 209 205 250 196 67 125 96 53 148 180 211 128 229 221 113 222 245 84 3 55 90 144 114 7 51 27 109 69 164 225 203 84 56 249 106 110 129 38 57 164 129 141 198 126 100 43 28 39 234 235 159 205 140 205 175 58 224 21 178 1 67 14 57 114 161 16 73 196 239 1 60 167 41 36 113 165 102 5 82 191 114 252 216 253 66 202 183 137 255 140 227 242 39 54 97 214 5 42 252 128 40 117 98 2 34 238 246 40 7 14 143 46 196 72 46 254 125 189 44 12 191 202 116 51 1 113 189 32 65 79 253 222 7 224 51 255 156 67 19 16 238 50 221 84 90 169 158 144 94 102 132 249 99 224 172 93 182 59 59 163 70 106 189 131 164 53 104 21 142 214 139 83 175 48 79 135 28 69 156 123 217 152 213 154 122 92 193 213 245 246 54 2 116 71 133 125 182 147 222 112 19 245 98 190 237 8 7 59 40 6 243 102 93 200 29 175 197 72 14 85 219 36 84 214 224 222 65 226 139 176 25 57 105 205 95 232 229 47 74 243 186 210 148 135 80 136 88 174 24 105 86 249 92 37 65 135 109 221 240 197 187 185 211 29 53 65 217 225 9 248 3 118 132 161 237 151 146 117 3 203 6 242 86 64 224 101 238 16 74 158 101 242 147 93 138 51 1 130 181 191 232 62 168 110 38 41 255 43 151 110 12 95 71 242 164 87 179 140 33 141 81 117 227 241 49 228 222 82 11 4 113 150 236 171 136 44 234 172 130 67 62 58 187 140 248 230 173 157 218 97 207 77 192 86 202 69 219 113 71 118 170 251 94 70 227 171 220 139 78 219 244 92 229 161 36 120 247 238 35 107 9 199 205 105 233 86 232 115 49 49 20 139 72 20 166 187 46 233 230 120 98 176 162 12 225 166 211 88 105 120 237 49 221 89 22 117 82 246 109 192 162 104 91 11 234 48 126 5 4 69 9 145 214 194 102 134 234 164 12 167 133 172 19 26 226 28 10 99 166 110 176 177 92 28 15 163 88 27 101 11 234 169 184 78 253 13 