P3
#HOLA
50 50
255
96 176 127 225 126 66 190 52 38 36 199 47 58 191 184 37 167 146 236 56 225 7 73 251 73 93 16 85 131 230 44 192 6 51 51 132 205 148 74 55 86 184 166 58 37 108 147 28 11 59 162 94 116 152 135 159 201 64 252 106 210 239 30 143 223 243 94 88 139 3 201 175 218 76 241 102 238 249 100 134 175 20 72 158 162 164 193 251 17 5 237 82 134 159 108 55 145 20 164 232 187 32 6 242 49 223 188 114 171 38 10 80 194 188 207 167 0 238 168 46 40 37 38 60 240 88 185 66 181 35 255 61 138 13 125 177 75 225 120 242 156 25 82 24 105 80 114 183 166 4 178 83 25 120 96 226 49 116 126 201 31 112 226 57 238 100 95 78 104 243 13 17 96 34 158 141 209 103 209 163 194 145 145 146 241 52 230 127 105 216 3 156 25 247 205 195 6 159 3 248 214 66 185 44 241 117 221 67 255 155 91 196 212 255 50 91 99 161 231 238 184 246 132 235 166 185 32 168 86 188 91 9 243 35 155 232 252 133 24 37 249 77 40 222 91 226 173 206 60 174 241 25 71 106 174 161 78 144 18 248 171 255 84 24 109 111 142 191 154 47 25 99 179 160 183 53 166 171 50 229 249 109 106 43 245 136 96 164 60 60 48 3 230 240 6 0 230 46 254 54 151 4 215 139 219 135 121 155 161 135 201 179 44 86 225 69 9 56 179 130 91 243 99 40 109 109 75 207 197 90 56 92 152 208 250 241 204 147 51 173 232 199 5 16 76 229 222 63 146 228 88 50 34 71 156 25 113 78 124 120 249 166 183 135 204 172 230 94 215 224 108 99 74 141 113 94 225 134 82 198 85 131 129 200 197 178 125 57 154 160 33 246 51 183 79 105 249 135 86 196 60 17 31 143 43 10 179 56 68 91 215 0 104 40 155 144 210 214 177 141 242 42 95 46 50 167 52 56 137 41 56 1 227 46 146 81 9 92 49 71 42 146 49 11 136 77 188 88 188 13 181 201 20 16 57 154 59 54 204 226 147 46 34 18 15 249 91 87 51 163 101 47 74 111 101 101 172 5 178 74 230 94 189 156 162 174 147 60 98 203 43 5 13 228 86 226 113 165 100 84 122 40 221 45 80 190 168 142 191 53 112 155 162 89 253 224 154 242 71 57 149 8 159 6 129 91 115 35 125 214 4 245 241 160 202 161 67 116 17 193 21 23 68 230 228 163 254 159 125 123 1 235 176 13 213 36 58 215 161 83 43 238 85 164 183 110 12 102 132 1 28 34 186 180 198 48 77 26 238 204 245 223 18 254 75 136 213 224 15 170 138 123 141 247 105 122 83 34 45 65 94 84 36 254 25 200 41 54 29 220 195 144 85 42 17 153 208 88 93 65 114 130 100 61 220 205 106 75 194 152 161 24 199 124 64 193 164 91 97 97 173 172 154 251 15 65 18 164 65 213 4 118 204 201 214 26 37 243 220 209 8 68 227 129 193 16 107 244 238 50 15 254 111 232 84 134 120 93 12 110 214 25 4 230 158 45 6 146 129 229 139 13 3 9 178 219 241 121 129 109 219 91 228 46 225 167 67 155 101 173 112 239 33 114 107 14 15 231 65 116 121 95 248 137 44 247 209 130 58 202 71 17 60 151 227 243 43 123 113 30 202 146 51 26 150 82 115 60 202 210 188 205 8 39 157 171 109 1 215 235 93 127 149 248 57 54 214 226 129 183 11 79 74 51 243 233 62 207 94 148 123 195 123 74 73 211 143 69 108 67 146 8 177 107 128 202 96 145 185 51 128 90 64 66 224 133 220 3 146 58 197 108 157 27 47 127 31 30 174 24 255 54 31 122 201 6 219 97 114 204 8 247 163 209 187 151 115 219 153 153 133 224 113 81 175 171 196 14 133 115 81 156 116 110 122 165 191 207 80 228 181 20 26 223 76 64 21 254 53 254 215 228 214 162 154 154 138 254 194 171 191 130 70 65 247 125 190 18 234 253 72 12 124 151 121 185 78 235 100 250 112 165 252 112 206 113 188 66 176 190 219 124 230 36 45 57 9 245 156 207 1 98 120 1 30 182 248 112 160 74 145 86 249 224 93 9 221 109 131 7 65 121 21 85 229 99 103 211 170 228 159 137 69 200 224 209 253 74 223 87 59 66 205 75 146 119 214 85 16 85 61 172 142 25 115 140 223 88 194 221 51 236 242 95 220 34 45 19 213 147 195 130 64 174 90 45 116 190 188 167 211 120 155 150 0 238 55 180 153 13 104 8 24 108 141 40 60 170 41 46 211 34 146 106 135 139 189 250 91 140 99 202 129 187 249 100 8 249 92 167 2 236 154 7 201 11 181 120 254 127 91 114 138 24 125 78 233 157 228 196 201 144 130 103 3 52 104 130 21 69 114 166 240 218 58 33 246 126 44 141 119 54 139 29 218 189 151 154 230 63 119 204 115 212 40 166 237 109 88 119 24 201 9 146 153 66 219 106 203 91 205 17 69 155 255 64 55 208 55 220 203 126 107 64 11 224 35 116 22 85 63 5 135 254 58 209 110 169 101 183 215 239 179 253 229 236 189 252 182 191 245 69 235 229 26 34 73 140 42 127 35 61 243 204 90 152 166 248 208 221 202 120 137 213 216 248 210 160 244 89 193 38 208 84 151 174 208 64 170 210 233 168 115 71 201 153 141 205 239 119 120 13 79 50 20 208 159 209 233 21 119 97 26 188 151 7 153 0 37 167 60 100 114 23 130 195 0 97 212 156 121 114 164 156 246 250 91 226 35 60 89 149 171 177 59 221 109 108 231 181 163 56 162 215 68 74 65 158 37 254 138 179 195 121 11 61 62 142 68 146 36 236 123 100 57 198 73 245 140 33 87 188 251 50 232 90 190 118 59 201 221 104 19 99 91 126 214 141 54 212 134 210 30 14 222 162 180 233 51 36 12 63 96 156 130 203 48 47 147 141 55 41 14 249 82 121 67 68 118 166 51 32 137 152 195 40 20 169 137 52 162 193 15 161 52 152 238 107 128 241 80 185 203 96 91 47 81 184 121 223 72 28 57 119 54 225 143 97 72 156 143 167 224 32 189 68 21 113 52 161 138 18 235 244 160 225 201 8 56 106 200 94 243 232 232 197 1 18 163 216 11 134 177 97 141 227 60 164 189 202 134 191 167 31 236 196 18 253 4 59 126 85 99 139 49 38 37 34 100 16 205 139 23 250 207 95 62 255 160 227 204 5 60 9 182 105 145 228 46 63 64 46 144 135 244 12 230 189 210 108 92 46 46 226 133 233 240 14 120 58 178 34 32 231 69 33 0 94 186 13 20 205 58 56 132 166 153 234 2 39 67 122 64 195 140 203 130 191 24 64 98 119 68 202 10 237 86 210 100 200 117 41 172 50 180 34 232 18 136 83 251 26 13 119 207 214 11 69 85 150 92 132 54 244 250 103 1 76 111 57 186 100 183 67 227 49 234 32 55 107 219 34 81 109 78 113 82 120 181 253 142 211 180 30 149 29 98 153 188 28 73 133 26 148 47 228 10 247 41 246 36 187 111 28 168 85 179 85 84 153 177 24 110 58 198 40 51 225 199 195 114 62 20 46 54 219 164 42 91 119 59 233 255 179 36 57 67 147 7 194 141 64 224 183 15 184 251 92 107 59 37 212 42 242 39 193 124 100 225 185 209 1 53 190 116 74 249 131 109 175 61 76 184 251 17 112 169 73 27 162 83 228 157 221 55 36 240 68 66 54 115 234 219 189 63 238 211 52 32 41 247 112 198 213 175 110 168 68 194 51 232 157 92 206 99 82 212 153 211 172 119 85 238 113 112 190 70 222 137 128 92 186 121 222 97 217 49 83 6 40 133 7 35 61 233 34 60 13 59 184 212 154 38 235 93 240 210 184 84 155 20 208 63 174 72 64 184 210 132 27 183 127 164 15 149 24 97 152 37 240 192 5 64 48 228 233 45 81 198 33 190 50 217 20 239 211 181 252 211 190 2 201 176 179 109 96 63 205 244 2 65 196 192 174 166 110 39 141 130 13 118 115 232 151 67 89 44 201 206 245 135 32 112 49 48 91 255 71 95 43 171 70 48 217 0 226 240 100 88 43 147 91 16 156 19 62 42 76 171 208 210 114 51 108 41 229 169 108 40 165 61 140 119 139 96 7 219 250 86 144 142 82 206 98 218 180 190 249 121 103 74 86 168 80 167 152 165 70 208 127 219 35 252 14 41 85 245 28 200 253 179 111 118 123 58 34 152 250 6 183 73 197 123 18 104 219 45 21 230 179 46 48 177 205 156 103 157 59 144 11 194 130 175 40 103 195 105 138 122 194 136 165 71 25 153 96 178 165 111 4 79 255 84 47 179 97 116 213 33 100 98 244 158 127 121 8 62 149 237 184 161 206 82 23 205 90 27 89 193 28 211 250 80 239 98 251 141 104 185 64 107 248 44 13 206 17 81 255 119 62 16 96 245 228 127 247 85 223 81 93 138 135 178 79 178 108 64 44 237 179 121 228 235 186 236 15 210 201 109 103 241 7 159 15 188 7 207 93 5 34 100 82 223 178 69 65 228 62 13 98 53 116 245 23 87 6 217 197 157 18 4 200 184 44 139 146 10 64 240 92 102 184 87 11 178 101 199 176 77 201 106 15 80 158 130 123 31 144 33 174 116 9 204 170 248 229 162 110 103 178 148 131 44 217 95 95 187 65 61 59 149 158 97 118 167 227 235 81 231 118 166 186 6 83 106 73 176 227 138 254 172 123 213 185 86 173 129 148 53 53 174 234 91 113 195 185 254 64 247 114 176 44 129 218 253 55 76 172 253 21 56 15 193 57 5 159 149 78 63 212 76 98 107 106 51 122 167 169 168 101 219 178 143 62 155 109 139 201 159 183 11 107 225 58 113 204 41 155 139 126 219 219 220 193 45 202 203 166 210 238 20 95 162 5 166 175 164 184 29 8 212 251 89 83 126 84 108 139 95 4 93 133 5 7 100 39 172 98 117 225 68 53 86 132 46 48 249 31 162 104 38 199 232 85 123 28 206 183 159 240 8 235 183 196 18 88 200 8 198 160 130 66 160 45 167 153 165 184 6 23 113 200 83 185 187 78 239 36 23 156 219 127 128 99 67 241 106 245 48 236 107 165 142 204 223 175 244 225 81 174 115 238 164 228 31 118 177 249 229 62 1 58 64 156 55 248 181 85 188 143 16 12 19 71 101 150 109 242 3 87 0 249 173 220 240 122 31 43 226 222 246 231 99 62 76 147 146 100 112 129 253 132 131 1 180 83 126 130 211 108 44 39 83 35 47 9 205 90 53 181 99 213 197 143 127 17 205 12 17 241 251 216 176 104 183 38 42 13 150 127 248 62 45 178 55 46 105 196 188 62 233 109 23 213 121 241 97 241 219 189 212 154 26 169 75 48 41 193 46 120 204 41 140 215 3 13 118 218 245 108 10 112 51 125 25 14 90 136 217 103 14 205 179 33 83 85 16 121 35 242 69 92 50 234 50 97 11 54 203 22 60 165 31 226 108 219 61 194 199 176 226 20 68 181 198 240 244 205 152 52 9 252 207 114 223 237 204 14 159 227 117 218 167 124 62 70 148 58 14 65 125 143 73 27 4 26 15 109 140 188 182 9 104 114 101 252 94 121 62 34 170 13 46 2 65 247 181 225 13 254 26 62 151 241 254 103 195 23 120 252 109 192 141 233 35 173 147 242 147 54 186 213 120 149 6 35 72 169 112 244 165 91 57 92 185 126 38 4 171 67 97 163 172 79 34 20 140 223 23 110 192 159 166 127 167 250 231 39 58 148 101 40 219 18 44 43 156 25 22 108 93 199 15 82 237 35 57 56 195 52 48 117 227 255 83 114 219 217 244 121 8 22 80 124 113 144 14 89 85 130 179 29 142 53 44 17 75 194 66 217 35 4 155 73 220 81 226 79 166 226 206 21 114 29 253 215 194 192 93 175 251 206 189 225 184 146 242 159 200 243 76 225 160 23 128 22 228 190 48 225 217 152 211 122 251 17 82 231 190 12 149 21 206 148 22 197 28 152 167 224 165 180 137 187 206 143 136 216 183 79 61 51 244 165 61 12 87 197 204 78 51 170 86 136 234 165 222 157 24 212 172 207 237 53 13 188 120 110 172 141 136 235 116 54 34 45 82 77 253 70 158 164 33 35 9 72 142 175 189 60 193 55 223 184 113 58 171 193 129 242 219 107 242 217 78 121 50 204 195 159 139 41 197 126 132 206 194 121 98 135 50 130 69 47 189 23 166 166 210 184 15 164 132 132 131 26 7 58 100 161 140 129 121 12 199 85 168 210 74 209 107 16 133 4 255 188 168 68 72 72 170 103 164 9 45 89 38 106 51 168 188 170 242 37 108 58 205 247 98 116 168 130 126 139 184 5 224 111 88 119 173 94 179 236 85 208 96 8 46 160 152 237 227 115 108 234 175 19 73 70 127 228 143 101 119 130 227 118 203 61 131 238 26 181 78 59 185 72 112 208 145 30 126 63 140 119 123 85 201 178 233 253 162 247 216 220 243 118 29 143 198 203 148 178 244 113 112 30 92 85 92 135 211 123 77 51 169 111 93 249 244 244 103 91 211 56 40 223 56 249 105 129 185 50 93 39 187 29 139 160 245 202 142 151 202 127 19 14 122 162 118 187 142 244 187 14 96 210 216 90 67 212 164 248 98 41 31 254 0 169 178 19 154 13 139 160 158 149 44 19 83 164 156 63 38 147 77 59 75 125 209 158 224 184 246 107 96 237 240 201 63 202 124 49 198 47 135 99 8 103 245 20 61 11 205 58 89 57 102 84 236 56 222 79 229 2 69 194 115 253 12 252 51 28 191 192 107 52 28 55 177 190 245 103 32 138 217 148 200 93 19 142 219 83 120 68 64 98 189 180 240 228 158 178 100 85 139 117 151 58 237 135 23 134 233 22 191 137 224 84 230 20 230 187 161 47 144 170 181 54 210 237 33 162 74 26 88 140 143 63 152 195 123 187 124 231 16 136 29 70 98 100 235 227 17 79 109 53 15 92 56 105 189 175 147 18 129 34 49 152 111 62 245 50 196 205 86 197 93 138 8 83 59 129 187 126 128 110 236 247 228 213 208 69 93 10 54 145 204 111 36 108 193 131 180 66 12 171 21 9 132 129 239 242 127 170 112 95 96 9 217 0 239 67 226 247 248 199 42 176 92 126 193 24 114 189 72 120 231 57 182 236 184 54 147 75 176 103 198 51 150 232 157 173 125 200 89 168 116 243 184 52 193 160 7 246 23 125 201 96 185 145 116 235 74 206 178 123 229 173 242 114 193 3 211 239 143 130 181 233 226 181 252 185 165 252 199 118 173 243 54 146 68 211 118 18 16 181 37 44 11 127 63 120 236 237 14 31 41 240 107 172 163 48 215 157 224 194 245 37 154 116 171 177 221 248 46 65 116 166 89 192 223 125 182 15 108 196 192 16 161 59 17 196 60 30 218 77 232 12 91 217 22 59 135 154 222 91 6 104 182 93 224 46 120 103 221 67 90 237 93 209 100 207 57 156 140 157 28 4 206 141 217 152 148 241 34 167 201 97 249 143 193 2 145 131 116 245 15 252 138 167 140 47 100 67 143 14 223 251 105 102 119 137 66 231 207 118 194 155 247 40 107 20 97 217 28 189 227 123 7 177 129 235 2 41 198 125 219 89 43 157 198 25 135 248 98 124 76 16 34 44 172 34 167 11 234 95 3 203 65 211 190 167 69 177 70 109 111 167 243 47 84 182 234 213 3 40 54 198 0 143 226 10 12 242 232 243 59 148 102 167 193 245 192 249 71 76 224 200 64 144 81 150 82 89 119 37 75 168 187 6 238 112 64 38 156 244 166 56 120 21 84 37 251 211 52 105 208 39 110 25 14 19 244 129 2 60 119 215 224 151 174 4 107 243 121 212 199 59 112 180 101 13 6 139 197 3 116 127 125 207 201 23 232 43 206 162 160 98 124 69 212 110 83 50 172 174 29 251 158 62 43 52 161 32 88 231 204 199 234 3 84 112 113 5 82 45 56 36 6 97 23 132 5 3 124 235 123 18 52 141 168 101 102 21 61 31 24 25 19 212 133 206 191 55 20 69 187 46 67 141 12 241 60 150 188 55 232 4 165 165 211 247 71 223 235 155 210 232 239 54 213 24 44 83 219 146 72 4 85 98 152 201 39 13 69 164 180 98 79 26 157 4 249 200 45 78 237 131 252 64 150 139 223 112 202 77 64 247 24 71 82 166 142 145 167 43 215 41 143 250 101 17 19 154 246 82 211 10 170 250 108 174 83 20 187 109 23 127 171 223 164 181 31 174 57 16 236 183 165 118 229 246 226 214 51 7 67 108 90 26 12 19 195 82 238 99 2 47 127 59 51 27 208 231 64 47 150 1 14 235 143 31 51 158 172 236 213 48 125 76 7 238 208 24 219 36 33 22 103 86 182 198 157 187 113 64 58 124 111 87 187 209 124 35 224 233 212 120 241 3 83 144 201 105 238 224 3 56 206 68 239 228 69 94 137 40 198 197 105 233 43 20 183 136 88 180 184 101 95 105 207 255 226 76 155 46 4 43 70 159 96 228 118 31 251 199 25 181 197 142 208 253 24 151 103 159 137 134 131 71 139 120 187 217 205 41 32 56 107 195 136 181 219 190 35 197 4 222 43 7 158 161 10 53 230 104 156 162 243 129 135 217 110 144 219 40 103 239 192 178 161 125 215 145 201 148 16 45 188 234 219 26 82 200 38 124 242 132 34 95 169 198 147 179 33 140 104 204 96 212 34 86 140 23 25 11 186 142 122 32 178 213 234 218 57 186 79 47 11 167 54 32 122 185 74 38 250 133 239 129 122 67 53 254 244 149 115 29 188 144 46 129 250 46 142 99 55 19 56 78 233 222 120 1 248 154 247 10 78 105 223 29 207 3 91 108 241 35 42 28 21 176 200 125 200 253 186 107 124 21 108 8 220 94 90 190 179 96 47 17 89 52 118 130 176 189 0 237 101 128 41 239 252 123 101 102 163 242 189 191 189 255 189 205 93 117 73 192 198 255 240 106 15 201 131 59 35 60 228 43 66 243 10 53 189 73 237 146 23 15 176 88 54 206 208 144 155 110 135 5 52 5 28 56 188 12 254 234 62 129 39 53 243 162 108 133 236 163 206 229 141 78 70 122 144 254 229 205 220 65 54 113 137 92 118 70 68 144 111 167 254 216 49 92 151 205 234 233 101 117 171 86 177 210 34 242 63 7 46 146 37 79 197 115 25 154 8 223 104 119 43 170 131 229 116 36 203 231 4 86 11 253 145 247 198 240 247 173 85 115 245 34 57 21 37 195 13 91 55 248 80 173 133 139 255 176 146 107 37 154 47 188 9 119 191 158 29 181 156 65 29 107 8 2 215 166 217 148 19 234 254 137 64 223 164 195 200 63 90 120 65 185 0 223 121 49 98 128 115 240 225 117 240 251 4 83 116 224 173 214 200 165 117 86 222 215 181 238 35 49 215 23 95 167 67 92 21 184 53 193 181 95 52 210 196 70 120 161 206 223 48 158 229 126 140 28 10 19 18 215 167 35 11 77 114 70 85 38 49 224 61 63 175 85 248 7 237 90 31 145 45 161 215 76 86 77 83 145 150 129 93 208 178 8 178 172 247 73 159 73 47 165 126 136 8 8 26 100 14 11 34 80 161 23 192 132 162 169 231 15 230 100 11 14 43 36 192 178 119 217 50 92 28 134 220 237 101 235 196 201 34 220 90 15 84 25 150 123 135 246 233 104 152 220 72 152 4 212 194 211 87 197 15 126 67 56 59 3 111 41 158 217 62 152 123 85 188 104 36 124 36 50 4 132 221 63 206 51 56 85 126 70 131 45 162 75 139 83 193 38 212 103 169 229 188 177 5 13 242 205 72 111 156 240 204 137 173 208 255 210 126 218 201 196 142 47 34 239 159 104 244 238 211 241 17 189 242 212 194 62 100 192 99 140 252 110 65 147 32 113 247 12 250 177 224 172 195 240 35 90 202 203 233 50 174 4 55 107 236 30 147 153 5 182 243 133 54 127 69 12 130 55 22 122 107 59 247 139 103 62 123 102 183 21 43 54 45 84 36 89 235 229 143 83 252 66 58 65 172 253 196 140 103 32 239 120 248 106 19 232 136 138 118 194 190 192 239 189 65 192 221 104 249 253 4 113 173 129 54 31 227 193 97 78 161 230 195 154 19 91 60 64 186 153 91 78 179 69 213 96 119 123 215 184 46 126 239 113 28 177 113 59 255 102 171 236 203 122 183 134 139 140 99 133 51 36 218 74 214 40 67 21 148 154 219 178 164 85 130 12 14 148 129 155 226 182 133 241 109 95 65 237 25 160 237 157 95 46 186 106 125 111 210 201 241 25 145 129 154 32 173 190 2 195 100 173 99 42 71 36 209 118 121 147 236 44 82 36 177 165 127 247 222 63 83 65 60 242 124 205 158 28 71 35 111 170 231 152 13 174 101 130 80 81 63 100 29 99 173 105 156 219 228 219 47 120 75 236 206 244 69 134 128 148 133 152 139 48 34 239 56 50 243 157 14 132 108 112 158 154 150 94 117 30 172 15 251 198 172 45 94 188 172 87 223 168 244 8 128 26 223 216 4 166 40 36 44 35 222 122 36 111 119 134 39 145 149 16 54 59 126 50 74 26 173 173 10 72 25 60 38 91 246 15 231 0 142 100 48 86 82 103 32 37 69 76 224 90 242 94 59 75 25 105 19 45 36 36 54 11 49 205 49 200 89 65 213 155 238 87 61 62 34 107 158 237 182 192 106 79 39 57 222 58 249 135 36 136 73 186 210 50 199 85 130 19 199 138 182 32 143 57 1 103 253 220 138 54 222 163 95 153 238 206 213 138 106 187 74 27 252 224 62 145 135 78 51 18 100 47 97 122 108 208 153 62 155 154 230 45 18 54 170 163 80 253 152 6 234 200 191 221 18 215 56 234 47 103 239 196 197 234 57 69 128 90 5 153 100 231 119 180 187 244 200 70 20 184 114 80 40 21 82 138 21 76 87 58 12 16 162 102 56 160 125 164 59 8 197 25 33 50 237 81 165 1 220 154 34 227 3 39 29 37 167 38 73 45 77 48 39 184 63 152 190 92 46 8 227 248 127 156 193 42 129 115 165 9 26 247 125 61 29 185 229 248 38 69 208 189 54 5 176 204 83 78 189 192 161 93 8 80 47 137 89 25 166 128 60 181 30 141 29 73 204 159 53 44 9 62 22 135 170 165 167 246 162 188 64 14 21 143 238 169 201 246 255 128 203 189 193 119 219 237 105 215 80 68 249 61 55 49 107 227 69 193 226 155 57 138 4 210 250 196 69 211 240 250 246 112 177 105 88 8 121 207 38 185 187 120 74 181 253 100 151 62 29 231 245 78 95 252 212 96 244 53 249 150 210 158 253 192 84 21 187 201 232 202 114 157 91 86 20 39 116 128 213 241 25 68 121 150 112 212 158 78 78 139 139 23 184 112 153 144 10 251 190 41 234 70 80 64 47 221 243 91 237 215 51 146 55 192 243 38 45 176 55 154 135 70 26 23 15 226 244 44 238 228 236 122 172 113 134 234 181 100 4 202 124 41 218 128 232 240 136 183 111 182 9 212 133 57 94 116 242 57 247 3 223 15 0 110 106 157 31 206 107 74 42 70 127 20 166 60 184 69 186 164 177 112 126 189 66 146 134 150 103 6 214 34 248 138 236 171 94 44 153 137 225 131 146 149 218 180 111 245 49 212 136 40 32 86 213 229 154 82 210 122 126 75 200 78 120 152 104 9 128 5 126 79 185 91 249 223 25 110 205 182 154 173 108 131 0 89 241 6 173 92 230 83 217 215 216 217 159 58 63 59 101 243 94 31 100 223 166 205 44 93 56 110 89 187 88 36 26 44 125 120 10 24 22 251 232 140 64 31 125 54 217 82 248 84 242 133 103 99 73 190 54 122 234 202 89 150 17 164 87 59 187 40 37 233 77 146 111 88 88 82 109 43 150 147 137 227 41 17 54 133 139 78 209 122 63 146 123 171 0 247 175 2 245 52 140 25 194 218 178 130 166 51 246 42 47 160 28 223 48 155 176 99 110 211 237 162 37 63 108 193 175 67 64 149 90 220 222 207 68 44 84 130 18 255 43 125 207 208 148 94 32 22 78 170 81 188 183 15 161 109 34 54 126 177 185 15 229 164 143 126 2 23 220 60 97 194 133 82 61 116 186 29 71 14 168 191 55 122 2 144 119 238 97 83 58 24 105 166 202 30 46 77 100 13 80 177 141 8 80 192 99 222 252 165 44 112 129 141 18 44 94 29 10 220 69 239 142 139 110 25 172 252 58 205 29 172 86 231 138 232 53 232 4 42 239 139 248 205 132 111 240 248 149 186 97 97 202 110 75 176 64 63 203 8 136 12 209 126 219 247 10 208 111 179 246 17 112 252 224 0 134 30 19 191 178 201 39 173 140 114 190 50 215 78 234 36 253 220 144 19 30 169 85 96 237 184 177 104 93 241 187 140 216 154 55 61 24 41 93 242 23 153 38 198 55 27 24 176 71 156 132 248 212 17 212 189 0 151 59 171 110 191 159 40 147 140 224 208 3 9 208 124 122 213 220 89 223 39 167 66 66 129 62 217 124 204 173 5 129 116 79 24 159 178 230 224 120 219 131 25 168 160 203 118 185 176 179 34 29 96 237 204 104 103 225 46 46 233 183 254 41 97 172 140 39 116 89 254 173 3 213 122 105 215 228 234 227 131 215 211 229 69 77 167 127 51 57 119 106 51 74 98 31 211 243 226 66 132 246 130 118 21 1 118 150 64 130 26 151 145 142 92 193 61 141 223 23 92 129 4 141 114 15 107 14 113 110 36 154 28 104 140 153 36 255 190 103 86 250 247 199 59 52 76 26 198 165 215 200 109 68 161 174 162 81 160 158 44 56 149 40 27 189 110 161 124 220 44 210 239 198 122 116 231 42 20 183 154 167 148 229 253 140 64 191 35 81 181 23 227 13 47 86 156 108 3 138 248 37 104 34 151 128 9 1 222 4 229 54 50 254 136 167 108 244 182 137 187 77 203 115 191 184 107 239 238 121 141 172 144 218 205 220 95 62 168 69 155 210 40 176 165 155 34 124 217 4 69 147 237 173 98 195 189 131 48 188 19 99 126 155 209 160 239 69 43 170 202 131 2 25 41 246 169 210 206 131 128 195 142 238 192 131 59 232 21 192 179 137 169 113 253 155 102 80 161 156 90 188 3 111 168 192 204 28 236 51 113 140 35 232 20 221 11 87 92 129 201 0 38 156 89 53 142 204 196 67 62 248 176 43 215 189 107 91 44 160 231 132 111 119 253 121 62 248 10 113 69 98 165 78 202 29 128 42 113 198 59 202 175 233 176 116 14 186 74 31 145 175 179 98 22 171 107 5 162 206 38 213 19 97 230 90 172 18 230 236 16 238 144 85 88 58 217 204 191 178 181 88 227 169 14 142 10 3 134 54 21 197 103 187 221 136 187 240 64 18 28 248 235 37 148 201 253 111 68 107 57 203 93 13 117 118 191 235 26 196 37 133 77 205 135 121 77 186 144 197 100 29 147 158 81 50 197 70 99 204 58 209 214 121 123 144 42 174 224 254 38 204 76 149 224 15 149 24 156 68 205 186 11 78 44 148 211 148 103 135 101 180 27 229 34 16 30 88 192 120 115 250 36 233 238 102 16 87 43 131 195 234 0 72 22 137 231 176 138 109 191 35 20 248 227 123 197 46 31 73 190 125 108 40 125 228 74 100 195 193 99 56 230 28 54 32 23 145 95 81 103 179 210 177 238 117 17 241 4 143 214 43 223 57 97 110 225 10 152 225 21 189 192 81 19 165 22 212 204 126 245 68 94 228 122 9 174 193 132 164 222 20 228 202 140 38 61 24 173 175 97 85 209 213 131 241 233 134 92 190 93 17 235 133 136 99 194 238 54 178 17 58 226 177 141 112 83 70 233 169 10 176 186 154 14 152 128 63 247 243 245 66 250 3 254 112 234 80 124 16 77 240 29 209 152 146 137 55 79 223 105 156 114 99 254 217 205 102 107 164 131 27 220 127 101 18 115 49 47 148 184 251 219 146 100 63 116 181 47 139 205 166 50 72 50 15 29 107 70 164 14 178 200 238 177 4 60 128 122 157 44 173 173 206 29 21 7 117 9 210 29 128 217 233 113 164 14 135 158 60 14 218 78 254 35 22 71 45 86 207 254 116 47 53 33 137 14 6 130 55 145 164 74 22 28 119 163 149 232 92 157 106 30 172 130 231 56 41 184 250 204 251 123 16 45 116 238 202 47 150 201 235 240 235 38 47 32 225 9 191 40 208 235 140 44 170 55 179 17 38 205 31 229 212 171 126 51 195 175 229 132 44 246 205 64 203 88 1 83 224 215 90 228 13 132 237 91 242 244 27 147 33 179 42 89 179 232 198 153 228 20 193 2 8 138 203 154 39 139 163 45 221 131 239 220 167 4 145 11 208 40 29 82 130 224 59 214 190 66 72 93 120 11 216 248 162 183 222 99 25 151 205 92 74 203 3 156 173 240 73 89 67 211 251 30 156 93 54 48 78 45 3 9 240 168 251 203 151 224 32 1 111 34 98 148 7 137 63 195 22 145 40 41 5 203 190 254 194 235 199 169 231 201 161 15 124 47 29 216 76 185 169 107 132 247 7 110 182 255 219 190 76 65 5 11 55 10 197 73 109 219 88 144 65 202 204 135 127 93 220 156 130 170 120 122 97 11 221 236 67 100 75 105 204 13 195 254 66 2 255 198 183 161 112 35 30 172 149 142 140 223 141 218 238 37 141 250 19 159 184 189 138 179 222 220 118 178 224 245 185 9 42 225 82 52 126 66 130 183 3 209 132 192 138 106 255 12 254 128 59 131 139 179 232 144 155 70 159 130 231 174 174 219 98 151 203 82 77 164 156 243 152 97 147 188 191 151 238 249 111 112 244 62 102 248 152 122 35 67 224 138 66 90 102 120 6 178 209 78 108 216 135 210 30 212 16 22 108 93 85 211 192 129 24 73 246 227 245 208 190 45 42 7 41 121 118 223 205 97 159 58 94 150 120 236 241 203 187 209 20 234 55 60 45 63 86 105 53 202 125 134 193 146 78 181 16 99 228 40 188 174 243 202 11 209 216 30 131 167 249 10 235 37 224 88 192 60 208 47 224 133 112 148 68 45 210 182 125 205 156 123 112 240 58 65 100 184 6 135 125 54 141 90 96 60 119 83 64 57 253 187 155 32 236 116 163 176 204 221 92 168 216 67 155 15 96 41 109 200 159 25 40 153 220 217 64 3 112 232 64 118 28 190 151 233 78 25 144 229 208 34 35 57 34 12 73 86 30 206 245 219 214 45 14 75 217 122 192 36 191 178 245 138 40 253 145 43 72 148 48 48 241 202 102 94 93 255 33 163 251 86 221 68 77 252 22 196 112 112 19 133 47 246 50 214 21 147 91 66 216 134 10 113 100 236 78 180 93 124 59 183 101 135 126 172 142 126 238 242 212 50 101 102 178 245 187 232 41 251 200 121 245 5 167 191 72 43 139 76 198 117 244 143 208 11 106 225 120 83 183 116 38 198 229 104 91 136 102 106 189 105 204 142 204 114 46 143 27 95 52 240 113 141 231 200 60 28 86 82 150 82 182 153 80 234 153 167 225 84 189 193 126 228 193 129 1 139 88 217 112 105 63 85 90 55 110 95 151 29 138 76 50 59 199 25 167 106 15 135 232 75 190 146 147 234 174 122 208 36 117 30 137 51 24 75 190 3 74 115 59 34 241 151 103 18 177 213 146 124 69 161 174 48 63 203 124 121 1 107 192 108 231 255 89 38 253 97 137 43 15 164 114 91 105 122 141 44 200 203 154 139 218 162 194 120 68 55 31 233 185 49 111 155 249 177 168 166 19 178 210 218 50 66 70 255 79 37 123 213 30 76 251 12 91 207 242 58 117 81 94 67 64 246 132 56 51 132 135 251 158 173 4 252 89 37 128 91 213 148 104 55 34 105 248 65 31 119 208 28 134 209 15 34 110 168 165 116 50 223 168 44 151 115 37 229 57 160 249 213 5 173 2 44 36 13 3 200 67 236 154 85 145 193 184 243 44 100 140 45 245 71 58 5 130 146 16 238 208 92 50 109 214 164 178 78 97 21 163 211 131 2 233 113 17 83 99 240 74 11 138 178 111 227 100 130 116 194 220 52 101 234 197 78 115 45 207 76 93 209 59 16 205 203 28 238 236 103 160 130 223 139 60 159 58 252 115 47 216 41 23 13 122 49 64 205 89 244 121 215 9 3 19 54 148 125 79 13 130 89 66 216 32 137 37 154 186 60 47 159 221 119 210 231 146 14 17 74 82 146 40 72 196 6 143 224 54 223 33 103 201 77 45 200 66 241 215 125 217 69 95 218 97 203 208 42 249 190 179 209 65 72 47 26 222 21 192 50 157 73 205 216 247 177 40 241 62 167 83 6 98 111 23 158 242 116 206 31 209 86 22 94 48 144 52 199 28 2 186 123 108 24 134 35 109 55 48 7 111 177 234 25 69 83 93 137 58 47 69 234 29 16 222 92 26 181 40 254 150 14 112 216 76 143 70 80 223 65 173 185 104 101 57 2 42 181 239 232 228 175 14 167 242 130 52 174 101 85 175 104 116 223 168 14 79 147 104 242 184 16 50 85 44 202 40 32 148 0 237 57 152 30 210 227 55 35 90 216 40 241 97 249 246 200 210 20 174 46 214 112 145 236 250 207 231 86 234 127 18 30 179 132 75 175 