P3
#HOLA
50 50
255
235 177 204 176 249 34 206 118 4 113 25 179 156 77 15 227 85 69 191 82 59 107 17 150 91 115 118 77 252 179 101 108 194 233 116 251 192 175 162 139 183 252 128 72 165 37 77 83 11 184 222 74 77 11 34 218 104 2 125 147 195 136 187 45 50 180 95 42 39 126 105 244 42 193 64 176 85 104 221 171 192 13 34 143 47 113 189 158 38 23 34 238 7 52 74 74 184 27 92 122 13 205 161 155 90 101 76 180 57 161 126 13 53 124 238 166 176 67 230 132 155 166 15 65 74 158 207 142 86 64 141 78 51 19 142 124 6 127 231 228 127 185 7 109 211 117 146 93 102 21 142 204 77 15 95 28 24 198 30 7 213 0 210 91 79 172 209 76 52 80 113 185 101 101 216 205 78 37 65 159 28 194 133 209 84 111 155 227 38 182 17 194 23 66 17 11 131 231 223 234 138 229 144 220 254 194 126 172 55 87 193 207 153 100 133 143 15 56 141 48 95 124 97 46 112 85 77 168 76 34 214 46 126 173 135 130 26 195 72 164 134 215 16 96 135 15 69 201 255 159 6 40 179 98 3 213 22 42 100 174 146 250 194 60 240 59 245 43 202 205 162 230 196 174 95 209 89 39 56 86 12 41 210 128 19 188 119 13 44 122 76 180 65 152 24 250 67 14 21 129 1 249 208 25 207 40 159 239 21 111 153 180 104 202 252 207 178 71 178 111 37 175 207 150 192 37 49 81 13 94 84 254 55 204 40 87 67 71 59 149 206 185 214 247 168 70 26 18 51 191 38 224 254 39 151 240 17 83 195 208 126 221 28 67 55 114 176 151 187 206 156 227 13 121 185 103 171 97 140 76 12 52 84 29 163 87 212 128 81 199 233 36 14 1 190 105 111 63 149 67 176 52 145 205 53 2 251 175 169 122 118 188 82 53 121 234 124 171 94 193 253 94 204 204 169 82 201 102 155 209 250 12 155 59 125 219 171 77 143 193 251 168 27 111 228 110 32 135 135 124 220 232 236 174 22 223 100 194 79 10 212 17 30 197 191 246 183 24 101 7 57 55 101 153 104 94 44 242 0 130 83 48 195 141 163 85 73 254 130 106 164 85 249 170 247 126 186 220 143 38 193 148 224 249 119 63 38 5 75 5 221 214 109 60 222 168 139 78 13 28 97 95 202 60 111 101 3 197 239 133 114 39 24 247 166 155 70 165 67 198 132 196 88 183 173 99 42 53 125 233 127 9 151 180 126 64 143 186 210 253 205 59 102 99 132 159 206 218 246 119 253 195 63 170 151 85 84 221 164 125 10 208 178 195 166 215 46 212 116 6 12 175 25 233 228 58 224 148 51 140 74 222 81 47 130 189 202 139 138 115 164 107 171 157 121 229 250 54 6 78 222 246 69 37 51 211 174 253 248 26 21 219 66 96 42 165 206 221 249 141 236 144 116 13 10 38 69 42 24 20 73 242 71 59 184 250 64 200 188 242 109 169 15 165 189 100 190 211 19 199 195 6 84 8 79 79 203 116 73 160 250 91 205 138 239 72 39 103 148 67 1 33 113 131 196 188 229 144 254 240 207 90 134 32 69 163 198 22 46 246 238 190 137 147 89 21 156 50 236 36 85 238 61 124 170 200 1 102 239 230 112 101 219 79 120 206 80 234 148 200 47 85 165 62 219 236 208 59 232 192 61 92 148 2 164 32 99 74 59 218 131 207 130 167 223 217 156 227 244 29 105 222 172 35 41 122 165 102 72 157 137 163 219 146 44 8 202 116 189 108 142 207 16 129 235 57 217 182 170 155 234 182 3 12 184 35 208 91 20 113 123 172 4 45 254 186 166 77 114 210 47 84 247 141 248 122 224 155 82 221 54 116 5 20 250 233 222 225 253 226 191 201 98 223 40 232 134 90 192 74 6 20 98 108 213 163 149 50 179 24 54 199 97 75 235 18 167 96 13 79 134 48 251 212 224 137 251 105 70 172 230 78 141 180 220 12 69 37 237 22 81 7 86 1 43 84 114 174 67 196 240 88 243 202 247 221 132 194 111 77 65 79 146 175 48 143 194 26 28 145 165 2 31 199 81 236 50 62 40 255 15 24 78 179 14 121 17 180 30 106 195 104 233 128 158 38 51 86 0 226 77 86 159 75 229 2 136 162 237 127 42 86 54 241 139 208 197 194 228 215 106 99 178 18 63 172 182 128 94 7 88 34 170 237 67 119 162 4 56 105 168 189 101 234 8 155 174 142 37 120 156 232 100 67 191 193 190 50 34 48 28 172 72 152 201 210 121 21 79 161 244 157 24 78 71 59 177 175 135 137 157 56 209 49 129 105 183 55 35 35 98 244 226 136 150 183 100 84 143 117 253 60 50 198 192 35 140 110 65 114 162 244 31 11 13 168 143 82 119 3 6 178 167 163 22 157 143 244 44 42 74 84 210 147 149 190 224 11 232 23 41 52 247 37 182 183 141 163 194 193 253 155 126 6 240 66 180 41 228 226 63 152 235 79 82 189 207 89 207 209 50 20 114 50 18 168 191 17 108 40 39 234 156 176 67 157 222 129 19 85 132 206 97 215 147 55 85 198 192 209 159 174 97 159 187 130 74 252 203 128 210 203 128 75 211 109 131 120 212 140 224 178 66 206 119 175 150 211 145 237 127 99 191 188 87 104 20 219 66 87 198 140 158 114 115 15 26 222 37 164 37 7 94 107 90 58 121 223 244 69 187 81 94 14 191 253 253 211 187 72 85 126 12 201 249 181 34 53 241 122 61 189 117 71 40 108 178 148 182 251 44 42 51 136 157 45 40 178 155 150 202 234 1 176 1 165 207 205 139 117 157 98 160 239 136 18 174 207 44 23 206 1 35 190 60 180 188 96 228 206 145 245 234 180 122 5 35 188 154 176 117 23 139 164 206 24 175 209 239 99 164 15 76 227 89 206 70 50 166 181 149 16 16 155 17 32 235 32 195 215 26 205 218 194 213 250 23 253 116 183 237 246 24 146 71 172 120 43 92 245 30 114 39 161 216 173 238 21 58 206 66 235 79 224 70 4 177 106 41 86 174 171 238 213 117 184 4 130 210 86 52 105 164 199 227 23 178 40 18 58 69 123 76 71 3 86 97 114 83 75 4 89 189 56 188 97 250 201 92 82 106 138 242 5 86 231 33 205 0 68 197 61 239 83 38 164 107 153 179 244 67 196 190 245 227 61 177 29 23 70 183 126 54 54 93 84 255 44 118 203 61 206 241 92 142 201 11 31 89 207 238 84 6 81 210 74 160 234 29 144 203 21 58 157 27 251 144 67 99 121 58 48 240 130 142 124 211 63 94 34 32 116 226 125 92 183 108 48 188 3 180 109 7 134 88 56 189 158 28 240 218 33 186 227 181 116 58 128 116 217 59 196 38 60 90 236 229 39 71 105 213 21 244 225 192 63 111 203 57 240 159 113 154 75 128 102 88 105 119 44 238 141 38 216 132 233 130 82 194 165 13 146 155 246 8 152 19 216 43 190 113 164 100 249 76 168 235 202 14 137 38 251 212 51 98 242 34 231 149 22 187 52 151 200 29 196 105 110 84 30 39 129 124 102 218 111 114 131 158 63 111 196 243 2 117 29 183 129 50 94 126 102 89 162 210 233 249 78 92 175 41 188 98 174 179 57 40 168 160 149 176 43 207 16 109 128 222 216 52 130 59 187 47 93 108 166 126 106 240 56 56 92 173 91 166 229 81 50 238 145 181 25 127 218 50 58 37 210 19 116 68 183 7 48 27 86 148 40 31 164 70 92 127 47 157 168 0 15 28 124 127 47 207 171 195 119 143 58 172 48 50 86 207 87 51 136 82 182 3 166 175 155 126 86 90 77 72 64 220 109 48 90 79 68 100 142 138 2 85 21 184 108 233 198 247 215 251 173 62 38 167 169 249 86 105 26 115 147 244 117 214 228 125 151 178 224 146 76 240 247 192 97 0 219 93 188 182 21 217 237 17 9 83 148 114 242 71 199 43 85 205 14 131 180 214 125 157 131 20 162 53 29 207 157 9 37 244 221 166 163 89 90 174 10 51 47 181 60 176 191 41 212 40 128 162 46 235 231 131 26 95 185 230 112 41 191 86 227 62 130 227 48 114 150 114 137 36 56 44 10 221 144 103 19 198 174 195 33 59 138 172 132 199 108 127 168 6 138 183 4 10 23 236 179 200 88 190 9 237 152 239 223 211 56 96 87 192 134 17 230 239 127 28 61 188 4 168 88 43 236 86 71 74 32 200 58 182 24 247 32 26 11 140 0 137 250 230 98 94 150 159 47 147 166 196 169 201 37 7 53 20 145 48 216 111 99 127 159 220 124 226 0 243 108 83 47 154 58 131 238 209 64 49 49 237 97 91 238 100 176 193 74 179 180 2 103 211 87 128 122 190 121 198 217 1 56 168 234 60 13 52 218 52 70 33 4 120 231 81 155 28 50 35 66 166 167 58 147 192 60 253 108 15 159 61 50 68 16 176 111 92 118 157 143 52 93 204 98 136 140 163 78 106 45 146 238 109 179 224 10 173 222 198 83 135 151 248 185 187 0 57 50 15 112 237 196 83 136 1 19 1 149 253 243 233 170 58 166 245 175 81 202 20 30 58 189 90 203 96 180 148 248 157 175 163 13 36 89 129 128 255 106 79 92 81 238 24 218 67 189 183 95 149 181 133 39 126 252 16 89 10 156 70 91 54 251 168 199 156 191 30 109 254 245 193 44 185 89 237 175 73 103 51 151 9 175 83 108 229 134 112 123 11 38 21 242 236 92 1 81 54 113 215 158 25 126 206 10 110 42 83 207 192 207 156 213 50 215 120 244 165 20 195 216 23 249 232 153 40 253 139 196 174 215 128 171 153 69 160 218 95 151 234 141 182 77 246 88 229 52 24 81 222 232 254 13 61 110 12 11 198 240 213 52 156 247 195 166 147 249 105 106 223 43 233 167 176 164 130 46 44 66 254 219 79 19 231 108 123 149 202 98 236 161 89 230 81 58 249 211 1 255 174 61 60 239 218 69 34 23 175 220 168 61 17 27 176 169 201 180 115 244 145 209 122 7 65 161 144 218 138 33 89 21 5 15 160 27 97 55 126 96 224 140 143 56 7 155 67 137 106 73 141 37 251 170 65 83 154 211 218 182 157 41 62 146 132 35 210 36 214 35 79 152 250 160 232 111 113 242 203 40 16 31 207 183 245 8 144 119 153 147 179 9 61 108 43 106 251 75 143 65 132 255 238 55 144 162 50 112 119 99 180 91 151 87 227 76 194 29 184 210 217 253 220 251 191 20 96 115 192 80 80 23 226 250 110 51 114 95 202 86 200 42 157 222 203 1 35 202 142 126 130 185 43 113 158 173 174 2 105 72 141 200 109 227 144 212 202 182 166 121 130 115 139 226 18 114 102 149 234 10 213 131 31 160 36 214 215 201 94 47 25 30 127 221 240 4 12 191 220 153 201 68 213 40 60 67 129 103 187 125 31 100 4 159 239 97 112 13 151 176 55 252 69 125 52 213 167 149 186 99 143 57 236 123 128 114 73 208 187 74 163 121 157 242 100 118 252 243 190 222 4 3 152 211 65 235 23 79 137 119 126 178 2 182 116 248 74 148 53 196 137 201 88 94 109 174 83 190 202 22 198 28 92 236 36 193 245 98 59 83 137 197 216 247 226 79 59 119 4 140 144 51 130 174 204 58 151 160 181 108 136 229 57 143 198 71 61 133 45 57 177 126 91 113 247 144 212 66 88 57 185 153 142 208 28 104 198 69 25 51 70 210 35 244 8 167 253 216 82 49 80 76 46 55 20 16 17 141 164 33 116 149 166 102 184 20 47 252 147 15 126 81 63 54 81 111 109 78 104 181 237 125 106 155 99 91 175 36 65 55 95 225 19 168 135 78 73 105 155 18 241 86 24 0 210 255 197 22 83 137 167 191 30 105 59 102 0 255 217 92 101 232 152 185 205 92 210 36 152 203 253 47 188 180 205 0 232 235 171 127 222 107 45 138 201 202 236 226 251 244 173 249 65 96 102 53 169 122 148 133 141 142 61 38 117 94 207 82 117 132 47 61 196 151 157 141 43 146 160 161 236 42 5 191 80 143 206 77 15 194 39 120 8 213 188 248 49 137 7 165 56 212 157 152 105 207 86 33 178 8 187 118 251 175 59 115 32 254 185 23 14 234 39 168 25 147 64 228 130 190 236 29 202 45 49 86 198 110 168 167 56 108 220 120 102 192 10 39 80 56 133 181 48 240 119 122 92 219 213 165 140 93 226 225 185 63 15 105 254 222 195 130 242 215 163 99 180 97 48 5 26 52 228 109 55 0 225 20 216 39 127 226 45 113 109 172 121 164 13 217 169 113 151 54 30 191 205 170 147 106 161 65 100 239 144 170 72 230 103 91 53 248 170 179 244 164 97 103 156 87 211 37 23 112 238 165 163 44 173 82 194 219 254 79 128 216 209 142 148 247 39 56 209 116 194 99 30 217 132 100 238 154 142 202 241 185 87 218 218 225 174 115 175 88 225 248 10 235 86 54 232 22 53 62 199 165 234 89 37 125 206 141 108 61 102 251 234 71 200 242 236 239 86 21 184 153 126 104 40 243 128 104 247 2 115 208 244 218 118 25 109 142 194 240 194 181 142 196 136 221 252 32 77 181 204 52 55 155 180 39 136 201 235 123 224 24 19 166 127 167 246 155 66 28 22 23 187 108 44 118 6 178 26 217 32 178 133 102 187 179 1 62 95 83 61 19 153 41 120 212 168 57 231 157 251 181 70 107 55 203 69 146 121 169 180 36 143 148 59 137 38 135 50 15 190 36 155 133 220 157 75 177 28 144 140 175 53 192 43 60 104 90 174 211 157 149 28 250 237 122 21 103 70 255 143 224 102 14 175 45 65 85 213 42 164 236 61 85 13 79 97 86 18 229 131 103 160 132 188 156 240 224 213 244 184 159 83 238 148 233 27 91 66 239 91 206 253 14 151 139 179 160 99 149 148 2 206 83 78 249 39 63 249 198 169 69 149 81 108 113 137 1 60 162 175 133 119 197 144 87 214 61 233 101 7 210 145 100 194 107 63 177 16 116 112 21 217 126 172 144 136 166 55 245 95 192 21 143 41 5 58 183 4 55 83 255 2 44 78 15 154 237 170 139 8 63 50 166 59 217 110 131 147 98 57 36 77 64 32 93 127 34 67 150 185 112 17 143 55 53 132 23 181 63 135 209 178 202 240 115 52 222 139 88 186 7 227 187 47 246 4 45 217 80 76 232 125 29 108 123 152 48 185 165 13 72 221 93 4 187 24 195 214 90 2 150 184 243 68 196 114 193 54 61 239 255 75 30 93 101 44 135 157 26 22 69 184 178 143 165 254 163 138 65 99 148 179 243 15 47 168 45 126 102 47 175 43 42 67 71 110 125 170 247 114 134 229 44 201 115 188 48 123 49 167 248 124 21 127 13 45 18 240 79 108 31 65 111 232 229 84 37 45 82 126 66 58 231 214 236 1 186 88 212 36 224 197 183 59 198 199 12 251 99 104 198 74 88 172 14 27 71 69 224 70 149 136 71 125 166 15 181 186 87 151 159 37 207 59 82 207 105 17 201 230 74 57 148 38 59 220 78 68 31 111 80 131 58 8 195 187 42 107 66 98 2 222 31 36 211 80 16 229 26 215 117 228 116 20 207 204 254 205 150 82 12 141 179 97 26 111 221 22 185 34 126 75 141 171 27 125 155 227 23 60 209 72 218 8 199 145 136 89 107 20 124 143 135 127 95 22 92 74 80 236 14 48 208 157 17 128 194 159 167 215 239 181 176 19 62 214 106 71 105 233 109 54 102 50 40 111 41 213 172 3 163 168 199 62 116 191 222 31 23 252 110 228 156 212 77 219 147 48 178 88 65 95 5 84 124 103 100 105 19 92 77 5 189 77 244 15 185 21 195 62 215 228 176 26 150 162 90 114 112 40 110 152 196 124 68 144 184 246 255 224 25 37 146 161 98 5 223 71 250 108 65 175 126 107 45 249 0 166 248 52 222 250 118 206 108 192 149 131 199 144 130 114 102 28 143 9 21 117 118 227 101 150 106 21 26 29 195 103 208 170 29 172 254 233 31 4 189 182 94 247 145 5 44 7 174 65 135 86 214 152 60 242 189 19 44 73 189 222 84 158 121 180 66 163 67 207 247 235 45 95 82 35 2 218 131 92 97 226 0 108 20 63 221 30 169 40 51 85 132 65 38 94 254 58 74 122 193 100 54 36 147 99 62 69 196 53 142 164 215 199 248 17 195 93 121 162 254 61 104 58 169 77 49 67 164 85 80 209 255 244 91 66 221 175 65 141 176 217 55 85 159 148 253 193 51 140 137 203 8 180 56 215 117 196 132 16 92 173 44 7 167 124 3 109 110 243 46 6 185 147 69 242 73 89 200 187 242 138 11 8 14 144 133 22 189 182 228 17 102 168 92 125 230 182 22 51 130 153 36 125 147 62 119 148 61 126 221 141 100 251 95 51 137 107 136 192 105 74 13 34 69 164 111 198 25 223 22 7 255 159 5 154 123 68 60 242 87 132 11 64 242 228 28 224 178 141 124 166 79 14 134 12 34 175 78 154 199 106 145 183 17 77 175 234 158 53 38 243 160 4 110 50 173 18 88 76 40 186 10 153 116 23 230 73 173 40 103 95 88 233 124 200 1 25 68 170 239 34 1 79 190 46 94 198 166 159 47 226 117 176 19 105 164 89 219 210 68 185 83 109 209 130 49 58 242 135 166 229 120 16 21 219 123 124 188 14 125 100 200 217 163 118 28 146 153 118 14 122 15 213 122 181 148 77 197 155 100 242 1 63 26 230 165 185 193 176 134 179 23 31 76 197 168 60 46 88 80 235 100 57 174 221 85 253 42 200 187 1 241 27 27 0 159 189 40 172 160 208 172 160 247 126 255 156 99 124 65 144 115 68 15 87 68 125 84 218 66 224 34 213 160 26 25 240 199 230 138 62 240 35 3 81 158 177 58 239 207 33 148 88 26 213 88 135 217 253 127 78 253 105 121 175 103 112 170 17 195 45 252 54 189 155 248 235 64 74 49 18 250 235 42 34 253 103 204 224 253 108 161 151 110 77 3 71 7 135 243 78 81 241 80 223 45 75 37 241 156 87 39 48 48 122 200 203 228 237 239 117 193 252 122 4 3 54 233 126 114 211 42 250 82 161 68 43 205 118 226 18 129 193 79 116 238 69 242 48 5 165 8 199 107 239 234 168 14 203 188 77 81 35 48 168 20 139 230 141 77 137 160 166 120 95 106 47 218 158 210 79 110 249 63 225 151 235 82 98 137 62 199 172 173 41 242 211 183 246 128 1 223 228 153 37 208 206 170 96 244 189 101 77 212 138 43 197 247 27 173 154 115 130 29 165 243 199 80 79 13 29 0 179 251 193 179 167 157 119 249 145 16 44 169 88 161 43 50 35 0 125 112 219 159 21 84 181 248 104 222 133 31 134 40 166 148 18 72 154 111 5 161 186 131 84 120 48 1 12 39 136 203 211 78 48 134 15 223 221 29 120 91 155 109 24 93 68 16 25 45 240 102 228 27 109 52 15 210 24 101 139 229 152 129 119 107 135 148 93 29 39 182 207 151 118 59 195 86 138 157 30 49 77 30 235 157 128 242 241 63 29 205 225 111 89 140 202 228 206 78 186 225 101 245 220 3 127 126 241 170 29 23 254 182 255 140 116 82 164 189 53 57 49 215 130 193 121 67 174 143 164 86 196 39 58 179 178 166 39 51 43 236 193 110 95 131 14 116 71 206 165 181 93 27 44 97 52 220 71 87 129 185 122 191 18 196 196 2 202 186 68 142 174 251 119 250 108 232 241 114 232 181 114 209 169 52 18 64 171 75 191 38 208 221 107 45 183 202 111 71 174 250 34 46 91 171 40 18 79 180 165 101 85 61 69 143 164 240 21 24 31 35 232 76 172 228 223 15 67 87 88 119 149 205 148 134 63 177 130 131 2 68 191 75 128 166 160 216 164 211 155 156 245 66 161 216 220 236 163 23 29 46 37 128 140 13 122 132 51 236 9 124 225 124 12 60 53 112 208 170 7 173 29 218 199 242 186 75 209 51 246 140 245 113 104 103 226 173 248 131 183 37 247 238 228 19 83 140 50 101 248 219 71 60 108 139 165 74 237 90 232 18 220 164 140 231 7 8 99 14 92 116 39 142 168 50 111 115 57 135 244 220 162 58 161 116 175 132 74 116 8 48 23 232 200 128 120 226 53 201 73 90 177 101 120 209 107 194 120 60 124 13 11 181 64 207 228 181 195 77 104 197 177 67 194 165 197 238 24 220 232 177 127 210 157 153 51 120 158 213 215 114 22 62 112 155 177 197 239 201 218 119 51 220 94 29 208 158 44 237 194 184 41 19 40 99 197 40 149 228 146 42 176 60 11 157 225 18 93 181 64 29 175 33 107 97 74 119 42 97 151 122 81 40 252 218 232 36 99 51 40 134 71 64 211 123 125 239 35 68 18 124 29 82 187 12 237 81 158 107 69 249 193 83 8 236 188 3 209 99 213 92 253 22 166 1 120 74 40 250 20 63 43 37 30 229 102 165 63 37 105 72 109 69 103 157 5 58 250 173 139 123 45 101 250 138 48 201 173 143 217 149 71 58 114 137 142 223 97 43 220 199 190 65 73 180 150 190 245 139 53 98 47 204 32 216 160 219 33 23 55 179 226 217 140 170 169 20 204 16 176 209 255 191 167 53 114 242 55 228 123 11 30 213 128 168 22 197 201 23 67 54 16 84 145 47 235 32 206 31 4 249 245 112 98 116 132 160 74 252 207 192 184 241 118 0 130 214 154 72 28 196 187 192 97 99 56 99 3 204 150 102 211 236 52 150 196 78 253 136 102 147 136 57 191 87 225 40 219 144 121 78 146 144 44 20 189 34 102 123 247 220 55 211 177 85 21 100 224 254 115 22 95 173 19 124 50 157 110 136 200 246 38 103 146 3 27 218 104 181 145 86 185 249 11 28 33 168 112 186 212 48 191 149 241 198 117 149 89 5 0 109 64 230 16 57 75 107 124 231 69 146 17 57 184 31 114 222 251 210 211 187 197 154 187 24 209 149 219 44 253 252 66 63 139 20 214 99 133 19 94 210 25 167 199 189 92 248 194 206 6 201 225 22 38 70 93 169 228 231 179 140 111 49 253 185 70 194 78 224 210 92 186 208 197 237 45 145 148 171 114 3 152 162 114 167 130 235 254 138 136 249 143 89 17 186 205 59 20 34 25 65 135 145 23 80 162 14 6 152 160 127 48 182 87 99 201 82 113 161 156 233 122 180 248 160 11 165 72 6 216 84 226 226 95 102 243 206 101 141 158 94 46 93 157 141 188 103 135 105 184 28 220 253 188 58 156 98 203 70 64 53 63 171 207 155 122 116 190 74 24 145 90 172 90 11 160 149 30 158 147 11 234 193 25 126 27 131 157 243 161 107 148 129 253 82 5 193 194 252 35 141 90 10 21 159 250 231 6 241 87 34 42 80 187 72 230 189 77 38 210 201 179 162 86 216 122 81 108 59 208 101 207 156 180 240 53 46 244 246 32 131 250 108 19 168 180 223 27 175 155 204 71 87 5 216 203 106 172 89 233 123 30 136 89 193 48 3 243 4 82 34 131 97 133 143 254 210 178 93 30 131 247 125 232 238 70 171 43 53 114 227 25 163 157 99 119 85 223 160 118 9 238 147 120 154 150 218 70 108 149 100 110 10 203 197 219 40 197 20 171 207 193 126 190 101 152 186 111 97 35 51 210 203 162 151 224 249 236 116 94 186 87 187 62 53 105 149 189 237 87 213 175 211 252 31 53 213 173 117 59 179 36 94 180 9 61 226 10 231 119 157 55 92 78 131 241 26 24 38 240 93 32 96 6 212 217 202 222 232 154 87 211 84 3 185 245 224 78 97 130 63 117 52 66 255 204 146 135 18 217 63 65 115 242 221 243 180 167 230 94 215 72 114 127 230 181 111 179 59 227 116 135 60 128 19 143 88 128 121 140 239 240 56 63 252 106 146 20 51 100 111 87 149 219 202 113 107 191 85 18 78 28 233 66 231 152 35 188 95 114 91 36 86 32 210 183 64 251 15 13 227 125 199 17 17 246 65 159 234 104 87 141 48 34 35 236 172 73 157 121 117 105 131 229 27 202 254 197 213 74 82 180 48 74 190 151 28 171 240 28 42 179 140 19 81 124 2 50 40 78 195 172 249 62 53 2 104 102 121 7 213 209 112 164 135 254 239 226 51 127 191 71 150 194 187 44 192 175 44 151 91 94 111 81 169 243 207 230 56 168 248 19 38 118 249 145 249 145 227 25 62 163 91 204 98 159 250 158 101 30 49 56 92 195 109 235 212 112 182 223 38 21 15 169 192 174 233 10 114 244 88 212 248 23 205 217 94 5 126 79 89 166 94 77 75 133 25 30 101 183 21 158 191 156 80 9 224 135 196 92 225 163 158 37 89 192 131 110 201 82 78 8 114 111 165 206 174 77 33 234 147 201 107 235 137 23 180 206 249 173 25 90 98 207 145 255 140 152 51 196 103 160 168 166 216 0 6 78 248 148 189 19 251 141 165 151 236 205 197 119 131 8 100 10 126 67 57 248 146 189 23 43 234 210 250 252 43 180 8 135 144 220 192 71 136 104 151 45 104 13 221 34 191 57 1 149 214 173 56 30 250 227 88 113 191 108 226 85 160 43 5 248 193 249 252 143 22 175 28 173 233 115 174 88 175 213 201 188 204 191 232 176 173 160 255 207 250 91 125 22 116 55 113 142 85 46 91 241 110 210 192 133 80 153 164 99 68 179 199 85 215 224 188 187 83 29 102 80 8 246 163 196 7 58 83 32 26 224 151 32 77 230 127 114 99 11 253 120 43 140 216 186 212 25 176 66 172 236 11 215 244 253 128 99 242 97 151 62 254 58 140 193 163 171 42 12 103 254 246 228 70 214 171 89 18 20 247 13 151 46 177 101 20 249 185 227 132 34 155 152 102 181 44 181 70 80 228 241 54 95 72 22 117 188 18 195 72 173 61 105 127 44 59 10 204 37 8 3 224 0 130 113 65 254 13 249 213 74 103 109 102 249 233 81 241 4 100 179 48 197 75 173 134 179 83 33 163 50 26 74 155 150 250 32 64 211 206 214 208 41 149 20 136 14 185 203 158 175 25 50 201 145 62 180 142 8 253 151 32 240 128 91 29 21 8 36 151 249 135 251 175 222 195 124 80 132 137 101 165 12 174 206 73 83 98 84 141 30 87 181 180 33 79 148 102 204 245 127 249 185 167 34 12 110 134 213 6 141 55 84 209 70 112 105 249 13 96 20 186 210 101 1 153 59 180 38 155 224 202 56 169 131 187 115 40 186 67 147 190 90 238 192 237 247 61 37 80 54 97 179 189 58 210 212 192 24 207 119 94 75 240 23 78 169 6 173 72 189 121 99 190 188 166 107 65 232 38 81 101 114 232 227 220 146 182 99 91 133 98 51 179 6 149 201 134 120 88 115 159 79 31 210 21 223 207 74 21 242 175 239 44 126 48 132 247 248 46 148 55 132 177 34 248 104 25 27 2 74 130 247 18 225 219 119 63 176 214 77 79 156 194 173 155 181 58 98 82 179 108 231 3 141 245 244 240 43 190 219 1 190 98 71 54 140 93 23 168 110 78 122 242 149 194 62 24 42 10 73 54 95 107 250 32 128 54 14 98 178 37 162 109 79 181 40 111 2 45 93 60 201 235 37 131 202 6 105 202 93 41 50 117 68 32 1 39 137 170 169 81 45 8 138 51 94 196 20 67 210 170 183 217 20 235 6 27 40 105 48 94 104 93 163 185 65 166 178 180 60 168 211 128 196 208 135 68 34 179 164 113 148 90 232 3 52 151 118 84 238 157 104 103 17 193 155 44 44 56 3 68 222 44 51 27 145 163 167 85 143 92 36 42 123 162 31 85 111 1 253 170 218 239 127 123 226 88 255 227 188 169 153 114 95 235 193 87 14 13 0 59 118 46 213 111 104 57 247 199 79 4 242 85 102 109 14 92 100 187 16 93 58 103 50 135 148 115 191 71 16 60 77 170 1 44 65 252 155 56 227 173 183 27 3 170 123 181 250 43 58 86 32 81 119 190 23 88 140 92 50 67 84 175 10 175 187 229 230 44 135 243 169 225 131 222 172 212 253 160 132 248 128 166 9 127 25 99 141 52 95 148 5 79 12 59 20 181 69 193 167 15 55 114 223 102 121 184 20 246 129 51 155 133 198 244 109 11 160 104 179 2 174 241 47 215 32 74 55 237 87 159 86 113 79 141 140 210 76 54 18 43 152 233 68 100 54 154 111 226 40 63 184 32 158 203 173 38 240 82 183 197 60 109 242 158 227 107 146 67 29 236 100 190 134 103 56 250 190 142 48 152 11 49 168 208 203 238 230 132 150 132 143 64 25 58 113 47 65 229 215 54 203 139 145 155 83 92 139 21 154 181 59 242 27 68 17 158 201 21 236 228 223 34 153 146 228 185 113 173 191 144 211 138 107 106 10 232 125 147 52 16 194 227 143 203 187 159 177 107 170 0 95 219 231 201 174 144 241 218 184 221 179 239 179 34 91 223 117 137 207 173 107 199 2 24 43 71 205 3 2 73 197 62 196 133 90 248 137 146 144 75 4 180 96 134 130 46 90 60 15 215 253 1 220 226 25 97 66 211 85 255 34 70 60 94 242 193 50 3 143 119 245 9 99 214 218 62 95 0 165 16 158 91 28 96 30 49 176 25 16 186 95 176 43 137 70 175 34 44 39 43 55 131 167 148 80 58 72 143 38 146 181 26 206 255 151 35 225 199 153 82 18 173 180 4 179 195 95 91 186 116 159 108 228 210 18 35 133 199 185 100 179 102 227 141 121 215 204 191 255 244 107 106 242 54 74 193 251 118 241 252 114 120 236 91 230 55 145 147 56 155 141 126 230 15 188 163 140 162 217 203 127 48 248 205 42 248 111 168 233 83 7 222 126 175 228 152 230 29 22 109 88 220 138 195 56 123 27 239 86 134 162 235 12 27 14 97 110 0 53 84 105 91 227 193 216 150 104 94 177 92 223 146 4 245 179 144 112 22 188 202 185 90 49 44 106 32 180 81 117 133 226 59 135 94 96 188 158 242 247 247 247 141 35 255 41 224 60 163 65 251 79 249 55 85 5 118 148 74 183 95 140 120 68 202 184 100 205 162 199 41 80 17 240 24 167 138 57 35 96 56 130 155 132 59 164 210 7 53 173 212 139 5 233 202 145 238 113 89 189 153 68 140 48 188 248 39 41 9 80 222 192 137 6 148 138 155 12 41 253 1 99 188 197 54 137 107 50 86 172 120 35 253 215 179 154 216 139 218 136 48 120 170 126 27 150 50 26 131 58 72 174 164 158 97 215 8 8 50 37 48 121 56 156 176 112 140 20 223 14 247 63 209 179 96 205 187 109 194 67 194 145 240 217 77 192 110 49 17 20 18 217 210 67 39 142 149 20 175 229 151 180 53 46 117 222 211 100 72 93 19 65 166 147 219 101 254 198 7 135 84 249 45 134 218 20 115 156 128 94 205 51 141 34 76 135 210 44 232 153 49 234 194 200 248 97 160 11 230 177 52 24 95 232 135 172 1 99 110 35 41 72 50 22 76 147 122 187 94 255 205 8 19 108 212 72 121 20 177 120 161 156 205 219 142 226 142 191 190 125 0 222 151 75 233 106 138 171 194 40 85 246 165 33 223 220 196 41 20 62 88 16 202 246 137 79 247 70 34 238 250 8 158 74 26 82 25 236 167 107 28 111 193 148 79 7 244 84 66 78 194 143 239 151 133 75 230 59 170 195 151 84 213 201 216 169 213 147 59 149 164 53 192 246 211 158 108 96 171 115 230 121 50 8 163 76 74 169 169 230 230 61 151 111 247 175 49 56 48 152 247 209 65 81 205 212 169 169 208 166 233 116 216 213 245 220 43 48 92 227 120 218 127 224 194 180 72 128 199 190 146 46 45 64 50 249 108 21 110 166 224 22 244 233 240 28 101 145 45 83 146 213 16 74 106 182 93 108 102 140 165 74 233 222 154 127 171 158 139 38 174 253 40 73 32 34 19 218 43 124 152 114 68 200 51 116 189 93 253 65 15 241 75 75 246 27 176 98 184 51 139 157 201 97 175 29 156 37 54 78 192 59 96 53 172 132 247 53 190 207 151 255 76 138 255 7 128 67 125 0 173 60 220 92 71 85 60 58 139 97 219 173 68 137 230 176 52 40 165 228 152 215 9 244 194 36 149 117 87 117 30 244 110 75 84 241 123 160 150 239 94 157 33 70 93 143 91 7 69 142 155 65 117 134 45 198 158 153 159 240 211 86 220 73 175 19 117 138 139 8 226 60 58 141 10 97 19 227 148 10 223 41 186 150 100 23 221 30 56 184 250 15 230 83 225 9 156 228 104 157 80 182 191 131 10 11 14 43 73 186 252 224 78 233 236 171 74 24 20 53 53 233 234 111 211 244 51 171 181 18 25 181 219 153 96 101 165 182 214 41 5 190 143 241 132 126 66 184 95 231 85 15 97 107 27 168 26 237 45 214 254 78 195 177 146 180 176 220 136 169 34 244 32 17 164 147 50 249 240 128 26 84 108 236 128 243 243 11 230 78 226 8 195 165 162 158 178 51 60 159 228 243 150 19 122 178 3 56 149 150 164 254 163 132 115 152 176 96 129 44 87 53 50 199 132 197 48 194 142 134 2 35 163 50 12 177 65 90 130 229 107 192 189 68 200 170 90 186 90 2 52 0 155 141 210 245 106 