P3
#HOLA
50 50
255
9 19 166 248 80 77 241 120 9 70 205 249 103 6 169 193 242 41 164 202 28 211 31 143 150 164 32 31 124 243 250 20 22 240 251 30 49 236 242 221 117 204 25 99 60 214 78 155 253 165 2 95 184 35 195 128 157 59 225 62 113 134 171 39 155 135 92 56 46 25 157 30 44 33 28 82 89 226 123 190 179 0 213 152 221 160 192 33 131 242 134 236 210 167 216 11 56 161 123 76 48 217 115 212 151 198 139 49 173 111 143 249 66 52 217 91 77 17 250 191 132 93 242 32 9 170 25 207 93 119 214 1 90 206 230 118 68 210 72 25 93 182 226 107 139 119 117 141 93 239 249 73 159 113 81 100 39 11 253 156 175 200 241 69 85 129 5 224 181 82 65 53 153 45 138 154 4 120 38 129 79 202 139 149 41 187 56 163 87 170 17 69 71 235 146 123 215 195 33 168 5 84 183 211 201 3 102 139 113 222 170 197 114 157 138 58 250 205 115 30 214 77 76 57 101 100 204 101 18 161 162 121 45 207 181 75 94 69 233 242 208 119 97 178 211 92 166 214 100 85 195 48 184 240 190 243 38 115 134 7 206 145 64 208 107 97 44 129 190 234 149 242 32 200 180 123 248 169 97 94 19 60 232 89 93 225 33 182 38 20 188 101 9 157 66 58 173 219 255 157 195 31 176 33 81 145 160 198 212 202 19 134 250 240 18 174 239 170 24 228 90 226 13 206 34 37 226 29 193 39 68 91 1 214 97 211 57 172 90 206 136 168 65 235 239 170 147 171 158 91 100 30 119 238 68 134 156 235 224 196 192 50 10 133 78 203 252 160 163 242 188 161 27 70 173 83 240 64 235 149 217 232 75 141 3 169 69 3 217 202 139 46 206 61 85 155 153 117 8 50 1 43 222 164 160 54 184 51 231 111 97 9 193 178 132 105 83 22 20 115 152 78 223 29 246 95 189 31 200 73 239 255 226 43 170 42 126 8 217 230 151 219 220 180 112 105 62 27 211 68 177 153 61 150 151 64 2 46 162 247 75 240 91 170 203 136 112 120 240 134 241 231 84 133 206 125 126 145 172 117 153 255 194 106 127 134 46 78 211 251 42 134 203 169 104 108 131 208 130 239 133 253 52 55 62 77 60 94 30 166 31 163 85 71 253 95 195 78 105 210 10 118 171 189 147 57 250 162 97 223 71 7 76 36 190 245 5 216 152 132 210 73 180 51 74 253 70 184 246 73 147 178 130 15 144 23 160 0 44 69 48 39 240 237 216 55 104 216 149 164 37 226 37 61 109 29 74 101 246 119 82 204 67 108 48 41 52 173 41 1 49 250 145 222 107 156 177 97 165 243 114 43 170 110 61 94 55 18 31 13 60 3 180 101 171 45 215 148 204 1 111 212 210 9 90 155 28 228 115 75 68 240 36 134 90 34 165 142 231 81 46 230 223 149 246 168 115 60 79 238 44 37 183 128 29 144 118 202 226 228 124 65 38 102 66 104 101 246 47 41 164 125 17 225 227 148 7 125 212 171 41 201 161 191 79 212 244 102 110 192 126 132 2 111 62 82 114 34 123 91 208 126 45 141 209 222 62 125 209 164 175 233 105 226 149 56 132 46 136 248 92 13 23 197 48 66 93 245 19 62 114 164 242 241 234 108 174 10 188 188 174 27 64 250 192 50 212 31 56 2 83 76 200 204 171 90 188 63 150 246 203 135 140 75 157 177 221 183 51 162 0 3 212 35 99 247 101 241 212 100 42 184 254 227 223 95 210 185 156 151 190 42 253 94 216 131 239 29 175 185 206 93 38 88 65 192 24 136 90 152 13 184 254 70 1 125 121 185 127 78 20 140 248 188 63 196 111 232 219 151 12 83 224 46 253 24 153 211 207 17 238 126 41 65 83 98 218 173 79 98 43 247 204 70 230 37 248 39 244 85 53 126 58 166 242 91 84 2 245 201 214 170 170 206 159 159 247 68 230 203 128 246 192 192 204 237 164 232 109 132 100 4 30 226 151 15 238 40 244 27 129 184 47 39 103 6 71 125 22 96 7 195 25 12 218 98 214 23 205 45 88 169 223 121 243 148 141 113 114 201 170 43 96 144 164 253 90 158 159 60 153 109 151 33 35 134 183 255 13 154 197 238 116 176 90 229 29 185 100 22 187 211 248 197 70 224 137 113 240 163 182 73 165 189 194 112 221 142 135 200 118 142 205 18 213 31 164 10 216 174 105 50 1 37 121 93 134 16 83 98 58 101 225 89 58 212 69 219 240 187 127 44 217 62 94 66 136 0 92 177 105 22 71 64 43 138 17 81 143 53 57 75 20 21 41 120 55 68 97 11 240 141 68 169 28 84 213 166 127 63 46 13 38 225 46 182 60 84 109 245 230 148 157 225 60 209 242 249 172 189 76 196 149 80 125 223 177 227 26 52 206 240 232 238 195 227 169 91 64 252 121 98 90 43 244 106 209 75 136 154 77 40 36 152 185 216 109 245 55 249 69 93 10 34 29 199 38 247 15 74 58 69 158 54 39 179 183 34 44 159 144 108 77 5 29 23 54 123 81 91 229 216 230 26 181 250 180 25 3 244 187 218 75 97 74 220 221 190 196 195 107 114 168 143 10 211 78 168 88 201 212 60 30 240 93 58 254 235 166 91 90 249 192 187 69 95 243 218 254 110 146 216 101 85 162 117 237 87 90 86 8 136 210 97 8 20 224 223 199 157 247 230 31 217 147 85 186 101 201 229 97 118 188 217 162 163 11 127 53 112 133 12 50 255 8 44 232 244 5 66 225 144 225 232 149 128 155 165 58 47 217 180 138 249 24 131 28 209 69 9 183 215 160 149 184 121 93 191 17 128 246 80 79 79 189 111 250 100 29 232 80 23 32 65 128 136 62 21 241 148 205 138 122 79 178 137 17 201 5 172 167 13 55 125 53 97 173 128 40 108 200 59 111 122 170 131 139 119 111 68 126 128 58 165 119 245 105 76 64 186 188 160 11 12 159 200 96 85 104 128 198 4 222 135 94 127 237 243 123 211 243 174 132 18 195 174 130 29 36 250 140 147 89 155 86 117 175 102 129 98 198 94 184 198 164 188 119 176 7 161 209 68 211 187 193 73 64 39 64 18 41 70 80 52 133 49 120 50 192 145 105 75 58 19 120 129 162 218 110 76 200 180 58 91 170 222 66 202 11 235 237 42 148 196 209 46 21 244 32 115 109 88 161 130 165 196 111 92 238 9 207 234 213 133 160 48 127 236 153 27 106 161 34 120 227 126 204 29 56 76 65 220 188 229 202 77 126 197 133 201 199 118 79 192 190 189 241 179 64 0 203 63 63 58 72 2 171 245 124 114 34 74 238 3 209 35 212 44 57 114 253 52 120 120 96 143 41 240 63 242 207 155 213 95 76 37 230 39 67 181 57 242 182 105 164 4 41 122 214 186 15 163 152 82 94 27 165 16 164 82 124 25 173 153 110 147 130 53 217 205 50 50 243 49 135 73 69 37 235 205 171 191 255 40 219 137 117 47 54 172 102 245 85 198 96 69 60 64 71 198 160 155 78 44 12 38 49 22 210 92 253 129 40 103 56 97 13 175 254 213 129 144 166 117 147 177 188 131 38 243 12 141 3 175 41 170 226 121 209 28 189 104 168 255 205 106 157 196 169 232 95 195 0 59 41 77 216 51 211 201 47 209 139 136 25 223 125 137 226 100 63 204 37 146 43 245 39 233 241 193 69 197 41 157 19 22 116 145 49 92 193 139 73 250 73 134 109 123 158 210 185 148 232 101 206 132 3 163 137 4 172 89 32 243 65 164 111 20 222 19 49 118 215 27 76 118 87 216 188 203 199 156 116 252 229 36 87 54 180 130 251 29 20 58 92 57 182 175 224 180 67 209 251 17 16 139 58 224 29 69 240 85 187 240 34 179 123 9 39 120 97 240 246 67 21 201 213 241 224 47 69 196 88 246 88 250 25 216 78 191 162 161 39 213 181 46 184 69 85 9 102 202 189 194 176 117 225 175 2 40 2 189 224 13 232 83 11 132 16 138 87 113 73 230 130 188 236 68 163 217 82 146 182 241 68 98 144 170 205 212 17 94 169 229 98 21 40 26 154 31 197 55 179 183 60 199 167 239 165 98 15 245 34 111 69 10 157 132 0 235 104 104 70 73 197 36 123 148 43 118 36 184 18 171 152 129 17 83 10 99 99 33 42 32 24 9 83 129 246 8 172 145 137 105 31 203 148 110 16 151 168 70 162 9 109 223 68 21 144 91 174 176 171 75 196 251 170 68 102 41 119 93 15 188 56 195 152 198 59 206 80 144 44 85 55 154 91 51 136 238 246 251 4 91 185 1 80 237 71 162 223 111 78 137 250 100 2 85 51 48 52 118 174 146 181 219 36 109 40 127 218 137 77 178 67 59 2 108 218 17 243 242 205 220 219 74 176 252 204 228 158 171 13 39 80 213 79 136 140 80 214 120 122 77 185 127 14 229 169 91 191 81 27 139 123 69 236 221 95 220 162 206 101 8 135 118 142 88 220 199 39 224 225 155 42 151 152 187 251 122 75 69 58 136 35 136 239 142 92 20 39 237 21 203 180 170 249 5 54 49 29 12 112 6 101 23 31 1 234 218 166 208 245 39 254 178 247 192 48 39 46 242 27 90 212 38 186 7 105 192 57 20 42 69 167 181 125 51 65 253 194 172 19 203 239 81 30 70 231 254 12 177 5 156 101 11 141 28 229 10 147 99 130 25 39 81 197 33 62 214 71 237 161 27 190 217 83 174 69 178 62 193 89 16 154 99 149 78 238 44 62 243 104 151 188 90 151 125 180 154 229 170 15 57 7 221 206 238 78 36 243 33 13 83 148 252 184 115 219 154 2 95 53 126 189 141 158 26 22 98 251 216 91 252 206 58 125 33 145 104 93 160 0 233 31 171 91 127 238 33 216 8 37 60 85 60 246 43 27 167 217 231 84 9 231 95 182 161 49 190 64 100 113 94 129 9 72 161 123 168 110 88 10 180 108 95 210 106 159 170 94 164 27 139 35 205 147 76 94 188 223 243 43 102 177 54 93 37 195 110 161 82 15 183 180 65 152 92 189 36 241 100 234 149 250 72 148 48 20 113 122 114 195 49 158 247 160 6 161 15 235 122 88 242 77 155 135 79 205 241 1 107 62 172 190 48 62 217 33 245 221 159 108 252 123 136 120 198 67 72 132 204 24 201 4 198 239 25 43 26 78 152 36 32 203 199 226 121 247 213 215 54 193 47 104 130 136 217 96 246 185 13 60 52 0 167 200 73 113 216 160 194 170 190 57 152 108 82 51 84 252 156 217 185 34 227 240 150 156 20 239 235 86 70 100 74 175 9 96 45 30 168 45 192 58 0 96 201 126 212 89 30 151 44 14 236 134 170 125 83 220 155 89 219 9 84 69 210 78 65 12 47 195 144 41 95 174 7 117 133 0 239 238 209 138 89 140 164 36 43 251 195 190 27 31 253 118 72 220 14 215 173 19 96 117 88 217 152 20 230 217 65 195 218 28 45 10 121 123 90 229 159 77 128 107 23 96 63 80 62 51 65 197 91 126 18 11 230 26 177 78 103 204 171 101 97 113 179 80 104 168 232 215 135 15 23 125 182 177 199 231 153 157 209 55 164 171 23 57 106 193 183 214 139 4 13 157 195 107 189 15 77 211 62 34 120 168 215 12 170 120 16 132 124 135 181 75 28 219 86 124 4 142 78 108 175 162 192 36 229 205 186 182 117 200 103 46 195 144 254 183 151 185 33 57 127 28 178 39 223 59 96 157 55 121 175 251 2 156 58 170 1 90 38 99 191 123 230 199 192 232 138 70 111 57 71 164 161 8 215 141 44 140 106 38 138 74 122 68 52 83 237 206 249 250 232 189 19 47 240 243 200 147 204 3 104 156 176 44 146 167 88 93 177 208 11 102 240 152 212 9 173 0 55 173 77 73 121 243 172 198 168 61 63 175 73 145 180 248 136 101 108 165 168 88 52 41 167 223 54 111 0 77 85 224 148 114 164 138 75 141 74 253 1 104 68 160 21 33 38 86 94 73 55 114 53 120 98 18 177 252 17 28 150 84 216 88 176 33 5 70 199 148 128 166 162 146 232 101 121 247 194 111 161 88 35 219 221 12 56 151 205 37 29 170 27 186 165 21 102 205 70 144 66 216 164 63 103 143 147 97 166 157 0 9 201 247 9 40 28 134 205 59 7 157 58 70 226 156 196 180 146 214 117 195 180 193 77 182 58 79 70 206 133 94 118 222 191 193 236 1 212 59 208 192 57 26 93 33 88 184 186 85 9 192 99 165 96 135 168 19 119 86 197 237 79 152 172 192 3 87 100 43 252 215 127 84 6 85 172 242 178 87 25 150 141 108 203 92 35 215 86 156 216 82 21 246 120 11 57 140 56 82 170 56 61 93 194 112 107 21 137 64 136 247 62 251 89 166 193 233 68 229 159 42 156 16 53 98 156 244 115 146 39 136 93 85 72 168 84 144 148 177 156 99 239 3 136 127 230 10 13 129 193 106 39 153 142 120 249 64 187 166 117 236 153 37 9 87 45 79 220 207 122 15 38 87 180 154 207 108 131 209 160 243 103 134 147 188 99 148 219 8 238 126 175 117 243 218 83 22 241 53 209 202 204 98 240 172 99 139 62 22 48 41 43 168 90 193 136 192 43 177 74 73 36 16 243 76 191 159 11 103 46 75 143 234 201 176 5 209 50 4 141 225 84 6 153 63 105 223 1 228 254 90 19 69 199 111 174 198 169 222 153 86 217 149 139 120 169 193 252 14 254 14 67 235 98 41 173 156 142 166 9 169 123 207 158 122 31 101 136 60 72 123 72 60 129 67 28 185 112 131 78 0 10 155 210 67 104 177 0 48 133 30 180 234 209 84 29 201 206 158 90 50 112 153 238 101 27 143 215 61 168 110 167 65 159 206 27 68 38 167 131 233 185 125 96 147 183 230 34 244 228 59 218 205 245 129 58 125 190 255 212 65 248 209 197 126 151 79 137 208 232 109 187 192 236 186 222 4 67 150 127 131 88 142 45 200 68 204 21 223 224 74 72 241 150 29 54 251 159 165 124 92 233 111 97 54 94 0 4 221 98 140 161 85 79 143 199 163 49 143 18 250 6 161 128 27 184 207 207 168 169 38 113 153 130 218 55 189 46 213 184 208 182 41 216 111 75 150 119 206 230 157 217 249 88 72 39 46 226 153 82 238 56 209 96 240 79 125 88 0 226 63 245 96 37 193 138 115 78 81 124 87 153 158 66 29 52 32 193 228 195 65 201 61 71 67 157 197 198 37 43 91 180 248 14 132 109 182 127 67 139 169 187 215 214 201 60 130 3 9 119 42 29 33 156 146 118 239 49 16 162 40 229 200 40 231 199 44 77 148 142 129 239 35 249 73 16 144 178 13 139 50 64 214 96 222 5 223 40 163 177 196 162 70 111 71 113 134 49 95 112 112 66 186 227 124 190 143 30 41 253 48 131 213 35 200 28 144 130 27 94 197 4 96 4 104 219 167 50 54 152 133 121 176 119 230 251 9 143 151 32 205 210 246 41 109 43 23 116 195 240 3 177 39 46 154 74 134 200 145 146 254 247 221 141 57 55 95 241 43 24 202 177 142 190 133 120 39 212 202 156 29 224 148 200 185 211 246 96 214 158 106 165 49 149 171 49 75 32 93 116 30 216 218 67 152 239 87 207 163 162 69 241 232 217 89 192 189 85 13 237 24 211 154 68 65 89 20 32 219 7 145 86 171 56 97 32 48 81 66 8 211 253 231 38 177 36 120 71 71 34 149 193 10 244 132 45 254 156 45 251 10 210 193 32 27 187 15 225 43 99 93 63 189 198 52 25 39 25 19 202 200 251 39 37 234 108 173 37 96 33 112 134 27 103 245 181 19 232 255 152 236 108 242 213 84 46 156 37 53 182 53 191 75 129 183 201 226 248 130 232 211 127 237 26 168 196 131 159 197 99 40 145 220 197 158 149 155 101 165 193 210 33 199 125 76 144 238 237 143 62 2 146 195 118 77 203 134 134 171 188 165 140 60 237 227 205 202 75 187 175 203 95 102 106 33 53 202 253 84 39 5 157 18 6 226 217 177 235 133 137 221 74 251 72 108 33 125 127 65 65 60 83 17 25 68 67 71 252 96 56 61 124 242 228 135 216 230 1 187 254 50 217 32 127 52 223 116 203 62 63 100 223 77 132 93 41 97 46 88 162 170 58 14 58 241 125 122 143 55 149 179 194 132 19 129 196 6 76 66 197 109 144 47 225 11 33 233 52 187 31 239 77 163 7 88 127 78 180 92 60 96 6 210 227 100 193 45 130 124 154 184 95 136 216 202 101 234 204 36 55 51 28 206 64 88 92 57 237 2 178 42 0 216 188 87 97 39 48 38 10 106 141 5 69 104 218 110 154 237 58 97 138 118 169 250 117 173 254 42 33 196 135 38 126 54 21 48 82 192 59 123 195 104 193 86 60 173 230 15 11 250 105 253 31 221 8 2 46 199 79 128 39 142 160 70 123 249 166 142 12 79 224 26 18 51 211 25 80 114 151 179 10 98 176 124 231 68 47 126 54 88 123 74 175 100 253 199 203 183 45 183 180 198 134 97 96 151 127 121 213 13 240 72 101 2 140 181 112 177 106 14 86 33 140 114 43 130 10 54 25 243 38 69 100 72 84 181 63 33 108 109 132 45 193 120 48 195 104 196 216 254 124 49 53 186 62 181 30 105 82 103 209 131 166 117 105 46 195 180 125 118 165 152 237 35 156 220 121 250 161 227 229 101 133 113 238 73 98 92 124 154 36 58 84 185 195 117 233 41 209 81 76 158 190 139 17 124 186 130 4 215 204 56 207 14 91 198 206 104 222 22 73 66 149 55 154 214 13 238 106 50 217 192 104 254 45 186 123 126 40 157 119 123 196 10 191 194 131 189 61 1 226 48 189 75 14 77 17 201 245 106 130 207 162 163 37 200 123 204 27 137 192 156 185 88 226 9 189 20 29 218 233 244 95 146 168 43 231 223 93 109 153 210 87 58 248 97 167 81 153 218 245 31 93 66 182 77 222 56 31 169 223 72 128 106 159 185 106 75 159 142 42 199 43 156 239 106 13 163 174 40 228 80 128 41 154 241 236 11 126 81 19 219 99 192 110 143 11 65 207 219 138 255 171 230 25 253 112 196 126 110 69 86 82 159 190 115 111 238 13 169 179 80 197 85 35 106 227 194 124 248 86 236 36 151 71 138 182 59 94 252 161 39 116 47 78 133 223 228 10 19 37 28 70 236 220 89 183 20 84 134 176 43 45 176 164 227 60 37 127 46 135 177 101 176 56 126 170 53 173 75 104 27 108 98 14 30 188 24 12 173 76 229 155 83 125 121 205 233 147 111 232 178 239 251 117 74 101 179 246 180 203 237 215 50 220 192 23 104 11 254 227 97 252 62 115 171 60 63 17 124 197 110 7 67 164 103 231 5 193 57 38 204 255 101 137 240 28 113 134 207 27 40 25 126 139 128 90 147 253 151 162 186 2 63 106 31 142 138 136 234 223 194 72 190 53 198 211 56 85 77 227 3 103 74 75 61 63 1 47 103 138 187 190 153 84 111 244 169 32 126 229 213 171 23 169 4 127 109 75 162 121 173 250 16 53 87 16 16 37 135 96 164 38 88 51 124 153 94 48 202 140 197 218 59 76 222 230 150 44 139 171 24 143 121 183 136 26 40 119 247 153 14 211 63 225 182 25 253 174 191 172 62 72 1 20 252 60 39 134 76 133 241 19 133 158 8 88 100 54 235 145 34 190 192 119 61 84 96 29 213 199 60 177 14 66 234 120 205 232 145 111 246 158 165 39 46 89 157 46 208 158 172 98 178 98 104 110 204 115 189 237 112 188 239 44 136 82 97 167 233 94 44 178 246 146 5 155 116 185 3 43 7 25 75 95 226 194 59 180 212 57 27 2 70 2 236 114 136 177 237 61 128 174 92 238 151 109 244 67 77 216 52 3 134 224 136 179 118 189 3 54 53 48 102 76 141 129 44 40 111 136 93 215 128 140 45 136 180 220 3 115 214 201 144 205 234 18 12 218 9 184 144 28 63 189 78 131 228 236 101 201 65 103 42 50 101 120 73 142 57 240 5 120 130 45 146 50 233 30 71 78 128 127 83 13 193 229 117 53 249 14 34 9 48 233 98 125 54 14 110 191 225 78 11 54 1 227 165 200 173 153 30 13 93 61 19 48 117 213 53 68 209 222 186 233 27 37 101 22 12 161 68 28 29 79 236 20 176 135 0 244 90 192 174 182 135 6 89 55 231 33 157 86 255 162 87 197 106 78 112 135 190 173 4 198 223 200 89 84 145 34 195 125 254 6 213 127 199 90 245 122 172 90 167 10 38 140 232 229 135 153 158 149 149 167 161 104 186 150 111 50 158 2 113 96 226 203 20 20 48 77 228 41 113 246 180 71 22 106 104 105 33 23 187 142 6 84 137 135 246 12 45 143 157 63 146 115 69 222 123 195 205 211 28 124 199 41 46 30 0 254 199 83 66 91 154 66 203 124 101 100 177 204 252 157 28 137 44 8 172 185 205 209 25 59 146 5 136 154 146 98 111 93 132 12 184 202 225 205 83 193 28 230 235 62 131 15 241 47 114 160 6 241 104 46 53 100 22 6 128 204 127 155 213 57 72 144 246 122 106 5 11 191 213 162 27 101 208 106 35 114 80 8 135 84 233 65 13 133 147 163 224 91 201 139 211 165 80 163 105 124 136 143 26 125 63 184 254 39 79 84 135 227 176 126 105 11 248 146 154 53 253 210 33 154 191 32 232 180 79 19 166 106 26 144 4 19 243 203 226 174 248 35 55 167 172 167 172 107 36 207 173 126 57 189 169 203 194 204 229 23 85 127 156 176 93 130 56 127 236 131 105 175 54 139 40 243 182 79 17 217 188 137 42 24 176 98 6 240 213 147 181 42 116 144 22 50 187 28 24 32 232 148 209 22 54 162 78 212 143 237 114 186 24 173 151 124 238 25 9 9 230 250 129 7 212 123 132 144 71 122 0 14 237 67 160 235 196 112 92 184 69 138 174 168 234 146 168 161 107 205 199 212 201 65 72 22 88 245 4 108 215 16 39 89 101 138 171 179 88 218 67 56 79 80 121 85 45 93 168 136 170 117 210 131 173 87 74 241 87 90 168 220 243 177 46 194 176 24 162 40 117 123 184 17 108 174 123 180 157 186 192 158 189 75 150 146 103 85 187 79 125 27 171 193 207 42 69 177 83 158 254 231 22 102 88 107 219 114 235 44 149 128 246 210 134 1 165 68 171 135 64 193 231 250 180 208 118 238 249 121 18 174 53 132 203 233 32 122 49 239 95 176 230 39 127 198 91 17 174 249 209 192 35 71 162 231 59 182 132 81 174 122 231 184 25 153 191 180 114 79 253 53 209 159 247 13 255 7 183 100 78 125 63 29 52 205 166 145 68 138 75 57 31 127 100 180 54 20 242 96 129 92 159 141 155 6 139 164 247 171 231 141 34 133 93 134 172 9 34 96 131 97 53 74 137 171 251 244 26 207 53 42 195 60 3 88 195 248 211 218 232 18 172 106 54 212 171 55 224 19 115 88 10 153 255 84 52 18 127 134 67 109 252 26 11 102 141 147 39 201 4 136 109 49 104 27 174 99 203 163 43 87 234 222 18 150 235 143 41 197 121 126 104 228 194 16 155 74 31 153 167 246 89 22 196 251 124 90 169 23 138 97 16 4 232 169 227 102 206 219 136 6 100 49 155 229 70 244 48 68 237 5 194 45 6 38 67 39 13 30 99 168 198 215 56 84 16 18 9 210 167 120 188 229 184 255 108 28 166 206 99 40 213 67 167 196 20 69 116 83 138 80 30 59 123 5 154 60 161 201 228 106 241 28 94 138 37 101 59 174 79 171 49 111 89 140 82 117 143 207 14 156 211 236 25 181 225 223 29 115 106 7 52 173 252 248 99 92 46 9 86 115 85 78 135 187 245 186 38 228 104 229 213 179 217 110 227 9 252 80 92 97 97 114 174 142 129 175 228 70 51 67 112 143 243 196 8 113 127 235 87 207 73 237 225 95 202 185 173 125 45 170 246 176 107 230 173 222 123 74 125 77 48 176 29 74 164 10 219 99 21 46 185 83 25 141 237 235 65 39 210 6 80 176 65 177 73 108 93 175 46 195 31 118 4 35 34 141 215 236 159 162 156 219 218 50 250 153 165 192 196 124 86 190 155 219 48 138 111 209 106 172 170 96 154 172 244 247 6 250 70 188 154 6 241 112 166 172 218 179 37 117 124 91 108 224 150 63 81 252 69 147 156 240 169 183 203 153 117 170 222 245 124 35 246 135 177 143 85 65 237 0 84 66 239 50 135 197 30 39 153 24 156 102 26 41 162 253 84 20 41 254 71 91 90 139 21 26 215 208 61 237 89 224 165 255 67 39 159 6 105 80 130 16 48 174 93 187 93 77 232 39 170 85 137 172 190 6 156 130 167 52 26 177 147 190 230 170 29 177 116 138 196 171 219 49 34 53 77 0 9 234 6 63 9 106 158 35 103 142 252 15 214 86 203 42 74 104 89 64 166 45 57 131 122 60 196 191 149 235 105 183 70 71 95 2 156 16 59 36 74 14 54 44 55 148 158 68 17 177 153 70 116 233 102 204 137 193 232 59 73 223 9 217 239 225 247 247 75 125 215 9 233 238 71 113 239 7 47 61 163 197 12 55 8 206 39 134 214 1 254 219 165 75 117 248 133 152 230 202 117 154 252 45 86 145 254 219 255 145 219 85 99 17 16 199 117 103 41 180 240 142 147 18 95 132 194 70 249 251 99 158 175 163 152 148 224 134 221 216 41 166 212 168 149 37 234 240 218 25 243 83 82 252 197 45 138 215 26 236 130 135 54 7 36 15 191 234 179 158 83 182 156 243 109 17 181 97 43 112 110 252 164 106 88 74 100 5 76 126 8 195 7 193 90 167 250 175 118 173 191 160 234 59 86 234 66 143 79 113 31 187 241 212 190 241 113 192 7 230 185 174 194 24 82 208 150 238 65 140 202 230 85 75 183 68 47 123 16 100 89 14 118 78 122 196 26 100 40 221 121 153 50 133 91 123 135 165 49 113 197 214 84 48 3 204 162 36 126 212 126 58 209 241 218 124 17 85 172 123 154 25 215 193 182 3 18 30 37 85 151 123 159 49 16 168 78 5 236 170 253 212 82 191 46 47 34 49 51 180 190 250 63 206 103 148 145 48 97 120 27 136 106 66 78 227 223 70 178 183 88 231 100 233 165 85 93 55 217 39 181 174 132 61 53 60 23 173 38 38 242 127 36 32 38 8 43 116 132 84 188 108 216 125 85 153 209 174 251 193 15 214 91 138 112 49 253 18 8 114 122 5 77 248 116 138 239 175 124 108 96 166 51 52 237 71 148 76 84 191 22 216 230 197 181 31 123 92 30 160 144 2 205 203 225 121 142 6 232 60 49 155 52 46 214 27 245 186 116 71 202 136 14 155 195 177 153 107 238 119 12 254 253 138 50 214 241 246 82 99 142 63 217 207 157 21 57 156 87 40 80 236 142 57 159 170 66 154 251 136 194 100 55 33 142 198 163 168 204 170 111 3 6 255 198 146 174 195 126 216 162 96 168 34 125 83 97 112 89 35 187 109 127 164 236 122 241 199 210 239 103 94 221 123 60 180 130 33 181 241 177 34 173 155 159 47 217 120 206 49 87 223 121 184 229 44 219 208 0 62 80 94 74 154 120 197 110 42 196 52 52 183 159 171 220 191 125 95 44 70 154 79 144 160 120 214 11 177 152 20 82 171 78 130 32 51 209 13 165 12 207 98 116 138 28 141 136 236 37 85 139 62 43 107 14 30 215 45 43 141 131 218 30 242 37 36 102 71 60 41 148 31 184 98 50 166 111 219 168 197 215 109 219 165 30 6 41 228 177 143 189 46 42 11 184 161 24 240 250 165 45 206 31 136 192 67 169 224 166 253 230 20 72 98 170 196 92 85 174 104 56 144 17 18 72 165 98 74 66 24 229 41 228 247 0 59 232 84 4 148 72 199 53 68 209 183 77 142 174 108 239 60 126 170 57 20 11 145 2 133 42 198 62 231 96 173 0 80 103 218 129 44 20 244 198 205 208 165 124 236 59 74 208 154 80 238 51 245 225 205 246 17 48 76 120 179 163 22 180 202 235 123 248 182 78 254 85 250 91 152 27 2 213 98 216 189 64 179 85 77 65 76 157 66 210 209 4 64 214 49 160 208 105 75 90 209 42 228 240 156 217 47 142 130 107 80 176 247 66 127 17 16 68 171 135 15 29 244 22 32 126 161 221 35 245 206 138 225 182 194 248 34 83 205 168 78 9 125 199 197 3 98 61 243 78 111 166 194 89 36 255 81 242 8 197 64 138 228 194 157 207 185 48 238 63 108 237 202 183 149 77 58 170 48 118 219 168 211 104 185 52 249 40 243 137 185 200 141 177 27 79 97 7 57 9 217 186 34 144 58 160 97 156 153 158 130 63 107 81 194 117 227 122 185 13 6 109 65 96 120 154 107 135 108 50 174 16 178 43 208 8 37 240 28 53 246 129 101 137 182 212 239 150 164 166 84 140 75 223 134 83 118 47 164 121 30 124 239 133 85 71 169 52 49 173 244 43 146 141 7 219 189 97 136 174 22 240 62 236 197 106 180 250 244 132 100 130 83 96 97 184 166 154 114 233 53 157 252 233 139 161 65 37 51 241 185 238 200 94 160 172 205 72 235 111 178 164 33 78 199 29 127 21 183 227 214 139 173 109 158 235 162 131 96 70 203 186 53 197 70 187 52 149 98 89 218 194 238 201 219 70 240 166 159 112 128 215 26 54 114 223 46 84 247 24 201 130 19 135 200 171 199 62 164 250 196 185 109 168 40 170 251 183 158 142 131 200 194 121 237 83 202 6 202 202 163 30 14 212 43 155 81 236 74 239 206 67 92 46 107 109 211 147 48 139 171 59 18 161 132 238 3 55 67 215 27 88 194 247 179 24 210 74 26 209 158 90 173 15 6 222 201 215 128 104 96 48 195 5 133 68 73 106 48 36 7 16 187 247 2 209 223 183 21 162 183 213 4 180 138 215 247 47 207 207 172 8 11 193 184 198 173 123 229 110 140 124 72 184 55 240 108 174 146 28 211 83 238 3 155 143 206 148 180 243 75 200 246 135 137 89 71 131 36 85 17 184 29 123 122 142 182 200 240 30 165 46 191 208 193 164 130 164 198 140 163 72 77 161 72 139 210 43 15 23 126 133 45 186 62 50 125 66 182 107 65 180 69 252 130 236 93 69 148 52 248 36 238 230 98 210 187 7 126 83 166 48 152 212 90 2 214 124 53 250 57 125 254 194 64 136 177 55 184 162 91 230 62 95 45 183 5 132 148 13 185 172 63 220 203 251 165 58 100 98 131 174 115 92 106 166 224 163 6 185 244 245 165 132 123 181 141 233 31 241 241 70 140 82 17 245 24 183 203 246 8 107 140 30 31 162 72 157 28 68 137 63 88 77 214 162 196 215 248 157 8 11 125 137 234 22 238 48 231 23 77 172 17 64 85 253 103 45 9 187 58 113 147 129 248 32 102 230 116 142 59 47 123 23 24 122 140 134 148 132 221 224 20 77 74 65 255 40 45 123 191 160 135 249 172 245 219 136 42 126 85 60 182 132 170 129 252 64 130 147 135 140 224 126 143 53 13 21 210 57 243 138 116 248 225 32 65 235 208 80 196 3 206 84 205 31 78 141 101 97 120 136 57 108 95 186 157 37 145 214 209 10 20 6 207 102 248 130 8 170 51 196 138 182 91 53 243 32 59 109 3 100 212 202 33 34 147 84 6 49 230 68 2 223 155 124 251 28 186 187 40 46 47 215 254 127 79 14 244 165 104 225 74 98 53 149 18 229 223 240 117 173 40 40 241 201 61 233 248 122 160 86 16 232 210 51 212 229 103 121 237 165 213 13 80 60 233 249 146 106 194 18 85 139 42 28 253 243 201 180 5 209 149 240 252 120 235 156 32 215 142 84 71 139 14 112 132 192 46 212 144 58 161 178 217 105 139 223 249 12 129 174 203 169 238 231 255 136 110 182 8 57 97 191 171 101 215 168 238 163 99 255 239 179 24 103 59 235 115 253 201 39 242 65 223 18 216 81 162 243 135 191 173 160 94 183 114 31 158 218 146 218 225 102 200 148 46 7 172 110 148 15 249 255 101 113 254 60 185 176 133 43 128 129 246 221 214 177 123 55 73 136 37 243 56 110 194 150 91 189 131 138 69 220 72 73 29 35 213 242 93 98 241 149 222 251 21 93 200 87 96 122 3 165 105 76 238 130 174 140 7 124 18 212 62 254 176 41 200 250 209 176 73 183 118 214 20 22 44 106 255 83 218 201 37 153 99 123 155 177 224 53 0 34 115 212 175 75 254 148 143 252 90 157 170 255 226 50 140 196 197 49 238 158 209 122 2 150 148 89 76 134 249 115 80 51 76 139 191 86 93 150 201 27 162 229 221 66 197 0 207 63 199 60 179 136 104 234 232 213 60 53 41 3 217 241 79 208 195 56 143 117 161 221 60 151 106 232 8 229 174 174 185 170 224 32 121 157 153 135 6 117 51 168 109 30 74 58 198 70 184 78 239 126 111 147 224 39 60 221 72 100 11 91 10 229 66 38 176 57 167 176 160 119 168 218 170 103 238 43 183 45 127 61 25 132 93 0 224 130 166 56 124 86 130 145 113 9 213 211 48 202 49 250 60 107 28 221 233 