P3
#HOLA
50 50
255
72 60 122 46 242 89 195 14 68 104 11 110 110 239 49 225 100 114 134 104 55 96 201 66 123 197 252 225 126 107 46 100 158 134 186 86 127 162 210 149 209 64 99 194 156 233 95 252 8 78 81 29 239 39 159 175 23 224 47 52 158 116 128 122 156 184 255 127 78 252 218 108 70 242 171 153 192 118 222 74 241 26 210 34 61 34 29 130 19 67 124 210 229 76 170 61 48 73 23 27 27 43 184 151 98 137 234 249 157 133 0 86 60 185 184 33 149 21 20 1 52 190 5 121 245 206 37 66 159 83 248 207 97 40 238 100 216 43 31 2 230 198 66 184 143 108 223 181 50 77 231 141 213 239 57 46 21 102 38 222 27 146 96 129 207 8 195 65 121 211 148 161 191 243 32 55 230 52 208 51 64 51 11 225 82 105 117 6 66 190 42 136 252 156 43 67 21 144 25 50 92 109 150 61 153 122 179 61 15 65 128 83 79 106 130 121 96 37 147 197 162 23 61 202 17 168 214 165 80 95 44 245 81 42 205 56 52 218 96 213 48 122 240 198 137 22 115 111 190 233 213 240 244 136 251 64 122 165 106 120 91 6 146 254 175 175 36 137 30 80 16 170 95 28 213 217 106 222 26 199 129 163 31 104 105 26 200 133 168 77 75 78 108 253 54 40 60 42 190 244 126 10 200 154 207 163 106 218 131 122 154 43 252 237 47 141 185 254 103 8 216 58 172 192 96 234 41 91 164 22 71 166 76 28 130 69 140 27 203 129 74 236 206 245 140 88 209 178 8 48 198 55 218 208 229 14 111 150 88 224 222 25 130 17 148 100 134 5 253 225 221 229 44 43 3 31 210 85 153 220 55 59 223 16 150 253 104 11 8 0 220 89 211 102 111 188 19 153 115 134 122 199 75 142 64 145 181 190 167 130 167 223 45 9 114 67 8 56 47 77 65 245 245 38 52 108 158 155 64 152 164 139 112 160 37 201 154 72 87 33 238 69 44 162 194 133 192 153 180 65 194 113 163 117 8 165 235 17 252 50 241 81 105 74 18 239 211 84 99 175 211 155 169 118 42 242 114 172 154 121 29 254 198 225 127 35 179 247 104 197 108 38 199 55 12 210 241 101 248 32 179 241 98 17 81 112 84 213 47 84 206 39 9 213 102 165 235 70 27 192 154 173 146 19 32 100 14 195 72 6 63 78 230 65 99 224 0 111 184 234 174 186 40 134 24 253 77 116 177 151 243 172 57 238 23 106 196 225 238 13 35 5 63 147 44 203 163 252 101 125 60 118 40 220 74 33 41 205 24 209 32 171 244 132 99 6 250 173 214 242 206 165 21 15 218 249 155 251 230 246 100 219 162 95 160 191 109 229 240 63 116 194 153 10 61 241 74 208 80 187 182 31 161 44 219 55 52 82 40 116 179 208 197 131 140 177 22 205 92 34 172 84 35 98 153 221 74 175 187 160 76 197 127 50 252 238 233 82 15 135 159 253 130 25 251 232 147 55 51 146 196 196 203 209 220 53 121 228 33 171 129 244 59 225 124 24 171 244 26 154 145 62 225 245 35 32 9 196 199 203 199 146 105 27 202 136 6 162 209 208 18 144 75 90 147 101 145 110 111 253 105 80 86 62 241 166 78 42 197 97 160 67 164 184 149 153 24 118 110 142 85 25 20 143 228 182 185 34 235 118 127 87 213 246 160 220 183 169 163 233 52 200 8 151 119 149 110 18 213 45 57 241 237 70 114 167 85 78 122 159 221 106 159 160 234 125 78 94 31 156 255 217 147 150 224 116 46 232 84 47 60 30 101 97 141 62 128 226 154 243 19 141 241 34 212 155 104 160 222 101 253 121 239 10 166 80 28 187 142 105 77 195 76 195 239 194 118 110 112 66 14 199 65 164 67 110 57 97 211 100 40 69 48 89 230 92 82 255 49 159 103 217 27 117 129 104 64 47 97 47 93 125 80 90 207 164 202 241 148 31 2 239 232 180 225 20 159 199 176 85 232 225 247 199 230 241 164 171 226 79 3 113 65 54 148 146 109 227 0 131 67 237 134 187 250 189 192 178 175 254 104 191 181 196 151 55 70 185 74 91 125 135 123 219 208 254 234 174 150 146 123 155 21 117 33 79 33 140 201 243 191 37 218 81 42 115 5 108 4 217 140 123 99 226 116 62 10 244 69 32 45 85 31 231 190 211 178 236 56 132 220 155 213 64 194 173 12 231 251 220 82 15 162 22 61 136 138 241 61 136 231 86 46 226 204 140 148 113 5 123 223 21 64 1 39 247 117 34 156 168 181 127 133 114 20 250 62 213 47 189 198 129 184 29 12 101 57 127 131 194 76 4 59 116 243 57 9 9 21 171 144 201 66 7 67 242 198 47 154 129 182 226 24 113 131 139 100 56 163 228 240 102 181 108 192 85 15 242 201 101 229 184 142 101 2 85 178 9 131 225 30 122 69 73 20 146 84 247 86 133 83 100 230 22 62 233 118 79 139 10 66 181 173 125 181 34 121 26 58 163 52 151 199 248 79 218 13 34 101 222 163 67 85 73 82 218 169 121 162 38 171 1 210 250 107 125 236 140 19 113 39 46 24 245 201 41 100 57 165 225 133 78 217 245 190 69 254 241 195 113 36 12 192 241 125 36 146 154 84 109 36 160 121 47 38 82 168 39 116 202 63 57 198 247 25 19 21 145 222 202 113 166 23 144 107 218 119 173 13 84 40 23 240 104 101 153 11 76 38 133 160 198 88 200 253 230 120 107 94 221 191 12 183 220 42 220 44 144 38 109 42 171 32 78 132 140 84 12 135 70 34 235 108 194 125 133 63 217 201 132 199 145 30 75 99 6 68 19 114 238 70 130 233 26 195 56 165 132 11 118 26 76 156 78 161 232 248 213 18 0 253 71 72 224 12 111 218 232 216 72 2 226 69 36 233 254 62 192 187 106 243 82 170 235 241 184 42 246 78 61 64 161 79 168 130 249 46 8 54 222 166 183 47 245 153 7 55 186 135 43 78 75 135 0 144 20 60 222 62 245 65 67 40 72 123 4 82 103 95 17 245 242 183 37 167 104 106 15 255 162 222 188 65 198 192 57 115 174 63 41 147 129 14 58 143 168 231 8 176 167 37 254 25 151 188 166 153 186 132 133 50 207 195 94 101 86 31 61 206 56 79 65 97 17 124 146 187 94 61 141 71 181 117 4 157 90 25 44 138 179 74 59 168 69 169 32 179 105 131 208 118 162 195 33 81 3 152 7 6 70 107 230 35 224 130 253 53 141 11 89 130 175 75 30 41 199 199 139 67 44 146 171 190 62 228 247 134 98 204 190 113 195 44 206 248 31 43 211 23 198 187 69 200 207 14 228 228 182 57 178 22 20 196 43 87 11 0 142 239 87 70 190 34 102 106 211 244 221 7 141 38 59 25 7 169 92 157 11 239 255 209 18 15 228 111 66 143 5 129 62 48 67 63 120 77 228 241 160 195 138 102 116 13 92 144 207 53 71 236 48 12 185 133 136 11 109 66 221 167 65 62 20 208 9 229 84 48 95 197 148 132 117 137 198 145 253 5 71 47 74 4 121 114 53 62 230 123 202 36 181 128 6 169 87 112 120 232 159 80 49 218 245 125 82 180 218 89 87 12 156 246 182 170 152 27 233 119 210 53 150 182 7 233 226 165 172 250 232 112 250 106 245 132 59 139 224 123 244 54 37 57 117 235 87 99 214 54 102 94 65 71 132 247 6 175 101 50 165 139 191 255 182 35 182 225 58 116 221 255 109 132 182 222 218 24 7 226 69 50 148 52 165 152 190 108 41 81 42 190 28 235 120 170 190 95 111 238 117 59 242 17 158 191 90 74 159 52 162 71 166 98 187 92 52 242 7 159 215 250 98 183 187 179 21 128 34 210 184 80 223 139 108 163 89 230 162 246 149 119 174 19 254 78 151 53 93 220 97 156 141 133 97 25 92 186 67 9 151 195 11 23 48 14 238 250 143 169 136 56 178 15 185 246 64 210 8 80 94 130 167 112 69 182 123 91 208 78 55 71 1 250 140 128 143 205 237 47 34 151 9 42 46 253 119 240 162 217 189 56 81 154 21 29 52 111 218 223 127 155 141 249 45 77 241 38 204 71 10 153 252 67 75 20 63 191 134 92 174 205 28 88 72 14 134 36 219 100 90 81 34 238 59 187 138 213 60 29 51 171 133 245 41 78 160 159 91 0 28 152 186 228 227 152 7 133 0 155 177 169 20 105 0 243 8 128 99 214 21 233 6 243 91 223 32 164 251 127 60 178 120 22 187 147 174 43 105 139 236 204 89 1 121 45 87 144 54 82 217 41 192 144 96 102 66 182 166 3 22 156 199 109 1 192 239 73 159 241 183 92 4 43 222 154 152 153 32 86 45 187 166 30 245 166 209 75 4 218 43 236 222 106 55 112 4 133 30 116 154 105 73 65 143 111 25 72 21 53 164 65 6 208 130 77 230 132 231 59 149 18 248 31 18 190 193 214 119 161 135 13 45 201 99 22 56 198 240 100 20 62 174 65 40 136 233 197 107 209 8 52 218 250 9 178 73 64 67 194 24 63 57 232 195 233 82 191 40 133 109 32 231 143 107 97 29 198 202 97 201 119 109 7 70 165 221 156 15 229 83 173 35 198 33 33 226 88 238 64 225 147 252 15 179 210 0 115 234 19 209 39 54 97 29 247 158 246 20 2 111 210 152 19 80 124 72 162 37 199 169 121 137 22 100 78 28 104 20 243 77 24 43 184 119 26 187 6 181 175 173 243 56 177 110 31 6 101 106 119 185 242 35 136 138 24 160 129 160 58 178 172 65 44 114 29 202 22 154 243 1 198 180 34 112 42 57 210 77 100 45 136 64 138 129 11 208 167 25 85 205 217 169 227 223 47 62 28 55 1 149 119 216 111 137 179 131 172 194 65 189 224 23 8 64 59 119 93 17 9 52 145 20 159 41 114 144 113 30 128 4 171 42 222 138 244 63 7 98 169 41 111 245 168 73 146 176 221 191 68 125 27 93 209 24 20 181 207 239 66 47 6 32 93 246 139 162 232 71 118 158 171 129 250 63 77 219 122 247 184 100 69 6 162 120 43 77 207 215 117 170 69 119 80 133 200 144 241 40 2 1 227 94 14 198 28 164 210 70 61 101 176 134 188 246 127 57 138 157 177 24 24 253 145 113 230 176 200 52 142 152 97 83 32 119 174 171 171 83 156 103 162 142 65 161 75 94 105 3 27 225 235 35 174 167 132 72 172 126 234 3 136 207 69 206 249 38 188 242 124 252 245 47 158 218 61 137 163 194 68 171 244 136 69 110 223 100 197 27 93 65 86 240 189 106 117 23 165 68 189 162 133 110 214 114 215 60 133 19 8 217 187 227 255 87 8 151 53 227 169 10 210 14 146 164 176 46 20 227 173 212 124 31 130 78 137 43 145 83 136 237 82 83 19 254 191 249 183 156 149 130 137 122 150 68 118 80 232 207 148 64 125 139 236 101 167 206 26 198 173 88 22 37 42 231 244 185 194 216 176 40 63 216 232 142 127 169 155 189 122 225 68 227 139 179 235 236 217 53 219 51 251 204 239 77 221 63 49 113 239 117 144 94 255 100 101 117 207 228 117 108 105 7 74 163 48 124 124 98 88 164 195 48 105 109 154 156 86 201 76 202 69 41 96 125 150 61 121 89 233 242 43 44 78 20 165 131 202 28 190 145 69 175 28 232 129 235 80 223 121 92 71 102 64 236 6 171 57 129 10 139 252 81 87 171 110 1 10 47 41 84 116 254 182 59 72 254 234 87 254 100 144 228 217 92 134 59 194 223 215 230 142 151 129 178 184 230 229 243 76 233 221 105 173 160 225 157 138 58 178 231 16 152 192 124 242 149 228 211 51 9 146 88 245 0 188 139 202 233 255 239 102 255 140 13 12 137 19 17 140 137 160 237 39 163 108 182 218 83 238 212 231 134 73 75 67 196 145 68 15 84 69 164 238 155 108 172 252 39 189 39 13 215 148 103 51 212 128 127 40 160 45 235 130 231 245 132 11 233 10 94 238 149 246 77 63 171 120 126 25 126 39 246 77 79 2 76 206 45 117 155 69 164 44 26 6 192 225 55 118 122 115 231 128 175 108 90 51 57 151 152 29 253 32 117 83 237 237 44 250 159 131 165 190 11 189 173 21 90 36 110 68 227 22 73 201 105 101 15 123 200 139 84 25 243 42 124 53 103 163 196 36 202 100 137 103 72 197 222 187 254 239 83 244 122 146 202 55 89 103 56 207 216 68 215 165 121 119 63 114 163 54 210 240 54 37 133 85 244 103 53 31 15 44 96 15 98 170 126 99 243 85 64 31 160 4 88 251 188 67 83 87 140 179 165 127 14 72 167 90 142 219 217 82 66 201 72 22 199 150 179 195 10 127 235 144 61 193 98 192 5 224 217 18 252 178 118 12 67 56 200 123 115 83 251 146 94 164 158 212 20 14 234 171 19 150 242 242 177 217 81 201 6 41 72 51 38 187 213 172 100 52 122 25 198 185 148 139 66 148 155 162 59 247 21 51 151 150 108 244 225 92 176 183 164 232 216 158 249 91 144 18 237 251 148 20 109 167 189 52 118 107 183 222 203 16 207 225 74 221 77 103 128 154 25 164 88 231 247 253 187 151 133 233 199 43 124 164 35 31 47 221 230 10 167 9 235 140 4 208 20 57 209 81 111 99 62 93 251 188 254 39 215 237 27 251 135 69 109 177 77 104 61 58 131 81 184 40 129 172 69 103 138 206 15 31 24 13 224 225 254 89 245 112 141 4 118 247 228 112 138 15 139 177 221 186 157 69 227 178 180 118 208 124 208 66 181 21 77 18 22 165 61 133 148 63 187 206 117 218 85 74 137 134 157 48 195 80 47 157 133 142 106 41 193 146 148 16 135 114 126 209 150 202 89 123 211 191 122 145 52 90 153 81 251 25 130 238 81 229 53 207 191 20 126 105 140 51 182 214 9 248 5 14 162 56 165 195 85 230 140 130 235 211 67 255 176 102 133 178 199 112 203 45 100 195 65 8 202 101 127 226 100 162 209 146 86 210 112 27 109 205 202 159 229 110 191 227 230 71 139 63 228 149 17 135 241 220 35 151 45 97 61 60 60 171 169 130 136 146 10 170 192 215 10 190 246 191 242 51 89 136 192 111 132 126 153 0 129 109 42 11 204 76 166 11 146 199 235 31 132 23 254 250 222 101 196 77 118 252 73 206 195 186 101 163 105 86 127 220 144 244 39 13 193 176 218 34 45 212 46 53 171 206 143 112 244 153 117 218 204 190 201 87 185 189 163 44 104 251 222 77 142 161 70 32 46 50 123 223 117 240 242 214 220 182 183 154 229 140 91 220 234 242 91 62 117 220 249 88 249 8 107 160 172 173 197 220 159 114 227 202 140 229 168 98 159 160 22 98 76 213 83 242 69 43 58 106 228 18 91 243 88 57 10 176 201 234 158 104 224 185 74 30 63 158 35 39 173 139 11 56 212 84 90 220 194 55 21 153 33 123 121 36 235 36 213 40 227 32 100 208 110 142 241 3 118 13 124 13 24 238 238 107 205 138 22 111 147 18 185 58 85 134 21 38 55 154 98 197 220 8 126 11 43 33 28 43 236 9 236 63 26 242 57 220 232 5 137 158 8 203 156 69 208 120 175 88 189 57 212 145 24 44 216 224 5 8 110 189 144 92 255 241 232 68 23 24 128 51 41 148 14 209 48 160 234 44 211 52 36 218 131 200 97 122 238 252 245 32 2 132 106 83 208 232 38 210 185 182 107 201 119 54 48 97 214 0 15 6 234 81 40 4 185 193 103 99 208 64 165 230 168 239 130 237 110 166 172 20 68 102 135 5 223 148 30 11 116 5 118 172 153 33 89 237 80 103 216 163 255 136 201 250 62 217 221 221 249 198 207 3 37 155 18 65 34 47 100 85 141 194 129 64 84 237 65 69 201 212 106 118 3 253 175 170 11 243 242 104 132 97 74 181 165 221 18 178 18 77 55 191 39 143 164 89 185 25 32 179 96 181 143 135 160 219 93 28 250 52 53 150 236 210 106 70 12 31 152 77 145 38 179 169 52 56 96 240 182 81 143 88 43 18 62 160 26 18 173 68 83 163 37 193 118 41 93 22 23 208 189 95 34 101 34 24 137 164 15 205 10 137 250 228 131 236 107 78 119 108 28 124 66 72 89 124 81 55 84 100 107 72 56 253 149 250 40 164 104 104 58 47 3 13 180 227 222 72 31 205 180 191 128 240 132 2 255 38 227 207 55 13 84 177 178 117 190 53 50 43 219 125 98 175 130 29 212 136 254 21 43 217 87 62 179 240 246 78 195 113 92 255 117 157 67 229 115 79 75 231 120 123 230 33 232 61 207 145 128 117 51 95 23 34 0 22 60 234 24 47 18 43 133 214 54 93 155 93 52 162 161 208 155 163 3 234 99 240 208 111 244 208 84 237 1 230 110 125 203 104 179 246 130 181 172 223 130 27 4 0 0 202 65 20 170 5 56 202 191 175 14 193 126 108 133 91 32 174 244 145 196 199 69 80 179 13 149 60 151 195 203 18 29 109 205 14 187 214 65 186 97 97 84 185 93 17 59 10 175 89 252 255 58 158 36 64 117 50 209 182 228 31 35 86 90 153 218 153 95 128 9 102 238 17 252 40 133 254 78 249 4 56 26 67 26 204 141 26 78 142 235 23 219 121 160 252 213 64 23 106 147 173 69 206 126 8 69 59 26 222 192 112 178 194 255 139 52 53 112 154 135 146 218 56 122 160 91 8 158 214 37 26 25 182 81 1 182 81 155 61 238 49 170 82 245 155 18 169 227 48 184 87 36 163 234 149 40 134 119 145 224 148 240 110 99 171 83 235 129 75 183 46 204 42 124 254 110 135 39 204 158 252 66 170 173 36 229 205 203 195 251 130 236 77 255 48 207 13 8 122 29 149 245 162 123 188 39 100 134 124 230 230 224 116 81 89 145 233 51 98 143 177 71 245 164 158 90 89 206 204 89 226 205 123 248 51 84 99 196 71 214 237 251 185 53 152 9 31 139 93 135 216 95 155 23 148 159 249 23 43 41 97 168 232 46 180 79 156 246 137 190 48 153 148 114 175 119 63 195 3 98 249 105 121 236 79 17 23 105 175 190 236 114 125 127 141 102 1 39 22 110 70 187 151 35 134 49 211 16 149 121 126 175 95 164 11 43 41 238 90 11 26 173 153 86 39 84 233 232 19 23 35 174 44 79 136 79 130 31 153 21 239 32 35 20 105 20 117 36 192 250 197 243 115 78 223 224 3 251 198 118 132 206 4 95 170 137 227 130 88 68 197 206 40 39 205 161 237 168 136 232 53 225 66 12 187 63 102 10 193 154 136 134 148 95 100 78 231 120 61 206 2 84 77 155 239 84 231 69 202 191 65 28 1 44 171 69 70 161 57 81 111 161 32 145 10 87 174 11 250 232 77 24 219 149 28 0 75 74 116 152 208 211 95 236 195 139 67 58 232 97 218 246 55 180 180 236 68 150 14 146 107 54 172 107 213 33 187 97 27 248 199 242 79 38 251 40 29 145 47 149 190 177 78 206 155 163 104 18 249 100 9 30 156 71 193 241 1 222 75 246 125 171 132 177 20 99 136 65 234 112 226 204 57 107 176 225 110 78 108 83 92 18 88 41 28 72 107 225 137 127 186 168 207 172 149 82 63 195 115 110 46 45 72 64 70 226 156 5 13 143 224 181 203 76 220 161 219 239 65 24 70 255 92 57 71 178 67 128 112 66 15 152 130 95 209 184 60 64 17 39 29 107 7 63 173 27 156 131 9 35 67 107 174 223 229 86 87 89 176 123 23 255 50 231 239 26 227 163 241 79 126 104 58 168 68 215 11 59 211 218 55 220 153 67 61 189 5 140 9 141 37 204 243 161 218 57 178 207 242 104 121 146 93 59 106 171 70 182 170 213 202 226 81 49 242 39 80 106 133 2 46 196 8 162 76 54 17 84 181 216 211 106 61 241 18 186 63 87 197 198 204 187 120 240 3 248 62 158 109 138 183 146 7 204 34 96 217 244 247 77 134 232 140 238 196 134 58 164 143 186 49 12 75 226 35 113 66 237 101 8 181 187 65 139 222 78 28 144 68 53 51 169 237 13 207 88 142 194 69 191 51 97 159 196 57 195 204 136 122 203 144 92 68 69 3 35 93 9 8 244 104 132 77 23 6 215 214 137 234 78 182 214 247 166 49 11 253 223 207 149 213 43 20 46 122 204 240 237 63 175 202 42 172 220 241 44 1 158 130 235 190 153 81 73 45 129 69 91 211 130 93 160 156 248 145 151 148 22 186 157 168 5 160 142 40 50 170 113 112 16 82 229 242 15 112 239 72 179 84 46 7 219 111 128 198 211 244 168 28 83 156 220 124 19 234 14 228 213 72 131 6 62 53 234 235 154 96 86 89 145 73 169 22 6 26 169 190 233 12 51 131 29 240 197 206 143 200 42 75 0 81 0 13 118 150 60 102 131 183 230 75 32 87 98 235 125 248 247 209 81 254 90 242 79 142 63 140 150 118 20 196 196 126 90 185 68 51 7 213 3 65 11 218 181 127 3 240 240 146 63 152 116 113 49 122 2 164 19 20 34 26 241 42 86 99 162 68 82 174 98 28 122 23 245 85 134 49 154 90 106 198 213 90 212 206 160 226 79 183 209 67 173 171 140 29 31 28 228 221 195 64 163 208 209 68 61 121 109 110 169 69 106 81 194 10 193 55 188 137 141 140 25 156 175 149 157 174 164 180 219 121 4 202 104 255 225 201 1 195 191 158 159 29 118 71 242 36 148 177 67 143 108 136 129 55 219 230 166 218 224 75 67 211 79 205 127 175 232 95 133 36 206 156 167 236 125 226 137 47 189 35 254 232 22 25 92 90 97 38 2 33 38 157 14 80 159 130 96 89 199 195 36 184 33 208 200 172 66 46 190 210 158 191 24 62 165 183 47 195 101 8 123 60 169 145 161 149 230 49 189 250 149 162 103 91 242 3 28 117 215 224 126 165 2 140 29 26 88 231 77 168 204 228 103 92 167 70 211 189 189 7 123 146 144 18 141 113 158 99 180 184 68 209 38 135 214 242 162 185 9 148 235 86 89 14 252 51 236 226 113 80 111 205 60 152 14 173 127 222 101 149 126 130 96 56 193 235 152 212 112 253 170 89 66 81 157 109 60 139 152 70 240 95 205 83 223 17 197 59 199 181 239 172 159 199 55 145 15 180 71 227 16 132 66 246 84 39 151 113 206 33 121 94 9 181 84 254 115 218 38 7 15 163 5 116 79 240 112 75 244 42 154 75 112 158 49 71 95 192 208 110 138 30 56 181 244 11 131 192 53 104 0 170 175 250 230 142 34 253 20 3 179 44 83 218 21 211 25 135 195 138 160 237 201 228 238 87 67 239 55 185 85 84 227 143 127 94 148 239 175 208 96 85 147 38 79 184 137 41 190 122 97 110 150 73 243 156 179 234 7 114 68 159 95 203 66 50 204 247 185 29 153 153 156 199 180 99 70 108 10 82 152 202 42 17 79 75 223 229 178 78 227 196 153 14 42 228 23 32 57 41 218 74 41 195 192 67 83 145 115 119 133 34 43 53 137 109 197 54 54 142 84 107 245 92 196 148 242 4 178 228 140 96 143 150 232 28 73 77 147 83 176 2 197 186 44 149 112 49 144 209 155 84 152 106 5 29 28 41 171 111 95 55 193 140 192 76 161 194 249 250 203 9 60 71 200 176 84 42 167 97 206 152 39 89 142 119 163 48 137 254 53 204 122 22 240 208 65 43 39 12 244 152 243 102 238 152 227 96 100 54 38 119 100 232 136 251 130 170 21 70 165 69 202 37 24 208 195 101 7 118 96 73 173 203 112 163 119 147 184 42 142 125 114 4 249 88 73 249 56 98 179 50 152 8 211 202 126 177 139 221 155 224 75 209 164 131 103 89 211 112 54 134 86 107 61 140 210 184 156 69 29 140 46 226 30 136 229 96 150 3 128 49 214 73 70 152 181 233 93 232 50 65 171 160 210 207 12 194 250 95 242 177 120 65 142 2 214 96 241 112 30 10 226 11 32 158 193 191 129 83 163 157 254 106 43 21 126 95 159 119 17 57 219 109 178 29 181 120 112 11 52 139 162 142 56 103 69 139 143 95 131 61 249 69 22 37 209 103 11 225 210 36 78 55 116 40 13 37 230 164 112 214 223 121 151 250 197 135 13 46 134 35 192 252 29 51 138 212 183 188 69 159 18 238 221 43 206 182 100 54 59 169 177 148 51 103 125 100 10 209 5 0 66 87 92 120 95 163 128 217 68 99 28 178 36 138 0 167 29 238 237 176 205 6 208 115 30 119 144 122 136 107 248 94 202 34 23 127 169 248 56 25 133 72 210 223 89 115 38 64 128 109 143 237 119 48 116 81 221 104 196 20 150 105 158 93 227 169 203 138 90 169 146 91 229 21 143 72 199 84 174 205 35 23 195 107 113 161 81 56 210 221 197 39 209 202 155 217 144 138 145 103 26 148 183 5 175 195 159 54 31 97 55 19 101 157 100 169 79 36 99 240 46 1 31 182 230 61 173 14 151 11 15 29 2 132 99 216 122 106 112 116 102 59 19 112 190 188 88 247 201 66 148 88 198 161 33 101 143 8 73 204 137 5 180 141 245 232 3 6 112 53 114 152 196 161 182 60 43 215 255 84 65 87 50 31 150 29 122 27 59 4 175 61 51 76 66 140 132 8 183 36 150 4 253 121 208 200 81 99 69 49 70 126 97 25 200 209 146 176 126 34 22 27 76 242 42 254 9 195 54 174 136 111 236 98 96 92 148 219 37 26 130 4 198 0 115 182 99 75 30 86 57 102 62 93 47 143 118 194 86 116 77 207 145 122 153 29 116 108 136 250 170 154 52 188 200 244 20 108 49 206 218 46 215 31 103 165 237 32 234 39 158 1 152 128 20 33 230 150 56 86 140 26 126 220 237 130 16 251 170 139 132 156 46 207 46 180 111 35 144 104 139 211 210 165 147 51 77 218 160 40 235 50 131 173 92 102 126 234 189 39 249 36 197 242 18 112 190 11 202 101 67 225 221 5 76 73 243 254 206 211 71 220 181 156 227 33 5 147 75 52 11 219 149 239 32 60 177 227 223 192 217 27 113 241 74 194 14 179 116 206 157 37 139 156 123 243 136 164 13 19 177 77 238 117 211 38 242 39 117 22 129 62 170 161 168 67 128 43 200 36 62 216 154 42 187 225 243 165 30 239 53 206 146 122 254 139 187 73 207 224 161 126 244 109 154 116 46 154 102 18 147 191 111 131 227 200 83 34 189 254 13 217 55 123 3 198 50 250 146 202 25 20 229 156 171 56 113 74 50 243 147 0 234 193 5 75 98 83 158 243 145 184 149 19 250 241 6 143 34 4 243 53 111 89 60 27 245 5 142 213 164 171 237 14 37 201 16 135 8 197 244 140 187 231 224 102 99 47 91 111 242 238 55 121 72 254 237 242 222 209 148 24 125 16 14 249 162 203 79 193 149 165 61 120 217 117 170 162 146 89 33 255 68 7 172 193 11 110 205 193 107 157 95 208 12 226 227 20 57 40 37 107 34 164 80 50 21 50 14 162 77 245 128 12 231 246 196 46 150 183 182 184 12 32 16 34 84 22 236 12 119 1 3 171 233 84 131 19 244 49 216 235 161 59 66 249 187 132 126 159 0 240 193 207 4 207 88 215 22 109 229 45 64 128 255 187 152 193 135 175 160 110 48 181 227 153 89 233 248 57 154 229 250 44 225 211 137 166 96 195 240 114 78 191 207 39 185 132 175 7 213 23 85 222 224 102 196 41 54 220 167 170 41 149 164 25 21 71 103 133 92 235 231 2 3 126 159 204 37 243 185 202 142 160 71 162 138 147 105 47 224 248 157 133 63 68 44 49 63 2 231 237 120 17 111 212 157 45 132 254 166 165 228 1 0 78 180 209 250 52 194 247 160 79 254 147 14 22 34 203 217 130 130 64 125 69 35 4 179 93 244 4 112 121 59 148 15 252 138 241 240 121 55 211 69 47 60 100 47 243 7 240 228 169 109 224 254 74 45 155 181 70 128 221 53 57 72 45 162 98 247 16 181 236 96 137 222 27 230 125 29 118 189 232 189 253 192 118 221 2 193 84 162 15 104 86 11 128 113 249 150 71 248 68 22 151 202 199 97 187 138 164 116 185 93 54 160 156 55 8 28 242 199 10 28 126 6 230 232 118 73 77 68 109 157 53 121 79 70 1 25 26 181 240 254 172 143 133 28 82 5 183 236 208 170 24 137 117 95 28 9 16 34 48 147 154 223 198 103 80 191 184 106 107 40 42 155 148 211 240 147 119 140 227 225 19 104 239 149 192 157 224 180 15 178 133 204 62 182 74 85 219 107 74 35 154 211 137 238 62 83 178 96 182 9 127 168 160 190 141 44 160 95 251 249 154 218 208 10 215 195 167 152 166 212 230 235 22 78 4 3 2 220 193 141 111 95 8 176 28 189 110 184 224 152 221 240 24 33 234 231 224 102 117 72 228 125 26 4 3 120 219 72 177 160 195 54 228 222 244 133 161 42 143 148 106 245 31 103 94 230 236 1 16 247 108 176 94 38 196 118 198 4 204 197 170 236 3 83 50 75 25 30 150 147 31 236 233 106 47 89 220 226 174 141 120 61 132 78 98 244 57 185 17 180 153 39 73 136 180 73 225 29 108 26 173 112 13 96 197 35 178 154 247 45 246 41 177 72 152 5 203 6 121 149 53 54 113 17 24 244 157 193 4 82 203 99 90 38 127 130 42 198 188 158 115 151 175 104 184 252 208 235 197 170 42 97 212 59 68 21 42 72 220 89 191 158 182 151 42 160 133 109 169 20 183 90 204 74 228 86 163 222 232 62 97 197 147 241 26 158 226 144 253 28 21 97 91 185 65 55 121 54 81 138 135 128 65 231 19 8 43 194 255 185 95 92 139 191 160 137 192 181 213 231 124 251 71 1 247 46 134 48 125 20 245 186 247 34 8 55 155 207 204 184 127 231 133 29 92 106 192 162 108 54 4 156 144 255 5 253 227 121 21 1 54 97 207 156 107 153 182 133 187 229 203 2 185 174 154 15 139 213 159 165 107 119 14 51 114 102 22 153 118 242 93 247 235 70 24 170 227 250 116 166 79 78 150 246 169 94 5 27 155 155 41 37 213 174 122 162 90 209 194 54 87 37 139 144 57 10 203 21 216 186 144 159 167 160 79 102 48 126 184 127 167 180 178 53 154 227 89 56 22 194 40 228 151 73 181 94 148 55 95 233 122 53 139 131 253 141 77 108 173 251 193 59 238 114 103 130 236 151 72 230 156 73 40 81 55 141 69 96 220 221 77 17 90 144 14 120 53 24 56 206 103 57 10 101 93 17 186 79 199 81 38 161 114 149 200 114 193 48 186 27 244 201 240 134 0 225 1 181 77 54 115 85 13 119 46 203 173 109 145 193 177 9 112 15 92 255 94 165 147 49 230 109 160 89 113 187 168 56 195 173 81 67 231 58 76 158 249 23 178 20 92 103 41 24 224 195 82 64 26 53 8 198 112 217 198 210 49 91 187 156 218 67 143 253 163 78 6 249 50 137 203 210 136 169 80 42 10 58 161 214 41 42 228 58 2 160 156 16 112 16 225 20 96 185 253 178 206 125 168 60 229 122 168 173 208 193 200 201 212 97 206 138 81 225 229 254 234 25 47 193 102 154 140 7 63 8 1 121 189 156 117 7 50 98 217 48 95 5 47 97 230 163 23 189 223 227 244 35 149 152 20 62 58 147 215 54 23 251 141 14 112 94 56 187 241 45 95 175 181 146 161 154 45 105 172 121 158 138 228 177 186 239 25 83 219 233 149 213 23 189 111 208 195 53 34 22 120 8 28 196 15 172 152 14 145 41 105 183 151 29 194 25 146 10 210 70 254 3 237 65 50 38 32 108 9 4 61 143 3 10 252 236 37 156 255 166 207 149 198 52 72 23 192 152 67 133 85 35 94 220 251 58 181 115 14 167 87 59 40 109 46 146 0 51 163 136 94 200 227 5 177 212 105 166 222 137 58 164 170 159 132 36 183 231 123 51 70 116 80 68 59 70 127 184 23 110 49 121 117 112 78 5 28 196 212 34 164 254 144 204 88 152 8 201 225 237 10 12 25 14 113 98 131 246 54 191 222 147 172 253 87 23 73 35 66 219 91 78 103 91 235 95 180 120 144 80 67 73 150 93 101 16 196 183 250 116 19 0 196 237 214 155 76 89 184 163 122 21 233 14 114 134 200 27 155 85 246 12 191 218 15 150 243 72 101 37 165 1 241 157 159 235 152 88 153 208 111 117 109 60 192 50 66 211 215 66 83 76 184 152 247 155 108 127 58 137 68 43 38 59 38 68 153 43 45 71 4 136 240 102 18 4 185 53 130 95 230 250 104 61 111 122 231 9 237 202 168 10 113 210 23 215 143 248 173 33 111 76 37 54 191 8 47 205 128 105 188 63 74 64 114 156 103 18 74 127 84 12 7 134 203 9 83 191 245 30 177 87 197 129 155 12 242 69 107 107 94 100 240 90 127 74 55 109 16 160 114 241 163 246 93 209 159 202 137 117 179 242 224 110 174 66 251 136 195 103 79 35 162 42 168 200 205 95 216 115 161 166 84 98 24 91 0 163 163 141 230 173 6 211 113 181 219 223 106 207 226 154 231 19 244 42 64 100 250 215 197 240 86 234 123 160 144 82 176 116 141 184 79 203 36 26 189 54 