P3
#HOLA
50 50
255
137 181 167 27 2 65 195 221 148 67 134 182 227 205 68 64 106 46 241 35 237 185 157 151 100 100 165 207 72 143 254 92 165 26 90 113 38 232 103 255 48 199 86 219 218 160 92 90 98 145 190 52 76 56 132 12 223 153 119 134 26 221 105 240 43 168 30 209 31 225 208 67 188 229 243 128 154 116 153 1 168 44 26 116 43 108 64 140 66 191 188 149 150 195 167 208 128 213 8 111 10 180 123 62 41 160 254 82 59 42 160 154 14 80 83 73 167 32 248 64 180 177 168 28 157 239 217 175 170 175 29 119 79 201 11 234 6 176 104 204 11 92 149 166 223 24 197 5 223 38 248 151 165 73 237 187 26 92 134 173 116 48 65 12 19 252 174 122 192 62 108 99 83 32 251 236 104 216 192 105 21 150 13 108 110 141 252 78 23 141 130 240 105 87 223 64 13 162 58 89 244 166 225 181 145 17 2 98 235 180 211 1 69 30 226 129 158 88 103 209 216 163 41 146 149 95 26 139 57 228 161 192 169 224 162 86 205 59 46 152 224 58 134 130 92 45 176 70 237 128 22 157 231 219 104 205 98 213 99 62 208 220 175 109 48 234 242 183 63 91 145 167 246 129 233 237 245 250 122 27 163 223 9 86 252 73 57 148 142 100 107 113 88 28 227 86 151 227 181 34 151 176 66 62 134 162 6 60 95 109 250 247 183 185 215 175 51 215 24 80 87 9 200 1 3 215 93 247 49 39 59 164 141 229 121 9 108 176 184 10 221 133 209 38 40 55 236 23 54 114 169 189 186 246 107 17 88 152 151 170 139 98 129 203 232 93 46 89 129 166 67 172 74 237 199 112 85 154 101 148 57 13 96 51 209 138 156 82 248 237 130 186 203 66 209 78 150 90 145 11 23 144 215 117 224 251 176 197 217 225 161 114 253 24 200 78 82 132 126 21 167 27 225 26 112 209 48 94 5 204 11 183 209 96 105 48 31 7 84 78 109 128 153 209 188 198 223 46 86 4 125 231 172 101 240 141 13 18 47 89 116 129 184 104 78 6 15 94 199 82 52 148 152 87 155 84 68 35 79 143 80 170 155 172 237 25 141 253 202 232 134 150 202 140 207 174 22 31 59 246 180 155 188 44 18 200 22 180 186 187 165 232 232 213 205 179 93 75 118 237 14 108 191 223 119 5 153 239 30 100 228 164 132 25 95 97 11 232 148 220 150 133 229 168 8 181 219 128 49 114 166 16 39 180 38 16 234 245 167 201 6 209 176 49 43 101 223 201 160 171 75 177 165 204 226 56 186 6 76 1 201 85 79 189 193 170 135 3 13 94 202 51 35 50 165 6 230 46 37 121 233 173 4 89 238 183 63 138 173 47 92 72 83 130 18 160 168 54 213 139 141 181 79 59 140 109 2 228 181 203 41 216 120 160 52 214 97 204 18 21 245 49 28 43 142 235 180 198 93 221 240 32 2 241 28 81 104 186 244 85 133 28 41 126 167 126 70 66 118 177 2 27 195 106 80 132 245 66 116 25 190 232 171 116 248 29 80 15 152 31 157 216 77 61 148 204 180 79 39 123 106 104 85 52 252 140 85 57 180 66 33 185 20 25 80 188 58 47 124 175 27 184 104 156 254 195 21 120 11 59 97 11 155 120 99 59 175 243 101 11 233 64 220 115 146 25 0 40 130 190 199 125 171 135 220 115 14 56 181 177 5 194 104 139 243 38 143 215 96 215 121 45 188 237 183 22 101 163 46 253 224 161 144 77 207 2 113 6 255 75 143 212 175 75 8 251 183 48 153 11 56 98 148 34 48 119 196 207 102 200 206 171 73 95 214 145 76 205 153 247 214 211 4 74 101 67 97 90 172 92 154 103 83 3 95 224 188 81 237 45 196 115 3 213 92 239 181 69 34 184 48 191 43 72 247 129 31 139 1 84 127 208 56 209 186 224 236 191 155 195 139 67 73 163 188 202 157 87 80 161 25 167 199 94 147 99 96 32 196 39 170 101 235 15 196 64 214 221 186 149 94 138 96 120 190 160 128 88 3 234 160 151 251 123 80 207 200 151 136 222 170 126 173 41 85 195 210 187 248 92 39 206 230 220 242 137 74 149 45 53 16 32 123 21 74 13 162 106 73 202 163 64 104 72 67 20 136 188 177 98 212 110 85 125 246 158 114 216 120 71 172 150 167 1 148 69 218 130 77 46 209 107 123 126 244 154 194 136 124 208 131 92 90 214 206 111 201 199 224 65 183 52 143 169 163 55 165 25 127 138 196 38 237 126 33 6 216 159 100 177 142 5 12 9 147 125 153 166 245 213 70 238 172 21 41 158 34 188 217 210 232 158 64 51 133 23 96 43 249 230 246 193 80 106 80 156 78 145 13 241 140 52 123 44 48 214 145 231 88 66 94 246 173 20 155 242 87 106 31 53 151 110 56 217 69 148 205 44 126 69 192 148 60 254 205 22 188 147 107 209 94 29 58 136 83 220 206 12 103 203 193 210 135 161 185 117 40 97 101 163 122 252 69 171 14 132 9 85 52 127 20 160 255 0 214 228 83 82 11 67 6 43 200 173 193 208 93 108 100 114 69 82 13 135 89 111 27 80 138 45 216 34 64 237 102 80 147 172 85 157 133 122 222 1 114 186 31 228 8 168 246 205 24 209 134 164 83 42 218 95 99 216 23 158 56 186 180 73 115 112 64 104 187 175 192 252 135 203 177 158 231 247 245 2 96 172 205 158 216 160 52 14 83 164 145 163 24 33 106 152 113 2 123 225 191 34 252 120 90 252 155 147 252 207 135 208 12 145 97 124 72 157 116 221 219 255 126 98 55 210 169 24 40 241 124 56 35 177 165 183 29 106 64 91 51 216 232 104 92 13 229 157 219 157 100 251 68 234 98 75 210 125 133 211 189 240 59 80 142 227 116 199 234 117 51 195 55 118 92 156 132 148 24 43 160 213 55 172 66 230 179 247 40 207 14 202 253 53 222 81 49 68 183 31 37 214 78 35 50 169 210 156 25 243 28 14 181 239 188 146 208 13 235 179 238 43 51 112 19 48 55 254 144 10 59 20 27 227 21 154 131 8 19 103 121 9 46 118 1 10 151 84 161 105 80 124 103 244 243 174 168 70 127 124 229 66 70 36 45 136 61 56 118 124 138 72 155 125 201 52 128 232 129 112 123 118 219 73 152 31 147 211 247 17 63 228 197 248 132 207 86 101 105 198 90 161 150 196 55 218 56 86 78 129 249 7 231 125 174 170 0 149 187 20 116 123 90 194 6 226 253 37 208 121 202 32 169 198 19 6 174 71 105 123 159 5 226 81 101 30 213 80 105 136 110 239 236 38 45 25 223 133 72 176 82 196 43 98 209 241 124 40 91 65 124 201 235 194 104 109 130 239 158 10 158 69 195 0 167 198 246 198 213 221 97 250 90 213 228 140 232 218 191 202 194 81 139 224 140 54 22 77 2 97 84 191 193 24 1 194 155 111 182 89 237 64 112 75 255 214 166 193 237 121 11 148 41 84 151 134 155 255 215 212 173 250 65 237 3 216 119 227 94 11 85 125 209 208 1 104 56 24 99 192 241 123 25 208 153 56 132 124 188 9 175 216 41 105 93 160 16 187 61 5 8 235 43 117 1 136 73 26 73 37 124 243 48 196 201 153 173 208 115 203 170 58 255 179 117 246 131 143 106 75 219 60 172 106 155 160 69 235 241 224 125 166 226 147 85 190 12 6 252 202 103 145 137 192 209 242 171 201 142 110 71 53 94 89 161 31 42 213 16 146 204 53 139 6 175 114 245 138 119 220 132 29 187 159 107 2 80 170 237 223 9 251 78 207 88 22 52 186 85 136 50 42 164 82 153 137 84 245 254 194 207 224 44 7 76 157 68 93 207 225 50 187 77 87 76 59 159 115 211 52 139 181 225 240 253 190 77 176 110 31 221 16 197 162 151 104 233 67 28 165 4 140 140 174 173 36 77 178 103 2 246 255 187 32 174 180 117 247 91 116 163 1 12 68 111 199 129 187 2 212 148 206 213 166 9 18 120 191 7 188 201 80 248 246 38 227 57 87 47 250 166 167 101 60 77 211 158 149 169 221 89 98 110 45 46 95 254 39 248 102 212 84 211 80 156 75 84 164 163 235 133 194 63 30 117 160 92 102 248 104 191 243 221 164 255 201 171 104 8 192 110 196 141 244 128 213 200 160 190 142 205 234 43 22 25 232 124 118 46 63 15 31 231 175 103 219 61 202 185 47 138 92 136 178 104 154 245 150 236 232 13 183 77 254 117 187 195 100 42 44 230 243 108 105 197 6 105 215 213 5 36 22 135 220 245 198 103 50 60 126 239 132 11 187 163 97 218 74 6 229 134 235 59 152 110 177 210 238 150 67 197 201 127 149 117 135 249 29 251 222 11 80 201 33 159 148 231 135 202 104 104 228 98 135 74 187 176 99 8 243 116 242 141 40 70 29 157 1 21 154 148 79 2 83 211 5 151 209 76 97 173 43 253 213 1 24 93 161 154 59 97 209 113 249 76 226 102 36 15 44 253 116 18 179 38 9 104 199 248 42 38 104 35 193 96 106 252 50 69 245 115 47 54 93 159 184 79 158 75 109 217 115 244 241 239 79 39 4 155 141 36 174 200 242 58 217 143 89 13 190 143 238 129 184 219 35 203 236 70 105 209 151 253 108 69 210 84 37 152 217 130 69 218 60 70 168 36 120 193 77 127 134 254 215 122 114 21 40 137 117 174 197 146 95 0 139 56 170 41 131 253 94 19 1 140 68 84 10 115 63 124 121 67 184 251 191 184 27 93 188 171 29 136 251 132 139 156 90 110 88 189 37 180 4 222 188 190 62 207 48 152 205 112 249 196 29 138 198 240 3 240 229 165 142 212 156 161 178 125 224 120 206 76 247 153 130 56 185 214 56 197 176 210 244 131 144 173 177 12 253 182 202 169 170 190 26 18 144 157 113 222 246 237 24 21 231 184 127 19 62 8 193 72 129 160 38 201 208 218 42 241 16 50 53 84 19 46 160 139 149 78 14 25 117 129 205 133 208 214 194 6 36 216 57 123 230 170 216 23 109 74 136 148 229 17 204 169 180 243 241 81 27 238 170 87 90 217 51 48 150 234 13 113 159 239 128 194 226 144 187 58 177 248 216 194 198 117 47 200 162 235 220 253 40 51 107 205 110 51 115 206 56 66 137 54 131 245 163 103 220 19 117 187 37 140 236 115 90 171 77 199 22 199 85 92 91 78 237 37 176 200 180 59 211 108 100 146 254 78 241 120 145 71 96 54 120 125 181 61 66 58 24 67 10 184 235 137 52 97 183 248 142 159 234 210 159 170 24 114 219 144 137 29 78 200 54 214 116 161 14 69 87 171 142 128 196 89 122 226 134 124 184 136 69 90 121 39 19 95 105 17 220 157 198 157 152 16 230 206 234 145 35 187 179 116 190 175 7 240 134 125 158 71 167 51 248 210 188 204 251 157 223 180 42 22 46 39 58 72 175 183 241 32 34 181 225 161 42 3 114 197 130 179 206 224 223 81 224 232 40 254 43 27 212 199 226 29 22 22 134 77 106 205 224 137 27 207 156 111 193 81 219 95 150 28 231 172 92 17 114 213 208 224 89 161 206 100 120 195 55 185 223 20 65 4 31 137 22 250 121 66 216 10 97 23 71 248 241 34 230 74 209 224 37 150 181 196 187 47 213 76 212 227 202 222 129 177 194 167 209 159 153 42 98 23 39 107 135 147 95 216 115 44 170 4 230 40 208 180 14 217 252 215 29 151 29 20 109 91 159 156 52 30 232 239 243 235 138 72 49 123 115 92 90 212 168 147 11 198 70 93 134 113 127 223 153 34 137 136 224 167 201 216 204 184 34 170 178 153 117 9 52 45 201 17 139 165 166 184 95 53 112 77 162 10 193 158 107 209 188 177 10 240 113 54 160 11 157 219 195 255 250 177 157 228 180 205 84 242 82 202 139 148 114 239 206 115 71 20 138 193 177 28 214 52 79 4 154 26 41 251 42 233 40 33 236 237 217 211 208 79 196 247 184 61 212 238 203 50 142 79 217 50 84 252 111 188 148 152 209 33 54 226 49 16 69 25 76 200 254 239 215 7 223 2 196 29 242 23 216 204 245 182 24 202 233 69 171 46 91 140 232 125 252 227 118 50 10 99 35 120 56 177 146 136 117 199 236 135 114 189 38 250 176 205 165 130 84 78 144 241 47 86 237 224 229 222 242 165 196 166 80 38 83 56 99 142 137 233 233 241 23 231 229 52 240 117 35 194 178 164 219 179 172 177 152 252 169 38 209 115 181 95 215 16 68 223 113 34 151 237 86 196 132 91 1 255 24 230 149 180 209 145 162 63 185 251 227 78 150 219 26 54 77 5 235 141 119 233 202 60 178 41 175 111 47 190 103 90 154 232 168 61 86 143 114 10 182 243 51 65 91 222 71 94 187 222 130 215 137 165 23 113 51 89 176 130 111 68 48 174 84 175 3 83 237 78 243 117 201 15 225 121 69 100 224 192 175 205 244 184 176 65 192 126 184 69 85 49 181 153 237 95 20 205 153 101 62 50 231 87 132 183 127 186 8 81 172 225 83 13 55 157 130 232 134 13 72 180 2 119 138 253 38 143 164 2 11 68 4 254 213 4 200 237 203 242 131 196 74 10 122 23 109 90 180 7 60 92 183 103 140 45 1 80 152 207 132 137 226 221 252 242 218 137 57 234 38 243 226 187 17 68 52 1 87 252 50 98 16 3 46 14 10 64 12 53 57 142 188 121 151 130 105 32 88 213 148 106 76 227 105 98 182 224 47 40 188 240 101 230 218 48 75 76 52 224 188 202 140 251 51 19 173 33 239 182 116 15 164 147 244 71 183 82 129 222 88 213 194 1 218 55 153 109 241 168 204 221 247 101 151 247 75 89 35 228 11 156 36 17 104 72 59 150 129 126 147 234 69 142 240 7 39 168 174 84 199 174 4 82 179 49 214 30 52 231 147 210 91 167 254 87 69 108 248 207 21 118 187 176 115 114 249 22 161 156 215 74 180 190 78 55 20 190 99 223 7 72 36 123 36 156 211 243 142 160 249 176 48 238 30 114 147 131 184 220 140 95 30 90 21 250 87 34 18 213 201 231 88 230 80 252 53 223 48 232 11 111 175 217 126 99 7 21 123 37 34 196 148 59 173 176 87 86 191 238 89 125 111 131 105 171 185 230 42 167 15 191 60 254 144 54 88 168 228 163 112 185 235 126 82 98 25 175 198 200 62 53 94 197 182 185 104 5 13 211 99 234 97 73 235 166 186 129 223 97 31 157 139 212 178 135 178 188 252 152 242 43 110 237 183 154 246 77 211 30 128 181 246 36 105 189 208 156 163 81 57 188 129 243 81 84 38 236 36 64 218 18 32 44 50 202 17 19 44 122 242 58 224 133 207 101 69 165 173 3 68 110 126 41 53 13 70 201 186 111 8 220 183 178 122 83 110 58 251 201 109 159 125 40 28 230 196 251 179 145 251 193 34 150 46 109 246 46 4 82 190 227 122 193 240 224 161 120 110 35 57 74 91 110 83 224 109 217 4 178 170 240 178 103 33 29 218 209 15 8 227 69 36 186 102 164 190 177 19 120 65 242 34 87 229 140 70 65 53 120 179 183 108 129 187 46 193 74 5 98 68 209 140 117 159 250 24 121 132 15 150 238 156 142 244 55 221 160 117 108 144 238 245 46 46 153 249 189 5 82 49 235 193 210 119 158 48 105 25 151 119 188 32 48 254 40 161 246 122 112 12 96 17 232 38 157 22 68 88 104 213 88 40 130 204 12 214 243 136 20 90 184 205 47 53 38 172 82 236 165 151 67 141 77 171 66 202 106 47 19 23 16 91 187 17 119 225 139 38 22 188 111 44 39 55 155 157 36 242 37 100 213 216 121 30 200 184 166 231 25 176 91 38 30 33 45 53 78 150 167 174 60 133 214 51 191 178 26 21 162 193 83 245 136 165 123 46 157 71 142 102 6 29 177 75 216 36 205 2 172 194 233 19 120 114 120 153 66 166 77 164 125 253 193 89 218 151 105 230 131 128 71 229 27 4 46 192 72 40 94 47 163 100 119 86 211 165 203 168 6 75 149 18 79 57 136 214 179 193 139 5 90 15 187 243 20 94 103 12 149 70 206 152 15 224 217 99 94 195 108 248 29 179 18 6 34 93 5 116 206 183 164 87 69 251 151 105 88 250 189 108 145 150 25 111 200 87 142 135 177 250 212 111 155 199 17 253 250 16 172 146 202 99 193 81 119 246 215 135 54 198 205 125 174 158 166 251 190 236 40 44 244 215 158 160 128 19 157 117 119 40 107 88 49 185 234 198 159 153 197 199 64 83 79 33 96 68 120 253 217 144 231 248 148 193 52 156 246 128 218 142 217 163 24 42 140 100 4 192 128 245 195 120 87 230 66 217 53 75 120 243 56 30 65 65 207 189 121 132 80 93 181 2 197 178 119 62 226 219 187 114 5 161 65 204 20 183 25 37 3 151 63 138 53 84 1 247 18 218 113 253 243 212 206 142 166 195 161 186 82 60 207 160 130 161 140 102 4 254 11 248 57 199 247 79 189 94 78 21 69 155 205 141 24 42 45 171 206 251 194 74 166 235 207 96 169 202 64 119 65 102 29 162 101 216 42 95 33 71 50 66 174 23 54 233 161 41 240 46 38 83 227 61 103 49 171 129 16 154 73 48 157 192 95 9 103 68 85 246 122 146 52 71 1 146 246 97 233 143 216 102 194 0 12 82 47 82 124 170 69 200 121 32 100 204 238 241 82 111 124 198 67 14 22 69 66 43 15 35 254 238 141 47 108 248 119 72 79 116 29 110 120 232 189 182 251 44 207 100 14 146 218 73 30 187 112 180 226 195 231 38 101 144 53 251 19 201 248 86 150 92 44 35 68 215 80 247 61 239 204 217 97 116 223 51 220 77 214 232 85 119 20 74 99 17 65 9 92 9 192 28 105 173 172 249 133 222 181 240 15 113 6 103 217 46 149 154 25 100 223 59 69 96 64 152 169 83 166 88 156 132 149 246 10 223 240 215 154 97 160 75 86 125 98 136 199 27 229 153 178 232 221 195 154 6 172 106 225 125 105 191 107 142 33 236 64 95 106 163 219 95 238 60 224 206 68 79 248 231 209 236 28 222 83 89 141 99 233 40 42 145 191 25 208 140 26 253 119 124 148 211 198 203 140 196 193 233 39 235 196 55 171 158 41 0 243 133 103 191 225 92 20 225 35 133 176 251 132 94 132 74 218 59 53 129 74 77 248 46 53 87 68 206 250 73 125 10 112 113 20 48 108 159 218 7 64 164 10 216 229 83 89 245 74 47 66 214 183 223 227 57 131 157 177 214 171 206 178 142 114 227 52 195 72 38 249 167 216 209 125 73 11 168 71 49 190 16 16 168 240 112 133 185 49 148 165 109 9 137 160 149 247 178 161 247 200 220 6 127 83 9 40 57 174 13 202 224 119 123 250 135 204 85 51 28 61 23 65 77 25 211 176 80 62 216 241 19 16 44 6 226 248 150 150 12 250 1 232 52 28 148 21 120 158 168 28 108 117 3 219 128 252 233 35 115 61 212 86 215 23 231 149 75 238 29 42 15 231 223 167 26 215 244 191 94 27 140 11 160 200 123 238 165 239 103 71 184 118 96 123 101 42 245 48 191 102 105 103 206 18 227 194 227 13 248 214 218 243 216 163 222 226 247 164 144 19 34 41 205 226 52 207 250 26 33 246 146 61 169 66 157 106 152 137 89 93 82 207 129 93 200 157 25 32 47 43 223 204 242 41 181 50 120 232 62 251 163 36 67 230 123 237 58 152 215 84 58 7 16 253 99 205 204 103 217 131 119 32 56 179 218 213 198 233 194 166 134 160 170 244 20 155 151 23 188 209 129 220 31 222 244 40 167 30 59 72 47 198 165 12 220 181 172 174 175 179 162 10 117 82 138 108 251 14 151 5 78 59 51 112 141 38 50 187 56 176 244 130 93 243 123 132 245 221 60 254 167 248 192 99 229 193 175 243 166 20 207 180 183 118 239 61 12 23 181 9 107 230 135 151 107 236 151 255 183 199 45 234 80 249 106 38 197 191 243 217 39 48 198 106 111 106 71 72 193 132 227 157 126 20 122 126 122 164 14 89 17 3 78 93 158 141 8 8 214 18 219 193 243 58 200 177 255 219 130 94 170 152 112 2 99 240 155 169 37 126 86 28 131 136 178 158 147 133 104 48 16 156 31 42 169 192 139 55 152 116 58 79 250 249 155 177 236 116 46 67 99 240 225 154 99 89 225 222 34 213 55 49 30 88 48 226 95 188 49 12 220 104 202 40 37 21 247 226 171 19 89 127 97 4 14 187 28 203 254 112 77 123 213 180 210 165 110 128 147 217 179 125 88 171 168 15 147 226 118 85 211 122 1 206 71 66 180 223 22 31 193 0 1 37 10 28 231 180 10 229 163 159 23 126 87 109 136 65 213 50 163 237 149 54 141 97 59 125 59 87 116 108 146 119 24 166 128 217 67 101 194 13 29 244 183 147 52 15 89 244 45 48 163 110 218 160 192 46 94 162 45 10 210 134 199 84 27 127 85 51 226 191 81 199 44 153 130 151 157 62 155 45 62 127 192 72 236 199 97 19 243 226 72 235 61 102 137 115 146 232 69 112 40 107 165 212 212 99 136 199 179 228 87 168 202 172 119 160 136 89 209 75 82 222 64 122 107 134 242 142 189 254 187 68 183 204 24 80 51 230 68 152 143 228 162 197 217 25 106 171 124 195 207 32 179 120 116 133 4 138 202 33 68 125 54 80 175 106 92 218 101 207 3 7 209 27 0 15 129 152 155 231 76 71 2 207 96 45 63 202 155 27 41 178 47 98 33 171 125 145 92 189 133 180 51 58 21 108 255 6 72 254 91 52 141 235 221 87 38 59 150 156 73 82 84 212 55 62 38 237 220 202 248 53 87 117 80 14 179 209 164 217 22 230 247 172 201 129 70 64 233 157 182 226 72 132 86 83 212 220 103 187 253 92 35 127 133 53 55 47 63 202 66 130 49 72 45 240 161 216 120 48 89 28 37 120 252 112 149 142 190 22 151 116 166 0 124 107 10 46 251 69 199 228 211 251 198 58 116 95 63 129 150 116 97 217 28 13 157 124 44 195 160 127 82 5 15 225 59 209 172 124 209 61 147 7 61 247 151 198 196 116 210 98 94 170 119 125 240 255 226 34 166 40 42 249 4 43 70 124 89 165 196 187 98 99 170 164 109 46 73 157 215 48 156 32 252 96 38 68 63 45 239 202 255 176 18 13 230 134 157 241 144 34 203 164 198 228 7 175 11 251 165 29 239 54 105 204 56 139 160 148 87 231 116 223 63 98 34 154 189 163 218 49 153 26 129 21 198 48 106 1 154 201 182 32 138 189 157 203 34 169 43 116 138 115 246 147 166 209 140 115 49 205 235 100 142 209 216 203 204 139 156 124 197 127 85 59 81 92 30 231 139 73 202 25 230 94 55 252 63 233 205 17 48 75 125 60 252 100 134 8 144 253 186 68 67 162 30 236 219 121 195 82 36 238 144 8 63 67 167 206 248 52 194 168 8 153 226 140 77 193 5 236 91 67 80 223 212 128 0 185 212 163 77 210 252 225 21 148 29 59 218 99 241 17 131 243 187 217 141 31 151 221 4 199 25 183 4 168 13 83 98 78 44 135 200 23 96 220 50 18 27 39 237 151 230 187 220 140 246 160 209 203 181 141 222 35 167 30 155 2 59 138 212 91 63 96 211 186 46 11 47 147 11 246 48 230 250 34 47 91 140 205 86 123 145 193 25 186 95 14 106 25 2 176 45 100 32 113 7 50 97 87 187 69 73 151 216 97 20 159 228 234 134 56 16 204 4 21 146 233 111 195 76 191 123 36 30 148 37 20 246 184 125 217 180 108 87 230 253 222 115 37 239 36 22 54 146 14 128 225 27 206 126 244 10 129 134 171 33 197 169 7 66 222 222 53 237 75 42 34 199 207 200 248 230 219 181 9 232 235 193 221 21 79 214 30 83 185 70 103 235 55 42 79 205 62 231 131 250 140 199 18 155 85 148 36 69 159 226 15 174 200 33 231 144 178 45 38 106 230 67 133 174 154 218 75 41 199 135 155 188 228 240 79 16 46 144 2 60 163 27 250 127 158 113 12 59 198 35 86 143 7 235 205 71 36 115 241 248 241 143 171 11 196 201 172 194 18 152 223 190 97 1 223 0 174 244 122 176 159 24 123 109 194 205 134 75 14 147 16 203 191 156 32 76 46 150 85 171 184 40 90 116 168 43 40 172 118 147 173 177 120 114 58 248 68 17 200 62 65 12 99 181 145 198 1 238 218 42 155 255 13 43 208 20 225 226 124 162 183 163 55 14 81 72 197 188 233 195 28 162 163 211 74 65 32 32 40 241 45 65 172 96 55 137 113 216 159 94 79 240 221 2 27 217 251 173 147 10 245 230 58 93 177 72 110 210 193 249 122 234 104 26 119 180 60 117 152 200 34 199 251 214 103 131 241 2 84 157 166 233 60 132 236 26 112 185 119 84 119 44 43 225 155 140 8 207 252 218 36 174 26 26 103 10 153 197 104 211 96 96 137 210 236 35 18 199 80 176 10 159 142 204 250 75 169 238 64 4 21 80 224 135 193 74 83 93 245 241 42 8 18 147 99 155 201 151 181 84 118 212 102 180 223 186 112 12 26 233 63 240 84 95 194 244 41 244 148 221 65 184 78 146 92 36 213 30 19 191 105 48 230 189 211 77 41 0 12 50 162 89 94 193 253 82 189 67 188 150 52 84 51 174 121 236 195 175 55 86 46 236 26 236 145 43 190 46 242 199 155 147 192 110 169 134 202 40 15 138 194 34 143 61 165 140 65 60 188 125 112 193 186 100 138 32 253 2 73 23 170 160 128 34 133 190 198 92 159 167 145 1 184 254 249 220 239 168 243 226 121 199 108 142 64 8 174 4 230 36 62 245 156 234 87 134 16 108 5 43 42 22 109 137 169 12 212 212 112 136 170 160 140 213 144 191 245 171 116 82 234 74 1 247 217 13 79 21 109 95 68 252 83 106 74 22 34 130 15 182 243 31 58 220 247 91 11 164 231 206 236 173 54 3 77 102 232 52 20 48 65 1 121 61 86 103 67 159 24 228 204 93 252 17 93 159 188 90 45 104 43 17 33 242 199 252 199 113 142 228 163 228 31 89 83 32 7 132 132 48 221 201 101 152 73 3 234 165 49 114 18 164 130 207 150 10 8 20 122 16 81 177 195 110 105 92 131 83 142 0 221 224 220 164 99 51 192 207 90 58 94 232 55 87 213 92 111 86 112 11 196 199 47 151 127 168 2 251 29 22 157 36 224 62 114 240 35 22 34 243 185 30 74 107 164 28 75 146 194 105 77 100 12 60 134 100 136 28 240 8 128 2 194 142 68 24 19 81 87 245 99 72 22 159 57 222 81 193 26 147 134 209 153 132 62 170 67 37 163 115 172 172 88 251 92 130 85 27 115 100 185 119 231 214 254 237 61 228 6 11 53 14 197 206 183 31 231 162 101 186 255 196 142 31 238 14 240 79 32 7 78 115 92 149 175 8 200 11 77 91 219 119 173 69 13 86 183 244 229 159 64 24 212 139 118 41 236 184 161 34 106 229 201 170 80 128 217 103 43 75 37 22 254 108 179 47 108 149 82 129 47 92 145 80 174 158 186 65 141 210 67 254 50 239 99 176 222 244 95 250 230 126 68 12 42 106 249 163 68 128 94 132 152 191 43 66 186 70 155 152 110 84 167 164 149 116 236 16 6 209 108 67 230 178 219 95 80 231 130 163 238 214 50 177 21 26 4 96 139 61 93 248 245 64 205 207 219 145 137 115 90 38 138 10 240 28 198 84 205 41 122 197 153 190 175 53 210 147 58 189 247 231 242 161 46 196 17 161 21 106 85 190 16 78 237 228 225 243 100 119 194 119 139 227 218 19 144 6 209 120 134 106 170 126 243 190 73 234 217 196 208 121 40 121 171 218 217 26 128 57 61 131 241 15 226 108 67 54 254 224 218 0 245 168 136 57 75 212 19 133 148 239 230 171 61 215 235 76 50 9 146 197 71 236 93 89 210 70 10 110 250 111 90 127 79 255 240 227 52 210 195 111 170 83 6 54 187 28 107 158 98 66 212 234 6 114 9 137 239 7 126 31 33 219 236 197 141 42 78 23 23 39 219 222 135 85 128 133 250 212 173 87 90 30 35 144 56 190 202 116 193 28 99 255 96 49 200 91 36 111 91 121 192 233 145 221 65 250 21 248 38 173 93 123 34 129 91 97 242 253 120 69 32 90 232 230 168 121 149 237 18 17 90 208 2 109 87 202 205 205 183 39 132 206 66 180 70 213 147 28 54 17 192 92 146 238 117 214 130 150 77 88 216 200 197 193 159 166 196 67 111 116 5 130 73 158 24 147 203 117 160 84 49 198 150 78 221 213 86 217 179 148 113 210 35 67 220 24 164 111 62 34 135 119 234 87 47 111 129 43 241 212 177 85 147 72 226 28 167 96 197 242 89 234 22 136 88 102 150 229 55 218 1 205 150 68 249 138 31 218 177 75 206 149 230 96 234 55 222 137 213 115 10 165 10 46 47 1 127 213 79 183 4 184 161 0 232 94 96 87 187 66 45 56 181 187 248 137 197 132 48 205 192 198 196 163 20 140 202 202 17 129 113 132 78 227 134 125 70 172 230 212 210 129 198 59 191 178 67 176 127 110 141 173 193 140 214 141 175 119 197 222 239 146 11 161 236 179 75 143 172 117 139 59 83 113 21 255 28 180 77 29 178 248 201 77 226 225 223 58 34 139 95 118 37 10 119 198 243 189 64 131 95 170 29 105 245 74 177 126 188 44 38 167 213 103 174 62 35 68 159 83 49 83 156 71 55 58 98 88 110 153 126 140 100 161 39 36 95 188 80 184 71 209 11 57 5 152 49 125 60 218 167 171 161 116 56 68 148 175 160 227 243 133 132 143 111 86 95 104 226 165 199 14 78 62 255 150 235 112 98 12 198 65 212 159 238 24 16 118 193 7 155 22 58 0 221 204 165 49 89 78 145 27 183 188 78 175 122 214 85 215 0 34 18 137 92 122 43 87 181 245 46 39 254 35 170 245 174 168 111 159 208 124 214 101 224 182 178 80 94 109 208 237 109 247 42 169 116 244 7 194 41 74 153 16 48 187 55 190 132 10 106 129 24 7 83 225 202 131 213 175 88 16 182 121 53 62 43 239 177 200 47 139 249 172 126 51 190 73 67 88 151 114 154 246 112 14 123 236 47 204 196 0 249 65 33 177 111 219 95 130 180 151 152 130 117 120 165 242 54 141 55 106 18 184 58 102 61 243 173 234 40 164 250 28 120 40 25 38 11 200 50 24 17 42 66 238 10 113 245 32 159 34 9 212 253 2 48 168 183 38 24 9 252 19 13 124 239 152 169 54 240 156 6 66 214 26 228 23 6 82 78 52 60 33 69 36 0 226 179 24 82 229 40 215 185 183 225 143 211 142 247 182 200 227 12 79 209 252 143 119 136 121 145 211 231 69 178 55 143 115 75 35 124 215 184 152 193 55 39 94 251 213 236 209 151 153 80 137 166 52 228 95 159 73 169 33 80 4 91 155 204 252 94 120 201 211 218 162 143 91 105 9 210 86 120 184 25 120 14 244 185 35 3 15 56 39 183 250 80 129 183 32 77 11 43 65 222 248 164 117 214 206 250 54 23 206 19 122 205 42 134 68 180 68 64 228 141 80 116 135 204 82 2 86 30 20 79 216 191 122 136 169 147 14 223 219 97 167 64 21 231 200 250 109 59 179 86 132 241 217 225 148 130 249 161 41 180 213 5 92 180 224 87 4 117 39 117 25 183 37 170 155 230 6 215 140 175 255 27 203 240 206 88 167 201 72 200 217 215 67 232 184 163 189 5 151 49 140 249 35 57 252 27 89 236 192 65 193 208 126 185 66 15 78 208 198 97 236 52 62 181 139 72 84 61 141 73 255 136 92 174 138 88 166 223 54 19 93 190 227 30 81 249 69 166 195 11 120 118 191 59 124 195 108 5 45 130 83 185 195 87 244 96 109 55 151 1 65 84 178 52 250 182 130 194 252 197 54 35 227 50 34 205 231 210 243 141 103 27 253 191 222 123 245 188 223 219 32 66 0 66 72 167 242 151 74 176 149 179 92 35 187 65 68 58 218 174 78 207 246 208 206 112 47 47 25 226 132 15 11 20 76 249 35 171 229 3 209 184 195 47 249 38 178 74 211 140 148 172 93 29 115 131 193 68 220 11 15 189 217 172 170 13 10 125 171 108 74 55 64 33 148 95 103 241 37 220 111 223 19 197 28 2 253 221 136 229 122 203 221 88 86 80 132 68 24 200 29 32 160 118 19 3 133 102 221 32 6 116 45 129 250 28 97 53 120 160 137 212 142 29 85 197 27 48 77 73 226 24 28 242 163 253 83 196 156 59 220 141 102 82 165 210 131 24 236 7 238 179 240 34 59 247 135 222 204 69 150 34 80 88 243 250 89 217 43 26 73 110 4 142 243 26 251 44 18 220 220 27 69 133 162 102 82 50 48 14 9 176 113 213 122 7 205 232 202 211 115 31 115 116 31 34 251 53 84 55 127 162 177 37 68 121 141 27 243 140 80 125 182 111 245 73 136 183 150 111 109 211 31 70 117 98 244 15 152 137 122 214 227 25 46 140 128 143 12 66 169 98 132 242 6 41 45 173 62 148 234 160 22 