P3
#HOLA
50 50
255
128 4 17 253 96 109 52 66 65 102 45 234 213 227 247 40 223 240 85 143 35 111 23 100 222 235 130 100 73 11 242 159 180 226 8 118 28 193 126 135 142 47 41 21 73 12 100 142 151 167 33 253 226 55 255 188 38 196 75 24 198 179 66 112 146 248 68 86 75 42 133 1 228 55 98 223 220 246 189 243 182 10 85 161 166 95 153 104 66 178 233 118 212 229 254 245 241 176 24 30 118 252 188 193 67 98 123 153 128 219 123 56 4 25 206 69 233 58 70 246 216 211 94 22 147 121 229 197 65 75 165 167 189 245 61 91 70 26 242 129 195 177 230 12 212 93 226 204 141 37 146 2 97 234 157 2 26 112 249 41 229 136 209 233 67 144 232 166 119 203 216 56 10 205 236 86 159 197 204 42 132 161 234 68 249 248 218 122 37 143 191 152 248 145 210 165 181 152 52 98 140 45 229 51 237 140 232 219 253 154 20 228 226 134 128 146 233 54 186 64 155 1 180 29 251 144 1 159 33 122 9 210 169 110 35 144 76 107 60 249 56 137 19 156 252 17 170 212 65 205 125 10 200 218 180 59 138 41 87 171 57 45 23 156 91 55 180 133 156 9 170 196 26 198 198 25 147 242 167 110 77 62 108 57 49 12 215 75 5 91 81 196 134 112 198 237 16 73 185 96 21 182 97 58 217 68 29 25 215 251 28 89 83 0 164 29 110 89 81 58 146 191 199 42 198 7 178 199 77 145 122 210 34 87 123 102 153 38 98 171 119 138 251 88 229 188 45 210 53 74 130 33 145 24 113 119 142 245 146 165 117 78 2 124 77 231 95 244 174 160 132 2 17 178 166 234 104 233 77 102 84 200 60 16 162 57 88 193 90 165 187 110 184 136 1 93 112 230 242 21 136 129 70 83 52 134 61 62 75 43 244 156 30 126 162 243 83 116 233 60 209 44 224 44 36 82 49 185 3 21 62 152 67 251 250 206 14 150 108 144 28 101 216 0 223 98 107 227 95 103 140 117 9 180 253 163 43 38 105 151 198 110 127 206 228 247 78 225 45 100 176 78 123 61 28 165 61 166 91 176 138 31 143 173 241 71 53 199 42 217 76 64 88 199 41 235 238 17 39 203 5 198 220 151 217 188 16 8 65 64 243 23 77 206 167 55 106 59 91 249 211 107 116 208 46 254 108 121 178 244 80 134 174 155 226 83 122 25 103 26 41 147 225 168 38 71 28 148 65 11 2 85 94 236 19 49 118 37 135 29 179 222 86 50 157 33 127 7 136 186 173 153 99 21 181 177 239 97 229 154 12 206 47 93 112 45 136 163 102 247 150 85 87 54 60 10 234 108 235 32 14 57 109 153 173 55 163 183 92 64 41 25 39 99 200 57 202 226 115 0 62 91 116 5 104 172 197 135 80 186 136 73 197 142 54 57 234 237 158 96 165 161 147 180 28 178 150 117 233 160 196 108 91 72 119 141 188 58 86 239 4 206 185 175 255 216 117 74 12 119 38 227 37 192 178 81 212 18 92 96 148 75 49 170 193 6 217 9 242 196 151 194 101 129 54 53 148 43 199 104 12 12 9 121 14 176 224 103 153 66 122 131 91 150 163 124 240 123 128 69 137 34 182 168 174 94 45 63 199 227 180 208 130 236 252 49 186 251 151 206 225 83 95 34 130 230 50 121 187 152 152 81 74 73 241 222 160 200 33 139 10 120 57 97 45 177 158 144 131 247 112 228 77 202 133 51 136 39 14 96 72 149 203 246 150 17 178 244 174 94 205 202 94 72 207 6 80 16 160 240 177 55 102 125 195 148 249 167 181 26 189 158 115 206 66 153 137 199 214 89 191 110 47 221 107 169 236 19 159 15 51 176 182 194 88 29 132 77 60 42 115 172 201 212 235 153 162 123 149 237 55 61 42 23 6 173 97 10 127 45 66 99 227 247 167 143 146 31 172 185 15 186 235 37 60 121 184 99 220 68 110 85 21 205 59 71 45 150 144 94 144 237 194 168 179 130 7 36 47 84 2 48 108 142 48 65 164 127 79 35 224 159 3 33 142 47 131 169 120 161 216 14 219 238 172 77 123 138 224 160 27 169 199 181 142 19 141 36 184 132 223 169 210 194 132 212 151 60 44 7 67 241 139 5 28 38 126 107 9 143 91 198 119 225 51 107 21 137 17 93 113 124 86 56 173 80 40 25 228 209 138 86 40 24 231 144 227 123 16 69 16 184 169 205 202 202 61 243 204 16 12 231 223 182 144 30 7 80 247 82 120 123 196 195 88 26 160 62 87 108 97 203 208 109 54 108 173 57 72 101 244 69 73 65 142 133 63 182 51 36 232 157 35 100 84 251 225 79 32 7 179 212 214 36 90 83 232 175 243 3 53 65 233 84 193 234 81 68 209 50 73 51 90 18 46 5 226 12 170 235 142 51 125 244 181 15 151 112 201 157 240 220 253 167 44 89 21 157 140 7 48 4 170 188 76 195 78 40 179 24 57 134 252 63 81 12 141 14 49 1 133 148 123 191 247 12 192 79 47 221 111 85 246 246 113 240 38 254 143 93 80 144 66 41 15 13 226 22 31 169 152 109 205 79 222 247 211 90 78 227 245 193 170 112 226 129 70 57 15 73 143 50 126 212 27 76 88 242 222 207 248 134 82 80 7 16 27 45 114 28 24 1 225 112 126 97 164 59 52 17 64 54 161 57 213 182 201 166 35 184 116 20 203 15 205 7 132 87 39 34 12 198 143 166 86 10 73 66 28 110 73 204 21 66 10 219 4 20 14 162 45 15 203 254 176 115 50 127 182 82 17 115 40 106 64 169 32 127 111 35 129 32 110 200 20 170 34 143 243 232 16 123 162 255 132 139 88 207 237 69 209 41 85 6 218 59 164 140 214 153 84 28 61 135 119 195 79 246 224 80 168 215 204 45 0 173 172 27 96 214 248 226 110 95 243 47 1 0 1 168 249 205 63 73 100 14 238 205 223 81 108 150 16 60 238 140 181 161 190 124 226 224 197 209 28 7 57 130 122 179 243 56 4 91 252 239 36 25 158 241 247 86 161 144 165 82 5 82 34 87 230 187 100 210 42 80 94 70 246 142 246 47 118 195 153 128 228 123 199 55 8 161 231 222 12 175 216 137 110 140 97 163 77 233 202 147 59 50 217 185 217 77 14 132 199 110 23 199 133 128 171 111 130 172 171 81 203 111 31 29 141 171 173 147 75 239 210 174 201 27 76 171 198 32 244 65 239 187 255 163 82 0 5 78 75 214 201 139 175 208 27 218 63 214 203 72 9 38 51 100 219 113 243 225 35 254 86 9 182 42 235 65 217 106 163 179 160 123 109 129 252 109 167 175 155 76 3 151 35 246 196 205 22 185 77 120 125 22 134 246 214 50 202 189 41 103 214 110 146 252 215 240 186 57 83 7 164 175 135 41 48 125 84 112 20 14 3 149 19 226 98 226 188 67 193 50 40 1 46 150 204 203 56 27 151 65 191 31 6 132 26 244 60 140 178 174 202 89 91 208 83 152 139 104 1 73 79 88 99 212 228 108 129 23 248 41 91 76 12 64 217 42 242 5 54 86 215 134 145 18 153 85 105 235 202 172 204 25 95 59 222 196 240 46 39 126 216 101 246 44 231 30 50 64 143 150 11 63 202 71 181 67 115 5 226 89 128 229 128 37 248 47 205 23 148 27 65 217 102 0 119 230 63 210 93 248 93 83 151 33 49 9 22 9 73 17 135 166 193 88 22 253 11 150 88 131 64 24 140 23 7 105 10 213 91 40 40 92 71 212 9 96 153 157 244 254 218 177 72 63 113 19 20 53 70 235 118 251 173 40 169 208 88 252 146 49 51 246 119 93 34 146 91 140 27 98 243 171 239 56 252 32 162 26 25 206 96 14 166 216 189 243 166 75 214 121 138 90 171 55 56 86 105 120 203 181 133 211 235 228 173 13 195 67 190 55 174 5 128 105 126 87 113 173 37 75 215 105 169 212 40 106 197 141 42 235 19 24 13 89 56 114 190 130 40 145 159 247 174 96 207 110 29 72 12 162 101 102 188 147 149 76 219 33 31 133 242 136 8 199 19 222 168 188 37 228 51 22 105 112 11 166 181 95 39 12 176 57 149 211 164 101 216 53 25 176 99 114 253 52 129 98 228 41 77 195 34 147 167 101 251 78 247 126 49 119 234 67 56 140 114 158 28 10 66 213 176 129 112 170 129 115 172 198 202 185 252 122 213 215 140 230 14 3 251 220 101 9 124 194 216 83 57 77 54 114 10 80 242 184 219 81 178 46 117 238 220 40 197 53 142 50 162 26 91 25 134 25 84 37 231 188 19 236 139 38 184 218 85 147 159 187 69 20 162 69 54 74 74 134 17 0 44 140 149 136 36 152 2 28 54 106 139 9 205 35 106 28 61 163 248 169 227 90 229 216 164 174 211 244 227 132 104 81 175 210 162 255 200 91 47 136 11 150 95 77 19 224 254 19 115 154 201 45 207 154 40 28 232 115 19 13 232 182 36 78 38 1 96 129 122 239 228 154 37 49 118 214 73 52 90 171 79 238 54 7 205 95 164 1 235 194 238 73 21 72 41 154 60 112 103 68 144 179 30 21 222 134 145 58 206 107 183 142 17 16 140 155 49 208 228 137 23 171 136 181 51 181 99 194 61 99 118 245 35 143 36 150 28 113 124 138 107 89 182 101 73 38 0 236 172 147 158 59 33 246 23 112 133 149 170 198 220 227 132 73 215 108 126 249 199 243 171 210 215 121 235 158 28 192 160 47 226 238 255 179 216 8 40 158 128 105 10 166 62 103 234 77 222 207 237 68 104 105 233 241 172 226 203 18 164 44 158 14 89 215 158 140 251 79 217 120 6 167 47 46 32 72 105 27 164 201 101 121 27 144 202 89 160 91 172 157 53 30 32 162 205 237 95 39 237 226 5 227 109 119 141 48 184 186 30 221 92 201 133 40 152 43 95 117 200 237 124 167 125 253 161 114 193 39 55 119 234 193 120 96 245 133 209 172 233 136 81 126 93 253 45 254 85 207 41 4 191 250 134 82 6 181 32 140 123 240 151 113 169 202 165 110 27 72 1 119 26 41 80 179 105 3 224 126 98 136 227 168 200 39 198 177 32 91 133 119 5 32 236 61 222 44 131 101 189 126 86 199 148 117 190 67 97 11 218 156 234 80 241 4 113 211 67 90 207 228 177 60 73 208 22 187 93 85 13 126 118 109 223 162 97 144 138 39 205 44 217 28 134 95 188 81 88 180 144 61 25 128 73 192 243 38 15 58 84 54 46 181 183 66 41 173 59 14 50 221 217 67 35 29 72 88 146 74 55 243 196 46 92 75 51 190 34 39 244 191 131 230 40 230 11 185 55 142 11 164 213 237 255 204 82 20 248 13 230 37 187 72 202 165 175 33 161 88 33 232 187 66 186 252 54 24 74 161 33 11 55 155 181 183 30 249 238 87 224 91 58 11 94 46 250 168 0 30 4 9 247 234 240 119 198 120 118 38 215 12 189 41 146 237 27 15 211 61 229 200 30 145 101 49 242 36 136 48 184 94 48 151 10 120 228 184 166 217 109 139 5 154 80 144 242 155 98 109 154 163 219 119 252 175 148 253 83 94 115 137 229 217 168 110 91 49 75 147 227 205 174 52 101 51 151 133 68 85 104 197 199 82 35 179 81 88 94 113 61 252 36 179 214 177 255 129 62 28 194 9 228 17 3 34 121 45 189 33 28 235 168 37 54 20 181 191 63 125 152 69 38 130 31 199 17 233 246 74 229 137 155 13 159 45 234 237 75 45 91 79 32 81 43 73 209 14 209 120 12 156 20 123 7 93 206 122 167 170 55 202 118 93 2 87 76 22 211 82 49 197 26 130 84 46 209 126 11 206 89 40 45 44 225 252 218 97 122 221 205 72 195 210 188 203 177 42 152 227 49 164 105 247 96 146 16 167 14 39 143 191 250 128 183 117 232 156 227 251 22 128 37 143 81 87 171 83 1 59 8 241 133 17 106 202 176 57 191 178 186 246 65 156 184 36 144 177 20 228 22 176 4 186 153 36 106 122 149 34 43 12 213 236 244 42 158 247 112 130 242 56 9 117 156 63 222 142 247 69 204 182 66 87 143 225 155 199 6 72 185 159 160 35 133 196 2 64 134 65 74 164 28 231 233 252 79 57 175 171 52 203 169 165 151 144 108 194 104 76 62 227 8 124 178 156 110 126 143 214 203 68 210 144 15 180 154 151 246 196 170 114 76 94 119 222 224 187 104 31 27 217 94 147 158 64 48 167 35 206 102 216 9 207 180 217 31 81 35 214 195 128 127 101 128 219 224 250 203 35 132 100 44 248 226 241 91 60 6 7 85 110 242 211 85 79 216 237 203 127 28 163 169 4 56 129 37 225 75 167 36 245 37 83 28 191 148 229 100 85 19 202 229 115 154 18 57 168 172 40 228 136 110 128 93 243 133 127 54 117 230 70 127 252 141 182 182 150 200 6 185 137 116 227 125 64 12 8 25 78 239 204 66 141 17 146 134 209 140 177 39 8 207 16 48 147 103 184 20 192 187 26 196 116 164 58 124 67 67 74 196 19 116 140 42 253 234 82 183 77 33 165 204 219 94 230 78 8 66 247 3 84 36 224 105 171 91 98 152 96 45 104 135 218 153 177 34 254 82 8 49 96 221 90 195 70 159 64 181 85 36 168 87 237 35 33 148 20 66 146 86 141 194 195 49 136 233 121 78 162 57 112 165 198 44 171 10 174 233 249 47 186 163 125 89 223 98 187 182 249 211 195 181 68 225 219 206 70 189 18 114 206 150 191 79 129 80 74 101 253 103 219 63 132 130 41 207 192 96 122 116 104 34 121 6 218 58 39 118 155 216 149 68 120 251 61 252 98 136 176 192 156 104 36 180 224 244 63 48 222 28 19 200 190 159 217 156 202 182 150 117 118 121 97 190 137 133 184 165 251 4 165 28 187 134 9 8 24 73 152 44 99 63 106 188 98 126 157 138 10 142 9 133 241 153 0 8 33 102 182 67 233 115 130 162 141 80 152 21 29 213 242 98 63 102 26 201 73 121 254 71 163 5 31 97 205 107 15 26 145 139 137 6 2 249 173 137 107 147 58 196 20 98 161 185 250 132 178 85 110 117 40 23 101 171 226 252 35 64 95 78 181 111 232 183 163 188 133 93 34 140 126 196 199 72 240 26 208 201 238 238 5 182 248 208 135 34 210 233 112 61 101 54 121 105 120 104 244 66 73 139 171 115 161 94 98 220 188 93 159 61 30 73 84 65 191 125 201 136 23 114 231 42 203 178 222 173 211 130 224 37 88 175 46 152 198 217 111 82 184 251 107 44 149 9 16 19 44 82 80 156 206 58 55 142 33 193 210 236 53 13 148 11 173 242 206 188 108 196 174 21 30 140 183 89 111 111 39 243 189 240 194 208 28 12 251 165 106 2 125 234 54 248 218 6 48 5 45 98 61 72 123 23 154 191 243 93 169 161 205 59 224 202 107 209 106 39 118 88 225 146 118 93 68 49 36 10 47 225 71 12 42 81 79 182 216 157 235 250 48 228 36 236 178 63 102 242 237 10 95 226 124 172 24 159 236 133 233 5 93 215 217 250 248 2 84 189 46 7 116 69 199 178 252 118 195 164 242 146 197 185 120 116 138 144 41 161 71 225 231 247 20 45 31 206 196 122 38 157 35 207 64 201 197 54 206 22 79 193 183 162 47 246 20 109 59 116 53 36 74 167 190 161 154 236 168 255 225 62 120 23 223 14 238 77 86 200 177 186 233 130 28 22 155 175 211 163 197 179 88 141 118 97 238 76 167 58 56 147 56 3 138 35 1 135 89 142 204 73 20 152 186 108 35 137 148 176 87 129 80 11 206 103 220 220 207 246 153 191 84 37 157 234 193 229 199 121 49 42 133 18 178 218 204 206 67 160 7 203 50 11 69 232 218 73 200 236 35 172 41 187 7 87 129 156 66 122 212 175 89 183 91 200 2 119 77 8 74 123 223 155 120 186 98 144 98 79 130 250 109 150 34 237 146 113 255 81 126 94 31 155 147 248 146 10 111 85 2 42 165 238 222 99 63 75 183 4 255 55 137 15 187 72 44 126 222 68 169 212 164 24 127 101 187 240 12 205 93 189 3 165 126 117 124 109 43 67 57 145 4 145 30 122 186 125 252 68 210 230 59 118 27 122 63 72 222 50 253 133 203 106 104 151 146 247 27 11 2 134 22 10 166 184 200 196 162 79 183 48 120 48 79 131 82 204 2 82 255 156 49 110 243 132 0 85 96 118 36 194 56 44 57 24 153 161 189 127 251 191 176 149 78 16 0 60 206 152 228 10 89 182 26 187 69 161 204 123 93 246 17 150 108 85 221 41 134 106 159 233 81 0 157 168 237 133 242 127 153 3 136 53 49 126 212 8 104 101 79 99 51 68 11 10 101 74 187 157 246 177 4 170 29 53 142 208 21 224 47 76 25 209 14 13 230 30 6 156 170 188 233 92 1 240 239 84 174 48 20 38 90 204 44 252 146 168 201 121 254 204 19 247 83 68 147 164 165 239 120 249 213 72 144 212 239 198 210 210 28 48 0 7 52 206 223 85 36 231 208 106 33 47 82 159 119 188 164 72 255 169 227 73 46 252 190 10 242 250 105 116 245 185 34 28 153 10 144 250 67 225 238 251 253 201 194 99 252 153 101 72 133 241 229 137 123 20 8 230 112 96 150 188 218 133 248 0 238 210 70 197 138 36 236 12 236 227 108 219 55 190 14 199 175 159 156 104 130 11 101 96 222 113 251 117 129 37 21 21 78 24 39 140 35 91 232 156 163 176 151 187 177 106 184 201 103 109 203 28 209 221 239 110 87 197 20 125 219 30 69 216 136 209 162 232 74 86 52 177 164 71 7 25 112 100 179 39 246 228 38 68 137 34 114 76 34 229 35 36 158 198 3 10 67 136 112 83 39 57 128 237 80 22 204 207 128 151 154 222 129 111 6 222 125 254 182 31 22 95 247 255 172 39 143 69 133 109 249 229 230 55 216 89 2 94 37 82 222 184 70 43 253 99 71 199 19 2 235 234 178 1 224 78 211 188 124 149 227 135 103 196 95 30 164 239 116 54 45 40 8 100 232 72 145 100 17 142 58 10 126 174 144 205 30 40 29 232 179 23 85 122 193 65 166 107 153 172 134 0 17 86 131 162 69 123 157 164 182 131 248 158 246 60 69 206 120 202 135 121 82 114 253 55 77 89 162 152 29 121 150 1 16 249 29 217 31 146 11 45 72 71 175 107 90 59 195 158 236 159 131 227 107 253 137 154 190 23 218 6 198 148 207 95 114 153 158 186 106 216 150 73 27 117 62 104 45 82 76 90 22 139 85 91 199 179 245 243 230 74 45 30 106 128 94 212 229 208 97 45 156 172 157 93 46 24 224 234 13 16 91 154 110 153 197 48 80 238 230 102 42 244 36 80 89 239 44 148 85 56 255 198 103 191 187 38 198 157 241 60 95 39 176 244 55 216 251 18 69 158 205 247 59 149 237 15 47 105 196 165 201 246 161 40 118 239 85 14 54 111 89 132 208 5 29 174 149 41 5 206 79 38 0 190 247 115 70 170 131 3 140 116 114 151 154 61 183 88 109 141 38 205 175 8 81 160 72 128 123 240 107 251 100 6 199 13 151 34 77 87 124 12 121 229 87 86 130 119 70 124 85 202 92 13 105 147 21 20 2 129 11 161 141 224 113 18 83 163 7 115 30 172 95 198 205 81 130 149 116 238 239 216 245 82 40 18 118 92 119 82 101 216 254 143 221 150 239 84 197 223 156 60 172 239 237 173 24 139 35 236 147 132 150 107 154 134 179 96 224 141 255 179 167 86 48 108 73 152 217 199 221 181 82 136 5 136 204 19 145 200 103 218 46 8 175 231 120 229 195 57 64 43 222 194 255 0 52 24 52 99 231 208 99 45 245 23 252 152 59 219 31 41 191 177 217 247 10 73 58 110 197 94 180 70 229 187 121 85 65 204 193 42 130 154 27 8 21 153 118 203 186 85 148 158 95 105 59 59 71 73 26 236 174 172 190 29 189 127 111 130 115 114 231 131 160 42 84 139 183 226 42 72 68 137 237 34 88 190 24 72 120 71 147 238 128 30 126 50 104 141 211 124 31 97 132 99 241 234 154 137 220 129 101 197 53 202 227 245 49 3 214 153 123 154 28 161 124 167 97 240 215 93 9 236 229 145 171 108 161 208 78 238 69 66 0 230 78 82 160 90 30 16 27 207 53 236 31 55 63 141 34 57 157 137 243 142 18 55 230 155 87 106 191 61 143 185 23 158 242 236 74 166 102 38 128 96 44 226 178 200 148 118 63 167 123 226 61 248 124 254 237 197 93 185 92 228 189 199 59 179 60 81 97 217 75 238 239 178 149 24 2 40 214 150 52 70 237 8 194 156 40 59 252 214 5 235 63 186 39 121 92 13 193 163 240 86 104 125 129 224 217 136 12 153 166 43 34 1 197 68 138 198 124 185 174 151 234 237 25 84 111 60 197 182 237 218 195 75 32 202 124 22 248 48 5 199 14 8 59 112 74 54 182 46 42 35 81 254 33 186 9 154 55 73 167 106 229 249 200 74 232 219 116 7 122 79 114 141 114 24 138 134 214 149 192 134 150 199 35 198 30 222 246 43 5 137 108 42 220 178 86 119 206 132 47 125 109 242 24 65 127 232 211 39 218 254 11 144 113 213 98 127 156 155 117 66 130 155 144 44 208 189 200 9 121 21 86 17 182 120 42 205 10 252 181 145 16 210 94 144 124 27 29 115 82 224 76 83 91 39 168 147 199 46 97 250 146 13 157 92 155 196 42 155 107 77 6 252 184 131 12 86 23 144 247 137 90 109 161 165 202 66 193 243 180 86 15 201 19 187 72 199 209 242 189 107 249 118 86 190 130 140 131 248 234 180 113 210 186 58 213 72 227 58 21 172 140 154 156 212 222 42 113 233 37 66 108 106 203 53 66 36 194 33 230 188 9 153 156 206 231 254 160 160 164 193 189 44 116 124 200 238 77 148 44 43 28 243 143 102 131 36 181 208 117 219 137 128 99 121 141 186 171 234 73 58 93 1 76 68 104 151 107 150 168 125 27 161 147 213 238 166 166 198 154 90 200 174 245 189 43 215 89 4 127 161 132 148 30 82 23 84 181 190 244 165 117 176 140 57 216 93 67 42 136 27 162 15 222 150 240 214 74 179 47 37 172 114 3 24 92 9 20 141 180 28 198 15 237 96 222 194 117 223 112 234 175 34 57 255 1 190 140 41 117 217 171 146 13 86 236 98 74 39 43 175 152 148 111 130 145 168 243 5 130 49 134 126 126 39 127 104 109 158 52 111 137 88 234 210 221 148 113 120 190 154 109 218 99 50 64 233 55 229 8 229 67 198 153 81 243 127 85 224 65 221 119 98 119 110 80 30 172 59 28 247 34 74 244 13 173 22 233 65 143 224 158 248 180 242 166 97 63 58 0 231 70 29 251 42 21 254 120 116 7 105 182 47 232 117 150 137 103 6 114 197 80 113 155 173 116 234 230 176 39 246 64 81 12 138 135 128 230 154 79 186 252 25 208 215 11 61 219 244 24 70 48 52 18 56 32 79 54 136 250 246 196 163 49 141 128 165 191 190 253 38 227 132 33 104 26 219 73 92 208 79 80 116 5 214 176 26 248 174 221 159 2 141 158 117 89 78 41 210 61 91 169 187 28 141 239 122 91 141 31 235 103 28 104 76 119 220 97 142 40 10 233 88 159 145 231 165 40 96 82 207 21 46 1 207 73 136 38 110 186 29 163 68 215 183 42 28 142 179 55 164 25 142 79 180 47 169 98 57 9 4 86 40 226 157 20 136 140 121 230 152 55 138 212 162 135 79 9 158 89 72 203 18 148 98 41 137 65 101 61 249 25 192 245 248 32 101 80 122 27 73 142 137 198 58 246 183 154 190 239 248 178 255 54 240 248 1 89 106 155 28 89 90 29 12 197 212 147 145 220 180 85 35 90 213 250 223 88 85 196 114 120 243 114 216 116 4 126 155 232 100 96 178 122 215 157 159 249 186 4 166 196 89 81 166 157 163 147 222 219 137 229 79 7 20 199 254 52 100 53 138 61 55 120 40 69 219 138 244 120 15 115 152 62 164 249 61 78 132 77 151 222 50 245 131 201 165 120 32 225 76 8 207 1 167 63 173 183 154 218 2 123 117 63 101 119 126 17 104 117 36 184 148 211 206 221 255 42 56 231 234 59 123 88 38 191 6 225 178 135 187 91 6 192 38 243 88 134 230 167 208 120 86 126 248 65 99 243 164 48 232 91 53 32 222 242 39 139 30 158 154 130 120 235 230 41 183 33 134 220 157 0 90 146 176 249 26 215 86 146 57 236 65 88 245 32 247 205 101 20 241 127 246 48 214 177 88 9 253 43 79 195 52 217 154 240 168 176 29 74 141 114 181 70 141 62 236 104 164 157 12 234 247 172 27 168 212 233 190 235 243 174 252 39 95 224 110 191 123 115 106 1 202 242 65 81 158 197 6 145 177 209 67 88 151 167 37 219 121 8 93 222 38 74 190 221 218 200 158 117 67 235 82 1 109 86 34 245 104 156 137 112 11 25 159 39 102 199 11 71 134 17 112 153 79 153 223 188 28 224 234 164 18 228 247 202 219 56 1 210 165 230 215 185 213 165 121 170 183 183 111 130 242 39 245 96 151 16 143 232 169 111 197 149 106 157 49 3 85 237 241 204 33 3 79 88 184 169 214 160 81 71 220 7 234 190 41 36 163 214 198 248 71 125 177 63 207 68 213 100 198 112 200 0 117 253 80 242 152 105 93 154 25 250 151 174 155 234 17 116 152 142 20 38 64 13 67 37 137 62 55 200 104 44 32 189 166 31 4 54 51 119 31 108 243 132 241 100 47 242 135 115 144 30 220 206 143 182 119 12 15 60 160 167 177 241 180 247 50 59 226 183 74 105 48 161 202 212 51 54 145 62 117 163 129 84 51 240 231 80 199 232 27 98 249 3 41 244 125 9 221 156 136 219 82 172 51 40 146 12 178 140 103 76 182 134 82 231 200 82 251 218 83 183 126 249 109 174 143 93 161 64 144 223 55 108 14 192 160 250 7 105 144 252 26 244 11 104 250 253 228 192 137 113 190 45 57 22 127 74 150 181 111 207 64 40 169 212 252 208 155 125 140 55 41 144 26 230 180 79 164 21 239 238 88 35 29 58 56 118 34 161 74 245 100 243 5 70 165 245 232 162 68 142 184 29 220 2 254 32 88 185 177 22 0 36 38 29 172 1 145 62 128 99 171 234 153 152 103 59 84 98 130 240 239 56 72 214 82 185 172 108 0 201 212 207 143 68 186 55 218 40 22 60 233 82 229 253 76 175 73 188 237 245 133 97 214 65 235 135 189 220 220 103 167 193 155 38 1 68 186 152 194 154 194 9 31 23 123 142 178 43 113 85 58 87 188 181 108 36 201 63 89 76 136 163 155 214 53 237 164 63 12 177 220 38 209 30 232 101 146 146 79 212 92 9 133 9 126 181 243 217 21 65 45 7 122 5 182 101 53 197 46 169 176 77 233 122 204 214 141 145 0 244 153 33 51 130 82 241 221 99 191 54 101 172 207 219 250 23 53 152 117 254 76 72 146 146 32 25 59 54 88 101 39 214 143 77 46 108 32 178 175 121 254 247 33 29 59 233 99 147 120 17 63 126 67 90 24 228 229 77 102 23 184 92 94 156 89 187 115 192 150 136 202 52 38 211 206 168 177 48 44 40 222 95 77 227 223 177 197 164 76 49 125 244 92 122 109 147 252 170 30 63 60 232 5 223 154 103 141 185 11 125 205 252 165 178 88 9 1 250 152 251 75 73 160 143 118 155 156 129 80 1 83 40 232 91 223 36 67 243 129 23 243 190 13 116 80 53 165 31 238 223 175 196 147 221 254 245 57 134 137 201 209 181 182 221 11 78 183 83 229 187 81 9 26 234 231 77 10 115 98 124 28 68 76 38 169 164 17 229 76 124 79 61 254 16 95 170 129 11 196 228 191 146 144 5 135 99 112 124 228 81 184 88 209 161 241 125 36 88 39 26 209 160 135 185 121 109 167 254 148 236 63 240 91 221 7 22 85 143 116 128 34 21 138 67 110 200 140 198 171 32 175 12 138 113 209 179 46 199 68 253 245 255 28 19 174 50 182 176 86 88 131 122 80 170 111 13 51 115 179 28 252 213 249 110 154 92 171 65 97 192 152 238 70 255 239 112 81 183 215 23 190 150 92 108 225 118 73 81 1 8 12 161 55 155 192 157 103 22 99 147 232 127 118 183 211 243 163 115 7 132 224 13 33 38 86 181 155 222 64 39 204 47 109 162 19 240 52 186 5 63 182 56 104 158 219 220 57 36 216 153 248 192 186 35 166 207 182 224 67 250 26 117 255 167 210 181 126 186 202 253 0 50 90 173 183 34 123 216 40 41 241 253 204 234 85 201 117 186 253 114 137 2 211 75 248 126 219 26 49 65 83 59 107 172 70 137 180 136 72 147 241 24 162 189 225 166 185 83 5 247 200 24 58 243 29 174 215 72 174 114 67 210 55 117 73 22 20 159 16 221 87 26 230 72 92 12 184 251 21 4 232 28 98 92 57 236 209 18 27 140 241 136 135 162 70 254 112 139 7 115 134 214 202 15 49 1 42 143 250 242 99 150 83 35 52 113 95 169 76 40 11 244 106 140 138 141 22 67 255 75 176 158 58 13 46 81 247 218 252 244 91 229 164 227 128 151 155 251 51 81 31 247 134 244 246 199 171 36 17 165 156 250 231 7 48 4 226 38 101 166 68 79 49 205 238 58 96 157 52 135 36 40 104 95 255 118 57 187 251 209 81 199 117 33 158 242 242 228 250 37 205 19 118 184 0 53 195 171 102 238 140 16 248 140 145 153 27 227 52 235 67 191 111 55 121 240 159 154 22 168 153 28 238 132 25 47 170 36 236 113 134 184 13 97 71 173 253 225 241 34 146 72 73 46 213 198 6 52 10 70 124 113 11 245 29 39 212 204 138 213 217 27 96 106 32 163 218 90 127 237 10 86 137 87 81 103 218 244 108 194 113 40 45 28 81 247 192 39 241 8 88 147 81 113 160 162 179 24 106 203 23 76 109 253 165 148 171 128 193 103 55 26 57 246 76 186 95 230 226 19 108 52 91 138 26 231 87 108 87 167 221 48 36 37 245 183 68 58 196 67 230 121 133 73 222 94 70 129 211 165 55 2 154 37 48 232 247 137 233 176 98 209 38 20 56 199 7 80 166 76 190 124 255 132 71 90 221 50 141 57 186 38 19 42 141 246 189 253 89 213 232 139 61 63 200 31 229 203 153 57 246 186 30 8 214 11 32 103 95 99 47 254 93 20 110 226 196 225 84 204 52 31 250 21 229 39 51 54 246 79 203 193 255 35 255 70 146 227 218 76 94 180 106 18 73 172 214 76 87 192 19 196 245 124 80 183 62 184 236 64 252 38 139 20 225 109 252 103 177 249 155 237 54 169 104 53 201 181 39 44 96 231 151 155 28 224 241 24 115 126 220 97 212 133 157 253 115 184 4 229 220 58 9 153 221 80 35 195 252 126 252 159 143 226 209 206 155 140 89 248 198 125 0 42 181 82 27 78 153 238 206 237 28 19 104 204 234 71 204 244 231 253 88 84 238 125 228 66 202 217 114 94 199 90 164 223 172 190 87 239 184 138 7 99 155 198 107 206 148 117 116 70 127 175 210 72 93 77 213 109 116 222 22 247 150 196 129 69 29 128 120 243 106 159 180 61 236 47 34 229 26 47 253 56 224 126 17 123 80 153 105 13 165 10 186 25 125 121 218 224 222 201 195 245 8 241 244 148 221 175 96 63 44 89 55 253 50 64 39 156 186 233 62 136 220 210 179 135 72 224 238 227 4 117 245 127 8 14 230 197 177 255 203 233 190 56 222 139 109 194 165 81 148 114 85 212 31 185 174 52 36 239 190 151 47 78 102 32 156 14 71 139 236 224 244 39 31 166 83 230 120 8 113 37 74 25 62 191 45 145 138 13 46 251 236 39 101 217 150 208 56 147 137 7 194 116 161 235 219 10 119 123 32 28 181 138 62 157 147 218 194 223 16 40 59 61 131 226 85 223 62 41 194 236 213 156 27 223 63 42 154 161 4 196 199 136 192 226 229 8 103 35 60 138 111 54 13 83 44 51 17 229 26 209 158 73 60 204 95 2 81 142 185 112 96 231 2 170 96 140 169 137 58 115 161 237 246 28 230 230 127 70 124 197 228 45 235 132 43 23 186 117 217 137 132 83 94 67 222 238 168 52 142 70 244 74 55 57 234 84 194 255 89 174 212 228 240 236 235 15 158 57 72 207 88 11 209 255 36 150 46 156 219 134 61 133 173 90 213 112 46 73 41 237 145 12 2 251 26 159 116 40 66 222 140 56 251 38 151 25 242 3 220 10 31 159 34 64 76 122 231 217 225 45 11 227 157 112 238 27 52 7 29 81 165 253 170 38 194 215 207 223 151 9 188 17 5 29 122 26 158 207 94 179 94 152 240 95 191 208 51 150 41 90 50 32 225 144 22 122 14 28 71 168 204 161 238 32 71 165 251 242 16 96 1 157 41 135 201 97 133 228 103 82 138 152 138 107 72 72 253 19 251 100 200 91 254 205 46 67 200 246 195 210 82 168 111 174 157 73 159 20 233 198 136 112 120 9 157 221 160 3 186 90 55 24 110 187 46 237 115 220 46 20 