P3
#HOLA
50 50
255
205 102 233 114 64 39 204 95 39 30 154 118 28 246 43 59 25 113 3 199 221 141 166 25 11 88 81 231 68 23 61 160 194 84 243 73 120 19 141 67 110 96 231 204 49 34 212 54 149 70 216 17 115 165 186 252 255 161 121 140 198 2 141 133 134 242 29 96 152 190 18 4 10 4 232 205 238 58 153 44 200 253 27 6 97 118 8 203 113 19 44 235 13 122 4 220 212 4 130 135 91 170 47 118 233 193 178 231 146 32 29 91 111 42 47 107 223 140 236 3 174 49 102 116 0 185 221 245 30 14 104 158 97 217 119 169 12 162 224 221 170 132 151 184 50 80 26 138 13 149 225 142 60 232 181 81 168 219 19 49 212 99 80 232 187 212 154 226 230 71 58 208 127 60 90 149 248 226 66 209 250 184 7 78 201 206 217 109 43 223 255 198 183 92 130 220 163 251 25 192 82 131 171 138 43 243 48 139 140 109 57 153 47 104 169 72 113 144 137 238 206 210 36 200 123 222 38 94 40 24 239 57 187 20 237 131 218 237 99 75 99 190 232 218 76 44 62 246 141 192 240 126 106 101 222 116 89 74 194 37 224 215 168 24 83 179 254 32 33 74 88 19 245 37 156 4 150 197 173 51 176 245 10 55 45 143 50 196 103 55 185 38 201 141 81 183 112 21 53 155 88 202 164 234 95 85 217 57 220 2 63 78 31 116 176 189 182 25 185 207 245 245 237 50 26 28 250 27 36 36 125 224 163 34 61 168 209 136 128 239 20 225 185 111 8 175 255 255 105 45 185 28 9 167 93 37 124 155 43 1 184 193 92 32 44 224 127 190 67 246 67 182 26 248 29 35 47 28 27 112 141 122 37 74 126 74 57 125 100 170 171 199 139 178 11 136 207 246 120 167 79 138 194 165 20 190 45 60 13 70 126 68 64 255 53 13 164 169 78 15 227 233 161 69 114 82 93 80 28 104 62 26 188 4 107 114 117 97 210 26 102 122 4 45 59 217 81 77 54 7 252 119 161 66 17 210 163 139 1 74 171 87 235 60 29 133 53 252 212 199 219 210 220 247 173 204 21 180 29 217 99 174 58 71 129 91 177 39 84 74 28 170 101 18 185 232 73 152 134 9 49 166 60 110 246 97 57 127 181 101 54 234 150 60 94 124 136 6 117 41 137 136 14 46 7 1 77 176 53 225 28 57 182 205 36 21 95 183 244 102 28 191 98 102 118 95 204 150 130 225 193 209 115 159 165 77 25 119 10 160 12 118 14 240 146 119 42 183 181 129 5 86 34 85 67 45 36 29 74 177 129 38 24 11 225 111 70 156 199 133 113 28 36 36 2 223 230 84 166 57 96 17 64 237 92 232 136 198 251 198 205 224 236 82 72 69 88 204 59 162 165 64 85 18 86 46 192 34 90 105 161 146 87 91 132 190 138 68 120 185 43 85 45 52 215 92 114 8 28 92 143 89 132 232 176 239 224 178 20 197 15 225 190 44 174 13 170 1 45 137 134 70 220 125 189 254 217 14 101 169 230 69 121 14 186 11 21 205 72 234 218 151 160 229 196 16 180 253 251 252 142 31 158 201 246 68 99 104 25 193 203 82 212 12 130 57 173 155 16 55 174 162 254 29 91 88 155 183 31 113 88 20 81 123 250 30 43 190 12 211 178 117 238 169 229 243 148 17 134 212 243 190 250 153 50 246 118 246 67 197 66 255 132 154 247 15 42 133 245 177 75 178 150 244 166 121 255 31 57 40 25 225 107 155 48 118 154 144 29 143 227 123 40 179 103 0 25 140 255 155 137 14 57 193 130 149 80 213 18 212 132 33 75 115 129 133 16 14 0 214 158 238 73 75 32 86 0 252 21 140 89 5 37 192 202 119 155 10 234 163 28 208 226 173 25 208 53 5 254 238 49 48 186 32 92 188 238 77 43 111 23 204 137 48 123 190 100 138 107 247 94 106 201 45 20 53 52 200 130 41 71 30 55 208 175 154 177 115 93 58 159 170 38 85 9 172 141 252 245 66 13 78 218 137 251 200 170 200 135 29 177 117 238 177 174 88 231 74 207 138 123 72 225 8 28 46 45 83 68 80 230 68 118 220 21 237 176 200 177 147 231 175 34 82 141 219 213 139 181 119 74 159 245 149 224 74 4 26 118 102 178 153 35 136 49 117 110 210 244 177 120 157 226 23 144 132 177 11 22 117 96 182 19 84 172 60 146 200 145 118 178 127 81 144 212 178 101 53 156 198 82 196 214 215 172 46 130 131 133 26 68 222 25 180 158 227 167 135 10 154 42 35 210 237 242 182 197 69 210 155 103 196 255 250 60 153 46 209 29 204 56 251 27 25 146 199 96 223 131 121 60 255 148 227 4 84 21 109 196 233 50 135 160 247 216 229 83 112 205 205 216 221 108 38 173 20 55 225 106 117 49 104 206 203 251 187 226 80 60 53 115 238 82 149 54 120 87 44 7 206 93 57 197 27 206 130 231 44 7 81 168 136 134 102 160 240 78 60 115 135 173 104 134 163 177 134 65 241 106 113 222 71 133 41 17 49 86 66 216 136 124 221 148 196 27 187 225 105 6 157 220 124 222 58 67 189 0 62 12 131 139 169 188 118 32 84 222 219 177 7 125 54 237 67 110 23 143 89 115 210 224 103 227 154 195 133 16 250 158 104 142 180 111 10 182 16 146 18 132 193 242 27 197 233 160 86 64 72 32 213 142 241 46 79 242 16 50 233 113 69 46 124 96 36 23 227 233 102 218 49 87 220 164 36 239 231 98 154 198 185 67 119 39 152 79 102 240 224 93 63 53 206 186 151 107 70 122 239 108 60 140 66 40 55 205 32 173 71 164 176 165 134 128 157 200 224 28 61 60 126 14 153 18 232 58 73 183 69 120 6 243 144 142 23 47 25 211 104 232 253 25 1 16 231 39 166 50 176 23 8 77 51 206 188 127 85 238 247 231 178 100 145 86 112 233 217 4 100 204 218 2 177 11 9 136 55 237 82 134 239 53 196 200 18 57 3 201 228 38 163 255 13 65 236 60 141 184 240 94 112 153 20 164 80 87 8 57 101 9 39 251 251 231 237 38 46 180 118 205 158 51 147 208 135 162 116 206 21 115 188 72 77 109 160 78 119 117 120 7 15 157 147 209 90 160 36 201 173 80 223 81 75 91 122 66 151 253 65 166 82 68 186 81 135 74 13 106 122 250 106 140 218 248 113 35 162 182 125 30 55 167 50 134 205 73 144 186 8 62 106 103 107 160 79 114 187 140 243 226 4 87 31 42 226 5 43 13 10 66 112 134 159 67 252 114 254 3 157 50 165 30 192 10 200 24 89 25 137 139 28 213 174 136 40 218 252 86 209 158 45 79 105 186 115 1 213 178 220 58 251 175 129 9 84 15 207 37 135 251 210 178 190 196 43 68 113 126 99 4 96 139 127 30 45 224 97 251 110 174 160 219 75 95 95 81 34 199 116 137 47 81 130 132 238 144 81 72 5 225 25 13 195 226 162 255 253 90 83 125 93 39 245 126 68 139 103 37 165 69 196 39 23 132 119 4 194 97 155 11 128 166 192 127 246 123 174 162 248 239 214 4 37 17 220 253 243 78 103 109 30 242 135 58 104 240 139 132 109 132 45 17 205 22 2 181 95 30 215 217 149 156 145 72 208 34 2 225 162 221 157 42 174 137 193 205 61 134 221 165 149 93 36 140 93 162 34 150 96 163 191 234 196 21 95 194 105 126 161 131 228 2 210 158 87 107 76 30 255 58 14 79 121 31 244 111 23 104 204 35 81 246 203 206 137 170 114 8 22 149 5 181 52 24 245 97 137 41 158 161 207 240 219 125 100 39 210 13 143 236 107 147 11 84 172 34 55 178 116 38 81 43 190 61 71 234 156 245 143 18 185 48 142 237 207 18 182 4 141 141 170 185 10 204 204 2 138 122 227 125 20 188 233 248 212 196 243 79 241 254 143 49 161 31 4 118 65 119 37 61 109 20 231 172 162 35 101 79 241 14 66 202 15 167 164 184 0 181 73 167 201 249 33 15 74 197 238 223 55 255 6 181 175 92 189 64 95 210 84 60 150 233 236 215 40 228 221 60 224 213 167 13 35 205 253 153 252 221 246 159 135 101 255 238 44 121 246 207 136 170 239 117 1 87 143 119 218 245 157 203 83 232 43 5 239 78 51 177 79 218 36 142 133 21 237 247 86 63 219 86 170 45 86 104 102 229 158 147 9 83 72 30 131 176 188 94 35 207 116 87 101 98 93 134 184 13 142 18 209 212 31 16 156 174 69 79 244 60 210 170 247 5 51 231 42 144 104 32 24 85 87 19 71 7 72 237 167 94 167 247 179 88 131 135 187 25 221 185 226 43 91 238 57 64 1 210 15 78 208 121 236 72 122 38 161 224 126 195 33 173 253 92 233 181 194 178 209 25 99 95 95 228 56 109 8 42 39 108 247 4 237 234 33 184 55 101 169 224 53 34 138 162 203 175 121 193 231 218 60 84 146 206 254 65 150 38 168 95 204 178 197 98 106 146 180 56 152 107 108 116 54 167 63 111 53 127 110 69 207 199 137 0 18 197 56 232 83 65 46 145 121 141 109 174 202 19 145 130 193 157 119 151 205 118 198 56 94 75 171 165 204 189 211 134 195 47 59 234 0 215 48 178 244 229 194 198 184 2 196 106 248 57 193 252 46 232 66 246 132 62 175 126 78 152 191 155 229 130 38 37 94 34 253 191 235 128 192 80 5 209 80 96 139 234 140 89 10 135 99 28 212 223 6 223 41 121 58 33 34 249 127 249 76 244 115 196 57 220 43 113 48 248 226 133 244 205 167 164 206 36 247 155 18 108 219 38 166 115 142 28 157 127 86 58 243 188 242 173 151 144 162 223 132 203 114 78 154 125 70 83 96 111 192 222 143 71 67 109 17 49 229 27 38 30 239 236 233 76 17 29 149 231 198 77 14 85 153 116 119 239 168 75 255 149 220 20 228 96 159 57 104 45 114 127 26 24 3 212 0 93 55 75 24 194 161 116 241 221 11 127 22 95 111 103 171 153 211 30 90 94 23 97 170 109 5 118 161 230 22 117 143 141 79 162 230 126 195 30 31 243 141 12 49 208 232 162 134 102 32 7 102 171 202 159 242 13 17 115 180 221 161 42 1 246 28 66 118 39 24 33 180 3 128 8 245 173 136 191 143 69 37 238 2 69 2 112 200 155 253 225 209 236 141 46 232 121 27 254 92 176 123 132 140 146 202 175 31 173 181 97 243 68 138 232 63 151 120 199 63 203 221 48 73 59 50 184 134 2 201 42 48 85 251 2 127 61 38 48 146 151 219 44 119 118 97 146 140 239 41 7 129 246 53 209 63 82 205 76 82 83 78 218 171 111 219 113 77 146 176 85 202 167 218 68 205 115 92 124 173 174 188 110 176 181 145 80 74 129 184 230 93 27 156 0 4 66 195 54 192 11 114 155 236 246 176 55 128 19 56 236 134 198 240 235 181 88 121 235 136 85 141 74 185 147 214 4 102 96 40 162 46 69 26 59 80 193 38 2 148 147 95 253 177 107 53 178 27 72 107 247 29 185 183 187 100 172 227 189 4 144 250 124 235 114 5 212 28 96 38 17 12 82 23 225 85 225 252 104 44 32 168 98 168 59 211 76 116 173 60 107 27 231 188 203 50 154 181 19 166 104 125 224 161 234 59 251 210 213 148 117 180 185 100 177 38 206 183 208 124 108 212 155 78 225 10 92 124 232 245 193 226 105 96 144 202 83 40 124 238 23 209 184 94 34 50 175 129 103 149 165 133 75 56 139 147 108 169 223 82 80 89 139 70 11 126 246 239 61 73 60 224 39 40 72 81 85 123 229 110 143 99 90 63 138 215 194 196 110 250 147 44 167 197 112 156 26 187 222 230 27 128 187 162 197 119 247 143 144 185 26 226 249 121 223 43 243 101 252 106 197 112 111 146 63 142 238 32 118 203 143 247 116 2 185 230 68 203 185 115 106 21 176 31 40 78 18 35 15 195 238 42 106 45 131 1 96 51 32 198 89 230 234 145 178 186 48 193 69 88 212 74 112 227 215 207 228 158 10 248 78 97 51 169 207 125 240 152 114 248 48 12 57 61 74 169 36 208 35 78 201 63 25 93 172 175 232 199 1 194 96 216 152 46 57 49 65 42 201 34 124 238 186 67 254 164 217 185 71 230 126 207 221 210 194 254 31 128 30 232 187 176 133 34 205 116 22 112 223 131 147 26 16 127 45 211 138 67 7 165 64 79 73 182 192 9 142 97 96 201 29 156 48 192 52 86 59 249 189 121 164 56 201 235 212 101 216 154 234 63 113 177 20 149 150 113 200 79 34 146 194 124 200 32 175 156 229 88 0 12 84 32 213 67 55 38 77 92 232 91 117 120 75 137 149 234 144 166 3 111 125 215 146 169 203 15 56 11 188 21 249 251 166 179 56 240 238 233 188 153 87 43 151 100 251 179 79 255 214 222 185 45 201 62 119 124 149 59 64 206 72 126 35 112 133 83 106 242 205 42 118 2 183 25 103 14 115 182 76 104 251 212 211 46 95 195 159 8 194 152 193 225 187 138 206 123 247 33 116 137 176 68 200 234 127 29 61 199 34 230 239 185 185 171 218 138 239 10 103 224 233 211 44 71 119 23 191 228 149 146 8 181 221 14 180 66 161 178 155 80 112 188 229 143 168 38 6 176 149 53 63 136 6 48 59 198 160 167 154 125 31 228 73 54 34 98 233 67 19 143 228 207 22 132 87 253 99 79 255 209 22 145 35 80 242 205 104 175 108 205 195 47 102 21 183 155 107 237 162 91 124 126 152 186 112 118 249 166 224 179 152 149 128 47 21 134 150 94 21 189 51 203 136 224 46 96 45 135 145 235 161 51 106 18 210 237 160 154 166 191 73 10 44 62 10 62 168 26 212 167 251 242 17 142 119 162 26 29 43 143 168 237 37 197 12 116 238 240 198 128 237 219 21 29 231 190 176 28 6 47 59 198 226 33 154 36 6 219 250 150 58 195 206 72 240 160 109 248 193 46 209 37 63 114 69 130 147 36 175 165 57 154 122 127 134 227 23 217 168 108 18 217 191 28 184 70 86 64 54 63 194 75 156 237 54 181 170 105 127 138 40 60 112 50 168 1 177 22 52 55 194 193 60 84 141 58 130 20 67 27 31 51 215 213 58 139 171 95 96 105 98 3 4 238 0 22 190 138 147 140 231 232 80 137 84 210 76 147 43 189 194 62 213 47 65 118 229 1 198 109 14 126 167 147 141 113 32 13 79 191 249 200 165 237 56 113 127 92 188 125 10 11 112 188 4 240 204 149 2 196 0 16 242 10 141 166 241 200 144 8 151 136 156 171 132 132 173 124 183 148 207 112 177 37 85 162 226 72 75 144 52 136 69 77 103 192 35 70 122 136 170 165 167 111 29 58 9 227 85 237 133 198 30 174 80 105 242 140 217 197 82 184 160 218 5 68 137 113 185 52 26 39 60 114 5 187 16 249 240 90 118 230 120 30 109 242 77 36 172 76 44 131 222 65 160 80 200 50 74 37 91 177 186 104 153 128 84 35 21 249 193 85 184 159 105 155 208 78 17 53 151 162 43 245 234 49 91 26 222 65 124 15 20 174 106 169 62 137 15 194 127 21 86 187 139 62 57 202 9 33 78 182 39 103 81 255 184 247 157 135 232 86 102 2 127 144 2 209 180 205 185 48 227 118 214 32 244 58 33 37 80 169 31 209 168 102 64 86 183 127 78 31 48 255 218 18 170 6 31 55 180 16 7 79 220 183 132 138 146 64 38 40 71 75 143 0 88 225 90 71 238 130 37 221 183 205 155 48 121 240 40 28 155 212 129 108 134 245 218 246 173 48 45 133 162 99 187 194 26 229 241 212 148 101 218 15 208 214 48 34 171 4 254 0 60 45 25 82 140 105 46 25 217 3 111 211 70 9 213 169 176 239 72 89 29 140 44 170 118 149 167 125 207 52 21 93 25 14 25 49 140 0 78 231 5 179 233 223 182 101 66 131 249 114 122 120 240 210 201 201 154 95 98 245 16 21 251 174 205 46 217 237 89 34 242 129 7 142 82 35 36 181 152 114 39 96 41 100 50 140 46 107 102 214 124 183 155 82 199 234 162 226 220 135 217 23 111 211 127 180 31 49 181 232 6 221 144 222 192 94 153 245 173 91 149 222 73 30 220 90 211 204 245 150 15 159 182 177 247 153 119 87 213 7 216 31 211 228 57 10 5 235 91 169 234 149 57 128 103 252 35 23 242 110 166 28 234 28 85 178 104 241 125 131 116 240 166 241 142 229 158 230 213 250 136 17 159 211 191 39 98 240 90 51 72 214 92 50 122 244 33 10 156 102 171 7 103 152 78 99 247 45 102 100 4 209 251 115 48 67 45 89 213 75 168 169 107 85 122 248 0 155 250 120 63 17 67 118 67 234 220 40 8 1 12 210 173 170 76 128 80 25 49 141 122 238 18 177 18 42 81 76 9 235 194 152 28 96 99 41 128 196 97 70 161 225 121 66 5 169 87 128 254 14 15 35 204 29 121 136 103 97 85 201 25 106 26 166 203 24 155 152 124 48 254 232 0 154 167 108 168 179 188 27 160 108 206 22 163 84 72 86 149 210 7 103 175 93 1 45 183 34 6 196 224 71 81 123 52 98 223 156 105 128 233 221 139 192 0 243 241 142 223 167 49 177 196 137 145 22 84 249 117 52 177 6 128 153 58 107 246 167 191 238 254 57 34 54 191 165 95 200 177 49 246 2 71 6 84 139 224 177 81 147 81 101 116 112 118 176 45 21 91 75 104 70 171 220 85 48 45 26 144 26 61 205 84 66 214 33 218 34 246 194 97 92 213 166 115 251 116 160 16 33 13 143 65 240 234 36 92 164 8 242 37 254 62 29 181 38 76 130 24 164 33 245 113 199 49 230 157 66 118 66 27 182 157 227 47 117 252 62 89 201 97 120 68 204 126 35 163 139 229 168 164 198 146 76 226 79 53 182 218 110 87 131 15 173 27 125 115 77 0 113 55 101 207 137 92 236 92 196 226 34 231 235 15 62 139 148 65 61 209 144 147 112 94 30 117 121 151 106 128 235 36 21 210 102 194 235 233 170 169 4 198 30 102 246 153 199 111 21 231 140 113 173 4 180 77 202 3 54 50 56 178 185 106 197 250 74 169 108 42 63 16 137 41 251 65 143 109 231 11 165 154 18 217 193 207 164 207 218 63 77 222 1 185 83 240 212 236 245 102 211 136 109 225 73 117 244 29 136 80 183 253 182 120 180 251 12 218 44 40 157 38 77 205 97 221 4 132 19 105 52 227 222 125 9 69 84 180 186 252 50 65 187 145 6 107 224 135 29 177 220 153 85 131 187 250 194 254 235 197 57 68 119 190 40 43 6 11 27 14 16 176 174 192 137 246 170 253 129 7 234 1 78 32 152 161 143 175 110 199 20 100 147 46 234 244 178 39 188 99 74 125 115 220 185 210 160 22 211 93 52 129 184 172 101 159 131 80 9 194 2 91 179 80 235 106 7 153 57 206 218 150 96 234 237 229 74 12 29 200 111 249 208 80 6 235 18 63 17 189 4 121 128 203 138 88 90 103 137 237 206 241 85 119 52 178 56 84 116 170 161 225 69 33 112 23 223 85 41 12 117 187 50 253 188 104 210 105 33 174 131 39 242 157 0 160 148 101 236 108 144 103 36 208 122 251 1 127 179 252 49 224 10 179 13 41 89 17 62 108 20 81 96 142 59 27 18 1 183 129 96 206 123 20 238 28 152 159 67 2 232 252 138 146 118 218 106 90 50 146 217 64 25 248 152 200 160 118 91 246 93 39 178 71 231 201 150 119 80 210 252 233 33 52 141 159 232 154 133 247 229 97 135 160 88 21 235 236 80 201 93 212 157 185 7 73 84 83 121 88 196 51 165 114 214 98 215 152 161 206 250 200 90 0 241 217 89 243 253 53 75 73 8 4 116 86 196 237 101 146 27 102 66 12 90 236 129 90 126 133 218 157 180 212 217 142 67 160 41 49 109 57 137 125 33 33 179 249 230 181 37 59 71 96 233 34 162 10 171 67 36 69 106 51 21 167 189 194 7 159 252 149 142 32 24 91 125 72 251 49 207 181 174 108 42 37 71 102 196 109 57 42 161 34 249 9 9 218 220 145 40 198 176 204 0 192 7 35 1 5 247 92 188 210 166 99 40 140 213 218 37 185 19 220 58 120 147 29 132 38 80 203 65 16 232 102 69 90 10 16 42 79 249 29 162 206 37 225 254 109 131 246 205 10 155 147 145 69 3 15 0 214 244 245 136 37 154 192 135 54 136 169 242 28 195 129 252 234 77 48 36 234 0 234 155 144 156 124 121 198 115 98 16 64 189 122 193 249 109 183 138 156 118 138 235 127 45 225 118 21 125 152 227 97 184 27 192 24 184 211 153 148 21 234 35 76 48 134 204 97 178 181 125 73 243 170 126 249 113 165 67 44 14 213 39 196 153 242 149 49 98 240 108 177 134 138 197 1 237 79 181 16 209 11 184 159 164 132 90 222 178 82 154 61 135 40 79 126 244 251 153 35 10 24 53 249 34 16 157 35 90 33 62 59 193 29 138 38 94 252 128 208 33 7 196 145 151 78 165 89 93 31 48 49 235 244 216 20 206 203 232 255 206 94 120 210 24 179 165 224 5 181 104 241 222 107 202 66 196 159 184 159 100 209 243 216 1 139 123 5 65 53 148 203 38 118 167 239 212 188 23 13 115 10 29 71 108 250 219 91 248 80 158 161 75 82 32 215 16 71 120 59 171 95 203 154 41 116 248 103 165 248 193 188 51 238 22 128 180 166 104 80 154 243 247 10 200 95 54 230 248 45 147 28 89 178 175 46 40 24 123 185 131 42 183 77 192 224 145 98 238 242 163 215 7 64 226 67 13 239 80 64 101 179 241 243 96 208 188 235 192 229 20 212 183 144 187 82 165 142 113 102 114 163 200 0 192 7 208 34 145 172 62 193 82 244 245 225 242 22 189 17 104 170 119 73 33 96 190 16 82 237 30 176 139 146 225 9 81 130 48 253 123 254 169 49 6 161 249 26 146 10 150 1 93 101 254 126 216 33 146 16 244 255 218 132 25 188 186 130 242 32 135 221 13 77 43 130 216 105 209 170 54 199 100 77 46 215 177 54 65 194 204 21 222 152 107 99 18 216 211 134 0 189 167 124 24 145 159 203 150 51 117 35 206 131 191 10 104 121 42 210 141 156 132 3 210 248 236 7 83 73 122 88 11 210 109 45 79 178 188 235 186 191 4 102 246 142 244 124 38 234 81 242 17 126 175 98 251 26 109 48 118 100 159 86 41 141 106 51 54 216 47 184 240 231 39 218 113 252 160 164 170 135 69 166 97 152 16 114 251 33 251 204 75 240 248 9 243 146 111 217 106 173 94 221 52 179 55 71 251 58 182 44 60 207 78 129 65 30 105 91 81 165 24 23 196 126 206 198 23 166 69 193 99 250 125 58 142 119 40 161 139 254 4 212 5 52 26 137 218 107 200 134 169 171 255 225 154 222 148 116 200 94 231 29 241 46 146 250 153 184 249 159 92 222 65 93 249 30 104 177 76 61 161 156 231 62 177 122 22 218 5 73 233 31 133 246 25 78 27 159 26 213 7 101 124 167 13 174 9 176 233 37 143 6 182 219 169 10 110 174 194 171 162 64 105 88 227 40 43 193 151 100 219 81 26 82 24 153 20 207 234 239 61 218 186 84 188 135 89 229 186 45 162 195 2 235 69 8 52 59 41 171 52 112 30 239 67 16 177 59 175 150 129 104 141 23 82 0 25 55 9 29 83 161 201 103 139 51 169 226 7 1 183 242 76 157 118 178 87 20 196 13 27 117 1 7 48 69 60 61 187 41 0 149 167 97 165 190 99 17 119 144 245 19 235 74 62 244 124 240 130 208 59 66 144 212 86 226 94 200 34 96 254 30 186 99 214 111 110 251 189 179 87 241 62 5 142 204 2 47 247 188 75 4 121 155 221 38 12 222 52 201 241 55 233 152 91 30 77 60 128 108 236 59 252 118 179 253 239 138 231 121 19 230 22 189 206 99 240 222 245 189 25 59 2 191 67 228 49 244 195 171 182 49 218 193 100 199 24 112 56 118 21 32 42 255 110 163 217 29 5 163 85 230 211 190 23 236 28 182 194 7 59 37 124 103 114 59 218 171 155 50 217 108 134 166 5 39 193 223 124 165 87 240 196 2 135 20 236 19 155 57 22 139 140 127 26 166 74 40 215 126 205 127 28 65 178 246 24 36 155 235 118 15 163 100 175 234 194 97 34 237 197 104 20 182 77 71 173 88 65 27 133 250 142 73 5 152 219 75 72 48 221 11 235 50 13 45 226 200 248 158 109 105 1 1 172 191 36 43 159 117 210 66 56 158 108 147 249 39 126 228 37 139 66 255 206 81 190 75 169 107 6 130 217 161 169 62 100 42 64 125 152 23 170 106 127 182 131 122 188 174 165 243 189 93 197 185 70 215 130 218 175 203 165 99 210 21 132 96 169 152 98 170 148 158 173 178 147 47 153 124 140 49 68 229 177 178 231 135 225 179 147 2 225 255 75 207 188 43 177 59 154 133 194 107 86 77 162 125 28 125 47 219 172 248 252 210 15 56 113 140 15 118 26 62 197 225 84 159 133 156 85 182 166 1 66 2 150 42 192 190 250 218 235 95 26 161 175 213 23 86 249 172 20 79 15 213 112 214 200 32 122 114 66 188 124 199 171 156 165 211 122 210 246 65 123 53 168 136 221 223 218 1 125 239 117 156 52 86 115 55 57 231 218 114 219 254 77 239 202 221 94 174 135 9 238 120 170 26 163 121 47 68 253 215 228 86 176 59 112 249 133 229 25 60 176 117 59 217 154 36 109 28 184 148 133 33 106 179 166 209 251 206 38 215 188 80 186 108 127 126 182 127 182 189 35 189 31 102 0 220 106 117 66 94 222 133 227 215 29 102 103 255 75 174 203 0 8 149 118 54 107 228 104 114 93 21 110 233 219 243 251 66 16 63 27 217 87 127 98 69 3 225 243 226 207 187 207 240 168 144 201 186 58 227 137 164 238 253 203 98 114 253 48 232 177 162 90 229 207 165 166 76 67 81 32 184 18 191 246 115 166 168 201 245 29 94 148 204 174 183 194 122 75 241 28 8 147 24 126 98 118 97 186 74 45 92 116 110 167 143 168 208 111 77 113 53 172 171 167 251 124 219 100 170 81 36 195 66 116 181 12 166 54 182 91 55 133 230 244 126 114 239 71 167 103 39 220 255 249 208 49 221 247 146 248 158 201 151 124 27 108 250 254 134 11 146 149 209 214 254 26 191 33 113 141 178 73 101 133 164 252 84 127 200 247 160 112 165 103 19 0 29 152 68 5 34 146 219 29 46 44 141 24 90 54 210 244 233 9 115 37 233 56 112 40 147 226 169 19 197 148 39 145 211 242 237 166 166 188 170 138 156 99 11 82 224 235 213 163 57 1 78 210 5 197 25 239 97 96 170 119 93 144 113 169 55 173 101 67 192 108 194 79 208 102 167 16 232 196 22 184 19 136 216 213 140 193 219 65 178 249 247 234 252 119 24 153 49 25 44 122 130 146 192 87 204 84 132 214 150 166 5 18 51 87 83 130 67 79 171 242 16 254 178 73 17 244 179 243 191 190 27 126 57 70 16 10 128 163 133 210 234 25 138 80 56 144 216 212 20 101 142 236 3 100 183 196 111 50 136 151 3 150 235 201 192 102 98 67 158 169 225 213 78 130 162 12 242 217 42 26 39 186 238 154 43 196 216 37 118 194 185 170 20 201 90 114 99 43 113 10 39 136 189 152 0 65 255 168 253 179 225 146 170 148 170 91 81 50 194 82 27 254 50 173 187 211 218 137 61 196 187 93 120 117 168 73 82 141 18 131 125 116 22 54 40 20 217 61 221 75 229 126 137 216 83 150 211 173 181 32 252 79 23 138 6 223 253 228 241 173 122 30 22 61 113 196 66 112 71 95 78 39 84 29 131 212 92 91 9 92 78 76 217 48 102 63 169 79 212 245 217 5 86 102 99 81 183 112 188 228 122 247 19 191 147 246 162 122 117 183 23 22 51 240 88 121 222 115 99 16 23 27 97 36 170 117 3 233 94 88 32 76 187 37 157 2 246 178 29 65 193 211 194 114 151 102 49 173 48 238 176 60 45 239 190 180 83 25 90 211 245 168 232 225 170 10 237 237 223 180 160 32 146 119 210 18 24 8 247 241 58 224 186 187 114 145 6 175 24 215 52 14 197 230 231 123 186 77 209 101 51 33 110 233 44 63 101 196 164 42 187 142 133 195 99 115 178 221 155 226 66 60 184 222 159 37 187 131 197 172 150 181 0 36 198 17 152 172 48 90 141 241 146 148 97 159 253 215 213 92 170 124 161 18 242 127 182 214 74 173 124 154 164 157 7 122 209 36 85 211 49 217 87 239 76 9 58 137 36 65 158 88 44 208 83 72 34 63 147 126 206 216 212 42 215 33 229 214 146 210 48 58 46 87 79 121 58 38 88 125 18 139 254 245 77 90 125 84 220 184 80 241 63 222 44 86 2 183 251 192 60 254 46 113 193 132 71 128 15 153 27 254 73 216 233 65 248 79 1 244 55 1 196 130 150 190 235 199 76 108 95 253 39 202 215 47 3 172 116 135 161 177 52 89 147 71 47 92 218 0 144 87 224 92 162 21 155 253 97 1 130 12 105 181 111 220 67 197 139 234 50 71 57 85 18 204 240 198 204 93 241 56 120 167 111 40 39 219 115 138 46 36 130 178 100 64 252 19 212 93 206 194 219 163 174 216 15 165 220 197 53 32 214 134 225 155 40 7 206 6 103 119 198 250 227 15 101 223 226 0 149 211 8 89 56 57 220 87 196 29 94 20 110 93 239 130 46 162 101 67 242 188 91 111 33 149 108 4 150 174 36 78 23 172 173 42 4 6 173 78 201 54 207 250 130 242 152 152 14 94 30 51 179 96 98 98 9 235 167 138 125 107 220 196 161 180 157 102 13 95 21 227 18 193 223 206 115 13 111 215 53 155 28 77 27 240 40 246 183 19 255 137 142 32 150 209 216 65 30 58 66 176 119 129 88 15 232 86 213 81 40 51 8 139 146 168 132 136 155 199 133 20 109 212 128 120 169 87 218 75 111 154 112 61 6 233 113 167 48 87 237 242 144 123 110 251 71 94 93 81 117 242 30 8 215 5 218 120 6 230 1 251 59 116 193 188 206 148 118 51 195 127 217 6 211 61 84 168 137 72 97 147 253 84 16 143 213 93 67 73 25 11 30 176 28 151 174 109 255 163 44 248 70 210 21 1 67 243 208 174 25 102 126 177 232 162 247 168 18 184 251 60 36 183 74 88 221 53 5 206 187 180 217 144 184 217 55 210 224 37 38 176 78 46 215 215 123 145 31 237 71 222 238 184 90 76 196 140 245 27 115 241 167 85 244 241 87 228 49 130 184 198 33 200 64 27 94 43 71 150 202 1 11 11 206 182 38 193 34 229 37 7 114 83 27 187 239 243 129 29 102 78 12 114 162 55 201 95 65 148 212 58 99 200 95 117 158 167 53 233 212 139 155 118 96 6 47 227 45 74 41 109 98 231 195 112 175 176 79 135 151 6 15 174 10 252 58 204 240 118 54 133 144 107 52 210 230 133 22 167 2 165 177 11 63 251 37 32 214 253 124 99 152 129 165 39 99 97 164 56 234 237 213 176 10 0 86 242 40 172 10 188 6 18 92 7 237 203 17 135 59 194 225 101 8 108 108 56 148 182 212 210 205 136 38 173 79 160 220 119 0 171 90 207 106 142 62 119 125 150 64 103 124 127 77 54 191 87 208 229 72 182 122 66 212 163 83 154 204 76 9 90 128 185 182 47 11 24 103 67 211 158 208 142 182 239 79 85 154 171 81 54 30 107 36 123 200 147 121 255 222 74 254 196 114 162 105 70 66 228 72 49 183 119 194 218 112 11 61 121 78 86 99 83 198 111 129 237 70 27 215 106 234 86 105 254 224 176 207 184 185 20 78 101 240 52 252 181 39 28 130 246 83 104 254 144 222 156 202 116 2 45 141 135 63 104 140 14 25 232 200 78 11 14 13 178 106 199 139 54 187 202 213 73 12 132 241 55 137 71 68 51 9 162 232 222 252 58 224 212 97 121 216 121 119 14 96 176 166 101 7 255 69 5 167 72 154 216 233 7 36 87 41 143 65 49 58 5 175 181 217 162 206 255 72 23 230 162 223 36 149 141 96 107 60 195 87 133 137 249 204 245 11 216 220 146 144 133 51 156 249 100 138 14 91 133 81 203 5 33 225 115 110 31 42 6 157 75 85 236 15 183 119 232 103 106 170 223 229 72 48 61 162 75 161 237 121 94 193 166 92 243 131 159 185 113 43 251 177 44 166 108 39 202 31 176 48 227 245 67 140 6 44 176 125 110 202 210 41 39 238 18 158 51 129 124 130 54 200 234 117 24 95 30 66 233 107 66 238 45 81 65 190 83 205 116 162 43 154 36 224 245 172 165 218 86 245 77 160 195 197 206 120 251 13 227 94 192 182 177 113 145 202 220 116 45 230 166 132 126 29 188 254 53 97 77 75 249 84 97 148 61 224 203 150 236 92 133 116 194 221 141 170 6 153 244 231 232 13 111 250 214 105 189 87 38 8 23 172 228 156 172 243 161 90 235 125 201 14 53 56 13 41 73 242 29 133 170 163 84 18 63 183 229 