P3
#HOLA
50 50
255
199 52 251 43 153 195 100 125 239 199 112 27 44 240 20 221 63 96 12 3 123 98 86 143 222 132 7 25 3 22 232 14 182 167 164 91 232 174 240 16 206 102 243 57 135 249 106 154 163 150 141 68 41 53 131 250 163 123 187 154 56 145 5 116 127 123 68 37 166 56 239 146 24 253 173 127 244 121 137 49 141 156 69 112 169 126 78 95 98 14 15 217 104 112 205 40 132 126 198 102 214 76 231 6 182 213 80 210 87 114 117 208 245 149 76 126 83 1 207 33 167 108 138 25 105 66 139 49 65 136 44 40 244 94 83 77 35 187 36 27 157 128 211 16 192 199 83 45 244 147 1 181 211 40 146 74 94 137 12 15 46 65 50 230 19 216 245 205 182 28 135 237 4 7 128 134 17 183 105 23 97 5 148 232 181 98 27 235 118 168 21 125 81 163 119 21 3 195 69 13 41 236 23 144 231 208 42 105 229 57 157 22 234 69 111 234 112 152 213 120 191 157 230 190 151 125 149 14 114 212 171 216 246 8 91 255 133 12 188 160 226 23 113 246 170 38 243 127 199 192 113 98 22 230 35 144 61 127 166 184 89 217 164 95 157 214 192 150 239 76 172 64 12 67 112 55 12 195 1 89 140 250 222 245 216 47 41 97 246 164 182 107 145 45 54 206 146 86 16 142 20 101 241 89 10 201 83 177 94 226 48 109 98 36 62 132 154 229 202 20 254 42 145 238 179 86 88 193 122 158 105 75 163 47 12 231 102 93 141 246 246 8 112 250 16 33 239 82 41 199 99 29 184 55 140 217 211 249 69 177 163 119 208 12 128 32 202 136 96 103 195 223 124 208 135 246 221 47 164 64 186 163 209 234 57 182 23 46 115 66 240 43 154 69 183 227 127 10 90 65 76 81 2 216 241 51 142 59 254 86 231 22 5 20 37 110 245 220 134 93 10 150 102 14 186 0 182 224 24 133 235 191 140 93 98 210 110 242 134 83 183 187 92 255 8 221 129 198 63 233 34 46 212 151 174 76 226 230 169 203 49 83 60 161 242 183 84 103 75 37 10 125 148 100 207 208 35 72 148 128 227 69 238 160 204 23 78 72 120 252 59 136 54 96 117 62 124 222 252 37 244 26 15 47 155 232 243 90 173 109 27 20 80 16 166 113 78 124 156 139 28 4 171 69 152 183 254 129 53 227 110 55 251 245 150 124 144 174 178 200 11 117 195 87 195 207 246 251 97 93 167 242 73 187 171 126 180 255 98 203 136 153 160 129 241 182 89 201 224 222 93 34 239 33 241 230 241 80 131 12 209 28 217 56 122 136 33 241 210 131 146 38 121 161 106 184 110 180 74 101 24 215 4 70 220 83 54 41 13 151 207 199 150 127 147 65 59 47 181 138 172 99 51 160 198 12 226 20 231 156 48 121 46 37 50 239 105 98 117 225 23 18 74 142 23 234 65 72 135 80 56 69 216 139 248 21 53 83 26 131 99 189 125 163 233 189 197 35 24 229 119 88 206 12 219 104 167 56 202 241 250 218 255 222 158 103 224 253 70 139 191 40 41 240 37 74 168 243 64 73 149 218 199 77 194 216 94 23 55 202 105 35 40 193 141 183 149 177 202 25 194 48 4 186 248 166 242 36 12 86 9 103 189 33 75 232 190 232 79 240 131 100 199 232 118 160 238 10 5 148 43 203 239 207 43 110 119 48 58 171 18 3 40 73 122 106 117 5 11 155 20 204 248 179 150 237 127 90 50 105 109 193 106 60 82 204 195 13 172 209 3 81 131 246 90 20 234 245 141 17 169 60 54 200 51 181 145 45 0 77 192 75 116 194 128 27 159 126 81 195 179 195 167 101 134 137 67 100 142 58 247 205 249 50 232 213 39 213 166 43 170 130 29 43 161 210 156 135 118 19 135 185 236 21 131 221 152 216 237 48 242 151 196 156 80 254 53 146 73 109 53 57 110 16 187 216 23 169 98 70 3 229 78 201 126 52 61 209 179 241 57 111 45 93 168 34 135 123 213 109 82 95 228 77 237 12 252 46 253 133 241 82 77 174 76 181 239 243 31 194 197 229 77 125 139 136 7 241 70 60 229 47 147 223 111 73 208 140 6 248 42 6 191 43 71 145 189 202 68 121 184 98 0 9 124 48 139 104 127 15 64 12 79 233 63 224 130 140 203 94 211 64 212 187 19 16 153 241 210 171 9 145 117 135 20 64 89 252 105 187 69 21 30 242 3 12 173 130 17 135 205 232 44 86 87 247 139 212 224 157 52 52 68 210 34 99 179 184 248 27 34 199 180 106 60 19 196 3 153 116 61 10 228 103 16 225 95 69 162 124 9 231 139 174 140 247 64 51 63 180 137 41 205 156 181 54 124 107 67 191 177 140 191 24 124 118 33 209 133 23 130 101 154 17 22 122 42 186 5 105 54 239 50 45 137 31 35 132 182 139 216 150 165 69 247 49 24 69 177 92 145 122 62 207 250 255 131 72 8 28 191 252 217 123 179 149 94 145 226 139 62 6 183 185 134 19 84 109 93 83 0 83 142 221 72 167 123 115 98 64 20 216 140 68 36 205 121 115 174 182 159 69 211 179 166 106 65 13 63 37 71 1 119 10 133 57 212 12 63 48 209 1 215 86 102 69 72 202 106 61 13 149 24 162 24 178 78 212 79 193 43 228 191 31 45 139 175 231 238 169 11 143 65 18 0 19 55 103 144 228 173 238 193 165 95 191 234 218 254 143 84 243 141 58 215 123 234 100 174 237 84 106 34 71 149 223 122 29 2 29 205 70 240 46 126 203 3 57 121 219 177 170 111 250 122 199 131 59 9 129 98 107 186 176 15 70 223 24 2 188 226 78 252 101 206 0 14 51 96 145 100 189 27 15 106 70 135 250 223 81 90 185 186 95 62 105 151 132 91 133 16 181 183 58 186 59 112 21 116 69 163 76 109 127 57 218 134 249 27 228 51 247 248 110 217 50 56 8 81 122 94 194 53 77 199 254 83 90 65 101 73 170 111 198 155 18 242 82 228 251 6 0 13 246 17 176 251 108 9 11 39 180 194 163 106 109 10 9 173 108 80 109 185 37 220 46 31 181 225 23 99 209 214 101 143 227 21 120 141 241 149 112 215 135 8 71 50 228 205 82 244 220 239 124 33 32 184 142 126 255 49 185 175 34 11 211 66 112 50 35 105 111 53 27 74 22 99 242 20 17 66 215 148 40 187 127 14 75 195 68 41 76 157 61 184 42 218 244 101 207 184 243 41 193 190 30 171 182 71 176 108 191 125 109 162 209 110 196 105 128 114 223 224 116 82 59 34 98 202 23 15 183 50 50 138 104 153 168 135 147 122 79 74 36 46 70 218 158 113 63 172 71 0 178 62 193 227 231 1 126 65 38 129 63 1 174 201 155 16 180 251 107 123 241 132 42 114 124 92 183 60 156 78 71 71 135 127 151 100 57 29 192 10 146 133 197 138 142 241 91 162 27 198 244 190 18 45 30 148 151 226 81 4 206 72 125 202 222 106 85 100 47 35 61 39 92 7 137 122 209 80 84 179 219 202 125 160 5 27 3 1 177 54 49 161 177 27 154 177 96 62 151 125 135 227 15 115 46 190 22 78 205 201 142 23 31 112 91 73 73 163 216 99 74 216 124 61 104 198 59 154 177 46 153 160 134 38 135 15 179 229 72 251 59 150 255 209 248 70 222 148 7 84 7 188 203 244 215 181 187 98 251 244 82 156 106 44 113 53 134 119 6 166 60 144 115 106 73 212 43 214 176 120 243 112 24 111 234 77 162 56 95 128 40 190 184 6 249 90 182 133 95 26 177 13 71 125 117 229 91 19 240 136 206 176 151 24 61 108 252 11 12 231 229 196 130 120 122 129 221 97 20 130 4 67 219 152 50 237 63 235 97 110 208 170 113 253 133 148 34 225 78 169 72 53 16 86 224 119 240 48 165 168 105 73 127 165 165 245 159 253 225 63 129 191 162 88 232 83 107 163 144 138 56 149 163 223 73 161 36 251 9 56 37 144 132 107 248 33 152 72 75 104 155 81 157 72 231 168 216 78 185 77 142 206 125 60 110 194 236 227 20 237 63 82 128 249 154 49 173 244 130 188 215 58 28 151 142 104 35 124 113 138 251 20 75 69 72 195 197 162 8 19 167 43 143 217 200 65 177 183 185 127 241 40 99 154 115 53 99 232 223 64 7 104 59 128 253 137 81 116 235 135 169 68 177 195 156 22 217 82 224 8 159 122 162 170 70 41 46 110 56 143 109 89 168 217 237 32 253 181 53 41 189 134 140 91 93 217 66 72 230 149 129 231 35 67 34 19 99 153 189 55 121 240 151 7 223 20 227 61 168 195 149 110 121 2 246 91 228 191 34 178 139 218 41 215 210 175 162 42 5 195 149 245 128 132 186 127 193 131 81 110 190 19 94 173 150 170 82 163 122 218 133 55 55 18 133 28 33 108 198 48 55 201 2 159 126 112 117 190 86 186 142 59 134 213 224 191 134 163 149 115 163 175 45 175 4 219 10 255 243 235 122 214 139 160 235 67 82 187 12 235 142 104 213 32 149 234 116 96 161 30 170 235 143 23 110 199 140 107 89 205 20 8 229 19 118 170 205 69 30 244 85 65 130 19 225 255 12 45 215 236 46 127 222 98 61 48 206 155 179 150 99 126 131 191 158 92 4 66 87 110 171 132 194 216 224 85 7 107 9 179 185 80 236 168 60 159 167 17 68 180 136 178 48 140 9 140 75 188 139 87 235 79 157 87 66 152 30 69 100 20 169 37 163 245 119 21 97 248 102 184 11 246 115 163 81 220 55 13 104 9 155 125 128 253 57 79 123 96 7 202 80 118 141 254 11 54 107 246 155 35 221 8 171 212 157 181 159 144 224 154 158 230 217 245 226 144 217 189 80 125 205 234 31 60 91 152 54 34 60 129 246 25 48 236 178 168 3 247 76 11 147 111 26 208 222 106 144 150 228 226 30 181 237 17 247 57 33 246 233 248 149 89 189 95 74 132 171 51 29 254 30 52 226 185 132 253 12 10 6 119 67 226 153 242 62 52 180 235 36 138 141 109 196 48 96 203 135 32 206 50 19 5 191 44 60 3 6 43 16 53 162 156 15 33 192 69 176 250 251 143 186 7 169 230 78 188 185 234 20 193 166 239 17 183 122 174 221 65 56 46 41 53 242 54 34 205 35 245 222 252 142 129 210 3 143 226 103 103 253 99 232 100 244 63 153 30 21 41 113 133 26 237 178 129 134 120 198 158 237 184 32 3 45 140 194 171 193 45 233 5 148 141 129 217 56 73 65 207 174 117 149 158 125 219 62 210 16 128 116 64 41 110 187 84 135 18 91 221 141 223 230 39 109 217 220 9 171 146 207 102 144 251 255 253 14 239 148 159 141 73 114 52 230 220 244 247 221 111 158 5 253 132 132 242 116 150 13 15 37 151 203 179 173 168 92 125 50 226 245 58 130 54 84 134 140 67 86 163 27 63 223 17 104 211 12 117 179 243 246 237 124 52 212 107 141 120 53 64 237 172 107 138 69 26 254 188 231 192 247 49 164 157 47 97 115 195 67 240 149 161 69 178 107 26 144 48 110 171 32 153 96 111 118 130 205 110 34 219 46 137 74 6 30 7 217 230 136 141 230 42 231 112 59 89 96 78 100 36 104 231 20 33 213 34 1 111 119 190 123 45 95 125 225 153 96 70 93 193 250 85 245 153 237 66 34 253 141 148 226 94 25 117 136 76 227 184 228 219 108 87 204 163 88 73 191 62 74 132 251 200 70 109 85 184 45 150 25 180 31 134 188 30 86 79 111 85 205 24 4 75 90 230 163 116 221 216 62 24 89 204 66 141 226 93 236 201 123 192 116 252 20 200 145 37 150 135 67 222 115 230 162 62 167 124 102 218 142 201 230 78 125 214 58 97 228 156 137 86 10 136 56 139 144 172 216 45 110 205 160 220 126 204 129 28 248 14 127 94 247 149 140 222 251 182 252 73 9 123 204 86 246 141 39 84 3 236 109 254 46 192 41 82 133 163 208 199 225 93 145 172 235 225 198 27 40 221 74 219 117 178 17 79 100 94 93 90 204 209 243 209 228 109 231 1 69 13 96 151 60 254 95 109 69 236 211 227 231 207 212 88 107 237 119 174 219 27 113 83 239 215 192 207 205 89 188 64 79 187 131 157 222 48 11 205 200 244 33 210 180 214 48 85 212 73 109 162 169 137 86 77 187 87 189 101 19 250 164 6 42 110 251 0 73 237 28 54 34 46 142 73 96 94 34 37 7 225 195 63 68 241 96 217 230 204 180 113 186 168 214 159 66 230 59 124 32 147 100 227 47 121 106 10 16 97 109 24 242 7 199 15 109 246 23 28 148 134 151 205 96 116 129 240 62 19 211 229 156 75 232 189 216 113 5 108 47 150 0 114 214 165 113 180 26 42 107 232 73 108 160 228 212 48 186 241 183 97 213 31 107 249 130 230 196 116 235 53 83 134 5 224 36 220 23 227 242 203 30 110 83 245 26 115 110 183 112 253 119 114 139 16 37 98 27 94 102 142 210 0 15 19 247 92 39 118 210 203 227 53 229 97 177 80 191 66 90 212 79 199 7 91 16 82 111 239 117 191 133 133 163 95 44 215 26 62 234 124 122 149 175 60 215 122 135 144 9 176 149 221 1 228 172 101 153 105 128 213 214 170 24 101 32 246 54 113 26 184 129 147 105 144 70 76 176 244 206 161 177 146 135 65 27 207 224 83 185 11 91 65 21 69 184 122 224 10 183 51 119 192 102 45 24 179 155 100 204 13 90 81 152 46 117 167 151 108 221 36 237 164 238 54 249 240 219 8 96 250 114 140 251 167 253 3 12 104 119 167 82 242 208 14 190 95 204 253 76 156 135 121 164 102 246 211 41 112 78 185 17 229 212 97 100 180 78 18 117 142 140 66 190 14 177 82 179 180 118 86 115 121 17 141 106 82 2 215 66 110 162 249 20 109 222 98 86 35 250 7 229 131 192 168 40 165 161 193 69 85 101 18 228 141 122 1 205 253 176 51 40 127 118 78 253 36 172 179 235 146 245 166 221 153 185 113 75 252 140 191 178 113 156 0 58 70 251 253 67 3 118 213 134 169 218 90 112 46 177 114 102 81 220 83 53 203 41 75 100 10 113 129 81 171 205 6 255 120 241 77 77 11 148 32 35 85 165 41 137 58 212 3 71 149 233 103 4 127 4 122 206 35 82 192 248 19 222 130 216 222 160 1 254 233 48 216 22 103 252 119 182 55 17 221 56 249 215 145 165 62 208 126 179 76 111 235 63 245 99 100 212 61 151 24 107 221 254 8 248 236 239 14 210 8 40 76 158 187 115 115 136 101 0 114 81 140 213 242 173 176 163 160 28 178 156 90 98 171 120 198 46 140 188 191 221 106 190 137 120 185 97 152 107 191 189 96 131 60 41 22 153 201 99 203 9 96 161 168 52 166 185 193 12 100 65 30 14 142 74 49 202 77 126 213 38 198 99 14 15 19 157 56 109 202 111 178 48 89 252 23 243 60 162 202 221 29 207 96 177 16 68 169 195 254 130 7 210 62 4 52 66 188 157 220 33 133 220 75 120 49 71 230 220 135 5 102 108 112 243 206 73 19 1 78 134 183 80 78 244 217 176 91 4 165 239 236 72 58 27 192 30 88 24 206 29 196 25 203 6 32 35 212 123 146 238 65 114 43 144 95 176 118 141 23 148 254 142 59 51 114 182 46 156 141 189 233 221 242 38 9 243 221 248 82 206 234 231 77 239 58 34 11 226 242 127 50 47 80 166 184 177 124 203 220 219 17 5 125 54 192 136 193 27 198 124 124 42 255 11 87 25 24 25 90 14 108 59 113 81 179 98 59 215 123 223 94 127 1 76 240 78 53 85 163 91 239 107 55 174 144 146 224 253 88 96 79 119 133 248 219 68 249 75 13 153 129 107 216 179 138 80 66 89 81 184 118 26 116 196 11 88 37 80 178 235 215 101 174 94 172 205 248 23 156 192 34 177 20 184 33 105 7 107 12 237 36 172 226 82 33 80 81 51 229 139 64 54 65 103 221 153 34 78 98 8 157 192 146 142 176 87 9 161 205 111 210 121 31 15 132 185 172 45 114 60 8 245 137 108 195 160 82 220 163 45 166 204 225 253 225 7 224 251 63 149 95 149 10 28 176 244 242 43 55 207 185 7 60 7 163 167 45 207 40 178 126 194 11 201 215 48 17 185 220 104 59 95 118 61 254 174 169 42 186 118 176 143 250 147 223 163 230 198 204 87 224 31 20 103 203 115 56 164 209 58 220 84 10 14 66 24 8 89 191 178 95 4 81 60 90 175 179 251 245 86 35 175 83 245 162 92 71 139 24 2 97 59 170 107 156 149 35 116 208 54 232 227 68 231 236 25 232 87 29 248 131 86 134 55 181 1 23 114 231 162 40 175 121 208 182 201 111 191 83 138 60 212 222 158 151 12 179 167 88 156 188 228 242 219 12 202 16 249 43 116 123 15 131 69 231 12 116 117 183 255 167 61 191 220 189 214 122 132 182 131 50 96 95 86 244 203 25 245 65 23 124 67 25 168 31 212 149 235 202 12 1 5 215 243 135 164 75 33 2 208 84 173 187 18 165 100 2 20 222 24 41 117 120 6 153 102 13 41 164 125 139 177 19 216 199 126 15 154 97 131 66 144 99 136 33 128 227 33 217 88 44 173 239 160 225 151 148 143 125 128 231 118 225 166 221 100 180 184 88 91 6 46 118 55 209 180 223 234 77 238 182 194 146 117 15 195 102 217 53 17 56 166 44 174 19 239 101 67 196 74 73 143 46 189 105 91 46 55 31 247 106 109 73 178 126 214 63 24 180 71 210 226 149 251 109 79 57 78 163 99 28 18 44 73 185 188 146 13 37 157 194 185 152 14 212 147 133 33 17 234 63 44 157 215 105 177 8 190 51 253 152 13 231 58 110 49 54 198 208 170 76 148 117 16 40 41 23 149 145 243 143 66 158 161 117 191 54 156 40 242 197 14 6 214 6 215 255 203 173 251 187 62 133 117 15 188 132 241 8 82 101 41 203 45 49 101 72 199 125 106 111 66 117 197 184 13 206 13 133 11 123 54 179 227 163 68 229 73 209 167 14 39 179 181 3 6 97 29 87 241 33 174 15 169 146 242 153 237 174 148 137 54 238 9 143 54 62 27 91 95 75 111 155 127 144 168 113 53 129 124 137 150 31 114 172 109 120 180 219 207 0 127 45 94 81 167 210 88 218 88 31 252 224 196 167 112 113 192 240 221 43 52 193 254 128 96 154 93 166 198 54 11 141 219 232 43 210 90 86 118 225 236 40 127 109 116 32 209 236 14 6 22 148 107 144 225 68 207 137 14 186 223 37 1 99 231 65 5 231 137 124 143 136 192 108 212 56 136 244 32 104 163 133 9 23 47 94 180 50 75 182 29 101 139 204 63 84 197 54 63 247 250 27 41 103 119 197 208 139 147 68 208 99 158 148 232 31 163 89 129 224 255 219 29 80 29 252 72 175 24 38 228 148 234 231 129 135 108 82 34 204 77 70 127 140 152 143 140 101 31 178 89 174 201 92 152 14 72 159 3 128 221 140 217 109 210 253 219 16 9 61 200 24 227 138 108 58 221 175 60 19 185 133 3 191 44 220 128 225 7 229 129 21 135 2 76 179 198 40 111 117 189 87 124 57 179 86 217 163 234 21 24 124 121 164 38 89 104 190 106 26 82 16 199 2 158 30 212 32 46 239 210 186 252 120 152 206 136 222 198 31 115 32 22 128 15 90 222 11 81 111 146 51 8 122 42 22 70 9 153 237 15 205 200 55 66 188 159 114 114 90 71 22 197 247 241 96 158 77 247 28 177 204 61 51 33 36 212 183 192 60 181 163 239 20 110 0 128 230 227 245 83 223 46 225 79 86 237 148 93 248 35 182 206 214 220 223 94 114 165 154 250 94 196 33 53 189 207 30 173 200 170 221 51 192 3 193 21 239 184 40 160 129 188 20 16 154 196 161 140 200 164 254 47 191 39 138 98 146 22 32 200 5 115 209 236 190 197 59 46 250 99 87 177 70 96 87 130 207 146 173 178 236 162 92 251 71 216 95 0 42 235 137 198 35 164 124 47 182 223 94 254 145 81 93 221 86 248 46 117 191 239 138 35 112 204 94 253 145 58 10 160 17 60 117 101 109 61 114 24 254 32 162 182 78 192 72 198 124 150 163 43 0 74 176 31 170 175 126 58 161 39 245 120 250 89 192 24 57 187 171 199 240 181 184 106 150 151 198 96 34 68 249 160 139 120 158 21 72 69 110 166 35 135 181 91 22 11 33 196 215 77 52 42 178 219 175 58 238 94 148 52 18 154 65 115 240 132 200 213 105 157 213 195 131 194 169 23 144 103 190 152 238 68 14 237 3 107 129 177 245 232 128 227 153 117 113 235 5 162 144 109 237 87 29 114 144 167 129 182 229 255 253 80 225 238 111 119 43 195 113 47 243 111 173 198 57 140 234 57 43 72 133 112 175 242 204 137 123 23 154 10 168 41 63 85 29 72 168 109 16 76 66 72 29 55 74 170 40 98 176 91 143 40 107 154 156 79 159 117 28 102 137 119 44 32 193 214 81 47 175 145 169 89 16 40 223 169 93 21 170 2 126 121 97 62 252 108 124 8 157 58 71 35 122 67 157 203 109 65 185 202 126 82 166 59 226 210 158 235 64 128 74 37 63 230 152 95 117 213 97 131 106 36 30 233 235 9 210 28 172 203 23 120 95 158 82 43 77 222 254 87 251 45 74 202 158 162 205 170 85 26 212 13 180 107 121 233 198 63 227 99 3 219 54 62 148 173 60 61 204 169 70 59 127 207 49 198 51 251 228 203 80 240 73 122 213 54 138 143 143 236 26 15 225 5 8 111 37 138 236 65 226 39 4 63 169 208 107 35 128 47 91 110 101 168 139 124 218 169 228 233 14 141 107 174 50 7 50 143 246 85 92 178 55 14 230 120 194 12 123 31 119 51 126 17 221 79 54 82 17 20 78 25 246 234 55 15 253 203 109 52 36 77 231 58 141 162 166 32 174 90 211 48 210 201 146 39 7 35 10 20 159 68 147 143 136 130 89 117 81 68 134 166 4 195 123 94 41 203 191 87 204 109 236 120 98 189 123 122 112 151 76 166 227 157 19 90 238 187 150 147 138 135 244 201 4 227 11 30 208 0 203 168 213 11 118 110 2 237 8 191 115 114 17 205 176 83 17 204 247 99 168 71 247 15 253 1 227 125 119 188 23 148 185 233 114 136 118 55 101 242 208 191 208 94 23 27 66 181 244 251 85 252 22 77 183 193 112 150 138 33 94 247 181 183 147 94 130 151 32 103 88 22 251 206 242 234 249 212 72 50 170 235 116 19 239 48 131 117 155 22 241 183 230 211 54 162 243 215 162 234 77 40 124 39 156 115 1 31 59 27 23 86 99 31 136 231 76 131 2 244 63 31 86 172 251 34 197 0 80 212 136 203 161 94 15 247 219 55 87 251 224 222 254 19 202 227 130 137 231 75 112 213 138 233 204 109 180 63 178 85 246 208 50 115 254 94 17 178 23 167 73 110 32 89 202 38 220 147 234 139 117 21 86 140 46 208 59 23 55 157 174 216 201 72 28 54 68 125 198 178 204 23 173 202 158 69 74 97 1 157 66 15 67 170 172 20 186 91 130 144 59 4 142 9 221 0 107 126 81 133 117 16 105 108 84 204 230 74 226 11 114 85 113 100 122 200 219 65 195 48 132 202 4 237 64 56 35 174 208 34 235 166 19 3 207 134 148 36 213 189 47 159 127 9 32 148 118 41 180 141 166 175 177 228 149 215 95 118 118 183 2 43 226 86 62 39 151 14 41 45 15 62 170 204 173 7 156 121 55 139 79 144 124 253 223 105 207 237 170 29 46 7 100 26 169 210 122 193 154 146 160 183 241 213 86 99 149 50 217 253 254 173 210 220 32 200 237 247 239 78 147 232 106 55 245 221 140 167 97 212 29 200 166 117 19 47 138 60 208 241 107 202 243 85 200 248 172 218 160 249 152 28 115 67 250 155 200 196 205 92 22 201 150 26 160 21 102 100 189 144 27 177 235 105 31 94 15 205 175 43 251 42 158 94 246 249 40 234 54 68 167 147 252 105 253 135 201 11 32 42 182 14 183 238 92 73 40 175 89 249 179 209 16 169 58 241 100 5 88 131 140 53 222 228 112 139 11 43 95 246 16 10 48 76 164 138 14 175 223 169 102 91 164 45 114 81 96 72 116 137 74 240 114 231 118 128 237 106 83 89 255 13 46 72 168 241 175 238 215 72 93 43 215 96 8 69 121 205 73 199 242 28 27 144 37 184 183 35 97 156 185 179 139 56 93 5 120 160 17 100 88 97 9 87 19 156 231 4 163 74 5 37 22 70 98 76 240 244 57 39 184 68 213 189 211 244 91 209 196 60 160 128 53 178 210 178 41 52 255 187 253 236 113 108 48 187 201 222 146 54 252 121 252 66 73 70 71 190 79 238 119 229 147 149 174 2 73 192 220 51 177 134 105 10 193 252 117 163 11 137 220 169 18 122 93 231 106 194 60 41 116 169 29 216 61 69 160 225 155 25 251 230 186 213 207 241 162 71 86 204 156 252 4 6 110 147 133 21 52 91 226 39 78 133 148 72 55 111 66 202 32 86 198 160 98 120 110 2 180 147 189 190 187 67 195 103 72 121 110 122 142 126 191 76 60 93 223 37 62 40 3 224 242 76 138 76 10 171 196 195 181 189 214 175 48 203 171 167 90 108 139 23 188 22 178 182 48 194 107 226 227 169 192 247 253 62 70 153 248 146 222 130 87 104 15 27 12 94 8 250 105 138 5 119 130 225 49 52 167 130 240 28 57 244 143 248 248 189 208 39 25 206 29 151 47 250 32 19 203 98 251 129 182 245 130 212 100 55 252 97 173 170 78 27 237 118 207 149 119 125 118 252 171 103 108 66 122 195 89 161 248 89 109 3 116 21 249 185 18 38 156 249 174 172 102 64 55 222 108 211 104 35 12 225 41 137 30 217 97 126 142 247 120 175 254 252 60 136 12 191 27 184 239 169 157 139 164 167 222 160 55 254 119 205 110 203 249 39 186 76 193 134 29 120 31 63 254 27 101 22 230 94 21 52 108 211 217 58 85 64 14 75 35 85 56 146 182 250 137 140 29 108 143 96 123 100 167 98 149 169 58 89 146 24 195 2 139 62 141 155 76 190 168 43 30 145 47 19 220 54 107 228 198 249 58 74 247 219 242 8 172 55 6 158 191 18 237 135 229 218 146 195 228 170 240 97 45 133 210 238 232 133 94 71 52 85 213 16 219 53 227 51 196 65 221 198 152 168 144 113 76 66 17 176 206 95 14 230 240 94 146 88 182 208 92 37 235 233 26 189 28 157 74 30 242 109 103 145 196 237 25 102 187 197 103 169 112 180 241 137 157 63 242 135 162 44 243 225 99 126 3 253 240 135 90 171 223 35 93 155 56 157 174 243 138 216 200 65 24 250 84 115 244 115 213 159 155 185 44 101 66 13 30 238 25 121 212 182 76 142 103 36 63 2 188 138 175 41 90 61 246 191 93 134 13 173 4 182 46 66 94 64 98 137 210 218 180 61 202 94 28 53 2 193 246 166 76 5 144 29 208 236 88 77 184 182 194 47 140 173 138 128 118 37 157 188 109 59 255 140 141 33 189 68 135 17 66 79 45 186 237 149 136 240 195 205 33 8 197 56 136 72 193 239 85 82 47 56 96 103 105 140 250 25 244 70 244 112 134 205 17 109 174 168 109 12 169 162 151 229 78 156 209 11 78 103 243 192 164 0 6 210 168 36 186 108 245 214 112 246 159 5 53 24 73 118 133 172 229 104 235 9 162 197 144 27 190 33 40 200 208 216 104 4 253 33 45 245 21 181 20 252 199 252 215 94 51 199 251 171 11 143 160 209 228 122 70 197 124 51 40 45 220 131 157 108 152 40 179 201 173 56 47 236 203 28 244 123 112 199 10 21 129 34 127 207 61 66 42 81 8 235 120 41 224 34 136 116 31 182 239 155 74 76 133 208 82 142 224 109 121 88 38 216 224 233 253 51 56 153 71 140 72 110 139 154 90 135 53 94 131 158 159 197 22 38 48 192 47 75 220 201 2 98 141 102 81 249 0 13 137 5 162 134 246 16 61 74 186 30 103 110 151 51 198 229 143 220 232 220 21 235 177 130 59 41 211 235 205 2 46 232 42 221 155 63 84 226 180 169 138 86 103 160 151 150 208 210 144 12 126 16 28 0 70 165 90 123 18 151 144 79 66 138 114 248 45 149 158 84 102 25 131 102 185 198 244 235 86 129 181 52 145 80 209 78 106 173 82 97 169 225 46 57 34 146 24 48 227 82 79 219 89 42 223 77 102 244 147 163 202 83 218 66 163 11 21 33 248 26 41 151 25 146 177 103 170 174 189 142 75 59 216 231 252 53 76 180 58 121 198 11 18 204 72 158 130 9 111 28 22 81 198 202 85 159 203 70 88 252 180 204 112 200 233 129 104 98 21 129 193 194 74 138 240 125 160 51 163 37 70 60 183 180 88 216 152 188 11 8 62 27 137 142 100 18 89 192 42 6 247 220 96 163 175 192 118 91 26 80 164 81 247 89 41 9 0 175 4 108 68 230 163 228 161 168 157 147 233 201 3 152 127 82 11 161 32 119 242 255 38 63 220 35 239 119 178 53 48 72 238 168 142 33 255 207 106 62 187 159 62 99 123 202 187 175 173 103 88 17 65 196 36 191 109 218 23 47 38 25 102 108 41 129 63 199 157 30 105 123 96 157 163 86 163 57 39 12 155 18 19 123 27 149 99 58 191 144 221 25 196 126 27 105 19 27 237 146 80 49 182 132 206 209 211 194 195 88 127 156 150 176 150 85 160 221 157 200 187 214 205 54 23 228 167 42 201 194 206 111 196 163 59 211 7 209 123 34 14 135 184 225 46 185 19 130 4 112 239 34 243 18 167 11 244 143 61 136 108 244 44 179 163 254 141 161 205 243 53 139 221 80 186 180 240 233 11 119 31 189 210 224 49 92 218 148 185 137 176 37 202 243 141 33 245 131 36 73 209 223 235 246 223 183 199 82 6 55 249 233 38 54 76 77 52 153 112 203 7 208 227 65 235 5 72 112 9 239 220 182 211 96 169 96 131 68 98 75 251 172 61 224 187 197 249 97 169 249 69 130 58 46 153 73 231 241 215 14 159 106 139 197 31 49 95 173 236 72 79 236 51 52 103 147 36 230 195 229 178 211 70 137 28 160 64 208 8 196 99 212 87 11 156 29 23 192 87 84 181 131 83 29 181 130 249 127 15 195 67 128 237 157 182 74 239 200 10 141 190 81 121 155 243 90 75 237 36 20 195 225 173 139 149 224 142 251 113 97 19 27 45 9 121 29 169 47 230 48 247 195 29 81 172 86 100 241 239 6 247 115 2 107 235 152 1 140 11 138 244 234 156 105 249 246 139 76 215 171 163 103 49 37 81 86 30 49 65 109 75 152 61 147 138 90 225 122 173 156 249 152 167 194 200 244 175 141 164 128 172 45 53 183 174 40 157 94 184 42 143 25 234 57 79 103 213 74 201 93 56 93 130 253 183 167 40 217 91 80 88 106 50 0 169 139 227 191 208 87 15 246 250 159 122 250 2 74 94 160 143 192 101 17 164 244 201 78 76 236 243 119 240 79 58 149 99 169 161 122 76 157 197 54 166 113 209 138 135 17 67 2 104 238 186 27 111 221 4 253 160 208 223 34 187 104 77 208 237 152 89 151 201 124 182 145 17 84 54 48 41 83 171 120 14 68 223 29 167 212 81 151 133 2 178 124 53 124 97 7 106 235 23 57 253 252 153 70 141 73 41 67 102 91 147 199 248 92 252 146 79 40 11 188 173 173 29 136 235 217 54 48 171 175 115 87 154 228 83 254 246 244 175 144 246 231 71 118 70 239 81 5 212 28 38 132 99 176 76 243 17 112 96 25 14 69 162 89 123 157 230 25 84 194 207 147 17 20 88 157 195 197 49 9 33 65 69 229 2 34 69 94 0 199 55 146 215 217 184 90 149 231 67 74 212 247 138 228 174 206 186 115 162 191 119 116 75 218 47 154 165 82 26 6 240 36 115 46 163 34 122 60 116 234 177 49 205 179 35 41 3 255 101 141 117 201 164 105 66 12 0 180 126 226 119 205 49 119 32 83 192 19 34 207 16 160 152 231 36 186 86 198 72 168 201 189 114 44 212 183 154 231 137 202 219 172 114 135 196 140 179 109 234 228 222 150 127 232 201 121 138 75 171 44 229 158 163 141 97 64 54 205 255 11 59 246 175 114 255 17 25 35 78 212 60 253 30 181 129 237 133 18 20 202 91 152 120 227 18 159 232 196 15 223 18 228 105 233 208 94 37 57 85 213 68 253 14 79 193 234 222 29 243 171 99 18 204 90 119 38 64 63 75 151 212 183 62 102 159 210 237 0 234 2 124 127 121 164 189 218 245 155 246 106 255 73 108 141 117 90 44 169 222 83 28 185 182 63 3 108 103 133 127 227 114 238 51 248 220 140 231 241 81 83 238 36 27 222 177 191 24 56 41 231 213 232 70 4 251 163 103 19 94 133 84 37 221 55 219 245 70 13 217 199 175 241 212 225 203 31 99 139 176 166 141 25 4 55 90 73 195 34 57 121 205 26 209 38 219 139 146 36 237 101 84 195 116 161 214 33 188 114 31 28 198 208 