P3
#HOLA
50 50
255
215 139 190 207 136 64 130 67 140 146 103 161 54 70 46 195 227 226 214 194 81 101 207 194 149 96 85 145 87 181 63 150 75 7 113 19 90 93 118 26 249 144 120 206 26 41 4 2 162 244 22 85 185 247 2 224 145 26 13 3 72 87 138 106 191 167 19 184 67 110 64 29 187 161 225 189 29 190 82 53 199 175 167 129 139 14 123 151 49 192 36 206 168 228 217 78 170 28 160 127 230 159 48 195 139 56 250 100 87 89 233 99 227 43 234 125 63 25 108 28 9 183 168 23 53 183 198 104 2 188 228 104 224 112 236 19 142 245 231 226 176 93 84 164 105 25 61 46 97 217 4 242 92 178 138 210 246 132 48 235 40 56 215 239 150 176 83 220 40 251 253 128 54 94 72 129 247 249 93 72 81 5 56 12 110 85 17 85 192 85 12 102 222 116 148 224 255 191 253 96 88 75 233 44 168 46 247 254 104 43 68 214 217 141 18 76 165 51 168 242 212 214 77 141 46 245 127 131 241 58 209 194 249 239 127 70 103 212 213 37 178 127 150 10 221 217 194 146 114 167 55 190 216 218 110 26 198 43 227 8 250 15 178 106 65 36 165 148 70 255 219 55 32 104 97 9 100 191 225 48 193 245 7 208 186 147 160 103 249 119 210 186 160 159 47 182 172 159 220 105 143 12 55 105 61 105 197 134 85 36 185 154 203 197 74 125 226 194 239 244 89 70 6 28 109 61 140 95 130 210 93 77 192 249 210 6 71 141 27 161 246 156 110 230 15 120 69 223 42 241 29 242 128 146 60 57 161 190 211 196 3 74 114 117 15 138 109 100 184 251 137 21 126 231 152 119 88 49 194 128 118 28 234 114 21 255 245 193 203 130 225 79 163 23 105 85 216 182 59 24 210 80 238 215 164 30 101 76 164 69 141 99 51 229 155 66 43 140 118 91 180 229 242 195 32 18 245 229 209 81 19 4 240 68 1 216 80 150 209 170 109 120 202 123 218 164 85 104 18 144 75 192 62 133 251 42 140 219 222 17 255 113 175 32 146 146 129 189 150 238 106 220 109 239 207 162 118 12 69 55 58 63 133 208 248 34 205 18 169 81 17 252 187 166 100 154 102 43 236 242 82 129 32 107 250 68 28 51 10 225 115 156 176 242 58 169 91 205 5 174 177 19 17 53 148 171 181 172 96 86 154 119 43 230 19 196 90 3 107 79 88 44 65 232 238 154 241 166 12 52 223 112 131 215 117 202 33 14 188 250 179 16 43 239 113 19 138 209 234 32 228 1 247 69 82 149 229 34 164 133 136 67 184 199 134 75 105 206 217 54 82 200 38 136 124 37 65 58 3 32 133 167 48 204 58 208 106 251 43 200 58 151 68 249 3 189 211 226 240 147 10 208 139 215 214 190 255 79 127 119 129 6 251 224 38 53 200 223 149 197 67 173 133 73 93 213 14 159 131 41 98 99 192 88 38 39 141 108 220 38 201 61 53 172 71 238 34 216 111 16 8 115 173 169 35 122 7 33 105 95 1 170 65 133 206 237 34 50 252 19 224 27 70 181 162 207 85 228 2 165 200 130 178 47 200 118 71 251 175 149 233 238 77 24 250 178 21 214 93 152 181 236 175 185 120 113 182 254 16 68 126 28 174 14 22 115 126 199 114 115 230 8 201 207 136 243 181 86 129 20 93 152 23 115 126 112 5 134 141 252 69 44 235 233 150 137 156 59 21 226 228 21 136 240 166 169 159 204 171 11 6 83 128 17 123 206 218 119 109 138 56 85 30 157 193 116 230 50 0 62 204 63 159 240 207 73 0 254 86 130 56 114 230 174 57 19 191 17 88 219 50 2 106 108 24 130 229 61 121 96 41 106 178 72 234 146 171 228 98 217 88 158 216 249 141 184 2 32 170 90 25 161 194 15 237 105 33 197 9 60 111 198 8 153 63 123 155 194 14 230 230 222 225 137 254 145 215 89 87 254 173 161 64 119 205 205 61 180 213 210 170 9 170 153 123 7 65 143 13 238 231 19 23 232 254 210 14 78 250 50 190 16 98 233 152 91 193 172 157 0 222 186 22 67 76 74 233 118 231 170 249 151 76 72 84 209 70 67 130 92 47 246 89 8 143 17 222 63 146 161 191 11 36 179 89 154 60 192 186 140 244 209 44 18 64 8 79 10 97 119 169 170 241 228 227 225 209 1 147 21 84 139 130 178 47 51 7 125 204 88 249 137 45 240 86 171 141 29 69 229 242 33 39 34 231 198 162 61 240 157 136 91 122 196 15 135 247 0 226 94 207 118 218 165 109 162 65 169 79 203 70 162 247 245 253 73 248 130 199 155 164 17 129 247 101 160 100 131 40 197 117 82 22 6 61 7 192 170 116 61 255 107 66 85 4 162 145 37 170 229 168 231 66 123 176 133 28 64 23 88 194 137 73 206 33 141 30 138 173 68 223 247 215 176 206 249 109 111 231 11 221 199 126 206 242 238 135 133 166 90 1 249 12 112 131 231 217 217 87 39 46 114 128 154 61 167 246 1 46 92 215 252 168 234 154 211 208 45 220 226 251 68 208 160 98 167 0 200 229 187 169 30 152 134 230 110 150 164 88 38 27 207 144 50 232 85 179 207 94 4 99 188 51 90 80 177 81 165 214 89 222 14 56 62 251 111 249 97 47 169 152 153 163 198 0 6 167 150 172 169 183 147 81 3 214 97 36 34 3 36 191 114 193 87 82 68 204 234 169 239 124 108 8 145 107 26 122 21 19 211 148 26 173 101 199 124 96 64 34 112 229 83 73 177 32 89 183 100 33 74 181 156 55 199 15 167 94 226 247 240 170 57 51 139 96 110 79 254 25 223 59 25 133 174 183 1 52 75 144 198 228 68 166 161 207 112 219 197 201 127 212 246 156 118 57 210 95 220 92 246 80 239 33 212 203 127 120 190 34 8 13 231 76 0 88 141 255 91 131 39 82 54 39 191 163 49 201 195 5 209 231 21 96 78 230 253 60 208 142 159 32 70 186 71 22 2 226 7 145 49 92 91 120 54 127 123 52 23 187 152 146 173 96 97 225 62 232 7 90 19 90 74 29 49 61 62 171 222 182 138 158 239 249 178 167 102 238 112 34 22 171 201 178 105 244 248 109 33 253 155 254 188 171 234 196 70 164 60 214 79 86 54 188 189 227 68 137 175 238 102 17 80 230 59 164 10 207 52 109 168 191 42 202 31 239 147 107 237 165 64 123 21 233 74 106 183 6 49 140 245 16 105 18 24 201 41 155 29 50 173 107 228 112 34 55 142 85 244 212 39 80 225 182 86 187 20 20 10 236 157 146 191 224 167 9 114 165 102 216 102 204 241 98 134 228 98 29 233 111 19 50 54 91 251 180 106 108 34 231 218 97 202 110 0 37 4 48 8 121 1 76 14 26 81 192 107 51 176 252 135 19 106 19 43 208 51 242 70 27 19 191 229 255 14 143 26 36 59 243 215 135 232 150 123 122 137 245 192 113 236 178 21 229 26 36 89 181 153 177 228 187 0 230 113 177 202 114 139 166 177 182 64 215 224 75 119 63 133 181 223 98 194 148 114 112 30 214 138 181 230 181 30 77 101 181 12 241 73 221 5 25 75 202 234 58 44 222 16 180 142 207 16 112 170 171 246 250 233 176 214 62 119 57 131 86 57 86 181 133 164 240 196 223 103 29 157 100 31 255 227 130 224 217 234 139 254 76 24 60 112 116 250 23 4 47 120 245 149 28 155 116 181 166 0 146 245 155 187 40 18 187 216 188 178 93 167 198 128 27 80 172 131 130 243 193 105 113 10 127 230 171 159 156 103 109 126 219 244 205 107 134 96 14 48 22 36 133 150 182 219 233 128 99 200 101 78 185 28 69 128 147 24 42 255 103 208 61 86 152 32 166 14 48 47 81 60 186 179 23 62 117 75 16 72 117 104 42 17 102 43 236 98 9 97 93 204 18 199 251 93 61 21 112 29 230 186 127 188 249 119 161 254 199 169 97 243 8 224 253 11 97 162 92 146 184 92 143 101 96 205 118 123 175 111 55 114 145 195 170 183 184 162 138 111 195 225 218 180 25 229 94 14 251 252 236 239 254 150 251 46 197 48 246 127 82 68 180 200 74 173 217 187 41 153 67 92 133 131 248 111 115 150 85 59 174 94 61 172 216 69 249 100 57 52 206 247 139 58 95 174 168 151 55 234 10 50 229 179 22 252 93 172 56 234 86 1 95 2 145 148 63 209 228 137 202 135 213 37 248 211 78 164 216 54 67 193 11 54 176 214 86 212 237 170 220 213 167 210 35 146 89 240 39 109 35 93 167 38 129 143 159 249 30 129 117 0 76 161 170 4 182 191 17 216 54 29 97 164 2 216 190 168 40 210 152 11 36 147 132 195 241 52 152 175 148 173 55 58 180 1 198 255 208 172 151 57 68 55 47 244 191 23 223 175 181 150 197 50 182 252 81 33 99 52 217 135 151 36 76 11 38 78 38 144 215 41 176 150 184 45 106 67 29 204 6 118 194 68 133 168 152 28 59 9 98 53 248 154 241 10 26 140 150 246 149 107 195 208 86 206 8 150 1 46 211 86 110 238 118 19 17 55 30 195 215 114 206 67 68 45 227 30 44 90 94 160 86 159 142 246 116 107 67 152 176 48 59 9 2 134 180 224 38 198 39 96 23 227 125 197 69 210 86 242 137 202 62 53 223 118 197 42 27 42 138 79 64 99 87 31 98 204 91 59 21 142 65 1 223 162 193 226 3 58 10 5 127 237 68 89 172 132 28 111 4 43 243 131 5 220 240 36 0 252 138 40 226 238 188 56 133 184 67 152 3 246 194 35 37 55 82 213 163 29 213 119 88 72 203 2 39 38 176 165 136 229 5 124 208 166 95 248 204 140 241 183 163 232 84 3 28 180 178 174 163 127 238 240 206 87 127 84 101 111 104 95 181 112 85 196 210 117 242 111 103 77 85 199 105 172 3 117 10 170 59 140 117 82 3 67 157 157 22 100 176 119 192 165 198 74 208 219 150 160 16 211 82 207 88 33 197 48 66 28 198 16 30 237 40 66 58 43 162 16 143 241 151 186 103 207 217 88 162 76 45 141 169 146 236 24 189 208 207 185 144 35 191 57 254 79 24 12 205 182 209 244 139 13 224 105 144 37 28 81 234 26 160 160 97 114 86 128 199 31 172 147 161 237 203 128 114 121 245 231 168 50 106 229 165 198 16 57 165 201 243 53 246 203 201 34 124 231 97 176 206 133 166 111 184 74 226 48 41 89 42 122 68 149 173 13 92 195 66 87 157 213 165 19 111 6 41 145 75 14 98 112 211 124 235 122 159 221 62 174 198 8 185 207 208 204 175 123 163 228 135 128 159 45 119 18 54 183 66 46 231 155 234 174 25 238 244 154 219 56 176 154 57 214 38 27 168 136 249 64 35 67 130 54 234 92 211 167 167 168 160 246 14 243 55 102 141 186 49 112 147 38 130 133 49 34 255 93 170 52 226 37 246 127 55 128 138 92 115 195 123 190 4 68 41 181 13 226 88 3 188 205 171 122 161 96 22 83 6 56 92 194 54 179 172 163 90 105 135 46 133 103 116 16 239 152 142 17 59 176 188 4 3 151 6 86 31 250 126 189 102 240 156 155 28 248 2 84 113 225 125 214 178 35 97 174 124 106 78 6 75 182 228 200 75 55 89 177 148 60 118 98 215 47 10 84 198 29 63 194 119 59 85 46 94 115 176 132 248 86 12 160 82 240 72 31 169 74 83 8 181 69 225 151 146 48 237 139 204 8 194 172 116 183 179 52 201 164 198 62 96 146 162 106 96 173 25 109 202 33 230 88 240 78 35 74 255 35 14 208 215 17 27 176 60 117 151 186 246 243 106 119 116 167 161 250 49 15 143 121 21 109 188 46 176 191 26 11 247 10 227 12 124 167 16 58 202 54 142 236 13 240 97 61 160 224 138 47 41 231 31 62 251 74 220 142 86 9 74 147 61 129 87 70 16 34 76 202 77 231 8 31 150 236 244 75 57 255 240 20 240 71 35 1 71 65 156 250 178 198 227 57 44 27 204 1 13 101 236 170 230 241 172 218 145 54 90 178 12 152 110 248 180 242 51 147 119 53 45 16 107 54 142 10 192 5 46 145 198 183 84 245 152 15 200 64 134 196 183 91 74 186 113 198 148 223 143 234 178 159 211 61 110 167 99 70 75 28 191 24 227 163 167 123 252 210 68 160 112 175 118 236 43 129 80 186 10 125 229 139 110 0 22 7 6 40 133 59 65 95 235 204 124 194 217 201 109 15 184 217 168 28 193 50 241 199 184 191 53 129 156 124 36 25 1 71 156 38 143 220 198 242 203 106 126 208 75 51 59 131 56 194 221 237 89 167 86 168 116 63 25 34 148 150 3 8 47 62 68 6 91 98 197 65 10 195 167 233 106 124 160 212 83 159 46 27 179 197 243 147 143 195 21 207 69 91 237 11 21 169 113 20 27 3 8 19 248 15 86 234 250 22 50 250 163 195 126 159 93 123 202 24 243 0 199 244 130 0 6 74 61 71 163 42 191 117 174 217 12 25 207 104 144 151 232 84 180 204 191 143 95 129 18 82 245 8 149 193 176 51 250 3 28 245 125 248 1 50 195 225 137 245 44 21 62 42 83 167 101 161 232 94 56 29 214 30 119 88 4 49 69 78 47 156 38 177 244 26 201 198 39 220 81 247 49 176 164 42 16 80 168 100 255 97 210 101 174 199 189 120 37 193 25 201 129 30 194 219 45 192 229 171 64 237 21 70 221 43 235 43 102 62 170 118 174 141 214 229 125 60 19 86 222 86 198 208 55 56 183 245 129 238 42 43 91 201 24 3 187 130 89 73 242 55 172 12 235 165 189 135 248 247 153 13 22 60 169 42 120 164 82 218 184 59 55 115 247 105 212 164 176 141 4 52 164 232 50 210 204 85 3 99 170 207 183 117 123 56 86 225 90 146 45 195 33 61 213 253 244 239 9 109 157 189 149 156 8 157 208 162 228 179 230 204 2 61 48 124 25 108 240 83 94 202 40 211 103 21 28 17 154 196 235 16 39 24 67 88 130 193 228 131 202 42 245 247 38 135 234 11 22 46 147 193 83 197 91 81 102 153 85 218 69 92 218 207 195 32 189 131 139 133 71 105 103 40 60 160 28 11 222 17 36 52 201 212 60 120 160 135 157 174 114 203 211 114 197 105 10 114 81 248 174 71 27 164 74 194 8 57 187 55 111 207 137 95 129 152 16 111 165 30 138 98 111 182 58 174 24 33 45 85 209 201 124 192 22 138 1 203 249 39 246 211 32 114 212 178 130 5 71 42 21 121 182 81 180 65 189 132 105 199 248 154 102 10 101 204 100 167 240 41 144 208 15 141 205 25 151 135 105 56 110 27 74 200 215 47 237 155 171 97 51 149 53 227 194 33 43 25 130 231 12 111 73 134 22 158 166 127 52 220 1 120 45 171 210 28 228 144 210 219 154 44 72 73 255 0 222 250 100 99 206 113 37 133 165 50 114 161 180 27 71 143 19 17 194 7 155 235 232 162 246 190 131 216 170 134 233 126 82 185 45 176 175 233 9 208 40 149 166 29 209 90 223 14 211 46 148 43 194 50 207 21 237 127 205 96 144 28 61 154 2 11 23 245 183 153 143 140 208 207 112 149 253 66 83 139 57 116 250 162 119 168 163 7 104 15 107 137 93 176 255 141 191 93 60 74 93 195 219 71 9 130 34 113 184 165 163 145 211 248 133 220 45 166 38 8 246 41 43 20 253 162 97 10 223 23 142 15 67 205 139 10 227 150 82 36 52 218 188 103 129 12 122 145 6 110 108 184 40 89 69 49 188 227 175 78 195 164 12 239 110 2 20 255 165 196 252 160 139 28 253 237 71 199 61 83 109 120 160 245 196 130 8 55 113 41 97 16 116 88 130 96 156 38 46 181 19 11 214 198 234 17 194 109 214 246 172 201 231 156 225 113 227 250 164 40 82 33 151 138 84 133 70 94 230 6 140 160 161 183 26 211 17 110 41 40 61 224 113 173 64 232 33 6 14 45 11 11 140 195 34 26 95 100 4 97 121 24 203 29 248 250 177 65 88 212 129 149 59 128 91 63 15 232 173 177 30 80 48 71 228 177 97 182 127 222 110 103 83 61 7 32 252 122 64 110 150 126 81 247 6 118 25 223 125 40 41 38 83 54 240 188 225 43 129 11 242 62 228 250 126 88 152 168 17 115 11 10 189 110 96 0 148 35 87 15 23 55 105 149 215 44 161 7 217 75 185 63 174 217 108 255 30 145 254 27 198 246 184 150 78 193 197 152 231 126 169 166 132 38 184 114 45 74 185 88 4 224 163 202 158 185 246 241 62 2 97 14 252 145 7 154 220 85 231 118 59 85 199 240 152 137 100 133 25 206 229 132 10 215 162 247 178 236 215 149 83 106 181 8 161 203 134 60 117 71 179 129 165 132 43 191 50 120 91 46 18 2 91 133 225 135 96 228 40 47 7 244 112 155 248 40 42 114 223 95 193 69 47 50 93 212 25 98 13 133 39 153 171 214 173 110 100 214 61 196 89 8 101 218 213 246 128 16 219 243 91 129 199 177 56 11 0 222 93 114 93 63 145 73 89 24 189 135 194 127 227 251 204 124 160 213 17 61 192 226 135 165 178 99 15 185 6 161 182 138 103 166 174 97 25 62 239 18 162 203 103 101 47 180 243 134 87 19 39 23 23 239 48 105 125 178 73 0 111 212 89 26 4 161 110 19 193 11 242 182 135 140 126 106 186 212 130 122 11 68 158 209 33 77 159 69 89 4 109 119 55 76 121 251 11 15 45 72 229 175 113 81 128 142 190 197 124 143 219 159 163 206 178 1 176 138 46 189 194 119 153 219 179 236 51 177 207 146 5 160 179 249 65 59 131 137 185 62 236 6 148 213 175 16 114 218 245 25 112 8 46 133 189 12 32 28 66 197 226 29 93 169 127 55 140 167 209 144 182 190 90 98 138 103 83 230 158 44 219 90 41 121 31 78 156 143 227 153 220 93 130 52 58 183 234 108 178 249 9 49 241 158 107 32 34 176 190 252 240 122 40 142 11 183 202 99 122 168 13 217 223 37 90 72 146 254 181 78 194 220 150 215 42 171 91 145 233 217 208 198 180 224 32 117 181 235 114 193 33 245 108 229 238 92 237 8 112 41 193 121 182 22 117 106 30 24 2 147 143 66 177 37 97 175 147 84 213 34 218 10 33 149 182 32 140 229 84 88 43 33 250 208 206 60 168 52 66 3 139 97 24 100 160 83 98 104 75 8 21 111 54 31 39 159 211 57 111 184 35 241 233 104 220 19 53 32 144 251 224 40 142 70 107 42 219 45 13 200 37 168 76 210 81 148 61 30 231 255 247 117 3 81 126 181 66 39 209 78 245 150 158 140 219 144 187 104 29 179 82 49 251 43 119 12 25 162 40 99 124 183 25 168 114 86 66 159 64 195 227 245 189 190 182 56 181 239 126 49 15 111 129 222 118 219 182 203 78 158 182 36 103 87 95 212 100 196 191 52 34 142 223 199 149 52 109 53 238 239 72 207 74 255 230 13 145 254 120 141 188 214 255 63 184 241 34 71 78 59 244 51 97 148 108 118 149 233 91 3 112 245 202 151 134 5 15 13 188 135 12 153 47 168 89 30 242 37 130 6 211 72 10 45 172 234 47 197 220 142 127 105 175 149 7 130 200 127 128 239 210 215 229 20 39 118 252 200 152 125 51 130 83 4 87 82 220 116 49 156 11 125 222 246 56 216 2 251 144 131 113 185 230 194 249 154 83 12 138 63 182 101 140 159 82 13 47 175 43 159 227 87 160 119 111 108 118 103 78 224 50 89 48 47 180 193 44 4 23 56 155 17 159 132 220 28 62 149 78 168 140 139 155 238 245 41 98 176 66 200 185 95 229 153 50 179 75 186 101 246 124 233 92 160 109 99 133 145 238 88 148 119 60 94 193 219 237 99 128 6 174 205 50 179 120 110 131 177 23 89 220 236 171 11 135 209 145 59 255 160 195 16 3 32 35 154 161 227 60 105 207 43 102 163 247 41 231 186 215 108 86 54 173 154 147 94 53 141 196 85 67 220 160 51 191 183 99 209 130 123 130 231 86 20 197 241 140 47 212 246 178 97 30 221 119 64 57 11 66 169 159 200 64 41 211 106 39 68 24 245 50 196 192 138 48 221 255 232 133 123 91 61 2 196 119 171 115 241 96 174 142 238 227 124 100 71 47 14 175 36 29 255 145 181 23 45 71 157 91 148 55 59 198 52 205 171 251 80 179 234 181 54 141 47 201 173 148 189 242 145 156 147 218 245 56 16 70 231 42 51 242 22 14 237 141 204 187 95 223 190 246 120 196 136 130 137 26 195 153 98 40 17 194 135 16 123 126 91 138 206 115 238 168 152 205 117 78 228 48 240 85 236 109 52 77 52 168 187 107 247 7 94 214 161 168 250 38 88 165 137 191 223 125 255 127 224 223 152 244 242 175 16 100 200 34 19 200 100 110 99 142 196 181 146 0 20 187 45 240 56 200 65 126 13 196 160 35 203 88 254 193 229 102 240 176 91 9 121 124 95 172 224 30 117 232 223 233 52 166 121 156 5 130 176 111 58 192 136 109 182 255 52 99 243 224 108 202 26 129 68 121 236 68 81 196 1 52 164 40 171 228 108 233 247 2 126 35 88 149 43 230 207 199 42 225 127 183 159 98 231 115 103 136 231 118 56 50 80 110 6 94 234 82 212 158 223 243 95 29 4 31 226 2 62 21 178 25 184 32 107 147 34 219 177 145 235 97 107 158 51 129 215 188 13 150 135 254 87 239 54 153 172 229 139 10 114 89 61 109 196 165 200 127 19 107 98 175 128 21 39 249 45 110 186 93 136 248 105 203 105 33 36 236 14 84 133 228 79 214 31 157 224 134 58 134 112 117 232 9 166 238 96 21 250 16 78 29 106 225 147 249 221 209 96 236 104 50 126 159 181 214 166 19 188 112 190 116 47 190 57 97 244 176 228 62 190 129 208 49 43 6 32 42 138 160 108 101 32 136 174 92 204 194 141 81 134 146 52 122 195 12 18 125 1 53 52 107 15 14 156 158 156 162 74 154 50 159 40 250 153 230 84 65 170 167 133 189 132 206 80 141 188 29 64 237 197 121 160 189 217 34 106 192 0 52 20 73 155 210 176 129 51 68 96 69 48 149 248 176 75 15 98 40 211 123 112 110 155 170 101 189 144 163 12 208 214 160 121 83 246 20 43 148 156 173 207 98 101 188 14 231 55 204 133 111 215 27 140 101 120 84 196 128 86 103 250 205 216 77 13 168 201 211 152 98 57 196 110 163 238 56 27 209 209 102 214 5 44 53 59 166 0 94 157 251 54 46 246 232 214 8 187 90 137 94 174 119 253 208 236 27 254 164 200 150 239 190 205 47 191 60 162 130 194 0 152 4 175 134 195 229 150 25 197 90 15 38 124 82 136 8 39 205 227 118 250 33 211 247 190 173 211 45 246 132 104 168 60 224 45 149 46 147 15 220 232 217 13 81 159 216 227 177 66 248 216 142 98 126 84 153 153 137 215 132 236 137 108 251 5 50 135 154 190 66 22 255 131 36 107 253 2 159 105 221 236 207 171 75 146 122 178 226 7 248 241 54 250 146 214 59 137 20 13 179 210 135 117 63 108 251 16 176 183 157 37 1 161 184 150 80 89 138 203 58 36 15 77 186 253 200 213 85 77 238 210 140 91 112 183 210 193 209 12 176 174 19 182 29 252 157 152 81 145 26 138 166 170 106 68 207 29 149 88 93 59 105 42 144 126 72 220 188 151 224 186 198 152 170 164 192 26 252 3 12 207 242 40 232 75 147 173 24 179 167 22 102 127 124 27 35 50 46 62 130 174 48 25 127 234 117 125 17 223 66 146 103 218 84 251 228 154 118 141 254 194 173 227 136 201 159 127 200 130 49 201 130 255 164 239 48 85 97 97 135 21 6 192 238 75 205 57 111 226 107 134 197 58 194 48 78 92 65 32 132 76 129 25 15 204 192 170 193 202 5 33 166 71 92 247 2 81 106 71 165 156 66 193 131 40 135 186 186 139 241 48 189 147 21 119 24 17 205 125 170 169 68 232 50 208 24 235 242 206 157 65 104 175 135 104 133 201 98 248 19 162 12 9 164 24 57 100 124 40 8 161 250 247 126 251 193 198 5 192 22 47 119 22 86 111 142 178 20 51 218 189 219 59 99 124 32 241 125 16 59 72 204 9 219 154 99 85 184 240 4 4 243 19 103 132 247 29 87 98 224 97 236 253 27 16 238 120 54 73 46 34 55 153 63 254 240 186 218 93 0 122 94 202 100 230 168 234 62 27 87 86 130 72 37 118 62 213 253 172 166 191 190 3 107 187 133 17 160 0 46 253 140 29 154 20 153 245 12 120 137 117 145 3 211 114 30 177 211 182 59 125 90 252 202 33 64 84 132 131 94 38 110 229 57 161 24 56 236 138 135 246 114 151 222 81 12 225 33 51 106 142 90 188 31 147 148 79 5 254 98 88 235 123 133 229 206 19 70 215 114 96 223 6 53 93 203 231 52 85 72 163 57 112 152 89 45 206 123 222 127 103 209 234 240 36 28 111 169 86 54 121 119 203 64 70 0 251 56 105 71 3 249 188 45 41 229 170 1 139 62 25 228 19 240 31 89 162 231 166 248 0 177 195 249 208 143 21 100 160 154 101 26 93 75 21 155 160 248 190 214 51 28 102 61 249 45 176 165 139 215 125 166 139 157 231 238 194 85 251 21 221 145 69 183 203 159 183 245 225 250 166 99 16 250 179 79 139 210 97 76 209 157 167 103 204 166 46 234 125 237 158 66 140 221 35 140 169 39 133 149 161 206 162 192 124 254 70 34 97 5 25 217 234 171 79 142 79 53 48 185 148 101 113 224 80 19 69 123 207 123 79 100 202 184 144 7 210 140 36 138 16 2 179 183 214 144 188 150 3 61 90 169 90 67 180 179 29 143 73 69 121 86 35 48 23 115 231 151 131 216 45 14 63 171 15 246 227 75 115 54 121 254 119 11 193 154 60 48 217 136 203 168 166 199 191 9 86 8 84 77 111 199 150 61 192 251 41 118 48 144 108 36 166 17 206 100 106 169 15 130 62 197 6 23 218 214 249 219 165 150 98 155 131 28 238 175 71 194 69 155 112 167 248 111 219 168 228 71 43 76 47 241 67 185 227 51 243 153 81 84 153 100 28 58 0 229 53 57 70 3 78 206 48 9 148 240 52 20 95 8 250 198 39 73 13 151 87 151 205 29 97 109 134 206 37 190 58 167 159 147 24 21 218 241 220 47 227 173 249 158 97 32 72 196 37 36 251 68 216 60 161 155 71 229 227 156 179 72 58 246 244 160 223 196 231 110 180 230 162 167 105 133 98 143 39 185 206 36 224 181 105 213 196 141 112 52 236 147 181 77 248 32 120 254 31 188 75 142 7 91 37 67 189 4 153 199 116 33 91 83 245 55 73 169 238 183 20 121 59 107 142 3 253 248 108 183 72 181 143 243 13 38 211 238 155 198 133 20 14 190 25 8 219 26 77 223 247 60 138 10 185 57 165 214 146 163 9 55 241 215 154 238 68 91 46 248 185 73 180 185 162 198 208 71 50 85 142 126 92 96 140 66 122 244 110 109 255 99 237 239 179 44 77 187 96 64 123 6 106 163 119 94 15 169 142 17 92 82 132 147 101 114 115 129 206 198 95 76 79 115 2 49 25 28 105 40 63 13 55 106 11 99 81 62 185 15 159 51 253 251 123 47 254 234 230 155 197 98 133 241 224 130 162 217 226 201 218 48 192 210 190 248 23 97 246 203 40 11 145 230 202 51 25 186 131 13 164 221 229 56 156 178 7 100 81 205 10 193 27 94 37 245 200 33 70 89 10 221 114 110 228 214 67 164 50 173 199 241 171 78 250 89 49 141 135 205 77 49 34 63 147 178 84 132 60 204 165 215 104 15 245 231 2 48 39 0 254 169 73 149 68 59 41 102 188 53 220 207 32 52 71 194 119 54 129 60 215 131 240 10 192 155 116 170 68 170 99 187 35 215 185 250 116 235 5 108 214 180 165 74 202 45 124 183 17 253 154 20 148 222 27 40 211 225 107 42 120 113 129 168 63 154 25 42 226 61 164 87 169 247 194 218 138 194 154 213 154 57 78 242 122 108 56 22 219 33 151 187 150 152 18 219 197 49 68 54 245 241 77 14 35 168 222 178 236 160 52 247 18 140 23 195 88 80 131 116 129 228 30 86 227 210 29 119 11 123 174 189 139 5 95 211 16 209 126 108 241 89 49 58 122 0 137 205 141 146 223 199 25 116 142 126 176 251 108 17 143 244 253 141 159 178 43 31 108 245 87 213 123 137 125 246 74 100 132 204 217 171 98 115 53 138 90 40 45 130 212 250 195 168 252 193 228 16 18 57 4 8 41 236 166 165 103 76 10 31 42 227 8 241 161 163 238 191 0 194 130 220 165 200 84 184 211 124 90 214 51 76 60 40 2 59 37 232 167 137 125 183 154 190 111 254 123 43 210 162 41 114 196 184 241 14 42 228 253 146 129 165 114 245 128 90 71 73 52 240 219 122 126 133 81 55 240 234 216 84 244 35 130 65 180 135 167 212 58 6 49 46 130 41 15 230 108 58 5 210 149 130 24 2 7 173 17 76 242 40 63 28 238 78 89 80 74 119 85 82 77 243 200 109 81 53 153 1 50 64 144 143 229 49 27 14 1 68 44 14 217 161 112 74 226 101 155 23 211 80 77 69 226 89 30 29 4 234 229 43 23 136 149 108 65 36 169 133 86 127 94 46 37 241 138 3 231 32 23 177 63 60 198 102 185 213 155 62 221 184 65 204 215 44 10 247 241 147 73 153 130 132 238 40 43 112 213 205 159 70 56 37 64 190 0 185 28 174 52 231 16 17 43 111 123 214 165 163 107 67 116 214 183 141 181 15 154 185 41 244 244 215 62 36 182 174 162 123 0 74 29 159 76 193 70 194 110 248 167 109 3 26 52 95 220 107 39 185 215 8 113 219 78 114 200 8 72 153 109 112 107 31 111 53 241 25 97 198 181 212 80 105 211 4 19 224 8 160 185 48 225 54 117 174 5 90 202 108 48 210 167 115 19 224 250 25 158 139 7 36 210 174 181 52 91 1 155 1 248 143 40 214 194 165 71 174 118 22 197 102 189 79 19 143 109 88 131 234 123 75 240 201 1 10 17 3 243 42 185 201 215 42 106 192 6 224 204 200 52 210 117 132 250 181 2 183 109 118 151 5 58 110 152 214 97 213 63 81 51 164 224 186 119 120 255 243 174 83 104 103 186 188 100 229 162 128 228 180 41 76 218 234 37 31 40 220 84 205 187 151 180 50 36 189 137 234 2 128 105 233 103 215 47 122 72 117 13 246 83 5 131 221 254 210 183 80 246 71 58 186 27 235 232 91 120 146 236 205 238 29 40 38 57 172 78 102 119 126 172 160 208 237 178 230 37 221 44 30 212 147 33 164 36 147 85 138 190 94 231 155 117 238 160 59 25 25 11 32 141 144 108 223 163 222 69 118 8 142 217 167 102 155 200 239 120 171 199 185 81 88 234 42 99 128 19 199 3 98 234 47 102 208 253 171 85 3 62 249 129 5 214 235 57 206 65 108 213 147 28 52 122 95 45 49 231 233 229 237 186 153 179 145 85 218 222 185 40 129 194 34 203 167 189 107 39 166 67 206 227 237 185 17 103 103 80 119 245 71 167 235 181 43 30 216 143 107 244 249 10 77 128 196 119 79 100 255 46 35 118 165 160 217 134 42 119 67 226 41 125 177 215 249 124 95 15 214 52 95 212 227 119 104 15 124 70 249 55 150 177 55 41 1 216 169 216 102 4 150 98 195 198 222 58 171 72 144 175 171 193 144 222 50 217 245 203 121 94 20 14 127 148 209 11 241 33 236 59 130 24 253 141 165 149 34 9 44 202 12 245 18 197 227 241 119 64 244 206 35 32 33 19 102 124 101 231 173 47 211 8 8 49 137 224 94 41 212 135 154 123 212 23 249 103 122 21 49 137 0 29 126 221 70 26 228 251 168 248 97 199 114 134 195 122 8 218 105 242 31 245 242 118 215 232 67 209 232 148 179 152 156 169 19 134 146 13 157 29 217 65 155 203 107 105 24 95 200 149 24 1 194 39 94 8 216 205 97 0 147 100 31 196 182 219 203 69 202 156 36 153 242 4 180 115 237 244 152 53 220 33 207 88 39 171 67 63 133 213 217 190 187 193 107 137 49 168 80 67 12 42 230 168 175 206 207 2 2 68 255 58 32 245 81 111 104 98 15 212 166 192 1 195 58 243 144 217 46 222 234 171 156 182 239 137 174 164 59 242 106 131 27 12 221 247 152 190 29 68 31 186 125 187 90 42 194 79 8 76 207 161 155 126 221 125 225 91 104 73 72 30 173 224 226 72 43 194 31 168 4 230 193 38 154 167 191 210 175 185 234 56 253 32 32 255 157 208 150 145 30 250 148 150 234 226 209 77 213 173 142 31 66 39 64 69 245 127 43 160 163 236 57 2 166 35 101 229 132 128 229 68 217 238 136 4 201 222 145 0 215 222 41 4 28 145 121 174 117 255 53 149 31 71 94 83 40 166 143 243 84 51 102 37 114 94 68 213 102 210 38 165 70 230 222 0 86 112 147 243 241 101 99 15 25 183 90 110 93 96 188 18 165 218 23 151 183 49 153 28 139 75 